<svg xmlns="http://www.w3.org/2000/svg" viewBox="0 0 750 500"><g id="freepik--background-complete--inject-16"><g><path d="M89.69,439.92s99.4-28.68,127.5-29.56c24.95-.79,65.51,1.55,113.12,9.83,70.54,12.28,131.34,19.73,131.34,19.73H89.69Z" style="fill:#dbdbdb;"></path><g><path d="M660.31,439.92s-58.05-39.59-125.55-43.15c-41.05-2.16-87.44,6.03-127.65,16.2-67.02,16.95-119.62,26.95-119.62,26.95h372.82Z" style="fill:#ebebeb;"></path><g style="opacity:.5;"><path d="M541.59,439.91h29.06c14.85-2.56,29.67-5.4,44.38-7.38,9.73-1.41,19.74-1.75,29.64-1.97-18.9-6.7-41.23-5.09-60.9-1.58-14.52,2.67-28.66,6.18-42.18,10.93Z" style="fill:#dbdbdb;"></path><path d="M489.43,439.91h13.28c14.05-4.37,28.19-8.35,42.86-11.59,14.82-3.36,29.92-6.16,45.18-8.15,9.22-1.19,18.51-2.23,27.97-2.32h.05s-.08-.02-.13-.03c-22.42-5.96-53.7-2.67-76.13,2.41-18.86,4.29-37.14,10.76-53.09,19.68Z" style="fill:#dbdbdb;"></path><path d="M435.13,439.91h10.14c5.69-2.11,11.37-4.18,17.08-6.2,39.93-13.74,83.74-28.15,128.16-26.42,.09,0,.18,0,.27,0-.55-.15-1.1-.3-1.66-.44-47.85-12.35-111.22,9.15-149.95,30.74-1.36,.77-2.7,1.53-4.03,2.32Z" style="fill:#dbdbdb;"></path><path d="M398.34,439.91h3.96c9.63-4.35,19.29-8.42,29.09-12.29,34.48-13.25,81.11-30.22,120-29.26-5.47-.75-11.02-1.3-16.64-1.6-10.49-.55-21.32-.43-32.32,.23-.02,0-.03,0-.06,0-34.56,5.26-70.69,20.63-92.98,35.02-3.84,2.5-7.58,5.11-11.07,7.89Z" style="fill:#dbdbdb;"></path><path d="M353.62,439.91h6.05c7.47-3.69,14.99-7.23,22.61-10.63,20.04-8.74,44.32-18.97,68.93-25.93-15.13,2.72-30,6.05-44.1,9.61-5.9,1.49-11.69,2.93-17.35,4.31-11.14,5.57-21.12,11.53-29.14,17.28-2.4,1.73-4.75,3.51-7,5.35Z" style="fill:#dbdbdb;"></path><path d="M316.78,439.91h8.85c5.02-2.4,10.08-4.74,15.18-7.02,6.61-2.89,13.69-5.94,21.1-8.97-11.81,2.74-22.64,5.16-32.17,7.23-3.82,2.35-7.37,4.71-10.6,7.03-.8,.57-1.58,1.15-2.36,1.73Z" style="fill:#dbdbdb;"></path></g></g></g><g><path d="M79.82,129.78c5.94,0,154.13-1.03,195.99-1.03,2.93,0-.77-5.07-2.39-5.42-5.15-1.13-10.51-1.19-15.74-1.73-5.25-.55-10.13-1.7-15-3.76-4.12-1.74-8.23-3.75-12.69-4.44-8.62-1.35-16.19,3.32-24.28,5.38-5.26,1.34-10.03,.8-14.7-2.01-3.74-2.24-7.14-4.93-11.05-6.91-14.85-7.5-32.94-8.19-48.43-2.22-3.7,1.43-7.27,3.24-10.59,5.42-3.95,2.59-7.36,5.91-11.32,8.47-8.78,5.68-19.63,3.83-29.2,7.09-.53,.18-1.12,1.16-.61,1.16Z" style="fill:#ebebeb;"></path><path d="M521.46,80.05c7.85,0,139.98,.87,148.28,.61,.6-.02,.92-.89,.32-1.19-5.23-2.59-11.17-2.07-16.61-3.9-3.2-1.08-5.17-3.17-7.39-5.57-1.92-2.08-4.14-3.67-6.88-4.49-2.42-.72-5.03-.82-7.49-.23-2.68,.64-5.01,2.17-7.57,3.14-6.35,2.4-12.52,.12-17.05-4.58-3.74-3.87-7.41-7.52-12.49-9.61-4.25-1.75-8.98-2.11-13.24-.18-4.85,2.2-8.17,6.61-12.72,9.27-5.4,3.15-11.85,2.41-17.81,3.36-5.98,.95-10.54,5.97-15.76,8.86-1.79,.99-3.61,1.82-5.7,1.76-1.17-.03-2.31-.35-3.47-.49-1.8-.22-3.51-.17-4.72,1.33-.29,.37-.23,1.92,.28,1.92Z" style="fill:#ebebeb;"></path><path d="M502.91,174.49c7.85,0,139.98,.87,148.28,.61,.6-.02,.92-.9,.32-1.19-5.23-2.59-11.17-2.07-16.61-3.9-3.2-1.08-5.17-3.17-7.39-5.57-1.92-2.08-4.14-3.67-6.88-4.49-2.42-.72-5.03-.82-7.49-.23-2.68,.64-5.01,2.17-7.57,3.14-6.35,2.4-12.52,.12-17.05-4.58-3.74-3.87-7.41-7.52-12.49-9.61-4.25-1.75-8.98-2.11-13.24-.18-4.85,2.2-8.17,6.61-12.72,9.27-5.4,3.15-11.85,2.41-17.81,3.36-5.98,.95-10.54,5.97-15.76,8.86-1.79,.99-3.61,1.82-5.7,1.76-1.17-.03-2.31-.35-3.47-.49-1.8-.22-3.51-.17-4.72,1.33-.29,.37-.23,1.92,.28,1.92Z" style="fill:#ebebeb;"></path><path d="M222.9,76.45c5.73,0,102.2,.63,108.26,.44,.44-.01,.67-.65,.24-.87-3.82-1.89-8.16-1.51-12.13-2.85-2.34-.79-3.77-2.32-5.39-4.07-1.4-1.52-3.02-2.68-5.02-3.28-1.76-.53-3.67-.6-5.46-.17-1.96,.47-3.66,1.59-5.52,2.29-4.63,1.75-9.14,.09-12.45-3.34-2.73-2.83-5.41-5.49-9.12-7.01-3.11-1.28-6.55-1.54-9.66-.13-3.54,1.6-5.97,4.83-9.29,6.77-3.94,2.3-8.65,1.76-13,2.45-4.36,.7-7.69,4.36-11.51,6.47-1.3,.72-2.64,1.33-4.16,1.29-.85-.02-1.69-.25-2.53-.36-1.31-.16-2.56-.12-3.45,.97-.21,.27-.17,1.4,.21,1.4Z" style="fill:#ebebeb;"></path><path d="M419.78,113.36c5.73,0,102.2,.63,108.26,.44,.44-.01,.67-.65,.24-.87-3.82-1.89-8.16-1.51-12.13-2.85-2.34-.79-3.77-2.32-5.39-4.07-1.4-1.52-3.02-2.68-5.02-3.28-1.76-.53-3.67-.6-5.46-.17-1.96,.47-3.66,1.59-5.52,2.29-4.63,1.75-9.14,.09-12.45-3.34-2.73-2.83-5.41-5.49-9.12-7.01-3.11-1.28-6.55-1.54-9.66-.13-3.54,1.6-5.97,4.83-9.29,6.77-3.94,2.3-8.65,1.76-13,2.45-4.36,.7-7.69,4.36-11.51,6.47-1.3,.72-2.64,1.33-4.16,1.29-.85-.02-1.69-.25-2.53-.36-1.31-.16-2.56-.12-3.45,.97-.21,.27-.17,1.4,.21,1.4Z" style="fill:#ebebeb;"></path><path d="M516.8,265c5.73,0,102.2,.63,108.26,.44,.44-.01,.67-.65,.24-.87-3.82-1.89-8.16-1.51-12.13-2.85-2.34-.79-3.77-2.32-5.39-4.07-1.4-1.52-3.02-2.68-5.02-3.28-1.76-.53-3.67-.6-5.46-.17-1.96,.47-3.66,1.59-5.52,2.29-4.63,1.75-9.14,.09-12.45-3.34-2.73-2.83-5.41-5.49-9.12-7.01-3.11-1.28-6.55-1.54-9.66-.13-3.54,1.6-5.97,4.83-9.29,6.77-3.94,2.3-8.65,1.76-13,2.45-4.36,.7-7.69,4.36-11.51,6.47-1.3,.72-2.64,1.33-4.16,1.29-.85-.02-1.69-.25-2.53-.36-1.31-.16-2.56-.12-3.45,.97-.21,.27-.17,1.4,.21,1.4Z" style="fill:#ebebeb;"></path><path d="M155.68,188.32c5.73,0,102.2,.63,108.26,.44,.44-.01,.67-.65,.24-.87-3.82-1.89-8.16-1.51-12.13-2.85-2.34-.79-3.77-2.32-5.39-4.07-1.4-1.52-3.02-2.68-5.02-3.28-1.76-.53-3.67-.6-5.46-.17-1.96,.47-3.66,1.59-5.52,2.29-4.63,1.75-9.14,.09-12.45-3.34-2.73-2.83-5.41-5.49-9.12-7.01-3.11-1.28-6.55-1.54-9.66-.13-3.54,1.6-5.97,4.83-9.29,6.77-3.94,2.3-8.65,1.76-13,2.45-4.36,.7-7.69,4.36-11.51,6.47-1.3,.72-2.64,1.33-4.16,1.29-.85-.02-1.69-.25-2.53-.36-1.31-.16-2.56-.12-3.45,.97-.21,.27-.17,1.4,.21,1.4Z" style="fill:#ebebeb;"></path></g><g><g><g><polygon points="587.81 439.92 579.38 357.15 574.94 357.15 566.52 439.92 564.53 439.76 573.1 355.42 581.21 355.42 589.8 439.76 587.81 439.92" style="fill:#dbdbdb;"></polygon><rect x="568.68" y="365.14" width="16.96" height="1.73" style="fill:#dbdbdb;"></rect><rect x="567.19" y="380.94" width="19.95" height="1.73" style="fill:#dbdbdb;"></rect><rect x="565.52" y="398.47" width="23.28" height="1.73" style="fill:#dbdbdb;"></rect><rect x="563.86" y="418.77" width="26.6" height="1.73" style="fill:#dbdbdb;"></rect><polygon points="586.93 419.83 568.39 399.53 568.98 399.13 587.52 419.43 586.93 419.83" style="fill:#dbdbdb;"></polygon><polygon points="567.39 419.83 566.8 419.43 585.38 399.13 585.97 399.53 567.39 419.83" style="fill:#dbdbdb;"></polygon><polygon points="585.26 398.92 569.8 382.01 570.39 381.61 585.84 398.52 585.26 398.92" style="fill:#dbdbdb;"></polygon><polygon points="569.07 398.92 568.48 398.52 583.96 381.61 584.55 382.01 569.07 398.92" style="fill:#dbdbdb;"></polygon><polygon points="581.45 381.2 573.05 366.9 573.72 366.61 582.12 380.91 581.45 381.2" style="fill:#dbdbdb;"></polygon><polygon points="573 381.2 572.33 380.91 580.75 366.61 581.42 366.9 573 381.2" style="fill:#dbdbdb;"></polygon><polygon points="580.22 365.84 573.99 356.85 574.64 356.52 580.86 365.5 580.22 365.84" style="fill:#dbdbdb;"></polygon><polygon points="574.1 365.84 573.46 365.5 579.7 356.52 580.34 356.85 574.1 365.84" style="fill:#dbdbdb;"></polygon></g><g><polygon points="582.38 330.57 577.16 355.87 572.97 330.57 582.38 330.57" style="fill:#a6a6a6;"></polygon><polygon points="562.96 334.29 577.16 355.87 556.31 340.95 562.96 334.29" style="fill:#a6a6a6;"></polygon><polygon points="551.86 350.65 577.16 355.87 551.86 360.07 551.86 350.65" style="fill:#a6a6a6;"></polygon><polygon points="555.58 370.07 577.16 355.87 562.24 376.73 555.58 370.07" style="fill:#a6a6a6;"></polygon><polygon points="591.36 377.45 577.16 355.87 598.02 370.79 591.36 377.45" style="fill:#a6a6a6;"></polygon><polygon points="602.46 361.09 577.16 355.87 602.46 351.67 602.46 361.09" style="fill:#a6a6a6;"></polygon><polygon points="598.74 341.67 577.16 355.87 592.09 335.01 598.74 341.67" style="fill:#a6a6a6;"></polygon><path d="M577.16,365.19c-5.14,0-9.32-4.18-9.32-9.32s4.18-9.32,9.32-9.32,9.32,4.18,9.32,9.32-4.18,9.32-9.32,9.32Zm0-17.89c-4.72,0-8.57,3.84-8.57,8.57s3.84,8.57,8.57,8.57,8.57-3.84,8.57-8.57-3.84-8.57-8.57-8.57Z" style="fill:#ebebeb;"></path></g></g><g><g><polygon points="183.48 439.92 175.06 357.15 170.61 357.15 162.19 439.92 160.2 439.76 168.78 355.42 176.89 355.42 185.47 439.76 183.48 439.92" style="fill:#dbdbdb;"></polygon><rect x="164.36" y="365.14" width="16.96" height="1.73" style="fill:#dbdbdb;"></rect><rect x="162.86" y="380.94" width="19.95" height="1.73" style="fill:#dbdbdb;"></rect><rect x="161.2" y="398.47" width="23.28" height="1.73" style="fill:#dbdbdb;"></rect><rect x="159.54" y="418.77" width="26.6" height="1.73" style="fill:#dbdbdb;"></rect><polygon points="182.61 419.83 164.06 399.53 164.65 399.13 183.2 419.43 182.61 419.83" style="fill:#dbdbdb;"></polygon><polygon points="163.06 419.83 162.48 419.43 181.05 399.13 181.64 399.53 163.06 419.83" style="fill:#dbdbdb;"></polygon><polygon points="180.93 398.92 165.48 382.01 166.07 381.61 181.52 398.52 180.93 398.92" style="fill:#dbdbdb;"></polygon><polygon points="164.74 398.92 164.15 398.52 179.63 381.61 180.22 382.01 164.74 398.92" style="fill:#dbdbdb;"></polygon><polygon points="177.13 381.2 168.73 366.9 169.4 366.61 177.8 380.91 177.13 381.2" style="fill:#dbdbdb;"></polygon><polygon points="168.68 381.2 168.01 380.91 176.42 366.61 177.09 366.9 168.68 381.2" style="fill:#dbdbdb;"></polygon><polygon points="175.9 365.84 169.67 356.85 170.31 356.52 176.54 365.5 175.9 365.84" style="fill:#dbdbdb;"></polygon><polygon points="169.78 365.84 169.14 365.5 175.37 356.52 176.02 356.85 169.78 365.84" style="fill:#dbdbdb;"></polygon></g><g><polygon points="178.06 330.57 172.84 355.87 168.64 330.57 178.06 330.57" style="fill:#a6a6a6;"></polygon><polygon points="158.64 334.29 172.84 355.87 151.98 340.95 158.64 334.29" style="fill:#a6a6a6;"></polygon><polygon points="147.54 350.65 172.84 355.87 147.54 360.07 147.54 350.65" style="fill:#a6a6a6;"></polygon><polygon points="151.26 370.07 172.84 355.87 157.91 376.73 151.26 370.07" style="fill:#a6a6a6;"></polygon><polygon points="187.04 377.45 172.84 355.87 193.69 370.79 187.04 377.45" style="fill:#a6a6a6;"></polygon><polygon points="198.14 361.09 172.84 355.87 198.14 351.67 198.14 361.09" style="fill:#a6a6a6;"></polygon><polygon points="194.42 341.67 172.84 355.87 187.76 335.01 194.42 341.67" style="fill:#a6a6a6;"></polygon><path d="M172.84,365.19c-5.14,0-9.32-4.18-9.32-9.32s4.18-9.32,9.32-9.32,9.32,4.18,9.32,9.32-4.18,9.32-9.32,9.32Zm0-17.89c-4.72,0-8.57,3.84-8.57,8.57s3.84,8.57,8.57,8.57,8.57-3.84,8.57-8.57-3.84-8.57-8.57-8.57Z" style="fill:#ebebeb;"></path></g></g></g></g><g id="freepik--Sun--inject-16"><g><circle cx="375" cy="91.41" r="29.12" transform="translate(221.72 445.65) rotate(-80.3)" style="fill:#FF81AE; opacity:.1;"></circle><g><circle cx="375" cy="91.41" r="22.18" style="fill:#FF81AE;"></circle><circle cx="375" cy="91.41" r="22.18" style="fill:#fff; opacity:.2;"></circle></g></g></g><g id="freepik--Grass--inject-16"><g><g><path d="M518.63,404.88c-3.86,4.54-7.3,9.65-9.4,15.26-1.1,2.92-1.43,6.08-1.57,9.18-.16,3.36,0,6.74,.75,10.02,.1,.41,.78,.33,.75-.1-.23-3.14-.48-6.28-.38-9.42,.1-3.12,.3-6.47,1.35-9.43,1.93-5.46,5.17-10.79,8.55-15.48,.02-.03-.02-.06-.05-.04Z" style="fill:#455a64;"></path><path d="M511.02,431.74c-.17-2.41-.46-4.72-1.22-7.02-1.41-4.29-3.08-8.7-6.08-12.15-.09-.1-.26,.03-.18,.14,2.57,3.78,3.85,8.2,5.19,12.52,.71,2.3,.9,4.62,1.1,7,.2,2.41,.18,5.03,.77,7.38,.06,.25,.5,.28,.54,0,.35-2.54,.05-5.33-.12-7.89Z" style="fill:#37474f;"></path><path d="M523.31,413.6c-4.26,2.49-8.18,6.03-11.11,10-1.56,2.1-2.05,4.71-2.59,7.22-.6,2.8-1.02,5.69-1.02,8.56,0,.49,.81,.64,.89,.12,.38-2.55,.69-5.11,1.13-7.65,.43-2.52,.78-5.47,2.23-7.64,2.76-4.13,6.64-7.46,10.6-10.4,.12-.09,.02-.29-.12-.21Z" style="fill:#455a64;"></path></g><g><path d="M183.03,404.88c-3.86,4.54-7.3,9.65-9.4,15.26-1.1,2.92-1.43,6.08-1.57,9.18-.16,3.36,0,6.74,.75,10.02,.1,.41,.78,.33,.75-.1-.23-3.14-.48-6.28-.38-9.42,.1-3.12,.3-6.47,1.35-9.43,1.93-5.46,5.17-10.79,8.55-15.48,.02-.03-.02-.06-.05-.04Z" style="fill:#455a64;"></path><path d="M175.41,431.74c-.17-2.41-.46-4.72-1.22-7.02-1.41-4.29-3.08-8.7-6.08-12.15-.09-.1-.26,.03-.18,.14,2.57,3.78,3.85,8.2,5.19,12.52,.71,2.3,.9,4.62,1.1,7,.2,2.41,.18,5.03,.77,7.38,.06,.25,.5,.28,.54,0,.35-2.54,.05-5.33-.12-7.89Z" style="fill:#37474f;"></path><path d="M187.7,413.6c-4.26,2.49-8.18,6.03-11.12,10-1.56,2.1-2.05,4.71-2.59,7.22-.6,2.8-1.02,5.69-1.02,8.56,0,.49,.81,.64,.89,.12,.38-2.55,.69-5.11,1.13-7.65,.43-2.52,.78-5.47,2.23-7.64,2.76-4.13,6.64-7.46,10.6-10.4,.12-.09,.02-.29-.12-.21Z" style="fill:#455a64;"></path></g><g><path d="M436.91,404.88c-3.86,4.54-7.3,9.65-9.4,15.26-1.1,2.92-1.43,6.08-1.57,9.18-.16,3.36,0,6.74,.75,10.02,.09,.41,.78,.33,.75-.1-.23-3.14-.48-6.28-.38-9.42,.1-3.12,.3-6.47,1.35-9.43,1.93-5.46,5.17-10.79,8.55-15.48,.02-.03-.02-.06-.05-.04Z" style="fill:#455a64;"></path><path d="M429.3,431.74c-.17-2.41-.46-4.72-1.22-7.02-1.41-4.29-3.08-8.7-6.08-12.15-.09-.1-.26,.03-.18,.14,2.57,3.78,3.85,8.2,5.19,12.52,.71,2.3,.9,4.62,1.1,7,.2,2.41,.18,5.03,.77,7.38,.06,.25,.5,.28,.54,0,.35-2.54,.05-5.33-.12-7.89Z" style="fill:#37474f;"></path><path d="M441.59,413.6c-4.26,2.49-8.18,6.03-11.12,10-1.56,2.1-2.05,4.71-2.59,7.22-.6,2.8-1.02,5.69-1.02,8.56,0,.49,.81,.64,.89,.12,.38-2.55,.69-5.11,1.13-7.65,.43-2.52,.78-5.47,2.23-7.64,2.76-4.13,6.64-7.46,10.6-10.4,.12-.09,.02-.29-.12-.21Z" style="fill:#455a64;"></path></g><g><path d="M298,370.47c7.66,9.01,14.48,19.15,18.66,30.29,2.18,5.79,2.83,12.07,3.12,18.22,.31,6.68,.01,13.37-1.49,19.89-.19,.82-1.55,.66-1.49-.2,.46-6.22,.95-12.46,.75-18.7-.2-6.19-.6-12.83-2.68-18.71-3.84-10.84-10.27-21.41-16.96-30.71-.04-.05,.05-.12,.09-.07Z" style="fill:#455a64;"></path><path d="M313.11,423.78c.33-4.78,.91-9.36,2.42-13.93,2.8-8.52,6.11-17.26,12.07-24.11,.17-.2,.51,.06,.36,.28-5.1,7.5-7.64,16.28-10.3,24.85-1.42,4.56-1.79,9.16-2.18,13.9-.39,4.78-.37,9.99-1.53,14.65-.12,.5-1,.56-1.07,0-.7-5.04-.11-10.58,.24-15.65Z" style="fill:#37474f;"></path><path d="M288.72,387.77c8.45,4.93,16.23,11.97,22.06,19.84,3.09,4.17,4.08,9.35,5.14,14.33,1.19,5.56,2.02,11.29,2.02,16.99,0,.98-1.62,1.27-1.77,.24-.76-5.06-1.37-10.14-2.24-15.19-.86-5.01-1.56-10.86-4.43-15.16-5.48-8.2-13.19-14.8-21.03-20.64-.24-.18-.03-.58,.25-.42Z" style="fill:#455a64;"></path></g><g><path d="M660.32,370.47c-7.66,9.01-14.48,19.15-18.66,30.29-2.18,5.79-2.83,12.07-3.12,18.22-.31,6.68-.01,13.37,1.49,19.89,.19,.82,1.55,.66,1.49-.2-.46-6.22-.95-12.46-.75-18.7,.2-6.19,.6-12.83,2.68-18.71,3.84-10.84,10.27-21.41,16.96-30.71,.04-.05-.05-.12-.09-.07Z" style="fill:#455a64;"></path><path d="M645.21,423.78c-.33-4.78-.91-9.36-2.42-13.93-2.8-8.52-6.11-17.26-12.07-24.11-.17-.2-.51,.06-.36,.28,5.1,7.5,7.64,16.28,10.3,24.85,1.41,4.56,1.79,9.16,2.18,13.9,.39,4.78,.37,9.99,1.53,14.65,.12,.5,1,.56,1.07,0,.7-5.04,.11-10.58-.24-15.65Z" style="fill:#37474f;"></path><path d="M669.6,387.77c-8.45,4.93-16.23,11.97-22.06,19.84-3.09,4.17-4.08,9.35-5.14,14.33-1.19,5.56-2.02,11.29-2.02,16.99,0,.98,1.62,1.27,1.77,.24,.76-5.06,1.37-10.14,2.24-15.19,.86-5.01,1.56-10.86,4.43-15.16,5.48-8.2,13.19-14.8,21.03-20.64,.24-.18,.03-.58-.25-.42Z" style="fill:#455a64;"></path></g><g><path d="M89.68,370.47c7.66,9.01,14.48,19.15,18.66,30.29,2.18,5.79,2.83,12.07,3.12,18.22,.31,6.68,.01,13.37-1.49,19.89-.19,.82-1.55,.66-1.49-.2,.46-6.22,.95-12.46,.75-18.7-.2-6.19-.6-12.83-2.68-18.71-3.84-10.84-10.27-21.41-16.96-30.71-.04-.05,.05-.12,.09-.07Z" style="fill:#455a64;"></path><path d="M104.79,423.78c.33-4.78,.91-9.36,2.42-13.93,2.8-8.52,6.11-17.26,12.07-24.11,.17-.2,.51,.06,.36,.28-5.1,7.5-7.64,16.28-10.3,24.85-1.41,4.56-1.79,9.16-2.18,13.9-.39,4.78-.37,9.99-1.53,14.65-.12,.5-1,.56-1.07,0-.7-5.04-.11-10.58,.24-15.65Z" style="fill:#37474f;"></path><path d="M80.4,387.77c8.45,4.93,16.23,11.97,22.06,19.84,3.09,4.17,4.08,9.35,5.14,14.33,1.19,5.56,2.02,11.29,2.02,16.99,0,.98-1.62,1.27-1.77,.24-.76-5.06-1.37-10.14-2.24-15.19-.86-5.01-1.56-10.86-4.43-15.16-5.48-8.2-13.19-14.8-21.03-20.64-.24-.18-.03-.58,.25-.42Z" style="fill:#455a64;"></path></g><g><path d="M597.92,381.3c6.46,7.6,12.22,16.16,15.75,25.56,1.84,4.89,2.39,10.19,2.63,15.37,.27,5.63,0,11.28-1.25,16.78-.16,.69-1.31,.56-1.26-.17,.39-5.25,.8-10.51,.63-15.78-.17-5.22-.51-10.83-2.26-15.79-3.24-9.15-8.66-18.07-14.31-25.91-.03-.05,.04-.1,.08-.06Z" style="fill:#455a64;"></path><path d="M610.68,426.29c.28-4.03,.77-7.9,2.04-11.75,2.37-7.19,5.16-14.56,10.18-20.34,.14-.17,.43,.05,.31,.24-4.3,6.33-6.45,13.74-8.69,20.97-1.19,3.85-1.51,7.73-1.84,11.73-.33,4.04-.31,8.43-1.29,12.36-.11,.42-.84,.47-.91,0-.59-4.26-.09-8.93,.21-13.2Z" style="fill:#37474f;"></path><path d="M609.97,426.29c-.28-4.03-.77-7.9-2.04-11.75-2.37-7.19-5.16-14.56-10.18-20.34-.14-.17-.43,.05-.31,.24,4.3,6.33,6.45,13.74,8.69,20.97,1.19,3.85,1.51,7.73,1.84,11.73,.33,4.04,.31,8.43,1.29,12.36,.11,.42,.84,.47,.91,0,.59-4.26,.09-8.93-.21-13.2Z" style="fill:#455a64;"></path><path d="M590.1,395.9c7.13,4.16,13.7,10.1,18.61,16.74,2.6,3.52,3.44,7.89,4.34,12.09,1.01,4.69,1.71,9.53,1.7,14.34,0,.83-1.36,1.07-1.49,.2-.64-4.27-1.15-8.56-1.89-12.82-.73-4.22-1.31-9.16-3.74-12.79-4.63-6.92-11.13-12.49-17.74-17.41-.21-.15-.03-.49,.21-.35Z" style="fill:#455a64;"></path></g><g><path d="M478.05,381.3c6.46,7.6,12.22,16.16,15.75,25.56,1.84,4.89,2.39,10.19,2.63,15.37,.27,5.63,0,11.28-1.25,16.78-.16,.69-1.31,.56-1.26-.17,.39-5.25,.8-10.51,.63-15.78-.17-5.22-.51-10.83-2.26-15.79-3.24-9.15-8.66-18.07-14.31-25.91-.03-.05,.04-.1,.08-.06Z" style="fill:#455a64;"></path><path d="M490.8,426.29c.28-4.03,.77-7.9,2.04-11.75,2.37-7.19,5.16-14.56,10.18-20.34,.14-.17,.43,.05,.31,.24-4.3,6.33-6.45,13.74-8.69,20.97-1.19,3.85-1.51,7.73-1.84,11.73-.33,4.04-.31,8.43-1.29,12.36-.11,.42-.84,.47-.91,0-.59-4.26-.09-8.93,.21-13.2Z" style="fill:#37474f;"></path><path d="M490.09,426.29c-.28-4.03-.77-7.9-2.04-11.75-2.37-7.19-5.16-14.56-10.18-20.34-.14-.17-.43,.05-.31,.24,4.3,6.33,6.45,13.74,8.69,20.97,1.19,3.85,1.51,7.73,1.84,11.73,.33,4.04,.31,8.43,1.29,12.36,.11,.42,.84,.47,.91,0,.59-4.26,.09-8.93-.21-13.2Z" style="fill:#455a64;"></path><path d="M470.22,395.9c7.13,4.16,13.7,10.1,18.61,16.74,2.6,3.52,3.44,7.89,4.34,12.09,1.01,4.69,1.71,9.53,1.7,14.34,0,.83-1.36,1.07-1.49,.2-.64-4.27-1.15-8.56-1.89-12.82-.73-4.22-1.31-9.16-3.74-12.79-4.63-6.92-11.13-12.49-17.74-17.41-.21-.15-.03-.49,.21-.35Z" style="fill:#455a64;"></path></g><g><path d="M346.41,381.3c-6.46,7.6-12.22,16.16-15.75,25.56-1.84,4.89-2.39,10.19-2.63,15.37-.27,5.63,0,11.28,1.25,16.78,.16,.69,1.31,.56,1.26-.17-.39-5.25-.8-10.51-.63-15.78,.17-5.22,.51-10.83,2.26-15.79,3.24-9.15,8.66-18.07,14.31-25.91,.03-.05-.04-.1-.08-.06Z" style="fill:#455a64;"></path><path d="M333.65,426.29c-.28-4.03-.77-7.9-2.04-11.75-2.37-7.19-5.16-14.56-10.18-20.34-.14-.17-.43,.05-.31,.24,4.3,6.33,6.45,13.74,8.69,20.97,1.19,3.85,1.51,7.73,1.84,11.73,.33,4.04,.31,8.43,1.29,12.36,.11,.42,.84,.47,.91,0,.59-4.26,.09-8.93-.21-13.2Z" style="fill:#37474f;"></path><path d="M334.36,426.29c.28-4.03,.77-7.9,2.04-11.75,2.37-7.19,5.16-14.56,10.18-20.34,.14-.17,.43,.05,.31,.24-4.3,6.33-6.45,13.74-8.69,20.97-1.19,3.85-1.51,7.73-1.84,11.73-.33,4.04-.31,8.43-1.29,12.36-.11,.42-.84,.47-.91,0-.59-4.26-.09-8.93,.21-13.2Z" style="fill:#455a64;"></path><path d="M354.23,395.9c-7.13,4.16-13.7,10.1-18.61,16.74-2.6,3.52-3.44,7.89-4.34,12.09-1.01,4.69-1.71,9.53-1.7,14.34,0,.83,1.36,1.07,1.49,.2,.64-4.27,1.15-8.56,1.89-12.82,.73-4.22,1.31-9.16,3.74-12.79,4.63-6.92,11.13-12.49,17.74-17.41,.21-.15,.03-.49-.21-.35Z" style="fill:#455a64;"></path></g><g><path d="M137.81,381.3c-6.46,7.6-12.22,16.16-15.75,25.56-1.84,4.89-2.39,10.19-2.63,15.37-.27,5.63,0,11.28,1.25,16.78,.16,.69,1.31,.56,1.26-.17-.39-5.25-.8-10.51-.63-15.78,.17-5.22,.51-10.83,2.26-15.79,3.24-9.15,8.66-18.07,14.31-25.91,.03-.05-.04-.1-.08-.06Z" style="fill:#455a64;"></path><path d="M125.06,426.29c-.28-4.03-.77-7.9-2.04-11.75-2.37-7.19-5.16-14.56-10.18-20.34-.14-.17-.43,.05-.31,.24,4.3,6.33,6.45,13.74,8.69,20.97,1.19,3.85,1.51,7.73,1.84,11.73,.33,4.04,.31,8.43,1.29,12.36,.11,.42,.84,.47,.91,0,.59-4.26,.09-8.93-.21-13.2Z" style="fill:#37474f;"></path><path d="M125.76,426.29c.28-4.03,.77-7.9,2.04-11.75,2.37-7.19,5.16-14.56,10.18-20.34,.14-.17,.43,.05,.31,.24-4.3,6.33-6.45,13.74-8.69,20.97-1.19,3.85-1.51,7.73-1.84,11.73-.33,4.04-.31,8.43-1.29,12.36-.11,.42-.84,.47-.91,0-.59-4.26-.09-8.93,.21-13.2Z" style="fill:#455a64;"></path><path d="M145.64,395.9c-7.13,4.16-13.7,10.1-18.61,16.74-2.6,3.52-3.44,7.89-4.34,12.09-1.01,4.69-1.71,9.53-1.7,14.34,0,.83,1.36,1.07,1.49,.2,.64-4.27,1.15-8.56,1.89-12.82,.73-4.22,1.31-9.16,3.74-12.79,4.63-6.92,11.13-12.49,17.74-17.41,.21-.15,.03-.49-.21-.35Z" style="fill:#455a64;"></path></g></g></g><g id="freepik--Floor--inject-16"><path d="M669.99,439.83c-188.99,.61-400.99,.62-589.98,0,188.99-.62,400.99-.61,589.98,0h0Z" style="fill:#263238;"></path></g><g id="freepik--Cow_1--inject-16"><g><g><path d="M114.97,273.89c3.37,12.94,16,81.07,16.45,86.49,.45,5.41-6.09,30.8-6.09,33.5s18.78,45.69,18.78,45.69l1.75-4.44,3.99,4.14s-.53-3.76-1.58-5.41c-1.05-1.65-3.76-5.57-3.76-5.57,0,0,.75-26.55,1.8-31.81,1.05-5.26,23.16-32.19,28.13-45.12,4.96-12.94,2.86-47.23,2.11-53.85-.75-6.62-62.51-27.24-61.57-23.62Z" style="fill:#FF81AE;"></path><path d="M114.97,273.89c3.37,12.94,16,81.07,16.45,86.49,.45,5.41-6.09,30.8-6.09,33.5s18.78,45.69,18.78,45.69l1.75-4.44,3.99,4.14s-.53-3.76-1.58-5.41c-1.05-1.65-3.76-5.57-3.76-5.57,0,0,.75-26.55,1.8-31.81,1.05-5.26,23.16-32.19,28.13-45.12,4.96-12.94,2.86-47.23,2.11-53.85-.75-6.62-62.51-27.24-61.57-23.62Z" style="fill:#fff; opacity:.3;"></path></g><g><g><path d="M156.13,382.81h0c-1.68,0-3.04-1.36-3.04-3.04v-10.1h6.09v10.1c0,1.68-1.36,3.04-3.04,3.04Z" style="fill:#ffc4c0;"></path><path d="M156.13,382.81h0c-1.68,0-3.04-1.36-3.04-3.04v-10.1h6.09v10.1c0,1.68-1.36,3.04-3.04,3.04Z" style="opacity:.1;"></path></g><g><path d="M138.31,382.81h0c-1.68,0-3.04-1.36-3.04-3.04v-10.1h6.09v10.1c0,1.68-1.36,3.04-3.04,3.04Z" style="fill:#ffc4c0;"></path><path d="M138.31,382.81h0c-1.68,0-3.04-1.36-3.04-3.04v-10.1h6.09v10.1c0,1.68-1.36,3.04-3.04,3.04Z" style="opacity:.1;"></path></g><path d="M114.47,376.75s32.21,4.56,43.6-.01c14.28-5.74,20.03-17.45,20.03-17.45l-46.01-13.06-17.62,30.52Z" style="fill:#ffc4c0;"></path><path d="M130.35,385.06h0c-1.68,0-3.04-1.36-3.04-3.04v-10.1h6.09v10.1c0,1.68-1.36,3.04-3.04,3.04Z" style="fill:#ffc4c0;"></path><path d="M147.5,385.06h0c-1.68,0-3.04-1.36-3.04-3.04v-10.1h6.09v10.1c0,1.68-1.36,3.04-3.04,3.04Z" style="fill:#ffc4c0;"></path></g><g><g><path d="M90.37,216.97c-7.9,4.74-18.07,12.81-22.22,18.43-4.15,5.61-13.9,44.23-15.88,53.21-1.74,7.9,12.14,38.25,12.14,38.25l4.66,.32s-12.2-32.37-10.56-36.79c3.67-9.91,12.42-41.68,16.83-43.44l15.03-29.98Z" style="fill:#FF81AE;"></path><g style="opacity:.7;"><path d="M90.37,216.97c-7.9,4.74-18.07,12.81-22.22,18.43-4.15,5.61-13.9,44.23-15.88,53.21-1.74,7.9,12.14,38.25,12.14,38.25l4.66,.32s-12.2-32.37-10.56-36.79c3.67-9.91,12.42-41.68,16.83-43.44l15.03-29.98Z" style="fill:#fff;"></path></g><path d="M90.37,216.98l-15.03,29.98c-.45,.17-.97,.67-1.59,1.44l3.84-22.31c4.12-3.4,8.75-6.69,12.78-9.11Z" style="fill:#FF81AE; opacity:.4;"></path></g><path d="M64.9,325.02c-5.53,3.11-6.67,11.03-6.34,13.19,.32,2.17,6.11,8.87,7.25,9.91,1.14,1.04,.5-4.55,.5-4.55,0,0,10.68,14.26,12.49,13.41,1.81-.85-2.5-17.67-2.5-17.67,0,0,2.43,2.83,3.18,2.47,.75-.36-1.27-8.02-3.27-11.09-2.01-3.07-8.69-5.8-8.69-5.8l-2.61,.13Z" style="fill:#263238;"></path></g><g><path d="M283.23,298.26s4.79,23.32,2.93,28.95c-1.07,3.25-19.59,56.18-19.59,58.88s8.31,53.47,8.31,53.47l1.75-4.44,3.99,4.14s-.73-3.65-1.58-5.41c-.93-1.94-2.12-5.57-2.12-5.57,0,0,7.3-26.87,9.33-33.62,1.54-5.14,29.38-30.6,37.6-43.47,2.57-4.03,18.05-43.61,20.4-53.7,1.51-6.49-61.95-2.87-61.01,.75Z" style="fill:#FF81AE;"></path><path d="M283.23,298.26s4.79,23.32,2.93,28.95c-1.07,3.25-19.59,56.18-19.59,58.88s8.31,53.47,8.31,53.47l1.75-4.44,3.99,4.14s-.73-3.65-1.58-5.41c-.93-1.94-2.12-5.57-2.12-5.57,0,0,7.3-26.87,9.33-33.62,1.54-5.14,29.38-30.6,37.6-43.47,2.57-4.03,18.05-43.61,20.4-53.7,1.51-6.49-61.95-2.87-61.01,.75Z" style="fill:#fff; opacity:.3;"></path></g><g><g><path d="M71.02,266.33c-1.71-9.49,11.77-44.13,18.83-49.24,7.06-5.11,112.19-18.63,125.61-22.61,13.42-3.98,82.36-4.75,97.61-.81,11.99,3.1,62.73,6.81,62.73,6.81l4.81,47.8s-25.44,56.26-60.49,80.43c-5.58,3.85-81.29,26.4-107.59,32.82-26.31,6.42-63.64,9.89-73.95,7.92-10.31-1.97-60.8-65.71-67.56-103.12Z" style="fill:#FF81AE;"></path><path d="M71.02,266.33c-1.71-9.49,11.77-44.13,18.83-49.24,7.06-5.11,112.19-18.63,125.61-22.61,13.42-3.98,82.36-4.75,97.61-.81,11.99,3.1,62.73,6.81,62.73,6.81l4.81,47.8s-25.44,56.26-60.49,80.43c-5.58,3.85-81.29,26.4-107.59,32.82-26.31,6.42-63.64,9.89-73.95,7.92-10.31-1.97-60.8-65.71-67.56-103.12Z" style="fill:#fff; opacity:.7;"></path></g><g><path d="M219.7,193.59c9.89,12.53,20.08,17.98,34.75,17.51,15.49-.52,22.69,16.08,40.36,8.79,12.17-4.99,11.99-17.18,12-27.27-20.53-2.46-69.45-1.86-87.12,.97Z" style="fill:#263238;"></path><path d="M237.6,230.8c-10.76-16.61-47.13,9.13-57.01,14.92-9.87,5.79-44.99,.74-55.28,14.46-10.29,13.72,1.92,34.53,28.53,36.68,15.26,1.23,35.02,26.75,60.79,16.45,25.77-10.3,15.02-30.97,17.48-43.35,2.45-12.38,14.55-25.15,5.48-39.15Z" style="fill:#263238;"></path><path d="M182.46,200.35c-.11,1.54-.46,3.04-1.07,4.49-5.02,11.84-29.65,8.62-35.52,13.79-5.91,5.14-25.13,18.9-34.86,5.27-3.54-4.95-4.71-8.17-4.89-11.08,19.3-3.77,51.59-8.56,76.34-12.46Z" style="fill:#263238;"></path></g><path d="M163.68,369.18c15.14-1.27,33.8-3.99,48.85-7.65,12.01-2.93,34.18-8.94,55.29-15.49l1.5-11.45s-32.04,13.14-50.61,20.19c-18.57,7.05-55.03,14.4-55.03,14.4Z" style="fill:#FF81AE; opacity:.3;"></path></g><g><path d="M76.24,273.89c3.37,12.94,16,81.07,16.45,86.49,.45,5.41-6.09,30.8-6.09,33.5s18.78,45.69,18.78,45.69l1.75-4.44,3.99,4.14s-.53-3.76-1.58-5.41c-1.05-1.65-3.76-5.57-3.76-5.57,0,0,.75-26.55,1.81-31.81,1.05-5.26,23.16-32.19,28.13-45.12,4.96-12.94,2.86-47.23,2.11-53.85-.75-6.62-62.51-27.24-61.57-23.62Z" style="fill:#FF81AE;"></path><path d="M76.24,273.89c3.37,12.94,16,81.07,16.45,86.49,.45,5.41-6.09,30.8-6.09,33.5s18.78,45.69,18.78,45.69l1.75-4.44,3.99,4.14s-.53-3.76-1.58-5.41c-1.05-1.65-3.76-5.57-3.76-5.57,0,0,.75-26.55,1.81-31.81,1.05-5.26,23.16-32.19,28.13-45.12,4.96-12.94,2.86-47.23,2.11-53.85-.75-6.62-62.51-27.24-61.57-23.62Z" style="fill:#fff; opacity:.7;"></path><path d="M134.19,354.74c2.89-7.27,5.93-14.33,7.25-22.07l1.63-7.61c1.47-6.27,2.91-12.68,4.52-18.93,.34-1.12,.54-2.79,1.19-3.82,1.5-2.25,3.46-3.98,5.47-5.63-2.74,2.83-5.43,5.54-5.73,9.64l-.75,3.82c-1.49,7.36-3.26,15.5-5,22.84-1.42,7.7-4.91,14.9-8.58,21.74h0Z" style="opacity:.2;"></path><path d="M87.04,395.37c2.63,8.17,18.34,44.2,18.34,44.2l1.75-4.44,3.99,4.14s-.53-3.76-1.58-5.42c-1.05-1.65-3.77-5.57-3.77-5.57,0,0,.75-26.54,1.8-31.81,.97-4.84,19.73-27.98,26.61-41.74-1.42,2.66-31.27,30.28-33.42,34.2-2.16,3.93-1.38,12.09-5.3,13.34-3.69,1.17-7.95-6.07-8.43-6.91Z" style="fill:#FF81AE; opacity:.3;"></path></g><g><path d="M264.58,298.26s2.15,23.55,.3,29.18c-1.07,3.25-25.83,55.95-25.83,58.66s18.78,53.47,18.78,53.47l1.75-4.44,3.99,4.14s-.53-3.76-1.58-5.41c-1.05-1.65-3.76-5.57-3.76-5.57,0,0,.75-26.55,1.8-31.81,1.05-5.26,34.71-33.12,43.96-45.27,9.22-12.12,36.33-45.63,40.25-53.7,2.92-5.99-80.6-2.87-79.66,.75Z" style="fill:#FF81AE;"></path><path d="M264.58,298.26s2.15,23.55,.3,29.18c-1.07,3.25-25.83,55.95-25.83,58.66s18.78,53.47,18.78,53.47l1.75-4.44,3.99,4.14s-.53-3.76-1.58-5.41c-1.05-1.65-3.76-5.57-3.76-5.57,0,0,.75-26.55,1.8-31.81,1.05-5.26,34.71-33.12,43.96-45.27,9.22-12.12,36.33-45.63,40.25-53.7,2.92-5.99-80.6-2.87-79.66,.75Z" style="fill:#fff; opacity:.7;"></path><path d="M251.66,356.76c3.2-9.05,7.68-17.65,11.02-26.6,.33-8.45-1.67-16.84-2.66-25.22,2.13,8.29,4.39,16.79,4.12,25.41-.06,.56-.25,1.39-.49,1.84-3.85,8.26-7.68,16.54-12,24.57h0Z" style="opacity:.2;"></path><path d="M350.09,264.84c-6.78-6.48-27.81,2.02-49.23,3.14-21.42,1.12-30.17-5.95-40.72,6.9-10.55,12.85,11.89,48.98,30.52,47.63,18.63-1.35,47.64-12.33,54.53-20.85,7.42-9.18,13.91-28.21,4.9-36.83Z" style="fill:#263238;"></path></g><g><g><path d="M361.27,162.54c5.01-3.22,12.1-14.61,16.03-19.66,3.93-5.05,28.44-5.02,28.33-3.96-.11,1.06-9.82,17.83-14.76,20.76-4.94,2.93-17.88,.1-26.54,4.88l-3.06-2.02Z" style="fill:#FF81AE;"></path><path d="M361.27,162.54c5.01-3.22,12.1-14.61,16.03-19.66,3.93-5.05,28.44-5.02,28.33-3.96-.11,1.06-9.82,17.83-14.76,20.76-4.94,2.93-17.88,.1-26.54,4.88l-3.06-2.02Z" style="fill:#fff; opacity:.7;"></path><path d="M399.36,142.1c-4.72,.43-9.44,1.01-14.05,2.15-1.62,.48-3.21,.74-4.57,1.92-4.54,4.41-7.85,9.77-13.23,13.22l-2.25,1.78c3.74-.58,7.63-1.24,11.41-1.22,4.28-.18,9.45,.09,12.88-3.03,1.08-1.05,2.02-2.18,2.92-3.34,1.77-2.34,3.45-4.74,4.99-7.23-2.69,3.42-5.34,6.95-8.52,9.91-3.37,2.73-8.13,2.17-12.28,2.35-2.96-.05-5.91,.26-8.84,.66l.55,1.35c5.32-3.46,8.89-9.09,13.18-13.62,4.98-3.07,12.09-3.53,17.8-4.88h0Z" style="opacity:.1;"></path></g><g><path d="M326.87,226.14c.35,5.95-4.67,18.39-6.43,24.54-1.77,6.15,12.71,25.93,13.5,25.21,.79-.72,8.61-18.44,8.07-24.16-.54-5.72-10.46-14.5-11.71-24.32l-3.43-1.28Z" style="fill:#FF81AE;"></path><path d="M326.87,226.14c.35,5.95-4.67,18.39-6.43,24.54-1.77,6.15,12.71,25.93,13.5,25.21,.79-.72,8.61-18.44,8.07-24.16-.54-5.72-10.46-14.5-11.71-24.32l-3.43-1.28Z" style="fill:#fff; opacity:.7;"></path><path d="M332.82,268.95c-2.44-4.06-4.75-8.22-6.55-12.61-.57-1.59-1.29-3.03-1.14-4.83,.88-6.27,3.26-12.1,2.88-18.48l.11-2.87c1.74,3.36,3.5,6.89,5.74,9.94,2.38,3.56,5.64,7.58,5.15,12.19-.22,1.49-.57,2.92-.98,4.33-.84,2.81-1.8,5.58-2.9,8.29,1.18-4.19,2.46-8.41,2.98-12.72,.22-4.33-3.04-7.84-5.34-11.31-1.78-2.37-3.28-4.93-4.68-7.53l1.41-.35c.34,6.34-2.1,12.54-3.23,18.68,.46,5.83,4.27,11.84,6.55,17.26h0Z" style="opacity:.1;"></path></g><g><path d="M335.25,224.92s-28.2,19.3-32.6,19.28c-4.4-.02-39.11-16.65-39.49-19.12-.29-1.94,28.18,1.92,32.78,1.17,6.78-1.11,25.12-17.59,25.12-17.59l14.18,16.25Z" style="fill:#FF81AE;"></path><path d="M335.25,224.92s-28.2,19.3-32.6,19.28c-4.4-.02-39.11-16.65-39.49-19.12-.29-1.94,28.18,1.92,32.78,1.17,6.78-1.11,25.12-17.59,25.12-17.59l14.18,16.25Z" style="opacity:.3;"></path></g><g><path d="M366.03,165.41s1.08-30.49-1.03-33.8c-2.11-3.31-31.24-21.55-33.29-20.65-1.61,.71,14.91,20.34,16.54,24.17,2.41,5.64-1.26,27.35-1.26,27.35l19.03,2.93Z" style="fill:#FF81AE;"></path><path d="M366.03,165.41s1.08-30.49-1.03-33.8c-2.11-3.31-31.24-21.55-33.29-20.65-1.61,.71,14.91,20.34,16.54,24.17,2.41,5.64-1.26,27.35-1.26,27.35l19.03,2.93Z" style="opacity:.3;"></path></g><path d="M319.56,222.21s41.18,39.16,56.52,37.71c15.34-1.45,35.64-24.23,37.18-25.04,1.53-.81,25.28-7.71,29.54-13.01,4.26-5.3,10.2-26.07,10.01-30.93-.08-2.14-12.16-13.69-14.73-15.05-1.75-.93-13.21,3.06-15.44,2.18-2.23-.88-68.63-24.23-74.81-21.25-6.18,2.98-41.29,44.9-28.27,65.4Z" style="fill:#FF81AE;"></path><path d="M319.56,222.21s41.18,39.16,56.52,37.71c15.34-1.45,35.64-24.23,37.18-25.04,1.53-.81,25.28-7.71,29.54-13.01,4.26-5.3,10.2-26.07,10.01-30.93-.08-2.14-12.16-13.69-14.73-15.05-1.75-.93-13.21,3.06-15.44,2.18-2.23-.88-68.63-24.23-74.81-21.25-6.18,2.98-41.29,44.9-28.27,65.4Z" style="fill:#fff; opacity:.7;"></path><path d="M452.82,190.94c.18,4.85-5.75,25.62-10.02,30.93-.7,.87-1.94,1.79-3.51,2.72-5.85,1.05-17.47-5.46-19.22-9.77-1.73-4.29,7.25-17.03,8.56-21.32,1.3-4.29-.18-13.38,3.41-16.89l.02-.03c2.81-.61,5.29-1.1,6.03-.7,2.56,1.37,14.64,12.92,14.73,15.05Z" style="fill:#ffc4c0;"></path><path d="M439.9,191.12c-2.74-2.22-4.26-5.06-3.39-6.34,.87-1.28,3.79-.52,6.53,1.7,2.74,2.22,4.26,5.06,3.39,6.34-.87,1.28-3.79,.52-6.53-1.7Z" style="opacity:.1;"></path><path d="M433.38,212.45c-3.46-1.6-5.54-4.27-4.63-5.94,.9-1.68,4.44-1.74,7.91-.13,3.46,1.6,5.54,4.27,4.63,5.94-.9,1.68-4.44,1.74-7.91,.13Z" style="opacity:.1;"></path><path d="M330.76,197.16c5.3,4.6,11.6,8.33,18.81,8.35,3.66,.01,8.66-.83,10.47-4.38,2.55-4.99-5.28-8.74-8.58-10.9-.43-.28-.25-1.08,.33-.92,5.45,1.53,13.77,2.69,18.98-.24,2.12-1.19,4.15-3.82,3.35-6.45-.67-2.22-3.16-3.42-5.1-4.24-3.04-1.27-6.28-1.84-9.56-1.91-.6-.01-.61-.82-.04-.91,1.52-.25,2.99-.57,4.44-1.08,1.87-.66,4.88-1.47,1.46-2.93-2.15-.92-5.77,.12-7.84,.91-.38,.14-.54-.44-.18-.59,2.14-.94,4.31-1.44,6.65-1.27,1,.07,3.32,.17,3.98,1.15,1.26,1.87-2.24,3.22-5.13,3.99,6.23,.7,15.19,3.63,12.13,10.52-2.98,6.7-12.92,6.2-19.88,4.83,3.1,1.78,6.48,4.17,6.88,7.33,.5,3.89-3.2,6.41-6.46,7.35-9.17,2.63-16.65-.22-24.8-8.26-.25-.24-.18-.58,.08-.35Z" style="opacity:.2;"></path><g><g><path d="M327.32,229.06c-5.95-1.94-9.82-8.05-10.79-14.04-1.06-6.09,.24-12.29,2.62-17.88-.16,1.51-.39,2.98-.63,4.45-1.39,9.97-.32,21.41,8.8,27.47h0Z" style="fill:#263238;"></path><path d="M317.21,208.25c-1.4-2.86-1.58-6.42-.26-9.35,.05,3.17,.21,6.15,.26,9.35h0Z" style="fill:#263238;"></path></g><g><path d="M376.65,259.78c-11.53,.72-27.44-11.07-35.45-18.86,1.49,.85,2.91,1.77,4.34,2.68,4.14,2.64,8.67,5.57,12.85,8.06,5.8,3.25,11.62,7,18.26,8.12h0Z" style="fill:#263238;"></path><path d="M349.86,246.94c-3.18-.05-6.44-1.5-8.45-4.01,2.85,1.39,5.58,2.6,8.45,4.01h0Z" style="fill:#263238;"></path></g></g><g><path d="M392.61,216.97c-.17-.09-.09,.46,.06,.58,3.77,2.95,7.54,7.02,5.7,11.67-.06,.15,.14,.29,.23,.14,3.15-4.91-1.91-10.25-6-12.39Z" style="fill:#263238;"></path><path d="M390.65,215.91c2.57,2.22,6.59,5.98,5.25,9.49-1.58,3.61-6.8,2.47-9.44,.57l-.9-.65-.23,.96c-.53,1.38-1.96,2.29-3.22,3.01-.48,.25-.98,.5-1.49,.72,.55-.06,1.11-.14,1.66-.28,1.73-.47,3.54-1.3,4.38-3.02l-1.13,.31c3.21,3.2,10.19,4.15,12.14-.9,1.59-4.69-3.21-8.65-7.03-10.21h0Z" style="fill:#263238;"></path></g></g></g></g><g id="freepik--Cow_2--inject-16"><g><g><path d="M618.33,273.89c-3.37,12.94-16,81.07-16.45,86.49-.45,5.41,6.09,30.8,6.09,33.5s-18.78,45.69-18.78,45.69l-1.75-4.44-3.99,4.14s.53-3.76,1.58-5.41c1.05-1.65,3.76-5.57,3.76-5.57,0,0-.75-26.55-1.8-31.81-1.05-5.26-23.16-32.19-28.13-45.12-4.96-12.94-2.86-47.23-2.11-53.85,.75-6.62,62.51-27.24,61.57-23.62Z" style="fill:#FF81AE;"></path><path d="M618.33,273.89c-3.37,12.94-16,81.07-16.45,86.49-.45,5.41,6.09,30.8,6.09,33.5s-18.78,45.69-18.78,45.69l-1.75-4.44-3.99,4.14s.53-3.76,1.58-5.41c1.05-1.65,3.76-5.57,3.76-5.57,0,0-.75-26.55-1.8-31.81-1.05-5.26-23.16-32.19-28.13-45.12-4.96-12.94-2.86-47.23-2.11-53.85,.75-6.62,62.51-27.24,61.57-23.62Z" style="opacity:.5;"></path><path d="M618.33,273.89c-3.37,12.94-16,81.07-16.45,86.49-.45,5.41,6.09,30.8,6.09,33.5s-18.78,45.69-18.78,45.69l-1.75-4.44-3.99,4.14s.53-3.76,1.58-5.41c1.05-1.65,3.76-5.57,3.76-5.57,0,0-.75-26.55-1.8-31.81-1.05-5.26-23.16-32.19-28.13-45.12-4.96-12.94-2.86-47.23-2.11-53.85,.75-6.62,62.51-27.24,61.57-23.62Z" style="fill:#fff; opacity:.2;"></path></g><g><g><path d="M570.95,373.37h0c1.68,0,3.04-1.36,3.04-3.04v-10.1h-6.09v10.1c0,1.68,1.36,3.04,3.04,3.04Z" style="fill:#ffc4c0;"></path><path d="M570.95,373.37h0c1.68,0,3.04-1.36,3.04-3.04v-10.1h-6.09v10.1c0,1.68,1.36,3.04,3.04,3.04Z" style="opacity:.1;"></path></g><g><path d="M588.76,360.22h0c1.68,0,3.04,1.36,3.04,3.04v10.1h-6.09v-10.1c0-1.68,1.36-3.04,3.04-3.04Z" transform="translate(1177.52 733.59) rotate(180)" style="fill:#ffc4c0;"></path><path d="M588.76,360.22h0c1.68,0,3.04,1.36,3.04,3.04v10.1h-6.09v-10.1c0-1.68,1.36-3.04,3.04-3.04Z" transform="translate(1177.52 733.59) rotate(180)" style="opacity:.1;"></path></g><path d="M612.6,367.31s-32.21,4.56-43.6-.01c-14.28-5.74-20.03-17.45-20.03-17.45l46.01-13.06,17.62,30.52Z" style="fill:#ffc4c0;"></path><path d="M596.72,375.62h0c1.68,0,3.04-1.36,3.04-3.04v-10.1h-6.09v10.1c0,1.68,1.36,3.04,3.04,3.04Z" style="fill:#ffc4c0;"></path><path d="M579.57,375.62h0c1.68,0,3.04-1.36,3.04-3.04v-10.1h-6.09v10.1c0,1.68,1.36,3.04,3.04,3.04Z" style="fill:#ffc4c0;"></path></g><g><g><path d="M620.2,173.8c9.13,1.21,21.67,4.59,27.71,8.09,6.04,3.5,29.76,37.86,35.15,45.32,4.74,6.56,3.23,39.24,3.23,39.24l-4.15,2.14s-.85-33.87-4.1-37.27c-7.3-7.64-27.39-36.12-32.14-35.97l-25.7-21.55Z" style="fill:#FF81AE;"></path><g style="opacity:.4;"><path d="M620.2,173.8c9.13,1.21,21.67,4.59,27.71,8.09,6.04,3.5,29.76,37.86,35.15,45.32,4.74,6.56,3.23,39.24,3.23,39.24l-4.15,2.14s-.85-33.87-4.1-37.27c-7.3-7.64-27.39-36.12-32.14-35.97l-25.7-21.55Z"></path></g><g style="opacity:.2;"><path d="M620.2,173.8c9.13,1.21,21.67,4.59,27.71,8.09,6.04,3.5,29.76,37.86,35.15,45.32,4.74,6.56,3.23,39.24,3.23,39.24l-4.15,2.14s-.85-33.87-4.1-37.27c-7.3-7.64-27.39-36.12-32.14-35.97l-25.7-21.55Z" style="fill:#fff;"></path></g><path d="M620.2,173.8l25.7,21.54c.48-.02,1.16,.23,2.03,.69l-12.38-18.95c-5.13-1.48-10.68-2.67-15.35-3.29Z" style="opacity:.2;"></path></g><path d="M685.9,264.13c5.79,2.59,7.65,10.37,7.53,12.55-.12,2.19-5.27,9.4-6.31,10.53-1.04,1.14-.91-4.48-.91-4.48,0,0-9.32,15.18-11.21,14.5-1.88-.68,.87-17.83,.87-17.83,0,0-2.16,3.04-2.94,2.75-.78-.29,.52-8.1,2.24-11.34,1.72-3.24,8.12-6.57,8.12-6.57l2.61-.11Z" style="fill:#263238;"></path></g><g><path d="M456.74,298.26s-4.79,23.32-2.93,28.95c1.07,3.25,19.59,56.18,19.59,58.88s-8.31,53.47-8.31,53.47l-1.75-4.44-3.99,4.14s.73-3.65,1.58-5.41c.93-1.94,2.12-5.57,2.12-5.57,0,0-7.3-26.87-9.33-33.62-1.54-5.14-29.38-30.6-37.6-43.47-2.57-4.03-18.05-43.61-20.4-53.7-1.51-6.49,61.95-2.87,61.01,.75Z" style="fill:#FF81AE;"></path><path d="M456.74,298.26s-4.79,23.32-2.93,28.95c1.07,3.25,19.59,56.18,19.59,58.88s-8.31,53.47-8.31,53.47l-1.75-4.44-3.99,4.14s.73-3.65,1.58-5.41c.93-1.94,2.12-5.57,2.12-5.57,0,0-7.3-26.87-9.33-33.62-1.54-5.14-29.38-30.6-37.6-43.47-2.57-4.03-18.05-43.61-20.4-53.7-1.51-6.49,61.95-2.87,61.01,.75Z" style="opacity:.5;"></path><path d="M456.74,298.26s-4.79,23.32-2.93,28.95c1.07,3.25,19.59,56.18,19.59,58.88s-8.31,53.47-8.31,53.47l-1.75-4.44-3.99,4.14s.73-3.65,1.58-5.41c.93-1.94,2.12-5.57,2.12-5.57,0,0-7.3-26.87-9.33-33.62-1.54-5.14-29.38-30.6-37.6-43.47-2.57-4.03-18.05-43.61-20.4-53.7-1.51-6.49,61.95-2.87,61.01,.75Z" style="fill:#fff; opacity:.2;"></path></g><g><g><path d="M657.56,211.41c-2.19-9.39-28.33-35.82-36.83-37.71-8.51-1.89-110.37,27.45-124.26,29.12-13.89,1.68-77.48,28.34-89.91,38.01-9.77,7.61-54.87,31.15-54.87,31.15l14.56,45.78s45.68,41.54,87.46,49.8c6.65,1.32,85.09-8.04,111.78-12.6,26.69-4.56,62.34-16.19,71.02-22.09,8.68-5.9,29.72-84.45,21.06-121.47Z" style="fill:#FF81AE;"></path><path d="M657.56,211.41c-2.19-9.39-28.33-35.82-36.83-37.71-8.51-1.89-110.37,27.45-124.26,29.12-13.89,1.68-77.48,28.34-89.91,38.01-9.77,7.61-54.87,31.15-54.87,31.15l14.56,45.78s45.68,41.54,87.46,49.8c6.65,1.32,85.09-8.04,111.78-12.6,26.69-4.56,62.34-16.19,71.02-22.09,8.68-5.9,29.72-84.45,21.06-121.47Z" style="opacity:.4;"></path><path d="M657.56,211.41c-2.19-9.39-28.33-35.82-36.83-37.71-8.51-1.89-110.37,27.45-124.26,29.12-13.89,1.68-77.48,28.34-89.91,38.01-9.77,7.61-54.87,31.15-54.87,31.15l14.56,45.78s45.68,41.54,87.46,49.8c6.65,1.32,85.09-8.04,111.78-12.6,26.69-4.56,62.34-16.19,71.02-22.09,8.68-5.9,29.72-84.45,21.06-121.47Z" style="fill:#fff; opacity:.2;"></path></g><path d="M613.35,342.6c-14.4,4.84-32.61,9.76-47.87,12.37-12.19,2.08-51.42,7.25-73.39,9.63l-3.9-8.88s49.1-3.58,68.95-4.48c19.84-.91,56.22-8.63,56.22-8.63Z" style="opacity:.2;"></path></g><g><path d="M653.75,273.89c-3.37,12.94-16,81.07-16.45,86.49-.45,5.41,6.09,30.8,6.09,33.5s-18.78,45.69-18.78,45.69l-1.75-4.44-3.99,4.14s.53-3.76,1.58-5.41c1.05-1.65,3.76-5.57,3.76-5.57,0,0-.75-26.55-1.81-31.81-1.05-5.26-23.16-32.19-28.13-45.12-4.96-12.94-2.86-47.23-2.11-53.85,.75-6.62,62.51-27.24,61.57-23.62Z" style="fill:#FF81AE;"></path><path d="M653.75,273.89c-3.37,12.94-16,81.07-16.45,86.49-.45,5.41,6.09,30.8,6.09,33.5s-18.78,45.69-18.78,45.69l-1.75-4.44-3.99,4.14s.53-3.76,1.58-5.41c1.05-1.65,3.76-5.57,3.76-5.57,0,0-.75-26.55-1.81-31.81-1.05-5.26-23.16-32.19-28.13-45.12-4.96-12.94-2.86-47.23-2.11-53.85,.75-6.62,62.51-27.24,61.57-23.62Z" style="opacity:.4;"></path><path d="M653.75,273.89c-3.37,12.94-16,81.07-16.45,86.49-.45,5.41,6.09,30.8,6.09,33.5s-18.78,45.69-18.78,45.69l-1.75-4.44-3.99,4.14s.53-3.76,1.58-5.41c1.05-1.65,3.76-5.57,3.76-5.57,0,0-.75-26.55-1.81-31.81-1.05-5.26-23.16-32.19-28.13-45.12-4.96-12.94-2.86-47.23-2.11-53.85,.75-6.62,62.51-27.24,61.57-23.62Z" style="fill:#fff; opacity:.2;"></path><path d="M595.8,354.74c-2.89-7.27-5.93-14.33-7.25-22.07l-1.63-7.61c-1.47-6.27-2.91-12.68-4.52-18.93-.34-1.12-.54-2.79-1.19-3.82-1.5-2.25-3.46-3.98-5.47-5.63,2.74,2.83,5.43,5.54,5.73,9.64l.75,3.82c1.49,7.36,3.26,15.5,5,22.84,1.42,7.7,4.91,14.9,8.58,21.74h0Z" style="fill:#263238;"></path><path d="M642.95,395.37c-2.63,8.17-18.34,44.2-18.34,44.2l-1.75-4.44-3.99,4.14s.53-3.76,1.58-5.42c1.05-1.65,3.77-5.57,3.77-5.57,0,0-.75-26.54-1.8-31.81-.97-4.84-19.73-27.98-26.61-41.74,1.42,2.66,31.27,30.28,33.42,34.2,2.16,3.93,1.38,12.09,5.3,13.34,3.69,1.17,7.95-6.07,8.43-6.91Z" style="opacity:.2;"></path></g><g><path d="M475.39,298.26s-2.15,23.55-.3,29.18c1.07,3.25,25.83,55.95,25.83,58.66s-18.78,53.47-18.78,53.47l-1.75-4.44-3.99,4.14s.53-3.76,1.58-5.41c1.05-1.65,3.76-5.57,3.76-5.57,0,0-.75-26.55-1.8-31.81-1.05-5.26-34.71-33.12-43.96-45.27-9.22-12.12-36.33-45.63-40.25-53.7-2.92-5.99,80.6-2.87,79.66,.75Z" style="fill:#FF81AE;"></path><path d="M475.39,298.26s-2.15,23.55-.3,29.18c1.07,3.25,25.83,55.95,25.83,58.66s-18.78,53.47-18.78,53.47l-1.75-4.44-3.99,4.14s.53-3.76,1.58-5.41c1.05-1.65,3.76-5.57,3.76-5.57,0,0-.75-26.55-1.8-31.81-1.05-5.26-34.71-33.12-43.96-45.27-9.22-12.12-36.33-45.63-40.25-53.7-2.92-5.99,80.6-2.87,79.66,.75Z" style="opacity:.4;"></path><path d="M475.39,298.26s-2.15,23.55-.3,29.18c1.07,3.25,25.83,55.95,25.83,58.66s-18.78,53.47-18.78,53.47l-1.75-4.44-3.99,4.14s.53-3.76,1.58-5.41c1.05-1.65,3.76-5.57,3.76-5.57,0,0-.75-26.55-1.8-31.81-1.05-5.26-34.71-33.12-43.96-45.27-9.22-12.12-36.33-45.63-40.25-53.7-2.92-5.99,80.6-2.87,79.66,.75Z" style="fill:#fff; opacity:.2;"></path><path d="M492.09,364.6c-3.2-9.05-11.46-25.48-14.79-34.43-.33-8.45,1.67-16.84,2.66-25.22-2.13,8.29-4.39,16.79-4.12,25.41,.06,.56,.25,1.39,.49,1.84,3.85,8.26,7.68,16.54,12,24.57l3.77,7.83Z" style="fill:#263238;"></path></g><g><g><path d="M346.61,272.02c-5.96,.22-18.28-5.07-24.39-6.97-6.11-1.9-26.2,12.14-25.51,12.94,.7,.8,18.25,9.02,23.98,8.6,5.73-.42,14.73-10.13,24.57-11.17l1.35-3.4Z" style="fill:#FF81AE;"></path><path d="M346.61,272.02c-5.96,.22-18.28-5.07-24.39-6.97-6.11-1.9-26.2,12.14-25.51,12.94,.7,.8,18.25,9.02,23.98,8.6,5.73-.42,14.73-10.13,24.57-11.17l1.35-3.4Z" style="opacity:.4;"></path><path d="M346.61,272.02c-5.96,.22-18.28-5.07-24.39-6.97-6.11-1.9-26.2,12.14-25.51,12.94,.7,.8,18.25,9.02,23.98,8.6,5.73-.42,14.73-10.13,24.57-11.17l1.35-3.4Z" style="fill:#fff; opacity:.2;"></path><path d="M303.68,277.03c4.11-2.35,8.32-4.56,12.76-6.27,1.6-.54,3.05-1.23,4.85-1.04,6.25,1.02,12.02,3.53,18.41,3.29l2.86,.17c-3.4,1.66-6.97,3.35-10.06,5.52-3.61,2.3-7.7,5.47-12.3,4.88-1.48-.25-2.9-.63-4.31-1.08-2.79-.91-5.54-1.92-8.23-3.09,4.16,1.27,8.35,2.65,12.65,3.26,4.33,.31,7.91-2.87,11.42-5.09,2.41-1.73,5-3.17,7.63-4.51l.32,1.42c-6.34,.2-12.49-2.38-18.6-3.64-5.84,.33-11.94,4.01-17.4,6.17h0Z" style="opacity:.1;"></path></g><g><path d="M411.19,304.55c3.11,5.08,14.34,12.42,19.31,16.46,4.96,4.04,4.39,28.54,3.33,28.41-1.05-.14-17.61-10.21-20.43-15.21-2.82-5,.29-17.87-4.29-26.64l2.09-3.01Z" style="fill:#FF81AE;"></path><path d="M411.19,304.55c3.11,5.08,14.34,12.42,19.31,16.46,4.96,4.04,4.39,28.54,3.33,28.41-1.05-.14-17.61-10.21-20.43-15.21-2.82-5,.29-17.87-4.29-26.64l2.09-3.01Z" style="opacity:.4;"></path><path d="M411.19,304.55c3.11,5.08,14.34,12.42,19.31,16.46,4.96,4.04,4.39,28.54,3.33,28.41-1.05-.14-17.61-10.21-20.43-15.21-2.82-5,.29-17.87-4.29-26.64l2.09-3.01Z" style="fill:#fff; opacity:.2;"></path><path d="M411.19,304.55c2.71,3.59,6.44,6.19,10.02,8.84,2.61,1.93,7.06,4.94,9.57,6.9,4.48,3.83,4.58,15.9,4.75,21.57-.09,2.56,.12,5.27-.65,7.85-.17,.41-.71,.78-1.17,.69-.18-.06-.35-.09-.53-.17-3.72-1.87-7.12-4.22-10.54-6.57-3.43-2.54-7.1-5.05-9.64-8.56-2.47-4.43-1.41-9.69-1.71-14.45-.12-4.43-.41-8.96-2.32-13.02l-.04-.09c.78-1.03,1.57-2.02,2.27-2.99h0Zm0,0c-.7,1.06-1.33,2.11-1.96,3.1v-.16c2.2,3.99,2.88,8.63,3.18,13.11,.36,3.67,0,9.69,1.59,12.95,2.36,3.64,6.28,5.98,9.73,8.54,3.27,2.24,6.64,4.47,10.16,6.29,.03,.01,.05,.03,.06,.05-.16-.04-.45,.02-.59,.12-.1,.06-.26,.2-.29,.29,.05-.15,.08-.28,.11-.45,.71-5.72,.87-23.07-3.34-26.96-2.97-2.42-6.26-4.88-9.22-7.29-3.4-2.9-7.07-5.74-9.44-9.59h0Z" style="fill:#263238;"></path><path d="M430.78,343.08c-.32-4.73-.8-9.46-1.84-14.09-.44-1.63-.67-3.22-1.82-4.61-4.31-4.64-9.59-8.06-12.92-13.52l-1.73-2.29c.5,3.75,1.07,7.66,.97,11.44,.08,4.28-.3,9.44,2.74,12.95,1.03,1.1,2.13,2.07,3.28,2.99,2.3,1.83,4.67,3.55,7.12,5.14-3.36-2.76-6.83-5.49-9.72-8.73-2.65-3.43-1.99-8.18-2.08-12.33,.11-2.96-.13-5.92-.46-8.85l-1.36,.52c3.34,5.39,8.89,9.08,13.33,13.48,2.96,5.04,3.26,12.16,4.49,17.91h0Z" style="opacity:.1;"></path></g><g><path d="M403.62,308.33s34.17-.28,37.77-2.81,22.58-36.02,21.48-38.26c-.87-1.76-22.03,17.68-26.23,19.69-6.2,2.97-30.67-.07-30.67-.07l-2.35,21.44Z" style="fill:#FF81AE;"></path><path d="M403.62,308.33s34.17-.28,37.77-2.81,22.58-36.02,21.48-38.26c-.87-1.76-22.03,17.68-26.23,19.69-6.2,2.97-30.67-.07-30.67-.07l-2.35,21.44Z" style="opacity:.2;"></path></g><g><path d="M344.35,277.09s-18.32-24.4-18.47-28.32c-.16-3.92,13.32-35.54,15.51-35.97,1.72-.34-.61,25.21,.24,29.28,1.25,6,16.67,21.72,16.67,21.72l-13.94,13.28Z" style="fill:#FF81AE;"></path><path d="M344.35,277.09s-18.32-24.4-18.47-28.32c-.16-3.92,13.32-35.54,15.51-35.97,1.72-.34-.61,25.21,.24,29.28,1.25,6,16.67,21.72,16.67,21.72l-13.94,13.28Z" style="opacity:.2;"></path></g><path d="M414.94,297.15s-11.41,55.67-24.83,63.25c-13.41,7.58-43.1,.49-44.82,.7-1.72,.21-25.15,8.13-31.67,6.21-6.53-1.92-23.27-15.57-25.89-19.66-1.15-1.8,2.15-18.18,3.48-20.77,.9-1.76,12.59-5.04,13.92-7.04s42.47-59.11,49.24-60.19c6.77-1.09,59.55,13.24,60.57,37.51Z" style="fill:#FF81AE;"></path><path d="M414.94,297.15s-11.41,55.67-24.83,63.25c-13.41,7.58-43.1,.49-44.82,.7-1.72,.21-25.15,8.13-31.67,6.21-6.53-1.92-23.27-15.57-25.89-19.66-1.15-1.8,2.15-18.18,3.48-20.77,.9-1.76,12.59-5.04,13.92-7.04s42.47-59.11,49.24-60.19c6.77-1.09,59.55,13.24,60.57,37.51Z" style="opacity:.4;"></path><path d="M414.94,297.15s-11.41,55.67-24.83,63.25c-13.41,7.58-43.1,.49-44.82,.7-1.72,.21-25.15,8.13-31.67,6.21-6.53-1.92-23.27-15.57-25.89-19.66-1.15-1.8,2.15-18.18,3.48-20.77,.9-1.76,12.59-5.04,13.92-7.04s42.47-59.11,49.24-60.19c6.77-1.09,59.55,13.24,60.57,37.51Z" style="fill:#fff; opacity:.2;"></path><path d="M287.73,347.65c2.62,4.08,19.36,17.74,25.9,19.65,1.07,.32,2.61,.36,4.43,.23,5.4-2.49,11.21-14.47,10.19-19-1.03-4.51-15.68-9.82-19.21-12.6-3.52-2.78-7.5-11.08-12.45-11.91h-.03c-2.65,1.1-4.97,2.11-5.35,2.86-1.32,2.59-4.63,18.97-3.48,20.77Z" style="fill:#ffc4c0;"></path><path d="M298.43,340.42c.98-3.39,.6-6.58-.85-7.14-1.45-.56-3.41,1.74-4.39,5.13-.98,3.39-.6,6.58,.85,7.14,1.45,.56,3.41-1.74,4.39-5.13Z" style="opacity:.1;"></path><path d="M315.97,354.19c1.92-3.3,2.11-6.66,.41-7.52s-4.64,1.12-6.56,4.41c-1.92,3.3-2.11,6.66-.41,7.52,1.7,.86,4.64-1.12,6.56-4.41Z" style="opacity:.1;"></path><g><g><path d="M411.64,287.53c-6.84-8.91-17.23-14.05-26.98-19.17-1.44-.71-2.89-1.41-4.31-2.2,1.58,.37,3.13,.84,4.68,1.29,10.07,3.49,22.16,9.88,26.6,20.08h0Z" style="fill:#263238;"></path><path d="M390.64,270.77c-2.62-1.83-5-3.63-7.6-5.45,3.16,.54,6.01,2.69,7.6,5.45h0Z" style="fill:#263238;"></path></g><g><path d="M391.54,359.4c2.49-2.32,3.97-5.61,5.52-8.58,2.96-6.2,5.37-12.63,7.83-19.05,1.24-3.22,2.42-6.47,3.81-9.67-1.8,10.51-7.95,31.4-17.16,37.31h0Z" style="fill:#263238;"></path><path d="M405.49,333.47c1.38-2.89,2.77-5.52,4.15-8.38-.02,3.21-1.68,6.37-4.15,8.38h0Z" style="fill:#263238;"></path></g></g><path d="M391.44,282.99c-1.72,6.8-4.75,13.47-10.66,17.61-3,2.1-7.58,4.27-11.1,2.4-4.94-2.64-.67-10.19,.81-13.85,.19-.48-.41-1.03-.79-.56-3.6,4.37-9.76,10.07-15.71,10.66-2.41,.24-5.58-.76-6.44-3.38-.72-2.2,.63-4.61,1.77-6.39,1.77-2.78,4.1-5.1,6.75-7.03,.48-.35,.03-1.02-.49-.77-1.38,.66-2.78,1.24-4.26,1.65-1.91,.53-4.85,1.59-2.88-1.57,1.24-1.99,4.81-3.2,6.95-3.73,.39-.1,.2-.67-.19-.59-2.29,.45-4.36,1.28-6.19,2.76-.78,.63-2.63,2.04-2.61,3.22,.03,2.25,3.67,1.36,6.49,.34-4.71,4.14-10.39,11.66-3.94,15.56,6.28,3.79,14.15-2.3,19.08-7.41-1.53,3.23-2.93,7.13-1.45,9.95,1.81,3.47,6.29,3.43,9.5,2.33,9.03-3.08,13.53-9.7,15.63-20.95,.06-.34-.18-.58-.27-.24Z" style="opacity:.2;"></path><g><path d="M352.34,335.02c.08-.17,.35,.31,.3,.5-1.2,4.63-1.73,10.15,2.56,12.73,.13,.08,.07,.31-.1,.25-5.49-1.99-4.71-9.3-2.76-13.49Z" style="fill:#263238;"></path><path d="M353.26,332.98c-.7,3.33-1.61,8.75,1.59,10.73,3.45,1.9,6.9-2.16,7.84-5.28l.32-1.06,.76,.63c1.26,.77,2.95,.63,4.39,.44,.54-.1,1.08-.2,1.63-.33-.48,.29-.97,.56-1.49,.78-1.66,.67-3.6,1.12-5.32,.26l1.09-.44c-.61,4.49-5.57,9.48-10.19,6.66-4.11-2.76-2.71-8.82-.62-12.38h0Z" style="fill:#263238;"></path></g></g></g></g></svg>
