<svg xmlns="http://www.w3.org/2000/svg" viewBox="0 0 500 500"><g id="freepik--Hearts--inject-2"><path d="M90.64,143s.58-5.37-8-10.68-11.4-3.53-10.68-1c1,3.47,6.57,6.79,6.57,6.79s-3.47-.51-3.52,2.71S81,145.41,81,145.41s-3.25,1.41-1.63,3.45S89.88,150.7,90.64,143Z" style="fill:#ebebeb"></path><path d="M81.29,149.81c3.19.64,8.76-.79,9.35-6.79a7.55,7.55,0,0,0-1.07-3.91l-3.49-.41s-.51,3.05,2.21,6.91C88.29,145.61,87.31,149.49,81.29,149.81Z" style="fill:#e0e0e0"></path><path d="M82.61,137.93c-3.48,0-9.38-4.29-10.52-6.23,1.25,3.33,6.44,6.43,6.44,6.43C82.05,139.45,82.61,137.93,82.61,137.93Z" style="fill:#e0e0e0"></path><path d="M75.14,141.64c.84,2.64,5.82,3.77,5.82,3.77,2-.52,2-1.68,2-1.68C81.6,145.23,76.07,143,75.14,141.64Z" style="fill:#e0e0e0"></path><path d="M103.48,143s-.58-5.37,8-10.68,11.4-3.53,10.68-1c-1,3.47-6.57,6.79-6.57,6.79s3.47-.51,3.52,2.71-6,4.57-6,4.57,3.25,1.41,1.63,3.45S104.24,150.7,103.48,143Z" style="fill:#ebebeb"></path><path d="M112.83,149.81c-3.19.64-8.76-.79-9.35-6.79a7.55,7.55,0,0,1,1.07-3.91l3.49-.41s.51,3.05-2.21,6.91C105.83,145.61,106.82,149.49,112.83,149.81Z" style="fill:#e0e0e0"></path><path d="M111.51,137.93c3.48,0,9.38-4.29,10.52-6.23-1.25,3.33-6.44,6.43-6.44,6.43C112.07,139.45,111.51,137.93,111.51,137.93Z" style="fill:#e0e0e0"></path><path d="M119,141.64c-.84,2.64-5.82,3.77-5.82,3.77-2-.52-2-1.68-2-1.68C112.52,145.23,118.05,143,119,141.64Z" style="fill:#e0e0e0"></path><path d="M108,137.9a5.49,5.49,0,0,0-1.39-3.65h0v0a5.53,5.53,0,0,0-4.11-1.83c-2.8,0-5.12,3.06-5.47,5.77-.35-2.71-2.66-5.78-5.46-5.77a5.53,5.53,0,0,0-4.12,1.83v0h0a5.49,5.49,0,0,0-1.39,3.65c0,4.35,4,8.67,7.42,11.52l3.56,3,3.56-3C104,146.57,108,142.25,108,137.9Z" style="fill:#C53F3F"></path><path d="M395.53,179s.39-3.71-5.53-7.38-7.87-2.43-7.37-.68c.67,2.39,4.53,4.68,4.53,4.68s-2.39-.35-2.43,1.87,4.11,3.16,4.11,3.16-2.24,1-1.12,2.38S395,184.31,395.53,179Z" style="fill:#ebebeb"></path><path d="M389.07,183.7a5.32,5.32,0,0,0,6.46-4.69,5.17,5.17,0,0,0-.75-2.7l-2.4-.29a7,7,0,0,0,1.52,4.78S393.22,183.47,389.07,183.7Z" style="fill:#e0e0e0"></path><path d="M390,175.5c-2.4,0-6.48-3-7.26-4.31.86,2.3,4.44,4.44,4.44,4.44C389.59,176.55,390,175.5,390,175.5Z" style="fill:#e0e0e0"></path><path d="M384.82,178.05c.58,1.83,4,2.61,4,2.61,1.36-.36,1.4-1.16,1.4-1.16C389.28,180.54,385.46,179,384.82,178.05Z" style="fill:#e0e0e0"></path><path d="M404.39,179s-.4-3.71,5.53-7.38,7.86-2.43,7.37-.68c-.68,2.39-4.54,4.68-4.54,4.68s2.4-.35,2.43,1.87-4.1,3.16-4.1,3.16,2.23,1,1.12,2.38S404.91,184.31,404.39,179Z" style="fill:#ebebeb"></path><path d="M410.84,183.7a5.31,5.31,0,0,1-6.45-4.69,5.21,5.21,0,0,1,.74-2.7l2.41-.29A7,7,0,0,1,406,180.8S406.69,183.47,410.84,183.7Z" style="fill:#e0e0e0"></path><path d="M409.94,175.5c2.4,0,6.47-3,7.26-4.31-.86,2.3-4.45,4.44-4.45,4.44C410.32,176.55,409.94,175.5,409.94,175.5Z" style="fill:#e0e0e0"></path><path d="M415.09,178.05c-.58,1.83-4,2.61-4,2.61-1.37-.36-1.41-1.16-1.41-1.16C410.63,180.54,414.45,179,415.09,178.05Z" style="fill:#e0e0e0"></path><path d="M407.54,175.47a3.82,3.82,0,0,0-1-2.52h0a3.8,3.8,0,0,0-2.84-1.27c-1.93,0-3.53,2.11-3.77,4-.25-1.87-1.84-4-3.78-4a3.82,3.82,0,0,0-2.84,1.27h0a3.82,3.82,0,0,0-.95,2.52c0,3,2.78,6,5.12,8l2.46,2.06,2.46-2.06C404.75,181.46,407.54,178.48,407.54,175.47Z" style="fill:#455a64"></path><path d="M252.26,80.06s.4-3.7-5.53-7.37-7.86-2.44-7.37-.69c.68,2.39,4.54,4.69,4.54,4.69s-2.4-.35-2.43,1.87,4.1,3.16,4.1,3.16-2.23,1-1.12,2.38S251.74,85.37,252.26,80.06Z" style="fill:#ebebeb"></path><path d="M245.81,84.75a5.3,5.3,0,0,0,6.45-4.69,5.22,5.22,0,0,0-.74-2.7l-2.41-.28a7,7,0,0,0,1.53,4.78S250,84.53,245.81,84.75Z" style="fill:#e0e0e0"></path><path d="M246.71,76.55c-2.4,0-6.47-3-7.26-4.3.86,2.3,4.45,4.44,4.45,4.44C246.33,77.6,246.71,76.55,246.71,76.55Z" style="fill:#e0e0e0"></path><path d="M241.56,79.11c.58,1.82,4,2.61,4,2.61,1.36-.37,1.41-1.17,1.41-1.17C246,81.59,242.2,80.07,241.56,79.11Z" style="fill:#e0e0e0"></path><path d="M261.12,80.06s-.39-3.7,5.53-7.37,7.87-2.44,7.37-.69c-.67,2.39-4.53,4.69-4.53,4.69s2.39-.35,2.43,1.87-4.11,3.16-4.11,3.16,2.24,1,1.12,2.38S261.65,85.37,261.12,80.06Z" style="fill:#ebebeb"></path><path d="M267.58,84.75a5.31,5.31,0,0,1-6.46-4.69,5.22,5.22,0,0,1,.74-2.7l2.41-.28a7,7,0,0,1-1.52,4.78S263.43,84.53,267.58,84.75Z" style="fill:#e0e0e0"></path><path d="M266.67,76.55c2.4,0,6.48-3,7.26-4.3-.86,2.3-4.44,4.44-4.44,4.44C267.06,77.6,266.67,76.55,266.67,76.55Z" style="fill:#e0e0e0"></path><path d="M271.83,79.11c-.58,1.82-4,2.61-4,2.61-1.36-.37-1.4-1.17-1.4-1.17C267.37,81.59,271.18,80.07,271.83,79.11Z" style="fill:#e0e0e0"></path><path d="M264.27,76.53a3.8,3.8,0,0,0-.95-2.52h0v0a3.82,3.82,0,0,0-2.84-1.27c-1.94,0-3.53,2.12-3.78,4-.24-1.87-1.84-4-3.77-4A3.8,3.8,0,0,0,250.08,74v0h0a3.81,3.81,0,0,0-1,2.52c0,3,2.79,6,5.12,8l2.46,2.07,2.46-2.07C261.49,82.51,264.27,79.53,264.27,76.53Z" style="fill:#455a64"></path><path d="M378.44,87.05s.6-5.61-8.38-11.17-11.91-3.69-11.16-1c1,3.62,6.87,7.1,6.87,7.1s-3.63-.53-3.68,2.84,6.21,4.78,6.21,4.78-3.38,1.47-1.69,3.6S377.64,95.09,378.44,87.05Z" style="fill:#ebebeb"></path><path d="M368.66,94.16c3.33.66,9.16-.83,9.78-7.11A7.87,7.87,0,0,0,377.32,83l-3.65-.43s-.54,3.2,2.31,7.24C376,89.77,375,93.82,368.66,94.16Z" style="fill:#e0e0e0"></path><path d="M370,81.74c-3.63,0-9.8-4.49-11-6.52,1.31,3.48,6.74,6.72,6.74,6.72C369.45,83.32,370,81.74,370,81.74Z" style="fill:#e0e0e0"></path><path d="M362.23,85.61c.87,2.76,6.07,4,6.07,4,2.07-.55,2.13-1.76,2.13-1.76C369,89.37,363.2,87.06,362.23,85.61Z" style="fill:#e0e0e0"></path><path d="M391.86,87.05s-.6-5.61,8.38-11.17,11.91-3.69,11.16-1c-1,3.62-6.87,7.1-6.87,7.1s3.63-.53,3.68,2.84S402,89.56,402,89.56s3.39,1.47,1.7,3.6S392.66,95.09,391.86,87.05Z" style="fill:#ebebeb"></path><path d="M401.64,94.16c-3.33.66-9.16-.83-9.78-7.11A7.87,7.87,0,0,1,393,83l3.65-.43s.54,3.2-2.31,7.24C394.32,89.77,395.35,93.82,401.64,94.16Z" style="fill:#e0e0e0"></path><path d="M400.27,81.74c3.63,0,9.8-4.49,11-6.52-1.3,3.48-6.73,6.72-6.73,6.72C400.85,83.32,400.27,81.74,400.27,81.74Z" style="fill:#e0e0e0"></path><path d="M408.07,85.61c-.87,2.76-6.08,4-6.08,4-2.06-.55-2.12-1.76-2.12-1.76C401.32,89.37,407.1,87.06,408.07,85.61Z" style="fill:#e0e0e0"></path><path d="M396.63,81.7a5.74,5.74,0,0,0-1.45-3.82h0v0a5.78,5.78,0,0,0-4.3-1.93c-2.93,0-5.35,3.21-5.72,6-.37-2.83-2.79-6-5.72-6a5.78,5.78,0,0,0-4.3,1.93l0,0h0a5.74,5.74,0,0,0-1.45,3.82c0,4.55,4.22,9.07,7.75,12l3.73,3.13,3.73-3.13C392.41,90.77,396.63,86.25,396.63,81.7Z" style="fill:#C53F3F"></path></g><g id="freepik--Characters--inject-2"><path d="M246.49,223.73c2.32,6.35,6.33,16.47,7.65,19.24,1,2.06,3.56,6.21,4.15,8.41.91,3.38,7.08,12.56,4.09,14.33-5.35,3.17-9.85-2.85-11.56-5.21A119.93,119.93,0,0,1,244,249.4c-3.83-6.86-7.32-12.83-10.28-19.26-2.28-4.95-12.86-27.91-14.68-33.58-2.48-7.69-7.23-30.84-7.23-30.84,7.72,0,12.68,3,14.73,6.87,3.91,7.31,7,16.77,9.34,22.81C238.81,203,244.24,217.59,246.49,223.73Z" style="fill:#b16668"></path><path d="M210.2,165.52c5.07-.1,12,.82,15.71,5.39s13,29.54,13,29.54-3.72,7-16.68,9.36Z" style="fill:#C53F3F"></path><g id="freepik--character-boy--inject-2"><rect x="177.69" y="384.67" width="10.48" height="17.94" transform="translate(365.86 787.27) rotate(180)" style="fill:#ffa8a7"></rect><polygon points="214.02 383.71 224.5 384.07 225.02 365.08 214.02 364.72 214.02 383.71" style="fill:#ffa8a7"></polygon><path d="M177.72,245.23c0,10,1.77,68.22,1.77,68.22-.25,2.88-3,8-3.23,18.37-.32,15,1,61.82,1,61.82a13.8,13.8,0,0,0,11.67.23s9.25-61.46,11.12-76.35c1.64-13,4.42-48.29,4.42-48.29l5.68,42.41a59.72,59.72,0,0,0-1.3,16.66c.49,6.89,4.53,49.53,4.53,49.53s4.93,3.34,12.1.92c0,0,5.3-60.79,5.42-67.11.14-7.2-3.49-80.73-3.49-80.73Z" style="fill:#37474f"></path><path d="M182,172.76s-4,3.66-4,13.17v20.53l-.3,38.77c15,7.93,34.16,8.46,50.21-3.26,0,0-.9-49.9-.9-58.07,0-.34,0-.68,0-1-.54-11.69-12-19.76-23.35-16.85l-9.52,2.45-10.43,2.64Z" style="fill:#C53F3F"></path><path d="M182,172.76s-4,3.66-4,13.17v20.53l-.3,38.77c15,7.93,34.16,8.46,50.21-3.26,0,0-.9-49.9-.9-58.07,0-.34,0-.68,0-1-.54-11.69-12-19.76-23.35-16.85l-9.52,2.45-10.43,2.64Z" style="opacity:0.3"></path><circle cx="211.51" cy="133.42" r="14.4" transform="translate(-18.64 35.6) rotate(-9.22)" style="fill:#263238"></circle><path d="M192.59,151l-3-23.07a5.38,5.38,0,0,0-4.48,1.57c-1.92,2,1.7,14.92,2.13,16.79h0c.75,3.37,2.05,8.88,2.69,10.11a4.94,4.94,0,0,0,2.87,2.31Z" style="fill:#263238"></path><path d="M192.33,144.17c-.88.53-2.14-1.17-3.23-2.3s-4.63-2.69-6.4,1,1.56,8.82,4.36,9.7c4.81,1.51,5.53-1.58,5.53-1.58l.36,17.74v.16c6,7.67,22.6,7,15.68-1l0-5.29a30.82,30.82,0,0,0,6.49.34c3.54-.55,5.77-3.35,6.85-7.18,1.72-6.16,2.38-11.13.91-23.23-1.6-13.27-17-13.41-25.37-8.17S192.33,144.17,192.33,144.17Z" style="fill:#b16668"></path><path d="M192.33,145.65c-.44,0-2.13-2.78-3.23-3.78-1.52-1.39.45-13.91.45-13.91a5.92,5.92,0,0,1,1.46-6.34c2.09-2.29,5.57-2.55,11.51-3.48,1.91-.3,3.72-.13,5.65-.3l7.73-.66a30.69,30.69,0,0,0,9.43-1.81.94.94,0,0,1,.54-.11c.32.08.44.46.49.79a12.63,12.63,0,0,1-1,6.17c-2,5.34-6.36,7.12-11.68,7.77-5.64.68-14.43-.14-15.63-.3-1.63-.22-2,1.36-2.86,5.69C194.46,139.18,193.82,145.63,192.33,145.65Z" style="fill:#263238"></path><path d="M189.55,128.93l-5.33-2.86a2.94,2.94,0,0,1,4-1.34A3.18,3.18,0,0,1,189.55,128.93Z" style="fill:#263238"></path><path d="M208.61,162.65s-7.9-1.59-10.67-3.06a9.11,9.11,0,0,1-3.82-3.78,12.48,12.48,0,0,0,2.17,4.46c2,2.58,12.32,4.49,12.32,4.49Z" style="fill:#9a4a4d"></path><path d="M209.23,143.22a1.58,1.58,0,1,1-1.58-1.65A1.63,1.63,0,0,1,209.23,143.22Z" style="fill:#263238"></path><path d="M207.52,136.51l-3.68,1.21a2,2,0,0,1,1.28-2.5A1.88,1.88,0,0,1,207.52,136.51Z" style="fill:#263238"></path><path d="M209.3,153.88l3.62,1.36a1.9,1.9,0,0,1-2.46,1.19A2,2,0,0,1,209.3,153.88Z" style="fill:#9a4a4d"></path><path d="M222.66,137,219,135.57a1.86,1.86,0,0,1,2.47-1.14A2,2,0,0,1,222.66,137Z" style="fill:#263238"></path><path d="M222.2,142.9a1.59,1.59,0,1,1-1.59-1.65A1.61,1.61,0,0,1,222.2,142.9Z" style="fill:#263238"></path><polygon points="213.19 142.03 213.71 151.56 218.69 149.86 213.19 142.03" style="fill:#9a4a4d"></polygon><path d="M188.17,397.43v-1.5c1,.44,3.33,9.33,7.49,13.12,3.3,3,7.81,6.5,9,9.86s-6.28,5.43-9.37,4.88c-3.59-.64-9.81-3.16-11.37-5.5s-2.29-5.8-3.56-7.52-4.19-3.63-4.88-5.62c-.37-1.09.07-3.48.6-5.5.49-1.85,1-3.89,1.65-3.72v1.15c.76.84,2.86,1.68,5.24,1.77C184.46,398.91,188.18,398.6,188.17,397.43Z" style="fill:#263238"></path><path d="M224.61,380.84c.54,0,1,.78,2.19,2.08a22.85,22.85,0,0,0,6.16,4.44c3.92,2,11.55,5,15,6.54,2.15,1,2.05,3.58-.18,5.06s-7.61,2.55-14.07,1.11c-3.53-.79-8.11-4-11-3.87s-8.33.13-10.47-1.34-1.29-4.63-.68-7.34c.66-3,1.48-7.57,2.46-7.36v1c1.26,1.91,7.76,2.69,10.53,1.28Z" style="fill:#263238"></path><path d="M204.45,269.23a38.83,38.83,0,0,0,14.6-8.37s-2.82,5.27-11.19,10.18l1.79,37Z" style="fill:#263238"></path></g><path d="M201.84,142.91a4.93,4.93,0,0,1,4.87-4.45H207a4.92,4.92,0,0,1,5.1,4.18,4.76,4.76,0,0,1-4.6,5.32l-.73,0A4.77,4.77,0,0,1,201.84,142.91Zm4.64-3.64a4,4,0,0,0-3.75,4.85,4.06,4.06,0,0,0,4.11,3.06l.44,0a4.05,4.05,0,0,0,3.94-3.26,4,4,0,0,0-4-4.65Z" style="fill:#263238"></path><path d="M215.51,142.53a4.93,4.93,0,0,1,4.87-4.45h.24a4.94,4.94,0,0,1,5.1,4.19,4.78,4.78,0,0,1-4.6,5.32l-.74,0A4.77,4.77,0,0,1,215.51,142.53Zm4.64-3.64a4,4,0,0,0-3.75,4.85,4.06,4.06,0,0,0,4.11,3H221a4,4,0,0,0,3.94-3.27,4,4,0,0,0-4-4.64Z" style="fill:#263238"></path><path d="M211.57,141.63a3.52,3.52,0,0,1,2.07-.83,2.5,2.5,0,0,1,2.21.77l.63-.51a3.29,3.29,0,0,0-2.9-1.06,4.28,4.28,0,0,0-2.53,1C210.82,141.24,211.41,141.79,211.57,141.63Z" style="fill:#263238"></path><rect x="192.14" y="142.5" width="10.12" height="0.8" transform="translate(-3.71 5.27) rotate(-1.52)" style="fill:#263238"></rect><path d="M150.62,222.62c8.11,3.8,31.12-25.77,31.12-25.77,5.44-4,9.36-21.69.87-24.91-6.69,1.05-13.57,11.83-34.52,38.52l2.53,12.16" style="fill:#b16668"></path><path d="M162.81,194.09s.14,15.8-4.35,22c0,0,6.79-5,6.47-18.93Z" style="fill:#9a4a4d;opacity:0.5"></path><path d="M187.55,170.14c-10.3,1.47-12.05,5.45-19.72,14.36-1.42,1.64-5.34,7.15-5.34,7.15s1,10.69,10.17,16.7c3.88-4,9.67-10.59,12-13.53C189.53,184.45,189.21,178.69,187.55,170.14Z" style="fill:#C53F3F"></path><path d="M166.36,238.49a.55.55,0,0,1-.55-.55V80.63a.55.55,0,0,1,.55-.55.55.55,0,0,1,.55.55V237.94A.55.55,0,0,1,166.36,238.49Z" style="fill:#37474f"></path><path d="M170.56,95.77h0c0-1.77-3.68-6.66-4.38-6.66s-4,4.77-4,6.66h0a2.11,2.11,0,0,0,1.22,1.73,6.57,6.57,0,0,0,6,0,2.1,2.1,0,0,0,1.23-1.73Z" style="fill:#C53F3F"></path><path d="M170.56,95.77h0c0-1.77-3.68-6.66-4.38-6.66s-4,4.77-4,6.66h0a2.11,2.11,0,0,0,1.22,1.73,6.57,6.57,0,0,0,6,0,2.1,2.1,0,0,0,1.23-1.73Z" style="opacity:0.1"></path><path d="M150.62,222.62c-3-.83-6-9.63-5.74-15.28s7.8-30,8.88-34.72c1.18-5.17,1.1-9.1,2.15-11.79,1.55-4,6.59-6.14,6.59-6.14s6.61-3.18,9-3.65,3.31,1.06,3.05,2.35-1.15,4.38-1.33,6.14a15,15,0,0,1-1.89,6.29c-1.25,2-6.35,6.78-6.54,9.45s-1.67,17.13-2.52,27.65c-.69,8.6-1.56,12.18-3.42,14.44S152.91,223.27,150.62,222.62Z" style="fill:#b16668"></path><path d="M202.29,46.67a16.85,16.85,0,0,0-4.54-11.48h0l-.06-.07a18.34,18.34,0,0,0-13.45-5.78c-6.42,0-12.06,4.73-15.26,10.49a3,3,0,0,1-5.26,0c-3.2-5.76-8.84-10.5-15.26-10.49A18.36,18.36,0,0,0,135,35.11l-.06.07h0a16.85,16.85,0,0,0-4.54,11.48c0,13.67,13.2,27.24,24.27,36.21l11.66,9.41L178,82.88C189.09,73.91,202.29,60.34,202.29,46.67Z" style="fill:#C53F3F"></path><g style="opacity:0.1"><polygon points="134.96 35.18 134.97 35.19 134.96 35.17 134.96 35.18"></polygon><path d="M199.38,58.32C197.17,61,180.25,78.68,164.46,75c-18.8-4.42-34.75-26.59-29.49-39.78a16.85,16.85,0,0,0-4.54,11.48c0,13.67,13.2,27.24,24.27,36.21l11.66,9.41L178,82.88C185.91,76.49,194.88,67.76,199.38,58.32Z"></path></g><path d="M296.89,199s-10,13.05-17.59,25.56c-4.11,6.75-9.48,14.53-10.85,21A5.69,5.69,0,0,0,269,249c1.08,2.6.57,5.16,1.35,8,.61,2.21,1,2.89.57,3.26a2.62,2.62,0,0,1-3.5-.54,18.29,18.29,0,0,1-2.38-3.62,23.93,23.93,0,0,0,.28,7.74c1.12,5.85-2.95,6.43-6.79,4.89-4.42-1.77-5.75-6.12-3.94-17a67.81,67.81,0,0,1,3.63-12.29c4.6-11.21,8.8-21,11.68-26.63,8.08-15.92,13.68-26.12,19.75-35.65,3.86-6.06,8.91-7.77,14.85-7.6C308.49,186.93,296.89,199,296.89,199Z" style="fill:#ffa8a7"></path><path d="M266.28,256.48c-1.6-1.23-5.43-3.78-6.72-2.06s-1.54,7-.34,9.25,5.23,2.16,5.57,4.53C268.36,267.19,269.66,259.07,266.28,256.48Z" style="fill:#b16668"></path><g id="freepik--character-girl--inject-2"><path d="M285.25,396.1a61.78,61.78,0,0,1-9.67,6.67,3.66,3.66,0,0,0-1.36,1.13c-.52.81-1.4,2.88,2.38,4.69a14.71,14.71,0,0,0,12.28.21c3.46-1.66,4.08-5.86,7.4-7.91,2.46-1.53,5.33-1.67,7.42-3.78,1.46-1.48,1.37-3.67,1-6.41-.4-3-.49-5.23-1.47-5.12v1.36c-1.41,1.78-7.71,1.64-10.33,0C292.91,387,287.21,394.39,285.25,396.1Z" style="fill:#263238"></path><path d="M282.21,398.52v0c1-.76,2.05-1.54,3-2.4a79.18,79.18,0,0,0,5.93-6.92,8.49,8.49,0,0,0,2-5.2c0-2,0-7.27,0-7.27l9.95.42.05,9.81h0c0,2.22-2,4-5.56,6.36s-8.33,8.41-11.42,9.7-5.16,1-6.31,0S278.72,401.36,282.21,398.52Z" style="fill:#ffa8a7"></path><path d="M331.73,397.51V396c-.59,1.75-3.32,9.29-7.47,13.06-3.29,3-7.78,6.48-8.92,9.83s6.25,4.65,9.32,4.1c3.58-.63,8.2-2.66,10.72-5.75,1.77-2.17,2.9-4.75,4.16-6.46s4.18-3.62,4.86-5.6c.38-1.09-.07-3.47-.6-5.48-.48-1.85-1-3.88-1.64-3.7v1.14c-.75.84-2.85,1.67-5.21,1.76C335.42,399,331.71,398.68,331.73,397.51Z" style="fill:#263238"></path><path d="M321.28,411.73c1-.91,2.05-1.81,3-2.66,2.9-2.64,5.1-7.11,6.37-10.17a14.35,14.35,0,0,0,1.1-5.49v-6h10.44v9.69h0v.25l-.06,0c-.5,2.17-5.29,7.94-8,11.7-1.83,2.53-5.29,5.73-9.44,6.29C320.74,415.94,318.73,414.7,321.28,411.73Z" style="fill:#ffa8a7"></path><path d="M340.09,235.28c8.09,17.67-.29,79.94-.29,79.94.24,2.87,3.52,8.51,4.74,21.13,1.44,14.92-2.26,52.38-2.26,52.38a11.3,11.3,0,0,1-10.55.42s-10-56.42-11.82-71.25c-1.64-12.94-4.77-43.36-4.77-43.36l-6.48,43.26a55.08,55.08,0,0,1,1.83,12.85c-.14,8.76-7.14,47.28-7.14,47.28s-3.64,2.13-10.47,1.12c0,0-3.67-50.57-3.48-62.33.11-6.3-.06-73.18-.06-73.18Z" style="fill:#C53F3F"></path><g style="opacity:0.5"><path d="M340.09,235.28c8.09,17.67-.29,79.94-.29,79.94.24,2.87,3.52,8.51,4.74,21.13,1.44,14.92-2.26,52.38-2.26,52.38a11.3,11.3,0,0,1-10.55.42s-10-56.42-11.82-71.25c-1.64-12.94-4.77-43.36-4.77-43.36l-6.48,43.26a55.08,55.08,0,0,1,1.83,12.85c-.14,8.76-7.14,47.28-7.14,47.28s-3.64,2.13-10.47,1.12c0,0-3.67-50.57-3.48-62.33.11-6.3-.06-73.18-.06-73.18Z" style="fill:#fff"></path></g><path d="M315.14,274.54l-2.63-14.46s-11.11-2.3-16.16-7c0,0,5.29,6.58,13.15,8.73l2.95,12.64-2.83,37Z" style="fill:#C53F3F"></path><g style="opacity:0.1"><path d="M315.14,274.54l-2.63-14.46s-11.11-2.3-16.16-7c0,0,5.29,6.58,13.15,8.73l2.95,12.64-2.83,37Z" style="fill:#fff"></path></g><path d="M310.38,115.38h5a20.72,20.72,0,0,1,20.72,20.72v0a23.83,23.83,0,0,1-23.83,23.83h0a22.61,22.61,0,0,1-22.61-22.61v-1.22a20.72,20.72,0,0,1,20.72-20.72Z" transform="translate(625.74 275.32) rotate(-180)" style="fill:#263238"></path><path d="M336.09,139.21v11.32A16.44,16.44,0,0,1,319.65,167h-30V135.15Z" style="fill:#263238"></path><path d="M321.59,169.94s11.92,1,13.6,1.79c-8.56,9.36,4.45,13.25,4.45,13.25l-8.91,31.88c5.35,8.16,8.76,14.47,10.78,22.51-6,10.59-39.79,12.07-52.17,4.17,1.07-14.79,3.48-25.37,2.68-29.81-4.22-18.14-4.06-22-3.51-26.11,1.08-8.1,9.12-15.16,13.71-18.12h4.29Z" style="fill:#37474f"></path><path d="M297.36,127.05c-2.52,1.48-5.63,7.82-5.32,21.08.26,11.25,3.9,14,5.73,14.83s5.36.31,8.8-.26v6.75s-4.75,5.51-4.45,8.61,6.85,3.82,11.29.8,8.18-8.92,8.18-8.92l-.08-15.52s2,2,5.44-1c2.83-2.47,3.78-6.64,1.58-8.88a4.93,4.93,0,0,0-7.84,1.56c-.94,2.05-3.11,2.08-3.11-.25,0-6.4-3.72-7.72-4.29-17.57C306.15,125.92,302.61,126.85,297.36,127.05Z" style="fill:#ffa8a7"></path><path d="M298.62,120c-8.6,1-13.55,7.54-13.55,18.56h0c10.07,0,22.88-1.34,29.26-8.83l.69-2.64Z" style="fill:#263238"></path><path d="M298.62,120a27.12,27.12,0,0,1,15.52,3.75c8.14,4.74,9.37,15.39,9,19.93a4.78,4.78,0,0,1,2.69-.45s3.45-14.48-5.35-22-16.18-4.56-16.18-4.56A15.38,15.38,0,0,0,298.62,120Z" style="fill:#C53F3F"></path><path d="M304.59,145.31a1.43,1.43,0,0,0,1.34,1.53,1.47,1.47,0,1,0-1.34-1.53Z" style="fill:#263238"></path><path d="M304.22,154.84l-3.29,1a1.7,1.7,0,0,0,2.14,1.18A1.81,1.81,0,0,0,304.22,154.84Z" style="fill:#f28f8f"></path><path d="M293.23,141.56l2.86-2a1.67,1.67,0,0,0-2.37-.48A1.83,1.83,0,0,0,293.23,141.56Z" style="fill:#263238"></path><path d="M308.71,142l-2.86-2a1.67,1.67,0,0,1,2.38-.49A1.83,1.83,0,0,1,308.71,142Z" style="fill:#263238"></path><path d="M293.66,144.29a1.41,1.41,0,1,0,1.49-1.4A1.44,1.44,0,0,0,293.66,144.29Z" style="fill:#263238"></path><polygon points="300.33 143.48 300.11 151.99 295.63 150.6 300.33 143.48" style="fill:#f28f8f"></polygon><path d="M306.57,162.7c3.61-.47,11.05-2.61,12.21-5.55a7.55,7.55,0,0,1-2.6,3.75c-2.23,1.91-9.61,4-9.61,4Z" style="fill:#f28f8f"></path></g><path d="M329.1,116.24a2.91,2.91,0,1,1-1.77,5.54Z" style="fill:#263238"></path><path d="M333.9,120.1a2.91,2.91,0,0,1-5.64,1.44Z" style="fill:#263238"></path><path d="M329.94,238.9c-3.23-.19-4.72,1-7.66,1.58-2.3.45-3.66,0-3.8.55a2.65,2.65,0,0,0,2.08,3,10.91,10.91,0,0,0,3.47.49" style="fill:#ffa8a7"></path><path d="M305.85,232.43c-.54-2,.18-6.75.78-9.06.86-3.33-2.42-2.55-4-1.14a4.92,4.92,0,0,0-1.1,5.59C302.54,229.63,305.85,232.43,305.85,232.43Z" style="fill:#C53F3F"></path><path d="M305.85,232.43c-.54-2,.18-6.75.78-9.06.86-3.33-2.42-2.55-4-1.14a4.92,4.92,0,0,0-1.1,5.59C302.54,229.63,305.85,232.43,305.85,232.43Z" style="opacity:0.03"></path><path d="M325.49,255c-3.6-9.28-10.85-16.81-18.9-22.4-.17-.12-.53,0-.29.2a78.85,78.85,0,0,1,10.88,10.5c3,3.68,4.86,8,7.74,11.79C325,255.28,325.6,255.33,325.49,255Z" style="fill:#455a64"></path><path d="M307.21,233.44a8.34,8.34,0,0,1-1.31-6.36c.88-4.15,4.27-6,5.43-4.4a4.43,4.43,0,0,1-.69,6.11C308.45,230.85,307.57,230.93,307.21,233.44Z" style="fill:#C53F3F"></path><path d="M306.82,233.38c-.94.15-2.52,2.74-4.36,3.84s-5.32,1.75-6.13-.32,3.8-4.63,6.56-4.85A4.45,4.45,0,0,1,306.82,233.38Z" style="fill:#C53F3F"></path><path d="M305.14,231.9c-1.14-1.5-3.07-4.85-6.15-4.32s-4.36,4-4.23,5.28,3,.52,5.13-.07A37.24,37.24,0,0,1,305.14,231.9Z" style="fill:#C53F3F"></path><path d="M305.32,228.75a2.37,2.37,0,0,0-2.64.27,2.14,2.14,0,0,0-.71,2.83C302.27,232.3,305.32,228.75,305.32,228.75Z" style="fill:#455a64"></path><path d="M307.21,233.44a8.34,8.34,0,0,1-1.31-6.36c.88-4.15,4.27-6,5.43-4.4a4.43,4.43,0,0,1-.69,6.11C308.45,230.85,307.57,230.93,307.21,233.44Z" style="opacity:0.08"></path><path d="M306.82,233.38c-.94.15-2.52,2.74-4.36,3.84s-5.32,1.75-6.13-.32,3.8-4.63,6.56-4.85A4.45,4.45,0,0,1,306.82,233.38Z" style="opacity:0.1"></path><path d="M307.21,233.44a11.12,11.12,0,0,1,.74-4.64c.62-1.68-2.39-1.33-4.41.52s-3.71,5-2,5.47S305.75,232.94,307.21,233.44Z" style="fill:#C53F3F"></path><path d="M307.21,233.44a11.12,11.12,0,0,1,.74-4.64c.62-1.68-2.39-1.33-4.41.52s-3.71,5-2,5.47S305.75,232.94,307.21,233.44Z" style="fill:#C53F3F"></path><path d="M317.42,228c.43-2.06,3.2-6,4.77-7.75,2.26-2.59-1-3.36-3-2.79a4.92,4.92,0,0,0-3.5,4.49C315.72,224,317.42,228,317.42,228Z" style="fill:#C53F3F"></path><path d="M317.42,228c.43-2.06,3.2-6,4.77-7.75,2.26-2.59-1-3.36-3-2.79a4.92,4.92,0,0,0-3.5,4.49C315.72,224,317.42,228,317.42,228Z" style="opacity:0.03"></path><path d="M325.46,263.06c1-9.92-2.79-25.91-7.47-34.52-.1-.19-.47-.24-.35.05a78.59,78.59,0,0,1,5,14.26,101.53,101.53,0,0,1,2.21,19.94C324.84,263,325.43,263.36,325.46,263.06Z" style="fill:#455a64"></path><path d="M318.19,229.53a8.31,8.31,0,0,1,1.68-6.27c2.66-3.31,6.52-3.46,6.83-1.49a4.44,4.44,0,0,1-3.36,5.15C320.46,227.77,319.64,227.45,318.19,229.53Z" style="fill:#C53F3F"></path><path d="M317.86,229.3c-.91-.29-3.48,1.32-5.62,1.47s-5.53-.83-5.33-3,5.47-2.43,8-1.38A4.44,4.44,0,0,1,317.86,229.3Z" style="fill:#C53F3F"></path><path d="M317,227.22c-.35-1.85-.57-5.71-3.56-6.62s-5.68,1.59-6.14,2.82,2.41,1.79,4.61,2.24A38.06,38.06,0,0,1,317,227.22Z" style="fill:#C53F3F"></path><path d="M318.61,224.49a2.4,2.4,0,0,0-2.49-1,2.15,2.15,0,0,0-1.9,2.22C314.28,226.29,318.61,224.49,318.61,224.49Z" style="fill:#455a64"></path><path d="M318.19,229.53a8.31,8.31,0,0,1,1.68-6.27c2.66-3.31,6.52-3.46,6.83-1.49a4.44,4.44,0,0,1-3.36,5.15C320.46,227.77,319.64,227.45,318.19,229.53Z" style="opacity:0.08"></path><path d="M317.86,229.3c-.91-.29-3.48,1.32-5.62,1.47s-5.53-.83-5.33-3,5.47-2.43,8-1.38A4.44,4.44,0,0,1,317.86,229.3Z" style="opacity:0.1"></path><path d="M318.19,229.53a11,11,0,0,1,2.74-3.81c1.31-1.23-1.54-2.26-4.17-1.52s-5.56,2.79-4.28,4S317.1,228.43,318.19,229.53Z" style="fill:#C53F3F"></path><path d="M318.19,229.53a11,11,0,0,1,2.74-3.81c1.31-1.23-1.54-2.26-4.17-1.52s-5.56,2.79-4.28,4S317.1,228.43,318.19,229.53Z" style="fill:#C53F3F"></path><path d="M316.19,237.26c.12-2.09,2.25-6.37,3.52-8.38,1.83-2.92-1.53-3.17-3.42-2.3a4.92,4.92,0,0,0-2.76,5C313.9,233.59,316.19,237.26,316.19,237.26Z" style="fill:#C53F3F"></path><path d="M316.19,237.26c.12-2.09,2.25-6.37,3.52-8.38,1.83-2.92-1.53-3.17-3.42-2.3a4.92,4.92,0,0,0-2.76,5C313.9,233.59,316.19,237.26,316.19,237.26Z" style="opacity:0.03"></path><path d="M328,264.8c-.59-9.94-5.19-19.32-11.15-27.11-.13-.17-.5-.16-.34.1a79.06,79.06,0,0,1,7.15,13.32c1.75,4.43,2.17,9.15,3.77,13.6C327.48,264.88,328,265.1,328,264.8Z" style="fill:#455a64"></path><path d="M317.19,238.64a8.3,8.3,0,0,1,.69-6.45c2.11-3.68,5.91-4.43,6.52-2.54a4.45,4.45,0,0,1-2.53,5.62C319.16,236.55,318.3,236.37,317.19,238.64Z" style="fill:#C53F3F"></path><path d="M316.83,238.46c-.94-.14-3.23,1.85-5.33,2.33s-5.59,0-5.73-2.18,5-3.24,7.72-2.61A4.44,4.44,0,0,1,316.83,238.46Z" style="fill:#C53F3F"></path><path d="M315.69,236.54c-.64-1.77-1.45-5.55-4.54-6s-5.37,2.45-5.64,3.74,2.67,1.4,4.91,1.49A38.63,38.63,0,0,1,315.69,236.54Z" style="fill:#C53F3F"></path><path d="M316.82,233.59a2.38,2.38,0,0,0-2.6-.54,2.15,2.15,0,0,0-1.54,2.48C312.83,236.05,316.82,233.59,316.82,233.59Z" style="fill:#455a64"></path><path d="M317.19,238.64a8.3,8.3,0,0,1,.69-6.45c2.11-3.68,5.91-4.43,6.52-2.54a4.45,4.45,0,0,1-2.53,5.62C319.16,236.55,318.3,236.37,317.19,238.64Z" style="opacity:0.08"></path><path d="M316.83,238.46c-.94-.14-3.23,1.85-5.33,2.33s-5.59,0-5.73-2.18,5-3.24,7.72-2.61A4.44,4.44,0,0,1,316.83,238.46Z" style="opacity:0.1"></path><path d="M317.19,238.64a11,11,0,0,1,2.12-4.19c1.1-1.42-1.87-2-4.36-.85s-5.06,3.62-3.61,4.58S315.94,237.72,317.19,238.64Z" style="fill:#C53F3F"></path><path d="M317.19,238.64a11,11,0,0,1,2.12-4.19c1.1-1.42-1.87-2-4.36-.85s-5.06,3.62-3.61,4.58S315.94,237.72,317.19,238.64Z" style="fill:#C53F3F"></path><path d="M319,244.85s-1.45-2.84-4.16-3.37-6.58,2.3-7.05,6.09c0,0,2.92-2.84,6.05-3.4A7.77,7.77,0,0,1,319,244.85Z" style="fill:#263238"></path><path d="M319,244.85s-2.44-2.8-5.32-2.24-5.41,4-5.89,5a19.45,19.45,0,0,1,5.92-2.54C317.17,244.18,319,244.85,319,244.85Z" style="fill:#455a64"></path><path d="M349.25,181.83c-5.77-7.66-9.45-10.64-19.31-11.14-3.89,11.85,4.05,20.58,4.05,20.58l17.68,24.83c-5.39,8.07-13.73,18.11-18.38,21.78a4.91,4.91,0,0,1-3.35,1L324,244.48a17.37,17.37,0,0,1-2.45,1.39,5,5,0,0,1-1.57.56c-.54,0-.87-.46-1.19-.88s-.53-.76-.53-.76a3.2,3.2,0,0,0-1.18.41,4.29,4.29,0,0,0-1.4,1.31,4.36,4.36,0,0,0-.19,3.37c.69,2.54,4.4,7.05,9.76,6.83s6.6-2.19,9.44-4a107.22,107.22,0,0,0,11.71-9.87c6-6,13.22-14,17.9-19.75a8.26,8.26,0,0,0,1.21-8.55C361.79,205.89,353.6,187.62,349.25,181.83Z" style="fill:#ffa8a7"></path></g></svg>