<svg xmlns="http://www.w3.org/2000/svg" viewBox="0 0 500 500"><g id="freepik--Floor--inject-2"><path id="freepik--floor--inject-2" d="M92.9,263.21c-86.76,50.09-86.76,131.3,0,181.4s227.44,50.09,314.2,0,86.76-131.31,0-181.4S179.66,213.11,92.9,263.21Z" style="fill:#f5f5f5"></path></g><g id="freepik--Shadows--inject-2"><ellipse id="freepik--Shadow--inject-2" cx="99.76" cy="393.16" rx="30.56" ry="17.64" style="fill:#e0e0e0"></ellipse><ellipse id="freepik--shadow--inject-2" cx="151.72" cy="414.45" rx="30.56" ry="17.64" style="fill:#e0e0e0"></ellipse><path id="freepik--shadow--inject-2" d="M453.94,372.69l-70.05-40.43L282,391.14c-2.25,1.3-2.25,3.4,0,4.69l66.29,38.24a7.59,7.59,0,0,0,3.75.95,7.93,7.93,0,0,0,3.41-.77l98.48-56.87C456.18,376.09,456.18,374,453.94,372.69Z" style="fill:#e0e0e0"></path><ellipse id="freepik--shadow--inject-2" cx="253.32" cy="434.03" rx="51.1" ry="29.5" style="fill:#e0e0e0"></ellipse></g><g id="freepik--Chocolates--inject-2"><g id="freepik--Bonbon--inject-2"><polygon points="78.84 356.69 84.69 356.79 86.33 353.55 91.84 354.69 95.14 351.89 99.77 353.96 104.4 351.89 107.7 354.69 113.21 353.55 114.85 356.79 120.7 356.69 120.53 360.07 126.15 361.02 124.17 364.2 129.01 366.1 125.43 368.77 129.01 371.45 124.17 373.35 126.15 376.54 120.53 377.48 120.7 380.86 114.85 380.76 113.21 384 107.7 382.86 104.4 385.66 99.77 383.59 95.14 385.66 91.84 382.86 86.33 384 84.69 380.76 78.83 380.86 79.01 377.48 73.39 376.54 75.37 373.35 70.53 371.45 74.11 368.77 70.53 366.1 75.37 364.2 73.39 361.02 79.01 360.07 78.84 356.69" style="fill:#D30E45"></polygon><polygon points="124.17 364.2 120.97 377.41 123.31 377.01 124.17 373.35 125.43 368.77 129.01 366.1 124.17 364.2" style="opacity:0.1"></polygon><polygon points="129.01 366.1 128.24 370.88 125.43 368.77 129.01 366.1" style="fill:#D30E45"></polygon><polygon points="124.17 364.2 126.15 361.02 125.67 364.79 124.17 364.2" style="fill:#D30E45"></polygon><polygon points="124.17 364.2 126.15 361.02 125.67 364.79 124.17 364.2" style="opacity:0.30000000000000004"></polygon><polygon points="120.53 360.07 116.69 378.05 116.19 377.9 120.7 356.69 120.53 360.07" style="opacity:0.2"></polygon><polygon points="113.21 353.55 109.96 375.51 112.12 376.33 114.85 356.79 113.21 353.55" style="opacity:0.2"></polygon><polygon points="107.7 354.69 105.56 375.41 102.52 374.7 104.4 351.89 107.7 354.69" style="opacity:0.2"></polygon><polygon points="75.37 364.2 78.57 377.41 76.23 377.01 75.37 373.35 74.11 368.77 70.53 366.1 75.37 364.2" style="opacity:0.1"></polygon><polygon points="70.53 366.1 71.3 370.88 74.11 368.77 70.53 366.1" style="fill:#D30E45"></polygon><polygon points="129.01 366.1 128.24 370.88 125.43 368.77 129.01 366.1" style="opacity:0.2"></polygon><polygon points="70.53 366.1 71.3 370.88 74.11 368.77 70.53 366.1" style="opacity:0.2"></polygon><polygon points="75.37 364.2 73.39 361.02 73.87 364.79 75.37 364.2" style="fill:#D30E45"></polygon><polygon points="75.37 364.2 73.39 361.02 73.87 364.79 75.37 364.2" style="opacity:0.30000000000000004"></polygon><polygon points="79.01 360.07 82.84 378.05 83.35 377.9 78.84 356.69 79.01 360.07" style="opacity:0.2"></polygon><polygon points="86.33 353.55 89.58 375.51 87.42 376.33 84.69 356.79 86.33 353.55" style="opacity:0.2"></polygon><polygon points="91.84 354.69 93.98 375.41 97.02 374.7 95.14 351.89 91.84 354.69" style="opacity:0.2"></polygon><polygon points="99.77 353.96 99.77 373.62 101.06 353.39 99.77 353.96" style="opacity:0.2"></polygon><path d="M127.8,378.55l-2,11.55H73.7l-2-11.6a28.58,28.58,0,0,1,53.66-7.05A28.06,28.06,0,0,1,127.8,378.55Z" style="fill:#b16668"></path><path d="M82.55,368.94a9.22,9.22,0,0,0,6,5,23.25,23.25,0,0,0,8,.7,2.56,2.56,0,0,0,1.07-.21.88.88,0,0,0,.51-.89c-.11-.52-.77-.69-1.3-.75a38,38,0,0,1-8.4-1.72,5.69,5.69,0,0,1-2-1,4.32,4.32,0,0,1-.89-4.81,8.72,8.72,0,0,1,3.44-3.81,18.41,18.41,0,0,1,5-2.37,23,23,0,0,1,4.11-.8c3.79-.41,7.82,0,11,2a4.76,4.76,0,0,1,1.49,1.33,3.59,3.59,0,0,1-.11,3.83,5.57,5.57,0,0,1-3.27,2.24,13.22,13.22,0,0,1-4,.33,22,22,0,0,1-7.12-1.23c-.64-.24-1.35-.64-1.43-1.33a1.73,1.73,0,0,1,.87-1.49,8,8,0,0,1,6.26-1.06c.26.05.57.09.74-.11s.07-.54-.09-.77a3.47,3.47,0,0,0-2.66-1.35,8.7,8.7,0,0,0-3,.5,10.39,10.39,0,0,0-3.48,1.63,3.85,3.85,0,0,0,0,6.46,9.84,9.84,0,0,0,3.38,1.56,23.67,23.67,0,0,0,8.6,1,15.87,15.87,0,0,0,8.08-2.94c1.75-1.32,3.25-3.28,3.17-5.47a6,6,0,0,0-2.43-4.3,14.2,14.2,0,0,0-4.59-2.15,24.74,24.74,0,0,0-8.43-1.28,31.41,31.41,0,0,0-6.14,1.11c-1.47.38-2.93.78-4.39,1.18a11.65,11.65,0,0,0-2.65,1,11.83,11.83,0,0,0-2.22,1.77c-1,1-2,2-3,3.09a2.87,2.87,0,0,0-.63,1,4.1,4.1,0,0,0-.07,1.6A8.72,8.72,0,0,0,82.55,368.94Z" style="opacity:0.1"></path><path d="M90.75,385.43c-7,.35-11.12,2.15-13.33,4.67h48.43l2-11.55a28.06,28.06,0,0,0-2.41-7.1,28.56,28.56,0,0,0-4.68-6.78C124.55,372.3,120,384,90.75,385.43Z" style="opacity:0.1"></path><path d="M129,371.45l-3.15,18.65a11.51,11.51,0,0,1-3.52,6.32l2.36-12.3,1.46-7.59-2-3.17Z" style="fill:#D30E45"></path><path d="M126.15,376.53l-1.46,7.59-2.36,12.3a19.85,19.85,0,0,1-4,3l-.47.26,2.88-18.82-.06-1.26-.11-2.13Z" style="fill:#D30E45"></path><path d="M113.38,401.64a30.66,30.66,0,0,0,4.43-2l2.89-18.81-5.85-.1Z" style="fill:#D30E45"></path><path d="M111.91,402.13c.5-.15,1-.32,1.47-.49l1.47-20.88L113.21,384Z" style="fill:#D30E45"></path><path d="M99.77,403.85c1.24,0,2.48-.06,3.72-.17l.91-18-4.63-2.07Z" style="fill:#D30E45"></path><path d="M103.49,403.68c1.12-.09,2.22-.21,3.32-.39l.89-20.43-3.3,2.8Z" style="fill:#D30E45"></path><path d="M106.81,403.29a38.21,38.21,0,0,0,5.1-1.16l1.3-18.13-5.51-1.14Z" style="fill:#D30E45"></path><path d="M70.53,371.45l3.16,18.65a11.51,11.51,0,0,0,3.52,6.32l-2.36-12.3-1.46-7.59,2-3.17Z" style="fill:#D30E45"></path><path d="M129,371.45l-3.15,18.65a11.51,11.51,0,0,1-3.52,6.32l2.36-12.3,1.46-7.59-2-3.17Z" style="opacity:0.15"></path><path d="M70.53,371.45l3.16,18.65a11.51,11.51,0,0,0,3.52,6.32l-2.36-12.3-1.46-7.59,2-3.17Z" style="opacity:0.15"></path><path d="M73.39,376.53l1.46,7.59,2.36,12.3a19.85,19.85,0,0,0,4,3l.47.26-2.89-18.82.07-1.26.11-2.13Z" style="fill:#D30E45"></path><path d="M126.15,376.53l-1.46,7.59-2.36,12.3a19.85,19.85,0,0,1-4,3l-.47.26,2.88-18.82-.06-1.26-.11-2.13Z" style="opacity:0.1"></path><path d="M73.39,376.53l1.46,7.59,2.36,12.3a19.85,19.85,0,0,0,4,3l.47.26-2.89-18.82.07-1.26.11-2.13Z" style="opacity:0.1"></path><path d="M86.16,401.64a30.18,30.18,0,0,1-4.43-2l-2.89-18.81,5.85-.1Z" style="fill:#D30E45"></path><path d="M87.63,402.13c-.5-.15-1-.32-1.47-.49l-1.47-20.88L86.33,384Z" style="fill:#D30E45"></path><path d="M99.77,403.85c-1.25,0-2.49-.06-3.72-.17l-.91-18,4.63-2.07Z" style="fill:#D30E45"></path><path d="M96.05,403.68c-1.12-.09-2.23-.21-3.32-.39l-.89-20.43,3.3,2.8Z" style="fill:#D30E45"></path><path d="M92.73,403.29a38.21,38.21,0,0,1-5.1-1.16L86.33,384l5.51-1.14Z" style="fill:#D30E45"></path><polygon points="99.77 403.85 99.77 383.59 100.8 384.05 99.77 403.85" style="fill:#D30E45"></polygon><path d="M111.91,402.13c.5-.15,1-.32,1.47-.49l1.47-20.88L113.21,384Z" style="opacity:0.1"></path><path d="M103.49,403.68c1.12-.09,2.22-.21,3.32-.39l.89-20.43-3.3,2.8Z" style="opacity:0.1"></path><path d="M87.63,402.13c-.5-.15-1-.32-1.47-.49l-1.47-20.88L86.33,384Z" style="opacity:0.1"></path><path d="M96.05,403.68c-1.12-.09-2.23-.21-3.32-.39l-.89-20.43,3.3,2.8Z" style="opacity:0.1"></path><polygon points="99.77 403.85 99.77 383.59 100.8 384.05 99.77 403.85" style="opacity:0.1"></polygon><path d="M116,357.74c-2.13-4.05-7-5.44-11.22-5.83a32.86,32.86,0,0,0-14.23,2c-3.46,1.29-7.46,3.88-8.55,7.66s1.1,7.55,4.07,9.6c3.29,2.28,8,2.56,11.85,2.2.52-.05.59-1.18,0-1.21-4.19-.19-12.56-1.12-13-6.7-.21-2.79,2.57-4.84,4.73-6.1a24.41,24.41,0,0,1,8-2.36,23,23,0,0,1,7.9,0c1.83.35,5.32,1.16,6,3.2.85,2.44-2.47,3.86-4.21,4.52a23.69,23.69,0,0,1-7.14,1.58,15.47,15.47,0,0,1-3.84-.28c-1.08-.22-3.65-.7-2.53-2.3.83-1.21,2.88-1.82,4.22-2.06s3.52-.62,4.36.65c.38.58.9-.17.84-.61-1-6.65-16.63-1.19-11.4,4.89,2.23,2.59,6.59,3.22,9.79,3.29a22.13,22.13,0,0,0,12-3A6.66,6.66,0,0,0,116,357.74Z" style="fill:#9a4a4d"></path><path d="M110.38,354.76a18.13,18.13,0,0,0-3.89-1,33.25,33.25,0,0,0-8.22,0s-.08.1,0,.11c2.65.3,5.35.38,8,.87a23.8,23.8,0,0,1,3.62.95,13.07,13.07,0,0,0,3.13,1.09c.06,0,.11-.12.08-.17A5.55,5.55,0,0,0,110.38,354.76Z" style="fill:#fff;opacity:0.1"></path><path d="M115.74,360.71c-.5,3.13-4,4.61-6.55,5.67a38.42,38.42,0,0,1-4.84,1.43,27.27,27.27,0,0,1-5,.8c-.07,0-.13.15-.06.17a20.31,20.31,0,0,0,5.56,0,18,18,0,0,0,5.49-1.51,11,11,0,0,0,4.34-2.82,5.89,5.89,0,0,0,1.25-3.77C115.94,360.48,115.76,360.6,115.74,360.71Z" style="fill:#fff;opacity:0.1"></path><path d="M101.49,360.3c-.75-1-2.28-.95-3.4-.8a12.2,12.2,0,0,0-3.66,1.2c-.07,0-.14.27,0,.24a20.36,20.36,0,0,1,3.45-.57,11.33,11.33,0,0,1,1.65.08,5.41,5.41,0,0,0,1.88.12C101.48,360.55,101.56,360.38,101.49,360.3Z" style="fill:#fff;opacity:0.1"></path></g><g id="freepik--bonbon--inject-2"><polygon points="130.79 377.98 136.65 378.08 138.29 374.84 143.8 375.98 147.1 373.19 151.73 375.25 156.36 373.19 159.66 375.98 165.17 374.84 166.81 378.08 172.66 377.98 172.49 381.36 178.11 382.31 176.13 385.49 180.97 387.39 177.39 390.07 180.97 392.74 176.13 394.65 178.11 397.83 172.49 398.77 172.66 402.15 166.81 402.05 165.17 405.3 159.66 404.16 156.36 406.95 151.73 404.88 147.1 406.95 143.8 404.16 138.29 405.3 136.65 402.05 130.79 402.15 130.97 398.78 125.35 397.83 127.33 394.65 122.49 392.74 126.07 390.07 122.49 387.39 127.33 385.49 125.35 382.31 130.97 381.36 130.79 377.98" style="fill:#D30E45"></polygon><polygon points="130.79 377.98 136.65 378.08 138.29 374.84 143.8 375.98 147.1 373.19 151.73 375.25 156.36 373.19 159.66 375.98 165.17 374.84 166.81 378.08 172.66 377.98 172.49 381.36 178.11 382.31 176.13 385.49 180.97 387.39 177.39 390.07 180.97 392.74 176.13 394.65 178.11 397.83 172.49 398.77 172.66 402.15 166.81 402.05 165.17 405.3 159.66 404.16 156.36 406.95 151.73 404.88 147.1 406.95 143.8 404.16 138.29 405.3 136.65 402.05 130.79 402.15 130.97 398.78 125.35 397.83 127.33 394.65 122.49 392.74 126.07 390.07 122.49 387.39 127.33 385.49 125.35 382.31 130.97 381.36 130.79 377.98" style="fill:#fff;opacity:0.4"></polygon><polygon points="176.13 385.49 172.93 398.7 175.26 398.31 176.13 394.65 177.39 390.07 180.97 387.39 176.13 385.49" style="fill:#fff;opacity:0.2"></polygon><polygon points="180.97 387.39 180.2 392.17 177.39 390.07 180.97 387.39" style="fill:#D30E45"></polygon><polygon points="176.13 385.49 178.11 382.31 177.63 386.08 176.13 385.49" style="fill:#D30E45"></polygon><polygon points="176.13 385.49 178.11 382.31 177.63 386.08 176.13 385.49" style="fill:#fff;opacity:0.30000000000000004"></polygon><polygon points="172.49 381.36 168.66 399.34 168.15 399.19 172.66 377.98 172.49 381.36" style="fill:#fff;opacity:0.2"></polygon><polygon points="165.17 374.84 161.92 396.81 164.08 397.63 166.81 378.08 165.17 374.84" style="fill:#fff;opacity:0.2"></polygon><polygon points="159.66 375.98 157.52 396.7 154.48 396 156.36 373.19 159.66 375.98" style="fill:#fff;opacity:0.2"></polygon><polygon points="127.33 385.49 130.53 398.7 128.19 398.31 127.33 394.65 126.07 390.07 122.49 387.39 127.33 385.49" style="fill:#fff;opacity:0.2"></polygon><polygon points="122.49 387.39 123.26 392.17 126.07 390.07 122.49 387.39" style="fill:#D30E45"></polygon><polygon points="180.97 387.39 180.2 392.17 177.39 390.07 180.97 387.39" style="fill:#fff;opacity:0.5"></polygon><polygon points="122.49 387.39 123.26 392.17 126.07 390.07 122.49 387.39" style="fill:#fff;opacity:0.5"></polygon><polygon points="127.33 385.49 125.35 382.31 125.83 386.08 127.33 385.49" style="fill:#D30E45"></polygon><polygon points="127.33 385.49 125.35 382.31 125.83 386.08 127.33 385.49" style="fill:#fff;opacity:0.30000000000000004"></polygon><polygon points="130.97 381.36 134.8 399.34 135.31 399.19 130.79 377.98 130.97 381.36" style="fill:#fff;opacity:0.2"></polygon><polygon points="138.29 374.84 141.54 396.81 139.38 397.63 136.65 378.08 138.29 374.84" style="fill:#fff;opacity:0.2"></polygon><polygon points="143.8 375.98 145.94 396.7 148.97 396 147.1 373.19 143.8 375.98" style="fill:#fff;opacity:0.2"></polygon><polygon points="151.73 375.25 151.73 394.91 153.02 374.68 151.73 375.25" style="fill:#fff;opacity:0.2"></polygon><path d="M179.76,399.84l-1.95,11.55H125.66l-2-11.6a28.58,28.58,0,0,1,53.66-7A28,28,0,0,1,179.76,399.84Z" style="fill:#b16668"></path><path d="M134.51,390.23a9.26,9.26,0,0,0,6,5,23.25,23.25,0,0,0,8,.69,2.4,2.4,0,0,0,1.07-.2.88.88,0,0,0,.51-.89c-.11-.53-.77-.69-1.3-.75a39.16,39.16,0,0,1-8.4-1.72,5.87,5.87,0,0,1-2-1,4.32,4.32,0,0,1-.89-4.81,8.69,8.69,0,0,1,3.44-3.82,19,19,0,0,1,5-2.37,23,23,0,0,1,4.11-.8c3.79-.41,7.82,0,11,2a4.76,4.76,0,0,1,1.49,1.33,3.59,3.59,0,0,1-.11,3.83,5.57,5.57,0,0,1-3.27,2.24,13.54,13.54,0,0,1-4,.34A22.3,22.3,0,0,1,148,388.1c-.64-.24-1.35-.64-1.43-1.32a1.75,1.75,0,0,1,.87-1.5,8,8,0,0,1,6.26-1.06c.26,0,.57.09.74-.11s.07-.54-.09-.77a3.46,3.46,0,0,0-2.66-1.34,8.47,8.47,0,0,0-3,.49,10.39,10.39,0,0,0-3.48,1.63,3.86,3.86,0,0,0,0,6.47,9.82,9.82,0,0,0,3.38,1.55,23.45,23.45,0,0,0,8.6,1,15.78,15.78,0,0,0,8.08-2.94c1.75-1.31,3.25-3.28,3.17-5.47a6,6,0,0,0-2.43-4.29,14,14,0,0,0-4.59-2.16A24.74,24.74,0,0,0,153,377a31.43,31.43,0,0,0-6.14,1.12c-1.47.37-2.93.77-4.39,1.17a11.68,11.68,0,0,0-2.65,1,11.44,11.44,0,0,0-2.22,1.77c-1,1-2,2-3,3.08a2.91,2.91,0,0,0-.63,1,4.06,4.06,0,0,0-.07,1.59A8.72,8.72,0,0,0,134.51,390.23Z" style="opacity:0.1"></path><path d="M142.71,406.72c-7,.35-11.12,2.15-13.33,4.67h48.43l1.95-11.55A28.53,28.53,0,0,0,172.67,386C176.51,393.59,171.92,405.29,142.71,406.72Z" style="opacity:0.1"></path><path d="M181,392.75l-3.15,18.64a11.51,11.51,0,0,1-3.52,6.32l2.36-12.3,1.46-7.59-2-3.17Z" style="fill:#D30E45"></path><path d="M178.11,397.82l-1.46,7.59-2.36,12.3a19.85,19.85,0,0,1-4,3l-.47.26,2.88-18.82-.06-1.26-.11-2.13Z" style="fill:#D30E45"></path><path d="M165.34,422.93a29.61,29.61,0,0,0,4.43-2l2.89-18.81-5.85-.1Z" style="fill:#D30E45"></path><path d="M163.87,423.43c.5-.15,1-.33,1.47-.5l1.47-20.88-1.64,3.25Z" style="fill:#D30E45"></path><path d="M151.73,425.15c1.24,0,2.48-.07,3.72-.17l.91-18-4.63-2.07Z" style="fill:#D30E45"></path><path d="M155.45,425c1.12-.1,2.22-.22,3.32-.4l.89-20.42-3.3,2.79Z" style="fill:#D30E45"></path><path d="M158.77,424.58a39.82,39.82,0,0,0,5.1-1.15l1.3-18.13-5.51-1.14Z" style="fill:#D30E45"></path><path d="M122.49,392.75l3.16,18.64a11.51,11.51,0,0,0,3.52,6.32l-2.36-12.3-1.46-7.59,2-3.17Z" style="fill:#D30E45"></path><path d="M181,392.75l-3.15,18.64a11.51,11.51,0,0,1-3.52,6.32l2.36-12.3,1.46-7.59-2-3.17Z" style="fill:#fff;opacity:0.5"></path><path d="M122.49,392.75l3.16,18.64a11.51,11.51,0,0,0,3.52,6.32l-2.36-12.3-1.46-7.59,2-3.17Z" style="fill:#fff;opacity:0.5"></path><path d="M125.35,397.82l1.46,7.59,2.36,12.3a19.85,19.85,0,0,0,4,3l.47.26-2.89-18.82.07-1.26.11-2.13Z" style="fill:#D30E45"></path><path d="M178.11,397.82l-1.46,7.59-2.36,12.3a19.85,19.85,0,0,1-4,3l-.47.26,2.88-18.82-.06-1.26-.11-2.13Z" style="fill:#fff;opacity:0.6000000000000001"></path><path d="M125.35,397.82l1.46,7.59,2.36,12.3a19.85,19.85,0,0,0,4,3l.47.26-2.89-18.82.07-1.26.11-2.13Z" style="fill:#fff;opacity:0.6000000000000001"></path><path d="M138.12,422.93a29.16,29.16,0,0,1-4.43-2l-2.89-18.81,5.85-.1Z" style="fill:#D30E45"></path><path d="M139.59,423.43c-.5-.15-1-.33-1.47-.5l-1.47-20.88,1.64,3.25Z" style="fill:#D30E45"></path><path d="M151.73,425.15c-1.25,0-2.49-.07-3.72-.17l-.91-18,4.63-2.07Z" style="fill:#D30E45"></path><path d="M148,425c-1.12-.1-2.23-.22-3.32-.4l-.89-20.42,3.3,2.79Z" style="fill:#D30E45"></path><path d="M144.69,424.58a39.82,39.82,0,0,1-5.1-1.15l-1.3-18.13,5.51-1.14Z" style="fill:#D30E45"></path><path d="M165.34,422.93a29.61,29.61,0,0,0,4.43-2l2.89-18.81-5.85-.1Z" style="fill:#fff;opacity:0.7000000000000001"></path><path d="M151.73,425.15c1.24,0,2.48-.07,3.72-.17l.91-18-4.63-2.07Z" style="fill:#fff;opacity:0.7000000000000001"></path><path d="M158.77,424.58a39.82,39.82,0,0,0,5.1-1.15l1.3-18.13-5.51-1.14Z" style="fill:#fff;opacity:0.7000000000000001"></path><path d="M138.12,422.93a29.16,29.16,0,0,1-4.43-2l-2.89-18.81,5.85-.1Z" style="fill:#fff;opacity:0.7000000000000001"></path><path d="M151.73,425.15c-1.25,0-2.49-.07-3.72-.17l-.91-18,4.63-2.07Z" style="fill:#fff;opacity:0.7000000000000001"></path><path d="M144.69,424.58a39.82,39.82,0,0,1-5.1-1.15l-1.3-18.13,5.51-1.14Z" style="fill:#fff;opacity:0.7000000000000001"></path><polygon points="151.73 425.15 151.73 404.88 152.76 405.34 151.73 425.15" style="fill:#D30E45"></polygon><path d="M163.87,423.43c.5-.15,1-.33,1.47-.5l1.47-20.88-1.64,3.25Z" style="fill:#fff;opacity:0.6000000000000001"></path><path d="M155.45,425c1.12-.1,2.22-.22,3.32-.4l.89-20.42-3.3,2.79Z" style="fill:#fff;opacity:0.6000000000000001"></path><path d="M139.59,423.43c-.5-.15-1-.33-1.47-.5l-1.47-20.88,1.64,3.25Z" style="fill:#fff;opacity:0.6000000000000001"></path><path d="M148,425c-1.12-.1-2.23-.22-3.32-.4l-.89-20.42,3.3,2.79Z" style="fill:#fff;opacity:0.6000000000000001"></path><polygon points="151.73 425.15 151.73 404.88 152.76 405.34 151.73 425.15" style="fill:#fff;opacity:0.6000000000000001"></polygon><path d="M168,379c-2.13-4-7-5.44-11.22-5.82a32.85,32.85,0,0,0-14.23,2c-3.46,1.29-7.46,3.89-8.55,7.67-1,3.63,1.1,7.55,4.07,9.6,3.29,2.28,8,2.55,11.85,2.19.52,0,.59-1.18,0-1.2-4.19-.19-12.56-1.13-13-6.7-.21-2.8,2.57-4.85,4.73-6.11a24.15,24.15,0,0,1,8-2.35,22.54,22.54,0,0,1,7.9,0c1.83.35,5.32,1.15,6,3.19.85,2.45-2.47,3.87-4.21,4.52a24,24,0,0,1-7.14,1.59,15.48,15.48,0,0,1-3.84-.29c-1.08-.22-3.65-.7-2.53-2.3.83-1.2,2.88-1.81,4.22-2.05s3.52-.63,4.36.64c.38.58.9-.16.84-.6-1-6.65-16.63-1.2-11.4,4.88,2.23,2.6,6.59,3.22,9.79,3.29a22,22,0,0,0,12-3A6.66,6.66,0,0,0,168,379Z" style="fill:#9a4a4d"></path><path d="M162.34,376.05a17.54,17.54,0,0,0-3.89-1,32.77,32.77,0,0,0-8.22-.05s-.08.11,0,.11c2.65.3,5.35.38,8,.87a25,25,0,0,1,3.62.95,12.65,12.65,0,0,0,3.13,1.09c.06,0,.11-.12.08-.17A5.55,5.55,0,0,0,162.34,376.05Z" style="fill:#fff;opacity:0.1"></path><path d="M167.7,382c-.5,3.13-4,4.61-6.55,5.67a35.36,35.36,0,0,1-4.84,1.43,26.37,26.37,0,0,1-5,.81c-.07,0-.13.14-.06.16a20.31,20.31,0,0,0,5.56,0,18,18,0,0,0,5.49-1.5,11.09,11.09,0,0,0,4.34-2.83,5.86,5.86,0,0,0,1.25-3.76C167.9,381.77,167.72,381.9,167.7,382Z" style="fill:#fff;opacity:0.1"></path><path d="M153.45,381.59c-.75-1-2.28-.95-3.4-.79a11.9,11.9,0,0,0-3.66,1.19c-.07,0-.14.27,0,.24a20.36,20.36,0,0,1,3.45-.57,11.12,11.12,0,0,1,1.64.09,5.74,5.74,0,0,0,1.89.11A.19.19,0,0,0,153.45,381.59Z" style="fill:#fff;opacity:0.1"></path></g></g><g id="freepik--Envelope--inject-2"><g id="freepik--envelope--inject-2"><path d="M449.4,368.27a.28.28,0,0,0,0-.09s0,0,0,0a.22.22,0,0,0,0-.08.27.27,0,0,0,0-.12.35.35,0,0,0-.06-.14,1.33,1.33,0,0,0-.45-.51l0,0-.07,0-.07-.05,0,0-61.36-35.43-.12-.06a6.69,6.69,0,0,0-3.56-.84h-.06a6.69,6.69,0,0,0-3,.89h0l-4.46,2.57L298.67,379l-9.85,5.69,0,0a2.36,2.36,0,0,0-.92,1.77v5.46a2.41,2.41,0,0,0,1.2,2.1,0,0,0,0,0,0,0l1,.55,60.13,34.73a3.89,3.89,0,0,0,1.92.44,3.77,3.77,0,0,0,1.77-.44h0l82.74-47.77,12-6.93.11-.08.07,0a1.22,1.22,0,0,0,.58-.92C449.4,373.48,449.38,368.6,449.4,368.27Z" style="fill:#D30E45"></path><path d="M350.92,429.61l.14,0a3.43,3.43,0,0,0,.48.08h0l.36,0h.15v-5.31a3.8,3.8,0,0,1-1.87-.44l-61.1-35.29a2.36,2.36,0,0,1-1.21-2.23v5.44a2.41,2.41,0,0,0,1.2,2.1,0,0,0,0,0,0,0l1,.55,60.13,34.73a3.17,3.17,0,0,0,.42.19Z" style="fill:#fff;opacity:0.4"></path><path d="M449.4,373.58a1.22,1.22,0,0,1-.58.92l-.07,0-.11.08-94.75,54.7h0a3.77,3.77,0,0,1-1.77.44h-.05v-5.31a3.85,3.85,0,0,0,1.82-.43h0l94.86-54.77.07-.05a1.21,1.21,0,0,0,.58-.92C449.38,368.6,449.4,373.48,449.4,373.58Z" style="fill:#fff;opacity:0.7000000000000001"></path><path d="M449.4,368.27a1.21,1.21,0,0,1-.58.92l-.07.05-12.12,7-50.12,28.94L353.89,424h0a3.65,3.65,0,0,1-1.77.43,3.78,3.78,0,0,1-1.92-.44l-1-.6-46.82-27-12.27-7.08-1-.56h0a2.41,2.41,0,0,1-1.2-2.19v-.07a2.36,2.36,0,0,1,.92-1.77l0,0,9.85-5.69,77.38-44.68,4.46-2.57h0a6.69,6.69,0,0,1,3-.89h.06a6.69,6.69,0,0,1,3.56.84l.12.06,61.36,35.43,0,0,.07.05.07,0,0,0a1.33,1.33,0,0,1,.45.51.35.35,0,0,1,.06.14.27.27,0,0,1,0,.12.25.25,0,0,1,0,.08s0,0,0,0A.28.28,0,0,1,449.4,368.27Z" style="opacity:0.4"></path><path d="M449.4,368.27a1.21,1.21,0,0,1-.58.92l-.07.05-12.12,7-50.12,28.94L353.89,424h0a3.65,3.65,0,0,1-1.77.43,3.78,3.78,0,0,1-1.92-.44l-1-.6-46.82-27-12.27-7.08-1-.56h0a2.41,2.41,0,0,1-1.2-2.19v-.07a6.8,6.8,0,0,1,1.12-.19l11-1.09,57-5.67h0l8.9-.9c2-.19,3.71-.9,3.91-1.58l1.78-6h0l11.13-37.26.83-2.77v0a.53.53,0,0,1,.08-.17,6.69,6.69,0,0,1,3.56.84l.12.06,2.67,1.55,58.69,33.88,0,0,.07.05.07,0,0,0a1.33,1.33,0,0,1,.45.51.35.35,0,0,1,.06.14.27.27,0,0,1,0,.12.25.25,0,0,1,0,.08s0,0,0,0A.28.28,0,0,1,449.4,368.27Z" style="fill:#D30E45"></path><path d="M449.4,368.27a1.21,1.21,0,0,1-.58.92l-.07.05-12.12,7-50.12,28.94L353.89,424h0a3.65,3.65,0,0,1-1.77.43,3.78,3.78,0,0,1-1.92-.44l-1-.6-46.82-27-12.27-7.08-1-.56h0a2.41,2.41,0,0,1-1.2-2.19v-.07a6.8,6.8,0,0,1,1.12-.19l11-1.09,57-5.67h0l8.9-.9c2-.19,3.71-.9,3.91-1.58l1.78-6h0l11.13-37.26.83-2.77v0a.53.53,0,0,1,.08-.17,6.69,6.69,0,0,1,3.56.84l.12.06,2.67,1.55,58.69,33.88,0,0,.07.05.07,0,0,0a1.33,1.33,0,0,1,.45.51.35.35,0,0,1,.06.14.27.27,0,0,1,0,.12.25.25,0,0,1,0,.08s0,0,0,0A.28.28,0,0,1,449.4,368.27Z" style="fill:#fff;opacity:0.6000000000000001"></path><path d="M448.64,369.31l.11-.07.07-.05a1.21,1.21,0,0,0,.58-.91,1.25,1.25,0,0,0-.74-1.09l-69.23,3.37-.14,1.39,57.34,4.29Z" style="fill:#D30E45;opacity:0.30000000000000004"></path><path d="M350.18,424a4.13,4.13,0,0,0,3.69,0h0l32.62-18.83L362,383.87l-5.84.21-7,39.33Z" style="fill:#D30E45;opacity:0.30000000000000004"></path><path d="M449.4,368.28a1.21,1.21,0,0,1-.58.91l-.07.05L353.89,424h0a3.77,3.77,0,0,1-1.77.43l5.33-49.31c.22-2,4.91-3.72,11-3.94Z" style="fill:#D30E45"></path><path d="M449.4,368.28a1.21,1.21,0,0,1-.58.91l-.07.05L353.89,424h0a3.77,3.77,0,0,1-1.77.43l5.33-49.31c.22-2,4.91-3.72,11-3.94Z" style="fill:#fff;opacity:0.65"></path><path d="M383.6,330.84l-.31,2.94-3.87,36.91,0,.11-.09.9-.84,8c-.21,2-4.9,3.73-11,3.95l-5.48.2h0l-5.5.2h-.33l-56,2-12.29.44v-.07a2.36,2.36,0,0,1,.92-1.77l0,0,9.85-5.69,77.4-44.68,4.44-2.57h0a6.69,6.69,0,0,1,3-.89Z" style="fill:#D30E45;opacity:0.30000000000000004"></path><path d="M383.54,330.84l0,.17v0l-.46,2.74-6.08,37v.07l-.1.62-1.12,6.82c-.31,1.92-4.59,3.51-10.29,3.83l-5.11.29h0l-3.71.2-.23,0-56.28,3.14-12.24.68v0a2.36,2.36,0,0,1,.92-1.77l0,0,9.85-5.69,77.4-44.68,4.44-2.57h0A6.69,6.69,0,0,1,383.54,330.84Z" style="fill:#D30E45"></path><path d="M383.54,330.84l0,.17v0l-.46,2.74-6.08,37v.07l-.1.62-1.12,6.82c-.31,1.92-4.59,3.51-10.29,3.83l-5.11.29h0l-3.71.2-.23,0-56.28,3.14-12.24.68v0a2.36,2.36,0,0,1,.92-1.77l0,0,9.85-5.69,77.4-44.68,4.44-2.57h0A6.69,6.69,0,0,1,383.54,330.84Z" style="fill:#fff;opacity:0.8"></path><path d="M381.8,376.9l0-.22a2.72,2.72,0,0,1-1-3.19l-.11-.21a1.87,1.87,0,0,0-1.48-1,1.85,1.85,0,0,0-.55-1.69l-.15-.14a1.84,1.84,0,0,0-1.7-.46,1.87,1.87,0,0,0-1-1.43l-.22-.1a2.65,2.65,0,0,1-3.2-.94l-.24,0a2.89,2.89,0,0,1-3.44.35l-.24.07a3.48,3.48,0,0,1-3.19,1.91c-.06.07-.13.14-.19.22a1.89,1.89,0,0,0-.09,2.26,1.81,1.81,0,0,0-.76,1.27,1.93,1.93,0,0,0-.7.42,1.89,1.89,0,0,0-1.54-.89h-.25a1.89,1.89,0,0,0-1.6.89,1.86,1.86,0,0,0-1.84-.43l-.23.08a3.8,3.8,0,0,1-3.26,2.33l-.16.23a7,7,0,0,1-.31,4.57c0,.08.08.17.13.25a3.12,3.12,0,0,1,2.49,2.81l.23.16a2.41,2.41,0,0,1,3,1.52l.22.08a1.83,1.83,0,0,0,1.73-.26,1.89,1.89,0,0,0,1.39,1.06l.23,0a1.87,1.87,0,0,0,1.62-.55,1.89,1.89,0,0,0,1.5.83H367a1.9,1.9,0,0,0,1.5-.74,1.75,1.75,0,0,0,1.41.57,2.33,2.33,0,0,0,1.7-.56l.06,0a.16.16,0,0,1,.13,0,2.56,2.56,0,0,0,1.72.2,2,2,0,0,1,3-.62l.18,0a1.46,1.46,0,0,1,2.39-.74,1.86,1.86,0,0,0,.52-.07l.11,0a1.9,1.9,0,0,0,1.21-1.12l0-.12a1.79,1.79,0,0,0-.21-1.66,1.88,1.88,0,0,0,1-1.41l0-.21a1.88,1.88,0,0,0-.6-1.63A1.85,1.85,0,0,0,381.8,376.9Z" style="fill:#fff"></path><path d="M379.17,382.9c3.44-9.12-4.23-14.17-8.87-13.47s-6,3.94-2.52,6.9c-5.12-2-10.45-1.83-11.94,1.46s5.79,10.58,23.33,5.11Z" style="fill:#D30E45"></path></g></g><g id="freepik--Hand--inject-2"><g id="freepik--hand--inject-2"><g id="freepik--hand--inject-2"><path d="M297.38,407.17c0,6.41-.06,15.09,0,20.62,0,1.2,0,2.68,0,4.64a0,0,0,0,1,0,0c-.88,5.78-5.15,11.42-12.81,15.84-17.32,10-45.4,10-62.72,0-8.93-5.15-13.25-12-13-18.72v-.05c.06-.57.11-1.16.19-1.79,0,0,0-.05,0-.06.75-6.57,1.29-13.14,1.66-19.3.58-9.78.42-14.09.42-19.35,0-12-23.47-45.76-23.47-45.76l83.69-43.49,25.69,81.35S297.38,400.75,297.38,407.17Z" style="fill:#ffa8a7"></path><path d="M271.18,276.37c.11,3.86-1,9.2-5.75,10.38s-9.82-3.95-12.94-7a232.79,232.79,0,0,1-18.22-20.1c-4.52-5.6-7.47-12.51-10.89-18.83-3.56-6.6-4.55-14.23-4.68-21.63a68.05,68.05,0,0,1,.18-10.69c.5-3.47,2.76-6.49,4.63-9.34,3.83-5.84,7.82-12.61,8.87-19.62A15,15,0,0,0,229.7,168a3.23,3.23,0,0,0-1.76-1.29c-1.83-.35-3.62,1.17-5.37,3s-3.55,3.63-5.41,5.42c-3.72,3.56-6.21,5.9-10.44,10-4.75,4.62-9.72,8.62-11.52,12.31S192,213,191.3,218.46c-.57,4.72-2.31,9.12-3.93,13.6-3.62,10-9,19.87-8.66,30.77a10.11,10.11,0,0,1-.26,3.56,10.62,10.62,0,0,1-1.1,2,21.84,21.84,0,0,0-2.62,16.29,13.31,13.31,0,0,1,.66,4.17,10.19,10.19,0,0,1-1.56,4c-2.62,4.62-5.35,9.5-5.28,14.81.1,7.57,6.06,14.61,9.76,20.82,4.72,7.9,6.83,11.05,9.37,14.76,6.58,9.63,64.91-29.83,64.91-29.83l14.09-9L276.59,288S271.22,276.42,271.18,276.37Z" style="fill:#ffa8a7"></path><path d="M265.47,301.52c-5,7.4-25.76,27.56-8.56,57.15a26.65,26.65,0,0,1-3.22-3.64,40.47,40.47,0,0,1-5.78-10.78l-.14-.42c-3.91-11.26-2.58-22.72,4.71-32.41,5.74-7.61,15.39-16.39,16.79-24.6.05-.3.5-2.58.9.51C270.42,289.88,269,296.26,265.47,301.52Z" style="fill:#f28f8f"></path><path d="M276.59,374.69c6.87,7.39,19.83,67.61,20.79,28.23S302,351.64,303.75,341c1.36-8.36,2.73-16.77,2.74-25.24,0-21.43-8.37-41-14.36-61.1-2.62-8.73-4.56-18-5.72-23.13s-11-2-16.08,10.42c-4.14,10.17-1.14,22-.15,26.91a54.09,54.09,0,0,1-8.25,41.53,45.69,45.69,0,0,0-7.51,20.09c-1.8,13.42,6.08,26.2,15,36.38C271.74,369.49,274.17,372.09,276.59,374.69Z" style="fill:#ffa8a7"></path><path d="M284.39,239.6s2.45,11,3.93,12.9,3.11-.26,3.11-.26v0c-1.07-5.17-3.14-14.64-5-20.71A15.75,15.75,0,0,1,284.39,239.6Z" style="fill:#ffa8a7"></path><path d="M284.39,239.6s2.45,11,3.93,12.9,3.11-.26,3.11-.26v0c-1.07-5.17-3.14-14.64-5-20.71A15.75,15.75,0,0,1,284.39,239.6Z" style="fill:#fff;opacity:0.6000000000000001"></path><path d="M291.43,252.24v0a14.41,14.41,0,0,0-.35-1.67,3.16,3.16,0,0,1-2.38,2.35h0C290.1,254.08,291.43,252.24,291.43,252.24Z" style="fill:#f28f8f"></path></g><g id="freepik--Rose--inject-2"><path d="M261.26,81.71s-7.94-6.07-8.29-15.08S255.56,50.21,263.13,47s15.13-.53,19.28-11c0,0,2.32,6.37,1,16.56S274.34,74.65,261.26,81.71Z" style="fill:#D30E45"></path><path d="M261.26,81.71s-7.94-6.07-8.29-15.08S255.56,50.21,263.13,47s15.13-.53,19.28-11c0,0,2.32,6.37,1,16.56S274.34,74.65,261.26,81.71Z" style="opacity:0.25"></path><path d="M259.71,80.33a19,19,0,0,0,1.55,1.38c.48-.26.95-.54,1.41-.81a32.6,32.6,0,0,1,3.1-6.61,72,72,0,0,1,5.85-9.15A112.42,112.42,0,0,0,279,54.36c2.06-3.59,4.49-7.49,4.61-11.69q-.06-.77-.15-1.44c-.37-.86-1.25-1.56-1.54-.66-3.16,10.09-8.53,17.21-14.2,24.54C265.35,68.22,260.62,75.33,259.71,80.33Z" style="fill:#D30E45"></path><path d="M261.26,81.71c13.08-7.06,20.75-18.94,22.11-29.13s-1-16.56-1-16.56.2,8.55-5.71,18.67C268.07,69.46,261.78,76.33,261.26,81.71Z" style="fill:#D30E45"></path><path d="M261.26,81.71c13.08-7.06,20.75-18.94,22.11-29.13s-1-16.56-1-16.56.2,8.55-5.71,18.67C268.07,69.46,261.78,76.33,261.26,81.71Z" style="opacity:0.4"></path><path d="M245.88,93.8c2.94-1.09,1.94-6.8,1.16-9-1.07-3-5.44-6.52-5.85-9.76a80.2,80.2,0,0,1-.37-10c0-.67-.6-.79-.93-.23-2.47,4.24-.59,9.08,1.33,13.17,1.07,2.3,2.36,4.64,3.35,7,1.17,2.74.94,5.36.71,8.25C245.25,93.59,245.49,93.94,245.88,93.8Z" style="fill:#263238"></path><path d="M242.77,80c-2.56-1.95-8.68-4.48-14.47-6S215.65,66.76,213,60.71s3.9-18.76,5-24.06a27.16,27.16,0,0,0,.26-9.56s4.58,2,10.81,4.6c7.11,3,15.67,8.09,17.89,17.36C250.14,62.66,240.29,72.05,242.77,80Z" style="fill:#D30E45"></path><path d="M242.77,80c-2.56-1.95-8.68-4.48-14.47-6S215.65,66.76,213,60.71s3.9-18.76,5-24.06a27.16,27.16,0,0,0,.26-9.56s4.58,2,10.81,4.6c7.11,3,15.67,8.09,17.89,17.36C250.14,62.66,240.29,72.05,242.77,80Z" style="opacity:0.25"></path><path d="M242.77,80a10.84,10.84,0,0,1-.14-5.26c-.28-.88-.55-1.71-.75-2.43-1.59-5.57-2.77-11.33-5.12-16.66a112.42,112.42,0,0,0-6.13-12.34c-2.28-3.79-4.61-8.37-7.87-11.41-.2-.19-1.53-1.38-1.38-1.13,2.27,3.86,4.41,7.88,6.11,11.08a122.87,122.87,0,0,1,6,12.93,123.51,123.51,0,0,1,4.45,14.5c.76,2.94,2.09,6.19,2.77,9.41A15.87,15.87,0,0,1,242.77,80Z" style="fill:#D30E45"></path><path d="M242.43,78.32c-.86-7.57,7.49-16.58,4.46-29.27-2.22-9.27-10.78-14.34-17.89-17.36-6.23-2.64-10.81-4.6-10.81-4.6C234.12,43.88,240.92,71.39,242.43,78.32Z" style="fill:#D30E45"></path><path d="M242.43,78.32c-.86-7.57,7.49-16.58,4.46-29.27-2.22-9.27-10.78-14.34-17.89-17.36-6.23-2.64-10.81-4.6-10.81-4.6C234.12,43.88,240.92,71.39,242.43,78.32Z" style="opacity:0.4"></path><path d="M230.86,104.28s-11.52,6.63-23,5S191.41,95.8,190.25,91.12,188.9,82.65,186,78.85a14,14,0,0,0,9.43.26c5.54-1.62,9.26-4,15-3.82s13.25,5.87,13.25,5.87-2,2.66-1.78,4.88A17.55,17.55,0,0,1,225,82.36a12.39,12.39,0,0,1,7.76,9.57A18.25,18.25,0,0,1,230.86,104.28Z" style="fill:#D30E45"></path><path d="M230.86,104.28s-11.52,6.63-23,5S191.41,95.8,190.25,91.12,188.9,82.65,186,78.85a14,14,0,0,0,9.43.26c5.54-1.62,9.26-4,15-3.82s13.25,5.87,13.25,5.87-2,2.66-1.78,4.88A17.55,17.55,0,0,1,225,82.36a12.39,12.39,0,0,1,7.76,9.57A18.25,18.25,0,0,1,230.86,104.28Z" style="opacity:0.25"></path><path d="M211.54,95.76A67,67,0,0,0,223,100c1.48.4,3,.63,4.51,1s2.8.66,4.15,1l.19.07a12.14,12.14,0,0,1-1,2.21l-.47.26q-2.8-.66-5.61-1.27a71,71,0,0,1-10.67-3.34,80.27,80.27,0,0,1-14.3-7.81c-4.45-2.91-8.64-5.81-11.94-10-.09-.21-.18-.42-.28-.62.07-.29.35-.6.58-.43A132.82,132.82,0,0,0,211.54,95.76Z" style="fill:#D30E45"></path><path d="M230.86,104.28s-11.52,6.63-23,5S191.41,95.8,190.25,91.12,188.9,82.65,186,78.85C186,78.85,206.37,100.22,230.86,104.28Z" style="fill:#D30E45"></path><path d="M230.86,104.28s-11.52,6.63-23,5S191.41,95.8,190.25,91.12,188.9,82.65,186,78.85C186,78.85,206.37,100.22,230.86,104.28Z" style="opacity:0.4"></path><path d="M239.71,342.19c0-.22-1.89.18-1.72,1.93.3,3.14-1.67,6.44-3.26,9.1-2.55,4.26-6.09,8-9.87,12.37a80.63,80.63,0,0,1-10.31,10.1c-2.65,2.18-5.81,4.31-8.08,6.87-.19.21.21.65.43.47,3.46-2.81,7.51-4.93,11-7.8a85.81,85.81,0,0,0,10.56-10.75,83.56,83.56,0,0,0,9-12.89C239.27,348.24,240.2,345.79,239.71,342.19Z" style="fill:#263238"></path><path d="M219.54,371c3.33-.54,6.68,2.47,8.5,6s8,8.4,11.72,9.82,5,.23,5,.23l-.38-3.08s1.93,1.74,2.27,3c0,0,3.55,1.61,6.66.23s5.64-3.62,9.12-7.78,7.1-4.55,10.65-3.73a41,41,0,0,1-5.4-5.1c-2.39-2.8-5.53-9.39-13.29-12.79s-15.09-3-19.53,1.07S223.38,368.78,219.54,371Z" style="fill:#D30E45"></path><path d="M219.54,371c3.33-.54,6.68,2.47,8.5,6s8,8.4,11.72,9.82,5,.23,5,.23l-.38-3.08s1.93,1.74,2.27,3c0,0,3.55,1.61,6.66.23s5.64-3.62,9.12-7.78,7.1-4.55,10.65-3.73a41,41,0,0,1-5.4-5.1c-2.39-2.8-5.53-9.39-13.29-12.79s-15.09-3-19.53,1.07S223.38,368.78,219.54,371Z" style="opacity:0.25"></path><path d="M263.13,369c-6-4-13.36-4.87-20.4-4.85a55,55,0,0,0-14.51,2.33c-1.09.29-2.34.62-3.63,1a54.76,54.76,0,0,1-5.05,3.51,5.47,5.47,0,0,1,3.07.47l0,0a26.28,26.28,0,0,1,4.8-1.92q2.52-.87,5.11-1.52a45.62,45.62,0,0,1,10.67-1.3c7,0,13.75,1.46,20.46,3.28C264,370.1,263.23,369.1,263.13,369Z" style="fill:#D30E45"></path><path d="M249.56,365.68a52.74,52.74,0,0,1,23,9.65,41.08,41.08,0,0,1-4.91-4.71c-2.39-2.8-5.53-9.39-13.29-12.79s-15.09-3-19.53,1.07-11.49,9.88-15.33,12.13C219.54,371,235.26,363.45,249.56,365.68Z" style="fill:#D30E45"></path><path d="M249.56,365.68a52.74,52.74,0,0,1,23,9.65,41.08,41.08,0,0,1-4.91-4.71c-2.39-2.8-5.53-9.39-13.29-12.79s-15.09-3-19.53,1.07-11.49,9.88-15.33,12.13C219.54,371,235.26,363.45,249.56,365.68Z" style="opacity:0.4"></path><path d="M236.58,350.26c3.62-1.88,8.3,1.12,16.28-.08s11.16-2.86,14.33-6.78A18.74,18.74,0,0,0,271.35,332c0-3.1,1.15-5.18.86-7.56a35.18,35.18,0,0,0,2.88-4,6.52,6.52,0,0,1,3.55-2.88,45.31,45.31,0,0,0-6.27-.26c-4.5,0-6.17.64-9.79-.14s-7.16-3.3-13.62-1.05-6,4.15-9.19,8.27a17.81,17.81,0,0,0-3.33,13.18C236.93,341.46,238,347.16,236.58,350.26Z" style="fill:#D30E45"></path><path d="M236.58,350.26c3.62-1.88,8.3,1.12,16.28-.08s11.16-2.86,14.33-6.78A18.74,18.74,0,0,0,271.35,332c0-3.1,1.15-5.18.86-7.56a35.18,35.18,0,0,0,2.88-4,6.52,6.52,0,0,1,3.55-2.88,45.31,45.31,0,0,0-6.27-.26c-4.5,0-6.17.64-9.79-.14s-7.16-3.3-13.62-1.05-6,4.15-9.19,8.27a17.81,17.81,0,0,0-3.33,13.18C236.93,341.46,238,347.16,236.58,350.26Z" style="opacity:0.25"></path><path d="M267.91,319.82c-2.11-.13-5.09,2-6.86,3a90.42,90.42,0,0,0-10.91,8.4c-4.49,3.78-9.7,9.16-12.86,14.83a10.5,10.5,0,0,1-.7,4.17,5.43,5.43,0,0,1,1.81-.55c3.94-6.26,7.74-12.22,13.39-17.23,4.82-4.28,10.29-9.64,16.35-12.18C268.38,320.19,268.08,319.83,267.91,319.82Z" style="fill:#D30E45"></path><path d="M278.64,317.51a45.31,45.31,0,0,0-6.27-.26c-4.5,0-6.17.64-9.79-.14s-7.16-3.3-13.62-1.05-6,4.15-9.19,8.27a17.81,17.81,0,0,0-3.33,13.18c.49,3.95,1.55,9.65.14,12.75C250.15,325.05,272.37,317.25,278.64,317.51Z" style="fill:#D30E45"></path><path d="M278.64,317.51a45.31,45.31,0,0,0-6.27-.26c-4.5,0-6.17.64-9.79-.14s-7.16-3.3-13.62-1.05-6,4.15-9.19,8.27a17.81,17.81,0,0,0-3.33,13.18c.49,3.95,1.55,9.65.14,12.75C250.15,325.05,272.37,317.25,278.64,317.51Z" style="opacity:0.4"></path><path d="M158.86,193.06c-.33,3.31-.68,7.71,1.75,11.1,2.56,3.58,7.06,5.79,10.57,8.34,6,4.39,12.95,8.17,14.41,16.08.11.6-.44,1.9-1.17,1.17-2-2-3.14-4.78-5.14-6.92-3.61-3.88-8.19-6.67-12.46-9.82-3.45-2.55-6.67-5.5-8.41-8.75s-2-6.81-2.51-11.07C155.84,192.64,158.94,192.31,158.86,193.06Z" style="fill:#263238"></path><path d="M168.65,225.66A44.35,44.35,0,0,1,192.8,232a73.51,73.51,0,0,1,16.4,14.13,45.77,45.77,0,0,1,4.58,5.91,34.9,34.9,0,0,1,4.15,9.85,49.43,49.43,0,0,1,1,5.26,9.34,9.34,0,0,1,.33,2.37c0-.08-.27,1.46-.47.92-4-10.66-9.92-20.75-18.3-28.45A52.09,52.09,0,0,0,184,231.7c-6.18-2.36-12.66-2.89-19.19-3.5a2,2,0,0,1,1.1-2,5.27,5.27,0,0,1,2.39-.5Z" style="fill:#263238"></path><path d="M172.92,226.79c-3.21.69-5,1-5.55,4.75s.24,9.27-6.24,13.2a27.64,27.64,0,0,1-12.78,4s1.82-3.64,1.77-4.8c0,0-2.51,4.26-5.33,5.6s-13.28.8-17.16-1.49-10.73-10.64-21.77-11.93a29.22,29.22,0,0,0,10.54-9.77c4-6.53,12.77-12.14,18.1-13.64a19.11,19.11,0,0,1,9.33-.42l3.93,3.16a10.58,10.58,0,0,0-1.8-3.82s7.25-1,12.65,1.07C168.13,216.39,166.53,224.92,172.92,226.79Z" style="fill:#D30E45"></path><path d="M172.92,226.79c-3.21.69-5,1-5.55,4.75s.24,9.27-6.24,13.2a27.64,27.64,0,0,1-12.78,4s1.82-3.64,1.77-4.8c0,0-2.51,4.26-5.33,5.6s-13.28.8-17.16-1.49-10.73-10.64-21.77-11.93a29.22,29.22,0,0,0,10.54-9.77c4-6.53,12.77-12.14,18.1-13.64a19.11,19.11,0,0,1,9.33-.42l3.93,3.16a10.58,10.58,0,0,0-1.8-3.82s7.25-1,12.65,1.07C168.13,216.39,166.53,224.92,172.92,226.79Z" style="opacity:0.4"></path><path d="M167.37,231.54c-.55,3.8.24,9.27-6.24,13.2a27.64,27.64,0,0,1-12.78,4s1.82-3.64,1.77-4.8c0,0-2.51,4.26-5.33,5.6s-13.28.8-17.16-1.49-10.44-10.24-21-11.81v0c47.3-15.51,66.33-9.41,66.33-9.41C169.71,227.48,167.92,227.74,167.37,231.54Z" style="fill:#D30E45"></path><path d="M167.37,231.54c-.55,3.8.24,9.27-6.24,13.2a27.64,27.64,0,0,1-12.78,4s1.82-3.64,1.77-4.8c0,0-2.51,4.26-5.33,5.6s-13.28.8-17.16-1.49-10.44-10.24-21-11.81v0c47.3-15.51,66.33-9.41,66.33-9.41C169.71,227.48,167.92,227.74,167.37,231.54Z" style="opacity:0.25"></path><path d="M172.92,226.79c-2,.43-3.48.7-4.42,1.79-.9-.1-1.8-.19-2.69-.24-4.53-.24-9.12-.19-13.66-.07a129.32,129.32,0,0,0-13,.85c-4.73.55-9.36,1.41-15.38,2.4-.17,0-.1-.16.06-.39C158.56,222.2,172.92,226.79,172.92,226.79Z" style="fill:#D30E45"></path><path d="M158.41,204.26c-5-2.09-9.22-2.34-19-.59s-18-3.55-22.07-12.94c0,0,3,.59,4.61-.21,0,0-6.9-2.3-9-8s-1.22-11.2,2.25-21.08,1.43-15.8,1.43-15.8,3.46,2.72,9.94,2.52c6.65-.21,13.62-2.13,19.53,3.41a18.17,18.17,0,0,1,5.79,12.51,10.59,10.59,0,0,0,1.85-4s4.59,2.11,6.67,9.56-.73,19.19-1.66,24.32S158.44,201.65,158.41,204.26Z" style="fill:#D30E45"></path><path d="M158.41,204.26c-5-2.09-9.22-2.34-19-.59s-18-3.55-22.07-12.94c0,0,3,.59,4.61-.21,0,0-6.9-2.3-9-8s-1.22-11.2,2.25-21.08,1.43-15.8,1.43-15.8,3.46,2.72,9.94,2.52c6.65-.21,13.62-2.13,19.53,3.41a18.17,18.17,0,0,1,5.79,12.51,10.59,10.59,0,0,0,1.85-4s4.59,2.11,6.67,9.56-.73,19.19-1.66,24.32S158.44,201.65,158.41,204.26Z" style="opacity:0.4"></path><path d="M139.4,203.67c-9.79,1.74-18-3.55-22.07-12.94,0,0,3,.59,4.61-.21,0,0-6.9-2.3-9-8s-1.22-11.2,2.25-21.08,1.43-15.8,1.43-15.8l.08.05a106.78,106.78,0,0,1,25.93,27.25,160.58,160.58,0,0,1,15.82,31.33C153.38,202.17,149.19,201.92,139.4,203.67Z" style="fill:#D30E45"></path><path d="M139.4,203.67c-9.79,1.74-18-3.55-22.07-12.94,0,0,3,.59,4.61-.21,0,0-6.9-2.3-9-8s-1.22-11.2,2.25-21.08,1.43-15.8,1.43-15.8l.08.05a106.78,106.78,0,0,1,25.93,27.25,160.58,160.58,0,0,1,15.82,31.33C153.38,202.17,149.19,201.92,139.4,203.67Z" style="opacity:0.25"></path><path d="M144.92,180.45c-5.94-10.09-13.75-19.17-20.66-28.64a105,105,0,0,1,18.33,21.12,160.58,160.58,0,0,1,15.82,31.33,22.85,22.85,0,0,0-3.84-1.24c-1.42-3.13-2.41-6.58-3.48-9.38A86.44,86.44,0,0,0,144.92,180.45Z" style="fill:#D30E45"></path><path d="M177.45,218.22c-2.45-3.16-7.68-4.85-11.78-12.72s-1.14-17.57,2.47-21.67l4.12.84a9.18,9.18,0,0,0-2.67-2.41c-1.54-.82,3-6.5,8.57-9.19s8.39-5,9.35-7.28c0,0,1.84,4.91,4.9,7.63s5,5.13,2.52,8.45c0,0,2.17-1.24,2.69-2.92a80.24,80.24,0,0,1,4.16,11.88c1.66,6.41-1.46,14.9-7.45,20C190.09,214.52,179.3,216.62,177.45,218.22Z" style="fill:#D30E45"></path><path d="M177.45,218.22c-2.45-3.16-7.68-4.85-11.78-12.72s-1.14-17.57,2.47-21.67l4.12.84a9.18,9.18,0,0,0-2.67-2.41c-1.54-.82,3-6.5,8.57-9.19s8.39-5,9.35-7.28c0,0,1.84,4.91,4.9,7.63s5,5.13,2.52,8.45c0,0,2.17-1.24,2.69-2.92a80.24,80.24,0,0,1,4.16,11.88c1.66,6.41-1.46,14.9-7.45,20C190.09,214.52,179.3,216.62,177.45,218.22Z" style="opacity:0.4"></path><path d="M177.45,218.22c-2.45-3.16-7.68-4.85-11.78-12.72s-1.14-17.57,2.47-21.67l4.12.84a9.18,9.18,0,0,0-2.67-2.41c-1.54-.82,3-6.5,8.57-9.19s8.39-5,9.35-7.28C189.84,173.93,190.42,202,177.45,218.22Z" style="fill:#D30E45"></path><path d="M177.45,218.22c-2.45-3.16-7.68-4.85-11.78-12.72s-1.14-17.57,2.47-21.67l4.12.84a9.18,9.18,0,0,0-2.67-2.41c-1.54-.82,3-6.5,8.57-9.19s8.39-5,9.35-7.28C189.84,173.93,190.42,202,177.45,218.22Z" style="opacity:0.25"></path><path d="M178.88,213.44a84.08,84.08,0,0,0,4.83-12.14c2.35-7.84,4.95-17.42,5-25.62.46,12.11-1.73,30.57-11.31,42.54-.22-.28-.47-.55-.73-.82C177.48,216.09,178.24,214.78,178.88,213.44Z" style="fill:#D30E45"></path><path d="M253.14,139.31c-1.28,2-2.69,4-3.81,6.12s-2.27,4.32-3.39,6.48q-3.23,6.22-6.23,12.54A238.94,238.94,0,0,0,229,190.67c-5.95,17.71-9.25,36.17-11.28,54.71s-2.83,37.13-3.84,55.73c-1,17.81-2.14,35.67-4.72,53.33A257.66,257.66,0,0,1,204,380.68c-2.16,8.5-5.06,16.75-7.62,25.13-.64,2.08-1.37,4.13-2.05,6.2-.26.83,1.11,2.83,1.81,1.7a104.92,104.92,0,0,0,10.82-25.09,241.91,241.91,0,0,0,6.21-26.16c3.23-17.75,4.78-35.72,5.85-53.71,1.1-18.44,1.8-36.9,3.52-55.3,1.75-18.56,4.54-37.11,9.84-55s13.43-34.53,21.8-51.07c1-2,1.68-4.1,2.54-6.13C257.38,139.56,254.15,137.72,253.14,139.31Z" style="fill:#37474f"></path><path d="M279.49,162.3A89.56,89.56,0,0,1,289.61,165c8.69,3.32,14.95,11.19,18.82,19.64.4-2.84.8-5.76.13-8.55s-2.68-5.46-5.49-6c2.58-2.32,3.12-6.33,2-9.6a17,17,0,0,0-6.54-7.86,32,32,0,0,0-28.95-3.79C255,154,272.61,160.6,279.49,162.3Z" style="fill:#455a64"></path><path d="M250.56,168c4.07,5.82,13.45,7.08,15.73,13.81a13.85,13.85,0,0,0-.22-10.81c3.44,3.49,5.21,8.24,7.64,12.5s6.12,8.38,11,8.9c-2.21-1.57-4.46-3.27-5.74-5.66-1.94-3.65-1.25-8.05-1.41-12.18-.44-10.6-7.7-20.49-17.4-24.61C248.11,144.88,244.55,159.44,250.56,168Z" style="fill:#455a64"></path><path d="M222,137.11c-2.43-2.07-4.39-4.63-6.72-6.81a14.34,14.34,0,0,0-7.63-4.16,18.35,18.35,0,0,1-7.92-2.44,49.31,49.31,0,0,1-6.37-5,30.47,30.47,0,0,0,7.74,2.82c3.48.63,6.56-.65,10-.83a28.52,28.52,0,0,1,9.6.91,25.84,25.84,0,0,1,14.91,11.21,16.9,16.9,0,0,1,2.34,6.08c.43,2.81.28,3.83-2.63,3.62A23.09,23.09,0,0,1,222,137.11Z" style="fill:#455a64"></path><path d="M229.22,160.15a50.94,50.94,0,0,1-9-2.08c-3.59-1.17-7.1-2.82-10.87-3s-8,1.69-9,5.31a12.14,12.14,0,0,1,5.57-8.62,11.73,11.73,0,0,1,10.35-.68c1.41-3.77,5.26-6.19,9.21-7,7.29-1.48,13.72,1.06,20,4.53,7.37,4.07,2.19,9-3.59,10.82A29.41,29.41,0,0,1,229.22,160.15Z" style="fill:#455a64"></path><path d="M233.85,132.36c-1.57,3.78-2.78,8-1.64,11.93a12,12,0,0,0,7.93,7.81c.91.29,2,.6,2.31,1.5a3.69,3.69,0,0,1,.09,1.37c-.08,3.51,3,6.42,6.39,7.4a6.54,6.54,0,0,0,3.16.24,3.44,3.44,0,0,0,2.47-1.85c.73.91,0,2.47.8,3.33a2.29,2.29,0,0,0,.82.5,19.8,19.8,0,0,0,8.55,1.11c3.3-.19,6.77-.89,9.2-3.12a12.32,12.32,0,0,0,3.44-6.53,8.15,8.15,0,0,0,.12-3.83c-.41-1.58-1.54-2.86-2.32-4.29a16.25,16.25,0,0,0-1.88-3.27,8.32,8.32,0,0,0-2-1.48A85.43,85.43,0,0,0,260.24,138a104.72,104.72,0,0,0-13.8-4.88c-4.33-1.09-9.07-1.6-13.12.28" style="fill:#D30E45"></path><path d="M233.85,132.36c-1.57,3.78-2.78,8-1.64,11.93a12,12,0,0,0,7.93,7.81c.91.29,2,.6,2.31,1.5a3.69,3.69,0,0,1,.09,1.37c-.08,3.51,3,6.42,6.39,7.4a6.54,6.54,0,0,0,3.16.24,3.44,3.44,0,0,0,2.47-1.85c.73.91,0,2.47.8,3.33a2.29,2.29,0,0,0,.82.5,19.8,19.8,0,0,0,8.55,1.11c3.3-.19,6.77-.89,9.2-3.12a12.32,12.32,0,0,0,3.44-6.53,8.15,8.15,0,0,0,.12-3.83c-.41-1.58-1.54-2.86-2.32-4.29a16.25,16.25,0,0,0-1.88-3.27,8.32,8.32,0,0,0-2-1.48A85.43,85.43,0,0,0,260.24,138a104.72,104.72,0,0,0-13.8-4.88c-4.33-1.09-9.07-1.6-13.12.28" style="opacity:0.15"></path><path d="M275.58,160.57a12,12,0,0,0,1.16-2.39,7.26,7.26,0,0,0-3.82-1.21c-5.53-.3-10.15,0-9.91-7.07,0-.22,0-.52-.26-.61-.9-.33-.82,0-1.88,0-2.5,0-5.14.19-7.33-1.37-1.25-.9-1.79-4-3.34-4.39-.83-.2-1.1.32-1.79.65-2.39,1.16-4.89,1.84-7.48.54-3.2-1.62-4.48-5.08-8.24-5.37-.35,0-.89.47-.39.7,2.76,1.27,4.36,4.69,7,6.35a13.84,13.84,0,0,0,6.28,2,6.85,6.85,0,0,0,4.49-.82,6.8,6.8,0,0,0,3.56,3.78,8.22,8.22,0,0,0,3.19.74,9.58,9.58,0,0,0,2.68-.11,9.52,9.52,0,0,0,.69,2.26,6.47,6.47,0,0,0,1.83,2,14,14,0,0,0,6.95,2.8A26.5,26.5,0,0,1,275.58,160.57Z" style="fill:#D30E45"></path><path d="M275.58,160.57a12,12,0,0,0,1.16-2.39,7.26,7.26,0,0,0-3.82-1.21c-5.53-.3-10.15,0-9.91-7.07,0-.22,0-.52-.26-.61-.9-.33-.82,0-1.88,0-2.5,0-5.14.19-7.33-1.37-1.25-.9-1.79-4-3.34-4.39-.83-.2-1.1.32-1.79.65-2.39,1.16-4.89,1.84-7.48.54-3.2-1.62-4.48-5.08-8.24-5.37-.35,0-.89.47-.39.7,2.76,1.27,4.36,4.69,7,6.35a13.84,13.84,0,0,0,6.28,2,6.85,6.85,0,0,0,4.49-.82,6.8,6.8,0,0,0,3.56,3.78,8.22,8.22,0,0,0,3.19.74,9.58,9.58,0,0,0,2.68-.11,9.52,9.52,0,0,0,.69,2.26,6.47,6.47,0,0,0,1.83,2,14,14,0,0,0,6.95,2.8A26.5,26.5,0,0,1,275.58,160.57Z" style="opacity:0.30000000000000004"></path><path d="M253.66,158.87c-.3,0-.5.34-.7.57a3.3,3.3,0,0,1-2.34,1,6.5,6.5,0,0,1-3.36-.86c-2.06-1.27-2.53-2.66-2.88-4.87a5.5,5.5,0,0,0-1.18-3.28c-1.81-2-4.7-1.75-6.92-3.1a13.71,13.71,0,0,1-4.3-5c.06.33.14.66.23,1a12,12,0,0,0,7.93,7.81c.91.29,2,.6,2.31,1.5a3.69,3.69,0,0,1,.09,1.37c-.08,3.51,3,6.42,6.39,7.4a6.54,6.54,0,0,0,3.16.24,3.44,3.44,0,0,0,2.47-1.85s0,0,0,0C254.71,160,254.63,158.69,253.66,158.87Z" style="fill:#D30E45"></path><path d="M217.56,114.44c0,2.67,1.83,5.09,2.76,7.53.43,1.13.3,2.6,1.09,3.6s2.22,1,3.21,1.86c1.29,1.1,1.38,2.11,1.55,3.84.32,3.09,1.39,6.89,3.91,8.89,1.76,1.39,4.18,2,5.87,3.34,2,1.6,3.17,2.43,5.84,2.61a12.65,12.65,0,0,0,5-.53,14.64,14.64,0,0,0,3.74-1.65l.43.65h0c.75.74,1.31,2.15,1.95,2.85,2.54,2.76,6,2.21,9.49,2.61a10.25,10.25,0,0,0,1.3,4.13c1.45,2.23,3.88,3.11,6.28,3.92s4.11,2.11,6.54,2.31l.64,0h.36l.39,0h0l.36,0,.39,0,.29,0a15.18,15.18,0,0,0,1.63-.33c.35-.09.7-.19,1-.3h0l.61-.19c.86-.28,1.7-.58,2.56-.84l.4-.12a15.46,15.46,0,0,1,1.84-.46l.33-.06.23,0,.34-.05h.1l.77-.06h.83c4.09.24,8.1,3.14,11.62-.55a17.61,17.61,0,0,0,4.78-10.94c0-1.62-.62-4.17-.1-5.65a1.49,1.49,0,0,1,.43-.73,7.56,7.56,0,0,1,1-.59c3.1-1.75,6.88-3.07,9.49-5.51,3.75-3.5,3.85-12.33.3-16,7.53-5.26.75-17-4.68-21.24-5.07-4-12-4.92-18.18-5.72,0,0-.52-.86-.74-1.29h0c-.93-1.9-2.62-3.27-3.85-5h0l0,0a8.54,8.54,0,0,1-.5-.82c-1.69-3.36-2.72-5.91-5.9-8.16A13.21,13.21,0,0,0,274,73.29c-1.86.25-4.23.24-5.88,1.23-1.31.79-1.32,1.72-2.14,2.9a9.63,9.63,0,0,0-9.71-1.58,17.68,17.68,0,0,0-2.14.92c-2.79-1.25-6,1.43-9,4.73a34,34,0,0,1-4,4.18c-1.69,1.13-3.5,1.46-5,3s-2.12,3.23-3.44,4.63h0c-.18.18-.36.36-.56.53-2.58,2.17-7.87,2.68-9.39,6-.74,1.6-.13,3.69-.66,5.35a7.61,7.61,0,0,1-2,2.55A11.3,11.3,0,0,0,217.56,114.44Z" style="fill:#D30E45"></path><g style="opacity:0.15"><path d="M240.15,144.37c-1.32-.77-2.37-1.93-3.68-2.69-1.51-.89-3.31-1-4.73-2.06-3.32-2.45-2.42-6.41-3.28-9.83a5.77,5.77,0,0,0-3-3.88,8.58,8.58,0,0,1-3.84-5.16,4.11,4.11,0,0,0-.15-.46c-.64-1.67-2.08-2.94-2.48-4.72-.5-2.28.89-4.41,2.21-6.14,1.52-2,2.71-2.77,2.63-5.42-.05-2-.5-3.71-.35-5.46a4.59,4.59,0,0,0-.83,1.2c-.74,1.6-.13,3.69-.66,5.35a7.61,7.61,0,0,1-2,2.55,11.3,11.3,0,0,0-2.45,6.79c0,2.67,1.83,5.09,2.76,7.52.43,1.14.3,2.61,1.09,3.61s2.23,1,3.21,1.86c1.29,1.1,1.38,2.11,1.55,3.84.32,3.09,1.39,6.89,3.91,8.89,1.76,1.39,4.18,2,5.87,3.34,2.56,2,3.7,2.81,8.29,2.63a10,10,0,0,0,2.58-.56c.72-.26,1.73-.57,2.62-1C247.31,145.2,243.33,146.24,240.15,144.37Z" style="fill:#fff"></path></g><path d="M245.47,134.54s-1.28-5.38-5.1-6.77-9.24-3.27-9-10.07-1.08-6.51-.39-9.36,4.2-4.26,4.2-4.26l12.38,28.07Z" style="fill:#D30E45"></path><path d="M245.47,134.54s-1.28-5.38-5.1-6.77-9.24-3.27-9-10.07-1.08-6.51-.39-9.36,4.2-4.26,4.2-4.26l12.38,28.07Z" style="opacity:0.15"></path><path d="M256.22,75.84a17.68,17.68,0,0,0-2.14.92c-1.6-1.47-4.8,0-6.27,1a18.27,18.27,0,0,0-4.15,4.44,19.42,19.42,0,0,1-2.54,2.59c-1.5,1.42-3.28,2.12-5,3.3a16.43,16.43,0,0,0-6.1,9.54,3.68,3.68,0,0,0-.12,1.19,4,4,0,0,0,.46,1.24,6.75,6.75,0,0,0,2.38,3.07c.26.15.55.29.65.57a1.11,1.11,0,0,1,0,.57,34.47,34.47,0,0,0-.57,3.62c-.35,3.32,2.06,5.62,2.77,8.66a16.68,16.68,0,0,0,2.84,6.39,9.81,9.81,0,0,0,5.77,3.78c-.48-.09.38-2.82.51-3.09a9.66,9.66,0,0,1,2-2.43c1.19-1.23,2.49-2.36,3.77-3.5l8.85-40Z" style="fill:#D30E45"></path><path d="M256.22,75.84a17.68,17.68,0,0,0-2.14.92c-1.6-1.47-4.8,0-6.27,1a18.27,18.27,0,0,0-4.15,4.44,19.42,19.42,0,0,1-2.54,2.59c-1.5,1.42-3.28,2.12-5,3.3a16.43,16.43,0,0,0-6.1,9.54,3.68,3.68,0,0,0-.12,1.19,4,4,0,0,0,.46,1.24,6.75,6.75,0,0,0,2.38,3.07c.26.15.55.29.65.57a1.11,1.11,0,0,1,0,.57,34.47,34.47,0,0,0-.57,3.62c-.35,3.32,2.06,5.62,2.77,8.66a16.68,16.68,0,0,0,2.84,6.39,9.81,9.81,0,0,0,5.77,3.78c-.48-.09.38-2.82.51-3.09a9.66,9.66,0,0,1,2-2.43c1.19-1.23,2.49-2.36,3.77-3.5l8.85-40Z" style="fill:#fff;opacity:0.2"></path><path d="M250.08,118.08c0-1.18-.56-1.73-.82-2.82a7.58,7.58,0,0,1,.07-3.25c.31-1.5.89-3,1.22-4.45a12.15,12.15,0,0,0-.21-6.25c-.53-1.72-1.49-3.27-2.16-4.94a7.59,7.59,0,0,1-.35-4.22c.37-2.7,1.12-5.86,3-7.91a1.29,1.29,0,0,0,0-1.74,2.63,2.63,0,0,1,.4-.28c.72-.37.74-2-.27-1.59-3.1,1.1-6.35,6.73-7.27,9.8a20.29,20.29,0,0,0-.46,9c.31,1.55,1,3,1.38,4.52.44,2.07,0,4-.23,6-.36,2.89.42,4.48,1.88,6.91s2.27,3.28-.38,4.86c-1.63,1-3.46,1.55-3.8,3.69a2.18,2.18,0,0,0,0,.57,8.57,8.57,0,0,0,2.15.75c-.48-.09.38-2.82.51-3.09a9.66,9.66,0,0,1,2-2.43c1.06-1.09,2.21-2.11,3.35-3.13Z" style="fill:#D30E45"></path><path d="M236.46,113.78a14.08,14.08,0,0,1-1.53-3,8,8,0,0,1,.17-3.43c.17-1,.43-2-.27-2.79a6.08,6.08,0,0,0-1.73-1.22.82.82,0,0,1,.32.37,1.11,1.11,0,0,1,0,.57,34.47,34.47,0,0,0-.57,3.62c-.35,3.32,2.06,5.62,2.77,8.66a16.68,16.68,0,0,0,2.84,6.39,11,11,0,0,0,2.57,2.43c-.51-.86-1.14-1.65-1.62-2.52C237.86,120.07,238,116.6,236.46,113.78Zm11.35-36a18.27,18.27,0,0,0-4.15,4.44,19.42,19.42,0,0,1-2.54,2.59c-1.5,1.42-3.28,2.12-5,3.3a16.43,16.43,0,0,0-6.1,9.54,3.68,3.68,0,0,0-.12,1.19,4,4,0,0,0,.46,1.24,13.43,13.43,0,0,0,.79,1.44,5.06,5.06,0,0,1-.2-2.29,12.18,12.18,0,0,1,3.6-8c1.93-1.72,4.49-2.24,6.52-3.74A14.53,14.53,0,0,0,245.2,82a20.2,20.2,0,0,1,3.47-4.76A8.07,8.07,0,0,0,247.81,77.78Z" style="fill:#D30E45"></path><path d="M236.46,113.78a14.08,14.08,0,0,1-1.53-3,8,8,0,0,1,.17-3.43c.17-1,.43-2-.27-2.79a6.08,6.08,0,0,0-1.73-1.22.82.82,0,0,1,.32.37,1.11,1.11,0,0,1,0,.57,34.47,34.47,0,0,0-.57,3.62c-.35,3.32,2.06,5.62,2.77,8.66a16.68,16.68,0,0,0,2.84,6.39,11,11,0,0,0,2.57,2.43c-.51-.86-1.14-1.65-1.62-2.52C237.86,120.07,238,116.6,236.46,113.78Zm11.35-36a18.27,18.27,0,0,0-4.15,4.44,19.42,19.42,0,0,1-2.54,2.59c-1.5,1.42-3.28,2.12-5,3.3a16.43,16.43,0,0,0-6.1,9.54,3.68,3.68,0,0,0-.12,1.19,4,4,0,0,0,.46,1.24,13.43,13.43,0,0,0,.79,1.44,5.06,5.06,0,0,1-.2-2.29,12.18,12.18,0,0,1,3.6-8c1.93-1.72,4.49-2.24,6.52-3.74A14.53,14.53,0,0,0,245.2,82a20.2,20.2,0,0,1,3.47-4.76A8.07,8.07,0,0,0,247.81,77.78Z" style="fill:#fff;opacity:0.6000000000000001"></path><path d="M277,138s5.1,2.39,9.5,4.51h0c4.4,2.11,11.79,2.72,19.5-1.81a1.49,1.49,0,0,1,.43-.73,7.56,7.56,0,0,1,1-.59c3.1-1.75,6.88-3.07,9.49-5.51,3.75-3.5,3.85-12.33.3-16,7.53-5.26.75-17-4.68-21.24-5.07-4-12-4.92-18.18-5.72l-1.2,17.85.78,13.11Z" style="fill:#D30E45"></path><path d="M314.32,100.35c3.36,3.63,7.3,11.45,2.58,15.4a1.26,1.26,0,0,0,.33,2.07c7.48-5.28.71-17-4.71-21.22-3.94-3.09-9-4.35-14-5.13,3,.93,7,2.2,9.44,3.85A36.64,36.64,0,0,1,314.32,100.35Zm4.23,19.5c.6,2.71.87,6.76-.76,10.05-2.12,4.29-5.7,4.55-9.62,6.42-3.7,1.77-6.88,4.81-11,5.67a22.37,22.37,0,0,1-13.4-1.9c-.41-.19-1.13.23-1,.68l3.69,1.76h0c4.4,2.11,11.79,2.72,19.5-1.81a1.49,1.49,0,0,1,.43-.73,7.56,7.56,0,0,1,1-.59c3.1-1.75,6.88-3.07,9.5-5.51C320.08,130.91,320.62,124.11,318.55,119.85Z" style="fill:#fff;opacity:0.15"></path><path d="M294.34,90.88s4.51,2,4.47,6.3,3.12,4.29,5.69,7.36,5.36,9.1,3.46,13.69,3.64,6.6,2.53,8.16-4.76,1.32-6.85,4.21-2.37,4.64-9.33,6.32S276.4,138,276.4,138l17.94-47.1" style="fill:#D30E45"></path><path d="M294.34,90.88s4.51,2,4.47,6.3,3.12,4.29,5.69,7.36,5.36,9.1,3.46,13.69,3.64,6.6,2.53,8.16-4.76,1.32-6.85,4.21-2.37,4.64-9.33,6.32S276.4,138,276.4,138l17.94-47.1" style="opacity:0.15"></path><path d="M293.81,123.38c0,.13-2,6.64-2.59,10.05-.77,4.49-2.54,7.21-7.06,10.87-12,9.69-21.57-5.38-21.57-5.38a5.74,5.74,0,0,1,6.73-4.55C275.08,135.13,293.81,123.38,293.81,123.38Z" style="fill:#D30E45"></path><path d="M293.81,123.38c0,.13-2,6.64-2.59,10.05-.77,4.49-2.54,7.21-7.06,10.87-12,9.69-21.57-5.38-21.57-5.38a5.74,5.74,0,0,1,6.73-4.55C275.08,135.13,293.81,123.38,293.81,123.38Z" style="opacity:0.25"></path><path d="M257,109.42a4.28,4.28,0,0,1-.9,1.48c-.59.55-3,3.08-2.5,5.13s.74,17.88,9,22.89c0,0,1-3,2.52-3.7,4.53-2.11,14-3.77,17.56-3.54.5,0,4.24-5.6,4.24-5.6s-6-1.44-8.2-.65-14.68-1.8-15.52-5.65-2.47-7.65-3.27-8.62A8.3,8.3,0,0,0,257,109.42Z" style="fill:#D30E45"></path><path d="M257,109.42a4.28,4.28,0,0,1-.9,1.48c-.59.55-3,3.08-2.5,5.13s.74,17.88,9,22.89c0,0,1-3,2.52-3.7,4.53-2.11,14-3.77,17.56-3.54.5,0,4.24-5.6,4.24-5.6s-6-1.44-8.2-.65-14.68-1.8-15.52-5.65-2.47-7.65-3.27-8.62A8.3,8.3,0,0,0,257,109.42Z" style="opacity:0.15"></path><path d="M247.12,94.66c-.12,5.15,2.69,5,2.09,8.71h0c0,.19-.06.39-.11.6-.1.41-.23.87-.41,1.39a17,17,0,0,0,0,11,14.85,14.85,0,0,0,4.57-2.57c.39-2.24,1.21-4.06,1.86-6.72,0,0-.24-1.4-.24-1.4,1-4.29,1.15-7.34,2.22-9.91,1.17-2.8,5.19-9.2,9.82-10.53a88.47,88.47,0,0,0,9-2.83c2.07-.88,4.76,1.73,6.8,1.37,3.61-.66,6.68.49,7,.83a8.54,8.54,0,0,1-.5-.82c-1.69-3.36-2.72-5.91-5.9-8.16A13.21,13.21,0,0,0,274,73.29c-1.86.25-4.23.24-5.88,1.23-1.31.79-1.32,1.72-2.14,2.9-3.88-3-7.63-2.78-11.85-.66a21.87,21.87,0,0,0-4.82,6.45h0C247.43,87.06,247.22,90.85,247.12,94.66Z" style="fill:#D30E45"></path><path d="M289.23,83.76c-1.69-3.36-2.72-5.91-5.9-8.16A13.21,13.21,0,0,0,274,73.29a29.78,29.78,0,0,0-4.58.67,34,34,0,0,1,4.24-.42,16.23,16.23,0,0,1,6.75,1.55c3.45,1.79,6.15,5.78,8.5,9.07a2.39,2.39,0,0,1,.87.42A8.54,8.54,0,0,1,289.23,83.76Zm-23.3-6.34c-3.88-3-7.63-2.78-11.85-.66a21.87,21.87,0,0,0-4.82,6.45h0c-1.83,3.84-2,7.63-2.14,11.44-.12,5.15,2.69,5,2.09,8.71h0c0,.19-.06.39-.11.6-.1.41-.23.87-.41,1.39a17,17,0,0,0,0,11l.73-.28c-1.23-3.5.15-8.1,1.13-11.29a8.41,8.41,0,0,0,.35-5c-.55-1.85-1.61-2.16-2.09-4-1-3.88.81-10.69,2.8-13.85a15.6,15.6,0,0,1,3.06-4,5.84,5.84,0,0,1,2.54-1.09c3.12-.62,6.07.54,8.74,2.07.06,0,.16.06.19,0a.07.07,0,0,0,0-.06,3.67,3.67,0,0,0-.22-1.44Z" style="fill:#D30E45"></path><path d="M289.23,83.76c-1.69-3.36-2.72-5.91-5.9-8.16A13.21,13.21,0,0,0,274,73.29a29.78,29.78,0,0,0-4.58.67,34,34,0,0,1,4.24-.42,16.23,16.23,0,0,1,6.75,1.55c3.45,1.79,6.15,5.78,8.5,9.07a2.39,2.39,0,0,1,.87.42A8.54,8.54,0,0,1,289.23,83.76Zm-23.3-6.34c-3.88-3-7.63-2.78-11.85-.66a21.87,21.87,0,0,0-4.82,6.45h0c-1.83,3.84-2,7.63-2.14,11.44-.12,5.15,2.69,5,2.09,8.71h0c0,.19-.06.39-.11.6-.1.41-.23.87-.41,1.39a17,17,0,0,0,0,11l.73-.28c-1.23-3.5.15-8.1,1.13-11.29a8.41,8.41,0,0,0,.35-5c-.55-1.85-1.61-2.16-2.09-4-1-3.88.81-10.69,2.8-13.85a15.6,15.6,0,0,1,3.06-4,5.84,5.84,0,0,1,2.54-1.09c3.12-.62,6.07.54,8.74,2.07.06,0,.16.06.19,0a.07.07,0,0,0,0-.06,3.67,3.67,0,0,0-.22-1.44Z" style="fill:#fff;opacity:0.4"></path><path d="M249.21,103.37a18,18,0,0,0,3.24-7.22c1.22-5-5.77-5.88-3.19-12.93-1.83,3.84-2,7.63-2.14,11.44-.11,4.82,2.35,5,2.16,8C249.27,102.92,249.24,103.14,249.21,103.37Zm.77,7.12c-1.74-.72-1.18-4.93-.89-6.52a13.62,13.62,0,0,1-.41,1.39,17,17,0,0,0,0,11l.48-.19a10.36,10.36,0,0,0,3.92-3.43,51.47,51.47,0,0,0,1.1-6.59C254,106.73,252,111.34,250,110.49Z" style="fill:#D30E45"></path><path d="M249.21,103.37a18,18,0,0,0,3.24-7.22c1.22-5-5.77-5.88-3.19-12.93-1.83,3.84-2,7.63-2.14,11.44-.11,4.82,2.35,5,2.16,8C249.27,102.92,249.24,103.14,249.21,103.37Zm.77,7.12c-1.74-.72-1.18-4.93-.89-6.52a13.62,13.62,0,0,1-.41,1.39,17,17,0,0,0,0,11l.48-.19a10.36,10.36,0,0,0,3.92-3.43,51.47,51.47,0,0,0,1.1-6.59C254,106.73,252,111.34,250,110.49Z" style="opacity:0.15"></path><path d="M296.42,105.27a16.68,16.68,0,0,1,4.12,4.62,11.4,11.4,0,0,1,1.13,4.23,10.36,10.36,0,0,1-.85,5.4c-.94,2.28-2.32,4.36-3.18,6.67-.62,1.68-1,3.59-2.46,4.67s-3.64,1-5.3,1.9c-2.2,1.2-3.35,4.12-5.81,4.6-1.24.25-2.51-.21-3.77-.21a15,15,0,0,0-4.07.95,10.8,10.8,0,0,1-5,.39,6.66,6.66,0,0,1-3.1-1.44c-.81-.68-1.55-2.22-2.83-1.44s-1.93,4.29-1.93,4.29l-.8-1s.34-4,3.84-5,5.77-1,9.76-2.25,7.89-2.88,10.72-5.59a9.92,9.92,0,0,0,3.16-8.69s2.13-4.46,4-8.15A6.91,6.91,0,0,0,296.42,105.27Z" style="fill:#D30E45"></path><path d="M301.67,114.12a8.93,8.93,0,0,0-1.87-5.35c2.83,6-1,10.49-3,14.83-1.1,2.4-1,5.82-3.87,7-1.54.63-2.91.2-4.22,1.44s-2.19,2.73-3.75,3.65c-2,1.19-4.42.56-6.62,1a30.69,30.69,0,0,0-3.44,1,7.88,7.88,0,0,1-6.76-.57,6.66,6.66,0,0,0,3.1,1.44,10.8,10.8,0,0,0,5-.39,15,15,0,0,1,4.07-.95c1.26,0,2.53.46,3.77.21,2.46-.48,3.61-3.4,5.81-4.6,1.66-.9,3.8-.75,5.3-1.9s1.84-3,2.46-4.67c.86-2.31,2.24-4.39,3.18-6.67A10.36,10.36,0,0,0,301.67,114.12Z" style="fill:#fff;opacity:0.15"></path><path d="M252.7,113.2h0l42.75-5.35c2.41-2.11,0-13.5-1.11-17a13.14,13.14,0,0,0-3.62-5.7,19.59,19.59,0,0,0-4.37-2.74,5.73,5.73,0,0,0-1.53-.6,3.85,3.85,0,0,0-3.46,1.6A3.88,3.88,0,0,0,280,81.68a5.1,5.1,0,0,0-2.54-.33,33.14,33.14,0,0,0-5.05.78l-1.16.26c-9.95,2.23-16.65,14.4-16.86,21.33S252.7,113.2,252.7,113.2Z" style="fill:#D30E45"></path><path d="M252.7,113.2h0l42.75-5.35c2.41-2.11,0-13.5-1.11-17a13.14,13.14,0,0,0-3.62-5.7,19.59,19.59,0,0,0-4.37-2.74,5.73,5.73,0,0,0-1.53-.6,3.85,3.85,0,0,0-3.46,1.6A3.88,3.88,0,0,0,280,81.68a5.1,5.1,0,0,0-2.54-.33,33.14,33.14,0,0,0-5.05.78l-1.16.26c-9.95,2.23-16.65,14.4-16.86,21.33S252.7,113.2,252.7,113.2Z" style="fill:#fff;opacity:0.2"></path><path d="M253,113.16l39.78-5,2.69-.51c.86-9-9.22-9.32-9.22-9.32-.93-4.86-5-6.77-11.8-8.48s-10.3,5-10.3,5c.25-5.4,6.62-11.45,8-12.67l-.91.2C261.57,84.55,255,96,254.38,103l0,.52c0,.5,0,1-.06,1.42-.28,5.13-1.25,7.51-1.52,8.09Z" style="fill:#D30E45"></path><path d="M294.34,90.88a13.14,13.14,0,0,0-3.62-5.7,19.59,19.59,0,0,0-4.37-2.74,5.73,5.73,0,0,0-1.53-.6,3.85,3.85,0,0,0-3.46,1.6A3.88,3.88,0,0,0,280,81.68a5.1,5.1,0,0,0-2.54-.33,33.14,33.14,0,0,0-5.05.78l-1.16.26a19.91,19.91,0,0,0-10.64,7,36.5,36.5,0,0,1,4.24-3.3,22.29,22.29,0,0,1,2.11-1.23A28.84,28.84,0,0,1,272.2,83a11.47,11.47,0,0,1,4.88-.11,5.64,5.64,0,0,1,3.26,1.73,1.15,1.15,0,0,0,.4.36c.3.13.49-.07.67-.26a1.82,1.82,0,0,1,.66-.48,4.51,4.51,0,0,1,1.92-.37,11.6,11.6,0,0,1,5.76,1.81c4.92,3,5.47,10,6.52,14.59A57.27,57.27,0,0,0,294.34,90.88Z" style="fill:#D30E45"></path><path d="M294.34,90.88a13.14,13.14,0,0,0-3.62-5.7,19.59,19.59,0,0,0-4.37-2.74,5.73,5.73,0,0,0-1.53-.6,3.85,3.85,0,0,0-3.46,1.6A3.88,3.88,0,0,0,280,81.68a5.1,5.1,0,0,0-2.54-.33,33.14,33.14,0,0,0-5.05.78l-1.16.26a19.91,19.91,0,0,0-10.64,7,36.5,36.5,0,0,1,4.24-3.3,22.29,22.29,0,0,1,2.11-1.23A28.84,28.84,0,0,1,272.2,83a11.47,11.47,0,0,1,4.88-.11,5.64,5.64,0,0,1,3.26,1.73,1.15,1.15,0,0,0,.4.36c.3.13.49-.07.67-.26a1.82,1.82,0,0,1,.66-.48,4.51,4.51,0,0,1,1.92-.37,11.6,11.6,0,0,1,5.76,1.81c4.92,3,5.47,10,6.52,14.59A57.27,57.27,0,0,0,294.34,90.88Z" style="fill:#fff;opacity:0.6000000000000001"></path><path d="M243.7,125.21s-1.74,3.29.59,8.12A93.11,93.11,0,0,0,251,144.58h0c.75.74,1.31,2.15,1.95,2.85,2.54,2.76,6,2.21,9.49,2.61a10.25,10.25,0,0,0,1.3,4.13c1.45,2.23,3.88,3.11,6.28,3.92s4.11,2.11,6.54,2.31l.64,0h.36l.39,0h0l.36,0,.39,0,.29,0a15.18,15.18,0,0,0,1.63-.33c.35-.09.7-.19,1-.3h0l.61-.19c.86-.28,1.7-.58,2.56-.84l.4-.12a15.46,15.46,0,0,1,1.84-.46l.33-.06.23,0,.34-.05h.1l.77-.06h.83c4.09.24,8.1,3.14,11.62-.55a17.61,17.61,0,0,0,4.78-10.94c0-1.62-.62-4.17-.1-5.65a1.49,1.49,0,0,1,.43-.73h0s-5.65,3.79-11.57,3.65c-5.6-.14-8.11-1-8.36-1.11h0a13.53,13.53,0,0,1-8,3.71c-.21,0-.41,0-.62,0-5.32.28-13-3.14-17.85-10.53s-4.47-22.93-4.47-22.93c-4.3-.88-11.16,2.94-12.33,8.19C242.45,124.47,243.7,125.21,243.7,125.21Z" style="fill:#D30E45"></path><path d="M243.7,125.21s-1.74,3.29.59,8.12A93.11,93.11,0,0,0,251,144.58h0c.75.74,1.31,2.15,1.95,2.85,2.54,2.76,6,2.21,9.49,2.61a10.25,10.25,0,0,0,1.3,4.13c1.45,2.23,3.88,3.11,6.28,3.92s4.11,2.11,6.54,2.31l.64,0h.36l.39,0h0l.36,0,.39,0,.29,0a15.18,15.18,0,0,0,1.63-.33c.35-.09.7-.19,1-.3h0l.61-.19c.86-.28,1.7-.58,2.56-.84l.4-.12a15.46,15.46,0,0,1,1.84-.46l.33-.06.23,0,.34-.05h.1l.77-.06h.83c4.09.24,8.1,3.14,11.62-.55a17.61,17.61,0,0,0,4.78-10.94c0-1.62-.62-4.17-.1-5.65a1.49,1.49,0,0,1,.43-.73h0s-5.65,3.79-11.57,3.65c-5.6-.14-8.11-1-8.36-1.11h0a13.53,13.53,0,0,1-8,3.71c-.21,0-.41,0-.62,0-5.32.28-13-3.14-17.85-10.53s-4.47-22.93-4.47-22.93c-4.3-.88-11.16,2.94-12.33,8.19C242.45,124.47,243.7,125.21,243.7,125.21Z" style="fill:#fff;opacity:0.1"></path><path d="M292.38,148c-2.39-2-6.41-3-9.9-2.83a13.31,13.31,0,0,1-2.63.84,23.73,23.73,0,0,1,8.47,1.86c1,.4,4.08,1.86,4.22,3.42.18,2-2.53,1.63-3.77,1.94-2.33.59-3.95,2.39-5.83,3.79-1.42,1.06-3.05,2.47-4.83,2.87a12.35,12.35,0,0,1-4-.08,8.88,8.88,0,0,0,2.44.58l.64,0h.36l.39,0h0l.36,0,.39,0,.29,0a15.18,15.18,0,0,0,1.63-.33c.35-.09.7-.19,1-.3h0l.61-.19.69-.23c1.35-1,2.6-2,4-2.92,1.83-1.21,4.06-.75,5.87-1.83C295.51,152.91,294.4,149.71,292.38,148Z" style="fill:#D30E45"></path><path d="M257.92,149.58a10.16,10.16,0,0,1-1.92-.74c-2.5-1.4-3.29-4.39-4.64-6.71-.6-1-1.24-2.09-1.91-3.08q-1.72-2.53-3.31-5.16c-1-1.66-2-3.5-1.79-5.42a7.87,7.87,0,0,1,.27-1.28,16.8,16.8,0,0,0,.75-2.2,3.55,3.55,0,0,0-.58-1.88,3.57,3.57,0,0,1-.16-2.61,5.54,5.54,0,0,1,.86-1.56,12,12,0,0,1,1.59-1.74,25.54,25.54,0,0,1,8.47-4.37h0c-4.3-.88-11.16,2.94-12.33,8.19-.77,3.45.48,4.19.48,4.19s-1.74,3.29.59,8.12A93.11,93.11,0,0,0,251,144.58h0c.75.74,1.31,2.15,1.95,2.85a7.91,7.91,0,0,0,5.56,2.33Z" style="fill:#D30E45"></path><g style="opacity:0.2"><path d="M292.38,148c-2.39-2-6.41-3-9.9-2.83a13.31,13.31,0,0,1-2.63.84,23.73,23.73,0,0,1,8.47,1.86c1,.4,4.08,1.86,4.22,3.42.18,2-2.53,1.63-3.77,1.94-2.33.59-3.95,2.39-5.83,3.79-1.42,1.06-3.05,2.47-4.83,2.87a12.35,12.35,0,0,1-4-.08,8.88,8.88,0,0,0,2.44.58l.64,0h.36l.39,0h0l.36,0,.39,0,.29,0a15.18,15.18,0,0,0,1.63-.33c.35-.09.7-.19,1-.3h0l.61-.19.69-.23c1.35-1,2.6-2,4-2.92,1.83-1.21,4.06-.75,5.87-1.83C295.51,152.91,294.4,149.71,292.38,148Z" style="fill:#fff"></path><path d="M257.92,149.58a10.16,10.16,0,0,1-1.92-.74c-2.5-1.4-3.29-4.39-4.64-6.71-.6-1-1.24-2.09-1.91-3.08q-1.72-2.53-3.31-5.16c-1-1.66-2-3.5-1.79-5.42a7.87,7.87,0,0,1,.27-1.28,16.8,16.8,0,0,0,.75-2.2,3.55,3.55,0,0,0-.58-1.88,3.57,3.57,0,0,1-.16-2.61,5.54,5.54,0,0,1,.86-1.56,12,12,0,0,1,1.59-1.74,25.54,25.54,0,0,1,8.47-4.37h0c-4.3-.88-11.16,2.94-12.33,8.19-.77,3.45.48,4.19.48,4.19s-1.74,3.29.59,8.12A93.11,93.11,0,0,0,251,144.58h0c.75.74,1.31,2.15,1.95,2.85a7.91,7.91,0,0,0,5.56,2.33Z" style="fill:#fff"></path></g><path d="M291,154.23c-3.9.25-8.76,5.52-13,6.18l.36,0,.39,0,.29,0a15.18,15.18,0,0,0,1.63-.33c.35-.09.7-.19,1-.3h0l.61-.19c.86-.28,1.7-.58,2.56-.84l.4-.12a15.46,15.46,0,0,1,1.84-.46l.33-.06.23,0,.34-.05h.1l.77-.06h.83c4.09.24,8.1,3.14,11.62-.55a17.61,17.61,0,0,0,4.78-10.94c0-1.62-.62-4.17-.1-5.65a1.49,1.49,0,0,1,.43-.73h0s-5.65,3.79-11.57,3.65c-5.6-.14-8.11-1-8.36-1.11l-.18-.08a21.61,21.61,0,0,1-7.8,3.79c2.82,0,7.91.25,11.39,1.61C294.92,149.83,294.89,154,291,154.23Z" style="fill:#D30E45"></path><path d="M291,154.23c-3.9.25-8.76,5.52-13,6.18l.36,0,.39,0,.29,0a15.18,15.18,0,0,0,1.63-.33c.35-.09.7-.19,1-.3h0l.61-.19c.86-.28,1.7-.58,2.56-.84l.4-.12a15.46,15.46,0,0,1,1.84-.46l.33-.06.23,0,.34-.05h.1l.77-.06h.83c4.09.24,8.1,3.14,11.62-.55a17.61,17.61,0,0,0,4.78-10.94c0-1.62-.62-4.17-.1-5.65a1.49,1.49,0,0,1,.43-.73h0s-5.65,3.79-11.57,3.65c-5.6-.14-8.11-1-8.36-1.11l-.18-.08a21.61,21.61,0,0,1-7.8,3.79c2.82,0,7.91.25,11.39,1.61C294.92,149.83,294.89,154,291,154.23Z" style="opacity:0.15"></path><path d="M300.24,158.2c-4,.49-9.17-2.36-12.65-2.31a7.65,7.65,0,0,0-1.1.09c-2.83,1.68-5.81,4-8.55,4.43l.36,0,.39,0,.29,0a15.18,15.18,0,0,0,1.63-.33c.35-.09.7-.19,1-.3h0l.61-.19c.86-.28,1.7-.58,2.56-.84l.4-.12.31-.09.46-.13c.36-.09.72-.18,1.07-.24l.33-.06.23,0,.34-.05h.1l.77-.06h.83C293.36,158.08,297,160.44,300.24,158.2Z" style="fill:#D30E45"></path><path d="M262.09,94.73s-3.14-.88-4.27,1.06a24.85,24.85,0,0,0-1.4,3.19c-.47.81.21,2-.16,2.43a4.88,4.88,0,0,0-.36,3.42c.4,1.12-.23,1.84.38,3.31a6.7,6.7,0,0,0,3.17,3.4c2,.82-3.48,11.38-.61,15.86s15.93,3,20.14.34,7.4-1.19,7.4-1.19l.53-.47s-3.59-1.59-5.69-1.64a14.83,14.83,0,0,1-8.51-4,28.54,28.54,0,0,0-7.19-4.67,7.62,7.62,0,0,1-3.8-4C261.09,109.72,262.09,94.73,262.09,94.73Z" style="fill:#D30E45"></path><path d="M257.6,95.59a5.9,5.9,0,0,0-1.52,3.23c-.09.53-.06,1.07-.13,1.61a6.55,6.55,0,0,1-.54,1.5c-.48,1.19.1,2.47.26,3.66a3.13,3.13,0,0,1-.24,1.84,1.6,1.6,0,0,0-.11,1.54,8.15,8.15,0,0,0,3.36,2.85l.3.18a6.52,6.52,0,0,1,2.49,2.37,4,4,0,0,1,.21,2.11,5.58,5.58,0,0,0,2.47,4.82c3.55,2.76,8.07,1,10.05,2.67,3.19,2.7,8.55.69,11.94,1.79a17.35,17.35,0,0,0-4.92-1.32,14.83,14.83,0,0,1-8.51-4,28.54,28.54,0,0,0-7.19-4.67,7,7,0,0,1-3.37-4c-.63-2,.2-17,.14-17a8.64,8.64,0,0,0-2.16-.32,3.82,3.82,0,0,0-2.23.89A2.68,2.68,0,0,0,257.6,95.59Z" style="fill:#D30E45"></path><g style="opacity:0.6000000000000001"><path d="M257.6,95.59a5.9,5.9,0,0,0-1.52,3.23c-.09.53-.06,1.07-.13,1.61a6.55,6.55,0,0,1-.54,1.5c-.48,1.19.1,2.47.26,3.66a3.13,3.13,0,0,1-.24,1.84,1.6,1.6,0,0,0-.11,1.54,8.15,8.15,0,0,0,3.36,2.85l.3.18a6.52,6.52,0,0,1,2.49,2.37,4,4,0,0,1,.21,2.11,5.58,5.58,0,0,0,2.47,4.82c3.55,2.76,8.07,1,10.05,2.67,3.19,2.7,8.55.69,11.94,1.79a17.35,17.35,0,0,0-4.92-1.32,14.83,14.83,0,0,1-8.51-4,28.54,28.54,0,0,0-7.19-4.67,7,7,0,0,1-3.37-4c-.63-2,.2-17,.14-17a8.64,8.64,0,0,0-2.16-.32,3.82,3.82,0,0,0-2.23.89A2.68,2.68,0,0,0,257.6,95.59Z" style="fill:#fff"></path></g><path d="M261.72,111.7a12.47,12.47,0,0,0-2.15-1.83,6,6,0,0,1-2-1.54,4.1,4.1,0,0,1-.48-2c-.11-1.41-.63-2.83-.36-4.25.39-2,1.23-7.07,4.7-7.34s3.34,1.57,3.34,1.57Z" style="fill:#D30E45"></path><path d="M261.72,111.7a12.47,12.47,0,0,0-2.15-1.83,6,6,0,0,1-2-1.54,4.1,4.1,0,0,1-.48-2c-.11-1.41-.63-2.83-.36-4.25.39-2,1.23-7.07,4.7-7.34s3.34,1.57,3.34,1.57Z" style="opacity:0.15"></path><path d="M265.22,115.73a7.51,7.51,0,0,0-1.61-2.56c-.44-.43-.69.62-1.1.13a9.35,9.35,0,0,1-1.24-3,22.48,22.48,0,0,0-.79-3.64,15.47,15.47,0,0,1-.75-2.27,5.51,5.51,0,0,1,1.92-4.56,5.16,5.16,0,0,0,1.12-1.31c.18-.37.25-.79.41-1.17a5,5,0,0,1,1.1-1.42l3.28-3.3a1.44,1.44,0,0,1,.33-.27,1.5,1.5,0,0,1,.56-.09c2.54,0,5.28,0,7.33,1.54a1.72,1.72,0,0,0,.37.22,1.51,1.51,0,0,0,.7,0,5.66,5.66,0,0,1,6.27,3.7,8.63,8.63,0,0,1,.36,1.75c.06.37.19,1-.05,1.36S265.22,115.73,265.22,115.73Z" style="fill:#D30E45"></path><path d="M265.22,115.73a7.51,7.51,0,0,0-1.61-2.56c-.44-.43-.69.62-1.1.13a9.35,9.35,0,0,1-1.24-3,22.48,22.48,0,0,0-.79-3.64,15.47,15.47,0,0,1-.75-2.27,5.51,5.51,0,0,1,1.92-4.56,5.16,5.16,0,0,0,1.12-1.31c.18-.37.25-.79.41-1.17a5,5,0,0,1,1.1-1.42l3.28-3.3a1.44,1.44,0,0,1,.33-.27,1.5,1.5,0,0,1,.56-.09c2.54,0,5.28,0,7.33,1.54a1.72,1.72,0,0,0,.37.22,1.51,1.51,0,0,0,.7,0,5.66,5.66,0,0,1,6.27,3.7,8.63,8.63,0,0,1,.36,1.75c.06.37.19,1-.05,1.36S265.22,115.73,265.22,115.73Z" style="fill:#fff;opacity:0.4"></path><path d="M283.43,100.8a8.39,8.39,0,0,0-5.56-5.59c-4.51-1.39-8.72-1.13-9.85-.09s-1.48,4.43-3.22,5-2.68,2.46-3.2,4.07a7.11,7.11,0,0,0-.26,3.83c.75,3.93,3.38,4.71,4.29,7.37Z" style="fill:#D30E45"></path><path d="M283.43,100.8a8.39,8.39,0,0,0-5.56-5.59c-4.51-1.39-8.72-1.13-9.85-.09s-1.48,4.43-3.22,5-2.68,2.46-3.2,4.07a7.11,7.11,0,0,0-.26,3.83c.75,3.93,3.38,4.71,4.29,7.37Z" style="opacity:0.15"></path><path d="M268.19,107.93a18.61,18.61,0,0,1-1.12,1.49c-.48.54-4.28,2.57-4.56,3.88.74,1.06,5.22,5.11,7.2,3.39,0,0-.45-2.29-.74-4.09S268.19,107.93,268.19,107.93Z" style="fill:#D30E45"></path><path d="M268.19,107.93a18.61,18.61,0,0,1-1.12,1.49c-.48.54-4.28,2.57-4.56,3.88.74,1.06,5.22,5.11,7.2,3.39,0,0-.45-2.29-.74-4.09S268.19,107.93,268.19,107.93Z" style="opacity:0.30000000000000004"></path><path d="M267.68,116.68a9.54,9.54,0,0,1-3.12-1.4,18.68,18.68,0,0,0,2.73,1.71c1.73.76,4.54,3.18,6.48,4.81a12,12,0,0,0,3.21,1.83h0l.82.3a9.7,9.7,0,0,0,2.75.53,10.22,10.22,0,0,1,4.79,1c1.91.85,1.81.09,1.81.09A15.54,15.54,0,0,1,285.7,119a3.47,3.47,0,0,0-1.28-.19c-2.49-.08-7.35.61-9,0A59.51,59.51,0,0,0,267.68,116.68Z" style="fill:#D30E45"></path><path d="M267.68,116.68a9.54,9.54,0,0,1-3.12-1.4,18.68,18.68,0,0,0,2.73,1.71c1.73.76,4.54,3.18,6.48,4.81a12,12,0,0,0,3.21,1.83h0l.82.3a9.7,9.7,0,0,0,2.75.53,10.22,10.22,0,0,1,4.79,1c1.91.85,1.81.09,1.81.09A15.54,15.54,0,0,1,285.7,119a3.47,3.47,0,0,0-1.28-.19c-2.49-.08-7.35.61-9,0A59.51,59.51,0,0,0,267.68,116.68Z" style="opacity:0.15"></path><path d="M277.84,123.94a9.7,9.7,0,0,0,2.75.53,10.22,10.22,0,0,1,4.79,1c1.91.85,1.81.09,1.81.09A15.54,15.54,0,0,1,285.7,119a3.47,3.47,0,0,0-1.28-.19,9.57,9.57,0,0,0-1.31,2.67C282.62,123,280,124.41,277.84,123.94Z" style="fill:#D30E45"></path><path d="M277.84,123.94a9.7,9.7,0,0,0,2.75.53,10.22,10.22,0,0,1,4.79,1c1.91.85,1.81.09,1.81.09A15.54,15.54,0,0,1,285.7,119a3.47,3.47,0,0,0-1.28-.19,9.57,9.57,0,0,0-1.31,2.67C282.62,123,280,124.41,277.84,123.94Z" style="opacity:0.30000000000000004"></path><path d="M263.24,114.12c.3.29,2.7,2.57,4.1,2.74a28.46,28.46,0,0,1,7.11,1.91,12.76,12.76,0,0,0,1.82.56,18,18,0,0,0,3.35.45,10.3,10.3,0,0,0,3.37-.25,2.6,2.6,0,0,1,.72-.13,4,4,0,0,1-1.2,0c-.1,0-.22-.06-.2-.15a.16.16,0,0,1,.05-.08,3.28,3.28,0,0,0,.87-1.34,2.84,2.84,0,0,0-.12-1.63c-.91-2.67-2.08-5.44-1.46-6.87-.08.13-.18.28-.3.44-1.39,2,.18,3.71.37,5.91s-2.46,4-6.15,2.7a52.41,52.41,0,0,0-8.59-2.34A9.74,9.74,0,0,1,263.24,114.12Z" style="fill:#D30E45"></path><path d="M263.24,114.12c.3.29,2.7,2.57,4.1,2.74a28.46,28.46,0,0,1,7.11,1.91,12.76,12.76,0,0,0,1.82.56,18,18,0,0,0,3.35.45,10.3,10.3,0,0,0,3.37-.25,2.6,2.6,0,0,1,.72-.13,4,4,0,0,1-1.2,0c-.1,0-.22-.06-.2-.15a.16.16,0,0,1,.05-.08,3.28,3.28,0,0,0,.87-1.34,2.84,2.84,0,0,0-.12-1.63c-.91-2.67-2.08-5.44-1.46-6.87-.08.13-.18.28-.3.44-1.39,2,.18,3.71.37,5.91s-2.46,4-6.15,2.7a52.41,52.41,0,0,0-8.59-2.34A9.74,9.74,0,0,1,263.24,114.12Z" style="opacity:0.30000000000000004"></path><path d="M281.37,119.61c.43-.07,2.46-.21,2.46-.21h0c1.62-.54,1.91.31,4.69-1.18s5.12-2.43,6.35-4.54.65-3.41.65-4.67-.48-1.63-1.18-2.51-.82-2.83-2.23-3.18-2.23-1.75-3.4-1.9-2.19.09-3.1-.14a6.7,6.7,0,0,0-1.93-.12,4.62,4.62,0,0,1-.7,1.72c-.46.47.19,2.11-.42,3.67s.05,1.3-.92,2.83h0c-.62,1.43.55,4.2,1.46,6.87A2.46,2.46,0,0,1,281.37,119.61Z" style="fill:#D30E45"></path><g style="opacity:0.15"><path d="M282.15,119.26a4.77,4.77,0,0,0,2.69-.88,5.36,5.36,0,0,0,.87-.91,10.55,10.55,0,0,0,1.62-2.56,4.82,4.82,0,0,0,.28-3,5.6,5.6,0,0,0-.88-1.74,9.49,9.49,0,0,0-1.37-1.53.38.38,0,0,1-.14-.19.37.37,0,0,1,.1-.31c.92-1.43,1.81-3.35,1.29-5.06a4.9,4.9,0,0,0-1.09-1.87,6.82,6.82,0,0,0-1.82-.1,4.62,4.62,0,0,1-.7,1.72c-.46.47.19,2.11-.42,3.67s.05,1.3-.92,2.83h0c-.62,1.43.55,4.2,1.47,6.87A2.34,2.34,0,0,1,282.15,119.26Z"></path></g><path d="M294.37,106.48c-.7-.89-.83-2.83-2.24-3.18s-2.23-1.75-3.4-1.9a11.17,11.17,0,0,0-1.72,0,5.09,5.09,0,0,1,2,1,6.64,6.64,0,0,0,1.48,1.17,6.68,6.68,0,0,1,1,.37,2.28,2.28,0,0,1,.9,1.68,8.37,8.37,0,0,0,.32,1.94,9.17,9.17,0,0,0,1.1,1.61c1.3,1.86.28,4.2-1.07,5.71a21.47,21.47,0,0,1-5.29,3.86c.32-.13.68-.3,1.12-.53,2.79-1.5,5.12-2.43,6.35-4.54s.65-3.41.65-4.67S295.06,107.36,294.37,106.48Z" style="fill:#D30E45"></path><path d="M294.37,106.48c-.7-.89-.83-2.83-2.24-3.18s-2.23-1.75-3.4-1.9a11.17,11.17,0,0,0-1.72,0,5.09,5.09,0,0,1,2,1,6.64,6.64,0,0,0,1.48,1.17,6.68,6.68,0,0,1,1,.37,2.28,2.28,0,0,1,.9,1.68,8.37,8.37,0,0,0,.32,1.94,9.17,9.17,0,0,0,1.1,1.61c1.3,1.86.28,4.2-1.07,5.71a21.47,21.47,0,0,1-5.29,3.86c.32-.13.68-.3,1.12-.53,2.79-1.5,5.12-2.43,6.35-4.54s.65-3.41.65-4.67S295.06,107.36,294.37,106.48Z" style="fill:#fff;opacity:0.6000000000000001"></path><path d="M262,110.37l.54,2.93c2.22-.52,5.18-4.06,5.94-5.45s5.54,1.38,8,2a3.88,3.88,0,0,0,.58.09,6.78,6.78,0,0,0,3.82-1.34c.49-.32.94-.69,1.44-1a3.16,3.16,0,0,0,1.18-1.28,6.23,6.23,0,0,0,.41-2.54c0-.55,0-1.1,0-1.64a3.44,3.44,0,0,0-.06-.85,2.24,2.24,0,0,0-.49-.86A4.9,4.9,0,0,0,280.46,99a36.54,36.54,0,0,0-3.9-.53,10.33,10.33,0,0,0-6.92,1.64,28.22,28.22,0,0,0-2.81,2.13,17.77,17.77,0,0,0-2.75,3.05A9.92,9.92,0,0,0,262,110.37Z" style="fill:#D30E45"></path><path d="M262,110.37a17.59,17.59,0,0,0,.54,2.93c2.22-.52,5.18-4.06,5.94-5.45s5.54,1.38,8,2a3.88,3.88,0,0,0,.58.09l-.43-9.92a8.19,8.19,0,0,0-8.76,5.22c-2.33,5.9-3.17.37-1-3a17.77,17.77,0,0,0-2.75,3.05C262.6,107.3,261.89,109.1,262,110.37Z" style="fill:#D30E45"></path><path d="M262,110.37a17.59,17.59,0,0,0,.54,2.93c2.22-.52,5.18-4.06,5.94-5.45s5.54,1.38,8,2a3.88,3.88,0,0,0,.58.09l-.43-9.92a8.19,8.19,0,0,0-8.76,5.22c-2.33,5.9-3.17.37-1-3a17.77,17.77,0,0,0-2.75,3.05C262.6,107.3,261.89,109.1,262,110.37Z" style="opacity:0.15"></path><path d="M268.32,107.26c-.93,3.8,1.39,9.43,1.39,9.43l.84,0a43.39,43.39,0,0,1-1.25-5.21,14.88,14.88,0,0,1,.13-5.71,5.31,5.31,0,0,0,1.27,2.27c.95.91,1.59,1.45,2.6,1.44a4.59,4.59,0,0,1,2.58.33c.9.49,1.77,0,3-.3s1.52-1.33,3-3.08a4,4,0,0,0,.75-3.12,3.09,3.09,0,0,0-.37-1.38,4.14,4.14,0,0,0-1.24-1.19,10.16,10.16,0,0,0-4.74-1.06,6.61,6.61,0,0,0-2.73.48,8.36,8.36,0,0,0-2.46,1.45,10.48,10.48,0,0,0-1.82,2.55A13.23,13.23,0,0,0,268.32,107.26Z" style="fill:#D30E45"></path><path d="M268.32,107.26c-.93,3.8,1.39,9.43,1.39,9.43l.84,0a43.39,43.39,0,0,1-1.25-5.21,14.88,14.88,0,0,1,.13-5.71,5.31,5.31,0,0,0,1.27,2.27c.95.91,1.59,1.45,2.6,1.44a4.59,4.59,0,0,1,2.58.33c.9.49,1.77,0,3-.3s1.52-1.33,3-3.08a4,4,0,0,0,.75-3.12,3.09,3.09,0,0,0-.37-1.38,4.14,4.14,0,0,0-1.24-1.19,10.16,10.16,0,0,0-4.74-1.06,6.61,6.61,0,0,0-2.73.48,8.36,8.36,0,0,0-2.46,1.45,10.48,10.48,0,0,0-1.82,2.55A13.23,13.23,0,0,0,268.32,107.26Z" style="fill:#fff;opacity:0.6000000000000001"></path><path d="M269.43,105.82a5.31,5.31,0,0,0,1.27,2.27c.95.91,1.59,1.45,2.6,1.44a4.59,4.59,0,0,1,2.58.33c.9.49,1.77,0,3-.3s1.52-1.33,3-3.08,1-4.77-.46-5.67a8.63,8.63,0,0,0-3.91-1.14,7.37,7.37,0,0,0-2.81.19,7.75,7.75,0,0,1,2.82,1.45c.85,1,.39,1.71-1,1.61S269.73,103.74,269.43,105.82Z" style="fill:#D30E45"></path><path d="M269.43,105.82a5.31,5.31,0,0,0,1.27,2.27c.95.91,1.59,1.45,2.6,1.44a4.59,4.59,0,0,1,2.58.33c.9.49,1.77,0,3-.3s1.52-1.33,3-3.08,1-4.77-.46-5.67a8.63,8.63,0,0,0-3.91-1.14,7.37,7.37,0,0,0-2.81.19,7.75,7.75,0,0,1,2.82,1.45c.85,1,.39,1.71-1,1.61S269.73,103.74,269.43,105.82Z" style="opacity:0.15"></path><path d="M269.46,106.58a3.46,3.46,0,0,0,.78,1.69,5.76,5.76,0,0,0,3.32,1.72,12,12,0,0,0,1.58.21c.37,0,1.08.18,1.12-.32.1-1.16-.8-2.16-1.06-3.3a3.26,3.26,0,0,0-.56-1.73,1.89,1.89,0,0,0-1.23-.42,4.4,4.4,0,0,0-2.81.82,3.61,3.61,0,0,0-.85.85A2.92,2.92,0,0,1,269.46,106.58Z" style="fill:#D30E45"></path><path d="M269.46,106.58a3.46,3.46,0,0,0,.78,1.69,5.76,5.76,0,0,0,3.32,1.72,12,12,0,0,0,1.58.21c.37,0,1.08.18,1.12-.32.1-1.16-.8-2.16-1.06-3.3a3.26,3.26,0,0,0-.56-1.73,1.89,1.89,0,0,0-1.23-.42,4.4,4.4,0,0,0-2.81.82,3.61,3.61,0,0,0-.85.85A2.92,2.92,0,0,1,269.46,106.58Z" style="opacity:0.4"></path><path d="M276.26,109.88c.1-1.16-.8-2.16-1.06-3.3a3.26,3.26,0,0,0-.56-1.73,1.78,1.78,0,0,0-1.15-.41c.7.31.83,1.26.88,1.88a4.59,4.59,0,0,0,.16,1.22c.24.63.77,1.15,1,1.79a3.65,3.65,0,0,1,.17.91C276,110.24,276.24,110.18,276.26,109.88Z" style="fill:#D30E45"></path><path d="M269.46,106.58c.66,3.91,6.65,3.64,6.65,3.64h0c-.13-.13-2.25-2.28-3.72-3.44a2.5,2.5,0,0,0-2.93-.2Z" style="fill:#D30E45"></path><path d="M269.46,106.58c.66,3.91,6.65,3.64,6.65,3.64h0c-.13-.13-2.25-2.28-3.72-3.44a2.5,2.5,0,0,0-2.93-.2Z" style="opacity:0.30000000000000004"></path><path d="M283.87,104.76c-.37,1.55-3.81,5.59-8,5.1s-5.81-1.76-6.58-3.41c0,0-1.43,5.91,1.25,10.29a21.21,21.21,0,0,1,4,1.33c2.71,1.1,5,1.79,6.89-.1s-.72-4.83-.5-6.29a14.88,14.88,0,0,1,2.29-4.75A3.61,3.61,0,0,0,283.87,104.76Z" style="fill:#D30E45"></path><path d="M284.07,119.32a22.3,22.3,0,0,1-4.83-.32c-2.33-.53-7.75-2.48-9.53-2.31h0s1.84.65,3.71,1.35A19.2,19.2,0,0,0,284.07,119.32Z" style="fill:#D30E45"></path><path d="M281.77,100.58c-4.32-3.85-11.24-.8-12.86,4.24a.89.89,0,0,0,0,.19,9.52,9.52,0,0,1,4.52-4.24,8,8,0,0,1,6.79.71c1.22.86,2.3,2.32,1.68,3.88a7.7,7.7,0,0,1-1.24,1.67,15.14,15.14,0,0,1-1.4,1.71,4.63,4.63,0,0,1-.82.64,4.7,4.7,0,0,1-1.2.49,5.22,5.22,0,0,0,2.94-1,8.94,8.94,0,0,0,1.11-1.48c.29-.4.62-.74.89-1.16a5.23,5.23,0,0,0,1-2.87A3.76,3.76,0,0,0,281.77,100.58Z" style="fill:#D30E45"></path><path d="M281.77,100.58c-4.32-3.85-11.24-.8-12.86,4.24a.89.89,0,0,0,0,.19,9.52,9.52,0,0,1,4.52-4.24,8,8,0,0,1,6.79.71c1.22.86,2.3,2.32,1.68,3.88a7.7,7.7,0,0,1-1.24,1.67,15.14,15.14,0,0,1-1.4,1.71,4.63,4.63,0,0,1-.82.64,4.7,4.7,0,0,1-1.2.49,5.22,5.22,0,0,0,2.94-1,8.94,8.94,0,0,0,1.11-1.48c.29-.4.62-.74.89-1.16a5.23,5.23,0,0,0,1-2.87A3.76,3.76,0,0,0,281.77,100.58Z" style="fill:#fff;opacity:0.6000000000000001"></path><path d="M257.68,93.6c-1.23,1.73-3.7,3.37-4.62,7.53-.48,2.19.88,7-.34,11.76,0,0,1.14-.23,1.65-2.48s-.15-7.45.69-10.32A49.71,49.71,0,0,1,257.68,93.6Z" style="fill:#D30E45"></path><path d="M257.68,93.6c-1.23,1.73-3.7,3.37-4.62,7.53-.48,2.19.88,7-.34,11.76,0,0,1.14-.23,1.65-2.48s-.15-7.45.69-10.32A49.71,49.71,0,0,1,257.68,93.6Z" style="fill:#fff;opacity:0.6000000000000001"></path><path d="M320.56,206.49a39.37,39.37,0,0,0-4.71,8.91c-1.23,3.12-2.7,6.78-2.54,10.18,0,.22.28.71.48.33a22.6,22.6,0,0,0,1.48-4.64c.44-1.59,1-3.17,1.54-4.72a91.92,91.92,0,0,1,4.31-9.29C321.31,206.87,321,205.91,320.56,206.49Z" style="fill:#263238"></path><path d="M319.37,210.45s-3.37-6.43-1-12,4-8.86,8.61-11,10.88-4.31,13.15-5.54c0,0-1,2-.3,6.08.56,3.33,1.54,7.62-.74,12.41C336.67,205.43,330.5,211,319.37,210.45Z" style="fill:#D30E45"></path><path d="M319.37,210.45s-3.37-6.43-1-12,4-8.86,8.61-11,10.88-4.31,13.15-5.54c0,0-1,2-.3,6.08.56,3.33,1.54,7.62-.74,12.41C336.67,205.43,330.5,211,319.37,210.45Z" style="opacity:0.4"></path><path d="M334.27,186.62c.07,0,.09,0,.05.09-2.39,3-5.05,5.73-7.36,8.85a39.54,39.54,0,0,0-3.58,5.7c-.89,1.76-1.4,3.67-2.61,5.25-.25.33-1.39.58-1.32-.12C320.3,198.57,328.09,190.76,334.27,186.62Z" style="fill:#D30E45"></path><path d="M339.07,200.39c-2.4,5-8.57,10.59-19.7,10.06,2.89-17.48,20.74-28.55,20.74-28.55s-1,2-.3,6.08C340.37,191.31,341.35,195.6,339.07,200.39Z" style="fill:#D30E45"></path><path d="M339.07,200.39c-2.4,5-8.57,10.59-19.7,10.06,2.89-17.48,20.74-28.55,20.74-28.55s-1,2-.3,6.08C340.37,191.31,341.35,195.6,339.07,200.39Z" style="opacity:0.25"></path><path d="M319,231.81c4-1,5.68-1.2,7.68-2.34a42.25,42.25,0,0,1,5.34.74c-4.32,1.21-9,1.62-13.34,3.08-5.6,1.91-11,4.09-16.82,5.42-.23.06-.79-.4-.52-.62C306.16,234.24,313.08,233.35,319,231.81Z" style="fill:#263238"></path><path d="M366.22,226.59s-5-3.13-9.82-3.36c0,0,1.24-1.62-2.76-3.82s-13.71-1.92-18.39,1.16-9.8,9.79-14.08,10.84a21.86,21.86,0,0,1,9,3c5,3,7.82,5.68,13.59,5s10.95-5.91,14.66-8.58S364,227,366.22,226.59Z" style="fill:#D30E45"></path><path d="M366.22,226.59s-5-3.13-9.82-3.36c0,0,1.24-1.62-2.76-3.82s-13.71-1.92-18.39,1.16-9.8,9.79-14.08,10.84a21.86,21.86,0,0,1,9,3c5,3,7.82,5.68,13.59,5s10.95-5.91,14.66-8.58S364,227,366.22,226.59Z" style="opacity:0.4"></path><path d="M358.39,230.9c-3.71,2.67-8.9,7.93-14.66,8.58s-8.55-2-13.59-5a21.86,21.86,0,0,0-9-3c12.25-3.66,37.61-6.42,45.05-4.82C364,227,362.09,228.23,358.39,230.9Z" style="fill:#D30E45"></path><path d="M358.39,230.9c-3.71,2.67-8.9,7.93-14.66,8.58s-8.55-2-13.59-5a21.86,21.86,0,0,0-9-3c12.25-3.66,37.61-6.42,45.05-4.82C364,227,362.09,228.23,358.39,230.9Z" style="opacity:0.25"></path><path d="M354.34,226.29c0,.05-.06.09-.16.1-9.73.89-18.85,3.76-28.18,6.11a19.65,19.65,0,0,0-4.83-1.09C329.44,228.94,343.67,226.88,354.34,226.29Z" style="fill:#D30E45"></path><path d="M264.45,251.9c-.76-1.09-3.72-1.61-6.39-7.21s1.53-9.14-1.55-14.74-6.51-8.58-7.07-12.7a9,9,0,0,0,2.09,2.59c1.39,1.25,2.67,1.66,3.27,3.81a9.93,9.93,0,0,1,2.68,1.11,12.46,12.46,0,0,1,5.28,7.58C264,236.66,264.45,251.9,264.45,251.9Z" style="fill:#37474f"></path><path d="M269.64,255.14s-8.27-17.31,2.55-33,15.88-17.94,24.23-16.28c4.24.85,11.38,1.62,13.16,6.31a6.56,6.56,0,0,1-.25,5.14c.73-.26,2.84.37,3.19.5a8.6,8.6,0,0,1,3,2,12.89,12.89,0,0,1,3.15,6.59c1,4.83.12,10.36-4.46,12.18s-15.71,2.48-23.19,6.55S269.64,255.14,269.64,255.14Z" style="fill:#D30E45"></path><path d="M306.66,211.69a13.11,13.11,0,0,0-4.07-3.62c-.86-.55-1.75-1.06-2.65-1.54,3.9.79,8.29,2.1,9.64,5.64a6.56,6.56,0,0,1-.25,5.14c.73-.26,2.84.37,3.19.5a8.6,8.6,0,0,1,3,2,12.89,12.89,0,0,1,3.15,6.59,18.27,18.27,0,0,1,.35,2.95c-.28-1-.42-2-.71-3a9.14,9.14,0,0,0-4.28-5.32,16.67,16.67,0,0,0-2.38-1c-1-.36-2.08-.69-3.14-1a2,2,0,0,1-1-.48c-.73-.79.07-2.58.06-3.56A5.94,5.94,0,0,0,306.66,211.69Z" style="fill:#D30E45"></path><g style="opacity:0.2"><path d="M306.66,211.69a13.11,13.11,0,0,0-4.07-3.62c-.86-.55-1.75-1.06-2.65-1.54,3.9.79,8.29,2.1,9.64,5.64a6.56,6.56,0,0,1-.25,5.14c.73-.26,2.84.37,3.19.5a8.6,8.6,0,0,1,3,2,12.89,12.89,0,0,1,3.15,6.59,18.27,18.27,0,0,1,.35,2.95c-.28-1-.42-2-.71-3a9.14,9.14,0,0,0-4.28-5.32,16.67,16.67,0,0,0-2.38-1c-1-.36-2.08-.69-3.14-1a2,2,0,0,1-1-.48c-.73-.79.07-2.58.06-3.56A5.94,5.94,0,0,0,306.66,211.69Z" style="fill:#fff"></path></g><path d="M272.19,222.14c10.23-14.84,15.32-17.66,22.91-16.51-5.91,1.58-10.13,8.21-7.92,14.58,0,0,3-7.25,10.29-5.76s8.43,8.81,9,11.75-5.16,4.38-5.16,4.38,12.53,1.35,16.68,4.36a7,7,0,0,1-3.78,3.6c-4.58,1.82-15.71,2.48-23.19,6.55-5.12,2.79-13.25,6.46-17.88,8.51l-5.56-4.66C266.13,242.5,265.39,232,272.19,222.14Z" style="fill:#D30E45"></path><path d="M272.19,222.14c10.23-14.84,15.32-17.66,22.91-16.51-5.91,1.58-10.13,8.21-7.92,14.58,0,0,3-7.25,10.29-5.76s8.43,8.81,9,11.75-5.16,4.38-5.16,4.38,12.53,1.35,16.68,4.36a7,7,0,0,1-3.78,3.6c-4.58,1.82-15.71,2.48-23.19,6.55-5.12,2.79-13.25,6.46-17.88,8.51l-5.56-4.66C266.13,242.5,265.39,232,272.19,222.14Z" style="opacity:0.15"></path><path d="M289.07,216.73s3.11-1.9,8.37,1.36,9.8,13.35,6.8,15.53-17.89,1.29-17.89,1.29l-1.9-6.22Z" style="fill:#D30E45"></path><g style="opacity:0.2"><path d="M289.07,216.73s3.11-1.9,8.37,1.36,9.8,13.35,6.8,15.53-17.89,1.29-17.89,1.29l-1.9-6.22Z" style="fill:#fff"></path></g><path d="M269.64,255.14s-9.38-7.78-8.52-17-.78-10.56,1-17.23,6.53-12.3,9.77-15.19,6.3-3.76,7.27-3.45.3,1.43,3.88,4.23,6.24,6.36,6.07,10.27-3.64,9.43-6,11.76S266.25,242.25,269.64,255.14Z" style="fill:#D30E45"></path><path d="M269.64,255.14s-9.38-7.78-8.52-17-.78-10.56,1-17.23,6.53-12.3,9.77-15.19,6.3-3.76,7.27-3.45.3,1.43,3.88,4.23,6.24,6.36,6.07,10.27-3.64,9.43-6,11.76S266.25,242.25,269.64,255.14Z" style="fill:#fff;opacity:0.2"></path><path d="M271.85,205.68c3.24-2.89,6.3-3.76,7.27-3.45s.3,1.43,3.88,4.23,6.24,6.36,6.07,10.27a10,10,0,0,1-.47,2.52c-.67.61-1.68,1.11-2,1.66.9-1.65,1.83-3.5,1.35-5.32a5.88,5.88,0,0,0-1.24-2.2,16,16,0,0,0-3.32-3.09,20.22,20.22,0,0,1-3-2.15c-.95-1-1.58-2.22-2.61-3.11-1.94-1.68-3.54-.31-5.32.71a17.42,17.42,0,0,0-2.76,2C270.49,207,271.2,206.26,271.85,205.68Z" style="fill:#D30E45"></path><path d="M271.85,205.68c3.24-2.89,6.3-3.76,7.27-3.45s.3,1.43,3.88,4.23,6.24,6.36,6.07,10.27a10,10,0,0,1-.47,2.52c-.67.61-1.68,1.11-2,1.66.9-1.65,1.83-3.5,1.35-5.32a5.88,5.88,0,0,0-1.24-2.2,16,16,0,0,0-3.32-3.09,20.22,20.22,0,0,1-3-2.15c-.95-1-1.58-2.22-2.61-3.11-1.94-1.68-3.54-.31-5.32.71a17.42,17.42,0,0,0-2.76,2C270.49,207,271.2,206.26,271.85,205.68Z" style="fill:#fff;opacity:0.6000000000000001"></path><path d="M261.12,238.1c.64-6.78-.07-9.3.18-12.79.54,1.25,1.22,2.43,1.77,3.81a19.43,19.43,0,0,1,.92,7.54c-.11,4-.4,6.81,1.25,10.51a53.46,53.46,0,0,0,4.18,7c.06.33.13.66.22,1C269.64,255.14,260.26,247.36,261.12,238.1Z" style="fill:#D30E45"></path><path d="M261.12,238.1c.64-6.78-.07-9.3.18-12.79.54,1.25,1.22,2.43,1.77,3.81a19.43,19.43,0,0,1,.92,7.54c-.11,4-.4,6.81,1.25,10.51a53.46,53.46,0,0,0,4.18,7c.06.33.13.66.22,1C269.64,255.14,260.26,247.36,261.12,238.1Z" style="fill:#fff;opacity:0.6000000000000001"></path><path d="M269.64,255.14c4.83,1.92,8.69,9.08,16.58,10.87a15.69,15.69,0,0,0,13.28-3s3,4.13,10.72,1.67,12.79-4.68,8.67-8.3-6.89-8.73-11.65-9.66S277.75,245.23,269.64,255.14Z" style="fill:#D30E45"></path><g style="opacity:0.15"><path d="M299.5,263a15.69,15.69,0,0,1-13.28,3c-7.89-1.79-11.75-8.95-16.58-10.87,8.11-9.91,32.84-9.37,37.6-8.45a8.68,8.68,0,0,1,2.72,1.07c-.22.17-.46.33-.7.48-6.43,4.08-9.94,12.06-16.95,15.24A13.13,13.13,0,0,0,299.5,263Z"></path></g><path d="M316.82,256.64a33.94,33.94,0,0,1-3.55-4.13c-1.21-1.8-1.69-3.32-3.41-4.81,3.29,1.89,5.72,5.74,9,8.65,3,2.61,1.14,4.49-3,6.26,0,0,0-.08.08-.11C318.57,260.19,319.2,259.13,316.82,256.64Z" style="fill:#fff;opacity:0.4"></path><g style="opacity:0.15"><path d="M269.64,255.14s-6.3-6.57-3.16-15.09,7.4-11.29,11.38-13.77,11.34-5.89,11.21-9.55c0,0,1,4.25-2.54,9s-8.51,10.52-11.38,16.58S269.64,255.14,269.64,255.14Z"></path></g><path d="M269.64,255.14c6.09,1.43,8.56,5.6,15.57,6.11s10.72-5.47,18-10.22,17.69-6.14,16.9-9.87-6.93-5.88-6.93-5.88-1.09-3.19-6.08-6.13-6.79-4.4-13.11-3.6-10-.74-12.3,1.56-4.6,10.77-8.09,14.89A16.23,16.23,0,0,0,269.64,255.14Z" style="fill:#D30E45"></path><path d="M269.64,255.14c6.09,1.43,8.56,5.6,15.57,6.11s10.72-5.47,18-10.22,17.69-6.14,16.9-9.87-6.93-5.88-6.93-5.88-1.09-3.19-6.08-6.13-6.79-4.4-13.11-3.6-10-.74-12.3,1.56-4.6,10.77-8.09,14.89A16.23,16.23,0,0,0,269.64,255.14Z" style="fill:#fff;opacity:0.4"></path><path d="M288.2,225.8a43,43,0,0,0,5.14-.17c1.19,1.62,2.59,4,4.25,4.79,1.35.6,2.47-.16,3.76.16,4.72,1.2,4.65,6.92,8.71,8.48,1.82.7,3.16,0,5-.15a8,8,0,0,1,4.39.74,4.73,4.73,0,0,1,.66,1.51,1.78,1.78,0,0,1-.07,1c-3.44.6-7.53,1.84-10.75.84-4.13-1.29-4.39-5.16-7.35-7.52-2.14-1.7-5-.19-7.61-2.72-1.89-1.83-3-4.48-4.94-6.18A6.36,6.36,0,0,0,288.2,225.8Z" style="fill:#D30E45"></path><path d="M288.28,225.8a37,37,0,0,0,5.72-.25c6.32-.8,8.12.65,13.11,3.6s6.08,6.13,6.08,6.13,6.13,2.15,6.93,5.88a2.07,2.07,0,0,1-.7,1.94,2.59,2.59,0,0,0-1.63-2.47,3.13,3.13,0,0,0-.62-.19,10.64,10.64,0,0,0-3.25.3,10.71,10.71,0,0,1-4.22-.25c-2.87-.92-4.69-3.73-5.89-6.49-.64-1.45-1.8-3.25-3.29-2.72-.33.12-.62.35-.94.5-1.6.77-3.35-.6-4.7-1.76A29.16,29.16,0,0,0,288.28,225.8Z" style="fill:#D30E45"></path><path d="M288.28,225.8a37,37,0,0,0,5.72-.25c6.32-.8,8.12.65,13.11,3.6s6.08,6.13,6.08,6.13,6.13,2.15,6.93,5.88a2.07,2.07,0,0,1-.7,1.94,2.59,2.59,0,0,0-1.63-2.47,3.13,3.13,0,0,0-.62-.19,10.64,10.64,0,0,0-3.25.3,10.71,10.71,0,0,1-4.22-.25c-2.87-.92-4.69-3.73-5.89-6.49-.64-1.45-1.8-3.25-3.29-2.72-.33.12-.62.35-.94.5-1.6.77-3.35-.6-4.7-1.76A29.16,29.16,0,0,0,288.28,225.8Z" style="fill:#fff;opacity:0.6000000000000001"></path><g style="opacity:0.30000000000000004"><path d="M273.61,242a18.89,18.89,0,0,0,1.94-2.87,12.25,12.25,0,0,1-1.65,5c-1,2-1.87,4.61-.58,6.5.89,1.31,2.54,1.84,4.09,2.18,6.39,1.38,11.89,2.89,18,.51,2.95-1.16,6.23-3.57,9.93-5.17,1-.42,7.73-3,9.61-2.48-3.44,1.43-8,3-11.71,5.41-7.29,4.75-11,10.73-18,10.22s-9.48-4.68-15.57-6.11A16.23,16.23,0,0,1,273.61,242Z" style="fill:#D30E45"></path></g><path d="M268.54,256.19c2.23-.48,3,2.46,7.52,2.44s8.09-1.9,13.76-6.78c0,0-7.29-2.06-10.63-1.22S268.54,256.19,268.54,256.19Z" style="fill:#263238"></path><path d="M275.45,214.22c-1.48,2.52-7.35,7-9.47,9.89s-11.55,16.06-1.58,25.33Z" style="fill:#263238"></path><path d="M269.1,256.13c4.55-.44,5.24.93,9,.16s7.82-2.94,12.33-4.7,8.19-1.09,13.57-11c0,0-3,4.89-8.46,5.74s-13.05-1.73-16.74-.37-9.33,8-9.33,8,1.38-4.66-1.25-7.13c0,0,4.89-5.63,5.54-10.19a31.85,31.85,0,0,0,0-8.54s3.22-4.63,3.85-9.35a49.09,49.09,0,0,0,.07-10s-.59,3.07-3.74,8-18.45,17.79-9.57,32.7l-.08-.09c-.87-1-1.58,0-.87,1.14a2.43,2.43,0,0,0,.24.32c1.22,1.36,1.34,3.34-1.19,5.14a82.94,82.94,0,0,0-9.15,7.69A155,155,0,0,0,233,288c-6,8.88-11.86,18.55-15,29a33.37,33.37,0,0,0-1.08,5c-.13.94-.68,8.31.06,12.39a80.88,80.88,0,0,1,6.21-21.78q.47-1.17,1-2.31c8.18-19.17,21.58-35.88,36.94-49.82C264.5,257.43,267.82,256.26,269.1,256.13Z" style="fill:#37474f"></path></g><g id="freepik--Finger--inject-2"><path d="M182.36,227c1.71-3,3.59-4.27,7.61-7.3,7.92-6,14.39-10.22,21.73-15.38,1.84-1.28,4.73-3.1,6.91-3.63,2.69-.65,5.46,0,8.1.61,4.52,1,6.1,1.35,9.38,2.09l7.11,1.6c2.18.48,4.39.85,6.53,1.51,1.77.55,3.13,1.68,3,3.72-.15,3-2.73,5.75-5.21,7.12a23.73,23.73,0,0,1-9.75,2.45,61.41,61.41,0,0,1-9.59,0c-1.65-.14-4.57-.11-4.57-.11s-3.64,2.86-5.07,3.91q-5.24,3.87-10.15,8.14a9.11,9.11,0,0,0-1.95,1.92,10.58,10.58,0,0,0-.47,3.06c-.3,3.44-.17,8.05-.74,10-.79,2.62-23.78,21.87-28.88,21,0,0,2.8-20.44,3.95-32.55C180.69,231.13,180.83,229.66,182.36,227Z" style="fill:#ffa8a7"></path><path d="M203.11,230.87a16.64,16.64,0,0,1-5.68-.44,1.15,1.15,0,0,0,.39.61,10.34,10.34,0,0,0,5.77,2.41,4.53,4.53,0,0,0,4-1c2.25-1.74,4.51-3.49,6.62-5.4A28.28,28.28,0,0,1,203.11,230.87Z" style="fill:#f28f8f"></path><path d="M176.73,268.12a2,2,0,0,1-.44,0l-.44-.07.06-.44c0-.21,2.82-20.57,4-32.53.38-4,.52-5.51,2.09-8.27h0c1.65-2.86,3.41-4.19,6.92-6.82l.82-.62c5.57-4.19,10.33-7.47,15.36-11,2.09-1.44,4.2-2.9,6.39-4.44,1.62-1.13,4.68-3.12,7.06-3.7,2.64-.64,5.31-.05,7.88.52l.43.09c4,.88,5.71,1.26,8.36,1.86l1,.23,7.1,1.6,1.9.4c1.54.32,3.13.64,4.66,1.12,2.3.72,3.46,2.16,3.35,4.18-.16,3.19-2.86,6.07-5.45,7.5a24.31,24.31,0,0,1-9.94,2.51,62.3,62.3,0,0,1-9.66,0c-1.39-.12-3.74-.11-4.36-.11-.65.51-3.7,2.89-5,3.82-3.47,2.56-6.87,5.29-10.13,8.12l-.38.32a6.49,6.49,0,0,0-1.46,1.46,10.22,10.22,0,0,0-.42,2.88c-.1,1.41-.16,2.81-.2,4.16a28.83,28.83,0,0,1-.56,5.91C205,249.27,183,268.12,176.73,268.12Zm6-40.89c-1.48,2.58-1.62,4-2,7.9-1,10.93-3.45,28.87-3.88,32.07,5.5-.27,27.16-18.15,27.92-20.67a27.86,27.86,0,0,0,.51-5.67c.05-1.36.11-2.77.21-4.19a9.74,9.74,0,0,1,.52-3.23,6.83,6.83,0,0,1,1.69-1.76l.37-.31c3.27-2.84,6.7-5.58,10.18-8.16,1.41-1,5-3.87,5.06-3.9l.12-.09h.16c.12,0,3,0,4.6.11a60.51,60.51,0,0,0,9.52,0,23.44,23.44,0,0,0,9.56-2.4c2.3-1.26,4.83-3.91,5-6.74.09-1.57-.82-2.66-2.7-3.25-1.49-.46-3.06-.79-4.57-1.1l-1.92-.4-7.11-1.6-1-.23c-2.64-.6-4.33-1-8.35-1.86l-.43-.09c-2.47-.55-5-1.11-7.47-.52s-5.48,2.68-6.74,3.56c-2.19,1.54-4.3,3-6.4,4.44-5,3.47-9.77,6.75-15.33,10.93l-.82.62c-3.41,2.56-5.12,3.84-6.66,6.54Z" style="fill:#b16668"></path><path d="M171.8,278.71c0-.2,0-.39,0-.58a18,18,0,0,1,.24-5.38c.62-2.61,2.23-4.85,3.81-7,4-5.53,7.38-9.66,11.59-15.06,2.2-2.81,4.92-5.47,7.3-6.48,2-.85,5.12-.89,7-.84l10.21.24c5.47.13,11,.25,16.51.47s9.2-.32,13.39,1.91c2.84,1.51,7.05,6.54,10.29,9.73,4.18,4.14,8.74,8.38,12.58,12.78a2.85,2.85,0,0,1,.76,1.26,2.53,2.53,0,0,1-.86,2.08c-3.33,3.6-9.52,3.74-14.76,1-2.62-1.39-6.08-3.25-8.55-4.89-2.31-1.54-5.82-3.52-5.82-3.52s-9.17.63-11.8.92c-5.61.64-18.78,2.45-18.78,2.45s-5.78,6-8.28,11.88a28.35,28.35,0,0,1-7.82,11,55.48,55.48,0,0,1-14.09,7.76C173.7,291.85,172.3,285.32,171.8,278.71Z" style="fill:#ffa8a7"></path><path d="M208.6,263.78a18.91,18.91,0,0,1-5.37-5.36,20.22,20.22,0,0,0,1.11,4.36,6.94,6.94,0,0,0,2.81,3.43c1.76,1,3.94.89,6,.61,1.56-.21,3.12-.5,4.65-.86a13.92,13.92,0,0,1-4.53-.35A13.17,13.17,0,0,1,208.6,263.78Z" style="fill:#f28f8f"></path><path d="M174.31,299.05l-.08-.57c-.31-2.08-.67-4.16-1-6.24-.75-4.41-1.53-9-1.87-13.5h0l0-.58a18.55,18.55,0,0,1,.25-5.52c.65-2.74,2.37-5.1,3.89-7.18,3.08-4.21,5.82-7.69,8.71-11.38.93-1.18,1.89-2.39,2.89-3.68,2.56-3.28,5.28-5.69,7.48-6.62a18.35,18.35,0,0,1,7.19-.88l10.94.26c5.19.12,10.56.24,15.78.45,1.19,0,2.29.06,3.31.07,3.85,0,6.89.08,10.29,1.89,2.11,1.13,4.87,4,7.53,6.85,1,1.07,2,2.08,2.87,3l2.92,2.86c3.3,3.21,6.71,6.53,9.68,9.94a3.35,3.35,0,0,1,.87,1.47,2.92,2.92,0,0,1-1,2.49c-3.35,3.61-9.65,4.05-15.31,1.07-2.7-1.42-6.12-3.26-8.6-4.91-2-1.35-5-3.07-5.66-3.43-1.16.08-9.23.64-11.64.91-5.22.59-17.09,2.22-18.61,2.43-.81.85-5.83,6.34-8.08,11.62a28.81,28.81,0,0,1-8,11.17,55.3,55.3,0,0,1-14.21,7.83Zm26.43-55.24a15.76,15.76,0,0,0-5.86.82c-2.06.87-4.65,3.18-7.11,6.34l-2.89,3.68c-3,3.84-5.62,7.16-8.69,11.36-1.47,2-3.14,4.29-3.75,6.85a17.91,17.91,0,0,0-.22,5.24l0,.57c.34,4.49,1.11,9,1.86,13.42.32,1.89.64,3.78.93,5.68a54.2,54.2,0,0,0,13.44-7.48,27.93,27.93,0,0,0,7.68-10.81c2.5-5.88,8.13-11.77,8.37-12l.11-.11.16,0c.13,0,13.23-1.82,18.79-2.45,2.61-.3,11.73-.92,11.82-.93h.14l.12.06s3.55,2,5.85,3.54,5.83,3.45,8.51,4.86c5.29,2.79,11.14,2.42,14.21-.89a2.07,2.07,0,0,0,.74-1.68,2.46,2.46,0,0,0-.65-1c-2.95-3.38-6.35-6.69-9.63-9.89L251.78,256c-.91-.89-1.87-1.91-2.89-3-2.61-2.76-5.31-5.62-7.3-6.67-3.2-1.71-6-1.74-9.86-1.78-1,0-2.14,0-3.33-.08-5.22-.2-10.59-.33-15.77-.45l-10.94-.26Z" style="fill:#b16668"></path><path d="M240.06,300.73c-.7-5-1.31-10.13-2-15.12a27.48,27.48,0,0,0-.93-4.78c-.4-1.2-1.11-2-3.79-3.24-6.11-2.83-9.46-4.85-17.2-8-6.45-2.64-13.13-5.77-16.72-4.44s-7.53,6-10.78,9.74c-5.28,6-10.64,12.14-15.47,18.5-3.11,4.1-6.38,8.68-6.1,13.82.22,3.88,2.63,7.2,4.59,10.55,2.89,4.93,5.78,9.76,8.67,14.11L197,303.67l9.11-16.34,16.9,5.91s2.56,11.42,6,15.75c2.85,3.54,7.57,6.57,11.38,4.09C241.73,312.21,241.32,309.74,240.06,300.73Z" style="fill:#ffa8a7"></path><path d="M207,285.34a10.79,10.79,0,0,1-1.81-2.22,14.39,14.39,0,0,1-1.37-3.23,1.26,1.26,0,0,0-.56-.87,11.2,11.2,0,0,0,.32,4.75,7.28,7.28,0,0,0,1.63,2.84,5.33,5.33,0,0,0,2.69,1.29c1.65.55,3.3,1.13,4.95,1.69l-1.44-.94A28.69,28.69,0,0,1,207,285.34Z" style="fill:#f28f8f"></path><path d="M197,303.67l9-16.44.07-.13c.13.06,16.94,5.79,17.09,5.85l.15.06,0,.17c1.53,5.58,2.92,11.76,6.67,16.28,2.3,2.49,5.87,5.09,9.36,3.72.57-.27,1.2-.48,1.36-1.17.64-2.73-2.27-19-2.49-22.05l-.59-4.45c-.41-2-.28-4.5-1.84-6-1-1-4.55-2.41-5.84-3.08-2.69-1.32-5.34-2.68-8-3.93s-5.46-2.39-8.22-3.55c-4.09-1.59-8.21-3.77-12.65-3.8a7.53,7.53,0,0,0-3.92,1.63,42.79,42.79,0,0,0-6.41,6.15l-6,6.7c-4,4.48-7.87,9-11.53,13.73,3.56-4.8,7.38-9.41,11.26-14l5.85-6.8c3-3.12,6.08-7.48,10.67-8.11,4.6,0,8.82,2.13,13,3.74,2.76,1.13,5.55,2.26,8.27,3.52s5.39,2.6,8.08,3.91c1.42.8,4.84,2,6,3.18,1.82,1.62,1.74,4.37,2.17,6.55l.6,4.44,2.35,17.79a13.84,13.84,0,0,1,0,4.63,2.71,2.71,0,0,1-1.84,1.7c-3.86,1.53-7.78-1.22-10.27-4-2.07-2.27-3.17-5.19-4.21-8a81.38,81.38,0,0,1-2.47-8.66l.2.22-16.86-6,.22-.08L197,303.67Z" style="fill:#b16668"></path></g></g></g><g id="freepik--Sparkles--inject-2"><g id="freepik--Shine--inject-2" style="opacity:0.5"><path d="M459.37,111.19l-1-11.28a2,2,0,0,0-1.78-1.81l-8.84-1a.41.41,0,0,1,0-.81l8.84-1a2,2,0,0,0,1.78-1.8l1-11.29a.41.41,0,0,1,.82,0l1,11.29a2,2,0,0,0,1.78,1.8l8.84,1a.41.41,0,0,1,0,.81l-8.84,1a2,2,0,0,0-1.78,1.81l-1,11.28a.41.41,0,0,1-.82,0Zm3.52-15a2.81,2.81,0,0,1-2.5-2.54h0l-.61-6.78-.61,6.78a2.81,2.81,0,0,1-2.5,2.54l-5.17.58,5.17.57a2.83,2.83,0,0,1,2.5,2.55l.61,6.78.61-6.78a2.83,2.83,0,0,1,2.5-2.55l5.18-.57Zm-2.1-2.58h0Z" style="fill:#D30E45"></path><g style="opacity:0.5"><path d="M428.19,62.76l-.42-4.65a.75.75,0,0,0-.66-.67L423.46,57a.25.25,0,0,1-.22-.24.26.26,0,0,1,.22-.25l3.65-.4a.75.75,0,0,0,.66-.67l.42-4.66a.25.25,0,0,1,.49,0l.42,4.66a.75.75,0,0,0,.66.67l3.65.4a.26.26,0,0,1,.22.25.25.25,0,0,1-.22.24l-3.65.41a.75.75,0,0,0-.66.67l-.42,4.65a.25.25,0,0,1-.49,0Zm1.52-6.13a1.24,1.24,0,0,1-1.1-1.12h0l-.18-1.93-.17,1.93a1.25,1.25,0,0,1-1.1,1.12l-1.43.16,1.43.16a1.24,1.24,0,0,1,1.1,1.12l.17,1.92.18-1.92a1.23,1.23,0,0,1,1.1-1.12l1.42-.16Zm-.86-1.14Z" style="fill:#D30E45"></path></g><g id="freepik--shine--inject-2"><path d="M341.18,76.9l-.84-9.31a1.65,1.65,0,0,0-1.47-1.49l-7.29-.81a.33.33,0,0,1-.3-.33.34.34,0,0,1,.3-.34l7.29-.8a1.67,1.67,0,0,0,1.47-1.5h0l.84-9.31a.33.33,0,0,1,.33-.3.34.34,0,0,1,.34.3l.84,9.31a1.66,1.66,0,0,0,1.46,1.5l7.29.8a.34.34,0,0,1,.3.34.33.33,0,0,1-.3.33l-7.29.81a1.64,1.64,0,0,0-1.46,1.49l-.84,9.31a.35.35,0,0,1-.34.31A.34.34,0,0,1,341.18,76.9Zm2.89-12.42a2.31,2.31,0,0,1-2.05-2.1l-.51-5.59-.5,5.59a2.33,2.33,0,0,1-2.06,2.1l-4.27.48,4.27.47a2.33,2.33,0,0,1,2.06,2.1l.5,5.6.51-5.6a2.31,2.31,0,0,1,2.05-2.1l4.28-.47Z" style="fill:#D30E45"></path><g style="opacity:0.5"><path d="M358.12,80.09l-.47-5.18a.82.82,0,0,0-.74-.75l-4.05-.45a.28.28,0,0,1-.25-.27.29.29,0,0,1,.25-.28l4.05-.45a.81.81,0,0,0,.74-.75l.47-5.17a.26.26,0,0,1,.27-.25h0a.26.26,0,0,1,.27.25l.47,5.17a.83.83,0,0,0,.74.75l4.06.45a.28.28,0,0,1,.24.28.27.27,0,0,1-.24.27l-4.06.45a.84.84,0,0,0-.74.75l-.47,5.18a.27.27,0,0,1-.54,0Zm1.69-6.83A1.39,1.39,0,0,1,358.58,72l-.19-2.14L358.2,72h0A1.39,1.39,0,0,1,357,73.26l-1.59.18,1.59.17a1.39,1.39,0,0,1,1.23,1.25l.19,2.14.19-2.14a1.39,1.39,0,0,1,1.23-1.25l1.59-.17Z" style="fill:#D30E45"></path></g></g><g id="freepik--shine--inject-2"><path d="M451.27,209.11l-.57-6.28a1.12,1.12,0,0,0-1-1l-4.93-.54a.23.23,0,0,1-.2-.23.23.23,0,0,1,.2-.22l4.93-.55a1.1,1.1,0,0,0,1-1h0l.57-6.28a.23.23,0,0,1,.45,0l.57,6.28a1.1,1.1,0,0,0,1,1l4.93.55a.23.23,0,0,1,.2.22.23.23,0,0,1-.2.23l-4.93.54a1.12,1.12,0,0,0-1,1l-.57,6.28a.23.23,0,0,1-.45,0Zm2-8.37a1.58,1.58,0,0,1-1.38-1.42l-.34-3.78-.34,3.78a1.59,1.59,0,0,1-1.39,1.42l-2.89.31,2.89.32a1.59,1.59,0,0,1,1.39,1.42l.34,3.78.34-3.78a1.57,1.57,0,0,1,1.38-1.42l2.89-.32Z" style="fill:#D30E45"></path></g><g id="freepik--shine--inject-2"><path d="M386.92,145.66l-.88-9.79a1.75,1.75,0,0,0-1.54-1.57l-7.67-.85a.36.36,0,0,1-.32-.35.37.37,0,0,1,.32-.36l7.67-.84a1.75,1.75,0,0,0,1.54-1.57l.88-9.79a.36.36,0,0,1,.35-.33.35.35,0,0,1,.35.33l.89,9.79a1.74,1.74,0,0,0,1.54,1.57l7.67.84a.36.36,0,0,1,.31.36.35.35,0,0,1-.31.35l-7.67.85a1.74,1.74,0,0,0-1.54,1.57l-.89,9.79a.35.35,0,0,1-.35.32A.36.36,0,0,1,386.92,145.66ZM390,132.6a2.47,2.47,0,0,1-2.17-2.21l-.53-5.88-.53,5.88h0a2.45,2.45,0,0,1-2.16,2.21l-4.5.5,4.5.49a2.45,2.45,0,0,1,2.16,2.21l.53,5.89.53-5.89a2.47,2.47,0,0,1,2.17-2.21l4.49-.49Z" style="fill:#D30E45"></path><g style="opacity:0.5"><path d="M406.36,158.55l-.6-6.67a1.08,1.08,0,0,0-.95-1l-5.22-.57a.37.37,0,0,1-.32-.36.36.36,0,0,1,.32-.35l5.22-.57a1.08,1.08,0,0,0,.95-1h0l.6-6.67a.36.36,0,0,1,.35-.32.35.35,0,0,1,.35.32l.61,6.67a1.07,1.07,0,0,0,.94,1l5.23.57a.35.35,0,0,1,.31.35.36.36,0,0,1-.31.36l-5.23.57a1.07,1.07,0,0,0-.94,1l-.61,6.67a.35.35,0,0,1-.35.32A.36.36,0,0,1,406.36,158.55Zm2.17-8.79a1.79,1.79,0,0,1-1.57-1.61l-.25-2.76-.25,2.76a1.77,1.77,0,0,1-1.57,1.61l-2,.22,2,.23a1.77,1.77,0,0,1,1.57,1.61l.25,2.76.25-2.76a1.79,1.79,0,0,1,1.57-1.61l2.05-.23Z" style="fill:#D30E45"></path></g><g style="opacity:0.5"><path d="M375.47,171.36l-.6-6.67a1.07,1.07,0,0,0-.95-1l-5.22-.58a.35.35,0,0,1,0-.7l5.22-.58a1.08,1.08,0,0,0,.95-1h0l.6-6.66a.36.36,0,0,1,.35-.32.35.35,0,0,1,.35.32l.6,6.66a1.08,1.08,0,0,0,1,1l5.23.58a.35.35,0,0,1,0,.7l-5.23.58a1.07,1.07,0,0,0-1,1l-.6,6.67a.35.35,0,0,1-.35.32A.36.36,0,0,1,375.47,171.36Zm2.17-8.79a1.78,1.78,0,0,1-1.57-1.6l-.25-2.76-.25,2.76a1.76,1.76,0,0,1-1.57,1.6l-2.05.23L374,163a1.78,1.78,0,0,1,1.57,1.61l.25,2.76.25-2.76a1.8,1.8,0,0,1,1.57-1.61l2.05-.22Z" style="fill:#D30E45"></path></g></g><g id="freepik--shine--inject-2" style="opacity:0.5"><path d="M74.09,226.48,73.5,220a1,1,0,0,0-.93-1l-5.11-.57a.34.34,0,0,1,0-.68l5.11-.57a1,1,0,0,0,.93-.95l.59-6.52a.34.34,0,0,1,.34-.32.36.36,0,0,1,.35.32l.59,6.52a1,1,0,0,0,.92.95l5.12.57a.34.34,0,0,1,0,.68l-5.12.57a1,1,0,0,0-.92,1l-.59,6.52a.36.36,0,0,1-.35.32A.34.34,0,0,1,74.09,226.48Zm2.13-8.6a1.74,1.74,0,0,1-1.54-1.57l-.25-2.71-.24,2.71h0a1.74,1.74,0,0,1-1.54,1.57l-2,.22,2,.22a1.74,1.74,0,0,1,1.54,1.58l.24,2.7.25-2.71a1.74,1.74,0,0,1,1.54-1.57l2-.22Z" style="fill:#D30E45"></path></g><g id="freepik--shine--inject-2" style="opacity:0.5"><path d="M55.45,212.1l-.74-8.19a1.33,1.33,0,0,0-1.17-1.19L47.12,202a.44.44,0,0,1-.39-.43.43.43,0,0,1,.39-.43l6.42-.72a1.31,1.31,0,0,0,1.17-1.18l.74-8.2a.42.42,0,0,1,.43-.39.43.43,0,0,1,.43.39l.74,8.2a1.31,1.31,0,0,0,1.16,1.18l6.43.72a.43.43,0,0,1,.39.43.44.44,0,0,1-.39.43l-6.43.71a1.33,1.33,0,0,0-1.16,1.19l-.74,8.19a.43.43,0,0,1-.43.4A.42.42,0,0,1,55.45,212.1Zm2.67-10.8a2.19,2.19,0,0,1-1.94-2l-.3-3.39-.31,3.39h0a2.18,2.18,0,0,1-1.93,2l-2.52.28,2.52.28a2.18,2.18,0,0,1,1.93,2l.31,3.39.3-3.39a2.19,2.19,0,0,1,1.94-2l2.51-.28Z" style="fill:#D30E45"></path></g><g id="freepik--shine--inject-2" style="opacity:0.5"><path d="M85.22,134.92l-.59-6.53a1.05,1.05,0,0,0-.93-.94l-5.11-.57a.35.35,0,0,1,0-.69l5.11-.57a1.05,1.05,0,0,0,.93-.94l.59-6.53a.33.33,0,0,1,.34-.31.35.35,0,0,1,.35.31l.58,6.53a1.05,1.05,0,0,0,.93.94l5.12.57a.35.35,0,0,1,0,.69l-5.12.57a1.05,1.05,0,0,0-.93.94l-.58,6.53a.35.35,0,0,1-.35.31A.33.33,0,0,1,85.22,134.92Zm2.13-8.61a1.76,1.76,0,0,1-1.55-1.57l-.24-2.7-.24,2.7h0a1.76,1.76,0,0,1-1.54,1.57l-2,.23,2,.22a1.76,1.76,0,0,1,1.54,1.57l.24,2.7.24-2.7a1.76,1.76,0,0,1,1.55-1.57l2-.22Z" style="fill:#D30E45"></path></g><g id="freepik--shine--inject-2" style="opacity:0.5"><path d="M47.52,70l-.59-6.52a1,1,0,0,0-.93-.95L40.89,62a.34.34,0,0,1,0-.68L46,60.7a1,1,0,0,0,.93-1l.59-6.52a.35.35,0,0,1,.69,0l.59,6.52a1,1,0,0,0,.93,1l5.11.57a.34.34,0,0,1,0,.68l-5.11.57a1,1,0,0,0-.93.95L48.21,70a.35.35,0,0,1-.69,0Zm2.13-8.6a1.74,1.74,0,0,1-1.54-1.58l-.25-2.7-.24,2.7h0a1.74,1.74,0,0,1-1.54,1.57l-2,.22,2,.22a1.74,1.74,0,0,1,1.54,1.57l.24,2.71.25-2.71a1.74,1.74,0,0,1,1.54-1.57l2-.22Z" style="fill:#D30E45"></path></g><g id="freepik--shine--inject-2" style="opacity:0.5"><path d="M157.16,68.44l-.75-8.36a1.35,1.35,0,0,0-1.19-1.21l-6.54-.72a.45.45,0,0,1-.4-.44.44.44,0,0,1,.4-.44l6.54-.73a1.34,1.34,0,0,0,1.19-1.21l.75-8.35a.44.44,0,0,1,.44-.4.43.43,0,0,1,.44.4l.76,8.35A1.32,1.32,0,0,0,160,56.54l6.54.73a.44.44,0,0,1,.4.44.45.45,0,0,1-.4.44l-6.54.72a1.33,1.33,0,0,0-1.19,1.21L158,68.44a.44.44,0,0,1-.44.4A.44.44,0,0,1,157.16,68.44Zm2.73-11a2.24,2.24,0,0,1-2-2L157.6,52l-.31,3.46h0a2.24,2.24,0,0,1-2,2l-2.56.28,2.56.28a2.23,2.23,0,0,1,2,2l.31,3.46.32-3.46a2.23,2.23,0,0,1,2-2l2.56-.28Z" style="fill:#D30E45"></path></g><g id="freepik--shine--inject-2" style="opacity:0.5"><path d="M108.27,122.73l-.88-9.72A1.55,1.55,0,0,0,106,111.6l-7.62-.85a.51.51,0,0,1,0-1l7.62-.84a1.56,1.56,0,0,0,1.38-1.41l.88-9.73a.52.52,0,0,1,.51-.47.53.53,0,0,1,.52.47l.87,9.72a1.58,1.58,0,0,0,1.39,1.42l7.62.84a.51.51,0,0,1,0,1l-7.62.85a1.57,1.57,0,0,0-1.39,1.41l-.87,9.72a.52.52,0,0,1-.52.47A.51.51,0,0,1,108.27,122.73Zm3.17-12.82a2.59,2.59,0,0,1-2.29-2.34l-.37-4-.36,4h0a2.6,2.6,0,0,1-2.3,2.34l-3,.33,3,.33a2.61,2.61,0,0,1,2.3,2.34l.36,4,.37-4a2.6,2.6,0,0,1,2.29-2.34l3-.33Z" style="fill:#D30E45"></path></g><g id="freepik--shine--inject-2" style="opacity:0.5"><path d="M427.89,224.84,427,214.65a1.63,1.63,0,0,0-1.45-1.47l-8-.89a.54.54,0,0,1,0-1.07l8-.89a1.64,1.64,0,0,0,1.45-1.47l.91-10.2a.54.54,0,0,1,.54-.49.54.54,0,0,1,.54.49l.92,10.19a1.63,1.63,0,0,0,1.45,1.48l8,.89a.54.54,0,0,1,0,1.07l-8,.89a1.63,1.63,0,0,0-1.45,1.47L429,224.84a.54.54,0,0,1-.54.5A.55.55,0,0,1,427.89,224.84Zm3.33-13.43a2.73,2.73,0,0,1-2.41-2.46l-.38-4.22-.38,4.22h0a2.72,2.72,0,0,1-2.4,2.46l-3.13.34,3.13.35a2.72,2.72,0,0,1,2.4,2.46l.38,4.22.38-4.23a2.73,2.73,0,0,1,2.41-2.45l3.13-.35Z" style="fill:#D30E45"></path></g></g></g></svg>
