<svg xmlns="http://www.w3.org/2000/svg" viewBox="0 0 500 500"><g id="freepik--background-complete--inject-15"><path d="M244.61,185.12a26.92,26.92,0,0,1-6.29,2.66c-2.79.6-8.28-2.19-11.84-3.92l2.39-.26s-8.67-2.59-9.93-3.55-5.28-5.23-5.28-5.23l3.58.21s-4.46-3.86-7.51-7a35.56,35.56,0,0,1-4.42-5.42l6.07-1.08s-5-5.26-6.43-7.35a12.18,12.18,0,0,1-1.79-4.37l3.2,2.11S203,144,201.78,139.8s-1.57-16-1.57-16l2,2.79s-1.92-7.23-2.07-10l1.47,1.71s-.43-7.06.15-10.48l1.06,1.58.23-7.52,1.43,2.37.47-8.31L206,97.48l1.12-7.27s6.94,4,8.48,5l-2.37-2.64a53.37,53.37,0,0,1,5.84,3,49.62,49.62,0,0,1,5.1,4.23l-2.05-3a89.7,89.7,0,0,1,7.5,4.94c1.7,1.45,7.22,7.18,7.22,7.18l-1.24-3s5.58,5,8,8.31l-.81-2.77a23.44,23.44,0,0,1,6.28,8.19l-.19-2.29s5,5.56,7.1,11.45l0-3.29a39.44,39.44,0,0,1,4.74,13.84l.85-2.56a31.25,31.25,0,0,1,2.27,11.94l1.48-3.37a73.27,73.27,0,0,1-.68,14.61l1.67-2.29s-2.5,9.48-3.25,11.09-2.29,4.27-2.29,4.27l2.4-2.77s-3.46,7.56-6.12,10.43S244.61,185.12,244.61,185.12Z" style="fill:#ebebeb"></path><path d="M226.48,183.86c3.56,1.72,9.05,4.53,11.84,3.91a26.62,26.62,0,0,0,6.29-2.65s9.78-1.5,12.43-4.37,6.13-10.44,6.13-10.44l-2.4,2.77s1.53-2.66,2.27-4.27,3.26-11.09,3.26-11.09L264.63,160a73.27,73.27,0,0,0,.68-14.61l-1.48,3.37a31.25,31.25,0,0,0-2.27-11.94l-.85,2.56A39.44,39.44,0,0,0,256,125.55l0,3.29a34.58,34.58,0,0,0-4.14-7.64c1.1,5.77,12.46,21.49,6,41.93-2.07,6.53-7.29,13.35-15.84,15.46s-13.39-6.92-18.66-9S203.17,143.3,201,135.15a32,32,0,0,0,.79,4.65c1.18,4.17,4.58,12.11,4.58,12.11l-3.21-2.11a12.32,12.32,0,0,0,1.8,4.37c1.43,2.09,6.43,7.35,6.43,7.35l-6.07,1.08a34.79,34.79,0,0,0,4.42,5.42c3,3.16,7.51,7,7.51,7l-3.58-.21s4,4.27,5.28,5.23,9.92,3.55,9.92,3.55Z" style="fill:#dbdbdb"></path><path d="M244.61,185.12l-8-22.15c-1.36-3.68-2.67-7.38-4.08-11s-3-7.23-4.56-10.84l-9.18-21.69-4.51-10.88-4.42-10.92,4.87,10.73,4.77,10.77,9.39,21.6c1.52,3.63,3.14,7.2,4.49,10.9s2.7,7.39,3.95,11.11Q241.13,173.87,244.61,185.12Z" style="fill:#c7c7c7"></path><path d="M241.24,175.18l2.63-4.27c.89-1.42,1.76-2.84,2.61-4.28s1.69-2.86,2.49-4.32a47.25,47.25,0,0,0,2.28-4.41,45.19,45.19,0,0,0,2.64-9.52c.31-1.64.57-3.28.78-4.94s.43-3.31.61-5a64.81,64.81,0,0,1-.63,10,38.83,38.83,0,0,1-2.48,9.81,69.08,69.08,0,0,1-5,8.73C245.27,169.84,243.34,172.57,241.24,175.18Z" style="fill:#c7c7c7"></path><path d="M228.22,140.05l2.62-7.56c.82-2.53,1.71-5.06,2.31-7.6a23.56,23.56,0,0,0,.52-3.87c.1-1.32.11-2.64.12-4s0-2.66-.12-4-.15-2.66-.24-4a49.43,49.43,0,0,1,1.13,8,29.67,29.67,0,0,1-.43,8.08,57.6,57.6,0,0,1-2.57,7.64C230.55,135.23,229.47,137.68,228.22,140.05Z" style="fill:#c7c7c7"></path><path d="M222.44,127.31l1.52-5.76c.24-1,.49-1.91.71-2.87a24.93,24.93,0,0,0,.57-2.86,25.12,25.12,0,0,0-.14-5.8q-.36-2.92-.9-5.86a31.49,31.49,0,0,1,1.67,5.74,20,20,0,0,1,.36,6,34.2,34.2,0,0,1-1.53,5.83A50.9,50.9,0,0,1,222.44,127.31Z" style="fill:#c7c7c7"></path><path d="M206.58,114.9l3.57,4c1.19,1.32,2.37,2.7,3.64,3.86a21.42,21.42,0,0,0,4.39,2.83q2.37,1.2,4.85,2.28a26.9,26.9,0,0,1-5.18-1.57,17.34,17.34,0,0,1-4.73-2.79,32.05,32.05,0,0,1-3.57-4.11A40.92,40.92,0,0,1,206.58,114.9Z" style="fill:#c7c7c7"></path><path d="M235.24,158.26l2.11-4.64q1.08-2.31,2.09-4.65c.67-1.56,1.35-3.11,2-4.68s1.28-3.14,1.74-4.73a29.9,29.9,0,0,0,1-4.91c.23-1.66.36-3.34.47-5s.15-3.38.16-5.08,0-3.39,0-5.09a66.78,66.78,0,0,1,.64,10.2,38.46,38.46,0,0,1-1.29,10.2,72.9,72.9,0,0,1-4,9.45C238.62,152.35,237,155.35,235.24,158.26Z" style="fill:#c7c7c7"></path><path d="M241,173.05a36.27,36.27,0,0,1-8.32-.32,21,21,0,0,1-4.09-1,14.85,14.85,0,0,1-3.75-2c-2.27-1.62-4.44-3.35-6.54-5.15l-3.12-2.73c-1-1-2-1.88-3-2.86l3.33,2.48,3.29,2.51c2.21,1.66,4.39,3.36,6.63,4.93a18.16,18.16,0,0,0,7.41,3.08c1.34.29,2.69.51,4.06.67S239.63,173,241,173.05Z" style="fill:#c7c7c7"></path><path d="M231.1,147.32a34.12,34.12,0,0,1-6.12-2.8,24,24,0,0,1-2.84-1.87,22.22,22.22,0,0,1-2.49-2.35q-2.28-2.46-4.4-5.07l-2.08-2.63c-.67-.9-1.36-1.79-2-2.71.81.78,1.57,1.6,2.36,2.39l2.29,2.44,4.55,4.9a23,23,0,0,0,2.35,2.29c.84.7,1.75,1.33,2.65,2s1.86,1.22,2.82,1.78S230.13,146.77,231.1,147.32Z" style="fill:#c7c7c7"></path><path d="M236.18,160a38.69,38.69,0,0,1-8.13-1.76,23.4,23.4,0,0,1-3.88-1.62,19.25,19.25,0,0,1-3.46-2.44c-2.11-1.81-4.13-3.7-6.08-5.65l-2.91-3c-.93-1-1.89-2-2.8-3.07,1.07.89,2.09,1.81,3.14,2.71l3.1,2.76c2.07,1.82,4.1,3.68,6.2,5.45a18.63,18.63,0,0,0,3.27,2.37,29.46,29.46,0,0,0,3.68,1.73c1.27.51,2.57,1,3.89,1.35S234.84,159.67,236.18,160Z" style="fill:#c7c7c7"></path><path d="M236.7,129.68a18.17,18.17,0,0,1,3.39,3.72,11.51,11.51,0,0,1,1.2,2.28,6.66,6.66,0,0,1,.45,2.6,41.56,41.56,0,0,1-.32,5,43.41,43.41,0,0,1-.85,4.93c0-1.67,0-3.33.07-5s.12-3.3.1-4.93a8.52,8.52,0,0,0-1.32-4.48A38.67,38.67,0,0,0,236.7,129.68Z" style="fill:#c7c7c7"></path><path d="M250.58,182.93c-1.22.85-.66,7.29-.34,8.58s-.49,9.41,1.87,13.8c1.84,3.43,5.24,15,5.19,14.52s3.73-6,5.63-7.92,2.81-7.1,2.81-7.1l5.79,8.08s-5.68,1.61-6.22,2.07-5.23,5.28-5.82,7.66-1.43,4.92-1.43,5.54,5.74,23.6,5.86,29.71-9.2,36.92-9.22,38.67,1.48,5.1,1.4,5.78-2.72-1.23-4.19-2.37-1.78-5-2.1-5.28,2.31-2.63,3-6.06,9.36-25.63,8.11-30.86-6.4-27.57-6.51-30.66-.18-6.3-.17-6.87-6.58-14.55-6.71-16.31,0-11.18-.71-13,.44-5.07-.58-5.81a17.05,17.05,0,0,1-2.3-2.22Z" style="fill:#dbdbdb"></path><path d="M263.9,258.48c.58-2.07,2.6-8,3.53-9.11s5.63,1,5.63,1l.72-6.92s-5.72,0-7.18,2.22-2.84,5.08-3.5,5.92S263.9,258.48,263.9,258.48Z" style="fill:#dbdbdb"></path><path d="M271.89,244.78a22.13,22.13,0,0,1,1.22-5.2c.88-2,5-4.17,7.67-5.59l-.91,1.62s5.06-2.28,6.2-2.61,5.52-.85,5.52-.85l-1.73,2.15s5.55-1.11,8.81-1.54a24.93,24.93,0,0,1,5.25-.21l-2.9,2.51s4.72-.05,6.62,0a8.94,8.94,0,0,1,3.44.93l-2.71,1s6.75,1.72,10.46,7.11l-2.56-.08a60.11,60.11,0,0,1,6.94,3.41l-1.69.12a49.72,49.72,0,0,1,6.26,5l-1.43-.08,4.43,3.69-2.07-.22,4.8,4.22h-1.39l3.46,2.36s-5.07,4.27-6.37,4.75l2.66-.24a38.87,38.87,0,0,1-4.45,2.24,36.89,36.89,0,0,1-4.83,1.21l2.71.11a67.44,67.44,0,0,1-6.34,2.39c-1.63.37-6.87,1.86-6.87,1.86l2.36.63a21.9,21.9,0,0,1-13.72,2.93l2,1.52a28.82,28.82,0,0,1-10.47-3.56l1.17,1.75A23.22,23.22,0,0,1,285.2,274l1.37,2.52a56.36,56.36,0,0,1-8.5-7.33l.63,2.13s-4.6-6-5.23-7.27-1.55-3.45-1.55-3.45l.59,2.81s-3-5.74-3.55-8.76S271.89,244.78,271.89,244.78Z" style="fill:#ebebeb"></path><path d="M333.51,260.26h-1.4l3.47,2.36s-5.08,4.27-6.37,4.76l2.66-.24a37.72,37.72,0,0,1-4.45,2.23,35.25,35.25,0,0,1-4.83,1.21l2.69.12a63.42,63.42,0,0,1-6.31,2.38c-1.6.36-6.55,1.78-6.86,1.86l2.34.64a21.89,21.89,0,0,1-13.72,2.91l2,1.52a28.68,28.68,0,0,1-10.47-3.55l1.17,1.74A23.22,23.22,0,0,1,285.2,274l1.38,2.52a55.83,55.83,0,0,1-8.51-7.32l.62,2.11c-.27-.34-4.61-6.07-5.22-7.26s-1.44-3.16-1.54-3.42l.57,2.77c-.17-.34-3-5.82-3.53-8.74s2.71-9.44,2.92-9.85c-.67,2.39,2.62,9.09,4.74,11.85s9.19,12.16,14.71,12.78,14,3.86,18.76,1.54,15.08-5.32,17.31-6.41a39.76,39.76,0,0,1,5.5-2.06l-1.7-4.27Z" style="fill:#dbdbdb"></path><path d="M271.2,247.15l7.9,2.13,7.88,2.18c2.64.7,5.26,1.46,7.89,2.14s5.31,1.2,8,1.79c5.32,1.2,10.64,2.37,16,3.62l8,1.89c2.65.66,5.3,1.29,7.94,2-2.69-.47-5.36-1-8-1.51l-8-1.62c-5.35-1.1-10.68-2.27-16-3.4-2.66-.62-5.33-1.15-8-1.88s-5.26-1.47-7.87-2.28C281.55,250.6,276.36,248.94,271.2,247.15Z" style="fill:#c7c7c7"></path><path d="M278.15,249.25l2.39,6.26c.42,1,.81,2.07,1.24,3.09a30.24,30.24,0,0,0,1.37,3,29.5,29.5,0,0,0,4,5.23c.74.83,1.5,1.63,2.3,2.41s1.57,1.58,2.37,2.37a38.54,38.54,0,0,1-5.22-4.24,23.15,23.15,0,0,1-4.28-5.29,40.63,40.63,0,0,1-2.47-6.31A60.26,60.26,0,0,1,278.15,249.25Z" style="fill:#c7c7c7"></path><path d="M303.22,256.09c1,1.47,2,3,3,4.42s2,3,3.12,4.28a24.73,24.73,0,0,0,3.94,3.45q2.15,1.56,4.4,3a28,28,0,0,1-4.84-2.4,18.39,18.39,0,0,1-4.26-3.44,31.77,31.77,0,0,1-3-4.52A41.67,41.67,0,0,1,303.22,256.09Z" style="fill:#c7c7c7"></path><path d="M312.79,258c.88,1,1.73,2.06,2.56,3.1s1.68,2.09,2.57,3a18,18,0,0,0,3.18,2.21q1.72,1,3.51,1.92a18.63,18.63,0,0,1-3.86-1.22,12.82,12.82,0,0,1-3.52-2.18,20.49,20.49,0,0,1-2.51-3.23A25,25,0,0,1,312.79,258Z" style="fill:#c7c7c7"></path><path d="M326.76,254.2c-1.29.19-2.56.36-3.83.49s-2.56.27-3.75.51a18.59,18.59,0,0,0-3.5,1.25c-1.15.52-2.31,1.07-3.48,1.62a17.62,17.62,0,0,1,3.12-2.31,12.52,12.52,0,0,1,3.66-1.54,20.74,20.74,0,0,1,3.91-.3A25.19,25.19,0,0,1,326.76,254.2Z" style="fill:#c7c7c7"></path><path d="M290.1,252.69l3.27,6c.56,1,1.1,2,1.68,2.95a23.42,23.42,0,0,0,6.5,7.57c.86.74,1.75,1.44,2.65,2.12s1.81,1.38,2.73,2.06a38.93,38.93,0,0,1-5.85-3.57,24.16,24.16,0,0,1-5-4.76,40.1,40.1,0,0,1-3.35-6A60.18,60.18,0,0,1,290.1,252.69Z" style="fill:#c7c7c7"></path><path d="M279.41,250a26,26,0,0,1,3.89-4.56,17.6,17.6,0,0,1,2.4-1.88,12.2,12.2,0,0,1,2.81-1.27,70.94,70.94,0,0,1,11.68-2.54c-1.89.63-3.79,1.23-5.69,1.78s-3.81,1.11-5.68,1.71a14.34,14.34,0,0,0-5,2.79A54.74,54.74,0,0,0,279.41,250Z" style="fill:#c7c7c7"></path><path d="M297.94,254.78a23.3,23.3,0,0,1,4.22-2.37,18,18,0,0,1,2.3-.83,15.86,15.86,0,0,1,2.42-.46,58.34,58.34,0,0,1,9.62-.35c-3.16.62-6.34,1-9.5,1.34a20.06,20.06,0,0,0-4.56,1Q300.19,253.89,297.94,254.78Z" style="fill:#c7c7c7"></path><path d="M288.71,252.51a27.84,27.84,0,0,1,4.57-3.88,19.49,19.49,0,0,1,2.63-1.51,15.46,15.46,0,0,1,2.91-1,77.35,77.35,0,0,1,11.82-1.68q-2.89.76-5.8,1.38c-1.93.44-3.88.83-5.79,1.28a17.25,17.25,0,0,0-5.36,2.14C292,250.28,290.34,251.36,288.71,252.51Z" style="fill:#c7c7c7"></path><path d="M305,264.88a11.31,11.31,0,0,1-3.43.51,8.35,8.35,0,0,1-1.78-.19,4.63,4.63,0,0,1-1.71-.76,23.82,23.82,0,0,1-2.64-2.24,23.23,23.23,0,0,1-2.29-2.57c1,.62,1.89,1.29,2.8,2s1.8,1.39,2.7,2a6.17,6.17,0,0,0,3,1C302.73,264.76,303.86,264.82,305,264.88Z" style="fill:#c7c7c7"></path><path d="M266.59,208.54a26.47,26.47,0,0,1-2.71-6.06c-.66-2.74,1.81-8.43,3.33-12.11l.32,2.36s3.25-6.65,4.12-8,4.78-5.66,4.78-5.66l-.09,3.58s4.6-5.95,7.49-9.23a35.32,35.32,0,0,1,5-4.82l-1,5s4.81-5.4,6.74-7a11.84,11.84,0,0,1,4.07-2.13l-1.89,3.36s3.07-1,7-2.48,15-2.8,15-2.8l-2.57,2.19s6.78-2.49,9.36-2.85l-1.57,1.6s6.67-1,9.91-.66L332.45,164l7.11-.36-2.19,1.62,7.86-.18-1.36,1.23,6.9.56s-3.51,7.22-4.42,8.83l2.43-2.57a57.71,57.71,0,0,1-2.68,6.06,52.94,52.94,0,0,1-3.84,5.41l2.75-2.27s-3.11,6.06-4.43,7.86S334,198,334,198l2.78-1.46a74.15,74.15,0,0,1-7.6,8.62l2.59-1s-1.28,7.71-11.65,11.47l3.1-.31a38,38,0,0,1-12.92,5.8l2.44.65a29.25,29.25,0,0,1-11.21,3.19l3.23,1.22a65.85,65.85,0,0,1-13.83.45l2.22,1.49s-9-1.76-10.59-2.39-4.1-1.94-4.1-1.94l2.69,2.18s-7.26-2.88-10.05-5.3S266.59,208.54,266.59,208.54Z" style="fill:#ebebeb"></path><path d="M293.17,228,291,226.55a65.73,65.73,0,0,0,13.82-.45l-3.23-1.22a29.46,29.46,0,0,0,11.22-3.19l-2.44-.65a38,38,0,0,0,12.92-5.8l-3.1.31c10.36-3.76,11.65-11.47,11.65-11.47l-2.59,1a75.86,75.86,0,0,0,7.6-8.63L334,198s5.24-5.95,6.56-7.75,4.24-7.49,4.41-7.85l-2.71,2.25a56,56,0,0,0,3.82-5.4,58.68,58.68,0,0,0,2.68-6.06l-2.42,2.57c.87-1.57,4.2-8.39,4.4-8.81-.38.45-9.55,11.33-11.82,13.19s-6.57,9.36-8.53,14.33-12.57,11.72-16.66,14.05-19.34,10.45-23.49,11-16.73-2.37-18.27-4.81-7.26-9.75-8.11-12.18a26.47,26.47,0,0,0,2.71,6.06s1.73,9.63,4.53,12.05,9.6,5.12,10,5.28l-2.65-2.14c.29.14,2.64,1.34,4.08,1.92S293.17,228,293.17,228Z" style="fill:#dbdbdb"></path><path d="M266.59,208.54l10.74-4.69q5.39-2.34,10.71-4.76c3.56-1.62,7.12-3.22,10.55-5.06l10.3-5.59c6.89-3.68,13.75-7.43,20.68-11.06s13.83-7.29,20.79-10.85c-6.78,3.89-13.61,7.7-20.45,11.49s-13.71,7.52-20.56,11.28L299,194.87c-3.49,1.82-7.07,3.41-10.65,5Q277.58,204.46,266.59,208.54Z" style="fill:#c7c7c7"></path><path d="M270.47,207.7l4.53,2.54c1.51.85,3,1.68,4.55,2.49s3.05,1.61,4.6,2.37a48.69,48.69,0,0,0,4.68,2.11,43.75,43.75,0,0,0,10,2c1.71.19,3.43.33,5.16.41s3.45.16,5.18.2a65.75,65.75,0,0,1-10.41.16,37.3,37.3,0,0,1-10.31-1.86,67.29,67.29,0,0,1-9.31-4.74C276.19,211.62,273.27,209.75,270.47,207.7Z" style="fill:#c7c7c7"></path><path d="M298,195l4.13.56c1.37.2,2.74.39,4.12.56s2.74.33,4.11.46a41.08,41.08,0,0,0,4.1.27,36.33,36.33,0,0,0,8.1-1.17c1.34-.3,2.68-.66,4-1.05s2.66-.78,4-1.2a51.47,51.47,0,0,1-7.8,3,30.09,30.09,0,0,1-8.3,1.42,53.67,53.67,0,0,1-8.33-1A83.25,83.25,0,0,1,298,195Z" style="fill:#c7c7c7"></path><path d="M314.29,185.92l6.18.64c1,.09,2.06.2,3.08.25a24,24,0,0,0,3,.09,26.58,26.58,0,0,0,5.94-1.26q2.93-.94,5.84-2.07a33.46,33.46,0,0,1-5.58,2.8,21,21,0,0,1-6.15,1.53,34.25,34.25,0,0,1-6.27-.57A49.13,49.13,0,0,1,314.29,185.92Z" style="fill:#c7c7c7"></path><path d="M332.23,164.47l-4.11,4.26c-1.34,1.43-2.75,2.84-3.92,4.34a26.16,26.16,0,0,0-2.79,5.07c-.79,1.79-1.52,3.62-2.21,5.48a32.8,32.8,0,0,1,1.48-5.77,20.64,20.64,0,0,1,2.72-5.38,37,37,0,0,1,4.18-4.3A50.29,50.29,0,0,1,332.23,164.47Z" style="fill:#c7c7c7"></path><path d="M282.34,202l4.93,1.94c1.64.65,3.28,1.29,4.93,1.9s3.3,1.21,5,1.77a49.27,49.27,0,0,0,5,1.49,45.16,45.16,0,0,0,10.41.7c1.76,0,3.51-.14,5.27-.29s3.51-.3,5.26-.49a69.65,69.65,0,0,1-10.49,1.55A38.59,38.59,0,0,1,302,210a69.12,69.12,0,0,1-10.05-3.53C288.66,205.13,285.46,203.64,282.34,202Z" style="fill:#c7c7c7"></path><path d="M272.68,207.27a42.16,42.16,0,0,1,.09-9.19,24.81,24.81,0,0,1,.92-4.55,17.43,17.43,0,0,1,2-4.24q2.41-3.91,5.15-7.6l2.75-3.66c.95-1.2,1.88-2.41,2.88-3.57L284,178.31l-2.52,3.82c-1.66,2.56-3.36,5.09-4.93,7.68a21.48,21.48,0,0,0-3,8.38c-.27,1.49-.45,3-.57,4.51S272.73,205.74,272.68,207.27Z" style="fill:#c7c7c7"></path><path d="M299.2,194.16a40.84,40.84,0,0,1,2.71-6.9,28.29,28.29,0,0,1,1.85-3.25,25.65,25.65,0,0,1,2.35-2.92q2.5-2.73,5.17-5.29l2.69-2.54c.92-.81,1.82-1.65,2.78-2.44-.8,1-1.63,1.86-2.43,2.79l-2.49,2.73-5,5.42a26.29,26.29,0,0,0-2.31,2.79c-.71,1-1.33,2-2,3.07s-1.19,2.14-1.74,3.23S299.74,193.05,299.2,194.16Z" style="fill:#c7c7c7"></path><path d="M286.12,200.84a46.63,46.63,0,0,1,1.58-9.05,28,28,0,0,1,1.56-4.36,22,22,0,0,1,2.41-4c1.82-2.47,3.73-4.85,5.71-7.17l3-3.46c1-1.12,2.05-2.26,3.12-3.36-.89,1.24-1.83,2.45-2.74,3.67L298,176.76c-1.84,2.43-3.72,4.83-5.5,7.28a25.7,25.7,0,0,0-4.05,8c-.49,1.43-.91,2.89-1.28,4.36S286.44,199.34,286.12,200.84Z" style="fill:#c7c7c7"></path><path d="M323.84,202.6a31.7,31.7,0,0,1-5.84-.26,26.22,26.22,0,0,1-2.89-.54,23.63,23.63,0,0,1-2.8-1,87,87,0,0,1-10.46-5.09c3.69,1.23,7.26,2.72,10.84,4.16a27.48,27.48,0,0,0,5.45,1.66C320,202,321.92,202.3,323.84,202.6Z" style="fill:#c7c7c7"></path><path d="M123.67,343.18a26.92,26.92,0,0,0,4.16-5.41c1.3-2.54,0-8.56-.77-12.45l-.86,2.24s-.29-9-.9-10.5-3.71-6.43-3.71-6.43l-.71,3.51s-2.59-5.3-4.86-9.05a35.13,35.13,0,0,0-4.11-5.65l-2.6,5.59s-3.81-6.19-5.46-8.09a12.18,12.18,0,0,0-3.77-2.85l1.22,3.63s-6.81-5.31-10.54-7.52-15-5.58-15-5.58l2.19,2.62s-6.5-3.71-9.12-4.55l1.28,1.86s-6.72-2.22-10.17-2.53l1.25,1.43-7.32-1.7,1.92,2-8.15-1.66,1.14,1.46-7.31-.77s2.05,7.72,2.63,9.46l-2-3a53.42,53.42,0,0,0,1.44,6.43,50.6,50.6,0,0,0,2.79,6L44,299s1.88,6.5,2.85,8.51S52,316.28,52,316.28l-2.57-2s3.37,6.65,6,9.85l-2.47-1.49a23.42,23.42,0,0,0,6.32,8.16l-2.17-.76s4.12,6.2,9.26,9.78L63.16,339a39.23,39.23,0,0,0,12.18,8.11l-2.7.17a31.23,31.23,0,0,0,11,5.25l-3.63.57a72.65,72.65,0,0,0,14.3,3.06l-2.64,1s9.81,0,11.55-.32,4.71-1.13,4.71-1.13l-3.29,1.62s8.2-1.42,11.65-3.26S123.67,343.18,123.67,343.18Z" style="fill:#ebebeb"></path><path d="M127.06,325.33c.76,3.87,2.08,9.9.77,12.44a27.25,27.25,0,0,1-4.16,5.41s-4,9.07-7.41,10.9-11.65,3.27-11.65,3.27l3.29-1.62s-3,.8-4.71,1.11-11.55.32-11.55.32l2.64-1A72.51,72.51,0,0,1,80,353.06l3.64-.56a31.29,31.29,0,0,1-11-5.24l2.7-.18A39.39,39.39,0,0,1,63.16,339l3.17.89A34.5,34.5,0,0,1,60,333.91c5.29,2.54,17.6,17.53,39,16.46,6.84-.34,14.77-3.65,19-11.39s-3.29-14.7-3.93-20.32-20.3-26.21-27.63-30.41a32,32,0,0,1,4.3,2c3.73,2.2,10.54,7.51,10.54,7.51l-1.22-3.63a12.18,12.18,0,0,1,3.77,2.85c1.65,1.91,5.46,8.09,5.46,8.09l2.6-5.59a35.13,35.13,0,0,1,4.11,5.65c2.28,3.74,4.86,9.05,4.86,9.05l.71-3.52s3.11,5,3.71,6.44.91,10.5.91,10.5Z" style="fill:#dbdbdb"></path><path d="M123.67,343.18q-10-6.23-19.81-12.76c-3.28-2.16-6.52-4.39-9.73-6.65s-6.28-4.74-9.4-7.12L66.24,302.06,57,294.7l-9.13-7.44,9.43,7.05,9.37,7.14,18.63,14.41c3.1,2.4,6.13,4.91,9.32,7.17s6.42,4.5,9.63,6.76Z" style="fill:#c7c7c7"></path><path d="M114.91,337.38c-3.06,1.36-6.2,2.54-9.37,3.62a69.48,69.48,0,0,1-9.73,2.65,38.08,38.08,0,0,1-10.12-.1,66.14,66.14,0,0,1-9.86-1.95c1.66.25,3.31.5,5,.68s3.31.39,5,.5a45.27,45.27,0,0,0,9.88-.12,48.8,48.8,0,0,0,4.84-1.08c1.62-.4,3.22-.87,4.82-1.31s3.21-.94,4.8-1.43Z" style="fill:#c7c7c7"></path><path d="M84.26,315.84c-2.61.6-5.25,1-7.91,1.36a55,55,0,0,1-8,.54,29.77,29.77,0,0,1-7.92-1.64A49.11,49.11,0,0,1,53,313c1.26.43,2.52.87,3.8,1.25s2.53.8,3.82,1.13,2.56.66,3.86.9a23.38,23.38,0,0,0,3.88.48c2.61.07,5.28-.15,7.93-.3Z" style="fill:#c7c7c7"></path><path d="M73.41,307a47.23,47.23,0,0,1-5.92.77,33.62,33.62,0,0,1-6,0,19.79,19.79,0,0,1-5.76-1.89,31.28,31.28,0,0,1-5.13-3.08c1.8.84,3.61,1.64,5.44,2.36a24.7,24.7,0,0,0,5.57,1.62,25.26,25.26,0,0,0,2.91.18c1,0,2,0,3,0Z" style="fill:#c7c7c7"></path><path d="M65.46,288.5a41.74,41.74,0,0,1,3.61,4,32.08,32.08,0,0,1,3.06,4.5,17.11,17.11,0,0,1,1.49,5.29,26.5,26.5,0,0,1,.21,5.41c-.28-1.78-.6-3.54-1-5.27a21.11,21.11,0,0,0-1.61-5c-.8-1.53-1.83-3-2.8-4.5Z" style="fill:#c7c7c7"></path><path d="M100.08,327.27c-3.27,1-6.58,1.76-9.92,2.44A71.29,71.29,0,0,1,80,331.16a38.28,38.28,0,0,1-10.19-1.36,66.79,66.79,0,0,1-9.7-3.21c1.63.46,3.27.93,4.92,1.32s3.29.82,4.95,1.14,3.32.64,5,.83a28.93,28.93,0,0,0,5,.28c1.65,0,3.35-.27,5-.48s3.35-.47,5-.72,3.35-.54,5-.83Z" style="fill:#c7c7c7"></path><path d="M112.91,336.62c.26-1.36.5-2.72.66-4.09s.33-2.73.39-4.09a17.94,17.94,0,0,0-1.09-7.95c-1-2.57-2-5.11-3.07-7.67L108.21,309l-1.55-3.85c.7,1.2,1.33,2.43,2,3.65l1.85,3.72c1.21,2.49,2.32,5,3.31,7.63a14.82,14.82,0,0,1,1,4.14,21.14,21.14,0,0,1-.08,4.21A36.25,36.25,0,0,1,112.91,336.62Z" style="fill:#c7c7c7"></path><path d="M90.56,320.48c-.29-1.09-.56-2.17-.88-3.24s-.63-2.13-1-3.17S87.93,312,87.46,311a22.58,22.58,0,0,0-1.62-2.85l-3.57-5.65-1.78-2.84c-.57-1-1.16-1.91-1.71-2.89.73.85,1.41,1.74,2.11,2.61l2,2.69q2,2.7,3.79,5.55a21.58,21.58,0,0,1,1.63,3,23.93,23.93,0,0,1,1.09,3.22A35,35,0,0,1,90.56,320.48Z" style="fill:#c7c7c7"></path><path d="M101.54,328.63c0-1.39,0-2.76-.07-4.14s-.15-2.75-.32-4.1a29.52,29.52,0,0,0-.73-4A19,19,0,0,0,99,312.62c-1.18-2.48-2.46-4.92-3.7-7.39l-1.87-3.69c-.6-1.25-1.24-2.48-1.82-3.73.78,1.14,1.5,2.32,2.25,3.49l2.12,3.56q2.1,3.58,3.92,7.33a19.56,19.56,0,0,1,1.48,4,24.62,24.62,0,0,1,.58,4.17A39.13,39.13,0,0,1,101.54,328.63Z" style="fill:#c7c7c7"></path><path d="M72.07,321.4a38.91,38.91,0,0,0,3.3,3.68,8.66,8.66,0,0,0,4,2.42c1.57.43,3.19.77,4.8,1.16s3.23.76,4.84,1.2a43.65,43.65,0,0,1-5-.44,39.94,39.94,0,0,1-4.92-1,7,7,0,0,1-2.4-1.1,11.19,11.19,0,0,1-1.89-1.74A18.08,18.08,0,0,1,72.07,321.4Z" style="fill:#c7c7c7"></path><path d="M120,348.39c1.13-1,7.22,1.22,8.39,1.86s9.22,1.93,12.87,5.32c2.85,2.66,13.16,8.9,12.71,8.73s-6.71,2.08-9.09,3.42-7.59.91-7.59.91l6.34,7.66s3-5.09,3.59-5.49,6.44-3.71,8.89-3.67,5.12-.13,5.72,0,21.36,11.57,27.24,13.24,38,.53,39.74.94,4.56,2.74,5.23,2.83-.49-2.94-1.22-4.65-4.36-3-4.58-3.38-3.12,1.56-6.61,1.36-27.18,2.51-31.91,0-25-13.23-28-14.12-6-1.78-6.6-1.91-12.4-10.08-14.06-10.65-10.81-2.85-12.44-4-5-.87-5.47-2a17,17,0,0,0-1.56-2.79Z" style="fill:#dbdbdb"></path><path d="M189.68,380.53c-2.15,0-8.39.48-9.7,1.1s-.49,5.69-.49,5.69l-6.88-1.07s1.5-5.52,4-6.38,5.65-1.45,6.63-1.87S189.68,380.53,189.68,380.53Z" style="fill:#dbdbdb"></path><path d="M174.39,384.77a21.48,21.48,0,0,0-5.33-.15c-2.2.33-5.32,3.8-7.36,6l1.8-.47s-3.5,4.32-4.11,5.34-2.22,5.12-2.22,5.12l2.51-1.13s-2.49,5.08-3.73,8.13a25.29,25.29,0,0,0-1.55,5l3.17-2.17s-1.25,4.55-1.65,6.41a9,9,0,0,0,0,3.57l1.67-2.36s-.06,7,4.21,11.93l.58-2.5a60.06,60.06,0,0,0,1.52,7.58l.55-1.6a50,50,0,0,0,3.28,7.33l.28-1.4,2.44,5.23.32-2.06,2.85,5.72L174,447l1.4,3.94s5.42-3.81,6.22-4.94l-.91,2.51a38.13,38.13,0,0,0,3.3-3.73,36.34,36.34,0,0,0,2.39-4.37l-.57,2.65a65.13,65.13,0,0,0,3.92-5.52c.78-1.48,3.55-6.16,3.55-6.16v2.43a21.86,21.86,0,0,0,6.33-12.52l.95,2.33a28.82,28.82,0,0,0-.76-11l1.39,1.57a23.2,23.2,0,0,0-2-9l2.09,2A55.37,55.37,0,0,0,196.42,397l1.91,1.16s-4.68-6-5.71-6.92-2.94-2.37-2.94-2.37l2.57,1.28s-4.79-4.37-7.57-5.66S174.39,384.77,174.39,384.77Z" style="fill:#ebebeb"></path><path d="M173.65,448.29l.36-1.35,1.4,4s5.42-3.82,6.22-4.95l-.91,2.51a38.13,38.13,0,0,0,3.3-3.73,35.61,35.61,0,0,0,2.4-4.36l-.57,2.63a64.44,64.44,0,0,0,3.91-5.5c.75-1.45,3.39-5.88,3.55-6.16v2.43a21.86,21.86,0,0,0,6.32-12.52l1,2.32a28.82,28.82,0,0,0-.76-11l1.38,1.57a23.16,23.16,0,0,0-2-9l2.09,2a56.41,56.41,0,0,0-4.92-10.1l1.89,1.14c-.26-.35-4.69-6-5.69-6.9s-2.69-2.19-2.91-2.35l2.53,1.25c-.29-.25-4.86-4.39-7.56-5.65s-9.82.22-10.26.32c2.48,0,8.12,4.85,10.25,7.6s9.41,12,8.6,17.49.16,14.55-3.29,18.53-9,13.23-10.61,15.1a39.79,39.79,0,0,0-3.39,4.8l-3.7-2.74Z" style="fill:#dbdbdb"></path><path d="M176.86,384.7c.42,5.44.7,10.89.92,16.35.12,2.72.17,5.45.19,8.18s-.13,5.47-.21,8.2c-.27,5.45-.49,10.9-.8,16.34l-.48,8.17c-.19,2.73-.36,5.45-.58,8.17,0-2.73.06-5.46.09-8.19l.21-8.18c.14-5.45.37-10.89.56-16.34.11-2.73.31-5.45.3-8.17s0-5.44-.05-8.17l-.1-8.18Z" style="fill:#c7c7c7"></path><path d="M177.13,392a59.19,59.19,0,0,1,5.87,3.27,41,41,0,0,1,5.47,4,23.27,23.27,0,0,1,4,5.49,37.55,37.55,0,0,1,2.76,6.14c-.55-1-1.09-1.95-1.67-2.9s-1.14-1.92-1.75-2.84a29.38,29.38,0,0,0-4.05-5.16,31,31,0,0,0-2.54-2.09c-.88-.68-1.78-1.32-2.67-2Z" style="fill:#c7c7c7"></path><path d="M177.35,417.94a44.17,44.17,0,0,1,4.06,3.54,33.55,33.55,0,0,1,3.6,4.08,18.74,18.74,0,0,1,2.24,5,29.17,29.17,0,0,1,1.09,5.3c-.58-1.71-1.18-3.39-1.83-5a24.67,24.67,0,0,0-2.32-4.69c-1-1.4-2.2-2.75-3.35-4.1S178.51,419.31,177.35,417.94Z" style="fill:#c7c7c7"></path><path d="M176.74,427.68a25.64,25.64,0,0,1,2.94,2.77,20.33,20.33,0,0,1,2.49,3.26,12.87,12.87,0,0,1,1.2,4,18.86,18.86,0,0,1,.21,4c-.31-1.31-.63-2.61-1-3.88a17.67,17.67,0,0,0-1.32-3.64c-.62-1.08-1.45-2.16-2.21-3.24S177.51,428.79,176.74,427.68Z" style="fill:#c7c7c7"></path><path d="M169.52,440.22a26,26,0,0,1,.71-3.82,21.13,21.13,0,0,1,1.29-3.7,12.71,12.71,0,0,1,2.42-3.14,17.82,17.82,0,0,1,3-2.43c-.84,1-1.67,2-2.46,2.95a18.45,18.45,0,0,0-2.11,3.07c-.53,1.09-1,2.32-1.44,3.49S170,439,169.52,440.22Z" style="fill:#c7c7c7"></path><path d="M177.41,404.39a62.57,62.57,0,0,1,5.47,4.12,41.44,41.44,0,0,1,5,4.78,23.87,23.87,0,0,1,3.32,6.08,40,40,0,0,1,2,6.57c-.43-1.06-.83-2.12-1.29-3.16s-.89-2.09-1.38-3.1a29.84,29.84,0,0,0-3.39-5.77,32.6,32.6,0,0,0-2.28-2.45c-.79-.81-1.61-1.59-2.42-2.38Z" style="fill:#c7c7c7"></path><path d="M177.5,393.36a56.39,56.39,0,0,0-5,3.24,14.09,14.09,0,0,0-4,4.14c-1.07,1.65-2.07,3.36-3.11,5.05s-2.08,3.38-3.17,5a70.11,70.11,0,0,1,5.43-10.64,11.41,11.41,0,0,1,1.95-2.39,16.34,16.34,0,0,1,2.42-1.85A25.65,25.65,0,0,1,177.5,393.36Z" style="fill:#c7c7c7"></path><path d="M177.42,412.5c-.95,1.31-1.86,2.61-2.73,3.93a19.7,19.7,0,0,0-2.15,4.15c-1.18,3-2.32,5.95-3.73,8.84a60.72,60.72,0,0,1,2.8-9.21,17.2,17.2,0,0,1,1-2.22,20,20,0,0,1,1.4-2A23.54,23.54,0,0,1,177.42,412.5Z" style="fill:#c7c7c7"></path><path d="M177.58,403c-1.52,1.28-3,2.61-4.38,4a17.49,17.49,0,0,0-3.44,4.64c-.92,1.73-1.79,3.51-2.7,5.27s-1.84,3.52-2.82,5.26a76.93,76.93,0,0,1,4.64-11,14.43,14.43,0,0,1,1.66-2.57,18.9,18.9,0,0,1,2.13-2.16A27.57,27.57,0,0,1,177.58,403Z" style="fill:#c7c7c7"></path><path d="M185.39,421.92c.23-1.13.46-2.24.6-3.34a6.13,6.13,0,0,0-.2-3.12c-.38-1-.84-2.08-1.26-3.13s-.85-2.11-1.2-3.22a22.74,22.74,0,0,1,1.9,2.88,23,23,0,0,1,1.5,3.12A4.64,4.64,0,0,1,187,417a8.4,8.4,0,0,1-.27,1.76A11.38,11.38,0,0,1,185.39,421.92Z" style="fill:#c7c7c7"></path><path d="M140.71,370.4a25.85,25.85,0,0,0-5.18-4.16c-2.47-1.34-8.61-.41-12.56.13l2.2.91s-7.25,1.45-8.76,2-6.69,3.18-6.69,3.18l3.48.83s-6.92,2.93-10.83,4.88a36.44,36.44,0,0,0-5.93,3.59l5,.33S95,385.32,93,386.78a11.94,11.94,0,0,0-3.1,3.4l3.73-1s-1.73,2.71-4.18,6.1-6.54,13.82-6.54,13.82l2.77-1.93s-4.13,5.92-5.13,8.33l1.94-1.11s-2.64,6.2-3.16,9.42l1.51-1.11-2.16,6.78,2.12-1.7-2.18,7.56,1.54-1L79,441.18s7.88-1.56,9.67-2l-3.11,1.69a56.55,56.55,0,0,0,6.55-1.05,53.74,53.74,0,0,0,6.2-2.33l-2.89,2.08s6.65-1.46,8.73-2.28,9.17-4.37,9.17-4.37l-2.13,2.32s6.9-2.84,10.27-5.16l-1.65,2.25s7.78.72,14.06-8.35l-1.09,2.93a38,38,0,0,0,8.9-11v2.53a29.36,29.36,0,0,0,5.95-10l.35,3.43a65.72,65.72,0,0,0,4-13.26l.87,2.53s.61-9.19.4-10.84-.84-4.47-.84-4.47l1.42,3.16s-.93-7.75-2.55-11.07S140.71,370.4,140.71,370.4Z" style="fill:#ebebeb"></path><path d="M152.79,401.07l-.88-2.52a65.76,65.76,0,0,1-4,13.25l-.35-3.43a29.36,29.36,0,0,1-5.95,10v-2.53a38,38,0,0,1-8.9,11l1.09-2.92c-6.28,9.06-14.06,8.34-14.06,8.34l1.65-2.24a75.77,75.77,0,0,1-10.27,5.15l2.13-2.32s-7.09,3.55-9.17,4.37a88.91,88.91,0,0,1-8.71,2.26l2.86-2a57,57,0,0,1-6.19,2.31,59.3,59.3,0,0,1-6.54,1.05l3.1-1.69c-1.74.44-9.19,1.92-9.65,2,.53-.25,13.39-6.34,15.77-8.07s10.72-4,16-4.59,14.53-9.17,17.82-12.52,15-16,16.63-19.91,2-16.78,0-18.9-7.58-9.51-9.71-10.95a27,27,0,0,1,5.17,4.17s8.87,4.13,10.49,7.45,2.51,10.59,2.56,11l-1.41-3.11c.07.31.63,2.89.82,4.44S152.79,401.07,152.79,401.07Z" style="fill:#dbdbdb"></path><path d="M140.71,370.4q-6.74,9.6-14,18.85c-2.44,3.07-4.89,6.12-7.53,9l-8,8.56c-5.39,5.67-10.72,11.38-16.15,17S84.22,435.13,78.73,440.7q7.81-8.74,15.79-17.35c5.27-5.77,10.65-11.44,16-17.17l8-8.54c2.65-2.85,5.11-5.88,7.58-8.91s4.91-6.07,7.33-9.14Z" style="fill:#c7c7c7"></path><path d="M138.91,373.93c1.26,3.24,2.33,6.54,3.28,9.87A67.09,67.09,0,0,1,144.41,394a37.59,37.59,0,0,1-.83,10.44,68.14,68.14,0,0,1-2.81,10c.4-1.69.8-3.37,1.13-5.07s.67-3.39.92-5.09a44,44,0,0,0,.6-10.22,47.28,47.28,0,0,0-.85-5.06c-.33-1.69-.73-3.37-1.12-5.05s-.81-3.36-1.25-5Z" style="fill:#c7c7c7"></path><path d="M119.57,397.33a83,83,0,0,1-.26,8.34,53.81,53.81,0,0,1-1.18,8.31,30.19,30.19,0,0,1-3.49,7.66,51.68,51.68,0,0,1-4.88,6.77c.73-1.18,1.48-2.35,2.17-3.55s1.4-2.38,2-3.6a36.8,36.8,0,0,0,3.2-7.54c.35-1.29.55-2.68.78-4s.4-2.73.6-4.1.36-2.75.51-4.12Z" style="fill:#c7c7c7"></path><path d="M106.67,410.76a48.19,48.19,0,0,1-.19,6.24,34.43,34.43,0,0,1-1,6.21,20.79,20.79,0,0,1-3,5.55,34.15,34.15,0,0,1-4.13,4.69c1.22-1.69,2.39-3.4,3.49-5.13a25.75,25.75,0,0,0,2.73-5.42,24.6,24.6,0,0,0,.7-3c.2-1,.36-2,.53-3Z" style="fill:#c7c7c7"></path><path d="M81.36,422.63a51.6,51.6,0,0,1,4.76-3.55,37.92,37.92,0,0,1,5.22-2.94,20.62,20.62,0,0,1,5.9-1.26,32.84,32.84,0,0,1,6,0c-2,.2-3.92.44-5.86.74a26,26,0,0,0-5.61,1.4c-1.75.75-3.47,1.75-5.19,2.69Z" style="fill:#c7c7c7"></path><path d="M130.33,384c.82,3.43,1.45,6.91,2,10.41a68.22,68.22,0,0,1,.84,10.62,38.53,38.53,0,0,1-2.24,10.44,68.78,68.78,0,0,1-4.18,9.75c.64-1.65,1.26-3.3,1.83-5s1.13-3.33,1.62-5a45.33,45.33,0,0,0,2-10.24,51,51,0,0,0-.17-5.23c-.11-1.75-.29-3.5-.45-5.25s-.36-3.51-.57-5.26Z" style="fill:#c7c7c7"></path><path d="M137.92,376c-1.49-.33-3-.65-4.48-.89s-3-.47-4.51-.6a21.38,21.38,0,0,0-8.87.75c-2.9.86-5.78,1.86-8.68,2.81l-4.33,1.46-4.36,1.41c1.38-.66,2.79-1.25,4.19-1.87l4.24-1.73c2.84-1.12,5.72-2.15,8.66-3a17.77,17.77,0,0,1,4.6-.82,25.65,25.65,0,0,1,4.64.27A43,43,0,0,1,137.92,376Z" style="fill:#c7c7c7"></path><path d="M118.49,398.27c-1.22.23-2.42.45-3.62.74s-2.39.53-3.57.86-2.34.67-3.47,1.11a25.5,25.5,0,0,0-3.28,1.52L98,405.94l-3.27,1.7c-1.11.55-2.19,1.12-3.31,1.64,1-.72,2-1.38,3.07-2.06l3.14-2c2.1-1.29,4.24-2.5,6.43-3.65a25.07,25.07,0,0,1,3.42-1.53,27.48,27.48,0,0,1,3.61-1A40.83,40.83,0,0,1,118.49,398.27Z" style="fill:#c7c7c7"></path><path d="M128.28,387.32c-1.53-.08-3-.14-4.57-.13s-3,0-4.55.12a25.52,25.52,0,0,0-8.74,1.88c-2.83,1.09-5.63,2.31-8.45,3.46l-4.21,1.77c-1.42.56-2.82,1.16-4.25,1.71,1.33-.76,2.69-1.44,4-2.16l4.11-2c2.75-1.32,5.54-2.56,8.39-3.69a21.73,21.73,0,0,1,4.47-1.32,28.6,28.6,0,0,1,4.61-.4A45.92,45.92,0,0,1,128.28,387.32Z" style="fill:#c7c7c7"></path><path d="M120.37,424.24c.2-1.93.36-3.86.46-5.77a27,27,0,0,0-.21-5.69c-.48-3.83-1-7.66-1.26-11.54a85.24,85.24,0,0,1,2.25,11.41,24,24,0,0,1,.21,3,26.08,26.08,0,0,1-.21,2.94A32.54,32.54,0,0,1,120.37,424.24Z" style="fill:#c7c7c7"></path><path d="M366.88,379.37a27.29,27.29,0,0,0,2.85,6.2c1.65,2.33,7.59,4,11.39,5.1l-1.59-1.81s8.15,3.95,9.72,4.08,7.43-.3,7.43-.3l-2.79-2.25s5.9.16,10.28-.11a34.88,34.88,0,0,0,6.91-1l-3.75-4.9s7.25-.5,9.71-1.09a12.14,12.14,0,0,0,4.27-2l-3.78-.61s7.87-3.56,11.55-5.84S441,364.1,441,364.1l-3.34.73s6.31-4,8.27-6l-2.24.28s5.08-4.93,7-7.85l-1.85.45,4.91-5.7-2.66.78,5.26-6.45-1.82.34,4.07-6.12s-7.79-1.77-9.6-2.06l3.54-.35a53.37,53.37,0,0,0-6.36-1.71,50.68,50.68,0,0,0-6.62-.31l3.52-.82s-6.64-1.35-8.87-1.42-10.17.43-10.17.43l2.93-1.36s-7.46-.11-11.51.73l2.46-1.5A23.42,23.42,0,0,0,407.72,328l1.68-1.57s-7.4.76-13,3.66l2.26-2.39a39.31,39.31,0,0,0-12.84,7l1.1-2.46a31.14,31.14,0,0,0-9.73,7.28l1.18-3.49a73.35,73.35,0,0,0-9.36,11.25l.31-2.82s-4.55,8.68-5.08,10.38-1.19,4.69-1.19,4.69l.09-3.66s-2.54,7.92-2.52,11.83S366.88,379.37,366.88,379.37Z" style="fill:#ebebeb"></path><path d="M381.12,390.67c-3.79-1.13-9.74-2.77-11.39-5.1a27.29,27.29,0,0,1-2.85-6.2s-6.2-7.71-6.22-11.62,2.52-11.83,2.52-11.83l-.09,3.66s.66-3,1.2-4.69,5.08-10.38,5.08-10.38l-.31,2.82a72.94,72.94,0,0,1,9.35-11.25l-1.19,3.49a31.36,31.36,0,0,1,9.74-7.28l-1.1,2.46a39.31,39.31,0,0,1,12.84-7l-2.25,2.39a34.68,34.68,0,0,1,8.2-2.84c-4.71,3.52-23.7,7.45-32.69,26.92-2.88,6.21-3.63,14.77,1.26,22.1s14.55,3.92,19.82,6,32.64-5.8,39.76-10.35a31.19,31.19,0,0,1-3.73,2.9c-3.68,2.28-11.55,5.85-11.55,5.85l3.79.61a12.33,12.33,0,0,1-4.27,2c-2.46.58-9.7,1.09-9.7,1.09l3.74,4.89a34.14,34.14,0,0,1-6.91,1c-4.38.28-10.28.11-10.28.11l2.79,2.26s-5.85.43-7.43.3-9.72-4.08-9.72-4.08Z" style="fill:#dbdbdb"></path><path d="M366.88,379.37c6.77-4,13.61-7.84,20.5-11.62,3.43-1.9,6.91-3.74,10.41-5.53s7.11-3.36,10.67-5l21.5-9.6,10.79-4.73,10.83-4.63L441,343.31l-10.67,5-21.4,9.81c-3.58,1.62-7.2,3.15-10.68,4.92s-7,3.6-10.46,5.39Z" style="fill:#c7c7c7"></path><path d="M376.08,374.31c.22-3.35.63-6.67,1.15-10a67.46,67.46,0,0,1,2.17-9.85,38.65,38.65,0,0,1,4.78-8.92,68,68,0,0,1,6.31-7.83c-1,1.35-2,2.7-2.91,4.09s-1.88,2.75-2.75,4.16a45.19,45.19,0,0,0-4.48,8.82,46.82,46.82,0,0,0-1.29,4.79c-.39,1.61-.73,3.24-1.08,4.88s-.66,3.27-1,4.91Z" style="fill:#c7c7c7"></path><path d="M409.39,357.16c.69-2.59,1.54-5.13,2.47-7.63a55.38,55.38,0,0,1,3.25-7.37,29.4,29.4,0,0,1,5.14-6.26,48.69,48.69,0,0,1,6.19-5.11c-1,.92-1.94,1.83-2.87,2.79s-1.88,1.87-2.77,2.86-1.78,2-2.59,3a23.94,23.94,0,0,0-2.23,3.21c-1.27,2.28-2.32,4.75-3.41,7.16Z" style="fill:#c7c7c7"></path><path d="M422.26,351.66a48.94,48.94,0,0,1,2.06-5.61,34.79,34.79,0,0,1,2.8-5.33,20.21,20.21,0,0,1,4.35-4.22,32.18,32.18,0,0,1,5.11-3.12c-1.58,1.21-3.13,2.45-4.62,3.73a24.77,24.77,0,0,0-4,4.18,26.73,26.73,0,0,0-1.51,2.5c-.49.85-.94,1.73-1.41,2.6Z" style="fill:#c7c7c7"></path><path d="M442.34,353.21a43.2,43.2,0,0,1-5.24,1.32,32.24,32.24,0,0,1-5.41.63,17.34,17.34,0,0,1-5.38-1.14,27.41,27.41,0,0,1-4.89-2.33c1.71.58,3.42,1.12,5.13,1.59a21.46,21.46,0,0,0,5.15.88c1.72,0,3.52-.23,5.28-.4Z" style="fill:#c7c7c7"></path><path d="M391.93,365.86c.64-3.34,1.49-6.64,2.43-9.91a72.1,72.1,0,0,1,3.43-9.66,38.17,38.17,0,0,1,5.94-8.4,66.57,66.57,0,0,1,7.35-7.1c-1.17,1.23-2.34,2.46-3.46,3.74s-2.25,2.54-3.31,3.85-2.1,2.65-3.05,4a30.28,30.28,0,0,0-2.56,4.3c-.73,1.48-1.32,3.09-1.91,4.67s-1.14,3.19-1.7,4.79S394,359.39,393.5,361Z" style="fill:#c7c7c7"></path><path d="M377.68,372.89c1.09.86,2.18,1.7,3.32,2.48s2.26,1.56,3.44,2.25a18.16,18.16,0,0,0,7.55,2.72c2.72.36,5.47.57,8.22.84l4.13.37,4.13.42c-1.39.06-2.77,0-4.16.07l-4.15-.09c-2.77-.09-5.53-.28-8.3-.62a14.94,14.94,0,0,1-4.12-1,21.32,21.32,0,0,1-3.7-2A37.28,37.28,0,0,1,377.68,372.89Z" style="fill:#c7c7c7"></path><path d="M402.36,360.58c1.09.25,2.18.52,3.27.73s2.18.44,3.28.59,2.19.29,3.28.34a22.62,22.62,0,0,0,3.28-.11l6.66-.54,3.34-.26c1.12-.05,2.23-.14,3.36-.17-1.1.26-2.2.44-3.3.66l-3.31.53c-2.22.34-4.44.6-6.68.78a21.5,21.5,0,0,1-3.41.05,23.51,23.51,0,0,1-3.36-.53A34.25,34.25,0,0,1,402.36,360.58Z" style="fill:#c7c7c7"></path><path d="M390,366.53c1.23.64,2.45,1.28,3.7,1.85s2.5,1.15,3.78,1.63a28.65,28.65,0,0,0,3.89,1.21,18.32,18.32,0,0,0,4,.45c2.74.11,5.5.11,8.26.17l4.14.05c1.38.05,2.76.05,4.15.11-1.38.17-2.76.26-4.14.38l-4.14.22c-2.76.13-5.53.16-8.31.07a18.71,18.71,0,0,1-4.19-.53,24.54,24.54,0,0,1-4-1.42A39,39,0,0,1,390,366.53Z" style="fill:#c7c7c7"></path><path d="M410.13,343.79a37.29,37.29,0,0,0-4.79,1.21,8.52,8.52,0,0,0-4,2.41c-1.11,1.19-2.17,2.47-3.26,3.71s-2.17,2.51-3.31,3.73a44.23,44.23,0,0,1,2.7-4.21,41.65,41.65,0,0,1,3.14-3.91,6.84,6.84,0,0,1,2.08-1.61,11,11,0,0,1,2.43-.87A17.67,17.67,0,0,1,410.13,343.79Z" style="fill:#c7c7c7"></path><path d="M364,373.72c.32,1.45-4.43,5.82-5.54,6.57s-6,7.27-10.69,8.92c-3.68,1.29-14,7.53-13.63,7.21s1.27-6.91,1.19-9.64,2.71-7.15,2.71-7.15l-9.72,2.07s3.11,5,3.2,5.72.29,7.43-.88,9.58-2.26,4.6-2.68,5.06-20.16,13.54-24.37,18-23.71,35.1-24.87,36.41-4.53,2.77-4.93,3.32,2.84.93,4.69,1.08,4.67-2.47,5.11-2.48.07-3.5,1.88-6.49,16-26.89,20.4-29.9,23.34-16,25.5-18.24,4.39-4.52,4.76-5,14.68-6.3,16-7.5,7.55-8.26,9.33-9.16,3.1-4,4.35-3.89a17.83,17.83,0,0,0,3.2-.09Z" style="fill:#dbdbdb"></path><path d="M303.14,420.49c1-1.92,3.48-7.65,3.55-9.1s-4.82-3.08-4.82-3.08l4.14-5.59s4.19,3.89,3.8,6.48-1.33,5.67-1.41,6.73S303.14,420.49,303.14,420.49Z" style="fill:#dbdbdb"></path><path d="M306.5,405a22,22,0,0,0,2.61-4.65c.72-2.1-.91-6.47-1.9-9.3l-.42,1.81s-2.19-5.1-2.81-6.12-3.51-4.34-3.51-4.34l-.17,2.75s-3.34-4.57-5.46-7.08a24.91,24.91,0,0,0-3.73-3.7l.45,3.81s-3.45-3.23-4.91-4.44a9,9,0,0,0-3.17-1.63l1.31,2.58s-6.14-3.29-12.52-1.81l2,1.67a59.23,59.23,0,0,0-7.43-2.17l1.17,1.22a49.18,49.18,0,0,0-8-.49l1.11.9-5.76-.27L257,375l-6.39-.13,1,.95-4.14-.6s.86,6.57,1.49,7.81l-1.8-2a38.35,38.35,0,0,0,1.77,4.65,36.26,36.26,0,0,0,2.75,4.15l-2.08-1.74a66.92,66.92,0,0,0,3.07,6c1,1.38,3.81,6,3.81,6L254.31,399a21.88,21.88,0,0,0,8.15,11.42l-2.51-.24a28.73,28.73,0,0,0,10.13,4.44l-2,.51a23.25,23.25,0,0,0,8.9,2.44l-2.71.93a56,56,0,0,0,11.22.34l-1.9,1.14s7.47-1.36,8.77-1.84,3.47-1.5,3.47-1.5l-2.33,1.68s6.09-2.21,8.53-4.07S306.5,405,306.5,405Z" style="fill:#ebebeb"></path><path d="M250.57,374.83l1,.95-4.15-.6s.87,6.58,1.5,7.81l-1.81-2a39.07,39.07,0,0,0,1.78,4.65,35.31,35.31,0,0,0,2.75,4.15l-2.07-1.73a62.75,62.75,0,0,0,3.06,6c.93,1.34,3.63,5.73,3.8,6L254.31,399a21.84,21.84,0,0,0,8.15,11.41l-2.5-.23a28.62,28.62,0,0,0,10.12,4.44l-2,.5a23.14,23.14,0,0,0,8.92,2.44l-2.72.94a55.66,55.66,0,0,0,11.23.33L283.58,420c.44-.07,7.5-1.37,8.75-1.84s3.2-1.37,3.44-1.49l-2.28,1.66c.35-.13,6.14-2.26,8.5-4.06s4.37-8.8,4.49-9.25c-1.11,2.22-8.06,4.95-11.49,5.55s-15,2.78-19.48-.49-13-6.62-14.88-11.53-7.55-14.09-8.46-16.4a40,40,0,0,0-2.67-5.24l4.14-2Z" style="fill:#dbdbdb"></path><path d="M305.41,407.2c-5-2.16-10-4.44-14.9-6.78-2.48-1.15-4.91-2.38-7.35-3.63s-4.78-2.65-7.15-4c-4.71-2.76-9.43-5.49-14.11-8.29l-7-4.22c-2.31-1.44-4.65-2.85-6.95-4.31,2.41,1.27,4.8,2.59,7.2,3.88l7.15,4c4.76,2.66,9.48,5.4,14.22,8.09,2.36,1.37,4.68,2.81,7.08,4.06s4.85,2.49,7.27,3.75l7.29,3.71Z" style="fill:#c7c7c7"></path><path d="M298.86,404.07a61,61,0,0,1-5.62,3.68,39.89,39.89,0,0,1-6.08,3,23.45,23.45,0,0,1-6.72,1,38.64,38.64,0,0,1-6.72-.4c1.12,0,2.23-.06,3.35-.14s2.22-.12,3.32-.23a29.88,29.88,0,0,0,6.45-1.19,31.64,31.64,0,0,0,3-1.29c1-.45,2-1,3-1.44Z" style="fill:#c7c7c7"></path><path d="M275.74,392.2a43.06,43.06,0,0,1-5,1.95,33.11,33.11,0,0,1-5.28,1.3,18.49,18.49,0,0,1-5.47-.34,28.25,28.25,0,0,1-5.19-1.49c1.78.28,3.55.53,5.31.72a24.81,24.81,0,0,0,5.23.12c1.71-.23,3.46-.67,5.19-1.06S274,392.59,275.74,392.2Z" style="fill:#c7c7c7"></path><path d="M267.4,387.14a26.14,26.14,0,0,1-3.82,1.32,20.42,20.42,0,0,1-4,.69,12.77,12.77,0,0,1-4.06-.77,18.34,18.34,0,0,1-3.68-1.7c1.31.34,2.61.66,3.89.95a18.44,18.44,0,0,0,3.84.52c1.24,0,2.59-.28,3.89-.46S266.06,387.3,267.4,387.14Z" style="fill:#c7c7c7"></path><path d="M259.64,374.92a25.36,25.36,0,0,1,3.05,2.4,20.84,20.84,0,0,1,2.68,2.86,12.75,12.75,0,0,1,1.66,3.6,17.94,17.94,0,0,1,.75,3.82c-.49-1.2-1-2.38-1.48-3.55a18.7,18.7,0,0,0-1.74-3.29c-.71-1-1.6-1.93-2.42-2.89S260.46,375.93,259.64,374.92Z" style="fill:#c7c7c7"></path><path d="M287.71,398.54a60.27,60.27,0,0,1-6.18,2.94,41.13,41.13,0,0,1-6.54,2.18,23.7,23.7,0,0,1-6.93.11,38.31,38.31,0,0,1-6.73-1.31c1.14.12,2.26.25,3.4.32s2.26.19,3.39.23a30.16,30.16,0,0,0,6.67-.33,32.47,32.47,0,0,0,3.24-.88c1.08-.32,2.15-.69,3.23-1Z" style="fill:#c7c7c7"></path><path d="M297.44,403.75a57,57,0,0,0-.56-5.9,14.42,14.42,0,0,0-1.82-5.44c-1-1.71-2-3.39-3-5.09s-2-3.42-3-5.16a69.64,69.64,0,0,1,6.91,9.76,11.5,11.5,0,0,1,1.21,2.83,17.26,17.26,0,0,1,.51,3A25.61,25.61,0,0,1,297.44,403.75Z" style="fill:#c7c7c7"></path><path d="M280.52,394.79c-.71-1.45-1.44-2.86-2.21-4.24a19.43,19.43,0,0,0-2.68-3.84c-2.07-2.41-4.19-4.81-6.09-7.4a59,59,0,0,1,6.85,6.75,16.34,16.34,0,0,1,1.48,2A16.56,16.56,0,0,1,279,390.2,23.09,23.09,0,0,1,280.52,394.79Z" style="fill:#c7c7c7"></path><path d="M288.86,399.34c-.42-1.94-.91-3.86-1.5-5.73a17.24,17.24,0,0,0-2.5-5.2c-1.11-1.62-2.29-3.22-3.42-4.84s-2.26-3.26-3.35-4.94a77.15,77.15,0,0,1,7.59,9.22,14.13,14.13,0,0,1,1.5,2.66,19.05,19.05,0,0,1,.93,2.89A27.84,27.84,0,0,1,288.86,399.34Z" style="fill:#c7c7c7"></path><path d="M268.49,397.47c.89.73,1.77,1.45,2.67,2.09a6.25,6.25,0,0,0,2.86,1.27c1.1.14,2.23.22,3.36.33s2.26.23,3.4.44a22,22,0,0,1-3.43.34,22.33,22.33,0,0,1-3.46-.12,4.63,4.63,0,0,1-1.77-.59,8.11,8.11,0,0,1-1.44-1.06A11.14,11.14,0,0,1,268.49,397.47Z" style="fill:#c7c7c7"></path><path d="M334.86,381.82a26.14,26.14,0,0,0,6.09-2.65c2.33-1.57,4.35-7.44,5.72-11.18l-1.84,1.52s2.09-7.1,2.34-8.66.3-7.41.3-7.41l-2.35,2.71s.62-7.5.7-11.87a36.37,36.37,0,0,0-.42-6.92l-2.64,4.32s.09-7.24-.27-9.7a11.64,11.64,0,0,0-1.57-4.32l-.87,3.75s-1.6-2.79-3.47-6.53-9.2-12.21-9.2-12.21l.43,3.35s-3.33-6.41-5-8.42l.08,2.24s-4.26-5.22-6.87-7.17l.28,1.85-5-5.06.52,2.66-5.68-5.43.17,1.83-5.47-4.25s-2.28,7.7-2.69,9.5l-.06-3.53a58,58,0,0,0-2.11,6.28,53.48,53.48,0,0,0-.82,6.58l-.49-3.53s-1.8,6.57-2,8.79-.39,10.14-.39,10.14l-1.06-2.95A74,74,0,0,0,291,337l-1.22-2.51s-4.25,6.56.86,16.33l-2.08-2.33a38.09,38.09,0,0,0,5.62,13l-2.24-1.17a29.4,29.4,0,0,0,6.12,9.92l-3.2-1.28a65.64,65.64,0,0,0,9.9,9.66l-2.64-.39s7.86,4.8,9.42,5.38,4.34,1.33,4.34,1.33l-3.45-.21s7.29,2.78,11,2.88S334.86,381.82,334.86,381.82Z" style="fill:#ebebeb"></path><path d="M302.09,378.28l2.64.39a65.64,65.64,0,0,1-9.9-9.66l3.2,1.29a29.49,29.49,0,0,1-6.12-9.93l2.24,1.17a38,38,0,0,1-5.62-13l2.08,2.33c-5.11-9.77-.86-16.32-.86-16.32L291,337a75.31,75.31,0,0,1,.21-11.49l1.06,3s.15-7.93.39-10.15,1.93-8.39,2-8.77l.48,3.49a57.11,57.11,0,0,1,.83-6.56,58,58,0,0,1,2.11-6.28l.05,3.53c.42-1.75,2.56-9,2.7-9.48,0,.59-.6,14.8-.18,17.71s-1.47,11.34-3.38,16.34,1.38,17.13,2.82,21.6,7.23,20.77,9.91,24,13.95,9.54,16.73,8.79,11.95-2.3,14.21-3.52a26.58,26.58,0,0,1-6.09,2.64s-7.78,5.94-11.48,5.84-10.53-2.7-11-2.87l3.4.2c-.31-.09-2.85-.79-4.31-1.33S302.09,378.28,302.09,378.28Z" style="fill:#dbdbdb"></path><path d="M334.86,381.82q-5.39-10.43-10.22-21.12c-1.58-3.58-3.15-7.16-4.49-10.86l-3.86-11.07c-2.52-7.4-5.11-14.78-7.57-22.2s-5-14.83-7.34-22.28q4.11,11,8,22c2.66,7.35,5.19,14.74,7.8,22.11L321,349.52c1.3,3.67,2.84,7.26,4.38,10.85s3.09,7.17,4.69,10.74Z" style="fill:#c7c7c7"></path><path d="M332.56,378.59c-3.44-.39-6.86-1-10.26-1.68a67,67,0,0,1-10.08-2.77,37.81,37.81,0,0,1-8.86-5.59,68.26,68.26,0,0,1-7.58-7.14c1.31,1.14,2.62,2.27,4,3.35s2.69,2.16,4.08,3.18a44.19,44.19,0,0,0,8.77,5.27,48.85,48.85,0,0,0,4.88,1.6c1.65.49,3.32.92,5,1.36s3.35.84,5,1.23Z" style="fill:#c7c7c7"></path><path d="M320.82,350.6c-2.49-1.24-4.9-2.63-7.26-4.11a53.7,53.7,0,0,1-6.81-4.89,30.16,30.16,0,0,1-5.17-6.66,52,52,0,0,1-3.73-7.47c.7,1.2,1.39,2.4,2.14,3.57s1.46,2.35,2.24,3.49a37.5,37.5,0,0,0,5.19,6.33,40.93,40.93,0,0,0,3.21,2.56c1.1.83,2.23,1.62,3.35,2.44s2.27,1.59,3.42,2.37Z" style="fill:#c7c7c7"></path><path d="M314.92,332.94a50.88,50.88,0,0,1-5.44-3.06,33.69,33.69,0,0,1-5-3.82,20.8,20.8,0,0,1-3.51-5.27,33.8,33.8,0,0,1-2.23-5.84c.92,1.87,1.9,3.69,2.92,5.47a25.68,25.68,0,0,0,3.53,4.94,23.48,23.48,0,0,0,2.3,2c.8.65,1.62,1.26,2.44,1.89Z" style="fill:#c7c7c7"></path><path d="M316.15,305a50.68,50.68,0,0,1,.94,5.88,36,36,0,0,1,.18,6,20.46,20.46,0,0,1-1.62,5.81,32.31,32.31,0,0,1-2.8,5.26c.74-1.84,1.44-3.69,2.07-5.54a26.16,26.16,0,0,0,1.36-5.62c.14-1.9.06-3.89,0-5.85Z" style="fill:#c7c7c7"></path><path d="M327.67,366.33c-3.42-.86-6.8-1.92-10.13-3.1a68.38,68.38,0,0,1-9.8-4.18,38.54,38.54,0,0,1-8.2-6.83,68.59,68.59,0,0,1-6.7-8.23c1.17,1.33,2.34,2.65,3.56,3.92s2.42,2.56,3.69,3.77a45.24,45.24,0,0,0,8.15,6.51,51.22,51.22,0,0,0,4.71,2.28c1.6.71,3.23,1.37,4.86,2s3.27,1.31,4.92,1.93Z" style="fill:#c7c7c7"></path><path d="M331.23,376.77c1-1.16,2-2.33,2.87-3.56s1.81-2.43,2.62-3.71a21.44,21.44,0,0,0,3.46-8.2c.59-3,1-6,1.54-9l.72-4.52.77-4.51c0,1.53-.18,3.05-.28,4.57l-.45,4.56c-.32,3-.75,6.07-1.32,9.09a17.73,17.73,0,0,1-1.41,4.45,25.29,25.29,0,0,1-2.39,4A42.92,42.92,0,0,1,331.23,376.77Z" style="fill:#c7c7c7"></path><path d="M320.5,349.2c.35-1.18.72-2.35,1-3.54s.64-2.37.89-3.56.5-2.39.63-3.59a27.09,27.09,0,0,0,.18-3.62l0-7.36v-3.69c0-1.24,0-2.47.08-3.7.17,1.22.28,2.45.41,3.68l.27,3.68q.24,3.69.24,7.39a24.93,24.93,0,0,1-.23,3.75,27.83,27.83,0,0,1-.83,3.64A40.17,40.17,0,0,1,320.5,349.2Z" style="fill:#c7c7c7"></path><path d="M325.65,363c.77-1.31,1.54-2.63,2.24-4s1.39-2.69,2-4.08a25.92,25.92,0,0,0,2.4-8.62c.34-3,.56-6,.85-9.08l.39-4.56c.16-1.52.28-3,.46-4.56.05,1.53,0,3.06,0,4.59l-.12,4.57c-.1,3-.3,6.1-.62,9.15a22,22,0,0,1-.91,4.57,28.11,28.11,0,0,1-1.79,4.27A46.07,46.07,0,0,1,325.65,363Z" style="fill:#c7c7c7"></path><path d="M296.62,338.81c1.62,1.07,3.25,2.11,4.89,3.09a27.6,27.6,0,0,0,5.15,2.45c3.6,1.36,7.24,2.66,10.8,4.24a85,85,0,0,1-11.16-3.3,20.22,20.22,0,0,1-5.2-2.74A32.19,32.19,0,0,1,296.62,338.81Z" style="fill:#c7c7c7"></path></g></svg>
