<svg xmlns="http://www.w3.org/2000/svg" viewBox="0 0 500 500"><g id="freepik--background-complete--inject-11"><path d="M109.67,233.43c1,3.46,1.92,7,2.63,10.53a11.11,11.11,0,0,1,.27,3.89,8.3,8.3,0,0,1-1.23,3c-2.26,3.65-6,6.21-8.19,9.9-1.89,3.17-2.55,7-4.86,9.91L93.85,261c-2.2-4.79-4.45-10.2-2.71-15.18a21,21,0,0,1,2.66-4.73,27.71,27.71,0,0,1,3-3.83,14.28,14.28,0,0,1,11.68-4.16" style="fill:#ebebeb"></path><path d="M102.87,228.61a57.48,57.48,0,0,0-16.76-9.79,17.42,17.42,0,0,0-6-1.37,15.55,15.55,0,0,0-5.4,1.11,30.18,30.18,0,0,0-7.5,4.09,59.17,59.17,0,0,0-5.8,5.17L49.74,239.2c-.28.28-.58.63-.49,1a1.14,1.14,0,0,0,.6.6,61.61,61.61,0,0,0,12.26,5c6.42,2.08,13.45,4,19.76,1.63,4.41-1.65,7.82-5.17,10.83-8.79s5.84-7.49,9.65-10.24" style="fill:#ebebeb"></path><path d="M95.17,206.55A80.58,80.58,0,0,1,98,187.91,135.46,135.46,0,0,1,110.44,200c2.12,2.34,4.2,4.83,5.21,7.83,2,5.9-.59,12.28-3.12,18l-1.84,2.95a57,57,0,0,1-11-9,17.39,17.39,0,0,1-3.08-4.07C95.17,212.88,95.06,209.65,95.17,206.55Z" style="fill:#ebebeb"></path><path d="M134.14,239.83l2,13.19c-6.13-9.85-13.08-16.81-24-20.65s-22.75-4.72-34.35-4.22A64,64,0,0,1,134.14,239.83Z" style="fill:#e0e0e0"></path><path d="M114.35,230.72c-1.54,1.34-3.22,2.51-4.64,3.89a33.7,33.7,0,0,0-3.66,4.71,37.64,37.64,0,0,0-5.42,10.73c.34-4.11,2.36-7.9,4.59-11.29a25.31,25.31,0,0,1,4-4.75,31.42,31.42,0,0,1,5.18-3.29Z" style="fill:#e0e0e0"></path><path d="M110.7,229.42a70.67,70.67,0,0,1-7.87-26c2.19,8.53,5,17.67,7.87,26Z" style="fill:#e0e0e0"></path><path d="M200.39,306.78q3.63,4.05,7.63,7.73a11.05,11.05,0,0,0,3.18,2.26,8.45,8.45,0,0,0,3.24.53c4.29,0,8.42-1.89,12.71-1.84,3.69,0,7.33,1.47,11,1l-5.93-8.81c-3-4.38-6.4-9.11-11.56-10.22a21,21,0,0,0-5.43-.19,28.68,28.68,0,0,0-4.81.54,14.27,14.27,0,0,0-9.62,7.81" style="fill:#ebebeb"></path><path d="M199.82,298.48a57.76,57.76,0,0,1,.35-19.41,17.33,17.33,0,0,1,1.94-5.81,15.18,15.18,0,0,1,3.76-4,30.15,30.15,0,0,1,7.39-4.29,61.24,61.24,0,0,1,7.43-2.26l15.81-4.07a1.14,1.14,0,0,1,1.11.11,1.07,1.07,0,0,1,.21.82,62,62,0,0,1-2.09,13.09c-1.56,6.56-3.58,13.56-8.88,17.72-3.7,2.91-8.49,4-13.14,4.68s-9.43,1.09-13.77,2.92" style="fill:#ebebeb"></path><path d="M185,280.42a80.57,80.57,0,0,0-17.38-7.29,136.34,136.34,0,0,0,3.84,16.93c.9,3,1.95,6.1,4,8.52,4,4.77,10.79,5.88,17,6.68l3.47,0a57.13,57.13,0,0,0-2-14.12,17.36,17.36,0,0,0-1.87-4.74C190.38,283.72,187.68,282,185,280.42Z" style="fill:#ebebeb"></path><path d="M193.13,331l10.22,8.59c-5.23-10.37-7.56-19.93-5.14-31.28s7.81-21.89,14.27-31.53A64,64,0,0,0,193.13,331Z" style="fill:#e0e0e0"></path><path d="M195.64,309.38a32.44,32.44,0,0,1,5.51-2.72,24.78,24.78,0,0,1,6.11-.89c4.06-.15,8.35.1,12,2a37.72,37.72,0,0,0-12-1,34.52,34.52,0,0,0-5.93.67c-1.92.51-3.79,1.33-5.74,1.95Z" style="fill:#e0e0e0"></path><path d="M196.43,305.58c-5.58-6.82-11.94-13.93-18.1-20.23a70.58,70.58,0,0,1,18.1,20.23Z" style="fill:#e0e0e0"></path><path d="M206.34,355.06c-8.2-28.64-22.41-55.28-39.26-79.84-9.11-13.27-19-26-26.77-40.13s-15.84-38-18-55.31H120c1.45,28.31,12,49.35,25.92,72s29.92,43.44,41.84,67.21C208,359.5,210.64,410.31,198.69,454l9.81-.18C215.75,424.88,214.54,383.69,206.34,355.06Z" style="fill:#e0e0e0"></path><path d="M111.65,386.82l-3.56.48c4,12.63,29,47.45,33.06,66.15l5.79.11C140.37,432.84,117.21,403,111.65,386.82Z" style="fill:#e0e0e0"></path><path d="M112.25,380.13a20.35,20.35,0,0,1,2.36,6.11,6.8,6.8,0,0,1-.83,5.09,4.6,4.6,0,0,1-4.55,2.05,4.94,4.94,0,0,1-1.75-.75c-2.56-1.66-3.81-4.7-4.91-7.55Z" style="fill:#e0e0e0"></path><path d="M109.34,382.44c3.81-2.07,6.85-6.25,6.14-10.53-.44-2.66-2.21-4.89-4.06-6.86a57.31,57.31,0,0,0-9.35-8,3.61,3.61,0,0,0-2.3-.86,3.27,3.27,0,0,0-1.7.89A11.31,11.31,0,0,0,95,361.31c-2.64,6.49-3.63,14.87.43,20.9a7.71,7.71,0,0,0,5.15,3.66,8.85,8.85,0,0,0,5-1.28,30.93,30.93,0,0,0,4.55-2.84" style="fill:#ebebeb"></path><path d="M103.64,362.26c1.49,4.29,2.45,8.89,5.44,12.39a9,9,0,0,1,1.24,2c.89,1.86,1.15,2.72-.27,5.4L105,385.14c-1.47-1.84-2.13-2.22-2.34-4.56s0-4.7-.14-7A32,32,0,0,0,98.81,360c-1.24-2.34-2.82-4.83-2.3-7.42C100.21,354.37,102.29,358.37,103.64,362.26Z" style="fill:#e0e0e0"></path><path d="M94.31,371.92c.78,2.89,1.2,6,3,8.38,1.59,2,5.48,4.64,8.06,4.58L103,386.23c-3,.75-6.46,1-8.76-1.05a8.16,8.16,0,0,1-2.39-5.34c-.21-2,0-4-.14-6A20.86,20.86,0,0,0,89.2,365C92,366,93.52,369,94.31,371.92Z" style="fill:#e0e0e0"></path><path d="M114.05,355.89a17.1,17.1,0,0,0,0,8.23c1,4,3.5,8,2.43,12-.67,2.49-3.33,4.23-5.64,5.37h0c1.43-3,2.43-6,1.81-9.24-.51-2.67-1.71-5.23-1.7-7.95C111,361.25,112.51,358.47,114.05,355.89Z" style="fill:#e0e0e0"></path><path d="M127.27,158.89c1.32,3.09,2,8.93,2,12.29a12.86,12.86,0,0,1-3.52,9.16,8.75,8.75,0,0,1-9.27,2.06,9.56,9.56,0,0,1-3-2.08c-4.13-4.09-5.28-10.23-6.22-16Z" style="fill:#e0e0e0"></path><path d="M121,162.06c7.9-2.38,15.18-9,15.52-17.23.21-5.13-2.22-10-4.9-14.35a108.72,108.72,0,0,0-14.31-18.57c-1.1-1.14-2.36-2.33-3.94-2.5a6.28,6.28,0,0,0-3.52,1,21.65,21.65,0,0,0-7.36,6.75c-7.44,11.07-12.52,26.29-7.3,39.09,1.55,3.83,4.25,7.5,8.18,8.8,3.13,1,6.57.44,9.75-.44a60.49,60.49,0,0,0,9.58-3.54" style="fill:#ebebeb"></path><path d="M118.16,122.28c1.11,8.56,1.11,17.49,5.33,25.17A17.14,17.14,0,0,1,125,151.6c.94,3.82,1.1,5.52-2.59,10l-10.69,3.84c-2-4-3.1-5-2.58-9.4s1.73-8.77,2.46-13.18a61.12,61.12,0,0,0-1.58-26.69c-1.39-4.83-3.38-10.07-1.41-14.7C114.82,106.26,117.16,114.5,118.16,122.28Z" style="fill:#e0e0e0"></path><path d="M97,136.65c.33,5.69-.09,11.68,2.43,16.79,2.17,4.4,8.42,10.77,13.25,11.65l-5,1.59c-5.82.26-12.41-.68-15.91-5.34-2.28-3-2.76-7.09-2.39-10.88s1.49-7.45,2.06-11.2a39.63,39.63,0,0,0-1.3-17.55C95.1,124.64,96.7,131,97,136.65Z" style="fill:#e0e0e0"></path><path d="M140,114.44a32.53,32.53,0,0,0-3.12,15.35c.34,7.84,3.43,16.19-.11,23.2-2.21,4.39-7.83,6.59-12.58,7.83h0c3.82-5,6.84-10.2,7-16.51.09-5.17-1.16-10.41-.08-15.47C132.27,123.25,136.14,118.65,140,114.44Z" style="fill:#e0e0e0"></path><path d="M384.38,281.88q-3.87,5.76-7.18,11.89a14.16,14.16,0,0,0-1.81,4.65,10.94,10.94,0,0,0,.37,4.18c1.39,5.32,5,9.86,6.29,15.19,1.12,4.59.48,9.56,2.22,13.95l9.06-10.14c4.5-5,9.28-10.8,9-17.55a26.61,26.61,0,0,0-1.48-6.79,35.23,35.23,0,0,0-2.18-5.8A18.26,18.26,0,0,0,386,282" style="fill:#ebebeb"></path><path d="M394.5,278.54a73.87,73.87,0,0,1,24.18-5.68,22.57,22.57,0,0,1,7.82.58,19.75,19.75,0,0,1,6.18,3.39,38.57,38.57,0,0,1,7.65,7.82,78.88,78.88,0,0,1,5.15,8.51l10,18.32c.24.44.48,1,.22,1.42a1.4,1.4,0,0,1-1,.51c-5.51,1.29-11.22,1.46-16.89,1.54-8.62.12-17.94-.17-24.78-5.44-4.77-3.67-7.62-9.27-9.94-14.83s-4.32-11.35-7.95-16.15" style="fill:#ebebeb"></path><path d="M412.22,254.46a103,103,0,0,0,3.57-23.86A172.79,172.79,0,0,0,396,240.7c-3.47,2.06-7,4.33-9.32,7.61-4.65,6.48-3.9,15.24-2.94,23.16l1.14,4.3a73.72,73.72,0,0,0,16.89-6.91,22.74,22.74,0,0,0,5.3-3.81C409.84,262.19,411.18,258.29,412.22,254.46Z" style="fill:#ebebeb"></path><path d="M352,280.5l-7.43,15.38c11.2-9.76,22.33-15.65,37.17-16.22s29.61,2.78,43.61,7.76A81.89,81.89,0,0,0,352,280.5Z" style="fill:#e0e0e0"></path><path d="M379.67,276.8a46.26,46.26,0,0,1,5,6,42,42,0,0,1,4.91,18.88,20.22,20.22,0,0,1-.41,3.89c.26-5.19-1-10.26-2.45-15.19a42.76,42.76,0,0,0-2.74-7.17c-1.23-2.26-2.92-4.27-4.31-6.44Z" style="fill:#e0e0e0"></path><path d="M384.63,276.58A294.39,294.39,0,0,0,404,247.76a98.88,98.88,0,0,1-19.39,28.82Z" style="fill:#e0e0e0"></path><path d="M302.45,372.93c8.19-28.64,22.4-55.28,39.26-79.84,9.11-13.26,19-26,26.77-40.13s15.84-38,18-55.31h2.27c-1.44,28.31-12,49.36-25.91,72S333,313.13,321,336.91c-20.28,40.46-25.12,73.48-13.17,117.14l-10.5.48C290.12,425.64,294.25,401.57,302.45,372.93Z" style="fill:#e0e0e0"></path><path d="M276.51,228.37q.53,6.4,1.66,12.74a13.27,13.27,0,0,0,1.38,4.41,9.92,9.92,0,0,0,2.67,2.81c4.07,3,9.29,4.25,13.31,7.36,3.45,2.68,5.85,6.64,9.64,8.82q.36-6.28.71-12.56c.36-6.24.49-13.17-3.58-17.9a24.37,24.37,0,0,0-5-4.06,33.2,33.2,0,0,0-4.92-3,16.91,16.91,0,0,0-14.66.48" style="fill:#ebebeb"></path><path d="M281.91,220.12a68.37,68.37,0,0,1,14.22-18,20.83,20.83,0,0,1,6-4.09,18.2,18.2,0,0,1,6.43-1.11,35.74,35.74,0,0,1,10,1.25,70.36,70.36,0,0,1,8.63,3.19L345,208.8c.43.18.92.43,1,.9a1.31,1.31,0,0,1-.4.92,73.14,73.14,0,0,1-11.33,10.84c-6.17,5.06-13.08,10.22-21.06,10.35-5.57.09-10.86-2.32-15.74-5s-9.66-5.72-15.06-7.1" style="fill:#ebebeb"></path><path d="M280.85,192.48a95.47,95.47,0,0,0-11.16-19.31,160.63,160.63,0,0,0-8.5,18.71c-1.32,3.49-2.54,7.14-2.35,10.87.37,7.37,6,13.28,11.22,18.46l3.3,2.44a68.18,68.18,0,0,0,8.24-14.72,21,21,0,0,0,1.63-5.82C283.58,199.46,282.31,195.85,280.85,192.48Z" style="fill:#ebebeb"></path><path d="M252.32,246l3.48,15.4c2.49-13.51,7.14-24.18,17.55-33.15s23-15.05,36-19.52A75.68,75.68,0,0,0,252.32,246Z" style="fill:#e0e0e0"></path><path d="M270.18,227.41a41.8,41.8,0,0,1,7.1,1.45,38.38,38.38,0,0,1,14.44,10.84,19.28,19.28,0,0,1,1.93,3.07c-2.82-3.89-6.64-6.84-10.55-9.55a40.41,40.41,0,0,0-6.1-3.61c-2.19-.93-4.57-1.41-6.82-2.2Z" style="fill:#e0e0e0"></path><path d="M273.64,224.4a293.34,293.34,0,0,0-2.58-32,89.16,89.16,0,0,1,2.58,32Z" style="fill:#e0e0e0"></path><path d="M361.74,179.18a16.22,16.22,0,0,0-8.82,5.14,27.74,27.74,0,0,0-5.24,8.9c3.52-1.39,6.57-3.72,9.74-5.77s6.66-3.88,10.44-4.09Z" style="fill:#e0e0e0"></path><path d="M378.72,189.41c-6.56,6.47-10.35,16-8.37,25a41.74,41.74,0,0,1,11.55-15,22.63,22.63,0,0,0,3.66-3.31,9.06,9.06,0,0,0,1.92-4.85l.65-4.69S381.16,187,378.72,189.41Z" style="fill:#e0e0e0"></path><path d="M391.33,192.61c1.4,9.11,6.87,17.74,15.32,21.4a41.64,41.64,0,0,1-5.39-18.16,23,23,0,0,0-.55-4.9,8.93,8.93,0,0,0-2.8-4.39l-3.42-3.28S390.81,189.21,391.33,192.61Z" style="fill:#e0e0e0"></path><path d="M417.72,185.62a8.88,8.88,0,0,1,2.31,3.1,63.09,63.09,0,0,1,5.59,14.85l-7.49-6.69a9.55,9.55,0,0,0-2.68-1.88c-1.51-.61-3.21-.39-4.83-.61a9,9,0,0,1-5.26-2.68l-1-5.17Z" style="fill:#e0e0e0"></path><path d="M443.92,141.19c-4.31-5.2-8.79-10.69-15-13.26a20.28,20.28,0,0,0-16.3.46l-7.39,52.45c2.35,3,4.92,6.25,8.57,7.49,3.92,1.32,8.21.07,12.06-1.45,6.67-2.63,13.42-6.47,16.61-12.89a30.73,30.73,0,0,0,2.18-6.55q1.17-4.86,1.94-9.79c.62-4,1.3-8.55,4.58-11C448.11,146.08,445.89,143.57,443.92,141.19Z" style="fill:#ebebeb"></path><path d="M387.41,122.66c-5.09-3.27-11.91-2.41-17.36.22-2.14,1-4.17,2.32-6.39,3.19-2.66,1.05-5.52,1.48-8.21,2.45a1,1,0,0,0-.56.38,1,1,0,0,0,.11.82,18.51,18.51,0,0,1,1.61,7.9c-.11,5.48-2.61,11.15-.57,16.24,1.54,3.86,5.31,6.28,8.86,8.45l4.73,2.89a14.58,14.58,0,0,0,11.3,2.63l9.68-41.1A6.78,6.78,0,0,0,387.41,122.66Z" style="fill:#ebebeb"></path><path d="M419.13,119.08c-2.86,1.3-5.82,2.63-9,2.74-3,.11-5.89-.89-8.86-1.07a26.46,26.46,0,0,0-5.18.31c-3.35.48-6.92,1.39-9.07,4a8,8,0,0,0,.86,10.64l.82,1.08c7.69,1.28,13.66,7.24,18.8,13.1q5.67,6.48,10.89,13.33l6.36-12a23.66,23.66,0,0,0,2.59-6.27c1.11-5.54-1.79-11-4.6-15.92l-2.7-4.73C419.16,122.7,418.23,120.71,419.13,119.08Z" style="fill:#f5f5f5"></path><path d="M416,143.06c-1.49-2.38-3.07-4.79-5.37-6.41-3.32-2.34-7.62-2.67-11.69-2.93l-4.3-.26a1.42,1.42,0,0,0-.65.06,1.58,1.58,0,0,0-.64.71,9.11,9.11,0,0,1-2.8,2.93,34.56,34.56,0,0,0-3.93,2.39,8.66,8.66,0,0,0-2.49,4.78A15.53,15.53,0,0,0,388,158l-1-.54a21.16,21.16,0,0,0,7.59,8.17,15.13,15.13,0,0,0,10.86,1.9,19.63,19.63,0,0,0,4.64-1.82,23.08,23.08,0,0,0,6.37-4.55,12,12,0,0,0,3.35-7C420.2,150.2,418.08,146.45,416,143.06Z" style="fill:#ebebeb"></path><path d="M401.31,146.43c-1.11-3-3.77-5.14-6.3-7.12a30.65,30.65,0,0,0-5.86-3.87,10.13,10.13,0,0,0-6.85-.79c-5.34,1.5-8,8.44-13.51,9.26,2.33,4.92,3.82,10.22,6.31,15.05s6.26,9.37,11.43,11.07a21.38,21.38,0,0,0,6.16.93,46.49,46.49,0,0,0,11.16-1,4.29,4.29,0,0,0,2.32-1.06,3.66,3.66,0,0,0,.73-1.54c1.14-4.49-1.19-9-3.06-13.25a76.8,76.8,0,0,1-3.23-8.69" style="fill:#e6e6e6"></path><path d="M408.39,147.05c-3.07-2.68-7.23-3.7-11.25-4.36a3,3,0,0,0-2.26.24c-.85.62-.81,1.9-1.34,2.81a7.48,7.48,0,0,1-1.75,1.71,7.34,7.34,0,0,0-.3,10.28h0c1,2.66,1.77,4.63,4.31,5.89a18,18,0,0,0,6.45,2.21,9.9,9.9,0,0,0,9.78-7A11.64,11.64,0,0,0,408.39,147.05Z" style="fill:#e0e0e0"></path><path d="M378.84,170.39a90.6,90.6,0,0,0-14.78-11.53c-2-1.25-4.48-2.45-6.58-1.39-1.62.82-2.37,2.72-2.71,4.51a18,18,0,0,0,.35,8.21c.93,3.34,2.8,6.33,3.95,9.6s1.47,7.15-.53,10a73.92,73.92,0,0,1,17.58,4.94,75.31,75.31,0,0,0,9.94,3.9c3.45.9,7.25,1,10.44-.58,1.95-1,3.72-2.57,5.9-2.61a20.21,20.21,0,0,1,3.42.58c3.81.56,7.63-2,9.25-5.53s1.31-7.64,0-11.25c-3.95,2.16-7.94,4.34-12.28,5.53s-9.13,1.29-13.21-.62c-5.44-2.55-8.67-8.15-11.57-13.41" style="fill:#e6e6e6"></path><path d="M407.51,152.86a6.67,6.67,0,0,0-6.13-2.86,7.69,7.69,0,0,0-5.75,3.74,5.54,5.54,0,0,0-.84,3,3.27,3.27,0,0,0,1.5,2.64l10.87,2.87a4.26,4.26,0,0,0,1.93-3.22,9.28,9.28,0,0,0-.53-3.82A9.54,9.54,0,0,0,407.51,152.86Z" style="fill:#e6e6e6"></path><path d="M412.28,155.5a13.21,13.21,0,0,1-9.2,4.27,31.22,31.22,0,0,1-10.27-1.38,20.42,20.42,0,0,1-4.43-1.61c-2.46-1.32-4.33-3.5-6.14-5.62a23.71,23.71,0,0,0-.49,9.7,15.11,15.11,0,0,0,4.44,8.53l17.69,4.85c2.83-1.93,3.63-6.43,5.69-9.17,2.31-3.08,4.62-6.6,4.23-10.42C413.21,154.46,412.68,155,412.28,155.5Z" style="fill:#e0e0e0"></path><path d="M411.2,178.41a6.91,6.91,0,0,0-5-.47,20.61,20.61,0,0,0-4.71,2.08l-2.76,1.51a3.1,3.1,0,0,1-1.35.48,2.81,2.81,0,0,1-.95-.18c-6.83-2-13.58-4.37-20.2-7a17,17,0,0,0,4,9.27,14.78,14.78,0,0,0,9.57,5.36c3.29.36,6.74-.54,9.86.58a2.38,2.38,0,0,0,1.3.24,2.13,2.13,0,0,0,.87-.53l8.9-7.73c.89-.76,1.86-2,1.23-3A1.92,1.92,0,0,0,411.2,178.41Z" style="fill:#e6e6e6"></path><path d="M432,155a.76.76,0,0,0-.64.06c-9.46,4-17.12,11.25-25.48,17.23a5.79,5.79,0,0,1-2,1.07,6.2,6.2,0,0,1-3.83-.85c-7.3-3.33-15.22-5.83-23.23-5.34-3.4.21-7,1.08-9.29,3.61,3.13,1.88,7,5.34,10.58,6.21l19.27,5.47c8.2-.37,16.56-4.45,22.72-9.88,4.33-3.83,7.66-8.63,10.95-13.39.77-1.12,1.58-2.42,1.25-3.74A.63.63,0,0,0,432,155Z" style="fill:#e0e0e0"></path><path d="M443.92,330.2H263.17a5.87,5.87,0,0,1-5.86-5.86V61.06a5.87,5.87,0,0,1,5.86-5.86H443.92a5.87,5.87,0,0,1,5.86,5.86V324.34A5.87,5.87,0,0,1,443.92,330.2ZM263.17,55.45a5.62,5.62,0,0,0-5.61,5.61V324.34a5.62,5.62,0,0,0,5.61,5.61H443.92a5.61,5.61,0,0,0,5.61-5.61V61.06a5.61,5.61,0,0,0-5.61-5.61Z" style="fill:#e0e0e0"></path><path d="M235.49,330.2H54.75a5.87,5.87,0,0,1-5.87-5.86V61.06a5.87,5.87,0,0,1,5.87-5.86H235.49a5.86,5.86,0,0,1,5.86,5.86V324.34A5.86,5.86,0,0,1,235.49,330.2ZM54.75,55.45a5.62,5.62,0,0,0-5.62,5.61V324.34A5.62,5.62,0,0,0,54.75,330H235.49a5.61,5.61,0,0,0,5.61-5.61V61.06a5.61,5.61,0,0,0-5.61-5.61Z" style="fill:#e0e0e0"></path><rect y="391.27" width="500" height="0.25" style="fill:#e0e0e0"></rect><rect x="51.67" y="405.53" width="16.06" height="0.25" style="fill:#e0e0e0"></rect><rect x="170.35" y="402.82" width="53.53" height="0.25" style="fill:#e0e0e0"></rect><rect x="68.73" y="414.82" width="36.25" height="0.25" style="fill:#e0e0e0"></rect><rect x="378.35" y="402.69" width="43.19" height="0.25" style="fill:#e0e0e0"></rect><rect x="430.45" y="402.69" width="6.33" height="0.25" style="fill:#e0e0e0"></rect><rect x="316.21" y="408.92" width="53.89" height="0.25" style="fill:#e0e0e0"></rect></g></svg>
