<svg xmlns="http://www.w3.org/2000/svg" viewBox="0 0 500 500"><g id="freepik--background-simple--inject-53"><path d="M415.25,195.83A87.13,87.13,0,0,0,249.59,158,87.13,87.13,0,0,0,83.93,195.82c0,55,61.61,107,104.17,134.81,44.7,29.23,65.33,51.58,65.33,51.58s29.23-37.82,68.78-58.46C364.93,301.46,415.25,246.79,415.25,195.83Z" style="fill:#D07796"></path><path d="M415.25,195.83A87.13,87.13,0,0,0,249.59,158,87.13,87.13,0,0,0,83.93,195.82c0,55,61.61,107,104.17,134.81,44.7,29.23,65.33,51.58,65.33,51.58s29.23-37.82,68.78-58.46C364.93,301.46,415.25,246.79,415.25,195.83Z" style="fill:#fff;opacity:0.7000000000000001"></path><path d="M392.85,163.23c-3.72-2-5.41-.34-6.76-2s3.72-6.08-6.42-10.47c0,0-.67-9.46-14.53-9.8s-10.14,9.46-13.85,11.82-4.73-1.35-8.45,1-2,7.1-5.07,7.77-7.1-3-10.81-.67-3.72,4.39-5.41,4.39-5.07-1.35-7.1,0-4.39,3-4.39,3h85.5S396.57,165.26,392.85,163.23Z" style="fill:#fff"></path><path d="M179.7,225.85c-3.72-2-5.41-.34-6.76-2s3.72-6.08-6.42-10.47c0,0-.67-9.46-14.53-9.8s-10.14,9.46-13.85,11.82-4.73-1.35-8.45,1-2,7.1-5.07,7.77-7.1-3-10.81-.67-3.72,4.39-5.41,4.39-5.07-1.35-7.1,0-4.39,3-4.39,3H182.4S183.42,227.88,179.7,225.85Z" style="fill:#fff"></path><path d="M135.05,202c-2.17-1.18-3.15-.19-3.93-1.18s2.16-3.53-3.74-6.09c0,0-.39-5.5-8.45-5.69s-5.89,5.5-8.05,6.87-2.75-.78-4.91.59-1.18,4.13-3,4.52-4.13-1.77-6.29-.39-2.16,2.55-3.14,2.55-3-.78-4.13,0-2.55,1.77-2.55,1.77h49.71S137.21,203.15,135.05,202Z" style="fill:#fff"></path></g><g id="freepik--Hearts--inject-53"><path d="M279.45,112.89a3.88,3.88,0,0,0-7.39-1.69,3.89,3.89,0,0,0-7.4,1.69c0,2.45,2.75,4.77,4.65,6a16.73,16.73,0,0,1,2.92,2.31,10.67,10.67,0,0,1,3.07-2.61C277.2,117.6,279.45,115.16,279.45,112.89Z" style="fill:#D07796"></path><path d="M279.45,112.89a3.88,3.88,0,0,0-7.39-1.69,3.89,3.89,0,0,0-7.4,1.69c0,2.45,2.75,4.77,4.65,6a16.73,16.73,0,0,1,2.92,2.31,10.67,10.67,0,0,1,3.07-2.61C277.2,117.6,279.45,115.16,279.45,112.89Z" style="fill:#fff;opacity:0.4"></path><path d="M255.71,96.83a2.16,2.16,0,0,0-4.11-.94,2.16,2.16,0,0,0-4.11.94c0,1.36,1.53,2.65,2.58,3.34a9.59,9.59,0,0,1,1.63,1.29,6,6,0,0,1,1.7-1.46A4.26,4.26,0,0,0,255.71,96.83Z" style="fill:#D07796"></path><path d="M255.71,96.83a2.16,2.16,0,0,0-4.11-.94,2.16,2.16,0,0,0-4.11.94c0,1.36,1.53,2.65,2.58,3.34a9.59,9.59,0,0,1,1.63,1.29,6,6,0,0,1,1.7-1.46A4.26,4.26,0,0,0,255.71,96.83Z" style="fill:#fff;opacity:0.4"></path><path d="M238.22,109.69a2.17,2.17,0,0,0-4.12-.94,2.16,2.16,0,0,0-4.11.94c0,1.37,1.53,2.66,2.59,3.35a8.93,8.93,0,0,1,1.62,1.28,6,6,0,0,1,1.71-1.45A4.28,4.28,0,0,0,238.22,109.69Z" style="fill:#D07796"></path><path d="M238.22,109.69a2.17,2.17,0,0,0-4.12-.94,2.16,2.16,0,0,0-4.11.94c0,1.37,1.53,2.66,2.59,3.35a8.93,8.93,0,0,1,1.62,1.28,6,6,0,0,1,1.71-1.45A4.28,4.28,0,0,0,238.22,109.69Z" style="fill:#fff;opacity:0.4"></path></g></svg>
