<svg xmlns="http://www.w3.org/2000/svg" viewBox="0 0 500 500"><g id="freepik--background-complete--inject-79"><path d="M462.37,257.78s0-1.18-.11-3.48q0-1.73-.12-4.29c0-.85-.05-1.77-.08-2.76s-.14-2-.22-3.16c-.17-2.24-.37-4.74-.58-7.5s-.72-5.76-1.12-9a225,225,0,0,0-4.35-22.23c-.47-2.08-1.15-4.17-1.74-6.34l-.94-3.29-.48-1.67c-.18-.56-.37-1.11-.56-1.67-.76-2.25-1.54-4.54-2.34-6.89-.37-1.18-.84-2.35-1.31-3.53s-.94-2.37-1.41-3.58a207.24,207.24,0,0,0-14.93-30.23,216.57,216.57,0,0,0-54.48-61,214,214,0,0,0-90.29-40.1l-6.64-1.18L273.92,45c-4.51-.68-9.11-.87-13.72-1.26-1.15-.11-2.31-.14-3.47-.16l-3.49-.09-3.51-.08c-1.17,0-2.34-.07-3.52,0-4.7.15-9.44.13-14.19.6a213.55,213.55,0,0,0-28.74,4l-7.2,1.66-1.81.42-1.79.5-3.58,1c-4.81,1.26-9.52,3-14.3,4.58-2.36.86-4.69,1.83-7.06,2.75-1.17.47-2.36.92-3.53,1.41l-3.48,1.57L157,63.49c-1.16.53-2.34,1-3.47,1.64l-6.87,3.52a226.05,226.05,0,0,0-26.41,16.72,236.2,236.2,0,0,0-24.2,20.84,230.92,230.92,0,0,0-21.18,24.72l-4.78,6.71q-2.23,3.48-4.48,7c-1.54,2.3-2.83,4.76-4.24,7.15l-2.07,3.61c-.66,1.22-1.28,2.47-1.92,3.71l-1.91,3.72-.95,1.87c-.31.63-.58,1.27-.87,1.91-1.16,2.55-2.31,5.1-3.47,7.66s-2.06,5.23-3.1,7.85l-.77,2-.68,2-1.36,4-1.36,4-1.16,4.09-1.17,4.11-.57,2-.48,2.08-1.92,8.35c-.5,2.82-1,5.64-1.51,8.46a231.59,231.59,0,0,0-2.81,34.51,231.83,231.83,0,0,0,2.8,34.52c.5,2.82,1,5.64,1.51,8.46s1.28,5.57,1.91,8.35l.49,2.08c.17.69.38,1.38.57,2.06l1.16,4.1,1.17,4.1,1.35,4,1.36,4,.68,2,.78,2c1,2.63,2.07,5.24,3.1,7.86s2.31,5.11,3.46,7.66l.87,1.91,1,1.87,1.91,3.72,1.91,3.72,2.08,3.61c1.41,2.39,2.69,4.85,4.24,7.15l4.48,7,4.77,6.71a230.15,230.15,0,0,0,21.19,24.73,233.91,233.91,0,0,0,24.2,20.84,224.94,224.94,0,0,0,26.42,16.73l6.87,3.52c1.13.61,2.31,1.11,3.47,1.64l3.49,1.58,3.48,1.57c1.17.5,2.36.94,3.53,1.41,2.37.92,4.7,1.89,7.06,2.76,4.78,1.59,9.49,3.31,14.3,4.57l3.59,1,1.79.5,1.8.41,7.2,1.67a213.74,213.74,0,0,0,28.74,4c4.76.47,9.5.45,14.2.6,1.18.05,2.35,0,3.52,0l3.51-.09,3.49-.09c1.16,0,2.32-.05,3.47-.16,4.62-.39,9.21-.58,13.72-1.26,2.26-.29,4.51-.56,6.75-.87l6.64-1.18a213.93,213.93,0,0,0,90.3-40.1,217.09,217.09,0,0,0,54.47-61A207.22,207.22,0,0,0,447,337.18c.48-1.21.95-2.4,1.41-3.58s.94-2.34,1.32-3.53q1.18-3.52,2.33-6.88l.57-1.67c.16-.57.31-1.12.47-1.68l.94-3.29c.59-2.17,1.27-4.25,1.74-6.33A225.74,225.74,0,0,0,460.14,288c.4-3.25.84-6.25,1.12-9s.41-5.27.58-7.5c.08-1.12.2-2.17.22-3.16s.05-1.91.08-2.76q.08-2.57.12-4.29c.07-2.3.11-3.48.11-3.48s0,1.18-.06,3.48c0,1.15-.05,2.59-.09,4.29,0,.85,0,1.77-.07,2.76s-.13,2-.2,3.16c-.17,2.24-.36,4.75-.56,7.51s-.7,5.76-1.1,9a225.13,225.13,0,0,1-4.3,22.26c-.47,2.08-1.15,4.17-1.73,6.34l-.94,3.29c-.15.56-.31,1.12-.47,1.68l-.56,1.68q-1.14,3.36-2.33,6.89c-.38,1.19-.84,2.36-1.31,3.54s-.93,2.37-1.41,3.58a206.42,206.42,0,0,1-14.9,30.29,216.86,216.86,0,0,1-54.5,61.14,214.35,214.35,0,0,1-90.44,40.23l-6.65,1.19c-2.24.32-4.5.58-6.77.88-4.51.68-9.12.88-13.74,1.26-1.16.12-2.32.14-3.48.17l-3.5.09-3.52.09c-1.17,0-2.34.06-3.52,0-4.71-.15-9.47-.12-14.23-.59a215,215,0,0,1-28.81-4L196,466.35l-1.81-.41-1.8-.51-3.59-1c-4.82-1.26-9.54-3-14.33-4.58-2.37-.87-4.71-1.84-7.08-2.76-1.18-.47-2.37-.92-3.54-1.41l-3.49-1.58-3.5-1.58c-1.16-.53-2.35-1-3.48-1.64l-6.88-3.53A226,226,0,0,1,120,430.58,236,236,0,0,1,95.72,409.7a232.4,232.4,0,0,1-21.24-24.79l-4.79-6.73-4.49-7c-1.55-2.3-2.83-4.77-4.25-7.17l-2.08-3.62L57,356.7,55,353l-1-1.87-.87-1.92-3.48-7.68q-1.54-3.93-3.11-7.88l-.77-2-.68-2-1.37-4-1.36-4-1.16-4.1-1.17-4.12c-.19-.68-.4-1.37-.58-2.06l-.48-2.08-1.92-8.38c-.5-2.82-1-5.65-1.51-8.48a231.47,231.47,0,0,1-2.81-34.6,231.45,231.45,0,0,1,2.82-34.59c.5-2.83,1-5.66,1.51-8.48s1.28-5.58,1.92-8.37l.48-2.09.58-2.06,1.17-4.11,1.16-4.1,1.37-4,1.36-4,.68-2,.78-2c1-2.63,2.07-5.25,3.11-7.87l3.47-7.68c.29-.64.57-1.28.88-1.91l.95-1.87L57,158.83c.64-1.24,1.26-2.49,1.92-3.72L61,151.49c1.41-2.39,2.7-4.86,4.25-7.16l4.49-7,4.78-6.73a232.28,232.28,0,0,1,21.24-24.78A236,236,0,0,1,120,85a227.13,227.13,0,0,1,26.48-16.75l6.89-3.53c1.13-.61,2.31-1.11,3.48-1.64l3.49-1.58,3.49-1.58c1.17-.49,2.36-.94,3.54-1.41,2.37-.92,4.71-1.89,7.08-2.75,4.79-1.6,9.5-3.33,14.33-4.58l3.59-1,1.79-.5,1.82-.42,7.21-1.66a213,213,0,0,1,28.8-4c4.77-.47,9.52-.45,14.23-.6,1.18,0,2.35,0,3.52,0l3.52.09,3.5.08c1.16,0,2.32.06,3.48.17,4.62.39,9.22.58,13.74,1.26l6.76.88,6.66,1.19a214.5,214.5,0,0,1,90.44,40.22A216.86,216.86,0,0,1,432.33,148a206.52,206.52,0,0,1,14.91,30.29c.47,1.21.94,2.4,1.41,3.59s.93,2.34,1.31,3.53c.79,2.35,1.57,4.65,2.32,6.9l.57,1.67c.16.56.31,1.12.47,1.68.32,1.11.63,2.21.93,3.29.59,2.18,1.27,4.27,1.74,6.35a224,224,0,0,1,4.3,22.26c.4,3.26.83,6.27,1.1,9s.39,5.27.56,7.51c.07,1.12.18,2.17.2,3.16s.05,1.91.07,2.76q.06,2.56.09,4.29C462.36,256.6,462.37,257.78,462.37,257.78Z" style="fill:#e0e0e0"></path><path d="M444.94,257.78s-.05-1.08-.11-3.2c0-1.06-.07-2.37-.11-3.93,0-.79-.05-1.63-.07-2.54s-.14-1.88-.21-2.9q-.24-3.09-.53-6.9c-.26-2.53-.66-5.29-1-8.28-.84-6-2.14-12.82-4-20.43-.43-1.91-1.06-3.83-1.6-5.82-.29-1-.57-2-.86-3-.15-.51-.29-1-.44-1.54s-.35-1-.52-1.54c-.7-2.06-1.41-4.17-2.15-6.32-.34-1.09-.77-2.16-1.2-3.24l-1.3-3.29a190.35,190.35,0,0,0-13.71-27.78A199.38,199.38,0,0,0,367,101a196.65,196.65,0,0,0-83-36.83L278,63.1l-6.2-.8c-4.14-.62-8.37-.8-12.6-1.15-1.06-.1-2.13-.13-3.2-.15l-3.2-.08-3.22-.08c-1.08,0-2.16-.06-3.24,0-4.31.14-8.67.12-13,.55a196.66,196.66,0,0,0-26.4,3.69l-6.61,1.52-1.66.39-1.64.46-3.29.93c-4.43,1.16-8.75,2.74-13.14,4.2A210.52,210.52,0,0,0,154.92,84a207.29,207.29,0,0,0-24.27,15.36,217.72,217.72,0,0,0-22.23,19.15A212.69,212.69,0,0,0,89,141.25l-4.38,6.17-4.12,6.39c-1.42,2.1-2.6,4.36-3.89,6.56l-1.91,3.32c-.6,1.13-1.17,2.27-1.76,3.41l-1.75,3.42-.88,1.71c-.28.58-.53,1.17-.8,1.76-1.06,2.34-2.12,4.68-3.18,7l-2.85,7.21-.72,1.81-.62,1.84-1.25,3.69-1.25,3.7L58.54,203l-1.07,3.77-.53,1.89-.44,1.91q-.89,3.82-1.76,7.67-.7,3.89-1.39,7.77a196.47,196.47,0,0,0,0,63.41c.46,2.6.93,5.19,1.39,7.78s1.17,5.12,1.76,7.67l.44,1.91c.16.64.35,1.26.52,1.89l1.07,3.77,1.07,3.76,1.25,3.7,1.25,3.7.62,1.84.71,1.81c1,2.41,1.9,4.81,2.85,7.21l3.19,7.05.8,1.75.87,1.71,1.76,3.43,1.75,3.41,1.91,3.32c1.3,2.19,2.48,4.45,3.9,6.56l4.11,6.4L89,374.3A212.52,212.52,0,0,0,108.41,397a216.48,216.48,0,0,0,22.23,19.15A197.59,197.59,0,0,0,180.55,443c4.39,1.47,8.71,3.05,13.14,4.2l3.29.94,1.64.46,1.66.38,6.61,1.53a195.17,195.17,0,0,0,26.41,3.68c4.37.44,8.73.42,13,.55,1.08,0,2.16,0,3.24,0l3.22-.08,3.2-.08c1.07,0,2.14,0,3.2-.15,4.23-.35,8.46-.53,12.6-1.15l6.2-.8,6.1-1.09a196.35,196.35,0,0,0,82.95-36.84,199.13,199.13,0,0,0,50.05-56,189.75,189.75,0,0,0,13.71-27.77l1.3-3.29c.44-1.09.86-2.16,1.21-3.24q1.1-3.24,2.14-6.33c.18-.51.35-1,.52-1.53s.29-1,.44-1.54l.86-3c.54-2,1.17-3.91,1.6-5.83,1.86-7.6,3.16-14.45,4-20.42.37-3,.77-5.75,1-8.28s.37-4.84.53-6.9c.07-1,.18-2,.21-2.9s.05-1.75.07-2.53c0-1.57.08-2.88.11-3.94.06-2.12.11-3.2.11-3.2s0,1.08-.06,3.2c0,1.06-.05,2.37-.08,3.94,0,.78,0,1.63-.06,2.54s-.13,1.87-.19,2.9c-.15,2.06-.33,4.36-.51,6.9s-.65,5.3-1,8.29A205.75,205.75,0,0,1,439.08,306c-.43,1.92-1.05,3.84-1.59,5.83-.29,1-.57,2-.86,3-.14.51-.29,1-.44,1.54l-.51,1.54q-1.05,3.09-2.14,6.34c-.34,1.09-.77,2.16-1.2,3.24l-1.3,3.3a189,189,0,0,1-13.69,27.83,199.42,199.42,0,0,1-50.07,56.18,197,197,0,0,1-83.1,37l-6.11,1.1-6.22.8c-4.15.63-8.38.81-12.63,1.17-1.06.1-2.13.13-3.2.15l-3.21.08-3.23.08c-1.08,0-2.16.06-3.24,0-4.33-.14-8.7-.12-13.07-.55A195.81,195.81,0,0,1,206.8,451l-6.63-1.53L198.5,449l-1.64-.46-3.3-.93c-4.44-1.16-8.77-2.74-13.17-4.21A210.19,210.19,0,0,1,154.68,432a207.85,207.85,0,0,1-24.33-15.4,215.34,215.34,0,0,1-22.3-19.19A212.65,212.65,0,0,1,88.54,374.6l-4.4-6.19L80,362c-1.42-2.11-2.6-4.38-3.9-6.58l-1.92-3.33-1.76-3.42-1.76-3.43-.88-1.72-.8-1.75-3.19-7.06c-1-2.41-1.91-4.82-2.86-7.24l-.71-1.81-.63-1.85-1.25-3.7L59.1,316.4,58,312.62,57,308.85c-.17-.64-.36-1.26-.53-1.9L56,305q-.87-3.84-1.76-7.69c-.46-2.59-.93-5.19-1.39-7.8a212.67,212.67,0,0,1-2.58-31.79A212.54,212.54,0,0,1,52.84,226q.69-3.9,1.39-7.79c.59-2.57,1.17-5.13,1.76-7.69l.44-1.92.53-1.89L58,202.9l1.07-3.77,1.25-3.71,1.25-3.7.63-1.85.71-1.81q1.44-3.63,2.86-7.24c1.07-2.35,2.13-4.71,3.19-7,.27-.59.53-1.18.81-1.76l.88-1.72,1.75-3.43c.59-1.14,1.16-2.29,1.77-3.42l1.91-3.32c1.3-2.21,2.48-4.47,3.91-6.58l4.12-6.41,4.4-6.18a212.65,212.65,0,0,1,19.51-22.77A217.42,217.42,0,0,1,130.35,99a197.89,197.89,0,0,1,50-26.88c4.4-1.47,8.73-3.05,13.17-4.2l3.29-.94,1.65-.46,1.67-.39,6.62-1.52a197.67,197.67,0,0,1,26.47-3.69c4.38-.43,8.74-.41,13.07-.54,1.08-.05,2.16,0,3.24,0l3.23.08,3.21.08c1.07,0,2.14.05,3.2.15,4.25.36,8.48.54,12.63,1.17l6.22.8,6.11,1.1a196.7,196.7,0,0,1,83.1,37,199.47,199.47,0,0,1,50.08,56.17A190.65,190.65,0,0,1,431,184.74c.44,1.11.87,2.2,1.29,3.29s.86,2.16,1.21,3.25q1.09,3.24,2.14,6.33l.51,1.54c.15.52.29,1,.44,1.54l.85,3c.54,2,1.17,3.92,1.6,5.83A205.9,205.9,0,0,1,443,230c.36,3,.76,5.75,1,8.29s.36,4.84.51,6.9c.06,1,.17,2,.19,2.9s0,1.76.06,2.54c0,1.57.06,2.88.08,3.94C444.93,256.7,444.94,257.78,444.94,257.78Z" style="fill:#e0e0e0"></path><polygon points="37.99 106.35 35.06 101.78 40.02 104.06 41.72 98.65 42.96 103.87 48.44 101.84 45.17 106.35 50.01 109.28 44.46 109.28 45.04 114.9 41.52 110.66 37.93 114.9 38.71 109.42 33.23 109.16 37.99 106.35" style="fill:#e0e0e0"></polygon><polygon points="125.33 35.57 122.39 31 127.35 33.29 129.04 27.87 130.29 33.09 135.77 31.07 132.5 35.57 137.34 38.51 131.79 38.51 132.37 44.12 128.85 39.88 125.26 44.12 126.04 38.64 120.56 38.38 125.33 35.57" style="fill:#e0e0e0"></polygon><polygon points="456.25 37.42 454.56 34.8 457.41 36.11 458.38 32.99 459.1 35.99 462.25 34.83 460.37 37.42 463.14 39.11 459.96 39.11 460.3 42.33 458.27 39.89 456.21 42.33 456.66 39.18 453.51 39.03 456.25 37.42" style="fill:#e0e0e0"></polygon><polygon points="41.33 39.4 39.64 36.78 42.49 38.09 43.47 34.98 44.18 37.98 47.33 36.82 45.45 39.4 48.23 41.09 45.04 41.09 45.38 44.32 43.36 41.88 41.29 44.32 41.74 41.17 38.59 41.02 41.33 39.4" style="fill:#e0e0e0"></polygon><polygon points="34.79 370.21 32.95 367.35 36.06 368.78 37.13 365.38 37.91 368.66 41.34 367.39 39.3 370.21 42.33 372.06 38.85 372.06 39.22 375.58 37 372.92 34.75 375.58 35.24 372.14 31.8 371.97 34.79 370.21" style="fill:#e0e0e0"></polygon><polygon points="360.82 468.24 357.65 463.31 363.01 465.77 364.84 459.92 366.18 465.56 372.1 463.38 368.58 468.24 373.8 471.42 367.8 471.42 368.44 477.48 364.63 472.9 360.75 477.48 361.6 471.56 355.68 471.27 360.82 468.24" style="fill:#e0e0e0"></polygon><polygon points="349.94 35.54 346.77 30.6 352.12 33.07 353.96 27.22 355.3 32.86 361.22 30.67 357.69 35.54 362.91 38.71 356.92 38.71 357.55 44.77 353.75 40.19 349.87 44.77 350.71 38.85 344.79 38.57 349.94 35.54" style="fill:#e0e0e0"></polygon><polygon points="438.63 462.45 436.52 459.16 440.09 460.8 441.31 456.9 442.2 460.66 446.15 459.21 443.8 462.45 447.28 464.56 443.29 464.56 443.71 468.61 441.17 465.55 438.58 468.61 439.15 464.66 435.2 464.47 438.63 462.45" style="fill:#e0e0e0"></polygon><polygon points="445.64 402.98 443.52 399.69 447.1 401.34 448.32 397.43 449.21 401.19 453.16 399.74 450.81 402.98 454.29 405.1 450.29 405.1 450.72 409.14 448.18 406.08 445.59 409.14 446.16 405.19 442.21 405 445.64 402.98" style="fill:#e0e0e0"></polygon><polygon points="470.99 321.91 468.88 318.62 472.45 320.26 473.67 316.36 474.56 320.12 478.51 318.67 476.16 321.91 479.64 324.02 475.64 324.02 476.07 328.07 473.53 325.01 470.94 328.07 471.51 324.12 467.56 323.93 470.99 321.91" style="fill:#e0e0e0"></polygon><polygon points="455.52 100.81 453.41 97.52 456.98 99.16 458.2 95.26 459.1 99.02 463.04 97.56 460.69 100.81 464.17 102.92 460.18 102.92 460.6 106.97 458.06 103.91 455.48 106.97 456.04 103.02 452.09 102.83 455.52 100.81" style="fill:#e0e0e0"></polygon><polygon points="103.33 472.46 100.41 467.92 105.34 470.19 107.03 464.8 108.26 469.99 113.71 467.98 110.47 472.46 115.27 475.38 109.75 475.38 110.34 480.96 106.83 476.74 103.26 480.96 104.04 475.51 98.59 475.25 103.33 472.46" style="fill:#e0e0e0"></polygon><path d="M256.38,472.43a5.69,5.69,0,1,1-5.69-5.68A5.69,5.69,0,0,1,256.38,472.43Z" style="fill:#e0e0e0"></path><circle cx="33.07" cy="258.15" r="5.69" style="fill:#e0e0e0"></circle><circle cx="464.78" cy="258.15" r="5.69" style="fill:#e0e0e0"></circle><path d="M253.86,27.74a5.69,5.69,0,1,1-5.69-5.69A5.68,5.68,0,0,1,253.86,27.74Z" style="fill:#e0e0e0"></path><path d="M438.05,164.18c-4.84,11.73-15.48,20.38-27.16,22.08s-24-3.62-31.5-13.57c1.62,7.07-6.5,14.14-12.44,10.84,2.3,20.83-9.89,42.52-27.94,49.7s-40.16-.88-50.65-18.46c-14.73,2.33-30.4-6.33-37.4-20.68-7.8,10.26-22.53,13.25-33.19,6.73-.4,13.58-11.09,25.28-23.3,27.86s-25.1-2.91-34.13-12.25-14.57-22.12-17.79-35.24c-18.3,5.87-39.58-1.79-51.1-18.39a44.45,44.45,0,0,1-21.91,8.35c-9,.9-18.85-3.29-27-7.48,0,0-13.64-7.21-14.47-7l13-.58c8.45-1.47,9.55-8.28,14.32-11.88,9.47-7.17,20.51-1.15,23.09,6.11,4.34-12.91,10.12-21.5,22-26.13a40.55,40.55,0,0,1,36.43,3.77c6.43-16.86,28-24.16,42-14.21C184.28,84,207.46,59,234.79,53.6s57,9.13,71.57,35a26.18,26.18,0,0,1,25.13,5.64c6.88,6.16,10.73,16.14,10,25.82,16.08-7.07,33.85-.25,47.42,11.53,8.75-15.69,43.14-11.93,52.41,14.92,0,0,14.43,8.95,32,6.09C473.32,152.58,465.66,168.44,438.05,164.18Z" style="fill:#ebebeb"></path><path d="M121.12,153.82a4.55,4.55,0,0,0,2.61,5.07,3.6,3.6,0,0,0,3.14-.26,5.64,5.64,0,0,0,2.43-2.95c1-2.62-.08-6.33-3-8.37a8,8,0,0,0-5.24-1.4,9.11,9.11,0,0,0-5.43,2.31c-3.09,2.81-4.25,7.83-2.92,12.31a12.57,12.57,0,0,0,3.91,5.91,12,12,0,0,0,14.22,1.21,15.3,15.3,0,0,0,5.58-5.63,15,15,0,0,0,2-7.68,22,22,0,0,0-1.44-7.66,28.31,28.31,0,0,0-8.58-11.9,26.06,26.06,0,0,0-12.06-5.6,23.12,23.12,0,0,0-6.07-.25,25.35,25.35,0,0,0-5.48,1.19,27.84,27.84,0,0,0-8.41,4.71A29.35,29.35,0,0,0,89,144.1q-.34.68-.54,1.08a2.14,2.14,0,0,1-.2.36,2.09,2.09,0,0,1,.15-.38l.49-1.11a29,29,0,0,1,2.36-4,28.4,28.4,0,0,1,5-5.42,27.74,27.74,0,0,1,8.47-4.84,25.37,25.37,0,0,1,5.56-1.24,23.08,23.08,0,0,1,6.18.23,26.46,26.46,0,0,1,12.29,5.64,28.81,28.81,0,0,1,8.76,12.11,22.59,22.59,0,0,1,1.48,7.83,15.68,15.68,0,0,1-2.07,7.94,15.87,15.87,0,0,1-5.77,5.82,12.91,12.91,0,0,1-18.85-7.44c-1.36-4.65-.16-9.81,3.09-12.76a9.56,9.56,0,0,1,5.69-2.39,8.43,8.43,0,0,1,5.48,1.5c3,2.16,4.16,6,3,8.77a5.91,5.91,0,0,1-2.58,3.07,3.79,3.79,0,0,1-3.34.22,4.74,4.74,0,0,1-2.7-3.64,3.66,3.66,0,0,1,0-1.21A2.19,2.19,0,0,1,121.12,153.82Z" style="fill:#e0e0e0"></path><path d="M95.29,132.66c0,.07-.81.73-2.07,1.93a31.4,31.4,0,0,0-4.36,5.18,33.72,33.72,0,0,0-3.16,6,23,23,0,0,1-1,2.63,11.42,11.42,0,0,1,.71-2.76,27.31,27.31,0,0,1,3.07-6.15A25.81,25.81,0,0,1,93,134.32,10.44,10.44,0,0,1,95.29,132.66Z" style="fill:#e0e0e0"></path><path d="M99.92,129.26c.08.12-.46.62-1.22,1.12s-1.43.8-1.51.68.47-.62,1.22-1.12S99.84,129.14,99.92,129.26Z" style="fill:#e0e0e0"></path><path d="M134.08,131.7a37.87,37.87,0,0,0-5.75-3.51,32.8,32.8,0,0,0-6.48-1.85,5.76,5.76,0,0,1,2,0,17.18,17.18,0,0,1,4.68,1.33,18.07,18.07,0,0,1,4.13,2.55A6.09,6.09,0,0,1,134.08,131.7Z" style="fill:#e0e0e0"></path><path d="M140.22,167.42a7.12,7.12,0,0,1,.52-1.24c.36-.78.88-1.91,1.46-3.32A35.35,35.35,0,0,0,145,151.32a20.82,20.82,0,0,0-2.6-11.43,18.81,18.81,0,0,0-3.1-3.82s.12.05.3.18a6.48,6.48,0,0,1,.78.63,13.24,13.24,0,0,1,2.34,2.82,20.42,20.42,0,0,1,2.8,11.65,33.11,33.11,0,0,1-3,11.65c-.63,1.41-1.2,2.52-1.62,3.27A6.94,6.94,0,0,1,140.22,167.42Z" style="fill:#e0e0e0"></path><path d="M169.66,115.58a43.25,43.25,0,0,0-4.92-.55,24.18,24.18,0,0,0-11.48,2.53,27,27,0,0,0-9.07,7.55c-1.87,2.42-2.69,4.15-2.78,4.1A7.47,7.47,0,0,1,142,128a23.25,23.25,0,0,1,1.93-3.1A25.76,25.76,0,0,1,153,117.1a23.32,23.32,0,0,1,11.74-2.44,20.87,20.87,0,0,1,3.62.52A5.64,5.64,0,0,1,169.66,115.58Z" style="fill:#e0e0e0"></path><path d="M171.44,123.2a22.86,22.86,0,0,0-7.12-1.13,23.23,23.23,0,0,0-7,1.67,6,6,0,0,1,1.89-1.07,15,15,0,0,1,5.11-1.12,14.52,14.52,0,0,1,5.18.73A5.81,5.81,0,0,1,171.44,123.2Z" style="fill:#e0e0e0"></path><path d="M300.26,95.25a2.79,2.79,0,0,1-.21-.35l-.58-1-.94-1.69-1.38-2.24c-1-1.67-2.44-3.65-4.16-5.87a73.07,73.07,0,0,0-6.44-7A62.47,62.47,0,0,0,265.7,64a56.67,56.67,0,0,0-29.86-2.55,58.6,58.6,0,0,0-14.9,4.83,59.7,59.7,0,0,0-12.27,7.88A67.33,67.33,0,0,0,193,93.18a72.47,72.47,0,0,0-6.36,15.45c-.25,1-.48,1.79-.68,2.53s-.31,1.37-.42,1.88-.2.87-.27,1.16a1.86,1.86,0,0,1-.11.39,2,2,0,0,1,.06-.4c.05-.29.12-.67.22-1.17s.22-1.15.37-1.89.4-1.6.64-2.56A69.88,69.88,0,0,1,192.71,93a66.86,66.86,0,0,1,15.65-19.25,59.35,59.35,0,0,1,12.36-8,58.71,58.71,0,0,1,15-4.88,56.76,56.76,0,0,1,30.11,2.61A62.09,62.09,0,0,1,286.8,76.78a71.49,71.49,0,0,1,6.42,7.11c1.7,2.25,3.07,4.25,4.11,6l1.33,2.27c.37.67.66,1.25.9,1.71s.4.8.54,1.06A2.21,2.21,0,0,1,300.26,95.25Z" style="fill:#e0e0e0"></path><path d="M281.13,141.27a11.64,11.64,0,0,0,4.63-1.34,14.67,14.67,0,0,0,4.36-3.61,21.93,21.93,0,0,0,3.61-6.58,37.14,37.14,0,0,0,1.9-8.94,41.37,41.37,0,0,0-.3-10.48,49,49,0,0,0-9.28-22,43.88,43.88,0,0,0-8.8-8.79,46.32,46.32,0,0,0-10.1-5.68A51.54,51.54,0,0,0,257.06,71a57.38,57.38,0,0,0-9.13-.84,60.38,60.38,0,0,0-13.2,1.41c-1.54.31-2.71.65-3.51.86l-.91.24a1.31,1.31,0,0,1-.32.06l.3-.11.9-.29c.79-.25,2-.61,3.5-1a58.21,58.21,0,0,1,13.25-1.58,57,57,0,0,1,9.2.79,51.12,51.12,0,0,1,10.19,2.91,46.29,46.29,0,0,1,10.23,5.71,44.35,44.35,0,0,1,8.9,8.89,49,49,0,0,1,9.34,22.21,41.24,41.24,0,0,1,.26,10.59,37.15,37.15,0,0,1-2,9,21.73,21.73,0,0,1-3.73,6.65,14.6,14.6,0,0,1-4.48,3.6,11,11,0,0,1-3.47,1.1A5.71,5.71,0,0,1,281.13,141.27Z" style="fill:#e0e0e0"></path><path d="M374.3,152.87l.15-.33.2-.39.2-.57a7.17,7.17,0,0,0,.09-3.94,7.88,7.88,0,0,0-3.59-5,6.54,6.54,0,0,0-3.77-.69,8.56,8.56,0,0,0-4,1.61,9.94,9.94,0,0,0-3.08,3.65,13.32,13.32,0,0,0-1.31,5.05,17.88,17.88,0,0,0,3,11,11.85,11.85,0,0,0,4.61,4.09,8.65,8.65,0,0,0,6.3.36,12.56,12.56,0,0,0,5.57-3.64,20.11,20.11,0,0,0,3.62-6,34.32,34.32,0,0,0,2.5-13.54c-.13-4.44-1.43-8.81-4.19-11.86s-6.51-4.64-10-5.66c-1.76-.51-3.49-.91-5.16-1.28s-3.27-.71-4.81-1a44.72,44.72,0,0,0-8.38-.83,23.24,23.24,0,0,0-6.28.85A20.73,20.73,0,0,0,341,127a1.76,1.76,0,0,1,.29-.21l.89-.57c.39-.24.91-.47,1.52-.79a21.13,21.13,0,0,1,2.19-.81,23.26,23.26,0,0,1,6.33-.94,43.94,43.94,0,0,1,8.45.76c1.55.27,3.16.59,4.84,1s3.41.76,5.19,1.27a28.34,28.34,0,0,1,5.37,2.06,16.7,16.7,0,0,1,4.87,3.69c2.87,3.15,4.2,7.64,4.34,12.16a34.67,34.67,0,0,1-2.53,13.76,20.36,20.36,0,0,1-3.71,6.09,13.1,13.1,0,0,1-5.81,3.79,9.16,9.16,0,0,1-6.66-.4,12.17,12.17,0,0,1-4.79-4.27,18.28,18.28,0,0,1-3-11.31,13.58,13.58,0,0,1,1.38-5.2,10.35,10.35,0,0,1,3.23-3.77,8.89,8.89,0,0,1,4.21-1.64,6.72,6.72,0,0,1,3.94.77,8,8,0,0,1,3.64,5.16,7,7,0,0,1-.18,4l-.23.57c-.08.15-.16.27-.22.38A1.64,1.64,0,0,1,374.3,152.87Z" style="fill:#e0e0e0"></path><path d="M385.17,168.89c-.09,0,.79-1.56,1.82-4.19a39.21,39.21,0,0,0,1.5-4.7,45.1,45.1,0,0,0,1-6,44.17,44.17,0,0,0,.08-6,39,39,0,0,0-.62-4.9c-.53-2.76-1.11-4.42-1-4.45a5.08,5.08,0,0,1,.47,1.14c.14.37.29.83.44,1.38s.34,1.16.47,1.86a35.67,35.67,0,0,1,.74,4.94,36.59,36.59,0,0,1-1.1,12.15,34,34,0,0,1-1.62,4.73c-.26.66-.56,1.23-.81,1.74s-.48.94-.68,1.28A6.12,6.12,0,0,1,385.17,168.89Z" style="fill:#e0e0e0"></path><path d="M414.83,162.44a6.31,6.31,0,0,0,1.2.68,4.49,4.49,0,0,0,3.79-.47,5.09,5.09,0,0,0,1.9-2,5.93,5.93,0,0,0,.49-3.29,7.28,7.28,0,0,0-1.5-3.52,6.13,6.13,0,0,0-3.58-2.25,8.74,8.74,0,0,0-8.68,3.66,12.4,12.4,0,0,0-1.91,10.89,11.35,11.35,0,0,0,3.36,5.1,9.9,9.9,0,0,0,5.81,2.49,10.61,10.61,0,0,0,6.31-1.77,17.47,17.47,0,0,0,4.87-4.86,22.38,22.38,0,0,0,2.89-6.29,24.32,24.32,0,0,0,1-6.67,26.78,26.78,0,0,0-.62-6.49,31.34,31.34,0,0,0-.83-3.06,30.1,30.1,0,0,0-1.18-2.86A21.58,21.58,0,0,0,420.8,133a20.86,20.86,0,0,0-9.42-3.31,22.22,22.22,0,0,0-8.25.81c-.58.19-1.16.33-1.68.56l-1.52.64a24,24,0,0,0-2.49,1.43l-1,.69-.84.68-.71.58c-.21.19-.38.38-.55.54l-.74.73-.27.24a2.14,2.14,0,0,1,.23-.28l.71-.76c.16-.17.33-.36.53-.56l.7-.61.83-.71,1-.71a23.28,23.28,0,0,1,2.5-1.48l1.53-.67c.53-.24,1.11-.38,1.7-.59a22.24,22.24,0,0,1,8.36-.9,21.14,21.14,0,0,1,9.63,3.32,21.9,21.9,0,0,1,7.53,8.9,25.8,25.8,0,0,1,1.21,2.91,28.44,28.44,0,0,1,.85,3.11,27.14,27.14,0,0,1,.65,6.6,24.51,24.51,0,0,1-1,6.8,22.07,22.07,0,0,1-2.95,6.44,17.87,17.87,0,0,1-5,5,11.07,11.07,0,0,1-6.62,1.85,10.4,10.4,0,0,1-6.09-2.62,11.77,11.77,0,0,1-3.49-5.33,12.78,12.78,0,0,1,2-11.3c2.21-3,6-4.52,9.1-3.76a6.52,6.52,0,0,1,3.76,2.4,7.58,7.58,0,0,1,1.53,3.7,6.26,6.26,0,0,1-.55,3.43,5.34,5.34,0,0,1-2,2.1,4.5,4.5,0,0,1-3.92.39,2.17,2.17,0,0,1-.55-.27,2.42,2.42,0,0,1-.36-.26C414.91,162.53,414.82,162.45,414.83,162.44Z" style="fill:#e0e0e0"></path><path d="M436,157.37c-.1,0,.26-1.86.17-4.86a27.57,27.57,0,0,0-2.76-11.26,24.83,24.83,0,0,0-7.38-8.9,43.61,43.61,0,0,0-4.13-2.55,6.18,6.18,0,0,1,1.24.47,19.17,19.17,0,0,1,3.11,1.79,23.81,23.81,0,0,1,7.63,9,26.33,26.33,0,0,1,2.66,11.48,24.84,24.84,0,0,1-.26,3.58A6.35,6.35,0,0,1,436,157.37Z" style="fill:#e0e0e0"></path><path d="M413,180.55a3.43,3.43,0,0,1-.85.2,17.92,17.92,0,0,1-2.35.22,25.22,25.22,0,0,1-7.75-.92,26.68,26.68,0,0,1-7.12-3.2,20.82,20.82,0,0,1-1.91-1.39c-.43-.36-.66-.57-.63-.6s1,.68,2.74,1.68a31.11,31.11,0,0,0,7.06,3,29.32,29.32,0,0,0,7.6,1C411.73,180.61,413,180.46,413,180.55Z" style="fill:#e0e0e0"></path><path d="M377.31,175.16a3.16,3.16,0,0,1-.47,1.71,6.19,6.19,0,0,1-3.12,3,5.56,5.56,0,0,1-4.3-.08c-1-.47-1.48-1-1.44-1.05s.58.36,1.58.71a5.63,5.63,0,0,0,4-.07,6.38,6.38,0,0,0,3-2.65C377.06,175.79,377.23,175.13,377.31,175.16Z" style="fill:#e0e0e0"></path><path d="M359.07,185.36a4.08,4.08,0,0,1,.15.79c.06.52.21,1.28.27,2.28a41.14,41.14,0,0,1-.22,8.45,42.6,42.6,0,0,1-3.4,12.06A38.39,38.39,0,0,1,347,221.45a34.23,34.23,0,0,1-25.71,9.05,30.54,30.54,0,0,1-8.27-1.72,21.06,21.06,0,0,1-2.13-.85,6.34,6.34,0,0,1-.72-.35,4.38,4.38,0,0,1,.76.25c.5.16,1.19.5,2.15.76a33,33,0,0,0,8.24,1.55,34.7,34.7,0,0,0,12.27-1.51,34.07,34.07,0,0,0,13.05-7.56,38.32,38.32,0,0,0,8.76-12.33,43.06,43.06,0,0,0,3.47-11.91,43.62,43.62,0,0,0,.38-8.39c0-1-.14-1.76-.17-2.28A6.8,6.8,0,0,1,359.07,185.36Z" style="fill:#e0e0e0"></path><path d="M193.5,190.69s.15.11.43.35a6,6,0,0,1,1.07,1.21,8.34,8.34,0,0,1,1.12,2.39,10.89,10.89,0,0,1,.37,3.57,11.47,11.47,0,0,1-1.13,4.36,9.08,9.08,0,0,1-3.64,3.89c-3.35,2-8.41,1.95-12.53-.71s-7.11-7.65-7.83-13.32a20,20,0,0,1,.75-8.78,20.42,20.42,0,0,1,4.85-8,19.74,19.74,0,0,1,8.39-5.08,18.07,18.07,0,0,1,10.2.06A22.18,22.18,0,0,1,204.7,176a24.56,24.56,0,0,1,5.94,9.16,30.7,30.7,0,0,1,.08,21.21,27.66,27.66,0,0,1-5.23,8.8,21.13,21.13,0,0,1-8,5.7,22.15,22.15,0,0,1-9.23,1.43,30.37,30.37,0,0,1-8.64-1.77,39,39,0,0,1-7.37-3.67,40.07,40.07,0,0,1-6-4.71,44,44,0,0,1-8-10.27,46.71,46.71,0,0,1-3.87-9c-.37-1.3-.71-2.45-.89-3.48a24.6,24.6,0,0,1-.48-2.58l-.21-1.6c0-.36,0-.55,0-.55s0,.18.1.54.15.91.26,1.59.3,1.56.53,2.57.55,2.16.94,3.45a46.91,46.91,0,0,0,3.92,8.95,43.87,43.87,0,0,0,8,10.14,40.06,40.06,0,0,0,5.91,4.65,39.55,39.55,0,0,0,7.29,3.59,30.14,30.14,0,0,0,8.52,1.72,21.64,21.64,0,0,0,9-1.42,20.82,20.82,0,0,0,7.79-5.58,27.25,27.25,0,0,0,5.13-8.65,30.24,30.24,0,0,0-.1-20.84,24.13,24.13,0,0,0-5.8-9,21.72,21.72,0,0,0-8.94-5.22,17.63,17.63,0,0,0-9.92-.08,19.3,19.3,0,0,0-8.18,5,19.73,19.73,0,0,0-4.76,7.77,19.43,19.43,0,0,0-.76,8.58c.69,5.57,3.6,10.46,7.6,13.07s8.93,2.68,12.18.77a8.8,8.8,0,0,0,3.57-3.76,11.29,11.29,0,0,0,1.15-4.25,10.73,10.73,0,0,0-.32-3.52,8.81,8.81,0,0,0-1.05-2.37A10.44,10.44,0,0,0,193.5,190.69Z" style="fill:#e0e0e0"></path><path d="M61,159.17a2.55,2.55,0,0,1-.07-.75,4.45,4.45,0,0,1,.6-2.07,4.5,4.5,0,0,1,2.62-2.15,4.41,4.41,0,0,1,4.26,1.25,6,6,0,0,1,1.71,5.14,7.12,7.12,0,0,1-3.37,5.23,7.77,7.77,0,0,1-6.86.4,12,12,0,0,1-5.58-4.92,9.65,9.65,0,0,1-1.33-3.59,8,8,0,0,1,.32-3.72,12.69,12.69,0,0,1,4-5.65,13.69,13.69,0,0,1,5.62-2.82,11,11,0,0,1,5.47.12,11.34,11.34,0,0,1,6.28,4.65,8.15,8.15,0,0,1,1.21,2.62,16.25,16.25,0,0,0-1.38-2.51A11.29,11.29,0,0,0,68.28,146,10.76,10.76,0,0,0,63,146a13.16,13.16,0,0,0-5.41,2.76,12.22,12.22,0,0,0-3.86,5.44,7.57,7.57,0,0,0-.3,3.48A9.11,9.11,0,0,0,54.7,161,11.61,11.61,0,0,0,60,165.75a7.3,7.3,0,0,0,6.43-.34,6.72,6.72,0,0,0,3.19-4.88,5.66,5.66,0,0,0-1.54-4.82,4.14,4.14,0,0,0-3.93-1.23,4.36,4.36,0,0,0-2.53,2,4.56,4.56,0,0,0-.66,2C60.94,158.91,61,159.17,61,159.17Z" style="fill:#e0e0e0"></path><path d="M50.14,160.84a7,7,0,0,1-.35-2.39,15.27,15.27,0,0,1,1-5.74,16.49,16.49,0,0,1,1.46-2.88,13.35,13.35,0,0,1,1.65-2.05,6.43,6.43,0,0,1,1.91-1.49c.05.08-.68.64-1.64,1.74a16,16,0,0,0-1.51,2.06,17.51,17.51,0,0,0-1.38,2.81,17.77,17.77,0,0,0-1.14,5.55C50.11,159.92,50.23,160.83,50.14,160.84Z" style="fill:#e0e0e0"></path><path d="M328.88,188.48l.47-.13a4.55,4.55,0,0,1,1.41-.06,6.64,6.64,0,0,1,4.47,2.91,8.1,8.1,0,0,1,1.44,3.66,10.61,10.61,0,0,1-.55,4.65,14.06,14.06,0,0,1-7.7,8.1,15.24,15.24,0,0,1-6.51,1.29A14.65,14.65,0,0,1,315,207a17.73,17.73,0,0,1-8.34-13,18.27,18.27,0,0,1,.86-8.54,23.12,23.12,0,0,1,4.57-7.7A26.86,26.86,0,0,1,328.39,169a21.42,21.42,0,0,1,13.81,2.74,23.56,23.56,0,0,1,3.73,2.74,22.86,22.86,0,0,1,7.56,15.47,34.81,34.81,0,0,1-2.79,15.52,40.46,40.46,0,0,1-7.22,11.74,25.26,25.26,0,0,1-9.2,6.62,20,20,0,0,1-8.44,1.47,17,17,0,0,1-5.3-1.14,10.42,10.42,0,0,1-1.28-.59c-.28-.14-.42-.23-.42-.23s.58.3,1.74.72a17.42,17.42,0,0,0,5.27,1,20.25,20.25,0,0,0,8.32-1.54,25.07,25.07,0,0,0,9-6.6,40.4,40.4,0,0,0,7.09-11.65A34.54,34.54,0,0,0,353,190a22.33,22.33,0,0,0-7.42-15.13,23.64,23.64,0,0,0-3.65-2.68,22.21,22.21,0,0,0-4.19-1.87,21.83,21.83,0,0,0-9.29-.79,26.32,26.32,0,0,0-16,8.6,22.58,22.58,0,0,0-4.48,7.53,17.81,17.81,0,0,0-.85,8.31,17.28,17.28,0,0,0,8.07,12.71,14.74,14.74,0,0,0,13.09.64,13.78,13.78,0,0,0,7.57-7.86,10.07,10.07,0,0,0,.58-4.52,8,8,0,0,0-1.36-3.58,6.56,6.56,0,0,0-4.31-2.92A6,6,0,0,0,328.88,188.48Z" style="fill:#e0e0e0"></path><path d="M467.91,361c-2.12,5.33-6.78,9.25-11.9,10a14.68,14.68,0,0,1-13.79-6.15c.71,3.2-2.85,6.41-5.46,4.91,1,9.46-4.33,19.3-12.23,22.56s-17.6-.4-22.19-8.38C395.88,385,389,381.11,386,374.6a11,11,0,0,1-14.53,3,13.63,13.63,0,0,1-10.21,12.65c-5.35,1.16-11-1.32-14.95-5.56s-6.38-10-7.79-16c-8,2.66-17.34-.82-22.39-8.35a19.11,19.11,0,0,1-9.6,3.79c-3.92.41-8.26-1.5-11.83-3.4,0,0-6-3.27-6.34-3.19l5.7-.26c3.71-.67,4.19-3.76,6.28-5.4a6.46,6.46,0,0,1,10.11,2.78c1.9-5.86,4.44-9.76,9.63-11.86a17.23,17.23,0,0,1,16,1.71c2.82-7.65,12.27-11,18.41-6.45,2.34-13.5,12.5-24.83,24.47-27.27s25,4.14,31.35,15.87a11.17,11.17,0,0,1,11,2.56A14.81,14.81,0,0,1,425.6,341c7-3.21,14.83-.12,20.77,5.23,3.84-7.12,21-5.62,25.06,6.57,0,0,.3,4.16,8.59,2.39C480,355.19,478.15,362,467.91,361Z" style="fill:#ebebeb"></path><path d="M329,356.17a3.22,3.22,0,0,0,0,.71,2.1,2.1,0,0,0,1.15,1.53,1.45,1.45,0,0,0,1.33-.12,2.48,2.48,0,0,0,1-1.3,3.37,3.37,0,0,0-1.25-3.67,3.62,3.62,0,0,0-4.58.4,5.58,5.58,0,0,0-1.24,5.39,5.47,5.47,0,0,0,4.53,4,5.94,5.94,0,0,0,5.61-3.26,8.22,8.22,0,0,0,.28-6.74,12.87,12.87,0,0,0-3.63-5.36,11.3,11.3,0,0,0-5.25-2.6,9.69,9.69,0,0,0-5.09.39A12.35,12.35,0,0,0,316,350a27.27,27.27,0,0,0-1.42,2.39,9.89,9.89,0,0,1,1.25-2.51,12.31,12.31,0,0,1,5.93-4.74,10.06,10.06,0,0,1,5.29-.46,11.59,11.59,0,0,1,5.48,2.66,13.11,13.11,0,0,1,3.8,5.56,8.71,8.71,0,0,1-.3,7.16,6.46,6.46,0,0,1-6.12,3.51,6.09,6.09,0,0,1-3.53-10.18,4,4,0,0,1,5.09-.38,3.66,3.66,0,0,1,1.3,4.06,2.73,2.73,0,0,1-1.17,1.42,1.66,1.66,0,0,1-1.54.08,2.14,2.14,0,0,1-1.17-1.7A1.28,1.28,0,0,1,329,356.17Z" style="fill:#e0e0e0"></path><path d="M317.7,346.57a35.86,35.86,0,0,0-2.71,3.32c-1.28,2-1.8,3.86-1.95,3.82a8,8,0,0,1,1.51-4.1A7.48,7.48,0,0,1,317.7,346.57Z" style="fill:#e0e0e0"></path><path d="M319.73,345c.08.12-.12.4-.45.63s-.67.31-.75.19.12-.4.45-.62S319.64,344.9,319.73,345Z" style="fill:#e0e0e0"></path><path d="M334.69,346.13c-.11.11-1.1-.79-2.57-1.46s-2.8-.82-2.79-1a4.43,4.43,0,0,1,3,.5A4.65,4.65,0,0,1,334.69,346.13Z" style="fill:#e0e0e0"></path><path d="M337.38,362.34a13.68,13.68,0,0,1,.77-2.11,17.25,17.25,0,0,0,1.18-5.19,9.9,9.9,0,0,0-1.07-5.12,16.19,16.19,0,0,0-1.28-1.81,3.93,3.93,0,0,1,1.6,1.62,9.35,9.35,0,0,1,1.27,5.33,14.94,14.94,0,0,1-1.36,5.31A7.31,7.31,0,0,1,337.38,362.34Z" style="fill:#e0e0e0"></path><path d="M350.28,338.81c0,.09-.84-.13-2.18-.14a10.45,10.45,0,0,0-5,1.2,12.16,12.16,0,0,0-3.93,3.36c-.82,1.06-1.2,1.81-1.28,1.77a5.73,5.73,0,0,1,1-2,11.09,11.09,0,0,1,4-3.6,9.71,9.71,0,0,1,5.25-1.11A5,5,0,0,1,350.28,338.81Z" style="fill:#e0e0e0"></path><path d="M351.06,342.27a22.32,22.32,0,0,0-3.12-.37,21.09,21.09,0,0,0-3.08.62,5.25,5.25,0,0,1,6.2-.25Z" style="fill:#e0e0e0"></path><path d="M407.49,329.59c-.06,0-.46-.86-1.4-2.35a30.69,30.69,0,0,0-4.63-5.78,27.26,27.26,0,0,0-9.13-5.94,23.89,23.89,0,0,0-13.17-1.12,25.33,25.33,0,0,0-11.89,5.85,30.32,30.32,0,0,0-6.74,8.6,33.62,33.62,0,0,0-2.76,6.87c-.48,1.69-.63,2.66-.69,2.65a3.09,3.09,0,0,1,.09-.71,19.65,19.65,0,0,1,.4-2,31.72,31.72,0,0,1,2.63-7,30,30,0,0,1,6.75-8.79,25.56,25.56,0,0,1,12.11-6,24.13,24.13,0,0,1,13.45,1.19,27,27,0,0,1,9.21,6.12,28.9,28.9,0,0,1,4.55,5.94,19.53,19.53,0,0,1,.94,1.8A4.16,4.16,0,0,1,407.49,329.59Z" style="fill:#e0e0e0"></path><path d="M399.1,350.47a5.78,5.78,0,0,0,2-.67,8,8,0,0,0,3.4-4.59,17.12,17.12,0,0,0,.8-4,18.69,18.69,0,0,0-.12-4.64,22.37,22.37,0,0,0-3.9-9.82,19.5,19.5,0,0,0-8.15-6.66,21.89,21.89,0,0,0-8.47-1.84,26.53,26.53,0,0,0-5.87.59c-1.36.28-2.1.53-2.12.48a2.34,2.34,0,0,1,.53-.21,14.14,14.14,0,0,1,1.55-.47,24.44,24.44,0,0,1,5.91-.76,22,22,0,0,1,8.66,1.77,19.75,19.75,0,0,1,8.38,6.8,22.55,22.55,0,0,1,4,10,19,19,0,0,1,.07,4.75,17.11,17.11,0,0,1-.89,4.05,10,10,0,0,1-1.64,3,6.45,6.45,0,0,1-2,1.65,4.48,4.48,0,0,1-1.56.49A1.4,1.4,0,0,1,399.1,350.47Z" style="fill:#e0e0e0"></path><path d="M439.92,355.74s.1-.2.21-.59a3.41,3.41,0,0,0,0-1.74,3.56,3.56,0,0,0-1.52-2.2,3,3,0,0,0-3.35.4,5.07,5.07,0,0,0-1.87,3.83,8.26,8.26,0,0,0,1.25,4.87,5.19,5.19,0,0,0,1.93,1.85,3.52,3.52,0,0,0,2.69.22,6.7,6.7,0,0,0,4-4.22,16,16,0,0,0,1.12-6,8.74,8.74,0,0,0-1.64-5.29,8.57,8.57,0,0,0-4.28-2.67c-1.55-.47-3.05-.8-4.41-1.08a13.9,13.9,0,0,0-6.5-.07,11.86,11.86,0,0,0-2.21.94,4.14,4.14,0,0,1,.51-.38,7.12,7.12,0,0,1,1.64-.76,13.67,13.67,0,0,1,6.63-.09,44.49,44.49,0,0,1,4.47,1,8.89,8.89,0,0,1,4.52,2.78,9.14,9.14,0,0,1,1.78,5.58,16.38,16.38,0,0,1-1.15,6.18,9.33,9.33,0,0,1-1.66,2.78,5.81,5.81,0,0,1-2.65,1.74,4,4,0,0,1-3.06-.27,5.67,5.67,0,0,1-2.11-2,8.64,8.64,0,0,1-1.27-5.15,5.47,5.47,0,0,1,2.08-4.1,3.36,3.36,0,0,1,3.72-.35,3.7,3.7,0,0,1,1.57,2.41,3.25,3.25,0,0,1-.12,1.81A1.48,1.48,0,0,1,439.92,355.74Z" style="fill:#e0e0e0"></path><path d="M444.68,363a26.22,26.22,0,0,0,1.75-6.76,27.41,27.41,0,0,0-.54-7,5.84,5.84,0,0,1,.71,2,16.23,16.23,0,0,1-.87,9.95A5.64,5.64,0,0,1,444.68,363Z" style="fill:#e0e0e0"></path><path d="M457.68,360.08a2.93,2.93,0,0,0,.54.28,1.86,1.86,0,0,0,1.63-.25,2.34,2.34,0,0,0,1-2.35,2.93,2.93,0,0,0-2.17-2.52A3.68,3.68,0,0,0,455,356.9a5.7,5.7,0,0,0-.78,4.78,4.66,4.66,0,0,0,3.88,3.37c1.92.13,3.7-1.27,4.8-3a11.12,11.12,0,0,0,1.66-5.73,11.85,11.85,0,0,0-.24-2.87,11.37,11.37,0,0,0-.83-2.63,9.75,9.75,0,0,0-3.09-4,9,9,0,0,0-4.1-1.58,9.3,9.3,0,0,0-6.16,1.5,18.4,18.4,0,0,0-1.84,1.53,6.9,6.9,0,0,1,1.73-1.7,9.2,9.2,0,0,1,10.62-.1,10.17,10.17,0,0,1,3.28,4.12,12.45,12.45,0,0,1,.88,2.73,12.77,12.77,0,0,1,.26,3,11.36,11.36,0,0,1-1.74,6,8,8,0,0,1-2.23,2.32,4.91,4.91,0,0,1-3,.87,5.11,5.11,0,0,1-4.31-3.74,6.08,6.08,0,0,1,.89-5.16,4.06,4.06,0,0,1,4.14-1.77,2.93,2.93,0,0,1,1.71,1.14,3.65,3.65,0,0,1,.67,1.71,2.9,2.9,0,0,1-.25,1.57,2.35,2.35,0,0,1-.91,1,2,2,0,0,1-1.78.18A1.09,1.09,0,0,1,457.68,360.08Z" style="fill:#e0e0e0"></path><path d="M466.94,357.78c-.08,0,0-.85,0-2.18a13.26,13.26,0,0,0-1.21-5,11.44,11.44,0,0,0-3.16-4.05c-1-.84-1.81-1.18-1.77-1.26a4.8,4.8,0,0,1,2,1,10.63,10.63,0,0,1,3.4,4.13,11.72,11.72,0,0,1,1.11,5.23A5.36,5.36,0,0,1,466.94,357.78Z" style="fill:#e0e0e0"></path><path d="M456.86,368.3a7.79,7.79,0,0,1-4.85-.1,8.25,8.25,0,0,1-4.18-2.48,27.34,27.34,0,0,0,4.32,2A23.5,23.5,0,0,0,456.86,368.3Z" style="fill:#e0e0e0"></path><path d="M441.24,365.85c.06,0,.08.33-.11.81a2.7,2.7,0,0,1-1.38,1.43,2.35,2.35,0,0,1-2-.06c-.47-.25-.64-.53-.6-.57s.31.1.74.23a2.38,2.38,0,0,0,1.65-.08,3,3,0,0,0,1.26-1.12C441.05,366.11,441.16,365.83,441.24,365.85Z" style="fill:#e0e0e0"></path><path d="M433.25,370.48a5.71,5.71,0,0,1,.24,1.36,18.64,18.64,0,0,1,0,3.79,19.63,19.63,0,0,1-1.41,5.44,17.72,17.72,0,0,1-3.8,5.73,14.8,14.8,0,0,1-5.87,3.59,14.52,14.52,0,0,1-5.59.68,12.5,12.5,0,0,1-3.69-.83,6.48,6.48,0,0,1-.94-.42c-.21-.1-.32-.16-.31-.18a19.32,19.32,0,0,0,5,1.07,14.76,14.76,0,0,0,11.06-4.28,17.61,17.61,0,0,0,3.73-5.55,20.35,20.35,0,0,0,1.48-5.3A31.76,31.76,0,0,0,433.25,370.48Z" style="fill:#e0e0e0"></path><path d="M360.72,372.9a2.38,2.38,0,0,1,.68.69,4.43,4.43,0,0,1,.69,2.69,5.47,5.47,0,0,1-.47,2,4.11,4.11,0,0,1-1.58,1.83,5.3,5.3,0,0,1-5.68-.29,8.7,8.7,0,0,1-3.46-6.09,9.36,9.36,0,0,1,2.41-7.64,8.76,8.76,0,0,1,3.74-2.4,7.89,7.89,0,0,1,4.64,0,10.53,10.53,0,0,1,6.69,6.7,14.54,14.54,0,0,1,.05,9.59,11.09,11.09,0,0,1-5.82,6.7,10.93,10.93,0,0,1-8.05-.14,17.34,17.34,0,0,1-3.29-1.72,18.32,18.32,0,0,1-2.61-2.19,20.24,20.24,0,0,1-5.11-8.78,15.59,15.59,0,0,1-.64-3.69,1.6,1.6,0,0,1,.06.24l.12.71a21,21,0,0,0,.66,2.68,20.49,20.49,0,0,0,5.17,8.58,17.68,17.68,0,0,0,2.58,2.12,16.69,16.69,0,0,0,3.21,1.64,10.53,10.53,0,0,0,7.72.11A10.68,10.68,0,0,0,368,379.8a14.14,14.14,0,0,0-.06-9.24,10,10,0,0,0-6.35-6.39,7.38,7.38,0,0,0-4.34,0,8.3,8.3,0,0,0-3.54,2.26,8.92,8.92,0,0,0-2.33,7.26,8.28,8.28,0,0,0,3.24,5.83,5,5,0,0,0,5.31.36,4.5,4.5,0,0,0,2-3.58,4.42,4.42,0,0,0-.58-2.62A6.88,6.88,0,0,0,360.72,372.9Z" style="fill:#e0e0e0"></path><path d="M302.65,358.6a.77.77,0,0,1-.06-.34,2,2,0,0,1,.23-.95,2.1,2.1,0,0,1,1.17-1,2,2,0,0,1,2,.57,3.23,3.23,0,0,1-.7,4.86,3.41,3.41,0,0,1-3.17.22,5.42,5.42,0,0,1-2.52-2.29,4.17,4.17,0,0,1-.46-3.38,5.76,5.76,0,0,1,1.78-2.62,5.34,5.34,0,0,1,5-1.27,4.94,4.94,0,0,1,2.77,2.19,4.24,4.24,0,0,1,.41.88c.06.21.09.32.07.33s-.18-.43-.65-1.1a5,5,0,0,0-2.7-2,5,5,0,0,0-4.61,1.28,5.44,5.44,0,0,0-1.61,2.41,3.7,3.7,0,0,0,.42,3,5,5,0,0,0,2.27,2.08,2.84,2.84,0,0,0,4-2.27,2.56,2.56,0,0,0-.63-2.08,1.67,1.67,0,0,0-1.64-.55,1.88,1.88,0,0,0-1.08.86A3.12,3.12,0,0,0,302.65,358.6Z" style="fill:#e0e0e0"></path><path d="M297.92,359.35a5,5,0,0,1,.15-3.71,6.07,6.07,0,0,1,1.42-2.27c.49-.48.88-.67.92-.62a13.59,13.59,0,0,0-1.86,3.07A17.47,17.47,0,0,0,297.92,359.35Z" style="fill:#e0e0e0"></path><path d="M420,371.89a1.62,1.62,0,0,1,.84-.11,2.94,2.94,0,0,1,2,1.34,4.22,4.22,0,0,1,.41,3.78,6.4,6.4,0,0,1-3.39,3.76,6.55,6.55,0,0,1-6.08-.29,8.21,8.21,0,0,1-3.67-6,9.54,9.54,0,0,1,2.35-7.39,11.78,11.78,0,0,1,7.29-4.1,9.5,9.5,0,0,1,4.31.4,9.83,9.83,0,0,1,3.58,2.2,10.63,10.63,0,0,1,3.27,7.06,16.37,16.37,0,0,1-1.21,7,18.61,18.61,0,0,1-3.14,5.32,11.27,11.27,0,0,1-4.06,3.08,8.59,8.59,0,0,1-3.79.69,7,7,0,0,1-2.37-.54,4,4,0,0,1-.75-.4,9,9,0,0,0,3.13.74,8.45,8.45,0,0,0,3.66-.76,10.94,10.94,0,0,0,3.9-3.05,18.28,18.28,0,0,0,3-5.24,15.78,15.78,0,0,0,1.14-6.79,10.15,10.15,0,0,0-3.14-6.73,9.43,9.43,0,0,0-3.4-2.08,9,9,0,0,0-4.07-.37c-5.56.76-9.94,6-9.23,10.91A7.8,7.8,0,0,0,414,380a6.16,6.16,0,0,0,5.71.32,6,6,0,0,0,3.26-3.51,4,4,0,0,0-.3-3.57,2.87,2.87,0,0,0-1.85-1.35A4.3,4.3,0,0,0,420,371.89Z" style="fill:#e0e0e0"></path><path d="M191.94,424.38c-2.12,5.33-6.78,9.25-11.9,10a14.69,14.69,0,0,1-13.8-6.15c.71,3.2-2.85,6.41-5.45,4.91,1,9.45-4.33,19.3-12.24,22.56s-17.59-.4-22.18-8.38c-6.46,1.06-13.32-2.87-16.39-9.39A11,11,0,0,1,95.45,441a13.63,13.63,0,0,1-10.21,12.64c-5.35,1.17-11-1.32-14.95-5.56s-6.38-10-7.8-16c-8,2.66-17.33-.81-22.38-8.35a19,19,0,0,1-9.6,3.79c-3.93.42-8.26-1.49-11.83-3.39,0,0-6-3.27-6.34-3.19l5.7-.26c3.7-.67,4.19-3.77,6.27-5.4a6.47,6.47,0,0,1,10.12,2.78c1.9-5.87,4.43-9.76,9.63-11.86a17.24,17.24,0,0,1,16,1.71c2.82-7.65,12.27-11,18.41-6.45,2.34-13.51,12.5-24.83,24.47-27.28s25,4.15,31.35,15.87a11.22,11.22,0,0,1,11,2.56,14.84,14.84,0,0,1,4.37,11.72c7-3.21,14.82-.11,20.77,5.24,3.84-7.13,21-5.62,25.06,6.56,0,0,.29,4.17,8.59,2.4C204.05,418.55,202.18,425.33,191.94,424.38Z" style="fill:#ebebeb"></path><path d="M53,419.52a3.26,3.26,0,0,0,0,.71,2.05,2.05,0,0,0,1.15,1.53,1.42,1.42,0,0,0,1.33-.11,2.41,2.41,0,0,0,1-1.3,3.36,3.36,0,0,0-1.24-3.67,3.61,3.61,0,0,0-4.58.4,5.58,5.58,0,0,0-1.24,5.39,5.5,5.5,0,0,0,4.53,4,6,6,0,0,0,5.61-3.26,8.22,8.22,0,0,0,.28-6.74,12.74,12.74,0,0,0-3.64-5.36,11.12,11.12,0,0,0-5.24-2.6,9.77,9.77,0,0,0-5.09.38,12.41,12.41,0,0,0-5.88,4.51,25,25,0,0,0-1.42,2.4,9.71,9.71,0,0,1,1.25-2.51,12.26,12.26,0,0,1,5.93-4.74,10.06,10.06,0,0,1,5.29-.47,11.69,11.69,0,0,1,5.48,2.66,13.2,13.2,0,0,1,3.8,5.56,8.71,8.71,0,0,1-.3,7.16A6.49,6.49,0,0,1,54,427a6.1,6.1,0,0,1-3.53-10.19,4,4,0,0,1,5.1-.38,3.68,3.68,0,0,1,1.3,4.07,2.71,2.71,0,0,1-1.17,1.41,1.66,1.66,0,0,1-1.54.09,2.14,2.14,0,0,1-1.17-1.7A1.33,1.33,0,0,1,53,419.52Z" style="fill:#e0e0e0"></path><path d="M41.72,409.92a41,41,0,0,0-2.7,3.32c-1.28,2-1.8,3.87-2,3.82a8,8,0,0,1,1.51-4.1A7.65,7.65,0,0,1,41.72,409.92Z" style="fill:#e0e0e0"></path><path d="M43.75,408.38c.09.12-.12.4-.45.62s-.66.32-.74.2.12-.4.45-.63S43.67,408.26,43.75,408.38Z" style="fill:#e0e0e0"></path><path d="M58.72,409.49c-.11.11-1.1-.8-2.57-1.46s-2.8-.82-2.79-1a4.41,4.41,0,0,1,3,.5A4.64,4.64,0,0,1,58.72,409.49Z" style="fill:#e0e0e0"></path><path d="M61.41,425.7a13.54,13.54,0,0,1,.77-2.12,17.17,17.17,0,0,0,1.18-5.19,10,10,0,0,0-1.07-5.12,17,17,0,0,0-1.28-1.8,3.85,3.85,0,0,1,1.6,1.62,9.43,9.43,0,0,1,1.27,5.33,14.82,14.82,0,0,1-1.36,5.3A7.86,7.86,0,0,1,61.41,425.7Z" style="fill:#e0e0e0"></path><path d="M74.3,402.17c0,.09-.84-.13-2.17-.15a10.53,10.53,0,0,0-5,1.21,12.21,12.21,0,0,0-3.92,3.35c-.82,1.06-1.2,1.82-1.28,1.78a5.5,5.5,0,0,1,1-2,11.2,11.2,0,0,1,4-3.61,9.89,9.89,0,0,1,5.25-1.11A5,5,0,0,1,74.3,402.17Z" style="fill:#e0e0e0"></path><path d="M75.09,405.63a20.69,20.69,0,0,0-3.12-.37,23.75,23.75,0,0,0-3.08.61,5.27,5.27,0,0,1,6.2-.24Z" style="fill:#e0e0e0"></path><path d="M131.52,392.94c-.06,0-.47-.86-1.4-2.34a30.78,30.78,0,0,0-4.63-5.78,27.1,27.1,0,0,0-9.13-5.94,23.89,23.89,0,0,0-13.17-1.12,25.42,25.42,0,0,0-11.9,5.85,30.42,30.42,0,0,0-6.73,8.59,33.88,33.88,0,0,0-2.76,6.88c-.48,1.69-.63,2.65-.69,2.64a3.09,3.09,0,0,1,.09-.7,19.65,19.65,0,0,1,.4-2,32,32,0,0,1,2.63-7A30.13,30.13,0,0,1,91,383.25a25.67,25.67,0,0,1,12.11-6,24.17,24.17,0,0,1,13.44,1.19,27,27,0,0,1,9.22,6.13,28.62,28.62,0,0,1,4.55,5.93c.43.77.75,1.38.94,1.8A4.72,4.72,0,0,1,131.52,392.94Z" style="fill:#e0e0e0"></path><path d="M123.13,413.83a5.78,5.78,0,0,0,2-.67,8,8,0,0,0,3.39-4.6,17,17,0,0,0,.81-4,18.69,18.69,0,0,0-.12-4.64,22.22,22.22,0,0,0-3.91-9.82,19.58,19.58,0,0,0-8.14-6.67,22,22,0,0,0-8.47-1.83,26.63,26.63,0,0,0-5.87.58c-1.37.29-2.1.54-2.12.49a2.34,2.34,0,0,1,.53-.21,13.47,13.47,0,0,1,1.55-.47,23.94,23.94,0,0,1,5.91-.76,21.79,21.79,0,0,1,8.66,1.76,19.77,19.77,0,0,1,8.38,6.81,22.57,22.57,0,0,1,4,10.05,19,19,0,0,1,.07,4.75,17.22,17.22,0,0,1-.89,4.05,10,10,0,0,1-1.64,3,6.71,6.71,0,0,1-2,1.65,4.71,4.71,0,0,1-1.56.49A1.67,1.67,0,0,1,123.13,413.83Z" style="fill:#e0e0e0"></path><path d="M164,419.09s.1-.19.21-.58a3.41,3.41,0,0,0,0-1.74,3.51,3.51,0,0,0-1.52-2.2,3,3,0,0,0-3.35.39,5.11,5.11,0,0,0-1.87,3.84,8.27,8.27,0,0,0,1.24,4.86,5.32,5.32,0,0,0,1.94,1.86,3.52,3.52,0,0,0,2.69.22,6.75,6.75,0,0,0,4-4.22,16,16,0,0,0,1.12-6,8.84,8.84,0,0,0-1.64-5.29,8.55,8.55,0,0,0-4.28-2.66c-1.55-.48-3.06-.8-4.41-1.09a14,14,0,0,0-6.5-.07,11.8,11.8,0,0,0-2.21.95,2.21,2.21,0,0,1,.51-.38,7.12,7.12,0,0,1,1.64-.76,13.48,13.48,0,0,1,6.62-.1c1.39.27,2.88.57,4.48,1a9.07,9.07,0,0,1,4.52,2.78,9.2,9.2,0,0,1,1.78,5.58,16.39,16.39,0,0,1-1.15,6.19,9.55,9.55,0,0,1-1.66,2.78,5.89,5.89,0,0,1-2.65,1.74,4.05,4.05,0,0,1-3.06-.27,5.74,5.74,0,0,1-2.11-2,8.64,8.64,0,0,1-1.27-5.15,5.44,5.44,0,0,1,2.08-4.1,3.34,3.34,0,0,1,3.72-.35,3.66,3.66,0,0,1,1.57,2.4,3.29,3.29,0,0,1-.12,1.82A1.68,1.68,0,0,1,164,419.09Z" style="fill:#e0e0e0"></path><path d="M168.71,426.36a26.07,26.07,0,0,0,1.75-6.76,27.55,27.55,0,0,0-.54-7,5.84,5.84,0,0,1,.71,2,16.4,16.4,0,0,1,.35,5,16.17,16.17,0,0,1-1.22,4.9A5.87,5.87,0,0,1,168.71,426.36Z" style="fill:#e0e0e0"></path><path d="M181.7,423.44s.17.14.55.28a1.86,1.86,0,0,0,1.63-.25,2.34,2.34,0,0,0,1-2.35,3,3,0,0,0-2.17-2.53,3.69,3.69,0,0,0-3.71,1.67,5.65,5.65,0,0,0-.78,4.77,4.64,4.64,0,0,0,3.88,3.37c1.92.14,3.7-1.27,4.8-3a11.1,11.1,0,0,0,1.66-5.73,12.33,12.33,0,0,0-.24-2.86,11.37,11.37,0,0,0-.83-2.63,9.63,9.63,0,0,0-3.1-4,8.9,8.9,0,0,0-4.09-1.58,9.28,9.28,0,0,0-6.16,1.5,19.45,19.45,0,0,0-1.84,1.52A7,7,0,0,1,174,410a9.16,9.16,0,0,1,10.62-.1,10.1,10.1,0,0,1,3.28,4.12,12.28,12.28,0,0,1,.88,2.73,12.77,12.77,0,0,1,.26,3,11.45,11.45,0,0,1-1.74,6,8.08,8.08,0,0,1-2.23,2.32,4.92,4.92,0,0,1-3,.87,5.13,5.13,0,0,1-4.31-3.74,6.07,6.07,0,0,1,.89-5.16,4.06,4.06,0,0,1,4.14-1.78,3,3,0,0,1,1.71,1.15,3.6,3.6,0,0,1,.66,1.7,3,3,0,0,1-.24,1.57,2.38,2.38,0,0,1-.91,1,2,2,0,0,1-1.78.18A1.17,1.17,0,0,1,181.7,423.44Z" style="fill:#e0e0e0"></path><path d="M191,421.13c-.08,0,0-.84,0-2.18a13.22,13.22,0,0,0-1.21-5,11.4,11.4,0,0,0-3.16-4.06c-1-.83-1.81-1.17-1.77-1.25a4.59,4.59,0,0,1,2,1,10.45,10.45,0,0,1,3.41,4.12,11.79,11.79,0,0,1,1.11,5.24A5.23,5.23,0,0,1,191,421.13Z" style="fill:#e0e0e0"></path><path d="M180.89,431.65a7.77,7.77,0,0,1-4.86-.09,8.09,8.09,0,0,1-4.17-2.49,26.83,26.83,0,0,0,4.32,2A22.23,22.23,0,0,0,180.89,431.65Z" style="fill:#e0e0e0"></path><path d="M165.27,429.21c.06,0,.08.33-.11.81a2.72,2.72,0,0,1-1.39,1.43,2.35,2.35,0,0,1-2-.07c-.46-.24-.63-.52-.59-.57s.3.11.73.23a2.46,2.46,0,0,0,1.66-.07,3,3,0,0,0,1.26-1.12C165.08,429.47,165.19,429.19,165.27,429.21Z" style="fill:#e0e0e0"></path><path d="M157.28,433.84a6.26,6.26,0,0,1,.24,1.36,18.54,18.54,0,0,1,0,3.78,19.63,19.63,0,0,1-1.41,5.44,17.76,17.76,0,0,1-3.8,5.74,14.88,14.88,0,0,1-5.88,3.59,14.45,14.45,0,0,1-5.58.68,13,13,0,0,1-3.7-.83,6.79,6.79,0,0,1-.93-.42,1.34,1.34,0,0,1-.31-.18,20.17,20.17,0,0,0,5,1.06,14.8,14.8,0,0,0,11.07-4.27,17.72,17.72,0,0,0,3.73-5.55,20.56,20.56,0,0,0,1.48-5.3A33.3,33.3,0,0,0,157.28,433.84Z" style="fill:#e0e0e0"></path><path d="M84.75,436.26a2.22,2.22,0,0,1,.68.69,4.39,4.39,0,0,1,.69,2.69,5.47,5.47,0,0,1-.47,2,4.21,4.21,0,0,1-1.58,1.83,5.3,5.3,0,0,1-5.68-.3,8.62,8.62,0,0,1-3.46-6.08,9.37,9.37,0,0,1,2.4-7.64A8.87,8.87,0,0,1,81.08,427a7.89,7.89,0,0,1,4.64,0,10.53,10.53,0,0,1,6.69,6.7,14.51,14.51,0,0,1,0,9.58A11.08,11.08,0,0,1,86.64,450a11,11,0,0,1-8.06-.15,17.52,17.52,0,0,1-3.28-1.71A17.78,17.78,0,0,1,72.69,446a20.21,20.21,0,0,1-5.11-8.79,15.94,15.94,0,0,1-.65-3.68,1,1,0,0,1,.07.24c0,.19.07.42.12.71a21.38,21.38,0,0,0,.66,2.68A20.45,20.45,0,0,0,73,445.72a18.08,18.08,0,0,0,2.57,2.11,17.32,17.32,0,0,0,3.21,1.65,10.58,10.58,0,0,0,7.72.11A10.69,10.69,0,0,0,92,443.16a14.14,14.14,0,0,0-.06-9.24,10,10,0,0,0-6.35-6.39,7.3,7.3,0,0,0-4.34,0,8.37,8.37,0,0,0-3.54,2.25A9,9,0,0,0,75.36,437a8.3,8.3,0,0,0,3.24,5.83,5,5,0,0,0,5.31.35,4.47,4.47,0,0,0,2-3.58,4.39,4.39,0,0,0-.58-2.61A7.13,7.13,0,0,0,84.75,436.26Z" style="fill:#e0e0e0"></path><path d="M26.68,422a.69.69,0,0,1-.06-.33,2,2,0,0,1,.23-.95A2.12,2.12,0,0,1,28,419.62a2,2,0,0,1,2,.58,3.23,3.23,0,0,1-.7,4.86,3.43,3.43,0,0,1-3.17.22A5.47,5.47,0,0,1,23.62,423a4.18,4.18,0,0,1-.46-3.38A5.71,5.71,0,0,1,24.94,417a5.34,5.34,0,0,1,5-1.27,4.93,4.93,0,0,1,2.77,2.18,4.49,4.49,0,0,1,.41.88,1.24,1.24,0,0,1,.07.33s-.18-.43-.65-1.09a4.93,4.93,0,0,0-2.71-1.95,5,5,0,0,0-4.61,1.28,5.31,5.31,0,0,0-1.6,2.41,3.68,3.68,0,0,0,.42,3,5,5,0,0,0,2.26,2.09,3,3,0,0,0,2.73-.16,2.92,2.92,0,0,0,1.31-2.12,2.49,2.49,0,0,0-.62-2.07,1.68,1.68,0,0,0-1.64-.56,1.92,1.92,0,0,0-1.08.86A3,3,0,0,0,26.68,422Z" style="fill:#e0e0e0"></path><path d="M22,422.71a4.94,4.94,0,0,1,.14-3.72,6.15,6.15,0,0,1,1.43-2.26c.49-.48.88-.67.92-.62a13.11,13.11,0,0,0-1.86,3.06A16.71,16.71,0,0,0,22,422.71Z" style="fill:#e0e0e0"></path><path d="M144.05,435.25a1.56,1.56,0,0,1,.85-.11,2.93,2.93,0,0,1,2,1.34,4.25,4.25,0,0,1,.41,3.78,6.38,6.38,0,0,1-3.39,3.75,6.52,6.52,0,0,1-6.08-.28,8.21,8.21,0,0,1-3.67-6,9.56,9.56,0,0,1,2.35-7.4,11.72,11.72,0,0,1,7.29-4.09,9.63,9.63,0,0,1,4.31.39,9.83,9.83,0,0,1,3.58,2.2,10.7,10.7,0,0,1,3.27,7.07,16.4,16.4,0,0,1-1.22,7,18.5,18.5,0,0,1-3.13,5.32,11.32,11.32,0,0,1-4.07,3.08,8.53,8.53,0,0,1-3.78.69,7.15,7.15,0,0,1-2.37-.54,3.62,3.62,0,0,1-.75-.41,8.49,8.49,0,0,0,3.13.75,8.63,8.63,0,0,0,3.66-.76,11.17,11.17,0,0,0,3.9-3.05,18.28,18.28,0,0,0,3-5.24,16,16,0,0,0,1.14-6.8,10.21,10.21,0,0,0-3.15-6.73,9.31,9.31,0,0,0-3.39-2.08,9.14,9.14,0,0,0-4.07-.37c-5.56.76-9.94,6-9.23,10.92a7.77,7.77,0,0,0,3.41,5.67,6.18,6.18,0,0,0,5.71.32,6.06,6.06,0,0,0,3.26-3.52,4,4,0,0,0-.3-3.57,2.9,2.9,0,0,0-1.85-1.35A3.83,3.83,0,0,0,144.05,435.25Z" style="fill:#e0e0e0"></path></g><g id="freepik--Stars--inject-79"><polygon points="73.24 73.7 69.68 68.16 75.7 70.93 77.75 64.36 79.26 70.69 85.9 68.24 81.95 73.7 87.8 77.26 81.08 77.26 81.79 84.06 77.52 78.92 73.16 84.06 74.11 77.42 67.47 77.1 73.24 73.7" style="fill:#FFC100"></polygon><polygon points="414.22 434.18 410.66 428.64 416.67 431.41 418.73 424.84 420.23 431.17 426.88 428.72 422.92 434.18 428.78 437.74 422.05 437.74 422.76 444.54 418.49 439.4 414.14 444.54 415.09 437.9 408.44 437.58 414.22 434.18" style="fill:#FFC100"></polygon><polygon points="73.71 426.1 68.46 417.94 77.33 422.02 80.36 412.34 82.57 421.67 92.36 418.05 86.53 426.1 95.16 431.34 85.25 431.34 86.3 441.37 80.01 433.79 73.59 441.37 74.99 431.58 65.2 431.11 73.71 426.1" style="fill:#FFC100"></polygon><path d="M68.49,424.81a91.72,91.72,0,0,1-9.7-.7,93.45,93.45,0,0,1-9.64-1.21,90,90,0,0,1,9.7.69A92.17,92.17,0,0,1,68.49,424.81Z" style="fill:#263238"></path><path d="M74.77,418.28a86,86,0,0,1-4.15-8.51A82.52,82.52,0,0,1,66.94,401a87,87,0,0,1,4.15,8.52A87.26,87.26,0,0,1,74.77,418.28Z" style="fill:#263238"></path><path d="M64.1,442.82a21.8,21.8,0,0,1,2.62-4,22.9,22.9,0,0,1,3-3.73,21.81,21.81,0,0,1-2.62,4A22.41,22.41,0,0,1,64.1,442.82Z" style="fill:#263238"></path><path d="M79.88,456.48a65.39,65.39,0,0,1,0-8.39,69.59,69.59,0,0,1,.56-8.38,65.34,65.34,0,0,1,0,8.39A70,70,0,0,1,79.88,456.48Z" style="fill:#263238"></path><path d="M95.17,440.5a11.33,11.33,0,0,1-2.75-2A11.33,11.33,0,0,1,90,436.11a11.12,11.12,0,0,1,2.75,2A11.33,11.33,0,0,1,95.17,440.5Z" style="fill:#263238"></path><path d="M111.84,425.37a90.11,90.11,0,0,1-9.81.1,95.84,95.84,0,0,1-9.8-.43A88.76,88.76,0,0,1,102,425,94.1,94.1,0,0,1,111.84,425.37Z" style="fill:#263238"></path><path d="M89.44,406.11a34.67,34.67,0,0,1-2,5.53A34.15,34.15,0,0,1,84.86,417a33.53,33.53,0,0,1,2-5.53A32.14,32.14,0,0,1,89.44,406.11Z" style="fill:#263238"></path><path d="M64.12,414.07a12.38,12.38,0,0,1-2.52-2.4,11.38,11.38,0,0,1-2.14-2.74A11.83,11.83,0,0,1,62,411.32,11.53,11.53,0,0,1,64.12,414.07Z" style="fill:#263238"></path><path d="M81.3,401.31a13.89,13.89,0,0,1-.49,5.39,7.3,7.3,0,0,1,0-2.72A7.5,7.5,0,0,1,81.3,401.31Z" style="fill:#263238"></path><path d="M100.9,411.12a7.91,7.91,0,0,1-2.31,1.7A8.26,8.26,0,0,1,96,414.07a8,8,0,0,1,2.32-1.7A8.27,8.27,0,0,1,100.9,411.12Z" style="fill:#263238"></path><path d="M104.78,435.91a8,8,0,0,1-2.68-1,8.11,8.11,0,0,1-2.47-1.46,7.94,7.94,0,0,1,2.69,1A7.84,7.84,0,0,1,104.78,435.91Z" style="fill:#263238"></path><path d="M87.37,450.07a10,10,0,0,1-1.21-4.41,10.44,10.44,0,0,1,1.21,4.41Z" style="fill:#263238"></path><path d="M70.13,448.77a7,7,0,0,1,.94-2.53,7.16,7.16,0,0,1,1.42-2.3,14.18,14.18,0,0,1-2.36,4.83Z" style="fill:#263238"></path><path d="M60.47,432.71a5.92,5.92,0,0,1-2.44.38,6.1,6.1,0,0,1-2.46-.15,5.87,5.87,0,0,1,2.44-.37A6,6,0,0,1,60.47,432.71Z" style="fill:#263238"></path><polygon points="419.01 62.58 412.96 54.99 422.19 58.15 424.22 48.21 427.37 57.27 436.75 52.68 431.77 61.27 440.88 65.62 431.02 66.62 433.08 76.49 426.05 69.59 420.44 77.78 420.84 67.9 411.05 68.43 419.01 62.58" style="fill:#FFC100"></polygon><path d="M413.68,61.83a91.76,91.76,0,0,1-9.71.28,88,88,0,0,1-9.72-.23,93.35,93.35,0,0,1,9.72-.29A89.24,89.24,0,0,1,413.68,61.83Z" style="fill:#263238"></path><path d="M419.27,54.69a88.32,88.32,0,0,1-5-8,85.89,85.89,0,0,1-4.54-8.31,87.06,87.06,0,0,1,5,8.05A84.81,84.81,0,0,1,419.27,54.69Z" style="fill:#263238"></path><path d="M411.14,80.19a22.49,22.49,0,0,1,2.2-4.26,23.33,23.33,0,0,1,2.66-4,21.46,21.46,0,0,1-2.2,4.27A22.63,22.63,0,0,1,411.14,80.19Z" style="fill:#263238"></path><path d="M428.23,92.18a65.72,65.72,0,0,1-.81-8.36,67.16,67.16,0,0,1-.29-8.39,70.11,70.11,0,0,1,.81,8.36A69.55,69.55,0,0,1,428.23,92.18Z" style="fill:#263238"></path><path d="M441.82,74.73A11.48,11.48,0,0,1,438.88,73a11.45,11.45,0,0,1-2.65-2.13,10.92,10.92,0,0,1,2.94,1.7A11.33,11.33,0,0,1,441.82,74.73Z" style="fill:#263238"></path><path d="M456.87,58a94,94,0,0,1-9.75,1.09,91.39,91.39,0,0,1-9.8.56,93,93,0,0,1,9.76-1.08A89.78,89.78,0,0,1,456.87,58Z" style="fill:#263238"></path><path d="M432.62,41.09a33.43,33.43,0,0,1-1.47,5.72,34,34,0,0,1-2,5.56,35.3,35.3,0,0,1,1.48-5.72A34.56,34.56,0,0,1,432.62,41.09Z" style="fill:#263238"></path><path d="M408.25,51.58a11.58,11.58,0,0,1-2.76-2.12,11.78,11.78,0,0,1-2.4-2.52,12.22,12.22,0,0,1,2.75,2.13A11.52,11.52,0,0,1,408.25,51.58Z" style="fill:#263238"></path><path d="M424.05,37.14a7.48,7.48,0,0,1,.29,2.71,7.59,7.59,0,0,1-.23,2.71,7,7,0,0,1-.29-2.71A7.09,7.09,0,0,1,424.05,37.14Z" style="fill:#263238"></path><path d="M444.54,44.92a8,8,0,0,1-2.13,1.92A8.23,8.23,0,0,1,440,48.35c-.09-.12.86-1,2.13-1.93A7.94,7.94,0,0,1,444.54,44.92Z" style="fill:#263238"></path><path d="M450.92,69.19a8.16,8.16,0,0,1-2.78-.71,7.67,7.67,0,0,1-2.59-1.2,8.42,8.42,0,0,1,2.77.71A8,8,0,0,1,450.92,69.19Z" style="fill:#263238"></path><path d="M435,85c-.14.06-.62-.86-1.07-2a5,5,0,0,1-.58-2.23,5.47,5.47,0,0,1,1.07,2A5.36,5.36,0,0,1,435,85Z" style="fill:#263238"></path><path d="M417.74,85.49a7.17,7.17,0,0,1,.69-2.61,7.24,7.24,0,0,1,1.17-2.43,7,7,0,0,1-.68,2.61A7.15,7.15,0,0,1,417.74,85.49Z" style="fill:#263238"></path><path d="M406.51,70.5a6.07,6.07,0,0,1-2.39.62,6,6,0,0,1-2.46.1A5.92,5.92,0,0,1,404,70.6,6,6,0,0,1,406.51,70.5Z" style="fill:#263238"></path></g></svg>