<svg xmlns="http://www.w3.org/2000/svg" viewBox="0 0 500 500"><g id="freepik--background-simple--inject-1"><g><path d="M466.55,370.56c35.58-84.17,40.08-203.12-21.24-277.01-33.82-40.75-87.04-54.3-137.84-57.33-45.53-2.71-94.26-1.63-135.63,19.9-70.11,36.49-71.84,123.25-124.36,174.44-42.34,41.28-59.9,100.09-23.75,177.49,36.15,77.39,103.28,94.93,169.37,70.17,66.1-24.77,96.05-29.92,175.57-17.54,36.55,5.69,63.07-21.71,79.11-51.24,6.87-12.66,13.18-25.64,18.77-38.87Z" style="fill:#FFFFFF;"></path><path d="M466.55,370.56c35.58-84.17,40.08-203.12-21.24-277.01-33.82-40.75-87.04-54.3-137.84-57.33-45.53-2.71-94.26-1.63-135.63,19.9-70.11,36.49-71.84,123.25-124.36,174.44-42.34,41.28-59.9,100.09-23.75,177.49,36.15,77.39,103.28,94.93,169.37,70.17,66.1-24.77,96.05-29.92,175.57-17.54,36.55,5.69,63.07-21.71,79.11-51.24,6.87-12.66,13.18-25.64,18.77-38.87Z" style="fill:#fff; opacity:.8;"></path></g></g><g id="freepik--City--inject-1"><g style="opacity:.3;"><polyline points="13.25 151.6 44.02 151.6 44.02 71.44 117.02 71.44 117.02 110.8 144.21 110.8 144.21 156.6 176.42 156.6 176.42 90.77 197.89 90.77 197.89 69.3 209.34 69.3 209.34 54.98 204.33 54.98 204.33 44.25 260.86 44.25 260.86 165.19 268.02 165.19 268.02 70.01 312.39 70.01 312.39 92.4 368.76 92.4 368.76 138.11 389.46 138.11 389.46 79.46 427.41 79.46 427.41 145.87 439.49 145.87 439.99 166.67 470.23 166.67 470.23 195.27 481.23 195.27 481.23 134.23 494.98 134.23" style="fill:none; stroke:#000; stroke-miterlimit:10;"></polyline><line x1="113.05" y1="110.89" x2="99.03" y2="110.89" style="fill:none; stroke:#000; stroke-miterlimit:10;"></line><line x1="98.53" y1="120.91" x2="142.1" y2="120.91" style="fill:none; stroke:#000; stroke-miterlimit:10;"></line><line x1="25.9" y1="196.53" x2="68.48" y2="196.53" style="fill:none; stroke:#000; stroke-miterlimit:10;"></line><line x1="27.41" y1="188.52" x2="66.47" y2="188.52" style="fill:none; stroke:#000; stroke-miterlimit:10;"></line><line x1="209.21" y1="74.33" x2="209.21" y2="134.43" style="fill:none; stroke:#000; stroke-miterlimit:10;"></line><rect x="219.73" y="58.8" width="9.52" height="16.03" style="fill:none; stroke:#000; stroke-miterlimit:10;"></rect><rect x="240.76" y="58.8" width="9.52" height="16.03" style="fill:none; stroke:#000; stroke-miterlimit:10;"></rect><rect x="219.73" y="79.84" width="9.52" height="16.03" style="fill:none; stroke:#000; stroke-miterlimit:10;"></rect><rect x="240.76" y="79.84" width="9.52" height="16.03" style="fill:none; stroke:#000; stroke-miterlimit:10;"></rect><rect x="219.73" y="100.87" width="9.52" height="16.03" style="fill:none; stroke:#000; stroke-miterlimit:10;"></rect><rect x="124.57" y="132.43" width="9.52" height="16.03" style="fill:none; stroke:#000; stroke-miterlimit:10;"></rect><rect x="97.52" y="132.43" width="9.52" height="16.03" style="fill:none; stroke:#000; stroke-miterlimit:10;"></rect><rect x="51.06" y="85.76" width="9.52" height="16.03" style="fill:none; stroke:#000; stroke-miterlimit:10;"></rect><rect x="124.57" y="161.98" width="9.52" height="16.03" style="fill:none; stroke:#000; stroke-miterlimit:10;"></rect><rect x="97.52" y="161.98" width="9.52" height="16.03" style="fill:none; stroke:#000; stroke-miterlimit:10;"></rect><rect x="124.57" y="191.52" width="9.52" height="16.03" style="fill:none; stroke:#000; stroke-miterlimit:10;"></rect><rect x="97.52" y="191.52" width="9.52" height="16.03" style="fill:none; stroke:#000; stroke-miterlimit:10;"></rect><rect x="240.76" y="100.87" width="9.52" height="16.03" style="fill:none; stroke:#000; stroke-miterlimit:10;"></rect><rect x="240.76" y="123.61" width="9.52" height="16.03" style="fill:none; stroke:#000; stroke-miterlimit:10;"></rect><line x1="180.16" y1="110.39" x2="205.71" y2="110.39" style="fill:none; stroke:#000; stroke-miterlimit:10;"></line><line x1="180.16" y1="122.91" x2="205.71" y2="122.91" style="fill:none; stroke:#000; stroke-miterlimit:10;"></line><line x1="180.16" y1="135.43" x2="205.71" y2="135.43" style="fill:none; stroke:#000; stroke-miterlimit:10;"></line><line x1="180.16" y1="147.95" x2="205.71" y2="147.95" style="fill:none; stroke:#000; stroke-miterlimit:10;"></line><line x1="180.16" y1="160.47" x2="205.71" y2="160.47" style="fill:none; stroke:#000; stroke-miterlimit:10;"></line><line x1="44.94" y1="116.4" x2="75.99" y2="116.4" style="fill:none; stroke:#000; stroke-miterlimit:10;"></line><line x1="44.94" y1="151.96" x2="75.99" y2="151.96" style="fill:none; stroke:#000; stroke-miterlimit:10;"></line><line x1="14.89" y1="156.97" x2="75.99" y2="156.97" style="fill:none; stroke:#000; stroke-miterlimit:10;"></line><line x1="44.94" y1="111.89" x2="75.99" y2="111.89" style="fill:none; stroke:#000; stroke-miterlimit:10;"></line><line x1="44.94" y1="75.83" x2="75.99" y2="75.83" style="fill:none; stroke:#000; stroke-miterlimit:10;"></line></g></g><g id="freepik--Trees--inject-1"><g><g><path d="M474.32,340.75c0,27.55-18.93,38.17-42.29,38.17s-42.29-10.62-42.29-38.17,18.93-89.35,42.29-89.35,42.29,61.8,42.29,89.35Z" style="fill:#FFFFFF;"></path><path d="M474.32,340.75c0,27.55-18.93,38.17-42.29,38.17s-42.29-10.62-42.29-38.17,18.93-89.35,42.29-89.35,42.29,61.8,42.29,89.35Z" style="fill:#fff; opacity:.44;"></path></g><polygon points="431.14 290.86 429.7 320.52 413.56 299.56 428.78 323.42 428.65 335.03 417.6 329.22 418.41 319.87 415.64 327.93 404.58 321.81 428.4 338.9 427.92 349.21 398.74 339.22 412.72 346.31 397.34 352.11 414.99 347.28 427.66 353.08 424.94 441.74 434.62 441.74 432.68 364.04 449.3 355.01 457.75 359.21 451.86 354.05 460.46 347.92 438.71 357.92 441.82 351.47 435.49 358.56 432.92 358.88 432.49 352.44 456.51 323.42 444.76 334.38 446.13 319.55 452.62 302.79 445.44 316.97 445.17 300.53 442.52 335.03 437.47 341.8 436.68 333.09 433.96 343.73 431.77 348.24 433.13 313.1 440.63 299.24 432.71 307.3 431.14 290.86" style="fill:#a1a1a1;"></polygon></g><g><g><path d="M97.08,340.75c0,27.55-18.93,38.17-42.29,38.17s-42.29-10.62-42.29-38.17,18.93-89.35,42.29-89.35,42.29,61.8,42.29,89.35Z" style="fill:#FFFFFF;"></path><path d="M97.08,340.75c0,27.55-18.93,38.17-42.29,38.17s-42.29-10.62-42.29-38.17,18.93-89.35,42.29-89.35,42.29,61.8,42.29,89.35Z" style="fill:#fff; opacity:.44;"></path></g><polygon points="53.91 290.86 52.47 320.52 36.32 299.56 51.55 323.42 51.42 335.03 40.36 329.22 41.17 319.87 38.4 327.93 27.34 321.81 51.16 338.9 50.69 349.21 21.51 339.22 35.49 346.31 20.11 352.11 37.76 347.28 50.43 353.08 47.71 441.74 57.38 441.74 55.45 364.04 72.06 355.01 80.51 359.21 74.62 354.05 83.23 347.92 61.47 357.92 64.59 351.47 58.26 358.56 55.68 358.88 55.25 352.44 79.27 323.42 67.53 334.38 68.89 319.55 75.39 302.79 68.21 316.97 67.93 300.53 65.28 335.03 60.24 341.8 59.45 333.09 56.72 343.73 54.54 348.24 55.89 313.1 63.4 299.24 55.47 307.3 53.91 290.86" style="fill:#a1a1a1;"></polygon></g><g><g><path d="M264.07,368.96c0,19.85-13.64,27.51-30.48,27.51s-30.48-7.65-30.48-27.51,13.64-64.39,30.48-64.39,30.48,44.54,30.48,64.39Z" style="fill:#FFFFFF;"></path><path d="M264.07,368.96c0,19.85-13.64,27.51-30.48,27.51s-30.48-7.65-30.48-27.51,13.64-64.39,30.48-64.39,30.48,44.54,30.48,64.39Z" style="fill:#fff; opacity:.45;"></path></g><polygon points="232.95 333.01 231.91 354.39 220.28 339.29 231.25 356.48 231.16 364.84 223.19 360.66 223.77 353.92 221.78 359.73 213.81 355.32 230.97 367.63 230.63 375.06 209.6 367.86 219.68 372.97 208.6 377.15 221.31 373.67 230.44 377.85 228.49 441.74 235.45 441.74 234.06 385.75 246.03 379.24 252.12 382.26 247.88 378.55 254.08 374.13 238.4 381.34 240.65 376.69 236.09 381.8 234.23 382.03 233.92 377.39 251.23 356.48 242.77 364.38 243.75 353.69 248.43 341.61 243.26 351.83 243.06 339.98 241.15 364.84 237.51 369.72 236.94 363.45 234.98 371.11 233.41 374.37 234.38 349.04 239.79 339.05 234.08 344.86 232.95 333.01" style="fill:#a1a1a1;"></polygon></g><g><g><path d="M372.81,368.96c0,19.85-13.64,27.51-30.48,27.51s-30.48-7.65-30.48-27.51,13.64-64.39,30.48-64.39,30.48,44.54,30.48,64.39Z" style="fill:#FFFFFF;"></path><path d="M372.81,368.96c0,19.85-13.64,27.51-30.48,27.51s-30.48-7.65-30.48-27.51,13.64-64.39,30.48-64.39,30.48,44.54,30.48,64.39Z" style="fill:#fff; opacity:.45;"></path></g><polygon points="341.7 333.01 340.66 354.39 329.02 339.29 340 356.48 339.9 364.84 331.93 360.66 332.52 353.92 330.52 359.73 322.55 355.32 339.72 367.63 339.37 375.06 318.35 367.86 328.42 372.97 317.34 377.15 330.06 373.67 339.19 377.85 337.23 441.74 344.2 441.74 342.8 385.75 354.78 379.24 360.87 382.26 356.62 378.55 362.82 374.13 347.15 381.34 349.39 376.69 344.83 381.8 342.98 382.03 342.67 377.39 359.98 356.48 351.51 364.38 352.49 353.69 357.17 341.61 352 351.83 351.8 339.98 349.89 364.84 346.26 369.72 345.69 363.45 343.72 371.11 342.15 374.37 343.12 349.04 348.53 339.05 342.82 344.86 341.7 333.01" style="fill:#a1a1a1;"></polygon></g><g><g><path d="M218.87,302.14c0,38.08-26.17,52.76-58.46,52.76s-58.46-14.68-58.46-52.76,26.17-123.51,58.46-123.51,58.46,85.43,58.46,123.51Z" style="fill:#FFFFFF;"></path><path d="M218.87,302.14c0,38.08-26.17,52.76-58.46,52.76s-58.46-14.68-58.46-52.76,26.17-123.51,58.46-123.51,58.46,85.43,58.46,123.51Z" style="fill:#fff; opacity:.27;"></path></g><polygon points="159.19 233.18 157.2 274.18 134.88 245.22 155.93 278.19 155.75 294.23 140.47 286.21 141.59 273.29 137.76 284.43 122.47 275.96 155.39 299.58 154.74 313.84 114.4 300.03 133.73 309.83 112.47 317.85 136.87 311.17 154.38 319.19 150.62 441.74 163.99 441.74 161.32 334.34 184.28 321.86 195.97 327.66 187.83 320.53 199.72 312.06 169.64 325.87 173.95 316.96 165.2 326.77 161.65 327.21 161.05 318.3 194.25 278.19 178.02 293.34 179.91 272.84 188.88 249.67 178.95 269.28 178.58 246.55 174.91 294.23 167.94 303.59 166.85 291.56 163.08 306.27 160.06 312.51 161.93 263.93 172.31 244.77 161.35 255.91 159.19 233.18" style="fill:gray;"></polygon></g><g><g><path d="M452.44,163.7c0,47.27-32.49,65.5-72.57,65.5s-72.57-18.23-72.57-65.5S339.79,10.37,379.87,10.37s72.57,106.06,72.57,153.33Z" style="fill:#FFFFFF;"></path><path d="M452.44,163.7c0,47.27-32.49,65.5-72.57,65.5s-72.57-18.23-72.57-65.5S339.79,10.37,379.87,10.37s72.57,106.06,72.57,153.33Z" style="fill:#fff; opacity:.27;"></path></g><polygon points="378.35 78.1 375.87 128.99 348.17 93.03 374.3 133.97 374.08 153.89 355.1 143.93 356.49 127.89 351.74 141.72 332.76 131.21 373.63 160.53 372.82 178.23 322.74 161.08 346.74 173.25 320.35 183.21 350.64 174.91 372.38 184.87 367.71 441.74 384.31 441.74 380.99 203.68 409.5 188.19 424 195.38 413.9 186.53 428.66 176.02 391.32 193.17 396.67 182.1 385.81 194.27 381.39 194.83 380.66 183.76 421.87 133.97 401.72 152.78 404.06 127.33 415.2 98.57 402.88 122.91 402.41 94.69 397.86 153.89 389.2 165.5 387.85 150.57 383.17 168.82 379.43 176.57 381.75 116.27 394.63 92.48 381.03 106.31 378.35 78.1" style="fill:gray;"></polygon></g></g><g id="freepik--Bench--inject-1"><g><path d="M375.44,377.5c-1.47,0-2.79-1-3.15-2.49-.76-3.17-.41-5.83,1.02-7.9,1.86-2.68,4.79-3.12,5.12-3.16,.13-.02,.27-.03,.4-.03h53.37c1.79,0,3.24,1.45,3.24,3.24s-1.45,3.24-3.24,3.24h-53c-.16,.06-.43,.18-.58,.43-.14,.23-.44,.94-.02,2.68,.41,1.74,.57,3.49-1.17,3.9-.25,.06-1.74,.09-1.99,.09Z" style="fill:#fff; stroke:#263238; stroke-linecap:round; stroke-linejoin:round;"></path><path d="M377.6,377.5c-1.47,0-2.79-1-3.15-2.49-.76-3.17-.41-5.83,1.02-7.9,1.86-2.68,4.79-3.12,5.12-3.16,.13-.02,.27-.03,.4-.03h53.37c1.79,0,3.24,1.45,3.24,3.24s-1.45,3.24-3.24,3.24h-53c-.16,.06-.43,.18-.58,.43-.14,.23-.44,.94-.02,2.68,.41,1.74-.66,3.49-2.4,3.9-.25,.06-.5,.09-.75,.09Z" style="fill:#263238;"></path><line x1="401.38" y1="393.47" x2="405.25" y2="368.4" style="fill:none; stroke:#263238; stroke-linecap:round; stroke-linejoin:round; stroke-width:4px;"></line><g><path d="M473.76,440.64h4.1l-7.97-45.16,16.06-57.73-3.83-1.07-16.2,58.24c-.09,.33-.1,.68-.01,1.02l7.86,44.7Z" style="fill:#263238; stroke:#263238; stroke-linecap:round; stroke-linejoin:round;"></path><path d="M418.02,440.64l6.73-43.2h43.07v-3.98h-44.67c-.93,0-1.74,.65-1.94,1.55l-7.28,45.62h4.08Z" style="fill:#263238; stroke:#263238; stroke-linecap:round; stroke-linejoin:round;"></path><path d="M376.61,440.64l6.73-43.2h43.07v-3.98h-44.67c-.93,0-1.74,.65-1.94,1.55l-7.28,45.62h4.08Z" style="fill:#263238; stroke:#263238; stroke-linecap:round; stroke-linejoin:round;"></path><g><g><path d="M432.35,440.64h4.1l-7.97-45.16,16.06-57.73-3.83-1.07-16.2,58.24c-.09,.33-.1,.68-.01,1.02l7.86,44.7Z" style="fill:#263238; stroke:#263238; stroke-linecap:round; stroke-linejoin:round;"></path><polygon points="435.77 341.79 490.44 341.79 492.62 334.16 437.96 334.16 435.77 341.79" style="fill:#263238; stroke:#263238; stroke-linecap:round; stroke-linejoin:round;"></polygon><polygon points="432.39 353.61 487.05 353.61 489.24 345.98 434.57 345.98 432.39 353.61" style="fill:#263238; stroke:#263238; stroke-linecap:round; stroke-linejoin:round;"></polygon><polygon points="429 365.43 483.67 365.43 485.85 357.81 431.19 357.81 429 365.43" style="fill:#263238; stroke:#263238; stroke-linecap:round; stroke-linejoin:round;"></polygon><polygon points="425.62 377.26 480.28 377.26 482.46 369.63 427.8 369.63 425.62 377.26" style="fill:#263238; stroke:#263238; stroke-linecap:round; stroke-linejoin:round;"></polygon><polygon points="422.23 389.08 476.9 389.08 479.08 381.45 424.42 381.45 422.23 389.08" style="fill:#263238; stroke:#263238; stroke-linecap:round; stroke-linejoin:round;"></polygon></g><g><polygon points="433.21 341.79 487.88 341.79 490.06 334.16 435.4 334.16 433.21 341.79" style="fill:#fff; stroke:#263238; stroke-linecap:round; stroke-linejoin:round;"></polygon><polygon points="429.83 353.61 484.49 353.61 486.68 345.98 432.01 345.98 429.83 353.61" style="fill:#fff; stroke:#263238; stroke-linecap:round; stroke-linejoin:round;"></polygon><polygon points="426.44 365.43 481.11 365.43 483.29 357.81 428.63 357.81 426.44 365.43" style="fill:#fff; stroke:#263238; stroke-linecap:round; stroke-linejoin:round;"></polygon><polygon points="423.06 377.26 477.72 377.26 479.91 369.63 425.24 369.63 423.06 377.26" style="fill:#fff; stroke:#263238; stroke-linecap:round; stroke-linejoin:round;"></polygon><polygon points="419.67 389.08 474.34 389.08 476.52 381.45 421.86 381.45 419.67 389.08" style="fill:#fff; stroke:#263238; stroke-linecap:round; stroke-linejoin:round;"></polygon></g><rect x="378.25" y="392.83" width="96.19" height="4.38" style="fill:#fff; stroke:#263238; stroke-linecap:round; stroke-linejoin:round;"></rect><rect x="422.82" y="392.83" width="51.62" height="4.38" style="fill:#263238; stroke:#263238; stroke-linecap:round; stroke-linejoin:round;"></rect></g></g><line x1="442.24" y1="393.47" x2="446.11" y2="368.4" style="fill:none; stroke:#263238; stroke-linecap:round; stroke-linejoin:round; stroke-width:4px;"></line><path d="M423.25,377.5c-1.47,0-2.79-1-3.15-2.49-.75-3.17-.41-5.83,1.02-7.9,1.86-2.68,4.79-3.12,5.12-3.16,.13-.02,.27-.03,.4-.03h53.37c1.79,0,3.24,1.45,3.24,3.24s-1.45,3.24-3.24,3.24h-53c-.16,.06-.43,.18-.58,.43-.15,.23-.44,.94-.03,2.68,.41,1.74,.95,3.49-.79,3.9-.25,.06-2.12,.09-2.37,.09Z" style="fill:#fff; stroke:#263238; stroke-linecap:round; stroke-linejoin:round;"></path><path d="M425.72,377.5c-1.47,0-2.79-1-3.15-2.49-.75-3.17-.41-5.83,1.02-7.9,1.86-2.68,4.79-3.12,5.12-3.16,.13-.02,.27-.03,.4-.03h53.37c1.79,0,3.24,1.45,3.24,3.24s-1.45,3.24-3.24,3.24h-53c-.16,.06-.43,.18-.58,.43-.15,.23-.44,.94-.03,2.68,.41,1.74-.66,3.49-2.4,3.9-.25,.06-.5,.09-.75,.09Z" style="fill:#263238; stroke:#263238; stroke-linecap:round; stroke-linejoin:round;"></path></g></g><g id="freepik--Floor--inject-1"><g><g><ellipse cx="194.38" cy="458.1" rx="8.69" ry="3.23" style="fill:none; stroke:#263238; stroke-miterlimit:10;"></ellipse><path d="M229.75,462.75c0,.78-2.26,1.41-5.05,1.41s-5.05-.63-5.05-1.41,2.26-1.41,5.05-1.41,5.05,.63,5.05,1.41Z" style="fill:none; stroke:#263238; stroke-miterlimit:10;"></path><path d="M205.09,469.62c0,1-1.81,1.82-4.04,1.82s-4.04-.81-4.04-1.82,1.81-1.82,4.04-1.82,4.04,.81,4.04,1.82Z" style="fill:none; stroke:#263238; stroke-miterlimit:10;"></path><path d="M288.76,453.25c0,1.34-2.71,2.43-6.06,2.43s-6.06-1.09-6.06-2.43,2.71-2.42,6.06-2.42,6.06,1.09,6.06,2.42Z" style="fill:none; stroke:#263238; stroke-miterlimit:10;"></path><path d="M346.15,460.52c0,1.12-1.72,2.02-3.84,2.02s-3.84-.9-3.84-2.02,1.72-2.02,3.84-2.02,3.84,.9,3.84,2.02Z" style="fill:none; stroke:#263238; stroke-miterlimit:10;"></path><path d="M410.88,465.88c0,.45-1.18,.81-2.63,.81s-2.63-.36-2.63-.81,1.18-.81,2.63-.81,2.63,.36,2.63,.81Z" style="fill:none; stroke:#263238; stroke-miterlimit:10;"></path><ellipse cx="127.69" cy="474.67" rx="3.84" ry=".81" style="fill:none; stroke:#263238; stroke-miterlimit:10;"></ellipse><ellipse cx="66.06" cy="463.35" rx="8.89" ry="2.43" style="fill:none; stroke:#263238; stroke-miterlimit:10;"></ellipse><path d="M51.51,474.47c0,.33-1.09,.61-2.42,.61s-2.43-.27-2.43-.61,1.09-.61,2.43-.61,2.42,.27,2.42,.61Z" style="fill:none; stroke:#263238; stroke-miterlimit:10;"></path></g><g><ellipse cx="334.26" cy="468.2" rx="8.69" ry="3.23" style="fill:none; stroke:#263238; stroke-miterlimit:10;"></ellipse><path d="M369.63,463.55c0-.78-2.26-1.41-5.05-1.41s-5.05,.63-5.05,1.41,2.26,1.41,5.05,1.41,5.05-.63,5.05-1.41Z" style="fill:none; stroke:#263238; stroke-miterlimit:10;"></path><path d="M354.37,467.63c0-1-1.81-1.82-4.04-1.82s-4.04,.81-4.04,1.82,1.81,1.82,4.04,1.82,4.04-.81,4.04-1.82Z" style="fill:none; stroke:#263238; stroke-miterlimit:10;"></path><ellipse cx="422.57" cy="473.05" rx="6.06" ry="2.43" style="fill:none; stroke:#263238; stroke-miterlimit:10;"></ellipse><path d="M486.03,465.78c0-1.12-1.72-2.02-3.84-2.02s-3.84,.9-3.84,2.02,1.72,2.02,3.84,2.02,3.84-.9,3.84-2.02Z" style="fill:none; stroke:#263238; stroke-miterlimit:10;"></path><ellipse cx="481.78" cy="456.08" rx="2.63" ry=".81" style="fill:none; stroke:#263238; stroke-miterlimit:10;"></ellipse><path d="M271.41,451.63c0-.45-1.72-.81-3.84-.81s-3.84,.36-3.84,.81,1.72,.81,3.84,.81,3.84-.36,3.84-.81Z" style="fill:none; stroke:#263238; stroke-miterlimit:10;"></path><ellipse cx="205.94" cy="462.95" rx="8.89" ry="2.42" style="fill:none; stroke:#263238; stroke-miterlimit:10;"></ellipse><path d="M191.39,451.83c0-.33-1.09-.61-2.42-.61s-2.42,.27-2.42,.61,1.09,.61,2.42,.61,2.42-.27,2.42-.61Z" style="fill:none; stroke:#263238; stroke-miterlimit:10;"></path></g><line x1="14.96" y1="441.74" x2="492.07" y2="441.74" style="fill:none; stroke:#263238; stroke-miterlimit:10;"></line></g></g><g id="freepik--Characters--inject-1"><g><g><path d="M147.78,308.14s1.94,2.85,2.65,3.57c.71,.71,4.59,2.24,5.61,1.94s1.12-1.22,.31-1.73-1.73-1.22-2.34-1.94c-.61-.71-1.22-1.94-1.22-2.34s.82-3.57,.82-3.87,1.53-7.34,.61-8.87c-.92-1.53-4.18-1.43-5.2-.2s-2.14,6.22-2.14,7.34,.92,6.12,.92,6.12Z" style="fill:#fff; stroke:#263238; stroke-miterlimit:10;"></path><path d="M188.53,195.34s-17.21,7.52-17.38,8.86c-.17,1.34-5.18,47.79-5.18,47.79l-17.04,38.1,9.36,2.34,19.26-26.88,2.48-12.62,.9,8.11s-7.21,22.31-5.76,28.05l64.5-.33s-1.67-20.05-2.01-20.89-2.51-13.53-2.51-13.53c0,0,9.52-48.96,8.69-50.79s-16.54-9.19-16.54-9.19l-38.76,1Z" style="fill:#FFFFFF; stroke:#263238; stroke-miterlimit:10;"></path><g><g><polygon points="188.7 204.87 196.38 242.68 222.44 205.92 222.44 193.72 191.56 191.01 188.7 204.87" style="fill:#fff; stroke:#263238; stroke-miterlimit:10;"></polygon><polygon points="192.08 221.54 196.38 242.68 210.98 222.09 192.08 221.54" style="fill:#999; stroke:#263238; stroke-miterlimit:10;"></polygon></g><path d="M176.23,231.01c-1.09,3.23-2.19,7.16-2.07,9.51,.18,3.66,2.82,6.42,3.77,8.62" style="fill:none; stroke:#263238; stroke-miterlimit:10;"></path><path d="M175.29,216.86l2.93,8.79s-.46,1.11-1.07,2.76" style="fill:none; stroke:#263238; stroke-miterlimit:10;"></path><path d="M221.22,252.2c-1.78,.98-3.43,1.79-4.69,2.21" style="fill:none; stroke:#263238; stroke-miterlimit:10;"></path><path d="M232.97,244.79s-4.87,3.39-9.66,6.21" style="fill:none; stroke:#263238; stroke-miterlimit:10;"></path><path d="M228.82,253.01s-14.25,5.31-15.64,5.87" style="fill:none; stroke:#263238; stroke-miterlimit:10;"></path><line x1="181.61" y1="250.22" x2="186.64" y2="256.93" style="fill:none; stroke:#263238; stroke-miterlimit:10;"></line><path d="M182.17,258.6s5.59,3.91,6.42,4.47" style="fill:none; stroke:#263238; stroke-miterlimit:10;"></path><path d="M195.59,280.39c-.28,1.14-.5,2.03-.57,2.51-.28,1.96,0,3.63,0,3.63" style="fill:none; stroke:#263238; stroke-miterlimit:10;"></path><path d="M196.7,247.43s.28,16.76,.84,20.67c.31,2.19-.43,5.97-1.19,9.2" style="fill:none; stroke:#263238; stroke-miterlimit:10;"></path></g><path d="M237.15,218.56s-4.68,21.72-4.18,26.23c.5,4.51,1.84,12.7,2,13.87,.17,1.17,12.36,38.1,12.36,38.1l9.52-6.02-7.52-41.77s-1.5-35.92-3.01-40.43-2.51-5.01-2.51-5.01c0,0-1.34,.67-2.34,2.34" style="fill:#FFFFFF; stroke:#263238; stroke-miterlimit:10;"></path><path d="M214.18,145.78s-3.15-2.81-6.29-2.81-6.07,2.02-6.63,2.25c-.56,.22-6.85,1.35-8.43,5.17s-.34,9.1-.34,9.1c0,0-8.76,5.39-10.23,10.34s.79,9.21,2.92,11.8c2.14,2.58,4.16,7.98,2.92,9.78-1.24,1.8-3.26,.34-3.6,.22-.34-.11-3.48,6.41-.22,11.35,3.26,4.94,8.41,3.35,10.65,1.11,2.25-2.25,1.97-6.29,1.97-8.87s.18-14.48,.18-14.48c0,0-.11-11.12,0-12.81,.11-1.69,8.32-11.91,8.32-11.91l5.96,.56s4.83,16.52,4.05,19.44-1.8,19.78-1.8,19.78c0,0,1.01,3.15,2.25,4.38,1.24,1.24,3.15,1.46,1.46,3.6-1.69,2.14-4.05,1.91-3.82,3.71,.22,1.8,1.24,2.47,1.24,2.47,0,0,.79-1.35,4.83-1.57,4.05-.22,10.11-5.17,11.46-8.54,1.35-3.37-.56-7.08-2.02-8.54-1.46-1.46,3.26-4.83,4.27-7.98,1.01-3.15,1.8-7.64,.67-11.01-1.12-3.37-3.6-5.39-4.61-8.09-1.01-2.7-2.47-11.57-6.63-15.28s-4.16-4.61-8.54-3.15Z" style="fill:#263238; stroke:#263238; stroke-miterlimit:10;"></path><g><path d="M195.85,204.01l.13-18.94,19.32,.61s-.63,15.08-.27,17.27" style="fill:#fff; stroke:#263238; stroke-miterlimit:10;"></path><path d="M221.01,172.68c-2.43-1.34-4.13-10.45-5.59-15.92-.65-2.44-1.3-3.9-1.82-4.79-1.41-1.05-2.19-1.17-2.19-1.17,0,0-7.17-1.46-11.18,1.7-4.01,3.16-6.8,16.04-7.65,21.63s4.37,14.09,6.56,15.43c2.19,1.34,3.04,1.09,4.62,.97,1.58-.12,9.36-3.04,11.54-4.86,2.19-1.82,3.52-4.74,3.64-5.22,.09-.36,1.41-4.22,2.26-7.69-.06-.03-.12-.05-.19-.08Z" style="fill:#fff; stroke:#263238; stroke-miterlimit:10;"></path><path d="M218.21,182.15s.73,1.34,2.07,.97,3.28-4.98,3.16-6.68-2.92-2.07-2.92-2.07l-2.31,7.78Z" style="fill:#fff; stroke:#263238; stroke-miterlimit:10;"></path><g><path d="M204,166.48s-3.52,5.35-3.28,6.07c.24,.73,1.34,1.34,1.82,1.34" style="fill:none; stroke:#263238; stroke-miterlimit:10;"></path><path d="M202.78,163.2s-1.94-2.79-5.47-.97" style="fill:none; stroke:#263238; stroke-miterlimit:10;"></path><path d="M208.13,163.44s3.64-1.7,5.95,1.58" style="fill:none; stroke:#263238; stroke-miterlimit:10;"></path><path d="M199.85,166.02c-.2,.95-.81,1.63-1.37,1.52s-.85-.98-.65-1.93,.81-1.63,1.37-1.52c.56,.12,.85,.98,.65,1.93Z" style="fill:#263238;"></path><path d="M210.6,167.42c-.2,.95-.81,1.63-1.37,1.52s-.85-.98-.65-1.93,.81-1.63,1.37-1.52c.56,.12,.85,.98,.65,1.93Z" style="fill:#263238;"></path></g><path d="M197.68,177.05l10.57,1.58s-3.64,1.34-5.35,1.94c-1.7,.61-4.62-1.21-5.22-3.52Z" style="fill:none; stroke:#263238; stroke-miterlimit:10;"></path></g><path d="M158.28,292.41s-2.55,7.67-2.76,7.98c-.2,.31-.41,2.85-.71,3.67-.31,.82-1.63,1.53-2.65,.31-1.02-1.22-.41-2.45-.61-4.49-.2-2.04-1.33-3.98-1.33-3.98,0,0-1.43,5.1-1.53,6.52-.1,1.43,1.73,3.87,1.73,3.87,0,0,2.45,3.77,2.34,4.49-.1,.71-.82,.41-1.84-.2-1.02-.61-3.06-2.55-3.98-3.26-.92-.71-2.24-6.73-2.45-7.44-.2-.71,4.41-9.81,4.41-9.81,0,0,3.86-1.26,9.36,2.34Z" style="fill:#fff; stroke:#263238; stroke-miterlimit:10;"></path><g><path d="M205.4,450.61s-.98,2.45-2.45,5.22c-1.47,2.77-4.24,6.69-2.12,9.14s9.63,2.61,14.52,0c4.9-2.61,2.61-6.04,4.24-6.69,1.63-.65,4.9-4.24,4.9-4.24,0,0,.65-.82-.82-2.61-1.47-1.79-16.15-3.1-18.28-.82Z" style="fill:#fff; stroke:#263238; stroke-miterlimit:10;"></path><path d="M208.99,464.48c-4.89,.58-7.7-1.08-8.91-2.08-.09,.94,.1,1.82,.75,2.57,2.12,2.45,9.63,2.61,14.52,0,4.9-2.61,2.61-6.04,4.24-6.69,1.63-.65,4.9-4.24,4.9-4.24,0,0,.65-.82-.82-2.61,0,0-5.06,5.22-5.87,7.02s-1.96,5.22-8.81,6.04Z" style="fill:#fff; stroke:#263238; stroke-miterlimit:10;"></path></g><g><g><path d="M176.43,449.48s-3.83,4.39-4.49,5.04c-.65,.65-8,3.26-6.69,6.53,1.31,3.26,11.26,8.81,17.95,9.63,6.69,.82,8-.16,8.16-1.8s-.19-6.4-.19-6.4c0,0-2.42-4.69-4.87-8.12-2.45-3.43-8.32-5.52-9.87-4.88Z" style="fill:#fff; stroke:#263238; stroke-miterlimit:10;"></path><path d="M191.23,469.5c-1.15-.99-2.79-2.52-4.1-4.21-2.28-2.94-9.46-7.34-14.2-8.16-4.39-.76-7.23,1.85-7.62,2.23-.23,.54-.29,1.1-.05,1.68,1.31,3.26,11.26,8.81,17.95,9.63,5.79,.71,7.55,.07,8.02-1.18Z" style="fill:#fff; stroke:#263238; stroke-miterlimit:10;"></path></g><path d="M190.86,470.07s.08-.09,.12-.13v-.02c.11-.13,.19-.27,.24-.42-1.15-.99-2.79-2.52-4.1-4.21-2.28-2.94-9.46-7.34-14.2-8.16-4.39-.76-7.23,1.85-7.62,2.23-.06,.14-.11,.28-.14,.42-.02,.07-.02,.15-.03,.22-.01,.11-.02,.22-.02,.33,0,.06,0,.12,.01,.19,.02,.18,.06,.35,.13,.53,1.31,3.26,11.26,8.81,17.95,9.63,.39,.05,.76,.09,1.12,.12,.12,.01,.22,.02,.34,.03,.23,.02,.46,.04,.67,.06,.13,0,.25,.02,.37,.02,.19,.01,.37,.02,.55,.03,.12,0,.24,0,.35,.01,.16,0,.32,0,.47,0,.11,0,.22,0,.32,0,.15,0,.28,0,.42-.01,.09,0,.19,0,.28-.01,.14,0,.27-.02,.4-.03,.07,0,.15-.01,.21-.02,.18-.02,.35-.05,.51-.08,.07-.01,.13-.03,.2-.05,.09-.02,.17-.04,.25-.06,.07-.02,.13-.04,.2-.06,.06-.02,.13-.04,.19-.07,.06-.03,.12-.05,.18-.08,.05-.02,.1-.05,.15-.07,.05-.03,.11-.06,.16-.09,.04-.03,.07-.05,.11-.08,.05-.04,.09-.07,.13-.11,.03-.03,.05-.05,.08-.08Z" style="fill:#fff; stroke:#263238; stroke-miterlimit:10;"></path><path d="M190.86,470.07s.08-.09,.12-.13v-.02c.11-.13,.19-.27,.24-.42-1.15-.99-2.79-2.52-4.1-4.21-2.28-2.94-9.46-7.34-14.2-8.16-4.39-.76-7.23,1.85-7.62,2.23-.06,.14-.11,.28-.14,.42-.02,.07-.02,.15-.03,.22-.01,.11-.02,.22-.02,.33,0,.06,0,.12,.01,.19,.02,.18,.06,.35,.13,.53,1.31,3.26,11.26,8.81,17.95,9.63,.39,.05,.76,.09,1.12,.12,.12,.01,.22,.02,.34,.03,.23,.02,.46,.04,.67,.06,.13,0,.25,.02,.37,.02,.19,.01,.37,.02,.55,.03,.12,0,.24,0,.35,.01,.16,0,.32,0,.47,0,.11,0,.22,0,.32,0,.15,0,.28,0,.42-.01,.09,0,.19,0,.28-.01,.14,0,.27-.02,.4-.03,.07,0,.15-.01,.21-.02,.18-.02,.35-.05,.51-.08,.07-.01,.13-.03,.2-.05,.09-.02,.17-.04,.25-.06,.07-.02,.13-.04,.2-.06,.06-.02,.13-.04,.19-.07,.06-.03,.12-.05,.18-.08,.05-.02,.1-.05,.15-.07,.05-.03,.11-.06,.16-.09,.04-.03,.07-.05,.11-.08,.05-.04,.09-.07,.13-.11,.03-.03,.05-.05,.08-.08Z" style="fill:#fff; stroke:#263238; stroke-miterlimit:10;"></path><path d="M190.86,470.07s.08-.09,.12-.13v-.02c.11-.13,.19-.27,.24-.42-1.15-.99-2.79-2.52-4.1-4.21-2.28-2.94-9.46-7.34-14.2-8.16-4.39-.76-7.23,1.85-7.62,2.23-.06,.14-.11,.28-.14,.42-.02,.07-.02,.15-.03,.22-.01,.11-.02,.22-.02,.33,0,.06,0,.12,.01,.19,.02,.18,.06,.35,.13,.53,1.31,3.26,11.26,8.81,17.95,9.63,.39,.05,.76,.09,1.12,.12,.12,.01,.22,.02,.34,.03,.23,.02,.46,.04,.67,.06,.13,0,.25,.02,.37,.02,.19,.01,.37,.02,.55,.03,.12,0,.24,0,.35,.01,.16,0,.32,0,.47,0,.11,0,.22,0,.32,0,.15,0,.28,0,.42-.01,.09,0,.19,0,.28-.01,.14,0,.27-.02,.4-.03,.07,0,.15-.01,.21-.02,.18-.02,.35-.05,.51-.08,.07-.01,.13-.03,.2-.05,.09-.02,.17-.04,.25-.06,.07-.02,.13-.04,.2-.06,.06-.02,.13-.04,.19-.07,.06-.03,.12-.05,.18-.08,.05-.02,.1-.05,.15-.07,.05-.03,.11-.06,.16-.09,.04-.03,.07-.05,.11-.08,.05-.04,.09-.07,.13-.11,.03-.03,.05-.05,.08-.08Z" style="fill:#fff; stroke:#263238; stroke-miterlimit:10;"></path><path d="M186.31,467.41c-2.28-2.94-9.46-7.34-14.2-8.16-3.32-.57-5.74,.78-6.9,1.63,.02,.05,.03,.11,.05,.16,1.31,3.26,11.26,8.81,17.95,9.63,.39,.05,.76,.09,1.12,.12,.12,.01,.22,.02,.34,.03,.23,.02,.46,.04,.67,.06,.13,0,.25,.02,.37,.02,.19,.01,.37,.02,.55,.03,.12,0,.24,0,.35,.01,.16,0,.32,0,.47,0,.11,0,.22,0,.32,0,.15,0,.28,0,.42-.01,.09,0,.19,0,.28-.01,.14,0,.27-.02,.4-.03,.07,0,.15-.01,.21-.02,.18-.02,.35-.05,.51-.08,.07-.01,.13-.03,.2-.05h.03c-1-.93-2.16-2.1-3.14-3.36Z" style="fill:#fff; stroke:#263238; stroke-miterlimit:10;"></path></g><path d="M175.16,289.07s-2.27,12.91-.54,21.68c1.73,8.77,17.41,59.54,17.41,59.54,0,0-5.61,46.53-8.46,56.51-2.85,9.99-7.45,15.85-7.45,16.49s.32,6.18,.32,6.18c0,0,5.87,2.06,7.93,3.65,2.06,1.59,6.66,8.88,6.82,9.35,.16,.48,3.33-2.7,5.39-6.5,2.06-3.81,2.7-10.15,2.7-10.15l4.44-14.59,4.6,14.27s-2.7,2.38-3.01,3.17c-.32,.79-1.27,3.01-1.27,3.01,0,0,7.77-.95,10.46-.16,2.7,.79,9.51,4.28,9.51,4.28,0,0,4.91-7.45,4.44-10.46-.48-3.01-2.38-4.76-2.54-7.77-.16-3.01-10.78-64.21-10.78-64.21,0,0,21.56-45.5,23.62-56.76,2.06-11.26,.91-27.88,.91-27.88l-64.5,.33Z" style="fill:#263238; stroke:#263238; stroke-miterlimit:10;"></path><path d="M221.44,305.18c1.61-.23,3.28-.35,4.94-.29" style="fill:none; stroke:#999; stroke-miterlimit:10;"></path><path d="M207.83,309.64s4.07-2.21,9.48-3.62" style="fill:none; stroke:#999; stroke-miterlimit:10;"></path><path d="M218.45,302.67s-10.15,3.49-13.95,9.04" style="fill:none; stroke:#999; stroke-miterlimit:10;"></path><line x1="193.99" y1="362.85" x2="192.92" y2="367.51" style="fill:none; stroke:#999; stroke-miterlimit:10;"></line><line x1="205.13" y1="313.92" x2="194.8" y2="359.28" style="fill:none; stroke:#999; stroke-miterlimit:10;"></line><path d="M186.74,308.53s6.82,6.98,9.99,8.72" style="fill:none; stroke:#999; stroke-miterlimit:10;"></path><polyline points="181.82 289.35 181.35 293.31 177.07 293.16" style="fill:none; stroke:#999; stroke-miterlimit:10;"></polyline><path d="M184.2,289.19v3.65s6.66,.63,13.32,.63h6.66" style="fill:none; stroke:#999; stroke-miterlimit:10;"></path><line x1="208.78" y1="288.87" x2="209.41" y2="292.84" style="fill:none; stroke:#999; stroke-miterlimit:10;"></line><polyline points="211.16 288.72 212.27 292.68 233.35 291.89 233.35 289.51" style="fill:none; stroke:#999; stroke-miterlimit:10;"></polyline><path d="M207.35,421.55c2.28-8.14,5.86-21.43,6.5-26.45,.95-7.45,.48-18.39,.48-18.39" style="fill:none; stroke:#999; stroke-miterlimit:10;"></path><path d="M205.45,428.24s.39-1.34,1-3.49" style="fill:none; stroke:#999; stroke-miterlimit:10;"></path></g><g><g><path d="M257.87,296.66s1.24,8.88,1.24,10.85-.99,3.08-.99,3.08l-7.27,4.31s4.19,2.47,3.7,3.33c-.49,.86-1.97,1.48-3.08,1.73-1.11,.25-3.33,.62-3.33,.62,0,0,1.73,1.11,1.23,2.1-.49,.99-2.34,.12-3.57-1.6-1.23-1.73-2.59-4.44-2.96-6.04s1.73-12.7,1.6-14.18c-.12-1.48,.9-5.07,.9-5.07l12.53,.88Z" style="fill:#fff; stroke:#263238; stroke-miterlimit:10;"></path><path d="M257.01,298.27s2.71,7.15,2.96,8.38c.25,1.23,1.48,7.89,1.85,8.75,.37,.86,0,1.6-1.36,1.48-1.36-.12-1.97-.99-2.71-3.08-.74-2.1-1.6-4.19-1.6-4.19l-1.73-2.59" style="fill:#fff; stroke:#263238; stroke-miterlimit:10;"></path><path d="M255.53,308.74s-2.1-1.85-2.71-2.59c-.62-.74-3.2-5.42-3.94-5.79s-1.6,.86-1.6,1.23-1.23,.25-1.48,1.48-.12,1.85-.12,1.85c0,0-1.23,1.11-1.11,2.47,.12,1.36,.99,5.92,1.36,6.78,.37,.86-2.47-1.6-2.22,.25,.25,1.85,2.71,3.94,3.33,4.44,.62,.49,5.18,.86,6.41,.62s3.57-3.45,3.94-4.07c.37-.62,.37-1.6,.37-1.6l-2.22-5.05Z" style="fill:none; stroke:#263238; stroke-miterlimit:10;"></path><path d="M247.27,301.59s2.59,7.03,3.7,8.51c1.11,1.48,3.57,4.19,3.57,4.19" style="fill:none; stroke:#263238; stroke-miterlimit:10;"></path><path d="M245.67,304.92s1.11,7.15,1.85,8.01c.74,.86,3.57,3.08,3.57,3.08" style="fill:none; stroke:#263238; stroke-miterlimit:10;"></path><path d="M245.91,314.17s.25,1.36,1.48,2.1c1.23,.74,2.96,1.48,2.96,1.48" style="fill:none; stroke:#263238; stroke-miterlimit:10;"></path><path d="M261.07,310.72s3.08-3.08,4.07-4.44c.99-1.36-1.23-1.73-2.34-1.6s-2.84,1.97-2.84,1.97l1.11,4.07Z" style="fill:#fff; stroke:#263238; stroke-miterlimit:10;"></path></g><polygon points="247.27 282.72 245.33 295.78 257.87 296.66 259.81 285.19 247.27 282.72" style="fill:#FFFFFF; stroke:#263238; stroke-miterlimit:10;"></polygon><polygon points="365.9 286.95 365.9 297.72 376.49 297.02 378.7 286.32 365.9 286.95" style="fill:#FFFFFF; stroke:#263238; stroke-miterlimit:10;"></polygon><g><path d="M290.24,449.31l-5.35,9.13s-6.68,5.12-4.9,7.8c1.78,2.67,6.91,3.12,14.04,1.56,7.13-1.56,9.58-4.46,10.47-6.24s1.34-9.8,0-12.25c-1.34-2.45-11.59-1.56-14.26,0Z" style="fill:#fff; stroke:#263238; stroke-miterlimit:10;"></path><path d="M304.5,461.57c.21-.42,.39-1.2,.54-2.16-.11,.04-.21,.09-.32,.15-1.34,.89-6.24,4.46-14.04,6.46-5.18,1.33-8.87-.48-10.78-1.85-.28,.76-.31,1.47,.08,2.07,1.78,2.67,6.91,3.12,14.04,1.56,7.13-1.56,9.58-4.46,10.47-6.24Z" style="fill:#fff; stroke:#263238; stroke-miterlimit:10;"></path></g><g><path d="M300.72,460.45s1.56,2.9,1.11,5.12-1.11,4.9,.45,6.02,14.7,4.68,17.6,4.23c2.9-.45,6.24-3.34,6.24-5.57s-4.21-9.3-4.21-9.3c0,0-9.59-3.89-11.82-5-2.23-1.11-9.36,4.5-9.36,4.5Z" style="fill:#fff; stroke:#263238; stroke-miterlimit:10;"></path><path d="M315.99,467.02c-3.33-.92-11.09,.68-14.66,1.52-.11,1.28,.06,2.42,.95,3.06,1.56,1.11,14.7,4.68,17.6,4.23,1.62-.25,3.39-1.27,4.63-2.51-1.38-1.74-4.89-5.3-8.51-6.3Z" style="fill:#fff; stroke:#263238; stroke-miterlimit:10;"></path><path d="M318.54,470.7c-2.9-1.34-8.47-1.78-11.59-.67-1.92,.68-4.08,.61-5.47,.45,.15,.45,.4,.83,.79,1.11,1.56,1.11,14.7,4.68,17.6,4.23,1.04-.16,2.13-.64,3.1-1.28-.67-1.36-2.5-2.95-4.44-3.84Z" style="fill:#263238; stroke:#263238; stroke-miterlimit:10;"></path></g><g><path d="M274.4,293.8l.92,34.98,13.59,112.07-.89,4.68,1.34,6.46,10.69,1.34,.67,7.13s4.23-3.12,7.8-3.12,14.93,6.68,14.93,6.68c0,0,3.34-13.81,3.79-16.71,.45-2.9,1.56-19.61,2.01-23.62,.45-4.01,4.68-53.25,4.68-53.25,0,0,9.8-57.26,9.58-60.16-.22-2.9-2.01-20.05-2.01-20.05l-66.39-.22-.67,2.45" style="fill:#999; stroke:#263238; stroke-miterlimit:10;"></path><line x1="336.17" y1="295.15" x2="325.38" y2="298.39" style="fill:none; stroke:#263238; stroke-miterlimit:10;"></line><line x1="277.9" y1="298.03" x2="291.57" y2="299.47" style="fill:none; stroke:#263238; stroke-miterlimit:10;"></line><line x1="279.7" y1="300.55" x2="294.81" y2="303.79" style="fill:none; stroke:#263238; stroke-miterlimit:10;"></line><path d="M326.1,307.38s7.91-1.08,12.59-1.08" style="fill:none; stroke:#263238; stroke-miterlimit:10;"></path><polyline points="301.64 293.71 301.28 298.03 298.41 305.58 301.28 309.9" style="fill:none; stroke:#263238; stroke-miterlimit:10;"></polyline><path d="M292.57,433.88c-.37,.55-2.49,1.41-4.26,2.05l.6,4.92-.89,4.68,1.34,6.46,10.35,1.29c-.3-4.61-.5-12.61,1.27-16.82,2.58-6.13,2.42-11.21,2.42-11.21l1.13-28.49s-11.3,36.15-11.94,37.12Z" style="fill:#263238; stroke:#263238; stroke-miterlimit:10;"></path><line x1="309.99" y1="317.18" x2="318.99" y2="313.85" style="fill:none; stroke:#263238; stroke-miterlimit:10;"></line><polyline points="295.64 314.73 305.22 318.51 312.11 314.36" style="fill:none; stroke:#263238; stroke-miterlimit:10;"></polyline><path d="M299.6,444.41c0,1.34,.45,5.35,.45,6.02" style="fill:none; stroke:#263238; stroke-miterlimit:10;"></path><path d="M306.08,353.14l-2.69,72.11s-2.14,10.08-3.2,15.65" style="fill:none; stroke:#263238; stroke-miterlimit:10;"></path><line x1="306.69" y1="319.77" x2="306.27" y2="348.09" style="fill:none; stroke:#263238; stroke-miterlimit:10;"></line><path d="M305.39,452.88s4.46-3.56,6.91-2.9c2.45,.67,7.8,5.12,7.8,5.12" style="fill:none; stroke:#263238; stroke-miterlimit:10;"></path><path d="M324.56,447.75s-12.48-6.68-14.7-5.12,3.56,2.45,4.46,2.9" style="fill:none; stroke:#263238; stroke-miterlimit:10;"></path></g><polygon points="274.86 281.1 274.4 293.8 342.64 292.42 341.73 280.03 274.86 281.1" style="fill:#FFFFFF; stroke:#263238; stroke-miterlimit:10;"></polygon><path d="M299.95,176.05s-5.13,1.66-11.65,4.16c-6.52,2.5-19.55,8.72-21.7,14.11-2.16,5.39-10.64,46.36-10.64,46.36,0,0-11.5,41.87-10.6,43.67,.9,1.8,13.66,3.77,15.28,2.7,1.62-1.08,1.98-1.62,2.16-2.7s8.63-24.08,8.63-24.08l5.39-26.96s.18,33.61,0,34.32-3.23,13.48-2.52,14.56c.72,1.08,7.19,2.34,7.73,2.34s47.26,.54,51.04,0c3.77-.54,8.09-1.98,9.34-3.41,1.26-1.44,1.98-29.65,2.16-30.55,.18-.9,3.06-23.36,3.06-23.36l13.12,40.61s3.05,18.69,3.59,19.59c.54,.9,3.06,1.62,6.29,1.62s7.73-1.8,8.09-2.7c.36-.9,.36-28.03-.72-32.53-1.08-4.49-15.9-45.32-16.61-47.83-.72-2.52-8.27-19.95-11.14-22.1-2.88-2.16-28.49-8.6-29.03-8.6s-21.25,.79-21.25,.79Z" style="fill:#FFFFFF; stroke:#263238; stroke-miterlimit:10;"></path><g><line x1="275.96" y1="215.08" x2="275.04" y2="211.21" style="fill:none; stroke:#263238; stroke-miterlimit:10;"></line><line x1="276.81" y1="233.31" x2="276.66" y2="218.02" style="fill:none; stroke:#263238; stroke-miterlimit:10;"></line><path d="M257.76,245.17s7.37,1.98,10.24,1.44c2.88-.54,5.03-2.34,5.03-2.34" style="fill:none; stroke:#263238; stroke-miterlimit:10;"></path><path d="M271.24,248.04s-3.77,1.26-6.65,1.26" style="fill:none; stroke:#263238; stroke-miterlimit:10;"></path><line x1="347.61" y1="227.2" x2="344.74" y2="218.93" style="fill:none; stroke:#263238; stroke-miterlimit:10;"></line><path d="M358.4,242.65s6.47,3.95,10.78,4.31" style="fill:none; stroke:#263238; stroke-miterlimit:10;"></path><path d="M358.94,247.32s6.29,2.34,10.42,1.26" style="fill:none; stroke:#263238; stroke-miterlimit:10;"></path><path d="M345.49,208.83c-.35,1.62-.59,3.01-.65,3.96" style="fill:none; stroke:#263238; stroke-miterlimit:10;"></path><path d="M351.13,188.53s-3.46,11.02-5.26,18.62" style="fill:none; stroke:#263238; stroke-miterlimit:10;"></path><path d="M269.83,193.42s.18,8.09,2.7,12.94" style="fill:none; stroke:#263238; stroke-miterlimit:10;"></path><path d="M339.53,262.6s-10.24,13.48-19.05,17.25" style="fill:none; stroke:#263238; stroke-miterlimit:10;"></path><path d="M312.11,278.63c-1.98,1.14-3.8,2.02-5.29,2.48" style="fill:none; stroke:#263238; stroke-miterlimit:10;"></path><path d="M333.42,262.96s-10.39,8.86-19.05,14.32" style="fill:none; stroke:#263238; stroke-miterlimit:10;"></path></g><path d="M321.2,175.26c-.54,0-21.25,.79-21.25,.79,0,0-1.56,.51-4.05,1.38,0,.96,.21,2.59,1.22,5.02,1.8,4.31,10.6,16.53,10.6,16.53,0,0,12.76-9.17,15.63-14.38,1.68-3.04,2.68-6.06,3.22-8.07-3.1-.77-5.23-1.27-5.38-1.27Z" style="fill:#263238; stroke:#263238; stroke-miterlimit:10;"></path><g><path d="M289.22,133.6s-1.97-3.45,1.48-5.3c4.34-2.33,13.43-2.46,13.43-2.46,0,0,9.49,.74,13.06,1.97,3.57,1.23,7.52,4.19,8.13,8.01,.62,3.82,.99,10.72,.49,13.55-.49,2.83-.86,5.18-1.23,5.67-.37,.49-7.15,2.09-9.86,.86-2.71-1.23-2.09-7.89-3.08-8.75-.99-.86-4.56-3.7-8.13-4.56-3.57-.86-7.39-1.11-8.63-1.6-1.23-.49-5.67-7.39-5.67-7.39Z" style="fill:#263238; stroke:#263238; stroke-miterlimit:10;"></path><path d="M292.55,135.44s-3.57,18.61-3.33,21.69c.25,3.08,3.45,16.14,5.91,17.13,2.46,.99,3.82,.74,3.82,.74,0,0-.25,7.52,.74,8.75,.99,1.23,10.1,3.94,16.76,1.6,6.65-2.34,6.41-6.53,6.41-6.53,0,0-1.11-16.02-.86-16.51,.25-.49,4.44-5.42,3.2-9.61-1.23-4.19-3.45-4.44-5.18-3.45s-3.08,4.56-3.08,4.56c0,0-1.97,.25-1.97-.62s.25-5.3,.12-6.16-4.07-2.96-3.45-4.56c.62-1.6,2.34-3.94,2.09-5.3-.25-1.36-7.39-4.19-7.39-4.19,0,0,4.19,4.68,4.31,5.42,.12,.74-2.34,2.09-8.26,.86-5.91-1.23-7.89-4.56-7.89-4.56,0,0,3.08,4.68,1.11,4.07-1.97-.62-3.08-3.33-3.08-3.33Z" style="fill:#fff; stroke:#263238; stroke-miterlimit:10;"></path><path d="M294.52,148.87s-3.33,6.41-2.34,7.52c.99,1.11,1.97,1.23,1.97,1.23l-.62,1.6" style="fill:none; stroke:#263238; stroke-miterlimit:10;"></path><path d="M293.04,162.18s1.36,.12,5.67-.37c4.31-.49,5.3-1.97,5.3-1.97" style="fill:none; stroke:#263238; stroke-miterlimit:10;"></path><path d="M298.09,146.41s4.68-3.08,7.89,1.23" style="fill:none; stroke:#263238; stroke-miterlimit:10;"></path><path d="M294.52,147.89s-.86-1.23-2.46-1.23-1.48,.99-1.48,.99" style="fill:none; stroke:#263238; stroke-miterlimit:10;"></path><path d="M302.77,149.8c0,1.05-.47,1.91-1.05,1.91s-1.05-.86-1.05-1.91,.47-1.91,1.05-1.91,1.05,.86,1.05,1.91Z" style="fill:#263238;"></path><path d="M293.24,150.31c0,.94-.42,1.7-.93,1.7s-.93-.76-.93-1.7,.42-1.7,.93-1.7,.93,.76,.93,1.7Z" style="fill:#263238;"></path><path d="M298.95,175s8.9-1.03,11.12-2.7c2.22-1.66,3.19-2.91,3.19-2.91,0,0-4.16,6.38-6.66,8.18-2.5,1.8-6.91,6.18-6.91,6.18,0,0-1.46-4.25-.74-8.75Z" style="fill:#263238; stroke:#263238; stroke-miterlimit:10;"></path></g><g><path d="M371.2,313.6s-2.12,2.12-2.43,2.58c-.3,.45-.3,1.36-.3,1.36,0,0-3.64,1.67-3.18,2.58,.45,.91,3.34,.15,3.34,.15,0,0-4.25,2.73-3.64,3.64s2.73,.3,4.7-1.21c1.97-1.52,3.94-3.03,3.79-6.52-.15-3.49-1.67-3.79-2.27-2.58Z" style="fill:#fff; stroke:#263238; stroke-miterlimit:10;"></path><path d="M365.9,297.72s-1.83,10.73-1.98,11.33c-.15,.61-.91,9.25-.91,9.25,0,0,1.36,1.67,2.58,.76,1.21-.91,2.73-8.49,2.73-8.49,0,0,2.73,2.27,2.88,3.03,.15,.76,.3,3.94-.15,5.46s-1.97,3.49-2.73,4.4c-.76,.91-1.67,1.97-.3,1.97s4.7-1.52,5.91-3.94c1.21-2.43,3.34-7.43,4.4-10.01,1.06-2.58-.91-12.28-.91-12.28l-.92-2.18-10.59,.71Z" style="fill:#fff; stroke:#263238; stroke-miterlimit:10;"></path></g></g></g></g><g id="freepik--Streetlight--inject-1"><g><polygon points="96.86 431.68 80.62 431.68 83.58 80.59 93.81 80.59 96.86 431.68" style="fill:#263238; stroke:#263238; stroke-linecap:round; stroke-linejoin:round;"></polygon><polygon points="100.1 78.79 76.36 78.79 73.39 43.93 103.06 43.93 100.1 78.79" style="fill:#263238; stroke:#263238; stroke-linecap:round; stroke-linejoin:round;"></polygon><polygon points="97.44 78.79 79.01 78.79 76.71 43.93 99.75 43.93 97.44 78.79" style="fill:#fff; stroke:#263238; stroke-linecap:round; stroke-linejoin:round;"></polygon><rect x="71.07" y="40.72" width="34.49" height="5.81" style="fill:#263238; stroke:#263238; stroke-linecap:round; stroke-linejoin:round;"></rect><rect x="73.78" y="75.01" width="29.07" height="7.18" style="fill:#263238; stroke:#263238; stroke-linecap:round; stroke-linejoin:round;"></rect><rect x="75.72" y="36.84" width="24.8" height="3.88" style="fill:#263238; stroke:#263238; stroke-linecap:round; stroke-linejoin:round;"></rect><rect x="85.44" y="31.06" width="4.26" height="5.81" style="fill:#263238; stroke:#263238; stroke-linecap:round; stroke-linejoin:round;"></rect><rect x="74.77" y="407.05" width="28.58" height="34.69" style="fill:#263238; stroke:#263238; stroke-linecap:round; stroke-linejoin:round;"></rect></g></g></svg>
