<svg xmlns="http://www.w3.org/2000/svg" viewBox="0 0 500 500"><g id="freepik--Characters--inject-94"><g id="freepik--Couple--inject-94"><g id="freepik--Bottom--inject-94"><path d="M309.35,382.44c.08-3.12-4.2-5.06-6.4-6.66a20.91,20.91,0,0,1-6.61-7.18c-5.2-8.84-12-23.65-14.19-28.19-2.26-4.72-4.42-8.11-12.51-20.69-11.19-17.4-12.95-36.91-12.95-36.91l4.09-76.36c-16,2.07-28.31-.5-36-6.43-1.17,10.73-5.68,24.3-7.57,49.68-1.78,23.8-2.5,36.2-.45,47.92.73,4.18,3,9,7.21,15.09,13.2,19,30.23,38.34,39.68,47.39a195,195,0,0,1,20.81,23.29,20.73,20.73,0,0,1,4,12.15c.16,3.62.11,7.38-2.19,11.75-1.17,2.23-4.21,5.18-3.81,7.71.55,3.42,8.17,3.58,15.2.83,4.83-1.89,7.05-5.79,6.93-8.41-.15-3.12-.42-4.61-.47-8.09a13.15,13.15,0,0,1,1.91-7.81C307.83,387.9,309.25,386.77,309.35,382.44Z" style="fill:#ffbda7"></path><path d="M302.43,375.41c1,1.25-.24,7.5-1.09,11.95s-3,15-4.46,18-5.38,3.75-7.34,3.54a4.28,4.28,0,0,1-3-2.05,54.58,54.58,0,0,0-4.28,5.37c-1.64,2.46-3.76,5.18-.17,6.34s12.56,0,17.1-2.6c4.28-2.42,5.64-4.07,5.89-8.26s-.24-8.87.35-12.15,3.27-7,4-9.44,1.38-4.93-.9-6.75A51.36,51.36,0,0,0,302.43,375.41Z" style="fill:#BA68C8"></path><path d="M310.07,382c.72.88-.12,7.38,4.13,17.55l-1.29.84-6.08-8.74A28.36,28.36,0,0,0,310.07,382Z" style="fill:#BA68C8"></path><g style="opacity:0.15"><path d="M310.07,382c.72.88-.12,7.38,4.13,17.55l-1.29.84-6.08-8.74A28.36,28.36,0,0,0,310.07,382Z"></path></g><path d="M257.64,289a.36.36,0,0,0,0-.1l-.06-.34c-.3-1.54-.5-2.83-.64-3.79,0-.3-.07-.56-.1-.8-.08-.55-.11-.92-.13-1.05v-.06l2.65-49.47.48-9c-12.62-1.53-30.14-.71-30.14-.71,0,8.35,2.1,18.61,13.95,24.38,0,0-.72,41.07-.58,53.07.11,9,3.41,31.71,5,42.4l.08.08c1.2,1.39,2.38,2.72,3.53,4l.89,1,1.25,1.37,1,1.12,1.13,1.21,1.07,1.15,1,1.05,1.12,1.17.86.89,1.2,1.21.67.67c.56.56,1.1,1.09,1.62,1.58l.11.11h0A213.59,213.59,0,0,1,280,377.74l5.27-30.67c-1.37-2.88-2.48-5.26-3.16-6.66-2.08-4.34-4.09-7.58-10.69-17.86-.59-.89-1.2-1.83-1.82-2.83a90.37,90.37,0,0,1-11.81-29.82C257.77,289.57,257.7,289.26,257.64,289Z" style="fill:#f0997a"></path><path d="M295,250.91c1.33-17.78-2.13-33.23-15-50.89-12.82,9.33-43,8.24-55.23,0,0,0-1.56,13.86,3.22,26.26,4.16,10.78,11.63,16.65,19.36,18.93,0,0-.84,49.11-1.28,56s2,31.51,4,47.73c1.78,14.41,3.38,28.49,4.93,43,.92,8.66-.18,16.41-3.27,28.06a41,41,0,0,1-2.7,6.14,13.68,13.68,0,0,1-2,1.76,11.41,11.41,0,0,0-2.46,3c-.5.91-.83,2.16-.11,2.91a2.83,2.83,0,0,0,1.11.59,31.38,31.38,0,0,0,13.84,1.37c2.05-.26,4.23-.82,5.53-2.42a8.22,8.22,0,0,0,1.16-2.19c1-2.66,1.71-5.45,2.73-8.11a19.12,19.12,0,0,1,3.19-5.65c1.39-1.6,2.89-3,4.26-4.68A7,7,0,0,0,278,410a5.15,5.15,0,0,0-.76-3.91c-.57-1-1.05-1.44-2.05-3a11.74,11.74,0,0,1-1.53-2.91c-.4-1.59.44-6.51.7-8.13.56-3.38,1.33-7.16,2-10.53,1.63-8.25,3.17-16.51,4.47-24.82,1.07-6.8,2.29-13.82,2.17-20.73-.15-8.47-2.1-12.6-.83-21.05S293.62,268.68,295,250.91Z" style="fill:#ffbda7"></path><path d="M278.62,409.5c.39,1.07-2.56,6.93-1.93,17.93l-1.49.37-2.84-10.27A28,28,0,0,0,278.62,409.5Z" style="fill:#BA68C8"></path><g style="opacity:0.15"><path d="M278.62,409.5c.39,1.07-2.56,6.93-1.93,17.93l-1.49.37-2.84-10.27A28,28,0,0,0,278.62,409.5Z"></path></g><path d="M273.62,400.16c.63,1.5-2.34,7.14-4.41,11.16s-7,12-9.19,14.45-5.18,2.07-8.2,1.6a6.55,6.55,0,0,1-2.95-1.12s-3,1.77-6.57,3.81c-2.56,1.47-4.78,4.23-1.67,6.35s13.4,2.92,18.49,1.72c4.78-1.12,6.55-2.32,8-6.27s2.26-8.58,3.75-11.56,5.09-5.75,6.48-7.93,2.07-3.51.4-6.19C276.18,403.7,273.62,400.16,273.62,400.16Z" style="fill:#BA68C8"></path></g><g id="freepik--Top--inject-94"><path d="M238.25,125.44a9.91,9.91,0,0,0-2.78,7.41,14.37,14.37,0,0,0,3.21,8.1,27.79,27.79,0,0,0,6.62,5.84c7.31,4.87,15.34,7.11,23.83,8.91A67.56,67.56,0,0,0,281,157.15c2,.07,4,0,6-.05,1.47-.06,2.88.23,4.37.14,5.76-.38,11.33-3.47,12.17-9.63a10.94,10.94,0,0,0-3.29-9.31,9.34,9.34,0,0,0,3.92.51c1.3-.12,2.8-.77,2.95-2.06a4.18,4.18,0,0,1-4.49-2.17,6.14,6.14,0,0,1-.09-5.2c.6-1.47,1.62-2.73,2.31-4.15,2.05-4.21,1-9.33-1.22-13.46-.79-1.46-1.71-2.85-2.48-4.32a7.69,7.69,0,0,1-.73-4.21c.09-3.2.84-6.39.46-9.6-.79-6.56-6.49-13.32-12.86-15a4.73,4.73,0,0,1-1.09-.39,5.41,5.41,0,0,1-1.46-1.55c-2.28-2.93-6.09-4.37-9.8-4.5a28.86,28.86,0,0,0-10.84,2.22A19.51,19.51,0,0,1,258,75.8c-3.58.11-7.28.81-10.22,3A12.5,12.5,0,0,0,243,90.93c.32,1.63,1,3.19,1.23,4.83a5.61,5.61,0,0,1-1,4.71c-1.13,1.23-3.39,1.43-4.36.07a3.06,3.06,0,0,0,2,3.34,8.84,8.84,0,0,0,4.16.37,8.52,8.52,0,0,0-2.94,6.76c.13,2.87,1.74,5.2,1.62,8.06-.14,3.2-2.73,4.13-4.9,5.9C238.59,125.12,238.42,125.28,238.25,125.44Z" style="fill:#263238"></path><path d="M243.14,132c-7.15-1.29-13,.16-21.32,10.9s-17.2,23.45-17.2,23.45L221,176.18l24.65-31Z" style="fill:#ffbda7"></path><path d="M294.89,230c-2.43-10.16-5.67-18-8.91-23s-3.92-5.68-4.29-7.38c-.41-8.48,1.59-8.35,3.73-16.79,0,0-8.29-2.7-7.43-16.33.34-5.36,4.45-14.45,11.34-15.41,0,0-11.54-10.51-17.15-13s-8.52-4.66-19.88-5.38l-9.16-.71s-14.53,12.49-20.94,23.26c-2.6,4.35-5.89,13.23.67,24.1.19,4.21.7,9.8,1.13,14.12h0c.42,4.05-.46,10.75-2.84,19.5s-5.48,29.82-6.41,45.69-.82,21.55-.82,21.55,2.59,7.62,28.3,14.32,45.37-1.62,45.37-1.62,5.3-21.07,7.29-31.11S297.33,240.17,294.89,230Z" style="fill:#BA68C8"></path><path d="M242,180.73s5.09,6.68,16.43,5.07,13.76-10.08,13.76-10.08.41,11-13.14,12.85C245.69,190.42,242,180.73,242,180.73Z" style="fill:#BA68C8"></path><path d="M289.33,151.1c4.57,4.37,12.41,12.43,5.38,26-6.19,11.93-17.29,27.31-21.4,31.21-9.36,8.89-16.28,4.9-20.54-13.21-5-21-5.54-35.65-5.54-35.65L246,147.65s10.2-2,14.55,6.39,7.11,24.45,7.11,24.45L273.65,168S280.38,151.69,289.33,151.1Z" style="fill:#ffbda7"></path><path d="M267.7,178.49c1.13,6,2.27,18.95,1.44,24.65,3.31-9.95.51-28.09.51-28.09Z" style="fill:#f0997a"></path><g id="freepik--Head--inject-94"><path d="M293.87,116.2c-2.24-2.19-5-2.18-7.62,0-2.32,1.91-4.58-.11-2.3-3.65-3.54-8.38,5.08-9,2.51-16.72-1.6-4.82-9.67-7.12-13.27-6.1-.21-2.71-1.6-5.68-5.17-5.94-3.22-.24-5.71.66-8.73,4s-2.12,5.61-4,8.16a26.77,26.77,0,0,0-4,5.72c-5.2,11.31-4.35,16-2.37,19.46a11.94,11.94,0,0,0,5.46,4.6l-2.87,7.5s-4.69,2.43-10.38,14.26a61.75,61.75,0,0,0,16.91.9c10.48-.73,13.82-7.41,13.82-7.41l7.48-14.76c0,1.79,3.14,4.17,7.36,3C292.05,127.66,297.83,120.08,293.87,116.2Z" style="fill:#ffbda7"></path><path d="M256.63,98.35a1.9,1.9,0,0,0,0,.31,2.43,2.43,0,0,0,.18.84,3.21,3.21,0,0,0,.8,1.11,3.83,3.83,0,0,0,2,1,3.1,3.1,0,0,0,1.32-.07c.39-.11.95-.31,1.07-.74a.14.14,0,0,0,0-.11.13.13,0,0,0-.09-.07.91.91,0,0,0-.49,0,3.91,3.91,0,0,1-2.29-.49A3.84,3.84,0,0,1,257.72,99c-.2-.28-.37-.59-.57-.88-.07-.09-.17-.2-.28-.18S256.65,98.16,256.63,98.35Z" style="fill:#263238"></path><path d="M276,107.81a2.4,2.4,0,0,1-1.06.45,3.18,3.18,0,0,1-1.37-.11,3.74,3.74,0,0,1-1.9-1.19,3.11,3.11,0,0,1-.62-1.16c-.11-.39-.23-1,.08-1.3a.16.16,0,0,1,.08-.06.13.13,0,0,1,.12,0,.93.93,0,0,1,.23.44,3.81,3.81,0,0,0,1.6,1.7,3.93,3.93,0,0,0,1.72.59c.35,0,.7,0,1.05,0,.11,0,.25,0,.3.15S276.11,107.69,276,107.81Z" style="fill:#263238"></path><path d="M269.57,100.55l-7.1,11-5-5.42A45.26,45.26,0,0,1,269.57,100.55Z" style="fill:#f0997a"></path><path d="M259.41,93.83l5.12.84a2.48,2.48,0,0,0-2-3A2.71,2.71,0,0,0,259.41,93.83Z" style="fill:#263238"></path><path d="M274.86,99.4l4.11,3.74a2.67,2.67,0,0,0-.09-3.87A2.92,2.92,0,0,0,274.86,99.4Z" style="fill:#263238"></path><path d="M254.39,125.7c8.53,2.57,16.32,2.32,23.6-1.48,0,0-2.49,5-11.83,5.92a37,37,0,0,1-13.05-1.4Z" style="fill:#f0997a"></path></g></g><g id="freepik--bottom--inject-94"><path d="M188.72,422.63s-.05,1.17,0,2.08c0,.61.45,1.54,1.82,2.68,2.37,2,7.77,3.25,12,2.5,3.72-.66,5.13-1.57,7-3.38,2.18-2.07,3.93-4.38,4.82-5.13a23.59,23.59,0,0,1,7.29-3.67c3.56-1.21,10.41-3.62,13.22-8.82s1.52-9.17,1.52-9.17Z" style="fill:#263238"></path><path d="M213.09,397.09c-7.66,2.19-14.79,15-23.63,11.1-.37,5-2,8.28-.74,14.44,3.49,4.93,12.67,6.16,17.84,3.21,2.64-1.83,3.55-3.72,6.11-5.67a24.28,24.28,0,0,1,6.88-3.33,71.63,71.63,0,0,0,8.28-3.61c8.68-5.17,10.78-13.57,6.69-17.8C231.26,392.06,225.2,393.62,213.09,397.09Z" style="fill:#455a64"></path><path d="M216.8,396l1.1-.3a14,14,0,0,1,10.27,4.12c2.89,2.91,3.61,8.88,3.63,10.39l-.26.25s.23,1.26,2.06-1.25a14.56,14.56,0,0,0,3.3-9.39c-.17-3.81-2.48-6.54-7.27-6.54C226,393.31,216.62,395.27,216.8,396Z" style="fill:#f0f0f0"></path><path d="M231.39,442.4a11.09,11.09,0,0,0,.27,2.89,3.42,3.42,0,0,0,2.07,1.26c4.11,1.16,8.44,1.17,12.52,2.3a62.39,62.39,0,0,1,7.93,2.73,52.28,52.28,0,0,0,7.88,3c6,1.48,13.18,1.39,17.6-.4,8.28-3.34,7.79-6,7.7-9S231.39,442.4,231.39,442.4Z" style="fill:#263238"></path><path d="M232.78,422.23c-1.41,6.18-2.94,15.44-1.39,20.17,1.69,1.8,7.4,2.91,12.38,3.66a37.14,37.14,0,0,1,13.17,4.47c9.64,4.36,25.79,3.16,30.16-3.77,2.89-9.91-15.75-10.23-26.67-17.72-2.73-1.88-3.21-3.67-4.05-6.65C256.38,422.39,239.17,423.75,232.78,422.23Z" style="fill:#455a64"></path><path d="M263,452.41c-1-2-1.91-7.88,1.8-12.11s9-5.18,11.28-4.72c2.7.57,7.72,2.81,9.78,5s3,5.77-.46,8.53S275,454.82,263,452.41Z" style="fill:#f0f0f0"></path><path d="M188.53,345.54c.48-12.94,5.12-23.73,4.85-30.87-.5-13.71,0-22.83-1.32-34.21-1.44-12.11-2.06-22.16-1.69-30.77s1.74-15.76,2.68-26.58c0,0,66.68-5.61,68.57,19.58s1.47,89.5.87,100.6c-.27,11.24-4.78,73.42-4.78,81.34-11.34,8.6-25.87,2-25.87,2-2.23-28.12-7.94-45.69-3.44-70.64l-3.68-36.64s-9.24,67.33-12.83,88.56c-5.65,8.06-19.89,5.33-22.56.46C189.18,382.35,187.94,361.26,188.53,345.54Z" style="fill:#37474f"></path><path d="M224.72,319.32,221,277.25a36.27,36.27,0,0,1-19.73-12.07c2.29,8.09,11.39,15.11,17.15,17.08l2.42,28.53-.44,39.5Z" style="fill:#263238"></path></g><g id="freepik--top--inject-94"><path d="M200.06,130.24c-7.63.64-14.49,3-18.47,8.59S178,151,178,166.41s-.05,24.51,1.79,30.74a14.19,14.19,0,0,0,7,8.82c4.16,2.05,5,2.14,12.69,3.48Z" style="fill:#455a64"></path><path d="M212,128.49c6.57,1.1,26.15,11.91,42.94,27.77,1.6,1.52,4.73,7.62,5.93,24s1.7,62.91,1.7,62.91-19.28,14.38-49,2c-11.85-4.93-21.22-15.14-21.22-15.14a170.67,170.67,0,0,0-1.37-35.46c-2.12-14.05-6.23-27.59-6.26-38.77,0-14,3.1-21.2,9.2-23.59C201.77,129.15,212,128.49,212,128.49Z" style="fill:#f0f0f0"></path><path d="M277.56,202.34c2.76-2,10.43-13.77,10.43-13.77a42.38,42.38,0,0,0,2.69,5.87,5.75,5.75,0,0,1,.89,1.72c.3,1.19-.18,2.51.24,3.67.28.74.89,1.31,1.14,2A4.38,4.38,0,0,1,293,204c-.31,2.24-.82,4.45-1.32,6.65a4.2,4.2,0,0,1-.54,1.47,3.66,3.66,0,0,1-.8.77c-1.51,1.17-7.88,5.52-7.86,5.57-.5-1.75-1-3.5-1.49-5.26S277.28,202.54,277.56,202.34Z" style="fill:#c8856a"></path><path d="M254.81,156.17c4.42,3.4,6.79,6.59,8,13.15s4.25,39,4.25,39l11.08-6.52a23.88,23.88,0,0,1,6.95,16.65c-10.35,8.42-20.24,15.19-29.2,18.13-6.16,2-10.44-4.39-12-14.49s-4.86-36.22-4.66-43S241.52,161.11,254.81,156.17Z" style="fill:#455a64"></path><path d="M267.06,208.28c1.55,8.74-1.13,14.09-1.13,14.09a22.82,22.82,0,0,0,3.34-15.23Z" style="fill:#37474f"></path><path d="M260.11,96.46c.88,1.61,2.06,3.13,3.32,11.79l-4,1.89Z" style="fill:#af6152"></path><path d="M207.24,129c.94,1.91,6.2,5.21,14.51,8.32a93.09,93.09,0,0,0,15.14,4.3s-1-1.12.25-5a42.16,42.16,0,0,1,3-6.86l2-4a22.36,22.36,0,0,0,3.52,1.09c3.16.61,7.29,1.17,9.66-1.73,2.94-3.58,4.87-9.78,5.35-17.22.47-7.23-.1-6.86,1.21-12,1.37-5.39-.13-8.12-2.59-15.56s-17.58-15.48-32.47-12-19.56,14.25-19.91,21.76,5.22,16.44,6.75,22.35c.7,2.69,0,6.48-2,10.67C210,126.71,209.71,128.46,207.24,129Z" style="fill:#c8856a"></path><path d="M242.45,95.8a9.85,9.85,0,0,0-2.47.5,6,6,0,0,0-2.79,1.88c-1.19,1.51-1.36,3.58-1.38,5.51a11.86,11.86,0,0,0,.11,2.06,5.25,5.25,0,0,0,3.27,4.1,4.47,4.47,0,0,0,1.89.2c.14,0,.34,0,.32.17a.21.21,0,0,1-.11.12,2.81,2.81,0,0,1-1.2.44,6.06,6.06,0,0,1-4.9-1.51,8.54,8.54,0,0,1-2.59-4.52,13.46,13.46,0,0,1-.23-4.15,15.94,15.94,0,0,1,.41-3.3,8.91,8.91,0,0,1,3.78-4.76,3.63,3.63,0,0,1,4.43,0,6.37,6.37,0,0,1,1.17,1.62,9.82,9.82,0,0,0,.78.8c.18.21.46.51.39.81C243,95.75,242.74,95.77,242.45,95.8Z" style="fill:#af6152"></path><path d="M261.93,89.11c-.33-2.11-4.69-5.42-5.78-2.4s-1.72,7.76-3.48,9.89-3.47,1.39-4.12,4.64-2,2.77-3.05,2.33c-.71-.3-.75-.35-1.05-4.06s-2.61-5-5-4.54c-3.46.66-4.82,3-5.22,6.55-.6,5.35.83,7.65,1.74,8.36-.49,1.68-2.78,7.89-6.45,10.45a17.7,17.7,0,0,1-10.48-1c-3.77-1.44-4.16-1.69-5.4-3.14-.94-4.41-3.2-10.27-4.73-14.77-1.7-5-3-9-1.9-16.29.94-6.27,4.71-11.44,9.94-13.46,4.4-8.66,15.83-11.76,26.36-9.15a30.18,30.18,0,0,1,18.84,13.65c3.05,4.68,7.49,7.49,9.31,8.08s-2.06,3.68-5.86,3c2.55,3.25.1,6.48-3.25,5.58A7.63,7.63,0,0,0,261.93,89.11Z" style="fill:#37474f"></path><path d="M255.14,125.32c-1,.76-4.2,1.15-6.65.25a48.44,48.44,0,0,1-5.09-2.27l-1.25,2.45a22.36,22.36,0,0,0,3.52,1.09C248.74,127.43,252.74,128,255.14,125.32Z" style="fill:#af6152"></path></g><g id="freepik--Hand--inject-94"><path id="freepik--hand--inject-94" d="M258.65,148.45c-.33-.6-2.13-3.15-3.41-4.87a10.47,10.47,0,0,0-3.89-3.19l-5-2.68a17.48,17.48,0,0,0-3.49-1.54,17.3,17.3,0,0,0-3.38-.46l-7.31-.52c-2.29-.16-4.55-.65-6.86-.74a1.31,1.31,0,0,0-.65.09,1,1,0,0,0-.41.93,3,3,0,0,0,1.49,2.35,6.33,6.33,0,0,0,1.34.64,4.54,4.54,0,0,1,1.41.49l-2.62.26a8,8,0,0,0-2.5.29c-1.35.71,1.27,2.46,1.92,2.7a6.85,6.85,0,0,0,1.67.32l7.18.75-5.74,2.32a.77.77,0,0,0-.39.26c-.18.27,0,.62.23.85a5.31,5.31,0,0,0,4.06,1.42,32.55,32.55,0,0,0,5.63-.91,18.12,18.12,0,0,1,5.74-.22.46.46,0,0,1,.38.16c.12.21-.12.43-.34.54a31.11,31.11,0,0,1-3.51,1.37,40.09,40.09,0,0,0-4.64,2.31,10.37,10.37,0,0,0-2.76,1.95.91.91,0,0,0-.21.35c-.12.49.57,1.06.95,1.25a3.42,3.42,0,0,0,2.19.08c3-.7,6-1.74,9.13-1.5,1.44.12,2.79.59,4.23.76a16.94,16.94,0,0,1,4.94,1.47,12.28,12.28,0,0,1,2.95,2.22l5.53.4C261.34,155.22,260.26,151.33,258.65,148.45Z" style="fill:#ffbda7"></path><path d="M240.59,138.29c-2.69-.42-11.13-.16-11.13-.16l-3.12,0c.23.11.46.2.7.29a4.54,4.54,0,0,1,1.41.49l8.57-.19a17.84,17.84,0,0,1,5.18.42c2,.51,2.46.63,4.18,1.12A22.71,22.71,0,0,0,240.59,138.29Z" style="fill:#f0997a"></path><path d="M243.85,142a27.37,27.37,0,0,0-7.11-.21,27.23,27.23,0,0,1-4.93.66c-2.75.08-5,.05-5.32,0l.43.06,7.18.75a9.77,9.77,0,0,1,3.54-.89,47.54,47.54,0,0,1,5.34,0c1.77.08,4.81,1.72,4.81,1.72A19.76,19.76,0,0,0,243.85,142Z" style="fill:#f0997a"></path></g><g id="freepik--hand--inject-94"><path id="freepik--hand--inject-94" d="M193.31,132.48a15.12,15.12,0,0,1,1.72.58l4.05,1.6c.86.34,1.76.6,2.6,1a9.31,9.31,0,0,1,3.13,2.55,10,10,0,0,0,1.69,1.74,2.94,2.94,0,0,0,1.56.57c.38,0,1.05-.07,1.06-.59a.9.9,0,0,0-.09-.32,45.49,45.49,0,0,0-2.29-4.58,4.7,4.7,0,0,0-.61-.87,6.53,6.53,0,0,0-.77-.62c-.33-.25-.63-.52-.94-.79a.28.28,0,0,1-.09-.1.19.19,0,0,1,.11-.22,2.74,2.74,0,0,1,1.27,0c.44,0,.88.11,1.32.18.89.14,1.77.33,2.65.5a16.18,16.18,0,0,0,5.28.39,4.11,4.11,0,0,0,1.2-.33c.44-.22,1.22-.88.76-1.41a1.46,1.46,0,0,0-.58-.36,28.13,28.13,0,0,0-3.64-1.29l-3.7-.85,3.92-.1c1.09,0,2.72,0,3.33-.09a6,6,0,0,0,1.92-.44,1.47,1.47,0,0,0,.9-1.7c-.13-.41-.64-.55-1.07-.62-2.06-.34-4.14-.41-6.2-.72a27.8,27.8,0,0,0-6.18-.29,8.11,8.11,0,0,0-2.88.65c-.68.33-1.27.8-2,1.1a21,21,0,0,1-2.62.69,22.78,22.78,0,0,0-2.35.85c-.38.16-.77.32-1.17.45s-.74.28-1.11.41a13.63,13.63,0,0,0-2.6,1.2,6.74,6.74,0,0,0-2.43,2.46C190.86,132.53,192.42,132.25,193.31,132.48Z" style="fill:#ffbda7"></path><path d="M209,129.27a22,22,0,0,0-4.15-1,10.36,10.36,0,0,1,3.67.41c.91.24,1.82.54,1.82.54Z" style="fill:#f0997a"></path></g></g></g><g id="freepik--Hearts--inject-94"><g id="freepik--hearts--inject-94"><path d="M161.3,139s-7.8-4-9.88.74c-1.33,3,2,7,6.79,7.42a55.39,55.39,0,0,0,10.12-.17s2.18-8.66.91-13.05-5-3.9-6.94-1.34C160.46,135,161.3,139,161.3,139Z" style="fill:#BA68C8"></path><path d="M161.3,139s-7.8-4-9.88.74c-1.33,3,2,7,6.79,7.42a55.39,55.39,0,0,0,10.12-.17s2.18-8.66.91-13.05-5-3.9-6.94-1.34C160.46,135,161.3,139,161.3,139Z" style="fill:#fff;opacity:0.5"></path><path d="M157.94,111.47s-2.28-1.72-4.39-.75-2,2.85.35,4.18c2.14,1.2,7.08.25,7.08.25s1.8-4,1.14-6.35-2.78-3.3-4.07-1.53A3.9,3.9,0,0,0,157.94,111.47Z" style="fill:#BA68C8"></path><path d="M330.45,144.92s1.12-6.49-3-9.58-7.77-.77-8,5.45c-.23,5.62,6.72,14.35,6.72,14.35s9.85-.95,13.94-4.94,3.79-9.29-1.09-9.84C333.39,139.74,330.45,144.92,330.45,144.92Z" style="fill:#BA68C8"></path><path d="M178.51,115.48c-1.52-3.09-7.63-4-8,.39-.42,4.61,7.17,6.75,10.39,7.31.46.08.76-.47.23-.6-3-.74-6.23-1.54-8.41-3.81-1.36-1.41-2.16-3.82.08-5,2-1.06,4.16.48,5.45,1.85.12.13.39.12.28-.11Z" style="fill:#455a64"></path><path d="M178.6,115.8a5.59,5.59,0,0,1,1.9-3.88c2.2-2,5.42-.68,5.15,2.35-.31,3.43-3.14,5.86-5,8.49-.3.43.53.6.78.29,2.05-2.54,7.78-8.6,3.93-12a3.88,3.88,0,0,0-5.12.1c-1.19.94-2.7,3-2.06,4.6.06.14.4.29.4,0Z" style="fill:#455a64"></path><path d="M316.76,165.2c1.1-3.28-2.58-8.24-6-5.37s.35,9.84,2.25,12.51c.26.38.86.2.58-.27-1.58-2.6-3.35-5.48-3.3-8.63,0-1.95,1.15-4.22,3.6-3.51,2.13.62,2.62,3.27,2.57,5.15,0,.17.19.36.27.12Z" style="fill:#455a64"></path><path d="M316.61,165.48a5.56,5.56,0,0,1,4.08-1.42c3,.11,4.33,3.33,2,5.3-2.63,2.21-6.35,1.95-9.51,2.53-.51.1-.05.8.36.75,3.23-.36,11.57-.64,11.22-5.76a3.9,3.9,0,0,0-3.72-3.53c-1.5-.16-4,.26-4.69,1.82-.06.14.08.49.26.31Z" style="fill:#455a64"></path></g></g><g id="freepik--speech-bubble--inject-94"><g id="freepik--speech-bubble--inject-94"><g id="freepik--speech-bubble--inject-94"><path d="M296.86,75,299.48,70l-2.11-6.09V60.21l6.46,3.73v3.73l-2.78,4.81a.42.42,0,0,1-.18.17h0Z" style="fill:#BA68C8"></path><path d="M296.86,75,299.48,70l-2.11-6.09V60.21l6.46,3.73v3.73l-2.78,4.81a.42.42,0,0,1-.18.17h0Z" style="opacity:0.2"></path><path d="M282.29,31a4.29,4.29,0,0,1,1.94-3.35l1.57-.91a4.28,4.28,0,0,1,3.88,0l24.19,14a4.29,4.29,0,0,1,1.94,3.36V70.75a4.29,4.29,0,0,1-1.94,3.35l-1.58.91a4.26,4.26,0,0,1-3.87,0l-8.65-5L297,74.82a.41.41,0,0,1-.75-.07l-2.93-8.46L284.23,61a4.29,4.29,0,0,1-1.94-3.36Z" style="fill:#BA68C8"></path><path d="M315.81,70.75a4.29,4.29,0,0,1-1.94,3.35l-1.58.91a4.32,4.32,0,0,1-3.54.16c.91.34,1.61-.17,1.61-1.28V47.27a4,4,0,0,0-.57-1.91l5.45-3.14a3.94,3.94,0,0,1,.57,1.91Z" style="opacity:0.2"></path><path d="M282.35,30.49c.23-.82,1-1.08,1.87-.57l24.2,14a3.92,3.92,0,0,1,1.37,1.45l5.45-3.15a4.08,4.08,0,0,0-1.37-1.45l-24.19-14a4.26,4.26,0,0,0-3.87,0l-1.59.91A4.3,4.3,0,0,0,282.35,30.49Z" style="fill:#fff;opacity:0.30000000000000004"></path></g><path d="M303.63,54.42a11.21,11.21,0,0,0-.91-4.33h0v0A7.54,7.54,0,0,0,300,46.54c-1.88-1.11-3.46,1.16-3.7,3.83-.23-2.95-1.76-7-3.64-8.14a2.05,2.05,0,0,0-2.77.29l0,0h0a4.89,4.89,0,0,0-.95,3.24c0,4.51,2.67,8.59,4.92,12.88l2.44,4.14,2.35-1.34C300.88,59.84,303.6,58.93,303.63,54.42Z" style="fill:#fafafa"></path></g></g></svg>
