<svg xmlns="http://www.w3.org/2000/svg" viewBox="0 0 500 500"><g id="freepik--background-complete--inject-4"><path d="M51.38,235.44c0-.06,0-.14,0-.18l.72-.88c.08.25.15.49.24.76l.44-.2c-.13-.19-.14-.41-.42-.36-.08,0-.18-.12-.27-.18a1.07,1.07,0,0,1-.41-1.39,10.19,10.19,0,0,1,1.38-2.66c.37-.59.78-1.16,1.14-1.75s.56-1,.88-1.55a4.81,4.81,0,0,0,.9-1.72.92.92,0,0,1,.5-.62A3.26,3.26,0,0,0,58,223.3c.59-.85,1.14-1.72,1.7-2.59a.8.8,0,0,1,.63-.47c.44-.06.55-.33.31-.73a.41.41,0,0,1,0-.48l.64-1.22.53.08c0,.25.05.5.1.74a.79.79,0,0,0,.17.45.45.45,0,0,0,.4-.13.86.86,0,0,0,0-.55c-.15-.34-.38-.64-.53-1A.46.46,0,0,1,62,217a5.64,5.64,0,0,1,.56-.53,7.3,7.3,0,0,0,.82.23.5.5,0,0,0,.41-.14c.06-.09,0-.29,0-.42a1.06,1.06,0,0,1,.18-1.32,1.29,1.29,0,0,0,.19-.37l.44.08c0,.11,0,.22,0,.42l.54-.21-.31-.46-.2.26a3.79,3.79,0,0,0-.3-.4c-.44-.42-.49-.72-.16-1.19.8-1.16,1.59-2.34,2.42-3.47s1.67-2.16,2.5-3.24l.24-.25.69.26c0,.26,0,.56.08.86,0,.1.1.28.14.28a.92.92,0,0,0,.41-.17.26.26,0,0,0,0-.27c-.31-.29-.21-.77-.54-1.09a.56.56,0,0,0,0-.92l.32-.45,2.83-3.83a36.5,36.5,0,0,1,3.7-4.43,20.94,20.94,0,0,0,1.74-2A12.56,12.56,0,0,1,82.05,191a2.19,2.19,0,0,0,.39-.36c.18-.21.18-.22.56-.25,0-.25.38-.37.27-.7,0,0,.12-.14.2-.19.42-.26.84-.52,1.27-.77a1.62,1.62,0,0,1,.38-.09.32.32,0,0,0,.18-.1c.26-.39.71-.47,1.09-.65.11,0,.27,0,.4,0l1,.17a.87.87,0,0,1,1.17-.73,13.92,13.92,0,0,0,2,.07c2,.11,3.92.18,5.89.29.83,0,1.66.12,2.48.21a1.73,1.73,0,0,1,.58.28c.39.23.76.49,1.15.72a1,1,0,0,0,.4.11c.33,0,.48-.21.29-.49s-.06-.77-.09-1.14c0-.18.3-.38.49-.59l.35.12c.17.29.17.29.49.12l-.23-.31-.27.21a2.28,2.28,0,0,0-.15-.36c-.06-.1-.22,0-.26-.26s-.09-.55.11-.77a26.06,26.06,0,0,1,2.11-2.34,27,27,0,0,1,3-2.32,5.91,5.91,0,0,1,2.72-1.12c.39,0,.77-.18,1.16-.24a2.68,2.68,0,0,1,.62.07,1,1,0,0,0,.24,0c.32-.08.63-.17.87.25a.7.7,0,0,1,.75-.35,10.46,10.46,0,0,0,2.37-.15,11.38,11.38,0,0,1,1.84,0,1.83,1.83,0,0,0,.52,0,2.91,2.91,0,0,1,1.46.17c1.48.51,3,1,4.46,1.5a4.65,4.65,0,0,1,.71.41,5,5,0,0,0,.56.3c.22.09.45.15.67.23,0,.13,0,.25,0,.43l1-.2.28.41,2.16.41-1,.69,0,.09a6.55,6.55,0,0,0,.79-.22.46.46,0,0,1,.58.13c.22.22.61.28.6.73,0,.11.45.35.49.31.35-.35.65.06,1,0,.27-.39.5-.39.92,0a.78.78,0,0,1,.87-.12c.08,0,.2.05.21.1.13.51.62.68,1,1l-.51.28.73.7-.52.16.57.18-.45,2c-.05.21-.24.43.08.62.06,0,0,.26,0,.4s0,.34,0,.56c.48-.21.25-.7.53-.93l.24.21a3.07,3.07,0,0,0,.08-2.13,1.28,1.28,0,0,1,.18-1.28c.25-.28.09-.59,0-.95.53.3.83.88,1.53.66l-.13.64a4.17,4.17,0,0,0,.88-.27.52.52,0,0,1,.64.06c-.1.2-.2.38-.3.56-.26-.18-.45-.09-.56.17,0,.06.05.23.13.27s.33-.05.43-.4c0,0,0,0,0-.06l.31,0,.31-.43a1.07,1.07,0,0,1,1,.58c.2.44-.31.47-.49.83a3.68,3.68,0,0,1,1.06-.24,3.37,3.37,0,0,1,1,.41c-.23.72.49.63.77,1.06.06-.19.08-.28.12-.41l.69.15.14-.33h.68a7.69,7.69,0,0,1,0,1.66,21.14,21.14,0,0,0-.44,2.4c-.09.44-.2.87-.3,1.31l.11.06c.08-.09.19-.17.21-.27a16.76,16.76,0,0,0,.76-3.35,3.09,3.09,0,0,1,.15-.6l.62.2-.2-.44.07-.08a6.45,6.45,0,0,1,.82.54.5.5,0,0,1,.14.41c-.06.45-.15.9-.25,1.34-.17.71-.37,1.41-.55,2.12a.65.65,0,0,0,.07.44c.69-1,.68-2.32,1.22-3.4-.08,1.15-.34,2.27-.48,3.42a1.22,1.22,0,0,0,.48-1c0-.36.15-.67.21-1,.1-.5.12-1,.18-1.56l.8-.43.78,0A1.63,1.63,0,0,1,150,191a2.4,2.4,0,0,0,.89.44,11.28,11.28,0,0,1,1.48.73c.17.09.34.2.52.28l4,1.65a1.72,1.72,0,0,0,.55.19,2.67,2.67,0,0,1,1.39.48c.22.15.53.19.74.35.48.36.93.78,1.42,1.19l-.35.3c.05.25.22.28.41.29s.44,0,.65,0c.43.07.57.26.57.72a.74.74,0,0,0,.43.72,2.44,2.44,0,0,0,.9.29.81.81,0,0,1,.74.58c.23.53.4.63.94.58a.71.71,0,0,1,.43.1c.3.22.57.47.88.74a1.52,1.52,0,0,0-.21.18s0,.09,0,.1c.35.19.68.41,1,.57s.57.34.46.76c0,.06,0,.14,0,.18a1.56,1.56,0,0,1,.42,1.27c.26.16.1.42.1.67a1.63,1.63,0,0,0,.36,0,.59.59,0,0,1,.75.32c.1.21.29.16.46.15s.46,0,.49.23a.73.73,0,0,1-.21.51,11.1,11.1,0,0,1-1.24,1,.77.77,0,0,0-.36.69.75.75,0,0,1-.25.63c-.16.18-.28.39-.45.55a11.28,11.28,0,0,1-1,.83c-.3.23-.66.37-.95.61a3.32,3.32,0,0,1-1.26.63,3.69,3.69,0,0,0-.95.48.81.81,0,0,1-.95,0,.57.57,0,0,0-.7,0c-.55.37-1.12.7-1.66,1.06-.21.14-.39.34-.59.5a1.75,1.75,0,0,1-1.59.6.6.6,0,0,0-.35,0,1.25,1.25,0,0,1-1.45-.38c-.54-.61-1.22-.32-1.85-.33-.08,0-.17.15-.23.25a1.74,1.74,0,0,1-1.69.8,61.66,61.66,0,0,1-8.58-.92,25.3,25.3,0,0,0-4.9-.57,32.27,32.27,0,0,1-4.25-.33c.4-1,.78-2,1.16-2.92-.28,0-.31.23-.39.39-.36.68-.72,1.37-1.06,2.06a.63.63,0,0,1-.7.41,17.49,17.49,0,0,0-4.33.3l-5.49.79-.49,0c.32-.61.84-1.06.68-1.87-.21.3-.37.55-.55.78s-.4.49-.65.8c0-.24-.07-.4-.11-.57-.06,0-.1,0-.11,0-.08.26-.15.53-.23.79a1.26,1.26,0,0,1-.8-1.23,13.06,13.06,0,0,0-.11-1.65,4.6,4.6,0,0,0-.33-.81,2.43,2.43,0,0,0-.15,1.18,11.42,11.42,0,0,1,0,1.31c-.08.62-.24.72-.88.68-.19,0-.39,0-.6-.07a1.92,1.92,0,0,0-.18.22,1.9,1.9,0,0,1-1.51.93,2.72,2.72,0,0,1-2-.43l-1-.77a8.67,8.67,0,0,1-2.83,1.09,6.88,6.88,0,0,0-3.34,1.85,3.18,3.18,0,0,1-2.32,1.08,2.7,2.7,0,0,1-1.09-.23,3.56,3.56,0,0,1-2.12-2.38.88.88,0,0,0-.24,0,1.34,1.34,0,0,0-.25.12c.13.3.27.59.39.88.31.76.11,1.2-.69,1.35a7.92,7.92,0,0,1-1.54.1,2.33,2.33,0,0,1-1.68-.79L99,214.9a1.91,1.91,0,0,1-.19,1.46c0,.08,0,.23,0,.35a1.06,1.06,0,0,1-1.41,1.06c-.12,0-.2-.21-.3-.33l-.11.27-.86-.61c0,.19-.06.32-.06.45a1.34,1.34,0,0,1-.39,1.09,1.14,1.14,0,0,0-.21.41A1.42,1.42,0,0,1,94,220a.61.61,0,0,0-.41.15,2.17,2.17,0,0,1-1.53.53,5.31,5.31,0,0,1-2.44-.64c-.32-.15-.65-.26-1-.39l-.07.13A7.27,7.27,0,0,1,89.67,221a7.45,7.45,0,0,1,.56,1.45c-.27.39-.48.71-.71,1A4,4,0,0,1,89,224c-.83.68-1.69,1.33-2.5,2a9.38,9.38,0,0,1-2.78,1.59,4.3,4.3,0,0,0-.76.34,1.32,1.32,0,0,0-.43.45c-.32.62-.6,1.26-.93,1.87a1.35,1.35,0,0,1-.47.51c-.51.34-1,.64-1.59.94a2,2,0,0,0-.76.65,2.77,2.77,0,0,1-2,1.26,2.9,2.9,0,0,0-1.72,1,20.81,20.81,0,0,1-3.65,3c-.78.5-1.6.94-2.36,1.48a2.25,2.25,0,0,1-.77.3,9.78,9.78,0,0,0-2.44.94,3.35,3.35,0,0,1-.89.31c-.93.2-1.87.38-2.81.56a8.35,8.35,0,0,1-1.2.2,1.49,1.49,0,0,1-.74-.17,2.45,2.45,0,0,0-1.38-.25,11.53,11.53,0,0,1-1.31.09,1.73,1.73,0,0,1-1.66-.84c-.41-.72-.94-1.37-1.5-2.17a1.79,1.79,0,0,0-.07.46.92.92,0,0,0,.18.3c.26.33.54.64.77,1s.38.69.59,1.07c-.24.11-.39,0-.54-.18-.35-.35-.7-.7-1.06-1a5.5,5.5,0,0,0-.5-.35c0,.48.35.6.51.82s.4.43.61.66c-.49.18-.78.1-1-.29-.11-.21-.2-.44-.29-.66-.35-.9-.45-1-1.38-.78a1.76,1.76,0,0,1-.2-.54c0-.62-.49-.86-1-1.06a3.24,3.24,0,0,1-.33-.13c-.24-.14-.28-.33,0-.56a4.48,4.48,0,0,0,.55.1c.29,0,.49-.25.32-.45s-.18-.67-.17-1Zm19.17-18.28a.77.77,0,0,0,.38.78l-.38-.78-.4-.69-.12.08C70.21,216.75,70.1,217.15,70.55,217.16Zm27.56-5.79.06.57.08,0c0-.18-.09-.37-.14-.55l-.38-.9C97.79,210.8,97.75,211.18,98.11,211.37ZM60.27,240.53a1.13,1.13,0,0,0-.75-.72l-.26-.62.58.35s.06,0,.1-.06l-.15-.45.11-.07c.08.11.23.21.24.32.07.69.57,1,1.09,1.29a1,1,0,0,0,.38,0c.07.16.15.28.38.11l-.4-.09c-.13-.16-.24-.38-.41-.47a2.88,2.88,0,0,1-1.1-1.3c-.24-.48-.43-1-.64-1.46s-.56-1.26-.85-1.89c0-.1-.14-.17-.23-.29a1.12,1.12,0,0,0,0,.84c0,.27.31.5.16.87a2,2,0,0,1-.29-.28c-.48-.66-1-1.31-1.41-2a2,2,0,0,0-.74-.76,3.17,3.17,0,0,0,.08.81A7.72,7.72,0,0,0,57,236.6a1.32,1.32,0,0,1,.37,1.39c.12.1.2.22.3.24a1.74,1.74,0,0,1,1,.7c.27.3.58.57.87.86l.75.73a1.91,1.91,0,0,0,.73.63l.09-.13Zm80.48-37.66c.42-.19.49-.63.68-1a1.3,1.3,0,0,0-.67,1c-.36.18-.43.55-.54.88A1.09,1.09,0,0,0,140.75,202.87Zm12.72.56c.13-.11.32-.18.38-.32.53-1.07,1-2.14,1.54-3.22a.8.8,0,0,0,0-.27,1.1,1.1,0,0,0-.35.47,2,2,0,0,1-.29.59,3.66,3.66,0,0,0-.78,1.5c-.16.42-.35.83-.53,1.24.16.24,0,.41-.13.59-.31.67-.63,1.33-1,2.07a6.07,6.07,0,0,0,1.66-2.76ZM76.53,219.51c-.16.1-.31.18-.48,0s-.58-.54-.88-.8l-1.07-.9a7.29,7.29,0,0,0,1.06,1.91,14.3,14.3,0,0,1-1.5-.38.78.78,0,0,1-.33-.24,8.59,8.59,0,0,1-.53-.73c0-.07.11-.18.18-.3a14.29,14.29,0,0,1-3.3-3.82,1.22,1.22,0,0,1-.06.28c-.16.29.19.67-.16.92l.35.73.13-.29a27.19,27.19,0,0,1,3,3.07c0,.1-.06.23-.09.36a5.36,5.36,0,0,0,1.79,1c.24.11.47.28.78.11a.55.55,0,0,1,.5.11,12.39,12.39,0,0,1,1.26,1.25c.29.34.45.79.75,1.13A8.28,8.28,0,0,0,80,224.62a.88.88,0,0,0,.34,0c-.28-.76-1.18-.94-1.41-1.72a1.63,1.63,0,0,1,1.07.52,2.78,2.78,0,0,0,.43.41c.63.43,1.28.85,2,1.29l.5-.49a8.22,8.22,0,0,1-2.85-1.48,23,23,0,0,1-1.82-1.61,3.46,3.46,0,0,1-.51-.57c-.13-.18-.07-.33.15-.43l.74.68a6,6,0,0,0,.68.66c.24.19.37.55.83.63a2.13,2.13,0,0,0-.23-.46c-.31-.35-.65-.69-1-1a4.8,4.8,0,0,1-1.23-1.55c-.39.27-.18.56-.06.83l-.29.22a1.49,1.49,0,0,1-.84-1.06c.15-.11.15-.11,0-.29Zm53.14-10.36.14.08a2.56,2.56,0,0,0,.39-.42c.35-.55.69-1.12,1-1.7a3.33,3.33,0,0,0,.21-.72,4.15,4.15,0,0,1,.32-1.07,12.26,12.26,0,0,0,1.05-2.58,4.28,4.28,0,0,1,.88-1.59,6.66,6.66,0,0,0,1.17-2.75c0-.16.07-.32-.22-.37l-.67,2a.37.37,0,0,1,0-.3c.24-1,.52-2,.73-3.06a2.27,2.27,0,0,0,0-1.1,1,1,0,0,1,0-.73c.21-.49.42-1,.61-1.48a1.8,1.8,0,0,0,.1-.46s-.06-.09-.11-.18l-.2.19-.41-.25a10.54,10.54,0,0,0,0,1.27,1.31,1.31,0,0,1-.25.89c-.15.24-.31.53-.69.44a7.19,7.19,0,0,1-.44,2.68c-.31.86-.69,1.69-1,2.55-.22.61-.43,1.19-1.09,1.42-.2-.4-.57-.35-.94-.4a20.74,20.74,0,0,0-.56,2.74l.82-.34a2.82,2.82,0,0,1,.1.34,5.34,5.34,0,0,1-.2,2.35c-.18.61-.37,1.22-.55,1.83C129.75,208.65,129.72,208.9,129.67,209.15ZM85.6,197l.21,0c.68.06,1-.12,1.17-.79a4.75,4.75,0,0,1,.21-.67c.09-.19.23-.42.4-.47s.69-.39,1,0a.26.26,0,0,0,.22,0c.36-.08.76-.12.94-.52a.57.57,0,0,1,.56-.37c.46,0,.93,0,1.46,0,.06-.19.3-.41,0-.78-.24.45-.62.32-1,.25s-.72.28-.9-.13a2.75,2.75,0,0,0-.77.16,2.24,2.24,0,0,1-2.34.11,2.07,2.07,0,0,0-.43-.2c-.14,0-.39,0-.43,0-.24.44-.7.44-1.05.53l-.17.91c.1.14.23.34.37.53a.44.44,0,0,1,0,.55,1.71,1.71,0,0,1-1.16.91,1.09,1.09,0,0,0-.72.34c-.24.4-.5.29-.94.07l.43,1-.2.48c-.42-.54-.42-.54-.73-.47l1.92,3.24c.31-.16.24-.35.11-.56s-.41-.67-.6-1a.57.57,0,0,1-.06-.65c.23.15.24.5.59.52,0-.39.09-.76.14-1.12l.39-.05c0-.25,0-.46,0-.64l.63-.57.26.15.26.15C85.35,197.38,85.35,197.38,85.6,197Zm68.14.36c-1.11-.72-2-.32-2,.89a1.8,1.8,0,0,1-.45,1.2,1.6,1.6,0,0,0-.29.44c-.28.62-.5,1.26-.82,1.85q-1.11,2-2.31,4a11.37,11.37,0,0,1-1.05,1.31,1.15,1.15,0,0,0,.26.09,2.21,2.21,0,0,0,1.65-.7c.38-.46.77-.91,1.11-1.4a37.9,37.9,0,0,0,2.86-5.28,3.3,3.3,0,0,0,.39-1.81l.44,0Zm-29.36,12.08c.51-1.08,1-2,1.43-3,.51.44,0,1,.12,1.38l.76-.14c.08-.48-.09-1,.38-1.28-.24-1.42-.47-2.81-.69-4.2a3.24,3.24,0,0,1,0-.88c.17-1.06.37-2.11.54-3.16a6.62,6.62,0,0,0-.23-2.93,17.57,17.57,0,0,1-.16,3.16l-.36-.18c0,.15-.09.26-.12.37-.22.9-.44,1.81-.68,2.71-.12.41-.33.81-.45,1.22a2,2,0,0,0-.1,1.22l.36-.35c0,.5.1.91.1,1.32a1.73,1.73,0,0,1-.18.69c-.44,1-.9,2.07-1.35,3.11a1.78,1.78,0,0,0-.07.47c.52-.41.56-1.08,1-1.53-.06.32-.16.62-.23.93S124.05,208.9,124.38,209.39Zm-1.22-21.88c-.21-.28,0-.68-.42-.92,0,.21,0,.35,0,.49.05.55.12,1.1.15,1.66a2.24,2.24,0,0,1-.91,2.16l-.4-.21c-.1.64-.15,1.26-.29,1.86a4.78,4.78,0,0,1-.49,1.45,1.21,1.21,0,0,0-.17,1l.82-.07c.13-1.06.26-2.07.38-3.07a8.09,8.09,0,0,1-.22,3.93c.12-.05.22-.05.24-.1.22-.38.42-.76.61-1.16a2.73,2.73,0,0,1,.69-1.13.88.88,0,0,0,.21-1,1.52,1.52,0,0,1,0-1.2,14.18,14.18,0,0,0,.82-4.91,3.8,3.8,0,0,0-.08-.38c-.46.52-.24,1.11-.39,1.66-.12-.25,0-.55-.34-.7Zm19.3,19.83a3.9,3.9,0,0,1,.28-.51,2.28,2.28,0,0,1,.38-.38,22.75,22.75,0,0,0,3.41-3.79,1,1,0,0,0,.27-.69c-.08-.3,0-.43.19-.62a4.16,4.16,0,0,0,.49-.81.6.6,0,0,0-.28-.88c0-.25,0-.48,0-.71l-.14,0-.3.47c-.12.17-.19.44-.35.52a1,1,0,0,0-.45.52,8.45,8.45,0,0,1-1.71,2.56c-.11.09-.15.28-.22.42l.09,0,.31-.21a24.11,24.11,0,0,0-2.65,4Zm-27.64-1H115l0-5.12h.15a18.84,18.84,0,0,1,.48,4.67,1.11,1.11,0,0,0,.21-.86c-.1-1.21-.21-2.41-.32-3.62-.06-.61-.08-1.23-.2-1.83-.26-1.36-.58-2.72-.87-4.08a.53.53,0,0,0-.6-.49,8.69,8.69,0,0,0-.08,2.69c.13.74.18,1.5.25,2.25a10.79,10.79,0,0,0,.53,3.33,1.86,1.86,0,0,1,.1.58C114.67,204.66,114.74,205.49,114.82,206.31ZM61.53,230.82c.45.36.87.66,1.24,1,.75.68,1.51,1.35,2.2,2.09a5.41,5.41,0,0,0,1.91,1.36,25.73,25.73,0,0,0,2.64.74,1.68,1.68,0,0,0,.5,0c0-.56,0-.57-.39-.66-.21,0-.43-.07-.64-.13a5.21,5.21,0,0,1-1.91-.76c-.7-.55-1.38-1.13-2-1.73a1.31,1.31,0,0,1-.47-1l.4.13a32.25,32.25,0,0,1-2.56-3.61,5.68,5.68,0,0,0-.61-.87h0l-.09.05c.1.67.13,1.37.85,1.76.1.05.23.26.2.33-.16.33.11.45.25.65.52.74,1.4,1.32,1.18,2.42L62.22,231C62,230.85,61.85,230.64,61.53,230.82Zm36.78-27.3a.66.66,0,0,0-.17.71,19.17,19.17,0,0,1,.82,3.6,20.87,20.87,0,0,0,1.21,3.84s0,.06.1.1c.27,0,.44-.09.38-.42s-.15-.82-.22-1.24c-.24-1.46-.49-2.92-.7-4.4A2.29,2.29,0,0,0,98.31,203.52ZM160,204c-.24.09-.45.15-.63.24a4.87,4.87,0,0,0-.6.37c-.16-.84,0-1.16-.87-1.69l-.25.35c-.17-.45-.45-.1-.69-.09-.06-.15-.07-.36-.15-.39-.37-.13-.27-.46-.3-.72a3.05,3.05,0,0,0-2.4,2.23,3.38,3.38,0,0,0,1.55-.26c.34-.12.52-.09.68.2,0,.05.1.06.16.1l.42-.21.33.3c-.05.34-.34.61-.1,1,.54,0,.64-.67,1.12-.81a1.61,1.61,0,0,0,0,.39c0,.12.08.29.17.33a.46.46,0,0,0,.36-.1c.18-.15.33-.35.5-.51s.34-.34.66-.24c0,.3-.08.6-.11.89A1.37,1.37,0,0,0,160,204Zm-47.17-21.83c.15.78.29,1.53.43,2.27.26,0,.28-.15.29-.32s.06-.55.06-.83.26-.53.62-.62c0,.36-.38.59-.19,1l.58-1a7,7,0,0,1,1.15-.16c.49,0,.59-.46,1-.74a.86.86,0,0,0,.51,1,.64.64,0,0,1,.39.59,2.44,2.44,0,0,0,.25.59l.77-1,.24.6c.29-.3.17-.59.07-.86s-.3-.34-.53-.11a4.74,4.74,0,0,0-.38.44c-.19-.3-.36-.55-.52-.81s-.35-.54-.51-.83-.3-.34-.52-.09-.34.42-.53.65c-.4-.89-1-1.06-1.59-.54l-.41-.08c-.15,0-.29-.08-.44-.12C113.35,181.91,113.33,181.93,112.85,182.19ZM99.05,211l.14-.06,0-.29a16.71,16.71,0,0,0-.87-3.63c0-.13-.13-.32-.08-.38.2-.24.05-.44-.06-.59a5.12,5.12,0,0,1-.58-1.36c-.06-.23-.13-.5-.49-.56a6.22,6.22,0,0,1-.12,1,.91.91,0,0,0,.08.67c.31.68.64,1.35.9,2.05s.58,1.72.87,2.59C98.88,210.64,99,210.82,99.05,211Zm44.79-10-.61-.91c-.08.36-.13.62-.2.87s-.18.52-.27.78c0-.53.2-1-.21-1.5a2,2,0,0,0-.14.57,8.3,8.3,0,0,1-.14.87,4.91,4.91,0,0,1-.74,1.67c-.14.2-.26.41.07.62l.36-.3c.39-.33.52-.93,1.1-1.08,0,0,0-.07.06-.1C143.36,201.94,143.61,201.43,143.84,201Zm-80,35.27c-.09-.46-.68-.5-.74-1a4.1,4.1,0,0,0,2.42,1.32,4.23,4.23,0,0,1-.91-.7,7.66,7.66,0,0,0-1-1.09,2.23,2.23,0,0,0-1.3-.66c0,.33-.24.62,0,1s.47.82.67,1.17Zm61-44.38.15.05a1.15,1.15,0,0,0,.32-.78c.21-1.16.42-2.33.62-3.49a7.69,7.69,0,0,0-.09-2.83c0-.16,0-.37-.36-.36,0,.19,0,.36,0,.53a7.21,7.21,0,0,1,.16,1.52c-.12,1.26-.31,2.51-.5,3.76C125.05,190.79,124.91,191.32,124.8,191.85ZM98.31,213.44l.09,0c-.48-1.38-.94-2.76-1.44-4.13a4.38,4.38,0,0,0-.52-.86c-.37.57-.37.57-.15,1,.3.63.59,1.25.91,1.87S97.94,212.72,98.31,213.44ZM57.92,227.87l-.16.08a1.59,1.59,0,0,0,.1.5,10.36,10.36,0,0,0,2.33,3.3,1.33,1.33,0,0,1,.14.19l1.24,1.73c0,.07.12.13.18.2a.31.31,0,0,0,0-.3,24.36,24.36,0,0,0-1.44-2,13.07,13.07,0,0,1-1.78-2.71C58.36,228.51,58.12,228.2,57.92,227.87Zm48.46-43.37a1.52,1.52,0,0,0-.43,1.72c.1.25.09.54.17.81s.2.48.34.82C107.16,186.62,106.72,185.58,106.38,184.5ZM80.21,199.13l-.14.05a4.57,4.57,0,0,0,.31.8c.36.59.76,1.15,1.14,1.73a1.22,1.22,0,0,0,1,.64A17.11,17.11,0,0,0,80.21,199.13Zm24.45-13.2a1.72,1.72,0,0,0-1.13,1.44,4,4,0,0,1,1,0,4.49,4.49,0,0,1,.94.49A9.33,9.33,0,0,0,104.66,185.93Zm7.11-3.41-1.12.45a.62.62,0,0,0,.26.6,2.45,2.45,0,0,1,.5.56c.11.16.2.33.32.52A2.9,2.9,0,0,0,111.77,182.52Zm26.5,26.67c1.29-.8,2.76-3.23,2.64-4.1-.4.7-.78,1.42-1.22,2.1S138.74,208.53,138.27,209.19Zm-9.65-6.42a2.49,2.49,0,0,0,.38,1.7c.24-1,.78-1.77.62-2.79-.1.06-.16.07-.17.09-.08.28-.15.57-.23.89Zm-47.9,19.54.09-.07c0-.05,0-.12,0-.16-.52-.62-1-1.25-1.57-1.86-.34-.39-.69-.76-1-1.14-.17-.18-.34-.34-.55-.07l1.54,1.68ZM69.52,211c.56-.07.67-.27.39-.65,0-.06-.15-.12-.15-.17.09-.46-.36-.66-.5-1-.08-.19-.3-.31-.48-.49-.11.29-.18.5-.27.76l.9.46Zm34.06-21.17c0,.32.08.69.13,1.17.19-.1.39-.14.45-.26s0-.29-.07-.43-.16-.17-.19-.27a2.76,2.76,0,0,0-1-1.41l-.24.73Zm3.34-5.83.46,1.24.71-.13a2.3,2.3,0,0,0-.23-1.21ZM81.08,201.53c-.19-.3-.4-.58-.57-.89-.32-.58-.76-1.12-.56-1.86,0-.05-.1-.12-.23-.29a2.62,2.62,0,0,0,0,.41c.15.65.3,1.3.46,1.95a2.58,2.58,0,0,0,.23.54C80.56,201.68,80.77,201.72,81.08,201.53Zm71.14,3.91a5.43,5.43,0,0,0,.7-2.28,12.54,12.54,0,0,0-1.13,2Zm-39.69-21.63a2.18,2.18,0,0,0,.12-1.73l-.68.44C112.16,183,112.34,183.39,112.53,183.81ZM97.26,213.39a6,6,0,0,0-.94-2.12s-.16,0-.31,0A11.31,11.31,0,0,0,97.26,213.39Zm-20.3-6,.15,0c0-.12.09-.3,0-.37a7.66,7.66,0,0,0-1.28-1.35A3,3,0,0,0,77,207.35Zm-1.33,0a2.24,2.24,0,0,0-.51-1.46c-.14-.19-.3-.24-.51,0C75,206.36,74.89,207.13,75.63,207.39Zm88.37-4.6c-.38.34,0,.76-.15,1.15s-.17.81-.25,1.21l.15,0C164.32,204.44,164,203.6,164,202.79ZM110.46,183.1c-.46.13-.45.13-.44.4a1.85,1.85,0,0,0,.66,1.3C110.6,184.16,110.53,183.66,110.46,183.1Zm-14.09,31a2.43,2.43,0,0,0-1-2.25c.24.42.46.76.62,1.12S96.23,213.71,96.37,214.09ZM128,191.49a3.58,3.58,0,0,0,0-2.52Zm24.11,12.4-.11-.08-1.54,2.13.11.08A8.34,8.34,0,0,0,152.1,203.89Zm2.26-4.34c-.46.31-.55.5-.41.72s.32.17.78-.23ZM124.12,211.2a4.71,4.71,0,0,0,.61-1.73,13.81,13.81,0,0,0-.78,1.26C123.85,210.9,123.86,211.06,124.12,211.2Zm8.16-21.39c.34-.09.46-.29.39-.52s-.13-.35-.37-.27-.4.38-.29.57S132.22,189.76,132.28,189.81Zm-36.37,24.5a1.43,1.43,0,0,0-.84-1.24C95.46,214,95.47,214,95.91,214.31Zm49-16.87.13.09a3.47,3.47,0,0,0,.57-.72c.1-.27.44-.51.24-1Zm-7.44-7.59c-.08,0-.22-.17-.35-.17a.52.52,0,0,0-.38.58.33.33,0,0,0,.42.22C137.39,190.43,137.52,190.21,137.46,189.85Zm-69,38.91A6,6,0,0,0,69.92,230,3.41,3.41,0,0,0,68.43,228.76Zm32.24-20-.16,0c.15.79.31,1.59.46,2.39A24.43,24.43,0,0,0,100.67,208.76ZM160.55,210c.31,0,.48-.24.41-.46a.47.47,0,0,0-.26-.26c-.19,0-.43.3-.36.5S160.5,209.93,160.55,210ZM79.1,219.19a2.23,2.23,0,0,0,1.47,1.2Zm83.77-12.11a1.69,1.69,0,0,0,.53-1.27A2.13,2.13,0,0,0,162.87,207.08Zm-12-.92c-.64.3-.79.47-.89.92C150.51,206.9,150.61,206.81,150.91,206.16Zm-48-17.84-.21-.38c-.55.16-.57.23-.3.72ZM75.93,204.44l-.35.34a1.44,1.44,0,0,0,.74.62C76.21,205.11,76.09,204.82,75.93,204.44Zm22.14,12.38.15,0a2.45,2.45,0,0,0-.4-1.3C97.9,215.93,98,216.37,98.07,216.82Zm63.65-19.29a.55.55,0,0,0-.59-.45c.05.26.09.49.14.71,0,0,.07,0,.12.07Zm-6.63,4.32a1.53,1.53,0,0,0,.59-1.14C155.23,201,155.18,201.42,155.09,201.85ZM68.45,207.9l-.38.39a.86.86,0,0,0,.29.22,1.46,1.46,0,0,0,.41-.07ZM134,185.74c-.11-.26-.19-.57-.59-.42C133.48,185.73,133.75,185.75,134,185.74Zm19,16.39.12.05a1.33,1.33,0,0,0,.32-1.12C153.3,201.47,153.17,201.8,153,202.13Zm2.53-4.39a2.67,2.67,0,0,0,.24-.48s-.18-.16-.2-.14a3.76,3.76,0,0,0-.34.35ZM111,185.22c.42-.19.41-.24,0-1C111,184.62,111,184.88,111,185.22ZM133.43,187c.27.11.44,0,.5-.27a.27.27,0,0,0-.15-.21c-.23,0-.34.14-.39.35A.58.58,0,0,0,133.43,187ZM129,210.21a2.68,2.68,0,0,0-.63,1.12A1.4,1.4,0,0,0,129,210.21Zm-51.46-3.93.14-.07c0-.35-.25-.51-.57-.63C77.25,205.81,77.39,206.05,77.54,206.28Zm59.15-8.73a.79.79,0,0,0,.31-.83A.83.83,0,0,0,136.69,197.55ZM99.24,189.3c-.2-.08-.33-.18-.39-.15a.53.53,0,0,0-.21.29s.15.18.19.16A2,2,0,0,0,99.24,189.3Zm-2.71,26.26.34,1A.88.88,0,0,0,96.53,215.56Zm28.25-22.48c.23-.45.23-.45,0-.86Zm-12.46-12.45a1,1,0,0,0-.13.34c0,.05.13.1.2.14a.87.87,0,0,0,.14-.27C112.54,180.79,112.42,180.72,112.32,180.63Zm50,26.26c-.16,0-.28-.12-.32-.09a1.66,1.66,0,0,0-.22.3c.08,0,.18.13.23.11A1.91,1.91,0,0,0,162.28,206.89Zm-62.75,4.47.19-.06-.26-.7-.12,0C99.4,210.88,99.46,211.12,99.53,211.36Zm44.83-11.13c-.29,0-.35.13-.38.37C144.3,200.65,144.37,200.5,144.36,200.23Zm20.67.84c0,.14,0,.27-.06.49C165.24,201.39,165.29,201.26,165,201.07Zm-81-10.3c-.22,0-.3.18-.18.38a.2.2,0,0,0,.2,0C84.22,191,84.2,190.9,84,190.77ZM108,181.86c-.13,0-.25-.08-.28-.05a.42.42,0,0,0-.12.27s.17.12.2.1A1.11,1.11,0,0,0,108,181.86Zm2.71-1.88c0,.14-.1.22-.09.3s.11.08.17.11a.54.54,0,0,0,.1-.22S110.75,180.07,110.66,180ZM73.28,206.67l-.1.13.49.31C73.59,206.89,73.53,206.66,73.28,206.67Zm35.13-25.83,0-.2c-.18,0-.33.13-.5.26Zm-40.08,48.9,0-.06-.44-.3-.06.09Zm92.07-31.51-.12-.11a1.37,1.37,0,0,0-.2.22s.06.09.1.13ZM66,235.9l.06-.1-.38-.15,0,.08Zm5.29-17,.08-.07-.22-.34-.06,0Zm10.2-16.11-.11.13.4.41.1-.1ZM129.58,204l-.17-.06-.14.5.15,0Zm15.56-13.24v.12h.23s0-.08,0-.08A1.52,1.52,0,0,0,145.14,190.8ZM65.41,216v-.16h-.29v.1Zm45.9-35.63c0-.15.07-.25.09-.35a.15.15,0,0,0-.1,0C111.14,180.09,111.1,180.19,111.31,180.39ZM141,204.65v.15h.25a.63.63,0,0,0,0-.14ZM52,236.22l-.1,0s-.05.09,0,.11a.83.83,0,0,0,.13.14ZM128,192h-.13v.33H128C128,192.17,128,192.06,128,192Zm-3.91-9.83-.07.08a.48.48,0,0,0,.11.09s.06-.06.06-.07Zm-16.37,1.28c.08,0,.16.08.17.07a.35.35,0,0,0,.09-.17s-.1-.08-.12-.07A.63.63,0,0,0,107.76,183.4ZM60.49,232.61l0,0-.15-.2-.06.05ZM162.06,208.5l.12.06.11-.31-.09,0C162.16,208.31,162.11,208.41,162.06,208.5Z" style="fill:#ebebeb"></path><path d="M100.72,231.61c.14-.43.48-.48.83-.52.63-.06,1.26-.11,1.89-.19a.62.62,0,0,1,.74.34,1.63,1.63,0,0,0,.26.27l.66-.5.27.62c.29.74.59,1.48.88,2.21.12.29.24.58-.14.77l.72.86a1.83,1.83,0,0,1,.41,1.33,1.4,1.4,0,0,0,.11.64c.61,1.15,1.24,2.3,1.88,3.47l.51-.19a4.65,4.65,0,0,0-.4-1.63c-.51-1.23-1-2.44-1.56-3.67a6.64,6.64,0,0,1-.41-1.36,3.31,3.31,0,0,0-.43-1.16,3.36,3.36,0,0,1-.5-2.05c.06-.58.26-1,.91-1.16a2.64,2.64,0,0,0,.4-.14c.35.16.16.88.82.69l-.21-1.51a4.8,4.8,0,0,1,1.66-.21,1.23,1.23,0,0,1,.66.37c.31.27.58.59.89.91l.43-.34-.44-1.3,1.74.4c.1-.39.18-.73.28-1.12.44.41.84.25,1.28.05.73-.35,1.49-.64,2.22-1a.84.84,0,0,1,.94.1,3.39,3.39,0,0,1,1.51,2.84,9.69,9.69,0,0,0,.57,2.78c.11.4.47.75.62,1.19a9.66,9.66,0,0,0,.63,1.53q-.48-2.55-1-5.09l0,0c.49,1.9,1,3.8,1.45,5.7a11.43,11.43,0,0,0,2.22,4.24s.07,0,.13.06c0-.45,0-.88,0-1.32a.66.66,0,0,0-.16-.31l-.64-.86a11.94,11.94,0,0,1-2.13-4.93c-.17-1-.31-2-.49-2.94a11.35,11.35,0,0,0-.32-1.14c-.22-.76-.45-1.52-.67-2.29a.4.4,0,0,1,.07-.36.41.41,0,0,1,.37,0c.5.28,1,.58,1.49.87l.46.27c.22-.18.28-.34.08-.55a1.93,1.93,0,0,1-.48-1.61c0-.49.06-1,.09-1.54l3.16,1.67.17-1.36,1.92,1c.28-.13.28-.28.15-.49-.37-.57-.72-1.15-1.08-1.72-.13-.21-.21-.39.1-.56l1.8,1.34c.68-.56,0-1.17.14-1.76.62,0,1.09.66,1.81.44l0-.64.54-.35a2.51,2.51,0,0,1,1-2.54c.85-.8,1.76-1.54,2.68-2.34l1.17,1,.1-.08c-.13-.38-.26-.75-.38-1.13a.92.92,0,0,1,1.08-.15l1.33.68a.87.87,0,0,0,1.18-.11,1.09,1.09,0,0,1,1.28-.18c.31.14.59.32.89.48l.7.38c.29-.3.4-.86.89-.79a5.09,5.09,0,0,1,1.16.46c-.05-.16-.1-.33-.17-.53a3.29,3.29,0,0,1,1.84,0,7.59,7.59,0,0,1,2.3,1.09,2.19,2.19,0,0,0,1.28.39c.66,0,1.31,0,2,0,.13-.7.68-.74,1.14-.88a.91.91,0,0,1,.54,0,11.68,11.68,0,0,0,2.64.22,3.76,3.76,0,0,0,1-.08.66.66,0,0,1,.68.25c1.28,1.51,2.58,3,3.87,4.5a3.6,3.6,0,0,1,.49.67,5.74,5.74,0,0,1-1.29-1.22,16.45,16.45,0,0,0-1.24-1.27,5.75,5.75,0,0,0,1,1.75c.53.54,1.08,1.06,1.64,1.56a.93.93,0,0,0,.54.19,1.06,1.06,0,0,1,.94.62,4,4,0,0,0,.24.33c0,.09.14.19.12.27a2.88,2.88,0,0,1-.44,1.39,13.1,13.1,0,0,0-1.3,1.69c-.29.52-.79.61-1.23.84-.09,0-.27,0-.38-.12a4.6,4.6,0,0,1-.53-.46c-.12-.12-.24-.22-.43-.08l.08.44c-.47.42-.45.77.06,1.13.12.08.24.18.44.34a1.9,1.9,0,0,1-1.5-.34c-.67-.59-1.33-1.2-2-1.81a1.23,1.23,0,0,1-.41-1,.77.77,0,0,0-.3-.6c-.33-.33-.63-.71-.93-1.07s-.74-.94-1.11-1.4c-.36.14-.36.14-.14.8a12.27,12.27,0,0,0-1-1.47l-.13.06a5.85,5.85,0,0,0,.42,1.13c.71,1.13,1.45,2.23,2.2,3.33a3.84,3.84,0,0,0,.51.47,2.17,2.17,0,0,1,.36.31c.74,1.05,1.49,2.11,2.22,3.17a1.54,1.54,0,0,1,.15.35c-.5.44-1.06.14-1.64.25,0,.28,0,.57-.07.86a1.19,1.19,0,0,1-.1.51c-.29.42-.62.81-1,1.23l-.9-.52c0,.49,0,.89,0,1.33a1,1,0,0,1-1.08-.32c-.28-.31-.52-.65-.77-1a2.33,2.33,0,0,0-1-.86,3.4,3.4,0,0,0,.17.34,8.89,8.89,0,0,1,1,1.4,4,4,0,0,1,.29,2.73,3.18,3.18,0,0,1-1.07,1.47c-.29.24-.6.47-.93.72l.43.43a1.28,1.28,0,0,1-.64.86,4.43,4.43,0,0,0-1.15,1,5.57,5.57,0,0,1-1.25,1c-.1.07-.3,0-.43,0a.51.51,0,0,0-.08.13c-.07.25,0,.55-.29.73a1.72,1.72,0,0,1-1.12.33l-.49-.07-.68,1.89-.87-.16c-.25.38-.25.38,0,1l-.71.65c-.29-.05-.62-.49-1,.06l.7.49-.37.43c-.35,0-.66-.46-1,0l.41.54a2.71,2.71,0,0,1-.52.36,9,9,0,0,0-1.52.91,7.13,7.13,0,0,1-3.3,1c-.41.19-.75.37-1.11.52a4.83,4.83,0,0,1-.67.24.65.65,0,0,0-.47.4,3,3,0,0,1-1.5,1.39,5.07,5.07,0,0,1-1,.17,1.12,1.12,0,0,1-.27.2c-.65.29-1.3.58-2,.84a3.43,3.43,0,0,1-1.08.31,4.23,4.23,0,0,0-1.82.67,1.54,1.54,0,0,1-.42.22.44.44,0,0,1-.34-.11c-.28-.27-.34-.26-.47.11a1.25,1.25,0,0,1-.55.78,1.56,1.56,0,0,1-1.57.08.65.65,0,0,0-.82.16l.5.48c-.23.19-.42.2-.59-.06s-.34-.54-.53-.79a5.33,5.33,0,0,0-.46-.49,8.22,8.22,0,0,0-1,1.13,2.86,2.86,0,0,0-.18,1,.49.49,0,0,0-.21.15,1.27,1.27,0,0,1-1.33.42,1,1,0,0,0-1,.36,2.18,2.18,0,0,1-.22.21c-.51.44-.66.4-.9-.31l-1.7.43-2.18.61a10.56,10.56,0,0,0-1.11.42c-.43.18-.54.15-.74-.27s-.17-.38-.6-.46c-.14.35.12.64.19,1a.85.85,0,0,1-.76-.28.6.6,0,0,0-.85,0,1.92,1.92,0,0,1-2,.24c-.43-.16-.86-.3-1.27-.44-.06,0-.12.06-.12.08-.13.62-.61.78-1.13.88-.78.16-1.56.33-2.34.47a4,4,0,0,1-2-.22,5.14,5.14,0,0,0-2.44-.43,1.58,1.58,0,0,1-.26-.09l-.59-3.07-.14,0c-.18.5.14,1,.16,1.45s.14,1,.21,1.52c-.89-.2-1.22-.82-1.25-2.27-.43-.07-.5,0-.52.3a7.63,7.63,0,0,0,0,1c0,.23,0,.47,0,.74-.78,0-1.5-.12-2.23-.16a.51.51,0,0,1-.55-.5c0-.29-.1-.58-.16-.87a1.66,1.66,0,0,0-.12-.31l-.13,0,.21,1.42a1.24,1.24,0,0,1-1.29-1.12c-.19-1-.39-2-.63-3a15.65,15.65,0,0,0,.58,3.76H88.9c-.2-.33-.14-.89-.66-1.17l-.27.28s-.12-.05-.14-.09a6.32,6.32,0,0,1-.32-.82c-.16-.61-.32-1.23-.43-1.85a7.51,7.51,0,0,1,0-1c0-.23,0-.48-.36-.61a4.75,4.75,0,0,0-.17,2.27c.07.77.2,1.53.31,2.37a2,2,0,0,1-1.2-.39c-.17-.09-.06-.39.22-.64-.33-.28-.54-.75-1.16-.54,0,.17.05.33.07.47l-.9.47c-.34-.28-.7-.57-1-.89-.13-.13-.15-.35-.26-.5-.24-.33-.51-.65-.77-1a3.53,3.53,0,0,1-.66-1.87c0-.27-.12-.53-.2-.88l-.58.5c.11.13.26.23.3.37.18.62.35,1.26.49,1.9a1.47,1.47,0,0,1-.1.5l.32.09.1-.3c.51.64,1,1.25,1.59,2l-1.1-.33c.16-.73-.53-.7-.9-1.06l-.13.37a3.88,3.88,0,0,1-.36-.15c-.13-.07-.23-.2-.35-.22a3.62,3.62,0,0,1-1.7-1.14,3.31,3.31,0,0,1-.3-.42s0,0,0,0a6.7,6.7,0,0,1-2.47-.28c-1.23-.27-2.37-.77-3.56-1.14a1.82,1.82,0,0,1-.91-.79,4.12,4.12,0,0,0-2-1.58c-.31-.14-.59-.32-.9-.43s-.65.16-1,0c-.06,0-.18,0-.28,0l-.66,0a4.29,4.29,0,0,0,.59-2.12c-.24.4-.43.75-.64,1.08-.31.5-.33.5-1,.34a6.71,6.71,0,0,0,.48-2.5c-.2.49-.36.88-.53,1.32a6.15,6.15,0,0,0-.93-.5c-.47-.16-.55-.49-.54-.92,0-.84,0-1.68,0-2.55-.31.06-.28.27-.29.46,0,.7,0,1.39,0,2.08,0,.34,0,.67-.05,1.09a.72.72,0,0,0-.92-.17c-.45.18-.63,0-.52-.48s.31-1.14.42-1.72a3.7,3.7,0,0,0,0-.94.57.57,0,0,1,.3-.65c.54-.27,1.1-.5,1.66-.73.24-.09.48-.16.6-.43a.39.39,0,0,1,.49-.23,1,1,0,0,0,.94-.19.71.71,0,0,1,.34-.09l1.08-.21c0,.17,0,.35,0,.53h.07a3.53,3.53,0,0,1,.1-.55A.57.57,0,0,1,69,243a1.21,1.21,0,0,1,.78.82,4.6,4.6,0,0,1,.3,1.56,2.08,2.08,0,0,0,.15.69c0,.14.17.36.27.37.48.05.45.42.52.73s.12.62.21.92a17.64,17.64,0,0,0-.4-4.58c0-.15-.07-.31-.09-.47a1.21,1.21,0,0,1,.41-1.28,1.49,1.49,0,0,0,.48-.73,2.32,2.32,0,0,1,1.16-1.23,7.34,7.34,0,0,0,.71-.42,2.54,2.54,0,0,1,1.49-.36.56.56,0,0,0,.62-.34c.18-.48.59-.61,1-.73.24-.07.46-.21.7-.28s.43-.37.49-.68a1.52,1.52,0,0,1,.59-1.06.75.75,0,0,1,.48-.19c.64.18,1.12-.3,1.71-.36.21,0,.4-.3.58-.48a2.14,2.14,0,0,1,1.2-.72,1.3,1.3,0,0,0,.41-.23c.2-.15.4-.32.66-.53,0,.23,0,.39,0,.57.06,0,.12,0,.16,0a12.25,12.25,0,0,1,6.88-2.15,1.28,1.28,0,0,0,1-.34l1.16.25c-.14.23-.27.44-.39.66a5.34,5.34,0,0,0-.54,2.48,17.16,17.16,0,0,0,0,2c0,.27-.27.35-.2.62a3.18,3.18,0,0,1,.11.82c0,.29,0,.59,0,.88a.46.46,0,0,0,0,.29,3.23,3.23,0,0,1,.3,1.56c.05.39,0,.85.52,1,.11,0,.14.31.22.49-.26.08-.51-.17-.66.2.23.44.74.58,1.13.87s.74.55,1.12.82l.09-.08a1.29,1.29,0,0,0-.17-.33c-.15-.18-.33-.34-.49-.52a.59.59,0,0,1-.19-.29c0-.38,0-.77,0-1.3.14.39.25.66.35.93l.1,0c-.18-.64-.35-1.28-.54-1.91s-.39-1.28-.6-1.94c.22-.07.34-.2.26-.43a1.51,1.51,0,0,1,0-.94c.09-.3.2-.62-.25-.79-.07,0-.1-.28-.08-.42.15-1.16.31-2.32.47-3.48,0-.34.11-.67.15-1s.21-.5.51-.47c.65.05,1.36-.1,1.91.44.29.3.63.08,1,.05l.24.46.47-.25c.35.08.35.35.4.6.13.72.28,1.44.42,2.15h.15l.06-1.71.34.16c0-.32,0-.63.08-1h.15a20.74,20.74,0,0,0,.36,2.61h.14c0-1.34-.08-2.68-.12-4C100.13,230.82,100.3,230.9,100.72,231.61Zm27.53,3.89c0-.46,0-.48-.39-.72.14.26.27.49.4.71l.58.68C128.74,235.75,128.61,235.5,128.25,235.5Zm-19.3-.07a1.22,1.22,0,0,0-.4-1c.14.31.27.63.41.95s.37.77.56,1.15C109.41,236.15,109.37,235.68,109,235.43ZM83.06,250.21c-.23-.15-.23-.15-.41.11l.42-.13c-.13.2-.41.35-.29.69C83.2,250.57,83.2,250.57,83.06,250.21Zm53.21-23.75c-.35-.23-.6-.6-1-.74a5.23,5.23,0,0,0,.82.81s.12-.05.18-.08c-.14.37.26.49.35.76-.64-.39-.86-.37-1.43.17l.33.34,1.9,1.78a1.45,1.45,0,0,0,.47.35c.58.18,1.17.32,1.78.48l.46-.64c-.06-.08-.09-.14-.14-.16a.91.91,0,0,1-.54-.77,1.45,1.45,0,0,0-.45-.67c-.25-.25-.56-.44-.83-.68s-.45-.43-.67-.66a6.48,6.48,0,0,0-.54-.62c-.83-.68-1.68-1.33-2.52-2a1.71,1.71,0,0,0-.29-.16Zm-59,24.29c.09-.37.09-.37-.27-.4l.28.39c0,.06.09.19.12.19.39-.06.55.25.71.42a2.55,2.55,0,0,1,.57.07c0,.35.33.15.48.21a1.39,1.39,0,0,0,.57-.07l.48,1.19c0-.31-.1-.6-.11-.89a.36.36,0,0,1,.2-.25.31.31,0,0,1,.25.07,2.07,2.07,0,0,1,.22.35l1-.2v-.08l-.77-.14c0-.19-.08-.38-.11-.58-.09-.58-.17-1.17-.29-1.74-.26-1.32-.54-2.63-.82-3.94a7.63,7.63,0,0,0-.26-.81h-.15L78.91,246l-.23-.09-.53.57.31.38a2.12,2.12,0,0,0,.16,1.58c.07.16.19.31,0,.47l-.35-.72-.11,0-.15.54c-.26-.29-.26-.29-.23-.58,0-.57,0-.57-.53-.83l-.18.83a.5.5,0,0,1,.13.12c.34.46.69.9,1,1.38s.06.76-.4.93Zm4.29-4.58L81,247a3.51,3.51,0,0,0,.7.25,2.74,2.74,0,0,0,.81,0,1.4,1.4,0,0,0,.42-.22c.72,1.1,1.31,2.23,2,3.22l1-.19a4.27,4.27,0,0,0,.1.93c.08.25-.09.6.3.8,0-.37,0-.68,0-1s.17-.63-.06-.94c0-.05.06-.26.15-.33.25-.2.27-.4,0-.59s-.18-.42-.15-.65.12-.38.17-.57a.88.88,0,0,0-.34-1,1,1,0,0,1-.36-.46,1.2,1.2,0,0,0-.79-.73,1.25,1.25,0,0,1-.64-.58c-.23-.34-.48-.67-.73-1-.08-.11-.22-.2-.25-.32a14.55,14.55,0,0,1-.3-1.85c-.07-.9,0-.9-.89-1.17a4.48,4.48,0,0,0-.2-.74c-.08-.21.17-.53-.23-.67a.74.74,0,0,0-.09.29,2.92,2.92,0,0,1-.27,1.2c-.15.47-.33.93-.44,1.41a4.85,4.85,0,0,0-.05.94,1.81,1.81,0,0,1,.5,1.81C81.22,245.24,81,245.79,81.57,246.17Zm12.89-7.31c.11.54.2,1,.3,1.55a2.15,2.15,0,0,0,.56,1.38,9.32,9.32,0,0,0-.09-1.4c-.1-.62-.23-1.24-.32-1.87a1,1,0,0,1,.16-.82,15.64,15.64,0,0,1,.93,2.89.47.47,0,0,0,.32.4c-.24-1-.49-2-.82-2.91a8.69,8.69,0,0,1-.6-2.77,6.77,6.77,0,0,0-.25-1.39c0-.1-.11-.18-.24-.37a4.6,4.6,0,0,0-.24.77c-.11.76-.22,1.53-.29,2.3a16,16,0,0,0,0,1.83C93.85,238.88,93.94,238.91,94.46,238.86Zm60.44-7.3c0-.22.08-.4,0-.54-.31-.66-.61-1.33-1-2s-.95-1.5-1.43-2.25l-1.64-2.55a1.5,1.5,0,0,0-.86-.66,38.09,38.09,0,0,0,4,6.85l-.5-.16C153.9,230.78,154.14,231.4,154.9,231.56Zm-5.43.5c-.13-.49-.23-.95-.38-1.39-.25-.73-.52-1.45-.79-2.17a12.45,12.45,0,0,0-2.15-3.95,1.69,1.69,0,0,0-.46-.31l-.1.09a5.47,5.47,0,0,0,.72,1.71,25.46,25.46,0,0,1,1.29,2.27c.52,1.11.94,2.27,1.4,3.41C149.07,231.9,149.1,232.12,149.47,232.06Zm6.38-11.61c0,.2,0,.28,0,.31.57.65,1.1,1.34,1.72,1.94a10.47,10.47,0,0,0,2.94,2.08,1.59,1.59,0,0,0,.77,1.4l.44-.92c-1-.69-2.13-1.29-3.09-2.07S156.84,221.44,155.85,220.45ZM94.12,245.78a19.09,19.09,0,0,1,1.3,1.55c.76,1.11,1.47,2.25,2.2,3.38a2,2,0,0,1,.09.22l.14-.16a2,2,0,0,0-.11-.26c-.21-.4-.43-.8-.66-1.19-.36-.61-.69-1.25-1.1-1.83a20.2,20.2,0,0,1-1.18-2l-.3-.55Zm30.52-4.18.08-.08c-.77-1.12-1.62-2.19-2.3-3.36s-1.22-2.43-1.76-3.54a10.15,10.15,0,0,0,1.74,4.18c.28.43.58.85.88,1.26s.72.95,1.09,1.42C124.43,241.55,124.55,241.56,124.64,241.6Zm-12.51,6.46c0,.74.38,1.4.41,2.18l.24-.18c.4,1,.8,2,1.22,3a11.48,11.48,0,0,0,.58,1.23,4,4,0,0,0,.48.61C114.19,252.54,113,250.36,112.13,248.06ZM78.29,237.49a8.33,8.33,0,0,0-.18,2.74l0,.12c0,.23.09.46.12.69s.09.66.12,1a11,11,0,0,1,.14,1.27c0,.39,0,.43.51.57-.09-.55-.17-1.07-.26-1.59a21.51,21.51,0,0,1-.45-3.09C78.3,238.62,78.3,238.05,78.29,237.49Zm26.94-2.31a7.39,7.39,0,0,0,1.5,4.59c-.14-.53-.36-1-.54-1.54s-.33-1-.48-1.52A3.71,3.71,0,0,0,105.23,235.18Zm-27.65,16.6-.67-.36a2.21,2.21,0,0,0,.82,2.06s.06,0,.12,0l-.11-.48c.21-.19.6-.17.58-.63l-.29.18-.26.09C77.35,252.22,77.35,252.22,77.58,251.78Zm42.71-12.37h-.13a13.75,13.75,0,0,0,.33,2.39,2,2,0,0,0,.51,1.28Zm4,.73-.15.14a22.75,22.75,0,0,0,2.53,2.76l.11-.11ZM75.66,249.6c-.28.06-.5-.25-.81,0,.49.21.37.61.36.95.52.26.52.26.78-.1C75.8,250.23,75.42,250.07,75.66,249.6Zm75-22.58-.15,0a2.91,2.91,0,0,0,.32.79c.42.51.9,1,1.35,1.45l.1-.08Zm-1.39-3a12.07,12.07,0,0,0,1.64,2.72A7.59,7.59,0,0,0,149.24,224.07Zm-3.75,1.85c-.07.18-.15.28-.13.34a11.37,11.37,0,0,0,1,2.06l.14-.07Zm-1.37-3.61c.13.21.27.41.39.62s.23.41.35.61c.2.35.21.35.52.4C144.94,222.89,144.85,222.76,144.12,222.31ZM94,260.44l.2,0c-.13-.83-.26-1.67-.4-2.62A5.62,5.62,0,0,0,94,260.44ZM66.35,244.51l-.17,0a11.3,11.3,0,0,0-.15,1.13c0,.39-.35.76,0,1.17A8.4,8.4,0,0,0,66.35,244.51Zm5,5.38c0,.43-.07.86-.1,1.3l.13,0,.21-.7.59.11-.21-.55Zm50.35-10.16a2.74,2.74,0,0,0,1.42,1.61C122.53,240.82,122.3,240.14,121.68,239.73Zm-48.84,7.81.17.07c.1-.12.28-.26.26-.36a.58.58,0,0,0-.53-.46Zm38.79-2a1.23,1.23,0,0,0,.31,1.29A3,3,0,0,0,111.63,245.49Zm43-26.8a1.59,1.59,0,0,0,.81,1.18A2.27,2.27,0,0,0,154.66,218.69Zm-22.11,4.78a2.4,2.4,0,0,0,1.48,1.2Zm-62,26.22c-.27,1.16-.28,1.5,0,1.9A6.72,6.72,0,0,0,70.56,249.69Zm3.81-5.12.29.63c.54-.21,0-.56.17-.8,0,0,0-.05-.09-.1Zm72.72-14.86a1.1,1.1,0,0,0-.55-1.1A2,2,0,0,0,147.09,229.71ZM95.66,255.9c.4.36.45.36,1,.07C96.34,255.85,96.05,255.62,95.66,255.9Zm-1.57-7.7c-.19-.1-.35-.25-.42-.22a.45.45,0,0,0-.2.36c0,.1.22.19.35.2S94,248.36,94.09,248.2Zm-18.42,1,.52.48.45-.14A.87.87,0,0,0,75.67,249.17Zm-.9,4.45a.75.75,0,0,1,0-.7l-.7.29Zm8.45-3.8h.12l.21-.62-.1-.09c-.13.07-.37.13-.38.23S83.16,249.66,83.22,249.82ZM71.61,248.4c0,.49,0,.88.06,1.4A1.31,1.31,0,0,0,71.61,248.4Zm41.45,4.2h.08c-.13-.66-.25-1.32-.38-2l-.08,0C112.8,251.28,112.93,251.94,113.06,252.6ZM74.2,250.14c-.12-.08-.22-.2-.28-.19s-.19.18-.17.24.16.16.25.24Zm30.15-14.27a1.23,1.23,0,0,0,.17,1.15Zm7.75,15.59a1.2,1.2,0,0,0,.37,1.32Zm-29.77-3-.18-.12c-.09.12-.18.24-.28.35l.17.12C82.14,248.66,82.23,248.54,82.33,248.42Zm24.1-11.65.1,0c-.12-.44-.25-.88-.37-1.33l-.08,0C106.19,235.88,106.31,236.32,106.43,236.77ZM103.21,232c.05-.21.12-.34.09-.44s-.21-.18-.25-.15a.42.42,0,0,0-.18.3C102.88,231.79,103,231.86,103.21,232ZM72.86,251.52c.2-.37.21-.61-.16-.87Zm.06-3.31c.42,0,.42,0,.47-.44Zm.1-3.87a.46.46,0,0,0,.46.47l.1-.14Zm-.58-1.84c-.24.24-.24.24,0,.49a2.26,2.26,0,0,0,0-.35S72.47,242.55,72.44,242.5Zm3,11.12c.26.31.26.31.57.16Zm75-21.78c0,.37.23.47.44.67C151,232.08,150.72,232,150.47,231.84ZM82.31,251l-.14,0c0,.17,0,.31.27.4ZM68,245.47H68l0-.7H68C68,245,68,245.24,68,245.47Zm11-3.24.13,0-.08-.42-.1,0ZM72.32,248l.2-.07-.17-.37-.16.06Zm1.22,3.71a.3.3,0,0,0-.07-.48s-.07,0-.11,0S73.47,251.55,73.54,251.73Zm5.5-11h-.16l0,.47H79Zm50.71-2.91.12-.08c-.07-.13-.15-.26-.22-.4l-.11.06ZM71.67,246.1h.13c0-.15.11-.35-.21-.53C71.62,245.79,71.64,246,71.67,246.1Zm.63,3.65.1-.05-.15-.35-.12.06C72.19,249.52,72.25,249.64,72.3,249.75Zm9.12-2.06c-.08-.08-.1-.14-.14-.15a.16.16,0,0,0-.14,0s0,.13,0,.13A1.34,1.34,0,0,0,81.42,247.69Zm-10.91,4.63a1,1,0,0,0,0-.31c0-.06-.07-.11-.13-.2C70.23,252,70.24,252.13,70.51,252.32Zm4.24-1.61-.14,0c0,.1,0,.2,0,.3l.1,0A1.52,1.52,0,0,0,74.75,250.71ZM73.22,243l-.1.13.15.19Zm48.08-3.74h.07c0-.07.08-.14.07-.2s-.06-.14-.09-.21l-.1,0C121.27,239,121.28,239.13,121.3,239.25Zm-1.23-.39h.14a2.32,2.32,0,0,0,.06-.38s-.09,0-.19-.06Zm-47.14,6.48-.07-.09-.3.17,0,.08Zm3.76,7.1c0,.08-.11.13-.1.17a.14.14,0,0,0,.12.09s.08,0,.12-.08Zm-.84,1.91a1.25,1.25,0,0,0-.21-.1s-.09.1-.08.11a.47.47,0,0,0,.15.13S75.78,254.42,75.85,254.35Zm22.57-8.8,0-.09-.27,0,0,.1ZM84,258l0-.09-.28-.1,0,.08ZM74,247.72c-.06.12-.09.17-.08.18l.14.12ZM129.26,237l.09-.07-.18-.24-.08.05Zm-56.11,9.41c-.07,0-.12-.09-.16-.08s-.06.07-.09.11.09.07.13.07S73.1,246.4,73.15,246.36Zm10.85-3-.24-.13s-.06.1,0,.13a.15.15,0,0,0,.12.07S83.93,243.36,84,243.33Zm-11.07,1.43-.25,0s-.08,0-.08.07a.54.54,0,0,0,.07.13ZM72,247.11s0-.05,0-.07,0,0-.07-.06,0,.06,0,.08S72,247.1,72,247.11Zm12.88-2.17L85,245a.19.19,0,0,0,0-.1s-.06,0-.09,0S84.93,244.89,84.9,244.94Zm-1.67,3.21c0,.07-.08.12-.07.15s.08.08.12.11.09-.08.09-.12S83.29,248.21,83.23,248.15Zm-9.63-4.28h-.13l0,.26h.08ZM66,247l-.15,0,0,.33.09,0Zm6-.32.09-.06s0-.08-.06-.08l-.11.08Zm6.13-1.27-.09.06.12.22.12-.09Zm66.53.07a1.45,1.45,0,0,0,0-.16l-.15-.06Z" style="fill:#ebebeb"></path><path d="M165,220.78c-.6.05-.85-.66-1.45-.45.07.21.13.37.23.63l-.78-.15c.17.27-.39.49-.06.8a8.34,8.34,0,0,0,.78.58c-.07.16-.17.37-.29.62a9.11,9.11,0,0,1-3.53-3.57c-.28-.61-.63-1.19-.94-1.79a1.14,1.14,0,0,1-.14-.39.8.8,0,0,1,.11-.44c.22-.28,1.1-.2,1.21.15a8.86,8.86,0,0,0,1.11,1.82c.17.27.4.5.57.76a1.89,1.89,0,0,0,1.27.72c0-.34-.23-.48-.38-.68a8.53,8.53,0,0,1-1.66-3.06c-.14-.55,0-.65.54-.83a1.53,1.53,0,0,1,1.77.43,6.48,6.48,0,0,1,1.5,1.66l-.44,0c-.14.5-.1.63.24.88l.49.36C165.14,219.53,164.67,220.08,165,220.78Z" style="fill:#ebebeb"></path><path d="M61.7,246.51c0,.41,0,.83-.05,1.24,0,.08,0,.19-.06.23-.4.28-.33.81-.6,1.16a2.5,2.5,0,0,0-.23.6c-.51.1-.51.1-.85-.16l.34-.33L60,249l-.42.37a2.23,2.23,0,0,1,.52-1.43,1.56,1.56,0,0,0-.38.07c-.26.19-.51.38-.75.58a1.55,1.55,0,0,1-1,.3c0-.32.47-.39.27-.77l-.59.56-.5-.81c0-.24.41-.36.13-.66l-.61.06c-.08-.17-.17-.35-.27-.53a.67.67,0,0,1,.2-.12l4.36-.94a.69.69,0,0,1,.74.25.43.43,0,0,1,0,.63c0-.11-.07-.21-.11-.34l-1.21,2.3A3.14,3.14,0,0,0,61.7,246.51Z" style="fill:#ebebeb"></path><path d="M164.46,213.61a5.28,5.28,0,0,0,1,3c-.37.17-.37.17-.61,0-.09-.09-.15-.2-.26-.25-.72-.38-.88-1.13-1.15-1.8a.41.41,0,0,1,.24-.58C163.89,213.81,164.13,213.73,164.46,213.61Z" style="fill:#ebebeb"></path><path d="M168.05,214.82a7.11,7.11,0,0,1-1.2-1.72c-.16-.25,0-.48.3-.47a2.35,2.35,0,0,1,.41.13,1.2,1.2,0,0,1,.71-.7c0,.16,0,.28,0,.41,0,.37,0,.75,0,1.12a1.87,1.87,0,0,1-.11.51C168.18,214.35,168.11,214.6,168.05,214.82Z" style="fill:#ebebeb"></path><path d="M50.34,239a2.2,2.2,0,0,1,1.48,1.13c.06.09,0,.35-.13.46s-.26.09-.4.12l0,0c-.65-.1-.83-.53-.8-1.13A2.61,2.61,0,0,0,50.34,239Z" style="fill:#ebebeb"></path><path d="M70.88,246.26l-.6-2.36.17,0A4.85,4.85,0,0,1,70.88,246.26Z" style="fill:#ebebeb"></path><path d="M166.29,217.46l-.32.24-.48-.65C166,216.92,166,216.92,166.29,217.46Z" style="fill:#ebebeb"></path><path d="M101,187.37c.38.19.38.19.43.65C101,188,101,187.74,101,187.37Z" style="fill:#ebebeb"></path><path d="M63,215.09c.14.14.56.14.26.54C63,215.49,62.87,215.38,63,215.09Z" style="fill:#ebebeb"></path><path d="M58.64,249.15l.57-.28C59.18,249.29,59.18,249.29,58.64,249.15Z" style="fill:#ebebeb"></path><path d="M135.58,185.68l0,.36-.08,0c-.05-.07-.12-.12-.14-.19s0-.14.06-.21Z" style="fill:#ebebeb"></path><path d="M51.38,235.43l-.38.4c0-.33,0-.33.38-.39Z" style="fill:#ebebeb"></path><path d="M126.24,199.64a1.83,1.83,0,0,1,0,.51c-.14.49-.32,1-.51,1.55C125.62,201.23,125.72,200.86,126.24,199.64Z" style="fill:#ebebeb"></path><path d="M146.09,201.24c.14.36-.05.56-.37.68Z" style="fill:#ebebeb"></path><path d="M59.29,238.11l.45.67C59.33,238.7,59.25,238.52,59.29,238.11Z" style="fill:#ebebeb"></path><path d="M79.78,251.3c-.21,0-.37.08-.39,0-.18-.32-.63-.46-.6-.94a7,7,0,0,1-.05-1,.49.49,0,0,1,.37-.42c0,.16.12.32.08.45-.08.3.08.48.21.72A8.21,8.21,0,0,1,79.78,251.3Z" style="fill:#ebebeb"></path><path d="M80.36,251.21c-.18.17-.31.19-.37,0a6.79,6.79,0,0,1-.16-.77Z" style="fill:#ebebeb"></path><path d="M78.63,251l-.34.09,0-.11.32-.14Z" style="fill:#ebebeb"></path><path d="M79.43,246.71l0-.36h.06l.07.34Z" style="fill:#ebebeb"></path><path d="M80.09,249.57l.07.36H80.1l-.08-.35Z" style="fill:#ebebeb"></path><path d="M271.16,301.74c0-.05,0-.13.09-.14l1.08-.36c-.07.24-.13.48-.2.76l.48.06c0-.22.1-.41-.17-.52-.07,0-.08-.2-.13-.3a1.06,1.06,0,0,1,.39-1.39,10.55,10.55,0,0,1,2.59-1.52c.63-.3,1.27-.57,1.9-.88s1-.59,1.56-.84a4.73,4.73,0,0,0,1.68-1,1,1,0,0,1,.75-.26,3.3,3.3,0,0,0,2-.4c.95-.41,1.88-.85,2.81-1.29a.82.82,0,0,1,.79-.06c.4.18.64,0,.64-.45a.47.47,0,0,1,.23-.44l1.19-.69.41.35c-.11.23-.23.45-.32.68a.91.91,0,0,0-.09.47.46.46,0,0,0,.41.11.79.79,0,0,0,.28-.47c0-.37,0-.75.08-1.12,0-.11.18-.25.31-.29a6,6,0,0,1,.76-.15,5.05,5.05,0,0,0,.57.63.5.5,0,0,0,.42.11c.09,0,.16-.24.18-.38a1.09,1.09,0,0,1,.86-1,1.17,1.17,0,0,0,.36-.2l.33.3c-.07.08-.13.17-.25.33l.56.11v-.55l-.31.11a3.89,3.89,0,0,0,0-.49c-.15-.59,0-.88.5-1.1,1.29-.56,2.58-1.14,3.89-1.65s2.56-.94,3.84-1.41l.33-.09.45.59c-.12.24-.26.5-.38.77-.05.09-.07.29,0,.31a.93.93,0,0,0,.44.08c.06,0,.18-.16.16-.22-.1-.41.23-.77.13-1.21a.56.56,0,0,0,.51-.76l.51-.21,4.43-1.74a36.79,36.79,0,0,1,5.5-1.79,19.73,19.73,0,0,0,2.55-.79,12.68,12.68,0,0,1,4.59-.91,1.58,1.58,0,0,0,.52-.09c.27-.08.27-.09.61.09.14-.21.51-.11.6-.45,0,0,.18-.06.27-.05.5,0,1,0,1.49,0a2.05,2.05,0,0,1,.37.13.46.46,0,0,0,.2,0,2.28,2.28,0,0,1,1.27,0c.12,0,.23.16.33.25s.49.43.76.67a.87.87,0,0,1,1.38,0,14,14,0,0,0,1.69,1.15c1.6,1.14,3.22,2.24,4.83,3.37.68.48,1.34,1,2,1.51a1.56,1.56,0,0,1,.34.54c.2.4.38.82.59,1.22a.92.92,0,0,0,.28.31c.27.19.52.08.5-.26s.36-.69.54-1c.08-.16.45-.16.72-.24l.24.29c0,.34,0,.34.35.36l0-.38-.34,0a2.5,2.5,0,0,0,.06-.38c0-.11-.18-.12-.08-.36s.22-.51.5-.6a27.48,27.48,0,0,1,3-.85,26.45,26.45,0,0,1,3.77-.37,6,6,0,0,1,2.9.5c.35.18.75.25,1.11.41a3.49,3.49,0,0,1,.49.39.62.62,0,0,0,.22.1c.31.1.62.2.59.68a.73.73,0,0,1,.83.1,11.15,11.15,0,0,0,2.09,1.14,10.09,10.09,0,0,1,1.52,1,2.45,2.45,0,0,0,.44.3,2.85,2.85,0,0,1,1.15.91c1,1.22,2,2.42,3,3.65a4.89,4.89,0,0,1,.38.72c.11.18.2.38.32.55s.3.37.45.55l-.21.38.95.37c0,.14,0,.34,0,.5l1.62,1.49-1.26,0,0,.09a7,7,0,0,0,.78.23.49.49,0,0,1,.43.42c.07.31.36.56.11.94-.06.09.2.53.25.52.49-.11.52.4.8.54.43-.18.63-.06.77.5a.8.8,0,0,1,.8.36c.05.07.14.15.12.2-.16.5.16.9.31,1.39l-.58,0,.25,1-.53-.14.39.45L366.59,307c-.15.15-.42.24-.26.57,0,.06-.12.23-.19.35l-.3.48c.52.08.59-.47,1-.5,0,.09.06.18.09.29a3,3,0,0,0,1.2-1.75,1.26,1.26,0,0,1,.84-1c.35-.11.38-.45.48-.82.29.53.24,1.19,1,1.37-.16.16-.27.29-.46.47a4.27,4.27,0,0,0,.9.25.52.52,0,0,1,.51.39l-.55.31a.34.34,0,0,0-.57-.15.3.3,0,0,0,0,.29c.11.19.31.14.58-.1a.14.14,0,0,0,0-.06l.25.2.49-.19a1.05,1.05,0,0,1,.57,1c-.07.48-.52.23-.87.45a3.63,3.63,0,0,1,1,.35,3.44,3.44,0,0,1,.61.87c-.58.48.08.8.09,1.31l.32-.28.5.49.3-.21.57.37c-.35.45-.43,1-.9,1.39a21.73,21.73,0,0,0-1.65,1.8c-.3.33-.63.63-.94.95l.06.11a.73.73,0,0,0,.32-.12,16.85,16.85,0,0,0,2.42-2.43,3.11,3.11,0,0,1,.45-.43l.42.51.06-.49.11,0a8.7,8.7,0,0,1,.4.89.5.5,0,0,1-.1.42c-.29.35-.6.69-.92,1-.53.51-1.07,1-1.6,1.5a.67.67,0,0,0-.17.41c1.14-.52,1.81-1.6,2.84-2.23-.68.93-1.5,1.74-2.23,2.64a1.22,1.22,0,0,0,.94-.59,9.81,9.81,0,0,1,.71-.73c.35-.38.65-.8,1-1.23l.9.06.67.39c.39.24.78.46.9,1a2.5,2.5,0,0,0,.52.85,13.16,13.16,0,0,1,.87,1.4,5.29,5.29,0,0,0,.29.52c.83,1.18,1.68,2.36,2.52,3.54a1.82,1.82,0,0,0,.37.45,2.7,2.7,0,0,1,.92,1.14c.11.25.34.44.44.69.21.57.37,1.16.57,1.77l-.46.07c-.09.23,0,.35.19.46s.37.23.54.37a.6.6,0,0,1,.1.91.75.75,0,0,0,0,.85,2.65,2.65,0,0,0,.61.72.79.79,0,0,1,.31.88c-.08.58,0,.75.49,1a.65.65,0,0,1,.31.3c.14.35.23.71.35,1.1l-.27,0s0,.08,0,.1a8.86,8.86,0,0,0,.58,1c.21.32.3.6,0,.89-.05,0-.11.11-.1.15a1.54,1.54,0,0,1-.32,1.29c.13.29-.14.42-.28.63a2.25,2.25,0,0,0,.3.22.58.58,0,0,1,.46.66c0,.23.16.3.32.38s.37.25.28.45a.66.66,0,0,1-.45.32,10.67,10.67,0,0,1-1.59.22.75.75,0,0,0-.67.39.78.78,0,0,1-.55.4c-.23.06-.45.18-.68.22a11.12,11.12,0,0,1-1.29.18c-.37,0-.75,0-1.13,0a3.34,3.34,0,0,1-1.4-.14,3.41,3.41,0,0,0-1.06-.1.8.8,0,0,1-.81-.48.58.58,0,0,0-.62-.35c-.65,0-1.31,0-2,0a6.8,6.8,0,0,0-.77.11,1.75,1.75,0,0,1-1.67-.34.56.56,0,0,0-.3-.17,1.25,1.25,0,0,1-1-1.1c-.13-.8-.86-.92-1.39-1.26-.06,0-.22,0-.33.09a1.77,1.77,0,0,1-1.86-.22,63.12,63.12,0,0,1-6.77-5.35A25.43,25.43,0,0,0,358,328.8a33.86,33.86,0,0,1-3.42-2.53l2.54-1.86c-.25-.13-.38,0-.53.12-.67.39-1.35.77-2,1.18a.62.62,0,0,1-.81,0,18,18,0,0,0-3.82-2.05l-5.07-2.24-.44-.23c.59-.34,1.27-.45,1.56-1.22-.34.15-.61.27-.88.37s-.6.21-1,.33c.09-.22.15-.38.21-.54s-.1,0-.12,0l-.62.55a1.3,1.3,0,0,1,0-1.47,12.13,12.13,0,0,0,.79-1.46,4,4,0,0,0,.15-.86,2.54,2.54,0,0,0-.76.92,8.86,8.86,0,0,1-.71,1.09c-.4.49-.58.49-1.1.12-.16-.11-.31-.25-.48-.39l-.27.1a1.88,1.88,0,0,1-1.77,0,2.69,2.69,0,0,1-1.45-1.42c-.15-.39-.3-.77-.46-1.2a8.83,8.83,0,0,1-3-.59,7,7,0,0,0-3.82-.21,3.19,3.19,0,0,1-2.54-.32,2.93,2.93,0,0,1-.8-.77,3.6,3.6,0,0,1-.52-3.14,1.12,1.12,0,0,0-.22-.11,1.58,1.58,0,0,0-.28,0c0,.33-.08.64-.14.95-.14.81-.54,1.07-1.3.78a9.39,9.39,0,0,1-1.36-.73,2.38,2.38,0,0,1-1-1.57c0-.15-.07-.3-.13-.6a1.81,1.81,0,0,1-.94,1.13c-.08.05-.12.2-.18.3a1.07,1.07,0,0,1-1.76.15c-.08-.1-.06-.29-.08-.44l-.24.17-.4-1c-.12.15-.22.24-.29.35a1.35,1.35,0,0,1-.91.71,1,1,0,0,0-.39.24,1.42,1.42,0,0,1-1.81,0,.59.59,0,0,0-.43-.09,2.15,2.15,0,0,1-1.57-.37,5.25,5.25,0,0,1-1.73-1.84c-.19-.29-.41-.56-.61-.84l-.13.07a7.39,7.39,0,0,1,.32,1.58,6.59,6.59,0,0,1-.29,1.53c-.43.19-.79.35-1.15.48a2.76,2.76,0,0,1-.68.19c-1.06.14-2.13.23-3.19.38a9.3,9.3,0,0,1-3.2-.13,4.64,4.64,0,0,0-.82-.12,1.29,1.29,0,0,0-.61.16c-.6.35-1.18.74-1.78,1.08a1.36,1.36,0,0,1-.67.19c-.62,0-1.23,0-1.85-.06a2.06,2.06,0,0,0-1,.15,2.77,2.77,0,0,1-2.37,0,2.87,2.87,0,0,0-2-.08,20.3,20.3,0,0,1-4.71.63c-.93,0-1.86,0-2.79,0a2.29,2.29,0,0,1-.81-.16,9.3,9.3,0,0,0-2.56-.5,3.62,3.62,0,0,1-.92-.21c-.9-.33-1.79-.68-2.68-1a11.2,11.2,0,0,1-1.13-.47,1.61,1.61,0,0,1-.53-.54,2.44,2.44,0,0,0-1-.95,12.74,12.74,0,0,1-1.15-.62,1.73,1.73,0,0,1-1-1.59c0-.83-.07-1.66-.12-2.64a2.06,2.06,0,0,0-.3.35,1.08,1.08,0,0,0,0,.36c0,.41.12.83.13,1.24s-.05.79-.07,1.22c-.27,0-.32-.23-.37-.44-.1-.49-.21-1-.34-1.45a3.55,3.55,0,0,0-.24-.56c-.22.42,0,.69,0,1a7.17,7.17,0,0,0,.17.88c-.51-.1-.71-.33-.68-.77a5.77,5.77,0,0,1,.1-.71c.18-.95.13-1.05-.75-1.4a1.74,1.74,0,0,1,.11-.56,1.23,1.23,0,0,0-.26-1.42,1.86,1.86,0,0,1-.21-.28c-.12-.25-.06-.43.27-.49a5.06,5.06,0,0,0,.41.37c.24.17.55.05.51-.21-.06-.43.2-.66.4-.95Zm26-5.27a.75.75,0,0,0-.1.86c0-.37.07-.62.1-.86s0-.53,0-.8H297C297.05,295.94,296.74,296.22,297.12,296.47Zm26.41,9.76-.25.52.07,0,.18-.55c.05-.32.11-.64.16-1C323.56,305.58,323.32,305.88,323.53,306.23ZM276,310.79a1.12,1.12,0,0,0-.25-1c0-.2.07-.39.11-.66l.31.61h.11l.12-.46h.13c0,.13.08.3,0,.4a1.66,1.66,0,0,0,.24,1.66c.05.1.21.15.31.22s0,.32.27.29l-.3-.28a1.76,1.76,0,0,0-.09-.62,2.9,2.9,0,0,1-.24-1.69c0-.52.15-1.05.23-1.57.1-.69.2-1.37.29-2.06a2,2,0,0,0,0-.37,1.24,1.24,0,0,0-.49.69c-.1.25,0,.59-.32.82a3.13,3.13,0,0,1-.1-.38c-.05-.81-.11-1.62-.13-2.43a2.1,2.1,0,0,0-.22-1.05,2.71,2.71,0,0,0-.36.73,7.38,7.38,0,0,0-.29,2.09,1.32,1.32,0,0,1-.43,1.38c.05.15.06.29.13.36a1.79,1.79,0,0,1,.47,1.12c.07.4.19.8.29,1.2l.24,1a2,2,0,0,0,.28.93l.15-.07Zm88.18,10.93c.46.07.76-.27,1.11-.46a1.31,1.31,0,0,0-1.1.48c-.41,0-.66.24-.93.46A1.07,1.07,0,0,0,364.15,321.72ZM374.63,329a1.29,1.29,0,0,0,.49-.07c1-.62,2-1.26,3-1.91.07,0,.11-.13.17-.2a1.08,1.08,0,0,0-.55.21c-.18.11-.35.3-.55.34a3.65,3.65,0,0,0-1.46.86c-.36.27-.74.51-1.11.77,0,.28-.26.32-.42.43-.62.4-1.25.79-1.94,1.22a6,6,0,0,0,2.86-1.45Zm-73.71-27.33c-.18,0-.35,0-.41-.25s-.2-.76-.32-1.14-.28-.89-.42-1.33a7.21,7.21,0,0,0-.12,2.17,10,10,0,0,1-1.06-1.11.76.76,0,0,1-.16-.38c0-.29,0-.58-.06-.9l.31-.15a14.49,14.49,0,0,1-.76-5,1,1,0,0,1-.21.21c-.28.16-.18.66-.61.69,0,.25-.06.5-.09.8l.26-.17a29.78,29.78,0,0,1,.91,4.19l-.27.26a5.24,5.24,0,0,0,1,1.77c.15.22.25.48.6.51a.54.54,0,0,1,.37.35,11.7,11.7,0,0,1,.4,1.73c.06.44,0,.91,0,1.35a7.91,7.91,0,0,0,.86,2.59c0,.08.15.13.26.21.16-.79-.5-1.42-.28-2.21a1.62,1.62,0,0,1,.63,1,2.73,2.73,0,0,0,.14.58c.31.7.64,1.4,1,2.14l.69-.15a8.26,8.26,0,0,1-1.62-2.77,20.78,20.78,0,0,1-.69-2.33,3.9,3.9,0,0,1-.13-.76c0-.21.12-.31.36-.28.09.33.18.65.26,1a8.82,8.82,0,0,0,.22.92c.12.29,0,.66.38,1a3.12,3.12,0,0,0,.05-.52c-.08-.46-.19-.93-.29-1.39a4.81,4.81,0,0,1-.21-2c-.47,0-.46.38-.5.68l-.36,0a1.55,1.55,0,0,1-.15-1.35c.19,0,.19,0,.13-.26Zm50.51,19.51.08.14a3.41,3.41,0,0,0,.55-.14c.59-.29,1.17-.59,1.74-.92a3,3,0,0,0,.56-.5,4.85,4.85,0,0,1,.84-.74,11.42,11.42,0,0,0,2.27-1.62,4.37,4.37,0,0,1,1.59-.88,6.55,6.55,0,0,0,2.45-1.71c.12-.11.23-.23,0-.42l-1.62,1.32a.41.41,0,0,1,.12-.28c.75-.73,1.53-1.44,2.25-2.2a2.18,2.18,0,0,0,.55-.95,1,1,0,0,1,.42-.6c.44-.31.88-.62,1.31-.94a2,2,0,0,0,.32-.33s0-.11,0-.21l-.27.05-.22-.42a9.8,9.8,0,0,0-.66,1.07,1.34,1.34,0,0,1-.69.62c-.26.13-.55.29-.82,0a7.22,7.22,0,0,1-1.8,2c-.72.57-1.48,1.07-2.2,1.64a1.94,1.94,0,0,1-1.67.62c0-.44-.3-.6-.58-.84-.81.51-1.18,1.38-1.93,2l.87.15c-.05.15-.06.25-.1.34a5.48,5.48,0,0,1-1.42,1.89L352,320.6C351.77,320.77,351.61,321,351.43,321.15Zm-30.82-33.79.17.14a.92.92,0,0,0,1.4-.05,5.83,5.83,0,0,1,.55-.46.88.88,0,0,1,.58-.18c.32.09.79,0,.85.56a.27.27,0,0,0,.17.16c.35.12.71.3,1.07.06a.57.57,0,0,1,.67,0c.39.24.77.5,1.22.8.15-.13.48-.2.4-.68-.45.25-.7-.06-.95-.3s-.76-.15-.69-.59a2.58,2.58,0,0,0-.74-.27,2.27,2.27,0,0,1-2.05-1.16A1.73,1.73,0,0,0,323,285c-.11-.1-.31-.23-.39-.19-.44.24-.82,0-1.17-.11-.21.24-.4.43-.63.68,0,.17,0,.41,0,.64a.45.45,0,0,1-.27.49,1.76,1.76,0,0,1-1.47.16,1,1,0,0,0-.79-.1c-.41.22-.57,0-.83-.44-.07.47-.12.77-.17,1.08l-.42.29c-.07-.67-.07-.67-.37-.78,0,1.27-.07,2.52-.1,3.77.35,0,.39-.18.4-.42s0-.79,0-1.19c0-.22,0-.46.29-.57.12.24-.06.54.22.75l.72-.87.36.16.34-.54.84-.14.14.26.14.26C320.18,287.6,320.18,287.6,320.61,287.36Zm57.5,36.57c-.56-1.2-1.48-1.31-2.17-.31a1.78,1.78,0,0,1-1,.77,2.16,2.16,0,0,0-.49.22c-.56.37-1.09.8-1.68,1.13q-2,1.13-4.09,2.18a11,11,0,0,1-1.59.55c.08.1.11.18.18.22A2.23,2.23,0,0,0,369,329c.57-.19,1.14-.36,1.69-.6a39,39,0,0,0,5.23-2.95,3.18,3.18,0,0,0,1.29-1.33l.36.26Zm-31.29-5.4,2.81-1.78c.21.64-.51.79-.63,1.23l.72.28c.32-.36.45-.88,1-.88.55-1.32,1.09-2.63,1.65-3.92a2.75,2.75,0,0,1,.46-.75c.7-.8,1.43-1.59,2.14-2.39a6.69,6.69,0,0,0,1.36-2.6,17.24,17.24,0,0,1-1.82,2.59l-.21-.34c-.12.1-.21.17-.29.25-.67.64-1.34,1.3-2,1.92-.32.3-.71.51-1,.81a1.86,1.86,0,0,0-.73,1l.48-.11c-.23.45-.39.83-.61,1.18a2,2,0,0,1-.52.49l-2.8,1.91a1.6,1.6,0,0,0-.31.37c.66-.08,1-.63,1.64-.79-.22.25-.47.45-.69.67S346.81,317.94,346.82,318.53Zm10.61-19.17c0-.35.36-.58.14-1a4.75,4.75,0,0,0-.29.4c-.25.49-.48,1-.75,1.48a2.22,2.22,0,0,1-1.93,1.34l-.22-.39c-.42.5-.8,1-1.23,1.43a4.79,4.79,0,0,1-1.2,1,1.27,1.27,0,0,0-.66.74l.73.38,2-2.4a8.06,8.06,0,0,1-2.28,3.22c.13,0,.21.07.26,0,.38-.21.76-.42,1.13-.66a2.73,2.73,0,0,1,1.19-.59.89.89,0,0,0,.73-.77,1.55,1.55,0,0,1,.62-1,14,14,0,0,0,3.3-3.72,3,3,0,0,0,.15-.36c-.68.2-.81.81-1.22,1.2,0-.28.31-.45.08-.78Zm5.79,27.07a5.09,5.09,0,0,1,.51-.3,2.82,2.82,0,0,1,.52-.11,22.56,22.56,0,0,0,4.91-1.39c.23-.1.54-.26.6-.45s.27-.33.48-.42a4.2,4.2,0,0,0,.85-.42.61.61,0,0,0,.24-.9l.39-.58-.1-.12-.5.23c-.19.09-.39.27-.57.25a1.06,1.06,0,0,0-.66.2,8.2,8.2,0,0,1-2.81,1.26c-.14,0-.27.16-.41.24l.06.09.37,0a23.83,23.83,0,0,0-4.38,2Zm-22.85-15.59.11.09q1.36-2.18,2.71-4.35l.13.07a18.66,18.66,0,0,1-2.08,4.2,1,1,0,0,0,.64-.61c.56-1.07,1.11-2.15,1.65-3.23a18.15,18.15,0,0,0,.81-1.66c.5-1.29,1-2.61,1.44-3.91a.54.54,0,0,0-.25-.74,8.7,8.7,0,0,0-1.5,2.24c-.29.69-.65,1.36-1,2a10.9,10.9,0,0,0-1.32,3.1,2,2,0,0,1-.23.55Zm-58.16-7.61c.19.55.38,1,.52,1.51.27,1,.56,1.95.75,2.94a5.34,5.34,0,0,0,.89,2.17,27,27,0,0,0,1.84,2,2,2,0,0,0,.42.27c.32-.47.32-.47,0-.77-.16-.15-.33-.29-.48-.45a5.33,5.33,0,0,1-1.21-1.66q-.45-1.26-.81-2.55a1.33,1.33,0,0,1,.13-1.09c.1.11.16.19.27.33a32,32,0,0,1-.24-4.43,5.43,5.43,0,0,0-.06-1.06s0,0,0,0h-.09c-.28.62-.63,1.23-.22,1.95,0,.1,0,.34,0,.38-.31.19-.15.44-.13.68,0,.91.48,1.86-.29,2.69-.26-.79-.53-1.58-.79-2.36C282.61,303.53,282.58,303.25,282.21,303.23Zm45.67-3.54a.65.65,0,0,0-.53.52,18.57,18.57,0,0,1-1.22,3.47,20.82,20.82,0,0,0-1,3.91s0,.07,0,.13c.23.14.43.16.55-.16l.47-1.16c.58-1.37,1.14-2.74,1.75-4.09A2.3,2.3,0,0,0,327.88,299.69Zm52,33.27a4.91,4.91,0,0,0-.66-.14,5.29,5.29,0,0,0-.69,0c.3-.79.56-1,.15-1.9l-.4.16c.1-.46-.32-.32-.53-.44,0-.15.13-.34.08-.4-.24-.32,0-.54.13-.77a3,3,0,0,0-3.22.6,3.37,3.37,0,0,0,1.45.61c.35.08.48.2.47.53,0,.05.05.11.08.17l.47,0c0,.17.08.31.12.44-.22.25-.61.33-.59.75.46.28.89-.22,1.37-.09a1.73,1.73,0,0,0-.19.34c0,.12-.09.29,0,.37a.47.47,0,0,0,.36.11c.24,0,.46-.12.7-.17a.62.62,0,0,1,.68.15L379,334A1.35,1.35,0,0,0,379.85,333Zm-28.32-43.59c-.29.74-.56,1.45-.83,2.15.21.15.31,0,.41-.11s.34-.44.49-.67.5-.32.85-.2c-.15.33-.62.29-.71.78l1-.54a7.34,7.34,0,0,1,1.05.48c.41.27.75-.08,1.26-.09a.86.86,0,0,0-.08,1.1.63.63,0,0,1,0,.71,2,2,0,0,0-.1.62l1.18-.43c0,.24-.08.42-.12.64.42-.11.47-.41.53-.69s-.08-.45-.4-.38a5.16,5.16,0,0,0-.55.17c0-.36,0-.66,0-1s0-.65,0-1-.07-.45-.4-.36-.51.17-.79.27c.14-1-.25-1.42-1.06-1.31l-.3-.28-.31-.33C352.11,289.4,352.08,289.41,351.53,289.37Zm-27,17.06.16,0,.13-.26a16.76,16.76,0,0,0,1.19-3.54c0-.13.06-.34.14-.36.29-.09.27-.34.26-.53a4.79,4.79,0,0,1,.23-1.46c.07-.23.16-.49-.12-.73a6.13,6.13,0,0,1-.63.78.88.88,0,0,0-.29.61c-.1.74-.18,1.48-.33,2.21-.18.89-.43,1.77-.64,2.65C324.57,306,324.55,306.22,324.51,306.43Zm43.28,15.33c0-.37,0-.66,0-1.09l-.63.62c-.21.18-.43.34-.64.51.26-.45.72-.77.61-1.38a2.27,2.27,0,0,0-.41.41,7.44,7.44,0,0,1-.59.67,5,5,0,0,1-1.51,1c-.23.09-.44.21-.27.55l.46-.06c.51-.07.94-.51,1.51-.33,0,0,.07,0,.1-.05ZM281.28,309c.18-.44-.31-.78-.08-1.26a4.13,4.13,0,0,0,1.35,2.4,4.28,4.28,0,0,1-.39-1.07,8.36,8.36,0,0,0-.22-1.43,2.29,2.29,0,0,0-.76-1.26c-.15.31-.53.41-.52.83s0,.94-.06,1.34Zm75.23-5.13.1.13c.31,0,.49-.28.69-.5l2.38-2.63a7.69,7.69,0,0,0,1.43-2.44c.06-.15.17-.33-.11-.49-.09.16-.18.31-.25.46a8.33,8.33,0,0,1-.68,1.37c-.77,1-1.6,2-2.43,2.93C357.29,303.15,356.89,303.52,356.51,303.91Zm-33.91,4.18.09,0c.33-1.42.68-2.84,1-4.27a4.83,4.83,0,0,0,0-1c-.61.29-.61.29-.67.78-.08.69-.16,1.38-.22,2.07S322.66,307.29,322.6,308.09Zm-41.88-9.27-.18,0a1.88,1.88,0,0,0-.18.48,10.52,10.52,0,0,0,.22,4,1.79,1.79,0,0,1,0,.23c0,.71.08,1.42.13,2.13a2,2,0,0,0,0,.26.32.32,0,0,0,.17-.25c0-.83,0-1.66-.16-2.47a13,13,0,0,1-.07-3.24A11,11,0,0,0,280.72,298.82Zm64.11-10.93a1.5,1.5,0,0,0-1.28,1.22c-.05.27-.21.51-.28.78s-.09.51-.15.87C344.36,290.1,344.54,289,344.83,287.89Zm-29.95-1.54-.14,0a4.15,4.15,0,0,0-.16.84c0,.69,0,1.38,0,2.08a1.25,1.25,0,0,0,.54,1.09A16.47,16.47,0,0,0,314.88,286.35Zm27.73,1.82a1.74,1.74,0,0,0-1.72.63,4,4,0,0,1,.81.55,4.46,4.46,0,0,1,.54.91A8.85,8.85,0,0,0,342.61,288.17Zm7.84.9-1.19-.21a.63.63,0,0,0-.1.64,2.67,2.67,0,0,1,.12.75c0,.19,0,.38,0,.61A3,3,0,0,0,350.45,289.07Zm8.24,36.69c1.52,0,4.05-1.27,4.41-2.07-.71.37-1.41.79-2.15,1.13S359.44,325.45,358.69,325.76Zm-4.76-10.57a2.55,2.55,0,0,0-.58,1.64c.71-.69,1.6-1.08,2-2-.11,0-.17,0-.19,0l-.67.62ZM303,306.24h.11a.52.52,0,0,0,.06-.16c-.11-.8-.22-1.6-.35-2.4-.07-.51-.17-1-.26-1.52-.05-.25-.11-.47-.43-.35.14.76.27,1.5.41,2.24S302.83,305.5,303,306.24Zm-3.44-15.58c.51.24.7.13.68-.34,0-.08-.07-.19,0-.22.31-.35,0-.75.11-1.13a1.86,1.86,0,0,0-.15-.67l-.63.5c.18.3.34.58.52.87Zm40.1.2-.51,1.06c.21,0,.4.09.51,0s.15-.26.18-.41-.05-.23,0-.32a2.82,2.82,0,0,0-.07-1.72c-.22.18-.39.33-.6.49Zm5.92-3.15c-.09.46-.18.87-.27,1.29l.68.26a2.29,2.29,0,0,0,.45-1.14Zm-31.22,1.13c0-.35,0-.71,0-1.06,0-.66,0-1.35.51-1.88,0,0,0-.15,0-.36a2.52,2.52,0,0,0-.21.35c-.23.63-.45,1.26-.66,1.9a3.52,3.52,0,0,0-.09.58C313.83,288.69,314,288.84,314.35,288.84ZM372.49,330a5.38,5.38,0,0,0,1.81-1.56,11.54,11.54,0,0,0-2,1.1ZM350.4,290.57a2.17,2.17,0,0,0,1-1.4h-.82C350.54,289.66,350.47,290.11,350.4,290.57Zm-28.67,16.92a5.82,5.82,0,0,0,.33-2.3c0-.05-.12-.1-.24-.19A11.67,11.67,0,0,0,321.73,307.49Zm-14-15.92.14.07c.08-.1.24-.2.23-.29a8.57,8.57,0,0,0-.36-1.83A3,3,0,0,0,307.76,291.57Zm-1.15-.67a2.25,2.25,0,0,0,.35-1.51c0-.24-.12-.36-.45-.24C306.65,289.71,306.12,290.29,306.61,290.9ZM383.88,334c-.5.08-.44.63-.74.89s-.57.6-.86.9l.12.1C383.28,335.6,383.48,334.73,383.88,334ZM349,288.87c-.46-.13-.45-.12-.59.11a1.83,1.83,0,0,0-.12,1.44C348.58,289.84,348.79,289.38,349,288.87Zm-28.42,18.74a2.44,2.44,0,0,0,.33-2.45c0,.48,0,.88-.08,1.28S320.69,307.22,320.61,307.61Zm38.79-2.3a3.55,3.55,0,0,0,1.32-2.16Zm13.82,23.32-.05-.12-2.43,1,0,.13A8.22,8.22,0,0,0,373.22,328.63Zm4.22-2.47c-.55,0-.73.13-.72.39s.17.31.77.22C377.48,326.58,377.46,326.39,377.44,326.16Zm-31.8-6.23a5,5,0,0,0,1.44-1.14c-.46.19-.9.42-1.33.65C345.57,319.54,345.5,319.68,345.64,319.93Zm18.29-13.77c.34.1.54,0,.61-.23s.08-.37-.17-.43-.54.12-.55.33A.71.71,0,0,0,363.93,306.16Zm-43.83,1.39a1.44,1.44,0,0,0-.05-1.5C319.88,307.06,319.88,307.08,320.1,307.55Zm50.45,11.79.07.14a2.92,2.92,0,0,0,.86-.3c.24-.18.65-.2.72-.69ZM368.3,309c-.05-.08-.1-.26-.21-.32a.51.51,0,0,0-.63.28.32.32,0,0,0,.23.41C367.93,309.4,368.16,309.3,368.3,309Zm-79.15-3.79a6.16,6.16,0,0,0,.58,1.87A3.47,3.47,0,0,0,289.15,305.16Zm37.93.23-.15-.06c-.3.76-.59,1.51-.88,2.27C326.31,306.83,326.89,306.19,327.08,305.39Zm50.05,32.9c.28.13.54,0,.59-.18a.39.39,0,0,0-.08-.35c-.14-.13-.52,0-.57.22A.9.9,0,0,0,377.13,338.29Zm-73.86-35.55a2.21,2.21,0,0,0,.61,1.79Zm77.37,34.32a1.69,1.69,0,0,0,1.12-.79C381.35,336.48,380.88,336.6,380.64,337.06ZM371,329.92c-.7-.09-.92,0-1.24.3C370.27,330.33,370.41,330.3,371,329.92Zm-31.17-40.67c0-.15,0-.3,0-.44-.55-.15-.6-.1-.64.45Zm-31.39-.69-.48.11a1.43,1.43,0,0,0,.3.92C308.31,289.28,308.37,289,308.44,288.56Zm12.16,22.27.14,0a2.39,2.39,0,0,0,.35-1.31C320.93,310,320.77,310.4,320.6,310.83Zm64.15,17.54a.56.56,0,0,0-.26-.7c-.09.25-.18.46-.26.68,0,0,0,.07.07.12Zm-7.91.12a1.48,1.48,0,0,0,1.1-.65C377.43,327.81,377.15,328.18,376.84,328.49Zm-76.58-41-.53.13a1,1,0,0,0,.13.34,1.2,1.2,0,0,0,.39.16Zm67.32,16.14c.05-.27.15-.58-.27-.66C367.12,303.34,367.33,303.51,367.58,303.65Zm7.36,24,.09.1a1.35,1.35,0,0,0,.86-.77Zm4.48-2.37a2.9,2.9,0,0,0,.46-.28.46.46,0,0,0-.09-.23,4.21,4.21,0,0,0-.48.12C379.34,325,379.37,325.08,379.42,325.27Zm-31.07-34.33c.45.07.48,0,.47-.83Zm18.06,13.43a.33.33,0,0,0,.57,0,.28.28,0,0,0,0-.25.36.36,0,0,0-.52.09S366.43,304.32,366.41,304.37ZM350.3,321.69a2.69,2.69,0,0,0-1.13.61A1.39,1.39,0,0,0,350.3,321.69ZM308.82,291H309c.2-.29.07-.56-.14-.83C308.82,290.43,308.82,290.7,308.82,291Zm54.73,24.08a.79.79,0,0,0,.7-.54C363.86,314.55,363.72,314.76,363.55,315.06Zm-27.32-26.91c-.13-.18-.18-.33-.26-.33a.47.47,0,0,0-.32.13s0,.22.07.23A2,2,0,0,0,336.23,288.15ZM320,308.94c-.07.33-.15.67-.23,1A.86.86,0,0,0,320,308.94Zm35.88-4c.43-.26.43-.26.51-.7C356.12,304.54,356,304.74,355.84,304.94Zm-3.92-17.18c-.14.1-.25.15-.3.23s.06.15.1.22a1,1,0,0,0,.27-.15S352,287.9,351.92,287.76Zm28.33,48.83c-.12-.13-.18-.25-.23-.25a1.7,1.7,0,0,0-.35.14c.05.07.09.21.14.21A2.15,2.15,0,0,0,380.25,336.59ZM324.73,307l.2,0,.15-.74-.12,0C324.89,306.5,324.81,306.74,324.73,307Zm43.88,14.43c-.23-.18-.36-.07-.51.12C368.34,321.74,368.48,321.65,368.61,321.41Zm17.06,11.72-.31.37C385.67,333.51,385.79,333.43,385.67,333.13Zm-63.09-51.82c-.22-.08-.35,0-.35.22a.2.2,0,0,0,.16.12C322.59,281.63,322.65,281.5,322.58,281.31Zm25,5.18c-.09-.1-.16-.21-.21-.2a.51.51,0,0,0-.25.17s.09.19.13.19A1.9,1.9,0,0,0,347.56,286.49Zm3.3-.16c-.11.1-.2.14-.23.21s.05.12.08.19.16-.08.2-.14S350.88,286.46,350.86,286.33ZM305,289l-.14.06c.08.17.16.35.25.52C305.15,289.39,305.22,289.16,305,289Zm43.5-3.17.09-.18c-.13-.14-.36-.08-.57-.05Zm-60,20.07.07,0-.22-.48-.09.05Zm94.72,22.32,0-.17c-.1,0-.2.05-.3.09s0,.1,0,.16Zm-99.94-18.33.11-.05-.25-.33-.06.05Zm13.54-11.59.11,0v-.4h-.07C296.89,298.05,296.88,298.19,296.86,298.34Zm17.22-8.22-.17.05.12.56.14,0Zm40,26.65-.11-.13-.38.34.1.12Zm20.22-2.92-.07.09.2.11s.05-.06,0-.07A1.09,1.09,0,0,0,374.29,313.85Zm-80.92-21.08.1-.13-.26-.15-.06.08ZM351.19,287l.26-.25s0-.08-.07-.08S351.12,286.74,351.19,287Zm12.22,36.34-.07.12.19.14.08-.12Zm-92.13-20.62-.09,0s-.09.05-.09.08a1.16,1.16,0,0,0,0,.18Zm87.92,3-.1-.07-.19.27.1.07Zm1.93-10.41-.11,0a.35.35,0,0,0,.05.13l.08,0A.77.77,0,0,0,361.13,295.31Zm-14.55-7.63c.06.08.09.16.11.16a.42.42,0,0,0,.17-.1s-.05-.12-.07-.12A.76.76,0,0,0,346.58,287.68ZM280.37,304.2h.06l0-.25h-.07Zm98.83,33.64.07.11.26-.21-.06-.07Z" style="fill:#ebebeb"></path><path d="M315,324.76a.78.78,0,0,1,1,0c.57.28,1.14.57,1.72.84a.66.66,0,0,1,.44.69,1.48,1.48,0,0,0,.07.37l.83-.08c0,.25-.07.46-.11.67-.14.78-.28,1.56-.43,2.34,0,.3-.1.62-.53.58.06.41.12.76.16,1.11a1.87,1.87,0,0,1-.36,1.35,1.29,1.29,0,0,0-.25.59c-.1,1.3-.17,2.61-.26,3.94l.53.11a4.55,4.55,0,0,0,.54-1.59c.22-1.31.4-2.63.63-3.94a6.64,6.64,0,0,1,.38-1.37,3.4,3.4,0,0,0,.25-1.21,3.28,3.28,0,0,1,.67-2,1.11,1.11,0,0,1,1.38-.5,4.19,4.19,0,0,0,.42.1c.21.32-.34.82.32,1,.22-.48.42-.92.63-1.4a5.06,5.06,0,0,1,1.52.71,1.22,1.22,0,0,1,.36.66c.12.4.18.81.27,1.25l.55-.06.31-1.33,1.27,1.26.83-.8c.15.58.58.66,1.05.72.81.09,1.61.25,2.42.33a.82.82,0,0,1,.74.59,3.34,3.34,0,0,1-.23,3.2,10.09,10.09,0,0,0-1,2.66c-.12.4,0,.89-.11,1.34a9.73,9.73,0,0,0-.27,1.63q.93-2.42,1.88-4.83h.05l-1.81,5.59a11.52,11.52,0,0,0-.38,4.78.8.8,0,0,0,.08.12c.26-.37.51-.72.75-1.1a.64.64,0,0,0,0-.34c0-.36,0-.72-.08-1.07a12,12,0,0,1,.82-5.31c.38-.92.79-1.83,1.15-2.75a10.54,10.54,0,0,0,.34-1.13c.21-.77.42-1.54.65-2.3,0-.11.15-.26.25-.27s.24.11.3.22c.28.5.54,1,.8,1.53l.25.47c.28,0,.42-.14.36-.43a1.93,1.93,0,0,1,.44-1.61l.91-1.26c.6,1.06,1.18,2.05,1.78,3.09.31-.36.56-.68.87-1.05l1.1,1.86c.3,0,.39-.09.38-.34,0-.68,0-1.36,0-2,0-.25,0-.44.38-.42l.81,2.09c.88-.11.64-1,1.06-1.42.52.34.58,1.15,1.3,1.34l.32-.56h.64a2.52,2.52,0,0,1,2.19-1.62c1.15-.22,2.31-.37,3.51-.55.16.53.3,1,.45,1.49l.12,0c.1-.38.19-.77.28-1.16a1,1,0,0,1,1,.46l.76,1.28a.9.9,0,0,0,1.06.54,1.07,1.07,0,0,1,1.18.52c.18.28.33.59.5.89s.25.44.39.68c.4-.09.79-.51,1.17-.18a4.81,4.81,0,0,1,.74,1l.14-.54a3.27,3.27,0,0,1,1.53,1,7.71,7.71,0,0,1,1.37,2.15,2.17,2.17,0,0,0,.88,1c.56.34,1.09.71,1.65,1.08.47-.52,1-.26,1.43-.13a.9.9,0,0,1,.46.27,11,11,0,0,0,2.12,1.59,4,4,0,0,0,.89.47.67.67,0,0,1,.44.57c.28,2,.58,3.92.88,5.87a3.82,3.82,0,0,1,.06.83,5.66,5.66,0,0,1-.44-1.72c-.11-.58-.21-1.16-.38-1.74a5.66,5.66,0,0,0,0,2.05c.16.74.35,1.47.56,2.19a1,1,0,0,0,.35.45,1,1,0,0,1,.47,1,1.84,1.84,0,0,0,0,.41c0,.1,0,.23,0,.29a2.84,2.84,0,0,1-1.12.94,12.53,12.53,0,0,0-2,.75,2.41,2.41,0,0,1-1.5.05c-.09,0-.2-.18-.25-.3a5.35,5.35,0,0,1-.21-.68c0-.17-.08-.31-.32-.29l-.16.41c-.63.11-.79.41-.55,1l.19.52a1.88,1.88,0,0,1-1.09-1.09c-.26-.85-.5-1.72-.73-2.58a1.29,1.29,0,0,1,.16-1,.76.76,0,0,0,.08-.67,13.33,13.33,0,0,1-.22-1.41c-.08-.59-.13-1.18-.2-1.77-.38-.07-.38-.07-.54.61a13.33,13.33,0,0,0-.07-1.79h-.14a6.18,6.18,0,0,0-.24,1.18c0,1.33,0,2.66.09,4a2.85,2.85,0,0,0,.18.68,1.91,1.91,0,0,1,.13.45c.08,1.29.14,2.58.2,3.87a1.67,1.67,0,0,1-.06.38c-.66.1-1-.46-1.52-.66l-.51.68c-.11.14-.22.32-.36.38-.47.2-1,.36-1.47.54l-.48-.92-.68,1.14a1,1,0,0,1-.74-.85,10,10,0,0,1-.13-1.24,2.27,2.27,0,0,0-.36-1.23,2.14,2.14,0,0,0,0,.37,9.91,9.91,0,0,1,.09,1.71,4,4,0,0,1-1.21,2.47,3.11,3.11,0,0,1-1.69.67c-.38.06-.76.08-1.17.12,0,.19.08.38.13.59a1.22,1.22,0,0,1-1,.39,4.29,4.29,0,0,0-1.5.24,5.25,5.25,0,0,1-1.59.18c-.12,0-.26-.15-.37-.23s-.11,0-.13.07c-.2.17-.27.48-.64.46a1.73,1.73,0,0,1-1.12-.32c-.11-.1-.24-.2-.38-.31-.52.41-1,.82-1.58,1.23l-.65-.6c-.41.2-.41.2-.47.84L343,361c-.22-.19-.26-.75-.86-.47.11.25.21.5.33.79l-.54.16c-.3-.18-.31-.74-.87-.55,0,.19,0,.39.06.67a2.25,2.25,0,0,1-.63,0,9.52,9.52,0,0,0-1.77,0,7.26,7.26,0,0,1-3.32-.92c-.44-.06-.83-.09-1.21-.15a5.47,5.47,0,0,1-.7-.16.64.64,0,0,0-.61.09,2.9,2.9,0,0,1-2,.37,4,4,0,0,1-.9-.36,1.16,1.16,0,0,1-.33,0c-.71-.1-1.42-.21-2.12-.34a3.85,3.85,0,0,1-1.08-.31,4.17,4.17,0,0,0-1.9-.4,1.79,1.79,0,0,1-.47,0,.46.46,0,0,1-.23-.28c-.1-.37-.15-.4-.46-.15a1.2,1.2,0,0,1-.87.36,1.56,1.56,0,0,1-1.38-.76c-.2-.33-.42-.36-.78-.3l.16.67c-.29,0-.45-.06-.46-.37s0-.63,0-.95-.09-.44-.13-.65a8.28,8.28,0,0,0-1.49.39c-.26.13-.43.47-.7.79a.57.57,0,0,0-.26,0,1.25,1.25,0,0,1-1.35-.34,1,1,0,0,0-1-.23l-.29.06c-.68.1-.78,0-.6-.74-.55-.18-1.11-.37-1.68-.54s-1.44-.45-2.17-.65a11.36,11.36,0,0,0-1.16-.24c-.46-.06-.54-.15-.47-.61s.05-.42-.27-.71c-.31.22-.24.6-.36.93-.33-.11-.41-.4-.5-.64a.59.59,0,0,0-.7-.47,2,2,0,0,1-1.85-.87c-.27-.37-.56-.72-.83-1.05-.08,0-.13,0-.15,0a1.18,1.18,0,0,1-1.43.15c-.74-.29-1.49-.56-2.23-.86A4,4,0,0,1,298.7,350a5,5,0,0,0-1.83-1.67c-.05,0-.07-.08-.17-.21.36-.94.75-1.93,1.13-2.91l-.13-.06c-.42.33-.39.89-.63,1.31a15.05,15.05,0,0,0-.63,1.41c-.66-.65-.61-1.35.14-2.6-.32-.28-.4-.29-.59,0s-.32.55-.48.82-.24.41-.37.65c-.63-.46-1.21-.91-1.81-1.32a.52.52,0,0,1-.2-.72c.12-.27.23-.55.33-.83a1.65,1.65,0,0,0,.06-.32l-.12-.05c-.19.44-.38.88-.58,1.32a1.25,1.25,0,0,1-.5-1.63c.39-1,.75-1.93,1.09-2.91a15.74,15.74,0,0,0-1.51,3.49l-2-1.28c0-.38.36-.83.07-1.34l-.38.1c0-.05-.08-.11-.07-.15a7.88,7.88,0,0,1,.16-.87c.19-.61.39-1.21.63-1.79a6.34,6.34,0,0,1,.49-.82c.11-.2.25-.41,0-.7a4.75,4.75,0,0,0-1.35,1.83c-.35.69-.65,1.4-1,2.17-.44-.2-.6-.62-.81-1-.1-.16.16-.36.53-.42-.13-.41-.06-.93-.69-1.08l-.2.44-1-.08c-.13-.42-.29-.86-.4-1.31,0-.17.06-.37.05-.56,0-.41-.08-.82-.14-1.23a3.5,3.5,0,0,1,.44-1.93c.11-.25.18-.51.3-.85l-.75.11a1.35,1.35,0,0,1,.05.47c-.18.63-.38,1.25-.6,1.87-.05.14-.22.23-.35.37l.23.25.24-.2c.09.81.19,1.59.3,2.51l-.76-.87c.53-.54-.07-.87-.19-1.38l-.31.25c-.08-.11-.16-.21-.23-.32s-.08-.29-.17-.38a3.54,3.54,0,0,1-.83-1.86,2.75,2.75,0,0,1,0-.52h0a6.61,6.61,0,0,1-1.95-1.55c-.89-.89-1.6-1.91-2.4-2.86a1.82,1.82,0,0,1-.36-1.15,4,4,0,0,0-.82-2.39c-.18-.27-.32-.58-.53-.84s-.64-.21-.8-.55c0-.07-.18-.07-.26-.12a6.4,6.4,0,0,1-.53-.39c.61-.48,1.29-.75,1.62-1.48-.42.21-.76.4-1.12.57-.52.26-.54.25-1-.24.58-.58,1.34-1,1.74-1.86l-1.15.83a6,6,0,0,0-.52-.92.78.78,0,0,1,0-1.06c.46-.7.9-1.42,1.37-2.15-.29-.11-.39.08-.49.24-.39.58-.77,1.16-1.16,1.73-.18.28-.37.55-.61.9a.73.73,0,0,0-.7-.64c-.47-.09-.52-.33-.18-.68s.87-.81,1.27-1.24a3.18,3.18,0,0,0,.51-.78.59.59,0,0,1,.6-.4c.6.06,1.2.17,1.79.27a.87.87,0,0,0,.74-.05.41.41,0,0,1,.55.07.92.92,0,0,0,.88.34c.11,0,.23.06.34.1l1,.4-.25.47.05,0a3.78,3.78,0,0,1,.39-.41.56.56,0,0,1,.91.12,1.21,1.21,0,0,1,.22,1.11,4.38,4.38,0,0,1-.57,1.48,2.24,2.24,0,0,0-.24.67c0,.14-.05.39,0,.45.38.3.16.6.05.9s-.22.59-.31.89a18,18,0,0,0,2.1-4.09c.05-.15.11-.3.17-.45a1.21,1.21,0,0,1,1-.87,1.45,1.45,0,0,0,.79-.35,2.32,2.32,0,0,1,1.64-.43c.28,0,.55,0,.83,0a2.44,2.44,0,0,1,1.44.48.58.58,0,0,0,.72,0,1.32,1.32,0,0,1,1.25-.08c.24.07.5.08.74.14a.71.71,0,0,0,.77-.31,1.59,1.59,0,0,1,1.07-.59.72.72,0,0,1,.5.1c.45.49,1.12.34,1.64.6.19.1.5,0,.75-.1a2.24,2.24,0,0,1,1.4,0,1.05,1.05,0,0,0,.47,0c.26,0,.51-.05.84-.09l-.26.5a.47.47,0,0,0,.15.06,12.21,12.21,0,0,1,7,1.84,1.31,1.31,0,0,0,1,.23l.85.82c-.24.13-.46.23-.68.36a5.23,5.23,0,0,0-1.78,1.81,15.33,15.33,0,0,0-1.05,1.73c-.12.24-.42.16-.5.42a3.42,3.42,0,0,1-.35.75c-.15.25-.34.48-.51.72a.59.59,0,0,0-.12.27,3.21,3.21,0,0,1-.57,1.48c-.17.36-.49.7-.11,1.14.08.09,0,.34-.07.53-.26-.06-.34-.42-.67-.18,0,.5.33.88.5,1.33s.34.87.51,1.3l.12,0a1.58,1.58,0,0,0,0-.37c0-.24-.1-.47-.14-.7a.6.6,0,0,1,0-.35c.17-.34.38-.67.64-1.12l-.19,1,.1,0c.19-.64.39-1.27.57-1.91s.34-1.29.52-2c.22.05.39,0,.45-.23a1.52,1.52,0,0,1,.53-.77c.23-.2.5-.42.21-.8,0-.07.07-.29.16-.4q1.11-1.35,2.25-2.7l.66-.76a.46.46,0,0,1,.68-.13c.52.39,1.2.64,1.37,1.39.1.4.5.41.81.56l0,.52.53,0c.25.25.11.48,0,.72-.27.68-.53,1.37-.79,2.05l.13.07,1-1.42.2.32.57-.77.13.08a19,19,0,0,0-1.08,2.4l.12.07,2-3.45C314.89,323.77,315,323.94,315,324.76Zm21.24,17.94c.25-.38.25-.4.05-.82,0,.3,0,.56,0,.82s.07.51.13.89C336.49,343.17,336.51,342.9,336.21,342.7Zm-16.3-10.33a1.28,1.28,0,0,0,.17-1c-.06.34-.11.68-.16,1l-.15,1.28C319.91,333.23,320.13,332.81,319.91,332.37Zm-29.79-1.27c-.12-.24-.12-.24-.41-.12l.43.11c-.22.11-.53.08-.62.44C290.05,331.49,290.05,331.49,290.12,331.1Zm57.69,8.21a5.12,5.12,0,0,0-.47-1.17,4.65,4.65,0,0,0,.26,1.13s.13,0,.2,0c-.32.23-.05.55-.11.82-.34-.67-.54-.76-1.3-.61,0,.15.06.31.1.46q.31,1.26.66,2.52a1.36,1.36,0,0,0,.21.54c.39.47.82.9,1.25,1.36l.73-.29a.61.61,0,0,0,0-.22.9.9,0,0,1-.05-.94,1.56,1.56,0,0,0,0-.8c-.08-.35-.24-.67-.35-1s-.15-.61-.21-.92a7.36,7.36,0,0,0-.12-.82c-.35-1-.72-2-1.09-3a2,2,0,0,0-.16-.29C347.48,337.17,347.64,338.24,347.81,339.31Zm-62.87-10.82c.27-.26.27-.26,0-.48,0,.2,0,.34,0,.48s0,.21,0,.22c.35.16.32.5.37.74s.46.32.45.36c-.15.32.19.3.29.43s.3.15.52.25c-.07.39-.15.81-.23,1.26a8.88,8.88,0,0,1,.39-.82.36.36,0,0,1,.29-.1c.07,0,.16.12.18.2a1.87,1.87,0,0,1,0,.41l1,.38.05-.07-.58-.52c.07-.19.14-.37.22-.55.22-.55.47-1.08.68-1.64.48-1.25.94-2.51,1.4-3.77a7.58,7.58,0,0,0,.21-.82l-.12-.08-1.19.92-.14-.19-.76.19c0,.14,0,.32.07.49a2.08,2.08,0,0,0-.71,1.43c0,.16,0,.35-.26.39,0-.28.06-.54.08-.8l-.1,0-.42.38c-.05-.39-.05-.39.12-.62.35-.45.35-.45,0-1l-.59.61a.61.61,0,0,1,.05.18c0,.56.1,1.13.09,1.69s-.36.67-.83.57Zm6.06-1.6-1,.41a3.79,3.79,0,0,0,.46.59,3,3,0,0,0,.69.42,1.52,1.52,0,0,0,.47,0c0,1.32-.08,2.58,0,3.77l.9.35a4.3,4.3,0,0,0-.41.84c-.06.26-.39.47-.17.85.2-.32.39-.57.54-.85s.48-.44.45-.83c0-.06.19-.19.31-.2.31,0,.44-.19.35-.47a.61.61,0,0,1,.22-.63,4.19,4.19,0,0,1,.45-.39.91.91,0,0,0,.26-1.06,1,1,0,0,1-.06-.57,1.2,1.2,0,0,0-.29-1.05,1.36,1.36,0,0,1-.23-.83c0-.41-.05-.82-.08-1.23,0-.14-.09-.29,0-.4a14.65,14.65,0,0,1,.72-1.73c.42-.8.45-.79-.12-1.47a6.14,6.14,0,0,0,.22-.73c0-.22.42-.36.16-.69-.09.08-.19.12-.23.2a3,3,0,0,1-.87.87,14.55,14.55,0,0,0-1.12,1,4.72,4.72,0,0,0-.54.76,1.82,1.82,0,0,1-.54,1.8C291.2,325.92,290.71,326.25,291,326.89Zm14.81.68c-.2.51-.39,1-.57,1.47a2.09,2.09,0,0,0-.26,1.47,7.78,7.78,0,0,0,.66-1.24c.26-.58.48-1.17.73-1.75a1,1,0,0,1,.57-.61,15.82,15.82,0,0,1-.75,2.94.49.49,0,0,0,.05.51,30.11,30.11,0,0,0,.87-2.9,8.65,8.65,0,0,1,1-2.66,6.62,6.62,0,0,0,.53-1.32c0-.09,0-.21,0-.44a6.36,6.36,0,0,0-.61.52c-.5.59-1,1.18-1.47,1.8a15.64,15.64,0,0,0-1,1.53C305.28,327.26,305.34,327.33,305.81,327.57Zm55.06,26c.12-.18.28-.3.3-.45a19.87,19.87,0,0,0,.22-2.18c0-.89,0-1.78,0-2.67s0-2,0-3a1.56,1.56,0,0,0-.39-1,38.35,38.35,0,0,0-.25,7.94l-.34-.41C360.43,352.36,360.31,353,360.87,353.55ZM356,351.08c.15-.48.31-.93.42-1.38.18-.75.34-1.5.49-2.26a12.52,12.52,0,0,0,.28-4.48,2.53,2.53,0,0,0-.22-.51l-.14,0a5.36,5.36,0,0,0-.3,1.83,25.2,25.2,0,0,1-.11,2.61c-.16,1.22-.42,2.42-.64,3.63C355.75,350.73,355.65,350.94,356,351.08Zm11.58-6.43c-.1.17-.16.22-.15.26.13.86.21,1.73.42,2.56a10.43,10.43,0,0,0,1.38,3.32,1.61,1.61,0,0,0-.09,1.6l.86-.54c-.51-1.14-1.12-2.23-1.51-3.4S367.9,346,367.58,344.65Zm-65.74-11.41a19.73,19.73,0,0,1,.28,2c.05,1.34,0,2.69.06,4a1.85,1.85,0,0,1,0,.23l.2-.06a2.56,2.56,0,0,0,.05-.27c0-.45.06-.91.07-1.36,0-.72.08-1.43,0-2.14a21.68,21.68,0,0,1,0-2.28c0-.17,0-.33,0-.62ZM329.91,346l.11,0c-.07-1.35-.21-2.7-.17-4.05s.27-2.71.4-3.95a10,10,0,0,0-.75,4.47c0,.52,0,1,.07,1.54s.1,1.19.17,1.78C329.75,345.79,329.85,345.87,329.91,346Zm-14-1.2c-.36.65-.42,1.4-.81,2.07l.3,0c-.18,1.06-.37,2.11-.55,3.16-.07.45-.14.91-.17,1.36a5.2,5.2,0,0,0,.09.77C315.24,349.65,315.42,347.19,315.87,344.75Zm-23-27a9.08,9.08,0,0,0-1.62,2.24.61.61,0,0,1,0,.11c-.08.22-.17.44-.26.65s-.28.6-.43.9a8.74,8.74,0,0,1-.56,1.15c-.21.33-.24.36.13.76.21-.51.43-1,.63-1.49a20.71,20.71,0,0,1,1.26-2.86Zm24,12.39a7.37,7.37,0,0,0-1.17,4.68c.16-.52.24-1.06.36-1.59s.26-1,.4-1.54A4,4,0,0,0,316.89,330.18Zm-32.25-.66-.38-.66a2.24,2.24,0,0,0-.4,2.18s.06,0,.13,0l.15-.46c.29-.05.61.17.83-.23h-.34c-.09,0-.18-.05-.26-.06C284.21,329.77,284.21,329.77,284.64,329.52Zm42.75,12.26-.12-.07a13.68,13.68,0,0,0-1,2.21,1.92,1.92,0,0,0-.25,1.35C326.5,344.07,326.94,342.92,327.39,341.78Zm3,2.74-.2,0a23,23,0,0,0,.68,3.69l.15,0Zm-46.21-17.87c-.27-.09-.29-.47-.69-.42.3.44,0,.71-.21,1,.31.5.31.5.72.34C284,327.26,283.73,326.92,284.18,326.65Zm75.49,20.78-.15-.05a2.54,2.54,0,0,0-.15.85c.08.65.24,1.3.37,1.94h.13C359.8,349.25,359.73,348.34,359.67,347.43Zm.39-3.24a12.16,12.16,0,0,0-.06,3.18A7.62,7.62,0,0,0,360.06,344.19Zm-4.16-.42c-.16.11-.27.15-.29.22a11,11,0,0,0-.22,2.29l.16,0Zm.76-3.79c0,.24,0,.49,0,.73s0,.47,0,.71c0,.4,0,.4.23.61A2.44,2.44,0,0,0,356.66,340Zm-62.74,5.6.18.09,1-2.43C294.35,343.91,294.29,344.82,293.92,345.58ZM279,317.39l-.13-.11a8.74,8.74,0,0,0-.73.88c-.22.32-.7.45-.66,1A8.94,8.94,0,0,0,279,317.39Zm1.34,7.21-.77,1,.1.09.54-.48.45.41c.05-.23.08-.42.12-.59Zm48,18.18a2.75,2.75,0,0,0,.35,2.13A14.34,14.34,0,0,0,328.39,342.78Zm-45.51-19.37.12.15c.14-.05.37-.07.41-.16a.6.6,0,0,0-.21-.68Zm33.94,18.91a1.22,1.22,0,0,0-.43,1.25A3,3,0,0,0,316.82,342.32Zm50.7.2a1.55,1.55,0,0,0,.05,1.43A2.32,2.32,0,0,0,367.52,342.52Zm-21.27-7.72a2.38,2.38,0,0,0,.62,1.81C346.67,336,346.48,335.47,346.25,334.8ZM279.82,324c-.85.84-1,1.12-1,1.6A7.06,7.06,0,0,0,279.82,324Zm5.94-2.31c0,.25-.06.46-.09.69.57.11.31-.48.57-.6,0,0,0-.06,0-.12Zm69.48,26.11a1.08,1.08,0,0,0,.11-1.22A2,2,0,0,0,355.24,347.82Zm-57.49-5.19c.16.52.2.55.84.6C298.36,343,298.24,342.6,297.75,342.63Zm2.78-7.36c-.11-.18-.17-.39-.24-.4a.41.41,0,0,0-.36.2c0,.09.08.27.19.35S300.33,335.35,300.53,335.27Zm-16.12-9,.19.69.46.12A.9.9,0,0,0,284.41,326.29Zm-3.12,3.29c.06-.34.06-.34.34-.6l-.74-.13Zm9.17,1.29.11.05.51-.42,0-.13c-.15,0-.38-.08-.45,0S290.5,330.69,290.46,330.87Zm-9.07-7.39c-.25.42-.44.77-.7,1.22C281.13,324.35,281.44,324.07,281.39,323.48Zm32.85,25.62.08,0c.24-.63.49-1.25.73-1.88l-.08,0C314.73,347.85,314.49,348.47,314.24,349.1Zm-31.59-22.77c0-.13-.07-.28-.13-.3a.32.32,0,0,0-.28.1.72.72,0,0,0,.09.34Zm33.13,4a1.17,1.17,0,0,0-.47,1.06C315.47,331,315.62,330.65,315.78,330.3ZM314,347.62a1.2,1.2,0,0,0-.38,1.31C313.79,348.47,313.91,348,314,347.62ZM290.45,329.2l-.08-.19-.43.15c0,.06.07.19.08.19S290.31,329.25,290.45,329.2Zm26.61,3,.1,0,.39-1.33-.08,0Zm-.19-5.76c.15-.15.28-.22.31-.32s-.09-.26-.13-.26a.44.44,0,0,0-.31.15C316.7,326.06,316.8,326.2,316.87,326.41Zm-36.08.38c.36-.2.5-.4.32-.82ZM282.6,324c.37.19.37.19.63-.12Zm2.14-3.23a.46.46,0,0,0,.14.65l.16-.07Zm.49-1.86c-.33.07-.33.07-.22.44.08-.11.15-.19.21-.28A.42.42,0,0,0,285.23,318.93Zm-3.35,11c.05.4.05.4.4.43ZM357,351.42c-.2.32-.06.53,0,.81C357.29,351.91,357.08,351.71,357,351.42Zm-67.88-20.09-.14,0c-.13.11-.2.23,0,.48Zm-9.24-12.27.07.05.4-.58-.06,0Zm11.08,3.13.12.05c.06-.14.11-.27.16-.41l-.1,0Zm-8.74,1.35.2,0,.06-.4-.17,0Zm-.94,3.79c.26-.09.26-.26.19-.45,0,0-.06,0-.1,0Zm10.51-6.4-.14-.07-.21.42.1.06Zm44.49,24.53h.14l0-.45h-.13C336.28,345.15,336.27,345.3,336.25,345.46Zm-53.59-23.9.12.07c0-.16.27-.24.1-.57Zm-1.4,3.43h.1l.06-.37-.13,0Zm8.81,3.11c0-.11,0-.17,0-.2a.18.18,0,0,0-.14,0s-.06.12-.05.13A1.25,1.25,0,0,0,290.07,328.1Zm-11.7-1.88c.1-.13.17-.18.19-.25a.94.94,0,0,0,0-.24C278.3,325.8,278.24,325.91,278.37,326.22Zm4.45.89-.1-.11a2.2,2.2,0,0,0-.2.23l.07.07Zm2.81-7.35-.15.06a1.64,1.64,0,0,0,0,.23Zm42.7,22.41.05.05c.06,0,.14-.07.17-.13a.78.78,0,0,0,0-.22l-.1,0Zm-.83-1,.11.08.25-.29s-.06-.08-.13-.16Zm-43.37-19.61v-.11h-.35v.09Zm-.59,8c-.09,0-.17.05-.18.08a.2.2,0,0,0,.05.15s.1,0,.15,0Zm-1.73,1.17a1,1,0,0,0-.12-.2s-.13,0-.13.05a.39.39,0,0,0,.06.19S281.72,330.8,281.81,330.78Zm23.79,4.56,0-.09-.26-.1,0,.09Zm-18.78,2.84.08-.07-.19-.23-.07.05Zm-3.05-14c-.11.07-.17.09-.16.1a1.21,1.21,0,0,0,.05.18Zm52.52,20.29.11,0,0-.29h-.1C336.28,344.26,336.29,344.36,336.29,344.47Zm-52.51-21.9c0-.07-.06-.14-.1-.15s-.08,0-.13,0,0,.11.07.14S283.71,322.59,283.78,322.57Zm10.8,3.21-.14-.24s-.1.06-.1.09a.14.14,0,0,0,.06.13S294.5,325.77,294.58,325.78Zm-10.14-4.68a1.26,1.26,0,0,0-.2-.14.11.11,0,0,0-.1,0,.38.38,0,0,0,0,.15Zm-2,1.51s.07,0,.08,0a.47.47,0,0,0,0-.09s-.07,0-.08,0S282.41,322.58,282.42,322.61Zm12.07,5,.09.12s.05-.05.05-.08a.09.09,0,0,0-.05-.08S294.53,327.6,294.49,327.62Zm-3.13,1.84c-.07,0-.14.06-.14.09a.28.28,0,0,0,0,.15c.05,0,.13,0,.14-.05A.54.54,0,0,0,291.36,329.46Zm-5.88-8.75-.11-.06-.11.23.07,0Zm-8.09-1.38-.1-.11-.19.27.07.06Zm5.29,2.95h.12a.51.51,0,0,1,0-.1.32.32,0,0,0-.14,0Zm5.87,2.19h-.1l0,.25h.15Zm56.29,35.46c.07-.07.13-.11.12-.12a.94.94,0,0,0-.09-.12Z" style="fill:#ebebeb"></path><path d="M375.17,349.81c-.54-.28-.37-1-1-1.16-.05.22-.08.39-.14.66l-.58-.54c0,.32-.59.2-.47.64.08.29.21.56.34.91l-.56.37a9.07,9.07,0,0,1-1.1-4.9c.09-.67.11-1.35.16-2a.87.87,0,0,1,.09-.4.66.66,0,0,1,.33-.31c.34-.13,1,.41.94.76a9,9,0,0,0,0,2.14c0,.31.07.63.08,1a1.85,1.85,0,0,0,.69,1.27c.18-.28.06-.52,0-.77a8.69,8.69,0,0,1,.22-3.48c.17-.53.35-.55.9-.41a1.55,1.55,0,0,1,1.28,1.31,6.36,6.36,0,0,1,.38,2.2l-.4-.2c-.38.35-.41.48-.26.87l.22.56C375.94,348.81,375.24,349,375.17,349.81Z" style="fill:#ebebeb"></path><path d="M274,316.61l-.7,1c-.05.07-.11.16-.17.16-.49,0-.71.51-1.13.67a2,2,0,0,0-.51.39c-.48-.2-.48-.2-.63-.6l.45-.1-.05-.37-.56.09a2.23,2.23,0,0,1,1.2-.93,1.49,1.49,0,0,0-.36-.14c-.31,0-.63.05-.94.1a1.68,1.68,0,0,1-1.05-.31c.16-.28.61-.08.64-.51l-.8.16v-.95c.17-.18.55-.09.48-.5l-.55-.27c0-.18,0-.38.05-.59a.84.84,0,0,1,.23,0l4.19,1.53a.71.71,0,0,1,.5.6c0,.28,0,.47-.31.56,0-.11.06-.21.09-.35l-2.25,1.31A3.09,3.09,0,0,0,274,316.61Z" style="fill:#ebebeb"></path><path d="M378.51,343.44a5.35,5.35,0,0,0-.77,3.05c-.4-.06-.4-.06-.49-.38a1.21,1.21,0,0,0-.08-.34,2.93,2.93,0,0,1,0-2.14.41.41,0,0,1,.52-.36C377.92,343.3,378.17,343.37,378.51,343.44Z" style="fill:#ebebeb"></path><path d="M380.9,346.37a7.19,7.19,0,0,1-.09-2.09c0-.3.25-.41.5-.24a1.59,1.59,0,0,1,.27.33,1.22,1.22,0,0,1,1-.22,3.52,3.52,0,0,1-.17.38c-.19.32-.37.65-.57,1a2.51,2.51,0,0,1-.36.37Z" style="fill:#ebebeb"></path><path d="M268.39,304.19a2.18,2.18,0,0,1,.65,1.75c0,.1-.21.27-.35.32s-.27-.07-.4-.12,0,0,0-.05a.93.93,0,0,1-.09-1.39A2.06,2.06,0,0,0,268.39,304.19Z" style="fill:#ebebeb"></path><path d="M281.91,321.28l.75-2.31.15,0A4.88,4.88,0,0,1,281.91,321.28Z" style="fill:#ebebeb"></path><path d="M378,347.67l-.4,0c0-.28,0-.54-.06-.8C378,347.05,378,347.05,378,347.67Z" style="fill:#ebebeb"></path><path d="M338.72,287.43c.22.37.22.37,0,.79C338.46,288,338.51,287.74,338.72,287.43Z" style="fill:#ebebeb"></path><path d="M291.81,290.69c0,.19.4.42-.08.59C291.64,291.06,291.56,290.87,291.81,290.69Z" style="fill:#ebebeb"></path><path d="M270,317.21l.62.07C270.39,317.62,270.39,317.62,270,317.21Z" style="fill:#ebebeb"></path><path d="M368.93,304.42c-.06.11-.12.21-.17.32h-.09a.62.62,0,0,1,0-.23c0-.06.11-.1.16-.15Z" style="fill:#ebebeb"></path><path d="M271.16,301.74l-.54.13c.19-.27.19-.27.54-.13Z" style="fill:#ebebeb"></path><path d="M353.59,311.26a1.8,1.8,0,0,1-.25.45c-.39.34-.8.66-1.27,1C352.22,312.29,352.49,312,353.59,311.26Z" style="fill:#ebebeb"></path><path d="M369.54,323.19c-.08.38-.34.45-.67.38Z" style="fill:#ebebeb"></path><path d="M276.43,308.22l0,.8C276.15,308.73,276.18,308.54,276.43,308.22Z" style="fill:#ebebeb"></path><path d="M286.76,330.29c-.2-.09-.36-.13-.36-.17,0-.37-.28-.73,0-1.11a6.43,6.43,0,0,1,.52-.91.47.47,0,0,1,.54-.16c-.06.15-.08.33-.18.42s-.19.45-.21.72A6.65,6.65,0,0,1,286.76,330.29Z" style="fill:#ebebeb"></path><path d="M287.3,330.52c-.24.05-.36,0-.3-.22a6.62,6.62,0,0,1,.28-.74C287.29,329.94,287.29,330.23,287.3,330.52Z" style="fill:#ebebeb"></path><path d="M286,329.41l-.33-.1,0-.12.35.06Z" style="fill:#ebebeb"></path><path d="M288.91,326.21l.17-.31.06,0-.13.33Z" style="fill:#ebebeb"></path><path d="M287.94,329l-.13.33-.05,0,.11-.34Z" style="fill:#ebebeb"></path><path d="M330,65.05c-.71-9.71-5-18.95-11.22-26.47-6.07-7.36-14.13-13.3-23.36-15.7a37.15,37.15,0,0,0-41.6,17.43,37.08,37.08,0,0,0-39.31-19.25C205.16,22.72,196.64,28,190,34.84c-6.78,7-11.83,15.86-13.32,25.48-1.88,12.05-.07,25.39,5.79,36.09C188.67,107.7,199,117,209.77,124.13,227.86,136,251.7,151,251.7,151s21.24-14.59,40.23-25c11.29-6.19,22.36-14.67,29.43-25.43C328.06,90.37,330.94,77.21,330,65.05Z" style="fill:#ebebeb"></path><path d="M140.39,78.39a10.47,10.47,0,0,0-2.45-5.8,10.06,10.06,0,0,0-5.12-3.43,8.1,8.1,0,0,0-9.1,3.81,8.15,8.15,0,0,0-8.61-4.21,10,10,0,0,0-5.37,3,10.51,10.51,0,0,0-2.92,5.58,12.69,12.69,0,0,0,1.27,7.9,18,18,0,0,0,6,6.07c4,2.61,9.18,5.89,9.18,5.89s4.65-3.2,8.81-5.48a18,18,0,0,0,6.44-5.57A12.69,12.69,0,0,0,140.39,78.39Z" style="fill:#ebebeb"></path><path d="M443.21,105.42a10.26,10.26,0,0,0-2.41-5.69,9.84,9.84,0,0,0-5-3.38,8,8,0,0,0-9,3.75,8,8,0,0,0-2.27-2.67A8.13,8.13,0,0,0,418.35,96a9.89,9.89,0,0,0-5.28,3,10.35,10.35,0,0,0-2.87,5.49,12.54,12.54,0,0,0,1.25,7.76,17.64,17.64,0,0,0,5.87,6c3.9,2.56,9,5.79,9,5.79s4.57-3.15,8.66-5.39a17.71,17.71,0,0,0,6.33-5.47A12.53,12.53,0,0,0,443.21,105.42Z" style="fill:#ebebeb"></path><path d="M73,135.44a6.64,6.64,0,0,0-1.57-3.7,6.41,6.41,0,0,0-3.26-2.2,5.27,5.27,0,0,0-4.08.64,5.14,5.14,0,0,0-1.73,1.8,5.22,5.22,0,0,0-1.47-1.73,5.3,5.3,0,0,0-4-1,6.48,6.48,0,0,0-3.43,1.92,6.69,6.69,0,0,0-1.86,3.56,8.16,8.16,0,0,0,.81,5,11.55,11.55,0,0,0,3.81,3.87c2.53,1.66,5.86,3.75,5.86,3.75s3-2,5.62-3.49a11.65,11.65,0,0,0,4.11-3.55A8.1,8.1,0,0,0,73,135.44Z" style="fill:#ebebeb"></path><path d="M378.25,162.47a6.6,6.6,0,0,0-1.74-3.52,6.34,6.34,0,0,0-3.32-2,5.08,5.08,0,0,0-5.53,2.71,5.09,5.09,0,0,0-5.52-2.31,6.24,6.24,0,0,0-3.23,2.08,6.57,6.57,0,0,0-1.62,3.58,8,8,0,0,0,1.08,4.88,11.19,11.19,0,0,0,3.95,3.56c2.56,1.48,5.93,3.33,5.93,3.33s2.78-2.16,5.29-3.73a11.27,11.27,0,0,0,3.81-3.71A8,8,0,0,0,378.25,162.47Z" style="fill:#ebebeb"></path><path d="M436.19,194.65a6,6,0,0,0-1.59-3.21,5.76,5.76,0,0,0-3-1.78,4.7,4.7,0,0,0-3.6.77,4.76,4.76,0,0,0-1.45,1.7,4.54,4.54,0,0,0-1.4-1.46,4.7,4.7,0,0,0-3.63-.65,5.78,5.78,0,0,0-2.95,1.9,5.94,5.94,0,0,0-1.47,3.26,7.27,7.27,0,0,0,1,4.45,10.23,10.23,0,0,0,3.6,3.25c2.34,1.35,5.41,3,5.41,3s2.54-2,4.82-3.41a10.24,10.24,0,0,0,3.48-3.38A7.24,7.24,0,0,0,436.19,194.65Z" style="fill:#ebebeb"></path><path d="M180.1,323.85a6,6,0,0,0-1.59-3.21,5.76,5.76,0,0,0-3-1.78,4.62,4.62,0,0,0-5.05,2.47,4.68,4.68,0,0,0-1.4-1.47,4.74,4.74,0,0,0-3.63-.64,5.72,5.72,0,0,0-2.95,1.89,5.94,5.94,0,0,0-1.47,3.27,7.21,7.21,0,0,0,1,4.45,10.33,10.33,0,0,0,3.6,3.25c2.33,1.35,5.41,3,5.41,3s2.53-2,4.82-3.4a10.33,10.33,0,0,0,3.48-3.38A7.31,7.31,0,0,0,180.1,323.85Z" style="fill:#ebebeb"></path></g><g id="freepik--Stars--inject-4"><path d="M178.87,113.82l1.58.91a.39.39,0,0,1,0,.69l-1.62.84a.35.35,0,0,0-.16.16l-.91,1.59a.39.39,0,0,1-.69,0l-.85-1.62a.46.46,0,0,0-.15-.16l-1.59-.91a.39.39,0,0,1,0-.69l1.62-.85a.33.33,0,0,0,.16-.15l.91-1.59a.4.4,0,0,1,.69,0l.85,1.63A.49.49,0,0,0,178.87,113.82Z" style="fill:#FF725E"></path><path d="M312.49,229.28l1.59.91a.4.4,0,0,1,0,.69l-1.63.85a.46.46,0,0,0-.16.15l-.91,1.59a.4.4,0,0,1-.69,0l-.84-1.63a.49.49,0,0,0-.16-.16l-1.59-.91a.39.39,0,0,1,0-.69l1.62-.84a.41.41,0,0,0,.16-.16l.91-1.59a.39.39,0,0,1,.69,0l.85,1.62A.39.39,0,0,0,312.49,229.28Z" style="fill:#FF725E"></path><path d="M295.47,63.27l1.59.91a.39.39,0,0,1,0,.69l-1.62.85a.39.39,0,0,0-.16.15l-.91,1.59a.4.4,0,0,1-.69,0l-.85-1.63a.46.46,0,0,0-.15-.16l-1.59-.91a.4.4,0,0,1,0-.69l1.63-.84a.49.49,0,0,0,.16-.16l.91-1.59a.39.39,0,0,1,.69,0l.84,1.62A.41.41,0,0,0,295.47,63.27Z" style="fill:#FF725E"></path><path d="M185.25,264l1.59.9a.4.4,0,0,1,0,.7l-1.62.84a.41.41,0,0,0-.16.16l-.91,1.59a.39.39,0,0,1-.69,0l-.85-1.62a.39.39,0,0,0-.15-.16l-1.59-.91a.4.4,0,0,1,0-.69l1.63-.85a.46.46,0,0,0,.16-.15l.91-1.59a.4.4,0,0,1,.69,0l.84,1.63A.49.49,0,0,0,185.25,264Z" style="fill:#FF725E"></path><path d="M189,127.66l.81.46a.21.21,0,0,1,0,.36l-.82.43a.14.14,0,0,0-.08.07l-.47.81a.2.2,0,0,1-.35,0l-.43-.82a.18.18,0,0,0-.07-.08l-.81-.46a.2.2,0,0,1,0-.35l.82-.43a.3.3,0,0,0,.08-.08l.46-.81a.2.2,0,0,1,.35,0l.43.82A.2.2,0,0,0,189,127.66Z" style="fill:#FF725E"></path><path d="M333,142.7l.79.46a.19.19,0,0,1,0,.34l-.81.42a.2.2,0,0,0-.08.08l-.46.8a.19.19,0,0,1-.34,0l-.43-.81a.14.14,0,0,0-.07-.08l-.8-.46a.19.19,0,0,1,0-.34l.81-.43a.18.18,0,0,0,.08-.07l.45-.8a.2.2,0,0,1,.35,0l.42.81Z" style="fill:#FF725E"></path></g><g id="freepik--Hearts--inject-4"><path d="M150.44,142.26a7.58,7.58,0,0,0-.72-2.8,9.09,9.09,0,0,0-5.56-4.91,6.85,6.85,0,0,0-5.3.82,6.75,6.75,0,0,0-2.25,2.35,6.72,6.72,0,0,0-1.92-2.25,6.81,6.81,0,0,0-5.22-1.25,9.12,9.12,0,0,0-5.94,4.45,7.77,7.77,0,0,0-.94,2.73,10.56,10.56,0,0,0,1,6.5,15,15,0,0,0,5,5c3.29,2.16,7.61,4.88,7.61,4.88s3.86-2.65,7.31-4.54a15.12,15.12,0,0,0,5.35-4.62A10.57,10.57,0,0,0,150.44,142.26Z" style="fill:#FF725E"></path><path d="M381.15,77.06a6.25,6.25,0,0,0-1.48-3.49,6,6,0,0,0-3.08-2.07,4.89,4.89,0,0,0-5.49,2.3,4.89,4.89,0,0,0-1.39-1.64,5,5,0,0,0-3.8-.9,6.06,6.06,0,0,0-3.24,1.82,6.26,6.26,0,0,0-1.75,3.36,7.67,7.67,0,0,0,.76,4.76,11,11,0,0,0,3.6,3.66c2.39,1.57,5.54,3.55,5.54,3.55s2.8-1.93,5.3-3.3A10.89,10.89,0,0,0,380,81.75,7.71,7.71,0,0,0,381.15,77.06Z" style="fill:#FF725E"></path><path d="M368.65,230.27a10.47,10.47,0,0,0-2.45-5.8,10.14,10.14,0,0,0-5.12-3.44,8.12,8.12,0,0,0-9.1,3.82,8.12,8.12,0,0,0-8.61-4.21,10,10,0,0,0-5.37,3,10.44,10.44,0,0,0-2.92,5.58,12.76,12.76,0,0,0,1.27,7.9,18,18,0,0,0,6,6.07c4,2.61,9.18,5.88,9.18,5.88s4.65-3.19,8.81-5.47a18,18,0,0,0,6.44-5.57A12.69,12.69,0,0,0,368.65,230.27Z" style="fill:#FF725E"></path></g></svg>
