<svg xmlns="http://www.w3.org/2000/svg" viewBox="0 0 500 500"><g id="freepik--Characters--inject-3"><g id="freepik--Charactersa--inject-3"><g id="freepik--Character--inject-3"><g id="freepik--Bottom--inject-3"><path d="M297.12,379.72l-19.6-21.62L261.9,381.66l36.92,22.93s12.85-5.5,12.76-13.1S301.51,380.84,297.12,379.72Z" style="fill:#f28f8f"></path><path d="M315.08,383.13a11.82,11.82,0,0,1,4.07,2.31c1.29,1,3,7.39,4.82,10s2.67,3.22,5.24,6.43c2.85,3.55,6.9,6.32,7,17.77.14,11.61-3.44,18.08-7,22a12,12,0,0,1-4.85,3s-6.41-.32-6.62-4S315.08,383.13,315.08,383.13Z" style="fill:#263238"></path><path d="M293.69,402.65c.5,1,2.53,2.18,3.42,2.86,3,2.28,5.23,6,7.07,9.21,8.68,15.39,4.83,25.87,15.69,29.19,3.09.79,8.28-1.37,13-14.37,2.42-6.64,1.27-18.3-1.94-22.72s-6.45-6.92-8.72-10.39-4-10.72-7.16-13.3a16.11,16.11,0,0,0-6.57-2.77c-1.88-.45-5.72-.59-7.62-1-2.06-.42-3.12-1.14-3.77.35l2.59,1.69c4.18,3.07,3.56,3.92,4.18,6.07s2.14,4.36,3.26,6.44c-2.89-1.93-4.46-3.93-6.58-2.81s-2.42,1.1-4.66,5.16S293.24,401.74,293.69,402.65Z" style="fill:#455a64"></path><path d="M332.9,429.54c2.42-6.64,1.27-18.3-1.94-22.72a47.56,47.56,0,0,0-3.44-4.17c.17.31.38.61.52.89.31.6.6,1.22.87,1.84a15.66,15.66,0,0,1,1.59,7.74c-.27,2.36-.76,8.2-3.5,9.21-1.55.57-3.37-.54-4.54-2.1-.49-.66-1.56-2.52-1.56-2.52a25.68,25.68,0,0,0-6.25,5.26c-3.17,4-2.83,4.5-2.83,4.5a11.3,11.3,0,0,1,1.27,3.49,9.22,9.22,0,0,1-.36,4,6.37,6.37,0,0,1-.76,1.15c1.39,3.74,3.35,6.41,7.9,7.8C323,444.7,328.15,442.54,332.9,429.54Z" style="fill:#37474f"></path><path d="M304.18,414.72a58.55,58.55,0,0,1,5.27,12.84c2.88,3.73,4.16,3.17,3.64.93s-6.36-10.38-10.95-17.17C302.87,412.46,303.55,413.61,304.18,414.72Z" style="fill:#37474f"></path><path d="M305.68,385.07a9.66,9.66,0,0,0-3.56-5.5c-.45-.06-.88-.13-1.23-.2-2.06-.42-3.12-1.14-3.77.35l2.59,1.69c4.18,3.07,3.56,3.92,4.18,6.07s2.14,4.36,3.26,6.44c4,6.61,6.29,8.5,9.26,15s3.08,11.48,4.16,11.56,2.76-1.32,1.36-6.85-6.72-13.85-9.8-17.62S306.27,388.07,305.68,385.07Z" style="fill:#37474f"></path><path d="M321.54,418a.83.83,0,0,1-.29.3c-4.43,2.5-6.57,4.51-8.76,9.81a.71.71,0,0,1-.92.38.71.71,0,0,1-.39-.92c2.32-5.6,4.66-7.84,9.37-10.51a.71.71,0,0,1,1,.94Z" style="fill:#ebebeb"></path><path d="M318.86,412.67a.77.77,0,0,1-.27.3c-4.54,2.71-6.82,5-9.15,10.57a.7.7,0,0,1-.95.39.72.72,0,0,1-.39-.95c2.46-5.89,4.93-8.38,9.74-11.26a.72.72,0,0,1,1,.95Z" style="fill:#ebebeb"></path><path d="M317,406.42a.74.74,0,0,1-.3.33c-5,3-7.64,5.71-10.22,11.86A.8.8,0,1,1,305,418c2.71-6.47,5.56-9.43,10.86-12.61a.8.8,0,0,1,1.1.27A.79.79,0,0,1,317,406.42Z" style="fill:#ebebeb"></path><path d="M314.37,401.41a.73.73,0,0,1-.3.33c-4.91,2.93-7.46,5.54-10,11.59a.79.79,0,0,1-1,.42.8.8,0,0,1-.43-1c2.66-6.35,5.43-9.22,10.64-12.33a.78.78,0,0,1,1.07.27A.75.75,0,0,1,314.37,401.41Z" style="fill:#ebebeb"></path><path d="M310.76,396.88a.71.71,0,0,1-.3.32c-4.9,2.94-7.46,5.54-10,11.59a.78.78,0,1,1-1.44-.6c2.65-6.36,5.42-9.22,10.63-12.34a.78.78,0,0,1,1.07.27A.77.77,0,0,1,310.76,396.88Z" style="fill:#ebebeb"></path><polygon points="280.21 382.82 265.16 395.94 256.6 401.7 267.17 420.24 294.85 405.9 280.21 382.82" style="fill:#ffa8a7"></polygon><path d="M221.49,412.65C215,415.46,211,418.22,208,422.3s-3.73,8.17-.68,12.91,8.57,10.26,14.89,9.69,10.17-2.28,15.94-5.65Z" style="fill:#263238"></path><path d="M274.52,416.57c.15,2-8.08,6.19-16.62,10.61-9.16,4.73-11.36,7.69-18.84,11.67-8.54,4.54-11.83,4.89-18.62,3.23s-15.41-11-9.9-20.08c4.49-7.37,10.54-9.55,19.73-12.28a174.74,174.74,0,0,0,21.47-7.7c6.62-2.81,12-7.66,13.42-6.08-.94.5-7.81,5-6.45,6.17.35.6,1.34.38,3-.39a2.92,2.92,0,0,1,2.4-.19,4.6,4.6,0,0,1,1.8,2,54.65,54.65,0,0,1,2.27,5.25c.55,1.2.31.5.84,1.72.58,1.37,1.68,3.43,1.58,4.7-.05.77-.6,1-1.18,1.42s-1.39.87-1.93,1.32c-.22.18-.6.76-.46,1,.22.48,1.42.21,1.92,0s1.33-.46,1.94-.71S273,417.33,274.52,416.57Z" style="fill:#455a64"></path><path d="M242,437.32c-1.23.66-9,4.57-11.53,2.46-2.76-2.29,3.44-6.29,3.44-6.29s.78-6-6.67-14.48c-1.21,1-6.39,1.12-6.42-1.93s8.54-7.06,8.66-7.12c-8.8,2.65-14.58,4.88-18.94,12-5.5,9.05,3.11,18.43,9.9,20.08s10.08,1.31,18.62-3.23C239.92,438.39,241.25,437.79,242,437.32Z" style="fill:#37474f"></path><path d="M233.05,432.93c-3.25,1.2-.91,4.11,3.88,3,7.16-1.68,13-6,21-8.74,8.54-4.42,17.26-8.55,16.62-10.73-1.53.63-4.81,2.12-4.81,2.12-.64.3-2.3,1-2.3,1-6.49,3.05-13.62,7.84-20.67,10C240.53,431.44,236.3,431.73,233.05,432.93Z" style="fill:#37474f"></path><path d="M227.75,420.12c3-1.83,3.43-3.34,9.24-6.23s15.6-9,21.64-12.79a73.94,73.94,0,0,0,6.53-5.16c-1.05-1.13-4.78.06-8.46,2.55s-5.92,4.07-9.59,6.13c-7.1,4.58-15.26,7.77-19.31,10.56S224.8,422,227.75,420.12Z" style="fill:#37474f"></path><path d="M227.28,419.34a1.15,1.15,0,0,0,.19.26c.06.06,4.93,5.09,6.08,14.37a.87.87,0,0,0,.85.79.72.72,0,0,0,.64-.86c-1.24-9.94-6.34-15.19-6.62-15.47a.69.69,0,0,0-1,0A.88.88,0,0,0,227.28,419.34Z" style="fill:#f0f0f0"></path><path d="M233,414.89a.78.78,0,0,0,.16.24,36,36,0,0,1,7.51,17,.87.87,0,0,0,.87.76.72.72,0,0,0,.61-.88,37,37,0,0,0-8-18,.71.71,0,0,0-1.06,0A.83.83,0,0,0,233,414.89Z" style="fill:#f0f0f0"></path><path d="M246.36,431.3a.83.83,0,0,0,.71.5.71.71,0,0,0,.7-.8c-.68-10.53-7.78-20.2-8.11-20.53a.69.69,0,0,0-1.06,0,.91.91,0,0,0,.1,1.16c.08.08,7,9.53,7.57,19.32A.82.82,0,0,0,246.36,431.3Z" style="fill:#f0f0f0"></path><path d="M251.64,427.68a.82.82,0,0,0,.7.5.7.7,0,0,0,.71-.79,31.13,31.13,0,0,0-8.47-19.45.69.69,0,0,0-1.05.08.89.89,0,0,0,.16,1.16,29.77,29.77,0,0,1,7.86,18.14A1.06,1.06,0,0,0,251.64,427.68Z" style="fill:#f0f0f0"></path><path d="M258.54,424.51a.84.84,0,0,0,.69.5.71.71,0,0,0,.72-.78c-.39-11-8.37-19.19-8.72-19.52a.7.7,0,0,0-1.06,0,.9.9,0,0,0,.15,1.17c.08.07,7.76,8,8.13,18.22A.81.81,0,0,0,258.54,424.51Z" style="fill:#ebebeb"></path><path d="M408.08,314.45l-98.43-14.58c-3,5.9-5,5.46-8.88,5.92-5.9.71-37.56,1.55-54.59,5.67S221.43,323,219.89,332.88,225.16,353.14,233,361c9.54,9.53,21.91,18.41,38.06,28.35l-3,2.74c.11,9.32,3.6,15.81,13,22.61,0,0,11.49-3.9,31.35-12.78,12.19-5.44,19.95-11.75,22.55-14.52,20.17,1.08,47.61,1.13,59.72-11.69S408.42,339.75,408.08,314.45Zm-115,45.77c3.71-.11,8.12-.24,12.63-.35-2.23,1.55-4.47,4.05-7.52,6.22C296.69,364.33,294.63,362,293.12,360.22Z" style="fill:#BA68C8"></path><path d="M408.08,314.45l-98.43-14.58c-3,5.9-5,5.46-8.88,5.92-5.9.71-37.56,1.55-54.59,5.67S221.43,323,219.89,332.88,225.16,353.14,233,361c9.54,9.53,21.91,18.41,38.06,28.35l-3,2.74c.11,9.32,3.6,15.81,13,22.61,0,0,11.49-3.9,31.35-12.78,12.19-5.44,19.95-11.75,22.55-14.52,20.17,1.08,47.61,1.13,59.72-11.69S408.42,339.75,408.08,314.45Zm-115,45.77c3.71-.11,8.12-.24,12.63-.35-2.23,1.55-4.47,4.05-7.52,6.22C296.69,364.33,294.63,362,293.12,360.22Z" style="opacity:0.2"></path><path d="M298.23,366.09,271,389.3c-1.08-.66-3.81-2.32-4.9-3L295,362.47C295.91,363.49,297.34,365.06,298.23,366.09Z" style="opacity:0.4"></path><path d="M264.79,333.1c9.13,4,18.45,15.5,28.33,27.12l4.61-.23s-8.92-11.48-18.05-19S264.79,333.1,264.79,333.1Z" style="opacity:0.4"></path><path d="M323.41,346.46c5.67-3.6,12.87-4.38,23-5.67s24.3-2.61,24.3-2.61a147,147,0,0,0-29.63,0,93.31,93.31,0,0,0-19.34,4.57s-9.2-2.83-14.19-17.7c.52,12.87,10.78,20.85,10.78,20.85L300.29,360l5.46-.14S316,351.19,323.41,346.46Z" style="opacity:0.4"></path><path d="M335,387.35c5.9-5.8,7.6-9.24,7.6-9.24a28.8,28.8,0,0,1-4.24,9.36Z" style="opacity:0.4"></path></g><g id="freepik--Top--inject-3"><path d="M295.64,244.55c6.72,2.66,28.59,11.37,28.59,11.37s6.33,11.33,5.56,19.53-1.62,9.17-7.75,6.88-40.73-21.49-40.73-21.49Z" style="fill:#ffa8a7"></path><path d="M332.83,194.42C318.3,197,311.86,205.55,313,219c2.07,25.75,4.23,34.07,4.23,34.07l-3.39-1.34s8,10,8.5,18.54-5.75,9.46-5.75,9.46-2.11,1.92,6,4.29c5.12,1.51,15.42,3.16,20.19.69s2.89-7.25,1.85-23.36C343.19,240.3,332.83,194.42,332.83,194.42Z" style="fill:#e0e0e0"></path><g id="freepik--Chest--inject-3"><path d="M314.56,232.36c-.69-26.75,11.09-33.32,17.68-37l21.54-4c6.55.88,24.22,6.21,40.14,14.08,4.59,2.26,4.58,6.18,6.84,22.54,1.83,13.29,2.8,24.46,3.74,43,.8,15.49,1.74,33.14-1.26,55-17.45,8.35-69.89,5.56-92.42-17.26,1.26-5.64,7.17-16.1,7.39-27.25C315.81,258.24,314.78,240.77,314.56,232.36Z" style="fill:#263238"></path><g id="freepik--Head--inject-3"><path d="M371.87,184.27c.79-7.09,7.35-14.81,10.15-21.11,2.7-6.08,4.24-10.76,3.58-16.28-.39-3.28-2.72-7.61-5.21-8.41,2.12-12.37-7.21-16.75-11.41-18-1.85-.53-5.9-1.29-7.73-1.93-2.71-1-3.43-3-5.67-4.74-3.85-2.91-10-2.63-12.12,2.23-2.63-3-5.94-2.75-9.72-1.56a6.56,6.56,0,0,0-4.59,7.68c-5.28-2.57-9.78,1.31-10.07,4.35-.22,2.24.36,4.09-1,6.16-1.51,2.34-4.61,2.48-5.65.72-.35,3.19,1,5.52,4.43,5.15a7.22,7.22,0,0,0-.55,6.08,6.56,6.56,0,0,0,6.17,4.17c.47,1.71.63,3.29,1.8,4.72a11.33,11.33,0,0,0,4.24,3.41c5.32,2.17,11.1,2.65,16.75,3.48l6.7,1c.39.06,2.4.07,2.65.4Z" style="fill:#263238"></path><path d="M379.59,174.8c-4.77,3.23-8.29.23-8.29.23L373,198.16c-3.28,10.12-20.11,12.76-26.42,10.31s-5.76-6.15-2.07-11.93l-.65-3.76a67.9,67.9,0,0,1-8.37.11,14.41,14.41,0,0,1-12.33-10.26c-2-6.13-2.48-16.31-1.55-23.86a20.49,20.49,0,0,0,0-5.8c-.83-5.08-.07-8.12,1-12.49,5.78-5.23,19.69-7.69,33.21-.5-1.07,7.86,2.31,13.85,8.13,16.49-.14,2.11-.1,7.43,3.34,7.13,2.48-.21,2.47-3.34,4.86-6.23s8.31-4,10.85-.05C386.49,162.8,384.81,171.26,379.59,174.8Z" style="fill:#ffa8a7"></path><path d="M346.56,150.37l5.6,2.19a3.16,3.16,0,0,0-1.76-4A2.94,2.94,0,0,0,346.56,150.37Z" style="fill:#263238"></path><path d="M324.11,151l5.09-3.29a2.9,2.9,0,0,0-4.1-1A3.18,3.18,0,0,0,324.11,151Z" style="fill:#263238"></path><path d="M356.58,152.72l16.8,3.58a6.68,6.68,0,0,0-2.24,2.81l-14.62-2.52Z" style="fill:#263238"></path><path d="M317.28,152.33a4.31,4.31,0,0,0,.81,2.46,2,2,0,0,1,.33.88c.23,1.68.25,4.87.85,6.69a6.73,6.73,0,0,0,6.52,5.09,10.21,10.21,0,0,0,2.39-.1l.18,0a6.57,6.57,0,0,0,2-.71l.12-.07.18-.1.22-.14.2-.14.22-.17.22-.18a4.75,4.75,0,0,0,.4-.38,9.64,9.64,0,0,0,1.74-2.49c1.18-2.29,1.16-5.54,2.82-5.84l.2,0h.21c2.22.13,1.73,3.65,2.81,6.24s3,5.23,7.9,5.51l.64,0h.5a8.33,8.33,0,0,0,1.19-.13l.38-.07.36-.09.23-.07a7,7,0,0,0,1.35-.59l.46-.29a7.46,7.46,0,0,0,.8-.67,8.11,8.11,0,0,0,1.58-2.32c.83-1.74,1.17-4.92,1.61-6.55a2.83,2.83,0,0,1,.41-.93,4.56,4.56,0,0,0,1.17-2.3,2,2,0,0,0-1.25-2.1l-1.17-.21c-3.74-.63-8.65-1-11.63-.36-3.76.88-5.12,2-7.18,1.92s-3.09-1.44-6.49-2.76c-2.7-1-7.29-1.21-10.82-1l-1.1.07C318,150.4,317.31,151.3,317.28,152.33Zm24.13,3.42a3.34,3.34,0,0,1,1.11-.84l.2-.1.11-.05c.17-.08.35-.16.54-.23s.32-.13.49-.18a12.61,12.61,0,0,1,1.61-.45l.64-.12a15,15,0,0,1,1.64-.19l.38,0c3.57-.14,5.75.81,6.53,1.6s.27,4.2-.15,5.93l0,.13,0,.14c-.05.21-.11.44-.19.7s-.09.28-.14.43v0c-.08.23-.17.47-.28.72h0a2.56,2.56,0,0,1-.11.24,1,1,0,0,1-.07.15,1.19,1.19,0,0,1-.08.16,2.12,2.12,0,0,1-.11.21l-.13.23c0,.08-.1.16-.16.24l-.17.24a5.66,5.66,0,0,1-5.19,2.28,6.75,6.75,0,0,1-5.23-2.36h0a7.82,7.82,0,0,1-1.52-3.63C340.75,159,340.65,156.77,341.41,155.75Zm-20.81-2.69a3.34,3.34,0,0,1,.92-.52l.07,0,.4-.14.24-.07.2,0,.14,0h.05l.19,0a7,7,0,0,1,.83-.1,3.4,3.4,0,0,1,.45,0h.48l.56,0h.21l.2,0a15.36,15.36,0,0,1,1.62.23c2.5.48,5,1.8,5.66,2.9s.28,3.34-.2,5.27a9.25,9.25,0,0,1-.43,1.29.69.69,0,0,1,0,.1,1.39,1.39,0,0,1-.06.13l0,.08-.08.16c-.05.11-.11.21-.16.32l-.16.27-.06.09-.12.18-.11.16,0,0a6.6,6.6,0,0,1-8.23,1.52c-2.44-1.46-2.81-4.47-3-5.85C319.93,157.2,319.77,153.77,320.6,153.06Z" style="fill:#37474f"></path><path d="M338.78,159.52l-2.17,13.33L328.08,169c.32-.54.66-1.06,1-1.61l.2-.33c.42-.68.82-1.38,1.24-2.07.87-1.42,1.76-2.8,2.61-4a25,25,0,0,1,2.26-2.92c.14-.17.29-.33.45-.49l.41-.4h0l.11,0,.13,0,.19,0a.5.5,0,0,1,.21,0C338.07,157.14,338.49,158.17,338.78,159.52Z" style="fill:#f28f8f"></path><path d="M344.1,192.69c8.67-1.53,15.25-2.86,19.43-9.44a54.42,54.42,0,0,0,4.67-10.65s-.45,7.78-3,13.18c-2,4.16-7,8-20.58,10Z" style="fill:#f28f8f"></path><path d="M343.46,159.65a2.46,2.46,0,1,0,2.44-2.58A2.51,2.51,0,0,0,343.46,159.65Z" style="fill:#263238"></path><path d="M347.13,174.35l-8,2.88a4.48,4.48,0,0,0,5.61,2.63A4.17,4.17,0,0,0,347.13,174.35Z" style="fill:#b16668"></path><path d="M342.36,180a5,5,0,0,1,5-4.46,4.13,4.13,0,0,1-2.69,4.32A4.29,4.29,0,0,1,342.36,180Z" style="fill:#f28f8f"></path><path d="M324.2,159a2.46,2.46,0,1,0,2.2-2.79A2.52,2.52,0,0,0,324.2,159Z" style="fill:#263238"></path></g><path d="M397.05,205.52,374.52,194.9s-2.94,9.68-10.9,22.94c-8.11,13.51-4.34,19.41-3.18,42.9s2.55,63.81.54,73.53c7.38,4,23.88,6.89,47,4.38,0,0,1.91-23.51-.69-69.83C405.91,244.81,409,211.44,397.05,205.52Z" style="fill:#ebebeb"></path><path d="M344.19,195.18c-9,4.39-14.95,15.43-16,30.17s-.11,52.07-.82,63.19-6.13,30.79-6.13,30.79-11.14-6-15-14.91c4.69-7.38,6.12-18.68,6.34-27.92s-.65-35.1-.14-46.39,4.65-28.34,17.18-34.47c5.39-2.64,14.28-3,14.28-3Z" style="fill:#ebebeb"></path><path d="M327.78,233.84c.46-10.82,5.94-32.63,17-37.39l-.64-3.76s-3,.23-6.47.2c-1,.66-2.14,1.43-3.24,2.28-4.64,3.61-12.29,14.59-13.85,23.11C325.12,213.64,327.58,220.44,327.78,233.84Z" style="fill:#fafafa"></path><path d="M358.63,237.53c.95-21.24,13.11-22.05,15.61-15.28,6.6-12,6.18-21.9,5.77-25.82-2.3-3.46-4.53-7.83-5.3-9.14a3.07,3.07,0,0,0-2.4-1.73l.54,7.23s-.16,6.22-5.71,14.42C363.07,213.23,358.37,219.69,358.63,237.53Z" style="fill:#fafafa"></path></g><path id="freepik--Arm--inject-3" d="M398.84,207.38c22,9.26,21.66,17.74,23.14,45.93s3.75,49.31,3.75,49.31c.45,4.21,1,8.41,1.35,12.63.76,8.51,1.31,17.06,2.51,25.52.41,2.87.72,6.65,2.76,9a10.27,10.27,0,0,0,5,3.24,62,62,0,0,0,9.7,2.35,57.51,57.51,0,0,1,7.27,2.33c1.36.52,2.67,1.38,4.12,1.52s2.8-.1,4.21.4A10.17,10.17,0,0,1,466.4,362a22.89,22.89,0,0,0,5.2,3.47c4.39-.12,5.39,2,3.69,4-2,2.27-5.94,3-8.8,3.31a99,99,0,0,1-23.83-.71c-2.74-.4-6.72-1.49-9,.73s2.46,2.83,3.86,3.17a15.19,15.19,0,0,1,5.95,2.34c4.53,2.95,3.83,8.9-1.84,6.7-3.79-1.47-5.17-1-9.15-1.67s-8.49-1.5-11.65-4.06a39.41,39.41,0,0,1-3.77-3.87c-1.57-1.7-4.05-3.15-5-5.26a23.1,23.1,0,0,1-1.75-9.65,20.6,20.6,0,0,0-.52-5.39c-.77-2.9-.77-5.75-1.48-8.67s-1.51-5.92-2.33-8.86c-1.76-6.33-3.63-12.63-5.33-19a88.89,88.89,0,0,1-3.19-15.3c-1-11.4-5.32-45.46-5.32-45.46S378.7,219.18,398.84,207.38Z" style="fill:#ffa8a7"></path><path d="M398.43,206.38c6,2.46,14.29,7.21,16.75,10.45s6.64,10.46,7.18,31.21,2.88,38.88,3.13,43.44-6.36,6.38-14,7.86-16-4.73-16-4.73-1.18-16.11-2.72-24-2.5-15.08-4.19-21.82S381.76,215.81,398.43,206.38Z" style="fill:#e0e0e0"></path><path d="M395.08,289.65l.22,2.55s5.67,6.12,17.71,4.16c9.18-1.49,12.32-7,12.32-7l-.29-3.05s1.62-.86,1.91,3.19-.69,4.15.59,8.31,1.76,8.32-2.19,11.24-17.08,5-22.42,3.08-8-4.42-8-6.51S396,300,395,297,392.8,290.94,395.08,289.65Z" style="fill:#ebebeb"></path></g></g><g id="freepik--character--inject-3"><g id="freepik--bottom--inject-3"><path d="M172.83,381.6s-38.91-10.34-43.93-13.75c-4.19-2.84-2.66-10.82-8.15-11.6-6.32-.89-10.39,3-14,7.12-3.39,3.93-8.14,6-17.71,3.68s-19-6.15-22.53-3.9-.75,5,16.19,11c9.74,3.48,22.09,7.42,30,9.74a63.17,63.17,0,0,1,16.21,7c10.6,6.14,12.57,7.47,25,13.51,24.84,12.07,39,14.48,57.21,9Z" style="fill:#b16668"></path><path d="M136.39,371.76c-7,5-10.14,10.14-9.74,18.44,0,0,5.43,3.39,13.94,8.09,10.2,5.63,24.77,15.92,46.76,17.4,24.07,1.62,33.81-5.62,33.81-5.62Z" style="fill:#455a64"></path><path d="M129.94,377.09c14.38,20,45.6,30.17,55.07,30.2-3.6-2.47-9.43-11.5-15.09-21.36l-33.62-15A28,28,0,0,0,129.94,377.09Z" style="fill:#37474f"></path><path d="M57.61,362.26a5.32,5.32,0,0,1,.44-4.49c2.88-4.36,6.89-6.91,9.61-8.7a22.41,22.41,0,0,1,11-3.28c7.36-.29,14.24,4.7,21.6,4.4,5.51-.22,10.18-3.6,15.38-5.48a16.67,16.67,0,0,1,5.08-1c1.47-.05,3.89.75,4.55,2a6.76,6.76,0,0,1,.89,4.8c-.22,1.06-2.06,3.2-3.41,4.41-1.86,1.66-4.3,2.33-7.19,3.53C108.24,361.51,74.69,365.73,57.61,362.26Z" style="fill:#37474f"></path><path d="M128.86,365.72c.1.69.25,1.34.4,2,.19.91-.28,1.27-1,1.88-2.87,2.48-6.78,2.67-10.36,2.39-2.79-.21-5.65-.72-8.33.11-3.19,1-5.54,3.7-7.73,6.29a6.63,6.63,0,0,0-1.14,1.91S81,373.92,71.9,370.11c-4.59-1.93-9.84-3.64-13.65-7-.21-.18.68-1.61.77-1.74a8.1,8.1,0,0,1,4.09-3A21.86,21.86,0,0,1,71.36,357c4.3.22,8.52,1,12.8,1.38a103.77,103.77,0,0,0,11.55.49,84.58,84.58,0,0,0,12.51-1.05,30.69,30.69,0,0,0,11.13-3.63,16.57,16.57,0,0,0,3.65-2.87,12.88,12.88,0,0,0,1.55-2.54c.5-.93.7-2.42,1.43-1.25,1.73,2.79,2.48,7.27,2.61,10.56.09,2.28,0,4.55.18,6.82C128.79,365.16,128.82,365.45,128.86,365.72Z" style="fill:#BA68C8"></path><path d="M128.86,365.72c.1.69.25,1.34.4,2,.19.91-.28,1.27-1,1.88-2.87,2.48-6.78,2.67-10.36,2.39-2.79-.21-5.65-.72-8.33.11-3.19,1-5.54,3.7-7.73,6.29a6.63,6.63,0,0,0-1.14,1.91S81,373.92,71.9,370.11c-4.59-1.93-9.84-3.64-13.65-7-.21-.18.68-1.61.77-1.74a8.1,8.1,0,0,1,4.09-3A21.86,21.86,0,0,1,71.36,357c4.3.22,8.52,1,12.8,1.38a103.77,103.77,0,0,0,11.55.49,84.58,84.58,0,0,0,12.51-1.05,30.69,30.69,0,0,0,11.13-3.63,16.57,16.57,0,0,0,3.65-2.87,12.88,12.88,0,0,0,1.55-2.54c.5-.93.7-2.42,1.43-1.25,1.73,2.79,2.48,7.27,2.61,10.56.09,2.28,0,4.55.18,6.82C128.79,365.16,128.82,365.45,128.86,365.72Z" style="opacity:0.2"></path><path d="M78.29,357.55c-3,5.34-2.11,14.19-2.11,14.19a133.8,133.8,0,0,1-12.64-4.84c-6-2.71-5.93-4.64-5.93-4.64A5.29,5.29,0,0,1,59,359.5a10.51,10.51,0,0,1,7.46-3.16A48.39,48.39,0,0,1,78.29,357.55Z" style="fill:#fafafa"></path><path d="M79.13,368.45a10.48,10.48,0,0,0,.08,4.42,4.87,4.87,0,0,0,2,.72,19.13,19.13,0,0,1,0-4.55C81.45,367.71,79.44,367.18,79.13,368.45Z" style="fill:#fafafa"></path><path d="M85.16,370.59a10.38,10.38,0,0,0,0,4.43,5.18,5.18,0,0,0,2,.7,15.43,15.43,0,0,1,0-4.54C87.47,369.85,85.46,369.32,85.16,370.59Z" style="fill:#fafafa"></path><path d="M91.18,372.72a10.17,10.17,0,0,0,.08,4.39,4.74,4.74,0,0,0,2,.75,18.1,18.1,0,0,1,0-4.55C93.49,372,91.49,371.45,91.18,372.72Z" style="fill:#fafafa"></path><path d="M126,347.49a3.76,3.76,0,0,0-.75-1.76s-1.48,4.19-8,7.19c-6.19,2.84-15.24,4.83-28.78,3S67,352,61.25,355s-3.64,7.22-3.64,7.22,2.31-5.71,10.8-5.54c8.17.17,20.51,3.37,31.62,2.67C111.62,358.67,123.14,356,126,347.49Z" style="fill:#e0e0e0"></path><path d="M261.93,356.23c-5-12.79-24.68-28.42-42.42-40.47l-22-16.47-87.25-9.93c-1.61,13.63-10.38,24-8.48,42.55,1.38,13.48,5.41,32.29,30.77,47.41,15.38,9.17,27.64,16.36,38.55,21.83,11.53,5.78,37.16,16.48,50.08,8.92,9.87-5.78,10.9-13,9.81-22.25h0c1.67,0,3.33-.09,4.87-.23,1.79-.12,3.43-.31,4.72-.44a32.51,32.51,0,0,0,13.64-4.94C262.62,376.76,266,366.49,261.93,356.23Z" style="fill:#455a64"></path><path d="M235.85,387.59c-1.54.14-3.21.22-4.88.23-3.88-14.49-63.73-51.51-63.73-51.51,3.67-2.27,12.14-8,14.59-13.66-.53,7-4.11,10.87-7.65,14,6.4,4.66,33.15,22.94,40.36,28.52C222.11,371.09,231.57,378.64,235.85,387.59Z" style="fill:#37474f"></path></g><g id="freepik--top--inject-3"><path d="M176.62,200.23c11.85,1.08,17.78,8.42,20.3,22.4s7.42,52.78,7.42,52.78c6.43,15.9,15.17,40.35,15.17,40.35l-22-16.47L176.68,281l-1-45.09Z" style="fill:#9a4a4d"></path><path d="M153.72,209.69c0-.72,0-1.44.07-2.16a38.13,38.13,0,0,0-4.75-20.3c-1.94-3.45-4.47-6.75-5-10.66-.67-4.7,1.66-9.38,1.4-14.12-.31-5.52-4.23-10.39-9.11-13-9.92-5.32-24.59-5.44-32,4a20.7,20.7,0,0,0-3.59,18.18c.45,1.57,1.07,3.3.35,4.77a5.15,5.15,0,0,1-1.85,1.83c-4.86,3.25-11,4.59-15,8.87a14.39,14.39,0,0,0-.9,17.94c1.07,1.4,2.39,2.6,3.34,4.08a5.32,5.32,0,0,1,.69,5,6,6,0,0,1-3.7,2.75c-2.33.8-5.4.89-6.74-1.18-1.24,2.43-.06,5.58,2.11,7.23a11.76,11.76,0,0,0,7.77,1.91c-4.44,3.45-4.53,10.56-1.49,15.29s8.35,7.49,13.62,9.44a44.61,44.61,0,0,0,15.09,3.09c5.94,0,11.74-1.66,17.45-3.31a36.15,36.15,0,0,0,9.26-3.64c6.76-4.24,9.9-12.35,12-20C154,220.35,153.64,215.06,153.72,209.69Z" style="fill:#263238"></path><g id="freepik--chest--inject-3"><path d="M108.82,254.15c-1-27.92,3.81-35.32,7.63-44.48,9.8-6,23.67-9.1,23.67-9.1s7.7-1.7,26.32-1.3l10.18,1c5.58,6.58,21.08,21.59,25.14,34.16a24.82,24.82,0,0,1-10.1,27.71,96.93,96.93,0,0,0,.81,19s4.33,9,5,18.18c-2.82,14.07-21.51,24-47.51,28.3-27.92,4.58-47.84-9.92-47.84-9.92C105.66,294.31,109.85,281.54,108.82,254.15Z" style="fill:#BA68C8"></path><path d="M108.82,254.15c-1-27.92,3.81-35.32,7.63-44.48,9.8-6,23.67-9.1,23.67-9.1s7.7-1.7,26.32-1.3l10.18,1c5.58,6.58,21.08,21.59,25.14,34.16a24.82,24.82,0,0,1-10.1,27.71,96.93,96.93,0,0,0,.81,19s4.33,9,5,18.18c-2.82,14.07-21.51,24-47.51,28.3-27.92,4.58-47.84-9.92-47.84-9.92C105.66,294.31,109.85,281.54,108.82,254.15Z" style="fill:#fff;opacity:0.4"></path><path d="M171.52,263.37s-7.78,8.5-22.08,6c-14.76-2.56-16.91-15-16.91-15s-1.6,16.08,16,19.14C164.81,276.32,171.52,263.37,171.52,263.37Z" style="fill:#BA68C8;opacity:0.4"></path></g><path d="M116.45,209.67c-6.09,3.44-14.94,10.24-11.71,26.14S141,275.1,151.8,283.19s16.94,12.76,26.3,9.07c6.54-2.59,36.82-23.66,36.82-23.66L204.63,249,173,263.39l-31.24-32.86S127.57,211.45,116.45,209.67Z" style="fill:#b16668"></path><path d="M196.25,157.52a4.19,4.19,0,0,1-3,2.2c-3.6.49-4.55-2.62-4.63-4A20.8,20.8,0,0,1,190,147.9c.86-2.56,2.08-5,2.54-7.69a14.39,14.39,0,0,0-4-12.48c-3.19-3.13-7.64-4.56-11.92-5.89l-5.07-1.57-5.42-1.68c-13.27-4.11-28.42-1.35-38.19,9.14A32.59,32.59,0,0,0,119.43,154a46.31,46.31,0,0,0,7.46,19.08c3.53,5.13,8.23,10,9.25,16.36l8.34-3.78c1.43-2.18,1.35-5,2.35-7.43,1.29-3.14,4.25-5.24,7.18-7,5.68-3.31,12.32-5.86,18.74-4.43,3,.67,5.77,2.43,8.9,2.57a17.85,17.85,0,0,0,9.4-1.84A10.2,10.2,0,0,0,196.25,157.52Z" style="fill:#263238"></path><path d="M176.35,137.68c4.48,2.42,9.45,12.5,8.57,33.08-.51,11.9-3.34,17.48-8.53,20.53-2.5,1.47-8,2.49-13.84,2.13l.23,6.21s21.1,18.77,3.16,20.9c-18.74,2.23-29.79-17.74-29.79-17.74l-.52-27.74c-1,1.77-6.79,4.5-11.09-.49-5-5.87-4.31-13.18-.2-16.05a7,7,0,0,1,7.22-.5,8.63,8.63,0,0,1,2.93,2.44c.56.75.73,1.61,1.62,2,1.69.73,5.2.07,7.63-.3a22.2,22.2,0,0,0,7.81-3A31.22,31.22,0,0,0,164,145.86c1-2.1,1.63-4,3.06-5.83C169,137.55,173.34,136.25,176.35,137.68Z" style="fill:#b16668"></path><path d="M127,172.13a2.41,2.41,0,1,0,2.63-2.16A2.4,2.4,0,0,0,127,172.13Z" style="fill:#263238"></path><path d="M162.55,193.42c-14.27-2.39-22.46-7.76-24.17-13.41,0,0,1.24,7.44,5.36,10.55,5.78,4.37,18.92,6.77,18.92,6.77Z" style="fill:#9a4a4d"></path><path d="M169.1,176.32l-9.55-1.48a4.59,4.59,0,0,0,3.83,5.5A5.11,5.11,0,0,0,169.1,176.32Z" style="fill:#9a4a4d"></path><path d="M165.47,180.2a5.05,5.05,0,0,1-2.09.14,4.59,4.59,0,0,1-3.71-3.22A5.58,5.58,0,0,1,165.47,180.2Z" style="fill:#f28f8f"></path><path d="M154,162.45c.58,1.68,1.29-1.33,3-1.92s3.73,1.47,3.15-.21a3.25,3.25,0,0,0-6.14,2.13Z" style="fill:#263238"></path><path d="M173.49,159.82c-.09,1.78,1.7-.74,3.49-.65s2.9,2.78,3,1a3.25,3.25,0,0,0-6.49-.35Z" style="fill:#263238"></path><path d="M180.55,152.4l-6-2.74a3.17,3.17,0,0,1,4.27-1.67A3.43,3.43,0,0,1,180.55,152.4Z" style="fill:#263238"></path><path d="M151.12,154.91l5.45-3.83a3.21,3.21,0,0,0-4.56-.88A3.47,3.47,0,0,0,151.12,154.91Z" style="fill:#263238"></path><polygon points="166.07 157.27 167.54 171.43 175.92 167.74 166.07 157.27" style="fill:#9a4a4d"></polygon></g></g><g id="freepik--Hands--inject-3"><path d="M281.31,260.84c-3.32-1.79-4.88-2.56-7.73-3.88a25.3,25.3,0,0,1-6.28-4.08,71.77,71.77,0,0,1-7.44-9,8.83,8.83,0,0,0-3.88-3.47c-1.33-.48-2-1.32-4.34-2.22s-3.27-2.24-3.38-3.51a2.31,2.31,0,0,1,2.73-2.52c2,.19,5,2.26,5,2.26s.65-2.89,2.49-3.29a4.28,4.28,0,0,1-1-5.59c.95-1.19,1.59-2.2,3.74-1.74a4.24,4.24,0,0,1,.34-3.67c.79-1.35,1.29-2.19,4.06-1.53-1.37-1.91-1.35-4.56,0-4.8s6.49,2,9.67,2.73c2.55.57,3.42,2.09,5.23,4.74s4.08,4.74,5.1,6.13,1.3,5.34,2.66,10,2.51,4.78,7.3,7.1Z" style="fill:#ffa8a7"></path><path d="M275.23,219.72a7.81,7.81,0,0,1-1.63,2.69A2.14,2.14,0,0,1,272,223a6.45,6.45,0,0,1-1.57-.4,8.7,8.7,0,0,1-2.68-1.69,17.57,17.57,0,0,1-2.13-2.27c1.61,1.29,3.13,2.74,5,3.44a6.53,6.53,0,0,0,1.41.4,1.78,1.78,0,0,0,1.27-.39A11.17,11.17,0,0,0,275.23,219.72Z" style="fill:#f28f8f"></path><path d="M272.77,222.78c-.06.33.41.83.78,1.21a8,8,0,0,1,1.11,1.36,8.44,8.44,0,0,1,.82,1.54,3,3,0,0,1,.26,1.69,3.05,3.05,0,0,0-.38-1.64,8.93,8.93,0,0,0-.92-1.43,7.11,7.11,0,0,0-1.17-1.22,6.25,6.25,0,0,1-.65-.62,1.36,1.36,0,0,1-.4-1Z" style="fill:#f28f8f"></path><path d="M270.63,223.53c.25.62.08,1.39.32,1.92a17.11,17.11,0,0,0,1.44,1.32c.51.42,1,.88,1.5,1.33a11.64,11.64,0,0,1,1.42,1.47,8.33,8.33,0,0,1,1,1.79,3.35,3.35,0,0,1,.23,2.1,2.7,2.7,0,0,1-1.1,1.76,2.2,2.2,0,0,1-2-.17,2.15,2.15,0,0,0,1.86-.07,2.35,2.35,0,0,0,.83-1.62,4.83,4.83,0,0,0-1.29-3.45,28.37,28.37,0,0,0-2.77-2.83,13.6,13.6,0,0,1-1.39-1.51,2.52,2.52,0,0,1-.06-1A4.68,4.68,0,0,0,270.63,223.53Z" style="fill:#f28f8f"></path><path d="M271.09,225.83s1.12-.37,1.43-1a2.35,2.35,0,0,1-1.11,1.26Z" style="fill:#f28f8f"></path><path d="M273.77,228.33a2.07,2.07,0,0,0,1.14-1.06,1.76,1.76,0,0,1-.86,1.32Z" style="fill:#f28f8f"></path><path d="M261.24,223.83c.95,1.52,2.51,2.48,3.72,3.78s2.51,2.53,3.78,3.74,2.89,2,4.32,3.1a7,7,0,0,1,1.94,1.94,5.4,5.4,0,0,1,.75,2.68,2.23,2.23,0,0,1-.49,1.4,2.6,2.6,0,0,1-1.27.72,3.44,3.44,0,0,1-2.77-.28,21.2,21.2,0,0,1-2.22-1.53l-2.14-1.6c-3-2-5.34-4.7-8.34-6.62a35.62,35.62,0,0,1,4.35,3.08l2.07,1.67,2.18,1.54,2.16,1.54a20.73,20.73,0,0,0,2.17,1.47,2.85,2.85,0,0,0,2.38.22,2,2,0,0,0,1-.56,1.7,1.7,0,0,0,.36-1.07,4.85,4.85,0,0,0-.66-2.4,6.38,6.38,0,0,0-1.79-1.8c-1.39-1.09-2.9-2-4.29-3.18s-2.45-2.57-3.68-3.86S262.12,225.41,261.24,223.83Z" style="fill:#f28f8f"></path><path d="M270.26,240a3.35,3.35,0,0,1,1.16,1c.31.43.54.87.81,1.32a3.69,3.69,0,0,1,.31,1.56,2.26,2.26,0,0,1-.57,1.55,1.38,1.38,0,0,1-.78.39,3.33,3.33,0,0,1-.83,0,6.32,6.32,0,0,1-1.55-.34,14.63,14.63,0,0,1-2.79-1.34c-.88-.54-1.75-1-2.61-1.62s-1.62-1.28-2.4-1.91-1.63-1.2-2.42-1.88a24.54,24.54,0,0,1-2.13-2.2c.74.7,1.48,1.4,2.28,2s1.7,1.12,2.52,1.73,1.6,1.28,2.43,1.83,1.73,1.06,2.6,1.57A19.13,19.13,0,0,0,269,245a6,6,0,0,0,1.42.34,1.71,1.71,0,0,0,1.27-.27,2.68,2.68,0,0,0,.31-2.67c-.23-.43-.43-.93-.68-1.35A3.69,3.69,0,0,0,270.26,240Z" style="fill:#f28f8f"></path><path d="M263.94,242.6c-1,.3-1.45,1.66-1.45,1.66a2.83,2.83,0,0,1,2.07-1.28Z" style="fill:#f28f8f"></path><path d="M204.63,249a50.79,50.79,0,0,0,6.36-3.33c2-1.42,2.41-3.85,2.73-6.48s1.75-7.52,1.94-9.43,1.89-3.62,3.1-5.61,2.36-4.5,3.21-5.56,2.82-.93,4.25-1.34,3.66-1.94,4.43-1.57.88,2.39,0,3.82a9.74,9.74,0,0,1-4,3.25s-1.88,3.21-1.83,5c0,0,1.44-1.24,2.59-2.37a26,26,0,0,1,4.92-3.6c1.62-.88,4.5-2.53,5.87-1.38s1.23,2.63.38,4.45c2.45-.42,4-.23,4.59.73a3.28,3.28,0,0,1,.57,2.76,19.82,19.82,0,0,1-1,2s1.67.44,2,1.28a6,6,0,0,1,0,3.46c-.38,1.84-.56,2.74-.56,2.74s3.1-.21,4.18-.44a11.51,11.51,0,0,0,4.2-2.77c1.21-1.19,3.23-3.5,4.82-3.42s2.36.61,2.12,1.21-2.12,3.67-3,5.25a16.62,16.62,0,0,1-5.34,4.75c-1.26.48-6.16,1.1-8,2.63s-4.09,5.09-7.09,7.57-6.2,5.08-10.77,8.6c-2.64,2-10.16,7.42-10.16,7.42Z" style="fill:#b16668"></path><path d="M224.76,227.72c-1.41.55-3.41,1.84-3.84,3.07a6.48,6.48,0,0,1,4-4.23A4.32,4.32,0,0,0,224.76,227.72Z" style="fill:#9a4a4d"></path><path d="M226.59,222.72a3.22,3.22,0,0,0-.82-1.89,5.74,5.74,0,0,1,.46,2.56Z" style="fill:#9a4a4d"></path><path d="M238.52,224.82a3.86,3.86,0,0,0-1.13,2.63,6,6,0,0,1,1.88-2.75Z" style="fill:#9a4a4d"></path><path d="M242.65,230.32A6,6,0,0,0,241.1,233a3.19,3.19,0,0,1-1.17,2.18,3,3,0,0,0-.77,1.8,3.38,3.38,0,0,1,1.36-1.85,3,3,0,0,0,1.2-2.07,4.27,4.27,0,0,1,1.55-2.57Z" style="fill:#9a4a4d"></path><path d="M244,237.8a16.2,16.2,0,0,0-.29,2.14,3.09,3.09,0,0,1-1.17,1.88,8.13,8.13,0,0,0-1.64,1.67,3,3,0,0,1,1.37-1,2.7,2.7,0,0,0,1.7-1.73c.28-1,.67-3,.67-3Z" style="fill:#9a4a4d"></path><path d="M236.58,229.67a2.21,2.21,0,0,1,0-.25c0-.09-.09-.22-.13-.09a1.31,1.31,0,0,1-.26.46,2.07,2.07,0,0,0-.31.48,2.64,2.64,0,0,1-.55.77,8.87,8.87,0,0,1-.81.55,4.43,4.43,0,0,0-.49.48c-.06.07-.11.15-.16.22a.87.87,0,0,0-.1.25s0,.17.07.15A4.58,4.58,0,0,0,235,232a3.93,3.93,0,0,0,.94-.62,3.2,3.2,0,0,0,.53-.82,1.3,1.3,0,0,0,.11-.51,2.28,2.28,0,0,1,0-.26S236.57,229.71,236.58,229.67Z" style="fill:#9a4a4d"></path><path d="M249.39,231.38a3.19,3.19,0,0,0-1.08,3.68c.41,1.27,3,2.52,4.89,2.77s4-1.81,2.78-3.83S250.8,230.59,249.39,231.38Z" style="fill:#ffa8a7"></path></g></g></g><g id="freepik--Heart--inject-3"><g id="freepik--heart--inject-3"><path d="M234.92,146.56c6.12-3.55,13.43.88,15.07,9.9,1.72-9,9.08-13.36,15.16-9.75s4.88,20.74-15.29,33.52C229.83,167.24,228.81,150.1,234.92,146.56Z" style="fill:#BA68C8"></path><path d="M234.92,146.56c6.12-3.55,13.43.88,15.07,9.9,1.72-9,9.08-13.36,15.16-9.75s4.88,20.74-15.29,33.52C229.83,167.24,228.81,150.1,234.92,146.56Z" style="fill:#fff;opacity:0.30000000000000004"></path></g><g id="freepik--Lines--inject-3"><path d="M250.73,131.65c0-1,0-1.94,0-2.9,0-.42,0-.84,0-1.26a2.57,2.57,0,0,0-.22-1.37c-.18-.3-.78-.44-.94,0a8.3,8.3,0,0,0-.19,2.82c0,.92,0,1.84,0,2.75,0,1.79-.14,3.62,0,5.4.06.87,1.4.79,1.44-.05C250.83,135.23,250.73,133.43,250.73,131.65Z" style="fill:#455a64"></path><path d="M234.46,133.55l-1-1.69c-.14-.25-.29-.49-.43-.73s-.3-.59-.66-.7-.82.13-.82.45a4,4,0,0,0,.79,1.76c.3.54.6,1.09.91,1.63a34.38,34.38,0,0,0,1.82,3.18c.35.48,1.48-.24,1.24-.75C235.76,135.61,235.07,134.59,234.46,133.55Z" style="fill:#455a64"></path><path d="M221.47,143.82,219,142.4l-1.1-.62a2.57,2.57,0,0,0-1.29-.5c-.35,0-.78.46-.5.8a8.29,8.29,0,0,0,2.35,1.58l2.36,1.4c1.55.9,3.07,1.93,4.68,2.71.78.38,1.37-.82.67-1.27C224.63,145.52,223,144.7,221.47,143.82Z" style="fill:#455a64"></path><path d="M221.72,160.23c-.74,0-1.48,0-2.21,0h-1a1.6,1.6,0,0,0-1,.22c-.23.19-.34.78,0,.94a5,5,0,0,0,2.15.2l2.1,0c1.36,0,2.76.13,4.11,0,.66-.06.6-1.39,0-1.44C224.45,160.13,223.07,160.22,221.72,160.23Z" style="fill:#455a64"></path><path d="M265.52,133.55l1-1.69c.14-.25.29-.49.43-.73s.3-.59.66-.7.82.13.82.45a3.8,3.8,0,0,1-.79,1.76l-.9,1.63a32.33,32.33,0,0,1-1.83,3.18c-.35.48-1.48-.24-1.23-.75C264.22,135.61,264.91,134.59,265.52,133.55Z" style="fill:#455a64"></path><path d="M278.51,143.82,281,142.4c.36-.21.72-.42,1.09-.62a2.57,2.57,0,0,1,1.29-.5c.36,0,.78.46.51.8a8.34,8.34,0,0,1-2.36,1.58l-2.36,1.4c-1.54.9-3.07,1.93-4.68,2.71-.78.38-1.37-.82-.67-1.27C275.35,145.52,277,144.7,278.51,143.82Z" style="fill:#455a64"></path><path d="M278.26,160.23c.74,0,1.48,0,2.21,0h1a1.6,1.6,0,0,1,1,.22c.23.19.34.78,0,.94a5,5,0,0,1-2.15.2l-2.1,0c-1.36,0-2.76.13-4.11,0-.66-.06-.6-1.39,0-1.44C275.53,160.13,276.91,160.22,278.26,160.23Z" style="fill:#455a64"></path></g></g></svg>