<svg xmlns="http://www.w3.org/2000/svg" viewBox="0 0 500 500"><g id="freepik--Floor--inject-8"><path id="freepik--floor--inject-8" d="M89.16,440C.33,388.66.33,305.51,89.16,254.22s232.85-51.28,321.68,0,88.83,134.44,0,185.73S178,491.24,89.16,440Z" style="fill:#f5f5f5"></path></g><g id="freepik--Shadow--inject-8"><path id="freepik--shadow--inject-8" d="M456.54,358.13,223.13,223.38a3.31,3.31,0,0,0-3,0l-176.69,102a1.54,1.54,0,0,0-.3.22c-.5.48-.39,1.1.33,1.52L276.86,461.86a3.07,3.07,0,0,0,1.51.36,3.13,3.13,0,0,0,1.48-.34l176.7-102c.67-.39.78-1,.34-1.46a1.09,1.09,0,0,1,.19.18A2.31,2.31,0,0,0,456.54,358.13Z" style="fill:#e0e0e0"></path></g><g id="freepik--Plants--inject-8"><g id="freepik--plants--inject-8"><g id="freepik--Plant--inject-8"><path d="M397,306.61a14.7,14.7,0,0,1,4.7.73A14.89,14.89,0,0,1,407,310.2a11,11,0,0,1,3.26,4.57,36.7,36.7,0,0,1,1.24,5.17c0,.16.37.2.39,0a12.14,12.14,0,0,0-1-5.87,11.62,11.62,0,0,0-3.56-4.73,14.12,14.12,0,0,0-5.59-2.8,12.22,12.22,0,0,0-4.82-.05c-.07,0,0,.1.05.1Z" style="fill:#455a64"></path><path d="M393.81,308.58a1.18,1.18,0,1,0,1.53-.68A1.17,1.17,0,0,0,393.81,308.58Z" style="fill:#BA68C8"></path><path d="M390.54,303.71a1,1,0,0,0,.57,1.27,1,1,0,0,0,.7-1.83A1,1,0,0,0,390.54,303.71Z" style="fill:#BA68C8"></path><path d="M387.37,306.51a1,1,0,0,0,1.83.7,1,1,0,1,0-1.83-.7Z" style="fill:#BA68C8"></path><path d="M385.27,303.26a1,1,0,0,0,.57,1.27,1,1,0,0,0,1.26-.56,1,1,0,1,0-1.83-.71Z" style="fill:#BA68C8"></path></g><g id="freepik--Flower--inject-8"><path d="M424.48,325.22l.11-.08a.43.43,0,0,0,0-.6c-11.79-11.62-15.3-33.63-8.57-50.81a.41.41,0,0,0-.23-.54.42.42,0,0,0-.55.23c-6.85,17.5-3.27,39.86,8.77,51.72A.43.43,0,0,0,424.48,325.22Z" style="fill:#455a64"></path><path d="M412.56,298.88a.41.41,0,0,1-.33-.35c-.68-5.18,1.64-15.6,8.76-17.93,4.5-1.48,6.33.7,6.91,1.7a5.55,5.55,0,0,1-1.18,6.68,20.49,20.49,0,0,1-5,3c-3.09,1.45-6.3,3-8.68,6.74a.35.35,0,0,1-.17.15A.36.36,0,0,1,412.56,298.88Zm8.77-7.69a19.78,19.78,0,0,0,4.83-2.84,4.67,4.67,0,0,0,1-5.63c-1-1.75-3.17-2.23-5.93-1.32-6.53,2.15-8.41,11.23-8.28,15.85a17.13,17.13,0,0,1,6.39-5.11C420,291.8,420.69,291.49,421.33,291.19Z" style="fill:#455a64"></path><path d="M412.83,298.84a.4.4,0,0,0,.23-.35c.15-4.25,4.84-11.21,10.12-13.33a.45.45,0,0,0,.24-.54.42.42,0,0,0-.55-.23c-5.09,2-10.47,9.13-10.64,14.07a.41.41,0,0,0,.4.43A.35.35,0,0,0,412.83,298.84Z" style="fill:#455a64"></path><path d="M412.16,293.75a.41.41,0,0,1-.47-.33c-.57-2.71-6.89-6.23-11-7.93a8.48,8.48,0,0,1-5.1-5.6,5.14,5.14,0,0,1,1.52-4.78,4.33,4.33,0,0,1,4.78-.94c4.42,1.56,9.65,8.79,10.61,19.13a.43.43,0,0,1-.22.41Zm-14.44-18.06a4.33,4.33,0,0,0-1.31,4,7.6,7.6,0,0,0,4.61,5c.36.16,7.55,3.17,10.4,6.54-1.39-8.85-5.92-14.93-9.8-16.29a3.82,3.82,0,0,0-3,.06A3.39,3.39,0,0,0,397.72,275.69Z" style="fill:#455a64"></path><path d="M412.29,293.71a.41.41,0,0,0,.21-.47c-1.87-7.47-9.2-14.2-11.67-15.49a.42.42,0,1,0-.38.74c2.37,1.24,9.43,7.73,11.24,14.95a.42.42,0,0,0,.51.3Z" style="fill:#455a64"></path><path d="M408.46,264.64a13.6,13.6,0,0,1-2.13-7.42,3.24,3.24,0,0,1,1.36-2.72,2.62,2.62,0,0,1,3.08.81,7.66,7.66,0,0,1,1.37,3.11,11.88,11.88,0,0,1,1.34-6.16,2.9,2.9,0,0,1,1.79-1.69,2.45,2.45,0,0,1,2.16,1c1.31,1.53,2,5.44,1.83,7.45-3,3.92-3.56,8.7-3.31,12.62.11,1.76-2.16-.22-3.67-1.78A22.57,22.57,0,0,1,408.46,264.64Z" style="fill:#BA68C8"></path><path d="M408.46,264.64a13.6,13.6,0,0,1-2.13-7.42,3.24,3.24,0,0,1,1.36-2.72,2.62,2.62,0,0,1,3.08.81,7.66,7.66,0,0,1,1.37,3.11,11.88,11.88,0,0,1,1.34-6.16,2.9,2.9,0,0,1,1.79-1.69,2.45,2.45,0,0,1,2.16,1c1.31,1.53,2,5.44,1.83,7.45-3,3.92-3.56,8.7-3.31,12.62.11,1.76-2.16-.22-3.67-1.78A22.57,22.57,0,0,1,408.46,264.64Z" style="opacity:0.15"></path><path d="M417.74,263.81a13.37,13.37,0,0,1,4.47-6.62,3.21,3.21,0,0,1,3-.76,2.64,2.64,0,0,1,1.41,2.85,7.72,7.72,0,0,1-1.45,3.08,11.89,11.89,0,0,1,5.53-3,2.87,2.87,0,0,1,2.44.24,2.42,2.42,0,0,1,.69,2.27c-.29,2-1.32,3.41-3.25,5.15a30.49,30.49,0,0,1-11.95,6.18c-1.72.38-1.74,0-1.73-2.65A26.38,26.38,0,0,1,417.74,263.81Z" style="fill:#BA68C8"></path><path d="M413.55,272.1s-8,.07-10.18-4.71,2.93-4.49,2.93-4.49A25.65,25.65,0,0,0,413.55,272.1Z" style="fill:#BA68C8"></path><path d="M413.55,272.1s-8,.07-10.18-4.71,2.93-4.49,2.93-4.49A25.65,25.65,0,0,0,413.55,272.1Z" style="opacity:0.25"></path><path d="M418.25,273.91c1.56,0,7.61-1.65,12.16-5.67a3.19,3.19,0,0,1,3,2.12C434.5,273.15,425.8,277.76,418.25,273.91Z" style="fill:#BA68C8"></path><path d="M418.25,273.91c1.56,0,7.61-1.65,12.16-5.67a3.19,3.19,0,0,1,3,2.12C434.5,273.15,425.8,277.76,418.25,273.91Z" style="opacity:0.15"></path></g><g id="freepik--plant--inject-8"><path d="M468.65,323.38a19.06,19.06,0,0,0-2.59-.83,24.34,24.34,0,0,0-3.48-.79,20,20,0,0,0-7.82.45,14.83,14.83,0,0,0-6.88,3.91,34.22,34.22,0,0,0-4.61,6.14c-.17.28-.38,0-.31-.26a16.78,16.78,0,0,1,11.54-10.72,19.84,19.84,0,0,1,8.29-.48,15.34,15.34,0,0,1,3.32.94,16,16,0,0,1,2.56,1.5c.05,0,.08.18,0,.14Z" style="fill:#37474f"></path><path d="M473.19,319.8a1.6,1.6,0,1,1-3.2-.12,1.6,1.6,0,0,1,3.2.12Z" style="fill:#BA68C8"></path><path d="M471.52,327.51a1.61,1.61,0,0,1-1.66,1.54,1.6,1.6,0,1,1,1.66-1.54Z" style="fill:#BA68C8"></path><path d="M478.18,323.19a1.33,1.33,0,1,1-1.28-1.37A1.33,1.33,0,0,1,478.18,323.19Z" style="fill:#BA68C8"></path><path d="M480.64,328.36a1.33,1.33,0,1,1-1.28-1.37A1.32,1.32,0,0,1,480.64,328.36Z" style="fill:#BA68C8"></path><path d="M485,325.44a1.33,1.33,0,1,1-1.27-1.37A1.32,1.32,0,0,1,485,325.44Z" style="fill:#BA68C8"></path></g><g id="freepik--flower--inject-8"><path d="M441,305.07a41.08,41.08,0,0,1,2,8.62,36,36,0,0,1-.21,8.67,34.88,34.88,0,0,1-5,13.95,23.61,23.61,0,0,1-2.8,3.5,9.82,9.82,0,0,1-3.78,2.7c-.28.09-.44-.21-.33-.45.47-1,1.63-1.67,2.4-2.39a20.48,20.48,0,0,0,2.43-2.67,26.1,26.1,0,0,0,3.32-5.95,40.32,40.32,0,0,0,3.11-16,35.88,35.88,0,0,0-1.36-9.89c-.05-.18.14-.23.2-.05Z" style="fill:#37474f"></path><path d="M442.66,317.06a24.41,24.41,0,0,0,10.26-10.7c3.91-7.76,3.89-12.59,1.26-15a4.68,4.68,0,0,0-5.33-.85S447,287,444.8,287.22s-4.42,3.59-4.42,3.59-1.18-1.93-2.12-2.23-7.15,4-7.28,9S435.25,314.15,442.66,317.06Z" style="fill:#BA68C8"></path><path d="M442.66,317.06a24.41,24.41,0,0,0,10.26-10.7c3.91-7.76,3.89-12.59,1.26-15a4.68,4.68,0,0,0-5.33-.85S447,287,444.8,287.22s-4.42,3.59-4.42,3.59-1.18-1.93-2.12-2.23-7.15,4-7.28,9S435.25,314.15,442.66,317.06Z" style="opacity:0.25"></path><path d="M441.42,316.82A29.4,29.4,0,0,1,431,308c-4.81-6.39-5.33-9.89-3.08-13.13s4.89-2.19,5.38,2c0,0,1.56-1.4,2.84-.93a4.37,4.37,0,0,1,2.44,3C438.53,299.81,436.34,310.36,441.42,316.82Z" style="fill:#BA68C8"></path><path d="M441.42,316.82A29.4,29.4,0,0,1,431,308c-4.81-6.39-5.33-9.89-3.08-13.13s4.89-2.19,5.38,2c0,0,1.56-1.4,2.84-.93a4.37,4.37,0,0,1,2.44,3C438.53,299.81,436.34,310.36,441.42,316.82Z" style="opacity:0.15"></path><path d="M445.15,315.66a26,26,0,0,0,9.9-4.86c4.14-3.57,6.44-7.65,3.2-8.63,0,0,1.42-1.72.34-3.19s-6.9-.75-9.8,2.79S445.15,315.66,445.15,315.66Z" style="fill:#BA68C8"></path><path d="M445.15,315.66a26,26,0,0,0,9.9-4.86c4.14-3.57,6.44-7.65,3.2-8.63,0,0,1.42-1.72.34-3.19s-6.9-.75-9.8,2.79S445.15,315.66,445.15,315.66Z" style="opacity:0.15"></path><path d="M441.42,316.82c-3.5-2.54-5.86-8.4-6.23-12.06-.45-4.44,1.56-9.39,4.76-10.89s6.69.39,6.69.39,2.56-1.73,5.39,1c1.94,1.87.43,8.54-1.92,13.45S444.14,316.32,441.42,316.82Z" style="fill:#BA68C8"></path><path d="M442.33,321.68a10.29,10.29,0,0,0-4-4.61c-2.93-1.95-5.35-3.95-4.12-5.76s5.08,2.54,5.08,2.54.18-4.83,2.52-4.94c3.05-.13,2.46,5.74,2.46,5.74s3.47-3.66,5-2.36.37,3.31-1.84,4.82S442.75,320.44,442.33,321.68Z" style="fill:#37474f"></path><path d="M430.83,348.22s2.59,4.12,11.28,1.08c9.4-3.28,11.75-16.43,22.26-16.47,0,0-5.79-9.13-22.46-3.3C426.05,335.07,430.83,348.22,430.83,348.22Z" style="fill:#BA68C8"></path><path d="M430.83,348.22s2.59,4.12,11.28,1.08c9.4-3.28,11.75-16.43,22.26-16.47,0,0-5.79-9.13-22.46-3.3C426.05,335.07,430.83,348.22,430.83,348.22Z" style="opacity:0.30000000000000004"></path><path d="M442.11,349.3c-8.69,3-11.28-1.08-11.28-1.08,3.25-16.26,28.83-20.16,33.54-15.39C453.86,332.87,451.51,346,442.11,349.3Z" style="opacity:0.15"></path></g><path d="M430.25,342.47a10.1,10.1,0,0,0,2.84-8c-.57-4.8-2.37-9.59-9.35-12.87s-17.28-3.29-20.69-6.77a94.4,94.4,0,0,0,3.7,8.93c2.94,5.42,5.41,7.76,10.44,10.64C424.81,338.75,429.53,338.25,430.25,342.47Z" style="fill:#BA68C8"></path><path d="M430.25,342.47a10.1,10.1,0,0,0,2.84-8c-.57-4.8-2.37-9.59-9.35-12.87s-17.28-3.29-20.69-6.77a94.4,94.4,0,0,0,3.7,8.93c2.94,5.42,5.41,7.76,10.44,10.64C424.81,338.75,429.53,338.25,430.25,342.47Z" style="opacity:0.30000000000000004"></path><path d="M416.52,324.83c-5.18-2.59-12-6.24-13.47-10a94.4,94.4,0,0,0,3.7,8.93c2.94,5.42,5.41,7.76,10.44,10.64,7.62,4.35,12.34,3.85,13.06,8.07C433.22,332.72,421.7,327.42,416.52,324.83Z" style="opacity:0.15"></path></g><g id="freepik--plants--inject-8"><g id="freepik--plant--inject-8"><path d="M112.68,269.62a16.15,16.15,0,0,0-10,3.59,10.9,10.9,0,0,0-3.27,4.57A38.24,38.24,0,0,0,98.14,283c0,.15-.37.19-.39,0a12,12,0,0,1,1-5.87,11.67,11.67,0,0,1,3.55-4.73,14.22,14.22,0,0,1,5.6-2.8,12.22,12.22,0,0,1,4.82-.05c.06,0,0,.1-.06.1Z" style="fill:#455a64"></path><path d="M115.87,271.59a1.18,1.18,0,1,1-1.53-.68A1.18,1.18,0,0,1,115.87,271.59Z" style="fill:#BA68C8"></path><path d="M119.13,266.73a1,1,0,0,1-.56,1.26,1,1,0,0,1-1.27-.56,1,1,0,0,1,.57-1.27A1,1,0,0,1,119.13,266.73Z" style="fill:#BA68C8"></path><path d="M122.31,269.52a1,1,0,0,1-.57,1.26,1,1,0,0,1-1.26-.56,1,1,0,1,1,1.83-.7Z" style="fill:#BA68C8"></path><path d="M124.4,266.28a1,1,0,0,1-.56,1.26,1,1,0,1,1,.56-1.26Z" style="fill:#BA68C8"></path></g><g id="freepik--flower--inject-8"><path d="M86.89,285.7l-.11-.08a.41.41,0,0,1,0-.59C99,273.79,103.16,251.89,97,234.51a.43.43,0,0,1,.26-.54.41.41,0,0,1,.53.26c6.3,17.7,2,39.94-10.4,51.41A.43.43,0,0,1,86.89,285.7Z" style="fill:#455a64"></path><path d="M99.36,259.71a.46.46,0,0,1-.16-.15c-2.25-3.87-5.41-5.47-8.46-7a20.36,20.36,0,0,1-4.94-3.12,5.54,5.54,0,0,1-1-6.71c.61-1,2.51-3.1,7-1.48,7,2.56,9,13,8.19,18.19a.43.43,0,0,1-.34.35A.45.45,0,0,1,99.36,259.71Zm-6.31-6.91a17.27,17.27,0,0,1,6.23,5.32C99.56,253.5,98,244.36,91.5,242c-2.72-1-4.9-.59-6,1.13a4.67,4.67,0,0,0,.84,5.66,19.45,19.45,0,0,0,4.74,3C91.75,252.11,92.4,252.44,93.05,252.8Z" style="fill:#455a64"></path><path d="M99.36,259.71a.41.41,0,0,1-.21-.36c0-4.25-4.48-11.36-9.7-13.64a.44.44,0,0,1-.21-.55.42.42,0,0,1,.55-.22c5,2.18,10.18,9.46,10.19,14.4a.41.41,0,0,1-.42.42A.46.46,0,0,1,99.36,259.71Z" style="fill:#455a64"></path><path d="M100.08,254.6a.43.43,0,0,1-.22-.42c1.29-10.3,6.74-17.37,11.22-18.78a4.3,4.3,0,0,1,4.74,1.09,5.17,5.17,0,0,1,1.38,4.82,8.51,8.51,0,0,1-5.28,5.44c-4.16,1.57-10.58,4.88-11.24,7.58a.41.41,0,0,1-.48.31A.42.42,0,0,1,100.08,254.6Zm14.25-18.25a3.81,3.81,0,0,0-3-.15c-3.92,1.24-8.64,7.17-10.31,16,3-3.28,10.24-6.06,10.6-6.2a7.6,7.6,0,0,0,4.76-4.84,4.29,4.29,0,0,0-1.18-4.07A3.31,3.31,0,0,0,114.33,236.35Z" style="fill:#455a64"></path><path d="M100.08,254.6a.42.42,0,0,1-.21-.48c2.11-7.41,9.65-13.9,12.16-15.11a.41.41,0,0,1,.56.19.42.42,0,0,1-.2.56c-2.41,1.17-9.67,7.43-11.71,14.59a.41.41,0,0,1-.52.28Z" style="fill:#455a64"></path><path d="M104.82,225.67a13.54,13.54,0,0,0,2.37-7.36,3.24,3.24,0,0,0-1.28-2.76,2.62,2.62,0,0,0-3.09.71,7.76,7.76,0,0,0-1.48,3.07,11.84,11.84,0,0,0-1.14-6.2,2.87,2.87,0,0,0-1.73-1.74,2.43,2.43,0,0,0-2.2.9c-1.35,1.48-2.14,5.37-2.06,7.38,2.86,4,3.28,8.81,2.91,12.72-.17,1.75,2.16-.15,3.72-1.66A22.74,22.74,0,0,0,104.82,225.67Z" style="fill:#BA68C8"></path><path d="M104.82,225.67a13.54,13.54,0,0,0,2.37-7.36,3.24,3.24,0,0,0-1.28-2.76,2.62,2.62,0,0,0-3.09.71,7.76,7.76,0,0,0-1.48,3.07,11.84,11.84,0,0,0-1.14-6.2,2.87,2.87,0,0,0-1.73-1.74,2.43,2.43,0,0,0-2.2.9c-1.35,1.48-2.14,5.37-2.06,7.38,2.86,4,3.28,8.81,2.91,12.72-.17,1.75,2.16-.15,3.72-1.66A22.74,22.74,0,0,0,104.82,225.67Z" style="opacity:0.15"></path><path d="M95.57,224.54a13.23,13.23,0,0,0-4.26-6.76,3.21,3.21,0,0,0-2.92-.86,2.64,2.64,0,0,0-1.49,2.81,7.72,7.72,0,0,0,1.34,3.12,12,12,0,0,0-5.42-3.21,2.89,2.89,0,0,0-2.46.16,2.45,2.45,0,0,0-.76,2.25c.23,2,1.21,3.45,3.09,5.25a30.39,30.39,0,0,0,11.75,6.55c1.7.44,1.73.05,1.82-2.59A26.55,26.55,0,0,0,95.57,224.54Z" style="fill:#BA68C8"></path><path d="M99.5,233s8,.32,10.33-4.39S107,224,107,224A25.55,25.55,0,0,1,99.5,233Z" style="fill:#BA68C8"></path><path d="M99.5,233s8,.32,10.33-4.39S107,224,107,224A25.55,25.55,0,0,1,99.5,233Z" style="opacity:0.25"></path><path d="M94.75,234.62c-1.57-.09-7.57-1.9-12-6.06a3.2,3.2,0,0,0-3,2C78.53,233.34,87.08,238.23,94.75,234.62Z" style="fill:#BA68C8"></path><path d="M94.75,234.62c-1.57-.09-7.57-1.9-12-6.06a3.2,3.2,0,0,0-3,2C78.53,233.34,87.08,238.23,94.75,234.62Z" style="opacity:0.15"></path></g><g id="freepik--plant--inject-8"><path d="M41.77,280.26a19,19,0,0,1,2.59-.82,24.34,24.34,0,0,1,3.48-.79,19.64,19.64,0,0,1,7.82.45,14.72,14.72,0,0,1,6.88,3.9,35,35,0,0,1,4.61,6.14c.17.28.38,0,.31-.25a16.76,16.76,0,0,0-11.54-10.72,19.88,19.88,0,0,0-8.3-.48,14.71,14.71,0,0,0-3.31.94,15.31,15.31,0,0,0-2.56,1.5s-.08.18,0,.13Z" style="fill:#37474f"></path><path d="M37.22,276.69a1.61,1.61,0,0,0,1.66,1.54,1.6,1.6,0,1,0-1.66-1.54Z" style="fill:#BA68C8"></path><path d="M38.9,284.39a1.6,1.6,0,1,0,1.54-1.66A1.61,1.61,0,0,0,38.9,284.39Z" style="fill:#BA68C8"></path><path d="M32.24,280.08a1.33,1.33,0,1,0,1.28-1.38A1.34,1.34,0,0,0,32.24,280.08Z" style="fill:#BA68C8"></path><path d="M29.77,285.25a1.33,1.33,0,1,0,1.28-1.38A1.34,1.34,0,0,0,29.77,285.25Z" style="fill:#BA68C8"></path><path d="M25.43,282.33A1.33,1.33,0,1,0,26.71,281,1.34,1.34,0,0,0,25.43,282.33Z" style="fill:#BA68C8"></path></g><g id="freepik--flower--inject-8"><path d="M69.39,262a40,40,0,0,0-2,8.62,36.53,36.53,0,0,0,.2,8.68,35.1,35.1,0,0,0,5,13.95,22.43,22.43,0,0,0,2.8,3.49,9.78,9.78,0,0,0,3.77,2.71c.29.09.45-.21.34-.45-.47-1-1.63-1.67-2.41-2.39a21.22,21.22,0,0,1-2.42-2.68,26,26,0,0,1-3.32-5.94,40.37,40.37,0,0,1-3.11-16.05A35.93,35.93,0,0,1,69.59,262c0-.18-.14-.22-.2-.05Z" style="fill:#37474f"></path><path d="M67.76,274A24.42,24.42,0,0,1,57.5,263.24c-3.91-7.75-3.89-12.59-1.26-15a4.65,4.65,0,0,1,5.32-.84s1.82-3.57,4.06-3.33S70,247.69,70,247.69s1.18-1.93,2.12-2.22,7.15,3.95,7.28,9S75.17,271,67.76,274Z" style="fill:#BA68C8"></path><path d="M67.76,274A24.42,24.42,0,0,1,57.5,263.24c-3.91-7.75-3.89-12.59-1.26-15a4.65,4.65,0,0,1,5.32-.84s1.82-3.57,4.06-3.33S70,247.69,70,247.69s1.18-1.93,2.12-2.22,7.15,3.95,7.28,9S75.17,271,67.76,274Z" style="opacity:0.25"></path><path d="M69,273.71a29.35,29.35,0,0,0,10.47-8.85c4.81-6.38,5.33-9.88,3.08-13.13s-4.89-2.19-5.38,2.06c0,0-1.56-1.41-2.84-.94a4.4,4.4,0,0,0-2.44,3.05C71.89,256.7,74.07,267.25,69,273.71Z" style="fill:#BA68C8"></path><path d="M69,273.71a29.35,29.35,0,0,0,10.47-8.85c4.81-6.38,5.33-9.88,3.08-13.13s-4.89-2.19-5.38,2.06c0,0-1.56-1.41-2.84-.94a4.4,4.4,0,0,0-2.44,3.05C71.89,256.7,74.07,267.25,69,273.71Z" style="opacity:0.15"></path><path d="M65.27,272.54a25.87,25.87,0,0,1-9.9-4.85c-4.15-3.57-6.44-7.66-3.2-8.63,0,0-1.42-1.72-.34-3.19s6.89-.76,9.8,2.78S65.27,272.54,65.27,272.54Z" style="fill:#BA68C8"></path><path d="M65.27,272.54a25.87,25.87,0,0,1-9.9-4.85c-4.15-3.57-6.44-7.66-3.2-8.63,0,0-1.42-1.72-.34-3.19s6.89-.76,9.8,2.78S65.27,272.54,65.27,272.54Z" style="opacity:0.15"></path><path d="M69,273.71c3.51-2.54,5.87-8.4,6.24-12.07.45-4.43-1.56-9.38-4.76-10.88s-6.7.39-6.7.39-2.55-1.74-5.38,1c-2,1.86-.43,8.53,1.92,13.45S66.28,273.21,69,273.71Z" style="fill:#BA68C8"></path><path d="M68.08,278.56a10.45,10.45,0,0,1,4-4.61C75,272,77.44,270,76.22,268.19s-5.08,2.55-5.08,2.55-.18-4.84-2.52-4.94c-3.05-.13-2.46,5.73-2.46,5.73s-3.47-3.66-5-2.36S60.74,272.49,63,274,67.67,277.33,68.08,278.56Z" style="fill:#37474f"></path><path d="M79.58,305.11s-2.58,4.12-11.27,1.08c-9.4-3.29-11.76-16.43-22.26-16.47,0,0,5.79-9.14,22.46-3.3C84.37,292,79.58,305.11,79.58,305.11Z" style="fill:#BA68C8"></path><path d="M79.58,305.11s-2.58,4.12-11.27,1.08c-9.4-3.29-11.76-16.43-22.26-16.47,0,0,5.79-9.14,22.46-3.3C84.37,292,79.58,305.11,79.58,305.11Z" style="opacity:0.30000000000000004"></path><path d="M68.31,306.19c8.69,3,11.27-1.08,11.27-1.08-3.24-16.27-28.82-20.17-33.53-15.39C56.55,289.76,58.91,302.9,68.31,306.19Z" style="opacity:0.15"></path></g><path d="M79.43,305.48a10.13,10.13,0,0,1-2.85-8c.57-4.79,2.38-9.58,9.36-12.86s17.27-3.3,20.69-6.78c0,0-2.29,6.32-3.7,8.93-3,5.42-5.41,7.76-10.45,10.64C84.87,301.76,80.15,301.27,79.43,305.48Z" style="fill:#BA68C8"></path><path d="M79.43,305.48a10.13,10.13,0,0,1-2.85-8c.57-4.79,2.38-9.58,9.36-12.86s17.27-3.3,20.69-6.78c0,0-2.29,6.32-3.7,8.93-3,5.42-5.41,7.76-10.45,10.64C84.87,301.76,80.15,301.27,79.43,305.48Z" style="opacity:0.30000000000000004"></path><path d="M93.15,287.84c5.19-2.59,12-6.24,13.48-10,0,0-2.29,6.32-3.7,8.93-3,5.42-5.41,7.76-10.45,10.64-7.61,4.35-12.33,3.86-13,8.07C76.45,295.73,88,290.43,93.15,287.84Z" style="opacity:0.15"></path></g></g><g id="freepik--Document--inject-8"><g id="freepik--marriage-contract--inject-8"><path d="M278.58,454.62l169-97.57a3.22,3.22,0,0,0,1.45-2.51v-1.88a3.19,3.19,0,0,0-1.45-2.51L224.3,221.24a3.2,3.2,0,0,0-2.89,0l-169,97.57A3.19,3.19,0,0,0,51,321.32v1.88a3.21,3.21,0,0,0,1.45,2.51L275.69,454.62A3.2,3.2,0,0,0,278.58,454.62Z" style="fill:#fafafa"></path><path d="M447.59,350.16,224.3,221.24a3.17,3.17,0,0,0-2.86,0l-169,97.59a1.54,1.54,0,0,0-.29.21c-.48.46-.37,1.06.31,1.45L275.7,449.39a3,3,0,0,0,1.45.35,3,3,0,0,0,1.41-.33l169-97.6c.64-.38.75-.95.33-1.4a1.07,1.07,0,0,1,.19.18A2.13,2.13,0,0,0,447.59,350.16Zm-7.22.83L277.14,445.23,59.63,319.65l163.23-94.24Z" style="fill:#BA68C8"></path><path d="M447.93,350.42c.43.45.31,1-.34,1.4l-169,97.57a3,3,0,0,1-1.45.35V455a2.82,2.82,0,0,0,1.44-.35l169-97.57a3.14,3.14,0,0,0,1.44-2.5v-1.88A3.18,3.18,0,0,0,447.93,350.42Z" style="fill:#BA68C8"></path><path d="M447.93,350.42c.43.45.31,1-.34,1.4l-169,97.57a3,3,0,0,1-1.45.35V455a2.82,2.82,0,0,0,1.44-.35l169-97.57a3.14,3.14,0,0,0,1.44-2.5v-1.88A3.18,3.18,0,0,0,447.93,350.42Z" style="opacity:0.30000000000000004"></path><path d="M52.11,319a3.59,3.59,0,0,0-.39.39,2,2,0,0,1-.17.23,4.13,4.13,0,0,0-.41.78A2.08,2.08,0,0,0,51,321a2.28,2.28,0,0,0,0,.36v1.88a3.16,3.16,0,0,0,1.45,2.5L275.69,454.61a2.91,2.91,0,0,0,1.45.35v-5.22a3.11,3.11,0,0,1-1.45-.35L52.42,320.48C51.73,320.09,51.63,319.49,52.11,319Z" style="fill:#BA68C8"></path><path d="M52.11,319a3.59,3.59,0,0,0-.39.39,2,2,0,0,1-.17.23,4.13,4.13,0,0,0-.41.78A2.08,2.08,0,0,0,51,321a2.28,2.28,0,0,0,0,.36v1.88a3.16,3.16,0,0,0,1.45,2.5L275.69,454.61a2.91,2.91,0,0,0,1.45.35v-5.22a3.11,3.11,0,0,1-1.45-.35L52.42,320.48C51.73,320.09,51.63,319.49,52.11,319Z" style="opacity:0.15"></path><path d="M107.52,316.62l1.11-.83-6.9-4-1.29.59-.7-.41,3.45-2,7.9,2.1-3.76-4.49,3.32-1.91.7.41-.82.6c1,.63,2.13,1.26,3.22,1.89l.48.28c1.09.62,2.18,1.25,3.28,1.86l1.07-.5.71.41-4.18,2.41-.71-.41.84-.62c-1-.63-2.08-1.22-2.93-1.73l-2.87-1.68,4.35,5.2-1,.58L103.59,312l2.68,1.48,3.2,1.84,1.24-.52.71.41-3.2,1.84Z" style="fill:#455a64"></path><path d="M122.7,307.79a1.46,1.46,0,0,1-.92,1.63,3.37,3.37,0,0,1-3.39,0c-.93-.54-1.08-1.21.35-2.72.18-.19.46-.46.73-.72l-.43-.25c-1.16-.68-1.73-.74-2.57-.26l-.34.21.52.37c.83.52.77,1,.26,1.26a1.78,1.78,0,0,1-1.53.13c-1-.67-.71-1.71,1.17-2.8a4.28,4.28,0,0,1,4.82.07l2.94,1.7a.62.62,0,0,0,.66.05c.15-.08.19-.18.11-.39l.59-.07c.39.59.2,1-.59,1.47A3,3,0,0,1,122.7,307.79Zm-1,.44a.93.93,0,0,0,.44-.67L120,306.33c-.16.18-.3.36-.4.49a.82.82,0,0,0,.35,1.31A1.72,1.72,0,0,0,121.73,308.23Z" style="fill:#455a64"></path><path d="M126.15,306l.58-.5c-.63-.38-1.43-.84-2-1.15l-.77-.45c-.72-.42-1-.56-1.55-.85l-.91.4-.51-.3,1.7-2,.38-.05,1.66.83c-.77-.86-.57-1.62.07-2a2.38,2.38,0,0,1,2.11-.1c.65.41.67.85.14,1.16a2.77,2.77,0,0,1-1.62.22h-.19a1.91,1.91,0,0,0,.7,1.41l.89.52,1.92,1.09,1.26-.47.62.36-3.88,2.24Z" style="fill:#455a64"></path><path d="M132.24,302.44l.58-.49c-.63-.38-1.43-.84-2-1.16l-.77-.45c-.72-.41-1-.56-1.54-.84l-.92.39-.51-.3,1.7-2,.38-.06,1.66.83c-.77-.86-.57-1.62.07-2a2.41,2.41,0,0,1,2.11-.1c.65.41.67.86.14,1.16a2.68,2.68,0,0,1-1.62.23l-.19,0a1.91,1.91,0,0,0,.7,1.41l.89.52,1.92,1.1,1.26-.47.62.35-3.88,2.24Z" style="fill:#455a64"></path><path d="M142.46,297.26l-3.47,2-.62-.35.55-.5c-.61-.37-1.41-.84-2-1.15l-.63-.37c-.72-.41-1.14-.64-1.69-.93l-.93.4-.51-.29,1.87-2.09.37-.05,1.86,1.12,1.74,1c.55.32,1.36.79,2,1.15l.79-.3ZM131.08,294c-.62-.36-.55-.89.07-1.25a2.35,2.35,0,0,1,2.16,0c.6.35.53.89-.08,1.24A2.31,2.31,0,0,1,131.08,294Z" style="fill:#455a64"></path><path d="M146,294.35a1.46,1.46,0,0,1-.92,1.64,3.39,3.39,0,0,1-3.39,0c-.93-.54-1.07-1.21.36-2.71.18-.2.45-.47.73-.73l-.43-.25c-1.17-.67-1.73-.74-2.57-.26l-.34.21.51.37c.84.52.77,1,.26,1.26a1.78,1.78,0,0,1-1.53.13c-1-.67-.71-1.71,1.18-2.8a4.27,4.27,0,0,1,4.82.08l2.93,1.69a.64.64,0,0,0,.67.05c.14-.08.18-.18.1-.39l.59-.07c.4.59.2,1-.59,1.48A3,3,0,0,1,146,294.35Zm-1,.44a1,1,0,0,0,.45-.66l-2.14-1.24c-.15.19-.3.36-.39.49a.81.81,0,0,0,.34,1.31A1.72,1.72,0,0,0,145,294.79Z" style="fill:#455a64"></path><path d="M146.3,287.49a6,6,0,0,1,2.68-.85l.84-1.21.34,0,1,.58-1.24.72a3.6,3.6,0,0,1,1.24.44c1.18.68,1.21,1.73-.65,2.8a7.18,7.18,0,0,1-1.35.6,1.08,1.08,0,0,0,.44.44,1.21,1.21,0,0,0,1.26-.16l1.53-.88c2-1.15,3.46-1.1,4.6-.45,1.32.77,1.11,2.17-1.4,3.63-2.18,1.25-3.55,1.2-4.35.74-.55-.32-.65-.79-.26-1.41a2.45,2.45,0,0,1-1.81-.17,1.38,1.38,0,0,1-.69-1.56,4.17,4.17,0,0,1-2.81-.41C144.47,289.6,144.44,288.57,146.3,287.49Zm9.7,3.32a1.71,1.71,0,0,0-1.7.13l-1.37.79a8.9,8.9,0,0,1-1.31.62,1.09,1.09,0,0,0,.55.56c.77.44,1.67.32,2.87-.37S156.58,291.15,156,290.81Zm-8.47-1.59a2.4,2.4,0,0,0,2.36.36c.61-.35.34-.86-.59-1.4a2.46,2.46,0,0,0-2.36-.33C146.35,288.19,146.6,288.68,147.53,289.22Z" style="fill:#455a64"></path><path d="M159.2,283.25a3.12,3.12,0,0,1,.62.45L156,285.88a4,4,0,0,0,3.77.15,1.42,1.42,0,0,0,.88-1.32l.88,0c.5.91.05,1.74-1.22,2.47a6.69,6.69,0,0,1-6.61-.05c-2.19-1.26-1.71-2.92,0-3.9A5.64,5.64,0,0,1,159.2,283.25Zm-3.85,2.24,1.11-.64c.63-.37.57-.6,0-.94a2.27,2.27,0,0,0-2.18-.23C153.77,284,153.81,284.54,155.35,285.49Z" style="fill:#455a64"></path><path d="M171.8,279.44l-1.31-1.18,1-.57,2,1.19a5.16,5.16,0,0,1-2.08,2,9.14,9.14,0,0,1-9.1,0c-3.09-1.79-2.37-3.88.09-5.3a9.18,9.18,0,0,1,3.22-1.11l2.08,1.14-1,.58-2.1-.77a3.51,3.51,0,0,0-1.16.41c-1.39.81-1.48,2.17,1.19,3.72s5,1.5,6.35.7A2.57,2.57,0,0,0,171.8,279.44Z" style="fill:#455a64"></path><path d="M171.46,276.82c-2-1.15-1.89-2.76,0-3.84a7,7,0,0,1,6.66,0c2,1.18,2.1,2.71.07,3.88A6.85,6.85,0,0,1,171.46,276.82Zm4.47-2.53c-1.86-1.07-3.05-1.34-3.79-.91s-.29,1.12,1.57,2.19,3,1.33,3.79.9S177.79,275.36,175.93,274.29Z" style="fill:#455a64"></path><path d="M184.52,268l1.53.88c.58.34,1.36.79,2,1.15l.78-.3.62.36-3.46,2-.61-.35.53-.48-2-1.16-1.38-.79c-.84-.48-1.35-.54-1.86-.24a1.35,1.35,0,0,0-.64.93l2,1.17c.55.32,1.36.79,2,1.15l.74-.28.62.36-3.45,2-.61-.35.55-.5-2-1.15-.76-.44c-.72-.41-1-.56-1.55-.85l-.92.39-.51-.29,1.7-2,.38,0,1,.5a1.71,1.71,0,0,1,1-1.84A4.08,4.08,0,0,1,184.52,268Z" style="fill:#455a64"></path><path d="M192.55,267.33a.83.83,0,0,0,.42-.58h.64c.31.59.09,1.16-.88,1.72a3.44,3.44,0,0,1-3.69,0l-1.3-.76-2.5-1.45-.85.49-.77-.44.83-.64-1.17-1.43,1.33-.78,1.82,1.09,1.38-.8.89.52-1.38.79L191,267.2A1.57,1.57,0,0,0,192.55,267.33Z" style="fill:#455a64"></path><path d="M194.11,266.73l.57-.5-2-1.16-.78-.44c-.72-.42-1-.56-1.54-.85l-.92.39-.51-.29,1.7-2,.38-.05,1.67.82c-.78-.85-.58-1.62.06-2a2.42,2.42,0,0,1,2.11-.09c.65.4.67.85.14,1.15a2.68,2.68,0,0,1-1.62.23l-.18,0a1.88,1.88,0,0,0,.69,1.42l.89.51,1.93,1.1,1.25-.47.62.36-3.88,2.23Z" style="fill:#455a64"></path><path d="M203.38,261.21a1.45,1.45,0,0,1-.92,1.63,3.39,3.39,0,0,1-3.39,0c-.93-.53-1.07-1.21.36-2.71.18-.2.45-.46.73-.73l-.43-.25c-1.17-.67-1.73-.74-2.57-.25l-.34.21.51.37c.84.51.77,1,.26,1.25a1.75,1.75,0,0,1-1.53.13c-1-.66-.71-1.71,1.18-2.79a4.28,4.28,0,0,1,4.82.07l2.93,1.69a.64.64,0,0,0,.67.06c.14-.09.18-.18.1-.4l.59-.06c.4.59.2,1-.59,1.47A3,3,0,0,1,203.38,261.21Zm-1,.44a1,1,0,0,0,.45-.67l-2.14-1.23a5.54,5.54,0,0,0-.39.48.82.82,0,0,0,.34,1.32A1.74,1.74,0,0,0,202.41,261.65Z" style="fill:#455a64"></path><path d="M206.26,256.5a4.24,4.24,0,0,0,4.18.3,1.2,1.2,0,0,0,.73-1.27l.87,0c.55.91.13,1.74-1.12,2.46a6.77,6.77,0,0,1-6.6,0c-2.14-1.24-1.8-2.87.15-4a5,5,0,0,1,4.36-.31c.33.36.26.64-.21.91a2.28,2.28,0,0,1-2.24-.15l-.75-.32a1.65,1.65,0,0,0-.26.14C204.63,254.61,204.49,255.48,206.26,256.5Z" style="fill:#455a64"></path><path d="M216.6,253.44a.84.84,0,0,0,.42-.57h.64c.31.59.09,1.16-.88,1.72a3.44,3.44,0,0,1-3.69,0l-1.3-.77-2.5-1.44-.85.49-.78-.45.84-.63-1.18-1.44,1.34-.77,1.82,1.08,1.37-.79.9.51-1.38.8,3.67,2.11A1.52,1.52,0,0,0,216.6,253.44Z" style="fill:#455a64"></path><path d="M117.54,323.13a1.24,1.24,0,0,1-1.07-.61,1.25,1.25,0,0,1,.45-1.7l109.18-63a1.24,1.24,0,0,1,1.24,2.14L118.16,323A1.27,1.27,0,0,1,117.54,323.13Z" style="fill:#e0e0e0"></path><path d="M122.83,326.19a1.24,1.24,0,0,1-.62-2.31l109.18-63a1.24,1.24,0,1,1,1.24,2.14L123.45,326A1.29,1.29,0,0,1,122.83,326.19Z" style="fill:#e0e0e0"></path><path d="M123,339.36a1.23,1.23,0,0,1-1.07-.62,1.24,1.24,0,0,1,.45-1.69l132-76.19a1.24,1.24,0,0,1,1.23,2.15l-132,76.19A1.27,1.27,0,0,1,123,339.36Z" style="fill:#e0e0e0"></path><path d="M130.54,343.72a1.24,1.24,0,0,1-.62-2.31l132-76.19a1.24,1.24,0,0,1,1.24,2.14l-132,76.19A1.16,1.16,0,0,1,130.54,343.72Z" style="fill:#e0e0e0"></path><path d="M138.09,348.07a1.24,1.24,0,0,1-.62-2.31l132-76.19a1.24,1.24,0,1,1,1.24,2.15l-132,76.19A1.27,1.27,0,0,1,138.09,348.07Z" style="fill:#e0e0e0"></path><path d="M203.57,385.88a1.21,1.21,0,0,1-1.07-.62,1.23,1.23,0,0,1,.45-1.69l132-76.19a1.24,1.24,0,1,1,1.24,2.14l-132,76.19A1.29,1.29,0,0,1,203.57,385.88Z" style="fill:#e0e0e0"></path><path d="M211.11,390.23a1.23,1.23,0,0,1-1.07-.62,1.24,1.24,0,0,1,.45-1.69l132-76.19a1.24,1.24,0,0,1,1.24,2.15l-132,76.19A1.25,1.25,0,0,1,211.11,390.23Z" style="fill:#e0e0e0"></path><path d="M218.66,394.59a1.24,1.24,0,0,1-.62-2.31l132-76.19a1.24,1.24,0,0,1,1.24,2.14l-132,76.19A1.13,1.13,0,0,1,218.66,394.59Z" style="fill:#e0e0e0"></path><path d="M158.21,359.69a1.24,1.24,0,0,1-.63-2.31l58.14-33.57A1.24,1.24,0,0,1,217,326l-58.14,33.56A1.22,1.22,0,0,1,158.21,359.69Z" style="fill:#e0e0e0"></path><path d="M166.49,364.47a1.23,1.23,0,0,1-1.07-.62,1.24,1.24,0,0,1,.45-1.69L224,328.6a1.24,1.24,0,1,1,1.24,2.14l-58.13,33.57A1.27,1.27,0,0,1,166.49,364.47Z" style="fill:#e0e0e0"></path><path d="M174.78,369.26a1.26,1.26,0,0,1-1.08-.62,1.25,1.25,0,0,1,.46-1.7l58.13-33.56a1.24,1.24,0,0,1,1.24,2.15l-58.14,33.56A1.22,1.22,0,0,1,174.78,369.26Z" style="fill:#e0e0e0"></path><path d="M183.06,374a1.23,1.23,0,0,1-1.07-.62,1.24,1.24,0,0,1,.45-1.69l58.14-33.57a1.24,1.24,0,1,1,1.23,2.15l-58.13,33.56A1.19,1.19,0,0,1,183.06,374Z" style="fill:#e0e0e0"></path><path d="M191.35,378.82a1.24,1.24,0,0,1-.62-2.31L248.86,343a1.24,1.24,0,0,1,1.24,2.14L192,378.66A1.21,1.21,0,0,1,191.35,378.82Z" style="fill:#e0e0e0"></path><path d="M232,317.06a1.24,1.24,0,0,1-.62-2.31l58.13-33.56a1.24,1.24,0,0,1,1.24,2.14L232.66,316.9A1.27,1.27,0,0,1,232,317.06Z" style="fill:#e0e0e0"></path><path d="M240.32,321.85a1.24,1.24,0,0,1-.62-2.32L297.84,286a1.24,1.24,0,1,1,1.23,2.15l-58.13,33.56A1.26,1.26,0,0,1,240.32,321.85Z" style="fill:#e0e0e0"></path><path d="M248.61,326.63a1.24,1.24,0,0,1-.62-2.31l58.13-33.57a1.24,1.24,0,0,1,1.24,2.15l-58.13,33.56A1.29,1.29,0,0,1,248.61,326.63Z" style="fill:#e0e0e0"></path><path d="M256.89,331.41a1.24,1.24,0,0,1-.62-2.31l58.14-33.56a1.24,1.24,0,0,1,1.24,2.14l-58.14,33.57A1.25,1.25,0,0,1,256.89,331.41Z" style="fill:#e0e0e0"></path><path d="M265.18,336.2a1.24,1.24,0,0,1-.62-2.31l58.13-33.57a1.24,1.24,0,0,1,1.24,2.15L265.8,336A1.29,1.29,0,0,1,265.18,336.2Z" style="fill:#e0e0e0"></path><path d="M148.15,353.88a1.24,1.24,0,0,1-.62-2.31l31.87-18.4a1.24,1.24,0,1,1,1.24,2.14l-31.87,18.4A1.19,1.19,0,0,1,148.15,353.88Z" style="fill:#455a64"></path><path d="M238.83,406.24a1.23,1.23,0,0,1-1.07-.62,1.24,1.24,0,0,1,.45-1.69l132-76.19a1.23,1.23,0,1,1,1.23,2.14l-132,76.19A1.29,1.29,0,0,1,238.83,406.24Z" style="fill:#e0e0e0"></path><path d="M246.37,410.59a1.24,1.24,0,0,1-.62-2.31l132-76.19a1.24,1.24,0,0,1,1.24,2.15L247,410.43A1.25,1.25,0,0,1,246.37,410.59Z" style="fill:#e0e0e0"></path><path d="M253.92,415a1.24,1.24,0,0,1-.62-2.31l132-76.19a1.24,1.24,0,1,1,1.24,2.14l-132,76.19A1.29,1.29,0,0,1,253.92,415Z" style="fill:#e0e0e0"></path><path d="M229,400.57a1.24,1.24,0,0,1-.62-2.31l31.87-18.4a1.24,1.24,0,1,1,1.24,2.14l-31.87,18.41A1.27,1.27,0,0,1,229,400.57Z" style="fill:#455a64"></path><path d="M222,311.23a1.24,1.24,0,0,1-.62-2.31l31.87-18.41a1.24,1.24,0,0,1,1.24,2.15l-31.88,18.4A1.22,1.22,0,0,1,222,311.23Z" style="fill:#455a64"></path><path d="M276.25,424.79c2.64.14,6.07,0,7.6-2.56a5.81,5.81,0,0,0,.36-4.24,4.75,4.75,0,0,0-2-3.27,2,2,0,0,0-1.7-.28c-.61.29-.71,1.16-.7,1.75a10.7,10.7,0,0,0,1.21,4.49,5.6,5.6,0,0,0,2.81,2.84,5.35,5.35,0,0,0,4.19,0,3.44,3.44,0,0,0,2.14-3.21,3.06,3.06,0,0,0-2.17-3.28.34.34,0,0,0-.49.28,5,5,0,0,0,.85,3.39,4.46,4.46,0,0,0,2.73,1.63c1.16.18,1.54-1.17,1.57-2.11a8.45,8.45,0,0,0-1.11-3.74c-.16-.33-.82-.41-.66.08a4,4,0,0,0,1.47,1.94c.67.49,1.39,1,2.08.3,1.18-1.17,0-3-.71-4l-.3.46a8.59,8.59,0,0,0,3.36,1.94c.14,0,.23-.06.24-.19a5.28,5.28,0,0,0-.74-3l-.29.33c1.1,1.31,3.1,2.5,4.84,1.73,1.59-.7,1.25-3,1.13-4.44a21.78,21.78,0,0,0-5-11.67c-.2-.23-.51-.12-.49.18a26.6,26.6,0,0,0,1.73,7,58.4,58.4,0,0,0,3.21,7.24,21.72,21.72,0,0,0,3.14,4.84c.29.3.69.73,1.15.73,1.1,0,1.41-1.25,1.28-2.11a8.7,8.7,0,0,0-.63-2c-.44-1.11-.89-2.2-1.34-3.3q-1.4-3.36-2.86-6.68l-.51.17a24,24,0,0,0,5.52,6.45c.26.22.44-.08.38-.33-.35-1.53-.71-3.06-1.07-4.59l-.41.25,3.27,2.4a.25.25,0,0,0,.4-.08,5.38,5.38,0,0,0,0-3.71l-.31.4a7.89,7.89,0,0,1,2.46,1.27c.23.19.44,0,.42-.27l-.1-1.09-.64-.06c.12,1.13,1.55,1.48,2.47,1.57a4.61,4.61,0,0,0,3.89-1.21c1.12-1.17,1.38-3.07,1.57-4.6a10,10,0,0,0-.64-5.56,2.76,2.76,0,0,0-3.55-1.3,2.81,2.81,0,0,0-1.52,3.22,9.7,9.7,0,0,0,1.86,4.39,14,14,0,0,0,1.87,2,4.52,4.52,0,0,0,2.15,1.25c1.79.3,2.93-1,3.14-2.65a7.59,7.59,0,0,0-1.67-5.6c-.17-.23-.73-.25-.65.15a4.49,4.49,0,0,0,4.25,3.3c1.14.08,4.33-.49,3.61-2.3-.17-.45-1-.51-.76.06s-.55.9-.93,1.07a5,5,0,0,1-2.06.37c-1.39,0-3.09-.81-3.31-2.34l-.73.05a7.34,7.34,0,0,1,1.5,4c0,1.14-.18,2.52-1.37,3-1.51.6-2.83-.81-3.76-1.8a9.26,9.26,0,0,1-2.12-3.58c-.3-1-.58-2.3.12-3.2a2,2,0,0,1,3.09-.15,7.44,7.44,0,0,1,.81,4.26,13.27,13.27,0,0,1-.77,4.19,3.52,3.52,0,0,1-2.91,2.18,5.52,5.52,0,0,1-1.77-.07c-.36-.08-1.12-.23-1.17-.69s-.69-.58-.64-.06l.1,1.08.42-.27a8.26,8.26,0,0,0-2.62-1.35c-.27-.09-.39.17-.31.41a4.61,4.61,0,0,1,0,3.17l.4-.09-3.26-2.39c-.2-.15-.48,0-.42.24.38,1.59.76,3.18,1.13,4.77l.39-.32a22.9,22.9,0,0,1-5.27-6.16c-.18-.31-.68-.22-.51.18,1.52,3.45,3,6.92,4.4,10.44a6.06,6.06,0,0,1,.43,1.55c0,.53-.19,1.31-.87,1.32-.27,0-.63-.42-.83-.65a23,23,0,0,1-2.85-4.48,57.59,57.59,0,0,1-3-6.61,26,26,0,0,1-1.82-7.25l-.48.18a21.31,21.31,0,0,1,4.72,10.22,15.79,15.79,0,0,1,.18,2.57,2.54,2.54,0,0,1-.53,2c-1.46,1.23-3.7-.11-4.69-1.29-.23-.27-.42.11-.29.33a4.37,4.37,0,0,1,.64,2.54l.23-.19a7.23,7.23,0,0,1-3.1-1.85c-.26-.28-.62,0-.41.31.45.71,1.18,1.78.88,2.66a1.05,1.05,0,0,1-.45.58c-.35.14-.75-.14-1-.34a2.9,2.9,0,0,1-1.13-1.39l-.65.08a8.52,8.52,0,0,1,.92,2.68,3.32,3.32,0,0,1-.1,1.33,2.14,2.14,0,0,1-.33.7c-.23.23-.49.14-.76.05a3.34,3.34,0,0,1-1.81-1.27,4.18,4.18,0,0,1-.42-2.56l-.49.28c1.17.43,1.36,1.44,1.23,2.58a2.73,2.73,0,0,1-1.79,2.26,4.4,4.4,0,0,1-3.38-.07,4.23,4.23,0,0,1-2-2.15,9.81,9.81,0,0,1-1.06-3.38c-.05-.43-.23-1.43.15-1.76s1.2.32,1.45.64a7,7,0,0,1,1.07,3.1,3.91,3.91,0,0,1-.73,3.28c-1.6,1.91-4.28,2-6.58,2-.18,0-.15.38,0,.39Z" style="fill:#455a64"></path><path d="M354.47,376.89a4.3,4.3,0,0,1-.27-4.06,5.68,5.68,0,0,1,1.29-1.75c.42-.4.93-.63,1.37-.09a6.48,6.48,0,0,1,.71,1.26,30.84,30.84,0,0,1,3.18,9.31l.71,0a9.29,9.29,0,0,1-.35-3.88,3.45,3.45,0,0,1,.88-1.92c.43-.35.69,0,1,.3a6.89,6.89,0,0,1,.83.95c.16.23.75.38.67-.09a4.68,4.68,0,0,1,.3-2.64,2.41,2.41,0,0,1,.25-.51c.28-.37.4-.13.65.11a2.9,2.9,0,0,1,.69,1.07l.72-.1a2.58,2.58,0,0,1-.2-1.5c.16-.81.77-.26,1.05.12a4.18,4.18,0,0,0,1.24,1.37c.33.2.63.3.9,0a4.23,4.23,0,0,0,.61-1.22,13.87,13.87,0,0,0,.87-3.85,11.31,11.31,0,0,0-.17-5.08,1.83,1.83,0,0,0-1.12-1.18,1.27,1.27,0,0,0-1.47.48c-1,1-1,2.91-.92,4.27a10.81,10.81,0,0,0,1.49,4.58c.67,1.13,1.61,2.33,3.07,2.29a1.48,1.48,0,0,0,1.38-1,14.33,14.33,0,0,0,.81-3,15.65,15.65,0,0,0-.21-6c-.06-.26-.68-.68-.8-.24-.55,2.19-.42,4.33,1.42,5.86.13.12.44.23.57,0a5.72,5.72,0,0,0,.89-4.74l-.71.13,2.37,2.72a.39.39,0,0,0,.61,0,2.94,2.94,0,0,0-.13-2.91l-.53.39a11,11,0,0,0,2,1.66c.79.4,1.42-.09,2.06-.56a14.63,14.63,0,0,0,3.34-3.76,32,32,0,0,0,4.87-10.88c.35-1.58.46-3.28-.64-4.6s-2.87-.86-4.07.08a19.7,19.7,0,0,0-6.39,8.38,13.76,13.76,0,0,0-.91,4.39,6.11,6.11,0,0,0,1.19,4.43c2.41,2.74,6.57,1.39,9-.55a16.65,16.65,0,0,0,5.6-8.69,13,13,0,0,0,.39-2.49,7.59,7.59,0,0,0-.09-2.18,2.07,2.07,0,0,0-3.21-1,7.28,7.28,0,0,0-2.62,4.41,6.52,6.52,0,0,0,.53,4.28c1.66,3.18,5.79,3.1,8.83,2.49a16.63,16.63,0,0,0,2.61-.76c.28-.11,0-.67-.27-.61-2.81.6-6.55,1.77-9.17,0-2.32-1.56-2.08-5-.8-7.16a7.37,7.37,0,0,1,1.32-1.71c.44-.4,1.46-.82,1.77-.06a5,5,0,0,1,.11,2,12.47,12.47,0,0,1-.3,2.11,16.16,16.16,0,0,1-4.39,7.7c-1.84,1.87-5.1,3.87-7.74,2.51s-2-5.11-1.38-7.39a17.41,17.41,0,0,1,4.27-7.2c.49-.51,1-1,1.53-1.48a6.22,6.22,0,0,1,1.84-1.3c2.12-.8,2.41,1.95,2.17,3.38a29.22,29.22,0,0,1-3.69,9.75,21.15,21.15,0,0,1-2.94,4.08,7.9,7.9,0,0,1-2,1.66c-.55.27-.83-.07-1.23-.41l-1.14-1c-.35-.3-.78-.05-.54.39a2.15,2.15,0,0,1,0,2.15l.68.07-2.29-2.64c-.18-.21-.84-.36-.7.13a5.12,5.12,0,0,1-.78,4.21l.57,0c-1.54-1.28-1.55-3.09-1.09-4.9l-.8-.24a14.7,14.7,0,0,1,.33,4.68,13.28,13.28,0,0,1-.36,2.17,5.87,5.87,0,0,1-.7,2.09c-.46.61-1.39.24-1.87-.15a5.52,5.52,0,0,1-1.21-1.77,9.81,9.81,0,0,1-1.12-4.09c0-1.2,0-2.92,1-3.67.86-.58,1.11,1.09,1.18,1.59a11.54,11.54,0,0,1,0,2.35,18.74,18.74,0,0,1-.63,4.08c-.1.31-.22.62-.35.93-.06.16-.31,1-.5,1,0,0-.35-.39-.43-.48s-.33-.51-.51-.75a2.33,2.33,0,0,0-1.19-.91c-1.56-.4-1.23,2-.9,2.82.18.42.92.44.72-.1-.26-.71-1.52-2.68-2.46-2a3.26,3.26,0,0,0-.83,1.74,5.06,5.06,0,0,0-.07,2.19l.68-.08a8,8,0,0,0-1-1.13,3.13,3.13,0,0,0-1.12-.82c-.83-.23-1.41.88-1.67,1.51a8.39,8.39,0,0,0,.08,5.33c.09.33.79.51.71,0a30.44,30.44,0,0,0-1.62-5.78,31.37,31.37,0,0,0-1.32-3c-.26-.52-.54-1-.82-1.54a3.69,3.69,0,0,0-.75-1.07c-1.44-1.18-2.91,1.22-3.34,2.36a4.66,4.66,0,0,0,.63,4.43c.16.22.31-.07.21-.24Z" style="fill:#455a64"></path></g></g><g id="freepik--Rings--inject-8"><g id="freepik--rings--inject-8"><path id="freepik--shadow--inject-8" d="M286.09,318.62c-5.39-3.11-12.51-4.82-20-4.82s-14.39,1.65-19.73,4.64a36.77,36.77,0,0,0-16.94,4.41c-5.22,3-8.09,7.11-8.09,11.54s2.87,8.53,8.09,11.54c4.95,2.86,11.5,4.43,18.45,4.43h0a41,41,0,0,0,13.25-2.1,47.93,47.93,0,0,0,5,.26h0c7.54,0,14.67-1.71,20-4.82,5.67-3.27,8.79-7.73,8.79-12.54S291.76,321.89,286.09,318.62ZM263.45,341c-.68.39-1.4.75-2.16,1.09a31.73,31.73,0,0,1-12.24-3.74c-3.69-2.13-5.73-4.7-5.73-7.23s2-5,5.5-7.09a31.4,31.4,0,0,1,14.63,3.66c3.4,2,5.27,4.33,5.27,6.66S266.85,339.08,263.45,341Zm-15.63,3.68A31.85,31.85,0,0,1,232.19,341c-3.4-2-5.27-4.32-5.27-6.65s1.87-4.69,5.27-6.66A26.09,26.09,0,0,1,239,325.1a11.63,11.63,0,0,0-1.76,6.06c0,4.81,3.13,9.27,8.8,12.54.62.36,1.27.7,1.93,1Zm35.2-6.33a31.45,31.45,0,0,1-11.86,3.69,11.42,11.42,0,0,0,3.2-7.69c0-4.43-2.88-8.53-8.09-11.54a30.13,30.13,0,0,0-5.85-2.55,43,43,0,0,1,5.62-.37c6.48,0,12.52,1.42,17,4,3.7,2.13,5.73,4.7,5.73,7.23S286.72,336.26,283,338.39Z" style="opacity:0.15"></path><g id="freepik--rings--inject-8"><g id="freepik--Ring--inject-8"><path d="M293.21,321.13v9.15c0,4-2.65,8-8,11.1-10.61,6.12-27.82,6.12-38.42,0-5.31-3.06-8-7.08-8-11.1v-9.15c0,4,2.65,8,8,11.09,10.6,6.13,27.81,6.13,38.42,0C290.56,329.16,293.21,325.15,293.21,321.13Z" style="fill:#BA68C8"></path><path d="M293.21,321.13v9.15c0,4-2.65,8-8,11.1-10.61,6.12-27.82,6.12-38.42,0-5.31-3.06-8-7.08-8-11.1v-9.15c0,4,2.65,8,8,11.09,10.6,6.13,27.81,6.13,38.42,0C290.56,329.16,293.21,325.15,293.21,321.13Z" style="fill:#fff;opacity:0.55"></path><path d="M286.08,340.87c-15,5.95-29.73,3-30,.66s2.86-5.26,2.86-5.26h0a35.2,35.2,0,0,1-12.1-4c-5.31-3.06-8-7.07-8-11.09v9.15c0,4,2.65,8,8,11.1,10.6,6.12,27.81,6.12,38.42,0Z" style="opacity:0.1"></path><path d="M290.42,321.13a7.58,7.58,0,0,1-1.67,4.58,16.1,16.1,0,0,0-4.89-4.1c-4.72-2.72-11.05-4.22-17.83-4.22s-13.1,1.5-17.81,4.22a16,16,0,0,0-4.9,4.1,7.65,7.65,0,0,1-1.67-4.58c0-3.15,2.33-6.23,6.57-8.68,4.71-2.72,11-4.22,17.81-4.22s13.11,1.5,17.83,4.22C288.09,314.9,290.42,318,290.42,321.13Z" style="fill:#BA68C8"></path><path d="M290.42,321.13a7.58,7.58,0,0,1-1.67,4.58,16.1,16.1,0,0,0-4.89-4.1c-4.72-2.72-11.05-4.22-17.83-4.22s-13.1,1.5-17.81,4.22a16,16,0,0,0-4.9,4.1,7.65,7.65,0,0,1-1.67-4.58c0-3.15,2.33-6.23,6.57-8.68,4.71-2.72,11-4.22,17.81-4.22s13.11,1.5,17.83,4.22C288.09,314.9,290.42,318,290.42,321.13Z" style="fill:#fff;opacity:0.5"></path><path d="M290.42,321.13a7.58,7.58,0,0,1-1.67,4.58,16.1,16.1,0,0,0-4.89-4.1c-4.72-2.72-11.05-4.22-17.83-4.22s-13.1,1.5-17.81,4.22a16,16,0,0,0-4.9,4.1,7.65,7.65,0,0,1-1.67-4.58c0-3.15,2.33-6.23,6.57-8.68,4.71-2.72,11-4.22,17.81-4.22s13.11,1.5,17.83,4.22C288.09,314.9,290.42,318,290.42,321.13Z" style="opacity:0.1"></path><path d="M244.74,318.52V315a8.57,8.57,0,0,0-3.09,6.13,7.65,7.65,0,0,0,1.67,4.58,16,16,0,0,1,4.9-4.1A35.16,35.16,0,0,1,264,317.43l0,0C252.4,315.94,244.74,321.32,244.74,318.52Z" style="opacity:0.1"></path><path d="M285.25,310c-10.61-6.13-27.82-6.13-38.43,0-5.3,3.06-7.95,7.08-7.95,11.09s2.65,8,7.95,11.1c10.62,6.12,27.82,6.12,38.43,0,5.31-3.07,8-7.08,8-11.1S290.55,313.1,285.25,310Zm-1.39,19.77C279.14,332.54,272.81,334,266,334s-13.11-1.49-17.82-4.22c-4.24-2.44-6.57-5.52-6.57-8.68s2.33-6.23,6.57-8.68c4.71-2.72,11-4.22,17.82-4.22s13.1,1.5,17.82,4.22c4.23,2.45,6.56,5.53,6.56,8.68S288.09,327.37,283.86,329.81Z" style="fill:#BA68C8"></path><path d="M285.25,310c-10.61-6.13-27.82-6.13-38.43,0-5.3,3.06-7.95,7.08-7.95,11.09s2.65,8,7.95,11.1c10.62,6.12,27.82,6.12,38.43,0,5.31-3.07,8-7.08,8-11.1S290.55,313.1,285.25,310Zm-1.39,19.77C279.14,332.54,272.81,334,266,334s-13.11-1.49-17.82-4.22c-4.24-2.44-6.57-5.52-6.57-8.68s2.33-6.23,6.57-8.68c4.71-2.72,11-4.22,17.82-4.22s13.1,1.5,17.82,4.22c4.23,2.45,6.56,5.53,6.56,8.68S288.09,327.37,283.86,329.81Z" style="fill:#fff;opacity:0.8"></path><path d="M246.82,332.23a37.35,37.35,0,0,0,12.86,3.92,46.92,46.92,0,0,0,13.44-.16,38,38,0,0,0,6.54-1.57,31.09,31.09,0,0,0,6.11-2.76,18.11,18.11,0,0,0,5.07-4.35,10.4,10.4,0,0,0,2.37-6.18,10.57,10.57,0,0,1-2.15,6.35A18.43,18.43,0,0,1,286,332a29.18,29.18,0,0,1-6.18,2.88,38.82,38.82,0,0,1-6.62,1.64,45.79,45.79,0,0,1-13.58,0A40.54,40.54,0,0,1,253,335,34.42,34.42,0,0,1,246.82,332.23Z" style="fill:#fff"></path></g><g id="freepik--shadow--inject-8" style="opacity:0.1"><path d="M243.91,312a37,37,0,0,1,14.72-3.17,43.4,43.4,0,0,1,7.41-.63c.73,0,1.47,0,2.19.06a18.66,18.66,0,0,0-7.42-2.11c-.77-.07-1.56-.11-2.36-.11a34.93,34.93,0,0,0-11.63,4A23.86,23.86,0,0,0,243.91,312Z" style="opacity:0.75"></path><path d="M258.36,333.36c-1.15.72-2.37,1.41-3.63,2a40.56,40.56,0,0,0,4.2.87,40.59,40.59,0,0,0,3.59-2.38C261.1,333.78,259.71,333.6,258.36,333.36Z" style="opacity:0.75"></path></g><g id="freepik--ring--inject-8"><path d="M268.4,303.13l3.84,8.31c1.69,3.64,1,8.4-2.57,13.41-7.05,10-22.67,17.24-34.87,16.13-6.1-.55-10.2-3.08-11.88-6.72L219.08,326c1.68,3.65,5.78,6.18,11.88,6.72,12.2,1.11,27.82-6.12,34.87-16.13C269.36,311.53,270.08,306.77,268.4,303.13Z" style="fill:#BA68C8"></path><path d="M268.4,303.13l3.84,8.31c1.69,3.64,1,8.4-2.57,13.41-7.05,10-22.67,17.24-34.87,16.13-6.1-.55-10.2-3.08-11.88-6.72L219.08,326c1.68,3.65,5.78,6.18,11.88,6.72,12.2,1.11,27.82-6.12,34.87-16.13C269.36,311.53,270.08,306.77,268.4,303.13Z" style="fill:#fff;opacity:0.55"></path><path d="M227.54,335.51c-.37-.9-1.07-2.59-1.59-3.87a11.2,11.2,0,0,1-6.87-5.69l3.84,8.31c1.68,3.64,5.78,6.17,11.88,6.72a38.34,38.34,0,0,0,17.63-3.14C234.47,343.11,228.19,337.07,227.54,335.51Z" style="opacity:0.1"></path><path d="M265.87,304.3a7.68,7.68,0,0,1,.4,4.86,16,16,0,0,0-6.16-1.67c-5.43-.49-11.8.8-18,3.65s-11.26,6.87-14.4,11.31a16,16,0,0,0-2.71,5.79,7.73,7.73,0,0,1-3.45-3.46c-1.32-2.86-.5-6.63,2.32-10.63,3.13-4.45,8.25-8.47,14.4-11.32s12.52-4.14,17.94-3.65C261.14,299.62,264.54,301.44,265.87,304.3Z" style="fill:#BA68C8"></path><path d="M265.87,304.3a7.68,7.68,0,0,1,.4,4.86,16,16,0,0,0-6.16-1.67c-5.43-.49-11.8.8-18,3.65s-11.26,6.87-14.4,11.31a16,16,0,0,0-2.71,5.79,7.73,7.73,0,0,1-3.45-3.46c-1.32-2.86-.5-6.63,2.32-10.63,3.13-4.45,8.25-8.47,14.4-11.32s12.52-4.14,17.94-3.65C261.14,299.62,264.54,301.44,265.87,304.3Z" style="fill:#fff;opacity:0.5"></path><path d="M265.87,304.3a7.68,7.68,0,0,1,.4,4.86,16,16,0,0,0-6.16-1.67c-5.43-.49-11.8.8-18,3.65s-11.26,6.87-14.4,11.31a16,16,0,0,0-2.71,5.79,7.73,7.73,0,0,1-3.45-3.46c-1.32-2.86-.5-6.63,2.32-10.63,3.13-4.45,8.25-8.47,14.4-11.32s12.52-4.14,17.94-3.65C261.14,299.62,264.54,301.44,265.87,304.3Z" style="opacity:0.1"></path><path d="M224.89,323.16c-1.71.57-3.22-2.79-2.76-5.94-1.31,2.83-1.5,5.45-.52,7.56a7.66,7.66,0,0,0,3.44,3.46,16,16,0,0,1,2.71-5.79,35.65,35.65,0,0,1,13.37-10.81h0C229.71,316.3,226.61,322.58,224.89,323.16Z" style="opacity:0.1"></path><path d="M256.52,296.41c-12.21-1.11-27.82,6.12-34.88,16.13-3.53,5-4.25,9.77-2.56,13.41s5.78,6.18,11.88,6.73c12.2,1.1,27.81-6.12,34.87-16.14,3.53-5,4.25-9.77,2.57-13.41S262.62,297,256.52,296.41Zm7,18.53c-3.13,4.45-8.25,8.46-14.4,11.31s-12.52,4.14-17.94,3.65c-4.87-.44-8.28-2.26-9.6-5.12s-.51-6.64,2.31-10.63c3.13-4.45,8.25-8.47,14.4-11.32s12.52-4.14,17.94-3.65c4.87.44,8.28,2.26,9.61,5.12S266.37,310.94,263.55,314.94Z" style="fill:#BA68C8"></path><path d="M256.52,296.41c-12.21-1.11-27.82,6.12-34.88,16.13-3.53,5-4.25,9.77-2.56,13.41s5.78,6.18,11.88,6.73c12.2,1.1,27.81-6.12,34.87-16.14,3.53-5,4.25-9.77,2.57-13.41S262.62,297,256.52,296.41Zm7,18.53c-3.13,4.45-8.25,8.46-14.4,11.31s-12.52,4.14-17.94,3.65c-4.87-.44-8.28-2.26-9.6-5.12s-.51-6.64,2.31-10.63c3.13-4.45,8.25-8.47,14.4-11.32s12.52-4.14,17.94-3.65c4.87.44,8.28,2.26,9.61,5.12S266.37,310.94,263.55,314.94Z" style="fill:#fff;opacity:0.8"></path><path d="M231,332.68a37.28,37.28,0,0,0,13.31-1.84,46.67,46.67,0,0,0,12.13-5.79,38.56,38.56,0,0,0,5.28-4.17,31.65,31.65,0,0,0,4.39-5.07,18.07,18.07,0,0,0,2.77-6.07,10.41,10.41,0,0,0-.44-6.61,10.57,10.57,0,0,1,.71,6.66,18.3,18.3,0,0,1-2.69,6.25,29.21,29.21,0,0,1-4.39,5.21,38.21,38.21,0,0,1-5.32,4.26,45.76,45.76,0,0,1-12.31,5.74,39.78,39.78,0,0,1-6.66,1.38A34.14,34.14,0,0,1,231,332.68Z" style="fill:#fff"></path></g></g></g></g><g id="freepik--Hands--inject-8"><g id="freepik--hands--inject-8"><g id="freepik--Hand--inject-8"><g id="freepik--hand--inject-8"><path d="M373.87,147.45c.83-4.82,7-9.74,13.13-13.14,5.74-3.18,51.18-29.65,57-33,5.38-2.93,8.74-9.43,8.74-18.78,0-18.34-12.88-40.63-28.75-49.8-8.7-5-16.48-5-21.75-1.06h0s-44.23,38.66-58.63,50c-12.21,9.59-23.75,18.61-34.08,24.91-9.72,5.92-14.85,7.16-21.53,16.53-8.28,11.6-22.37,30.54-25.53,33.62s-6.78,5.66-9.16,12.82c-2.44,7.35-13.23,30.31-15.52,35.92-3.86,9.48-8.63,17.88-7.76,24.3.91,6.72,5.26,23.23,6.46,25.35,5.18.55,10.33-5.88,10.33-15.66s0-13.4,0-13.4,7.24-8.4,10.19-11.63S267.75,202,267.75,202s3.17,26.21,7.2,30.26,13.3,4.45,14.86,3.54a8.68,8.68,0,0,0,2.75,5.66c2.79,2.58,9.26,4.44,14.77,4.86,3.1.24,8.47-3.35,8.47-3.35,1.28,5.51,1.77,8.39,3.33,9.6,2.25,1.75,22.37,7.37,26.42,5.11s11-14,15.39-18.26,8.31-8,7-9.78-7.51-6.82-15.88-4.41S339.87,232,339.87,232s-.14-5.71.42-12.93a35.9,35.9,0,0,1,2.37-10.83,35.72,35.72,0,0,0,1.76-8,11,11,0,0,1,9,1.36c1.91,2.64,3.43,11.77,3.7,17.12a58.61,58.61,0,0,0,5,22.35c4.34,9.81,13.86,10,16.4,9s1.06-5.6.87-14.53c-.17-7.76-.45-10.06,1.35-26.33,1.59-14.45,2-20.27-1-31.55C377.39,168.68,372.75,153.9,373.87,147.45Z" style="fill:#9e6767"></path><path d="M373.87,147.45c.65-8.89-1.05-11.34,1-18.21.15-.52.36-1.7,1.13-1.59a1.15,1.15,0,0,1,.79.61,3.94,3.94,0,0,1,.38,2.28c-.21,3.49-1.55,7-2.22,10.45C374.57,143.14,374.19,145.29,373.87,147.45Z" style="fill:#874c4c"></path><path d="M284.22,192.57c-1.8-.46-3.69,2.67-2.91,6.33s5.29,28,5,31.65-7.67,3.78-11.34,1.66c4,4,13.3,4.45,14.86,3.54-1.53-11.29-4.4-28.93-4.7-33.49S286,193,284.22,192.57Z" style="fill:#874c4c"></path><path d="M253.33,211.82c1.7-4,5-5.39,6.49-8.49s2.35-8.91,3.06-12,2.75-7.33,4.19-8-.38,2.26-.13,6.41.81,12.19.81,12.19S258,213,257,214.34c0,0-5.19,5.87-10.19,11.63A121.81,121.81,0,0,0,253.33,211.82Z" style="fill:#874c4c"></path><path d="M310.65,201.27c-1.46.69-3.2,3.86-2.91,9.29s1.34,15.06,1,18.58-.12,7.13-1.57,9.34,1.36,1.07,2.35,0a2.72,2.72,0,0,1,3.57,0c.48.69-.53,5.86-5.15,7.79,3.15-.21,7.85-3.35,7.85-3.35-1.14-6.81-4.38-28.9-4.6-33.26S312.11,200.59,310.65,201.27Z" style="fill:#874c4c"></path><path d="M361.27,239c-.12.13-.22.22-.34.33-.43.41-.9.94-1.37,1.49a22.21,22.21,0,0,1-3.63-9.77s-5.65.29-7.24,4.86.63,9.38-1.53,7.45-6.27-3-7.29-4,.05-2.74,0-7.37c0,0,3.81-4.41,12.18-6.82a16.1,16.1,0,0,1,5.53-.62A55.43,55.43,0,0,0,361.27,239Z" style="fill:#874c4c"></path><path d="M237.32,226.69s9.48,3.43,9.5,11.78c0-9.09,0-12.5,0-12.5l5.59-8.07-7.3-8.65-10.07,2.5-1.25,2.84s9.1,11.23,8.79,12.57S240.37,226.58,237.32,226.69Z" style="fill:#874c4c"></path><path d="M353.43,201.61a17.89,17.89,0,0,1,2,5.62h0c-.59-3.83-.75-7.26,1.17-10.22s.72-3.62-1.17-2.66-2.16,3.41-4.52,4.11-5.44-1.14-6.09-5.08c-.12,2.25-.23,4.62-.45,6.87h0A10.93,10.93,0,0,1,353.43,201.61Z" style="fill:#874c4c"></path><path d="M374.9,129.24c2.08-6.88,12-9.77,31.1-20.52,10.83-6.1,32.28-19,46.7-27.14,0,.3,0,.61,0,.91,0,9.35-3.36,15.85-8.74,18.78-5.82,3.39-51.26,29.86-57,33-6.13,3.4-12.56,8.28-13.13,13.14C374.52,138.56,372.82,136.11,374.9,129.24Z" style="fill:#874c4c;opacity:0.4"></path><path d="M309.41,182.82a12.75,12.75,0,0,1,2.59-2.33,12.06,12.06,0,0,1,3.26-1.65,1.05,1.05,0,0,1,.55-.07.39.39,0,0,1,.32.4.59.59,0,0,1-.2.3,39.24,39.24,0,0,0-2.84,2.78,10.12,10.12,0,0,0-2.38,4.5c-.37,1.78-.2,3.62-.39,5.42a.79.79,0,0,1-.13.4.58.58,0,0,1-.76,0,2.35,2.35,0,0,1-.78-1.29,13.44,13.44,0,0,1-.64-4.4A6.76,6.76,0,0,1,309.41,182.82Z" style="fill:#874c4c;opacity:0.4"></path><path d="M285.5,174.31a12.62,12.62,0,0,1,2.91-1.91,12.09,12.09,0,0,1,3.47-1.14,1,1,0,0,1,.55,0,.38.38,0,0,1,.26.44.57.57,0,0,1-.25.26c-1.09.76-2.21,1.47-3.23,2.32a10.05,10.05,0,0,0-3,4.1,52.63,52.63,0,0,0-1.21,5.29.76.76,0,0,1-.19.38A.59.59,0,0,1,284,184a2.27,2.27,0,0,1-.58-1.39,13.29,13.29,0,0,1,0-4.45A6.66,6.66,0,0,1,285.5,174.31Z" style="fill:#874c4c;opacity:0.4"></path><path d="M270.93,166.59a12.5,12.5,0,0,1,2.94-1.86,11.89,11.89,0,0,1,3.49-1.08,1,1,0,0,1,.55,0,.39.39,0,0,1,.25.45.62.62,0,0,1-.25.26c-1.1.73-2.23,1.43-3.27,2.27a10.07,10.07,0,0,0-3.09,4c-.66,1.69-.8,3.53-1.29,5.27a.78.78,0,0,1-.2.38.58.58,0,0,1-.75-.13,2.3,2.3,0,0,1-.55-1.4,13.29,13.29,0,0,1,.11-4.45A6.73,6.73,0,0,1,270.93,166.59Z" style="fill:#874c4c;opacity:0.4"></path><path d="M364.84,190.43c-.92,5.38-4.48,8.73-3.56,13.81s-2.36,20.43-1.15,29.94l.31,2.65a10.1,10.1,0,0,0-.5-1.46v0a55,55,0,0,1-2.35-10.77c-.05-.44-.09-.85-.12-1.25-.11-1-.17-1.83-.22-2.64s-.08-1.35-.11-2c-.28-5.35-1.79-14.49-3.7-17.13a11.06,11.06,0,0,0-9-1.36h0c.78-7.92.15-17.53,3.21-16.84s3.49,7.38,7,8.21S365.75,185,364.84,190.43Z" style="fill:#874c4c;opacity:0.4"></path><path d="M379.27,228.29c-4.37-2.28-7.94-.3-8.09.69s-.55,11.53,2,15.09a9.09,9.09,0,0,0,6.74,3.63h0c.24-2.36-.41-6.33-.54-12.12-.06-2.85-.14-5-.12-7.29Z" style="fill:#874c4c"></path><path d="M379.27,228.29c-4.37-2.28-7.94-.3-8.09.69s-.55,11.53,2,15.09a9.09,9.09,0,0,0,6.74,3.63h0c.24-2.36-.41-6.33-.54-12.12-.06-2.85-.14-5-.12-7.29Z" style="fill:#fff;opacity:0.4"></path><path d="M379.27,228.29c-4.37-2.28-7.94-.3-8.09.69a16.51,16.51,0,0,0,8.11,2.81h0c0-1.19,0-2.32,0-3.5Z" style="fill:#874c4c"></path><path d="M238.43,248.92a94.89,94.89,0,0,0-2.74-10.65s-2.89-.25-3.86.44c1.65,7.06,3.86,14.9,4.66,16.32C236.49,255,239.38,254.09,238.43,248.92Z" style="fill:#874c4c"></path><path d="M238.43,248.92a94.89,94.89,0,0,0-2.74-10.65s-2.89-.25-3.86.44c1.65,7.06,3.86,14.9,4.66,16.32C236.49,255,239.38,254.09,238.43,248.92Z" style="fill:#fff;opacity:0.4"></path><path d="M231.83,238.71l.42,1.74c1.76-.21,3.44-2.18,3.44-2.18S232.8,238,231.83,238.71Z" style="fill:#874c4c"></path></g><g id="freepik--ring--inject-8"><path d="M285.24,203.77l.77,5.89a25.15,25.15,0,0,1-14,.92c-4.71-1.21-5.48-4.21-5.48-5.35-.06-1.37-.38-5.95-.38-5.95a6.58,6.58,0,0,0,4.48,4.67C274.5,205.18,280.08,205,285.24,203.77Z" style="fill:#e0e0e0"></path><path d="M285.09,202c-2.06,1.07-9.26,2.48-13.38,1.06s-4.13-3.58-4.13-3.58l-.15-2.14a2.48,2.48,0,0,0-1.24,1.85c0,1.15.76,4.14,5.47,5.35a25.38,25.38,0,0,0,13.58-.78Z" style="fill:#fafafa"></path><path d="M285.24,203.77v-.12c-.05-.54-.1-1-.12-1.39a.91.91,0,0,1,0-.17V202a14,14,0,0,1-3,1c.39,2.07.87,4.69,1.37,7.49a16.28,16.28,0,0,0,2.54-.8v0c-.32-2.31-.58-4.26-.74-5.72Z" style="opacity:0.2"></path></g></g><g id="freepik--hand--inject-8"><g id="freepik--hand--inject-8"><path d="M257.47,216.2c-1.14-5.95-9.92-29.47-12-36s-4.18-9.63-7.8-12.14-17.68-18-28.49-27.27c-12-10.3-12.54-13.88-22.26-19.8-10.33-6.3-13.46-9-26.36-17.64C147.91,94.84,97.76,57,97.76,57h0c-5.27-4-13.05-4-21.75,1.06-15.87,9.17-28.75,31.46-28.75,49.8,0,9.35,3.36,15.86,8.74,18.78,5.82,3.39,51.26,29.86,57,33,6.13,3.4,12.56,8.28,13.13,13.14s2.59,21.39,6.28,29.4c3.93,8.54,9.14,25.41,9.43,29.7s-1.79,22,0,22.05c10.12.48,16.91-3.11,19.29-13.55,1.93-8.44.46-18.93,0-26.56s.61-11.7.61-11.7l5.22,6.05a62.43,62.43,0,0,0,1.43,8.58c.85,2.85,5.12,11.3,5.42,12.77s1.14,11.78,2.57,19.2,3.18,14.38,3.18,14.38c-3.45,4.18-12.63,7.72-15.95,15.29-3.48,8-1.45,13.8,0,15.22s12.47-6.53,22.33-11.7,13.43-7.73,14.16-16.18c.78-9.2,1.18-15.75,1.18-15.75s1.14.47,5.52-1.25,8.68-5.81,8.68-5.81a14.77,14.77,0,0,0,2.8.4c1.51-.19,9-2,11.43-4.91s3-3.3,3.61-10.15,1-14.85,1-14.85,8.92,9.33,9.87,10.66c0,0-.43,8.73,2.67,15.23,0,0,8.56-9.77,10.65-12.21S258.62,222.15,257.47,216.2Z" style="fill:#ffa8a7"></path><path d="M176.59,225.25c-1.8-3.43-1.8-9.42-2.64-16s-3.24-4.71-5.27-12.25-6.25-1.65-6.94,5.19l5.22,6.05a62.43,62.43,0,0,0,1.43,8.58c.85,2.85,5.12,11.3,5.42,12.77s1.14,11.78,2.57,19.2c.42,2.18.86,4.31,1.29,6.24C176.84,247.5,178.39,228.68,176.59,225.25Z" style="fill:#f28f8f"></path><path d="M213.21,244.9s-5.94,1.26-7.8-.24c-2.49-2-1.19-9.88-.32-15.07s2.08-13.09,1-15.81c-1.55-3.82-4-.43-4,2.18,0,0-.45,27-.77,34.09h0s1.14.47,5.52-1.25A27,27,0,0,0,213.21,244.9Z" style="fill:#f28f8f"></path><path d="M166.64,282.13c4.9-6,8.15-2.5,8.68-6.92s4.24-12,4.24-12c-3.45,4.18-12.63,7.72-15.95,15.29-3.48,8-1.45,13.8,0,15.22C163.59,293.68,161.73,288.1,166.64,282.13Z" style="fill:#f28f8f"></path><path d="M229.69,238.48c1.79-2.11,2.59-2.91,3.11-5.86,0,0-3,4.35-6.51,5.4s-5.61-.58-5.38-8.9,1-17.25,2.69-21.25,0-6.18-1.87-5.13-2.07,3.26-2.51,6.58-1.48,21.69-1.58,26.49-.19,5-2.18,7.18a15.65,15.65,0,0,0,2.8.4C220.17,243.17,227.24,241.36,229.69,238.48Z" style="fill:#f28f8f"></path><path d="M246.82,223.22c-.25-3.08-4-6.64-5.53-9.74s-1.6-8.74-2.3-11.8a9.79,9.79,0,0,0-4.71-6.06c-1.44-.67.91,4.48.67,8.63s-.67,9.23-.67,9.23,8.92,9.33,9.87,10.66c0,0-.43,8.73,2.67,15.23C244.94,230.91,247.06,226.29,246.82,223.22Z" style="fill:#f28f8f"></path><path d="M126.13,172.85c-.65-8.88,1.05-11.34-1-18.21-.15-.52-.36-1.7-1.13-1.59a1.18,1.18,0,0,0-.79.61,3.94,3.94,0,0,0-.38,2.28c.21,3.49,1.55,7,2.22,10.46C125.43,168.54,125.81,170.69,126.13,172.85Z" style="fill:#f28f8f"></path><path d="M125.1,154.64c-2.08-6.88-11.42-10.22-30.49-21C83.77,127.57,61.72,115.12,47.3,107c0,.3,0,.61,0,.91,0,9.35,3.36,15.86,8.74,18.78,5.82,3.39,51.26,29.86,57,33,6.13,3.4,12.56,8.28,13.13,13.14C125.48,164,127.18,161.51,125.1,154.64Z" style="fill:#f28f8f;opacity:0.4"></path><path d="M203.16,195a12.24,12.24,0,0,0-2.59-2.33,12,12,0,0,0-3.25-1.65,1.08,1.08,0,0,0-.56-.07.39.39,0,0,0-.32.4.55.55,0,0,0,.21.29c1,.91,2,1.79,2.84,2.79a10,10,0,0,1,2.37,4.5,54.23,54.23,0,0,1,.4,5.41.71.71,0,0,0,.12.41.6.6,0,0,0,.77,0,2.31,2.31,0,0,0,.77-1.29,13.21,13.21,0,0,0,.64-4.41A6.69,6.69,0,0,0,203.16,195Z" style="fill:#f28f8f;opacity:0.4"></path><path d="M219.38,185a12.83,12.83,0,0,0-2.91-1.91A12.09,12.09,0,0,0,213,181.9a1.06,1.06,0,0,0-.56,0,.38.38,0,0,0-.25.44.55.55,0,0,0,.24.26c1.09.76,2.22,1.47,3.23,2.32a10.08,10.08,0,0,1,3,4.1c.63,1.7.75,3.54,1.21,5.29a.76.76,0,0,0,.19.38.58.58,0,0,0,.75-.12,2.32,2.32,0,0,0,.57-1.39,13.29,13.29,0,0,0,0-4.45A6.75,6.75,0,0,0,219.38,185Z" style="fill:#f28f8f;opacity:0.4"></path><path d="M232.35,177.42a12.5,12.5,0,0,0-2.94-1.86,11.6,11.6,0,0,0-3.49-1.08,1,1,0,0,0-.55,0,.38.38,0,0,0-.25.45.51.51,0,0,0,.25.25c1.1.74,2.23,1.44,3.26,2.27a10,10,0,0,1,3.09,4.05,52,52,0,0,1,1.3,5.27.73.73,0,0,0,.19.37A.59.59,0,0,0,234,187a2.45,2.45,0,0,0,.55-1.4,13.55,13.55,0,0,0-.11-4.45A6.75,6.75,0,0,0,232.35,177.42Z" style="fill:#f28f8f;opacity:0.4"></path><g style="opacity:0.4"><path d="M144.55,220.23a6.47,6.47,0,0,0,.64-.91c.1-.14.13-.5-.11-.49a5.08,5.08,0,0,0-1.29.11c-.48.12-1,.21-1.43.31a18.83,18.83,0,0,1-3,.46l-.57,0c.29.93.56,1.84.82,2.72a1.66,1.66,0,0,0,.22,0,11.74,11.74,0,0,0,2.82-1,7.25,7.25,0,0,0,1.19-.72A6.92,6.92,0,0,0,144.55,220.23Z" style="fill:#f28f8f"></path><path d="M146.29,213.69c-.32-.13-.64-.25-1-.36-.74-.23-1.48-.48-2.22-.67a19.24,19.24,0,0,0-4.83-.64,9.11,9.11,0,0,0-1.92.23c.38,1.1.76,2.21,1.13,3.33a11.32,11.32,0,0,1,2.49-.49c1.09-.12,2.19-.13,3.28-.21a9.54,9.54,0,0,1,2.39.06l.68.14c.24.06.5,0,.74.09s.47-.75.18-.9A10,10,0,0,0,146.29,213.69Z" style="fill:#f28f8f"></path></g><g style="opacity:0.4"><path d="M196.53,265a11,11,0,0,0-2.64.67c-.43.17-.86.36-1.29.55a2.57,2.57,0,0,0-1.13.74c-.07.1-.12.31,0,.37a1.42,1.42,0,0,0,.91,0c.42-.09.85-.15,1.27-.21.89-.11,1.8-.22,2.7-.26a6.71,6.71,0,0,1,3.51.69c.08-.54.15-1.1.2-1.7,0-.11,0-.2,0-.31A6.5,6.5,0,0,0,196.53,265Z" style="fill:#f28f8f"></path><path d="M191.49,272.08c-.07-.27-.32-.62-.64-.48s-.34.64-.29.94a8.12,8.12,0,0,0,3.21,4.85c.47-.34.92-.69,1.33-1A6.44,6.44,0,0,1,191.49,272.08Z" style="fill:#f28f8f"></path><path d="M196.29,271.17a9,9,0,0,1-2.49-1.5c-.44-.38-.71.58-.42.87a10.25,10.25,0,0,0,2.57,1.82,14.75,14.75,0,0,0,1.43.58l.56.23a11.66,11.66,0,0,0,.82-1.57c-.39,0-.77,0-1.16,0A5.21,5.21,0,0,1,196.29,271.17Z" style="fill:#f28f8f"></path></g><path d="M141.84,232c2.36-2.51,6.94-2.36,6.94-2.36s.67,16.07-1.32,19.18-6.23,3.8-6.23,3.8A86,86,0,0,1,141.84,232Z" style="fill:#ffa8a7"></path><path d="M141.84,232c2.36-2.51,6.94-2.36,6.94-2.36s.67,16.07-1.32,19.18-6.23,3.8-6.23,3.8A86,86,0,0,1,141.84,232Z" style="fill:#fff;opacity:0.4"></path><path d="M141.84,232q-.19,1.25-.33,2.46c4.52-.81,7.27-4.82,7.27-4.82S144.2,229.44,141.84,232Z" style="fill:#f28f8f"></path><path d="M178.52,286.16c-1.59-.2-1.93-1.9-3.52-1.73s-6.82,4-8.85,6.11-1.2,3.08-1.15,3.13c2.51-.75,7.74-4.08,13.52-7.51Z" style="fill:#ffa8a7"></path><path d="M178.52,286.16c-1.59-.2-1.93-1.9-3.52-1.73s-6.82,4-8.85,6.11-1.2,3.08-1.15,3.13c2.51-.75,7.74-4.08,13.52-7.51Z" style="fill:#fff;opacity:0.4"></path><path d="M178.52,286.16c-1.29-.16-1.77-1.3-2.75-1.63a3.24,3.24,0,0,0,1,2.66l1.72-1Z" style="fill:#f28f8f"></path></g><g id="freepik--ring--inject-8"><path d="M219,211.77l-.42,6a18.67,18.67,0,0,0,11.7.88c4.71-1.21,5.47-4.2,5.47-5.35.06-1.37.39-6,.39-6a6.6,6.6,0,0,1-4.49,4.68C227.8,213.29,224.14,213,219,211.77Z" style="fill:#e0e0e0"></path><path d="M219.14,210c2.06,1.08,7.34,2.59,11.45,1.17s4.14-3.57,4.14-3.57l.14-2.15a2.49,2.49,0,0,1,1.25,1.86c0,1.14-.77,4.13-5.48,5.34a18.55,18.55,0,0,1-11.66-.89Z" style="fill:#fafafa"></path><path d="M221.5,218.74a64.41,64.41,0,0,1,1.09-7.51,15.56,15.56,0,0,1-3.45-1.22v0l-.15,1.69v.07l-.42,6v0A20.82,20.82,0,0,0,221.5,218.74Z" style="opacity:0.2"></path></g></g></g></g><g id="freepik--Hearts--inject-8"><path id="freepik--Heart--inject-8" d="M242.71,119.24l-12.14-7.14a135.81,135.81,0,0,1-14.14-9.75c-8.77-7-20.44-18-20.44-33.66a24,24,0,0,1,46.72-7.52,24,24,0,0,1,46.71,7.52c0,15.63-11.66,26.7-20.44,33.66a135,135,0,0,1-14.13,9.75Z" style="fill:#BA68C8"></path><path id="freepik--heart--inject-8" d="M449.51,261.81a4,4,0,0,1,2.08-1.87h0a3.88,3.88,0,0,1,3.19.17c1.5.78,2,2.85,1.75,4.59,0,.17.16.39.25.29,1.25-1.29,3.33-2.11,4.87-1.31a3.89,3.89,0,0,1,2,2.51v0h0a3.94,3.94,0,0,1-.34,2.78c-1.44,2.77-4.77,3-7.84,3.7l-3.15.47-1.32-2.8C449.81,267.44,448.07,264.59,449.51,261.81Z" style="fill:#BA68C8"></path><path id="freepik--heart--inject-8" d="M52,222.27a4,4,0,0,1-.87-2.66h0v0a3.86,3.86,0,0,1,1.44-2.85c1.32-1.05,3.44-.71,4.91.26.15.1.42,0,.37-.11-.68-1.66-.59-3.9.77-5a3.82,3.82,0,0,1,3.09-.79h0a3.92,3.92,0,0,1,2.41,1.43c2,2.44.8,5.57.21,8.67l-.84,3.08-3.1.07C57.21,224.28,53.91,224.71,52,222.27Z" style="fill:#BA68C8"></path></g></svg>