<svg xmlns="http://www.w3.org/2000/svg" viewBox="0 0 500 500"><g id="freepik--background-complete--inject-14"><path d="M215.59,374.5c-1-4.46-3.36-8.48-5.89-12.28-23.87-35.86-59-52.84-98-71.1L109,296.54c46.78,10.54,88.61,43.94,105.26,88.9C217.28,382,216.55,379,215.59,374.5Z" style="fill:#e0e0e0"></path><path d="M79.71,331c-2.85-3.06-2.33-7.87-1.33-11.93A89,89,0,0,1,96.14,283.7l-.9-4.39c.89-5.33,14.47-15.71,19.78-14.69s9.43,5.6,11.09,10.74,1.19,10.75,0,16c-1.11,4.79-2.89,9.55-6.08,13.29s-8,6.37-12.88,6.07a24.4,24.4,0,0,1-16,21.77C87.29,333.83,82.48,333.93,79.71,331Z" style="fill:#ebebeb"></path><path d="M79.71,331a8.28,8.28,0,0,0,2.39,1.6,12.2,12.2,0,0,0,8,.12,23.1,23.1,0,0,0,10.59-6.88,24.86,24.86,0,0,0,4.24-6.6,23.61,23.61,0,0,0,1.93-8.48v-.22h.22a15.17,15.17,0,0,0,10.52-3.84,23.87,23.87,0,0,0,6.73-10.36,45.47,45.47,0,0,0,1.75-6.36,38.43,38.43,0,0,0,.79-6.72,24.9,24.9,0,0,0-.78-6.85,17.89,17.89,0,0,0-3.09-6.26,13.89,13.89,0,0,0-7.52-5.11,6.93,6.93,0,0,0-4.36.45,24.65,24.65,0,0,0-4,2,40.31,40.31,0,0,0-7,5.26,26,26,0,0,0-2.85,3.11,9.18,9.18,0,0,0-1.85,3.55v-.09c.3,1.49.6,2.95.9,4.39l0,.11-.07.09A89.38,89.38,0,0,0,79,317.1a35.72,35.72,0,0,0-1.26,6,13.6,13.6,0,0,0,.23,4.51,7.88,7.88,0,0,0,1.13,2.56c.37.53.59.77.58.79a6.28,6.28,0,0,1-.64-.74,7.41,7.41,0,0,1-1.21-2.57,13.49,13.49,0,0,1-.3-4.57,34.44,34.44,0,0,1,1.2-6.05,87.37,87.37,0,0,1,5.74-15.52,89.05,89.05,0,0,1,11.46-18l0,.2L95,279.36v-.09a9.53,9.53,0,0,1,1.93-3.77,27.86,27.86,0,0,1,2.9-3.17,40.44,40.44,0,0,1,7-5.34,24.84,24.84,0,0,1,4.11-2,12.24,12.24,0,0,1,2.27-.61,5.22,5.22,0,0,1,2.39.14,14.34,14.34,0,0,1,7.81,5.29,18.35,18.35,0,0,1,3.18,6.45,24.82,24.82,0,0,1,.79,7,37.39,37.39,0,0,1-.81,6.81,45.48,45.48,0,0,1-1.77,6.43A24.34,24.34,0,0,1,118,307,15.64,15.64,0,0,1,107.1,311l.23-.21a23.89,23.89,0,0,1-2,8.62A25.17,25.17,0,0,1,101,326a23.35,23.35,0,0,1-10.78,6.88,12.2,12.2,0,0,1-8.16-.24,7.6,7.6,0,0,1-1.83-1.18C79.87,331.15,79.71,331,79.71,331Z" style="fill:#ebebeb"></path><path d="M102.4,302.31a6.7,6.7,0,0,1-1.47-1.82,16,16,0,0,1-2.2-10.91,6.77,6.77,0,0,1,.65-2.25c.08,0-.14.88-.29,2.3a18.33,18.33,0,0,0,2.16,10.67C101.93,301.55,102.47,302.25,102.4,302.31Z" style="fill:#e0e0e0"></path><path d="M75.15,272.24c-3.34-7.51-6.6-15.21-7.54-23.37s.73-17,6.24-23.09c2.42-2.66,5.81-4.8,9.39-4.44,3.21.33,6,2.65,7.6,5.43A31.23,31.23,0,0,1,94,235.9c4.38-6.39,14.44-7.42,20.63-2.74s8.15,13.76,5.38,21-23,28.74-30.49,30.66Z" style="fill:#ebebeb"></path><path d="M75.15,272.24a1.44,1.44,0,0,1,.26.2l.74.62L79,275.49l10.6,9.22-.14,0,1.49-.56,1.46-.8c.5-.26,1-.63,1.45-.94s1-.65,1.45-1a76.54,76.54,0,0,0,5.9-5,136.44,136.44,0,0,0,12.22-12.92,53.81,53.81,0,0,0,5.7-8.05,18.27,18.27,0,0,0,1.72-10.07,17.76,17.76,0,0,0-4.12-9.83,14.15,14.15,0,0,0-4.34-3.41,15,15,0,0,0-5.4-1.52,15.53,15.53,0,0,0-7.26,1.08,12.72,12.72,0,0,0-5.54,4.38l-.33.47-.13-.56a36.07,36.07,0,0,0-2.45-7.87A12.17,12.17,0,0,0,86,222.42a7.85,7.85,0,0,0-3.65-.87,9,9,0,0,0-3.59.82,15.57,15.57,0,0,0-5.57,4.54A26.12,26.12,0,0,0,68,239.1a36.69,36.69,0,0,0,0,11.57,57.87,57.87,0,0,0,2.29,9.25c.88,2.66,1.77,4.89,2.5,6.71s1.34,3.19,1.74,4.16l.45,1.07a2.43,2.43,0,0,1,.14.38l-.18-.35-.49-1.06c-.43-.94-1.06-2.32-1.83-4.13s-1.67-4-2.58-6.7a57,57,0,0,1-2.38-9.28A37.34,37.34,0,0,1,67.6,239a26.52,26.52,0,0,1,5.25-12.41,15.84,15.84,0,0,1,5.72-4.68,9.57,9.57,0,0,1,3.79-.88,8.35,8.35,0,0,1,3.87.92,12.72,12.72,0,0,1,5.49,5.89,36.65,36.65,0,0,1,2.49,8l-.46-.09a13.14,13.14,0,0,1,5.76-4.57,16,16,0,0,1,7.51-1.12,15.66,15.66,0,0,1,5.59,1.57,14.65,14.65,0,0,1,4.49,3.54,18.23,18.23,0,0,1,4.23,10.12,18.77,18.77,0,0,1-1.78,10.35q-.63,1.12-1.32,2.19c-.49.69-1,1.4-1.44,2.07s-1,1.31-1.49,2l-1.54,1.88a132,132,0,0,1-12.3,12.92,76.75,76.75,0,0,1-5.95,4.95c-.48.38-1,.71-1.48,1a16.59,16.59,0,0,1-1.48.93l-1.49.81-1.54.57-.07,0-.07-.06L78.85,275.6l-2.77-2.49-.7-.64Z" style="fill:#ebebeb"></path><path d="M36.09,328.5c-2-3.92.45-8.69,3.51-11.86,7.22-7.5,37.22-19.89,47.48-18.18v.24c-1,12.69-12.08,31.42-22.76,34.59a12.77,12.77,0,0,1-7.23.43c-2.34-.7-4.41-2.79-4.41-5.24a16.65,16.65,0,0,1-8.52,3.92C41,332.69,37.54,331.32,36.09,328.5Z" style="fill:#ebebeb"></path><path d="M36.09,328.5a12.48,12.48,0,0,0,.75,1.05,7.47,7.47,0,0,0,3,2.11,9.5,9.5,0,0,0,5.8.35,18,18,0,0,0,6.93-3.67l.28-.23v.37a5.25,5.25,0,0,0,2.34,4.09,7.8,7.8,0,0,0,5.16,1.27,17.33,17.33,0,0,0,5.72-1.47,22.23,22.23,0,0,0,5.24-3.55,44.64,44.64,0,0,0,8.62-10.73,59,59,0,0,0,3.37-6.53,49.88,49.88,0,0,0,2.49-7.15c.31-1,.44-2,.67-3s.27-2,.35-2.93l.22.26a17.64,17.64,0,0,0-3.33-.09,25.86,25.86,0,0,0-3.29.36,58.75,58.75,0,0,0-6.33,1.39,116.58,116.58,0,0,0-11.59,3.85,107.24,107.24,0,0,0-18.4,9.09,22.77,22.77,0,0,0-5.85,5.11,13.63,13.63,0,0,0-2.59,5.2,7.43,7.43,0,0,0,0,3.65,12.68,12.68,0,0,0,.42,1.22,2.18,2.18,0,0,1-.16-.29,5.15,5.15,0,0,1-.36-.9,7.48,7.48,0,0,1-.1-3.72A13.67,13.67,0,0,1,38,318.26,22.87,22.87,0,0,1,43.91,313a103.68,103.68,0,0,1,18.42-9.23A116.44,116.44,0,0,1,74,299.89a61.66,61.66,0,0,1,6.38-1.41,28.36,28.36,0,0,1,3.35-.37,18.79,18.79,0,0,1,3.43.1h.24l0,.25c-.08,1-.2,2-.36,3s-.36,2-.67,3.06a52.3,52.3,0,0,1-2.52,7.23,60,60,0,0,1-3.42,6.58,44.64,44.64,0,0,1-8.74,10.83,23,23,0,0,1-5.36,3.61,18.09,18.09,0,0,1-5.88,1.47A8.16,8.16,0,0,1,55,332.88a5.55,5.55,0,0,1-2.46-4.4l.28.14a18.15,18.15,0,0,1-7.08,3.66,9.62,9.62,0,0,1-5.93-.44,7.28,7.28,0,0,1-3-2.23A4.56,4.56,0,0,1,36.09,328.5Z" style="fill:#ebebeb"></path><path d="M36.09,328.5a12.48,12.48,0,0,0,.75,1.05,7.47,7.47,0,0,0,3,2.11,9.5,9.5,0,0,0,5.8.35,18,18,0,0,0,6.93-3.67l.28-.23v.37a5.25,5.25,0,0,0,2.34,4.09,7.68,7.68,0,0,0,5.16,1.25,19.37,19.37,0,0,0,5.74-1.41c.46-.22.91-.49,1.37-.73l.68-.37.65-.46,1.3-.93,1.24-1.06a45.07,45.07,0,0,0,8.56-10.77,54.76,54.76,0,0,0,5.86-13.7c.31-1,.45-2,.68-3s.3-2,.38-2.93l.22.26a17.64,17.64,0,0,0-3.33-.09,25.86,25.86,0,0,0-3.29.36,58.75,58.75,0,0,0-6.33,1.39,116.58,116.58,0,0,0-11.59,3.85,107.24,107.24,0,0,0-18.4,9.09,22.77,22.77,0,0,0-5.85,5.11,13.63,13.63,0,0,0-2.59,5.2,7.43,7.43,0,0,0,0,3.65,12.68,12.68,0,0,0,.42,1.22,2.18,2.18,0,0,1-.16-.29,5.15,5.15,0,0,1-.36-.9,7.48,7.48,0,0,1-.1-3.72A13.67,13.67,0,0,1,38,318.26,22.87,22.87,0,0,1,43.91,313a103.68,103.68,0,0,1,18.42-9.23A116.44,116.44,0,0,1,74,299.89a61.66,61.66,0,0,1,6.38-1.41,28.36,28.36,0,0,1,3.35-.37,18.79,18.79,0,0,1,3.43.1h.24l0,.25c-.08,1-.22,2-.39,3s-.38,2-.69,3a55.05,55.05,0,0,1-5.92,13.82,45.28,45.28,0,0,1-8.69,10.87l-1.26,1.07c-.44.33-.89.63-1.33.94l-.66.47-.71.38c-.47.25-.93.52-1.41.74a19.85,19.85,0,0,1-5.89,1.42A8,8,0,0,1,55,332.88a5.55,5.55,0,0,1-2.46-4.4l.28.14a18.15,18.15,0,0,1-7.08,3.66,9.62,9.62,0,0,1-5.93-.44,7.28,7.28,0,0,1-3-2.23A4.56,4.56,0,0,1,36.09,328.5Z" style="fill:#e0e0e0"></path><path d="M26.83,300.13c-1.87-3.92.5-8.44,2.8-12.11-6.75-.8-11.51-8-11.11-14.8s4.9-12.79,10.46-16.7c-.5-4.93,1.61-9.88,4.9-13.59,4.65-5.24,12.1-8.27,18.88-6.51s12,9,10.55,15.83l22.1,46.47C58.89,312,43.65,307.67,35,305.41,31.72,304.58,28.26,303.15,26.83,300.13Z" style="fill:#ebebeb"></path><path d="M26.83,300.13s.17.36.61,1a8.49,8.49,0,0,0,2.48,2.22,18,18,0,0,0,5,2c2.07.53,4.43,1.14,7.12,1.61a54.25,54.25,0,0,0,19.5-.09c7.45-1.27,15.51-4.22,23.78-8.3l-.11.31L63.81,253.91c-.24-.52-.49-1-.73-1.55l0-.08,0-.08a12.62,12.62,0,0,0,.15-3.78,14.08,14.08,0,0,0-1-3.61,16.23,16.23,0,0,0-2-3.18,15.34,15.34,0,0,0-2.66-2.56,13.78,13.78,0,0,0-6.66-2.74,17.25,17.25,0,0,0-7,.55,21.25,21.25,0,0,0-11,7.72,17.54,17.54,0,0,0-3.64,11.9l0,.13-.11.07a26.49,26.49,0,0,0-8.18,9,16.92,16.92,0,0,0-2.08,10.48,15.1,15.1,0,0,0,4.08,8.27,13.22,13.22,0,0,0,3.26,2.4,11.37,11.37,0,0,0,3.46,1.06l.18,0-.1.15A31,31,0,0,0,27.12,293a11.51,11.51,0,0,0-.89,3.92,7.64,7.64,0,0,0,.6,3.22,7.49,7.49,0,0,1-.35-.77,7.86,7.86,0,0,1-.38-2.45,11.45,11.45,0,0,1,.85-4,29.4,29.4,0,0,1,2.58-5l.09.18a12.33,12.33,0,0,1-3.55-1.05,13.39,13.39,0,0,1-3.35-2.44,15.36,15.36,0,0,1-4.22-8.43,17.2,17.2,0,0,1,2.08-10.72,26.72,26.72,0,0,1,8.28-9.16l-.1.21a18,18,0,0,1,3.69-12.23A21.75,21.75,0,0,1,43.7,236.4a17.73,17.73,0,0,1,7.26-.57,14.22,14.22,0,0,1,6.9,2.83,16.09,16.09,0,0,1,2.76,2.65,16.27,16.27,0,0,1,2,3.29,14.63,14.63,0,0,1,1.08,3.76,13.11,13.11,0,0,1-.16,3.95l0-.17c.24.51.49,1,.73,1.55,7.71,16.22,15,31.55,21.34,44.93l.1.21-.2.1c-8.32,4.08-16.43,7-23.93,8.26a54.16,54.16,0,0,1-19.61,0c-2.7-.5-5.06-1.13-7.12-1.68a17.74,17.74,0,0,1-5-2.06,8.4,8.4,0,0,1-2.46-2.29,5.17,5.17,0,0,1-.43-.75A1.17,1.17,0,0,1,26.83,300.13Z" style="fill:#e0e0e0"></path><path d="M53.21,284.66c-17.15-.42-18.19-11-19.18-13.85a10.39,10.39,0,0,1,1-8.76c2-3.2,5.57-5.06,9.14-6.27a42.25,42.25,0,0,1,20.69-1.62l14.43,21L66.54,285.68Z" style="fill:#ebebeb"></path><path d="M53.21,284.66h.23l.68,0,2.62.16,9.81.68-.12,0L79.14,275l0,.3-14.46-21,.17.11a42.85,42.85,0,0,0-5.92-.59,42.33,42.33,0,0,0-12.16,1.43c-3.81,1.05-7.5,2.49-10,5.08a10.18,10.18,0,0,0-2.74,9.38c.17.76.47,1.53.66,2.3s.43,1.49.68,2.2a14.18,14.18,0,0,0,7.77,8.31,23.33,23.33,0,0,0,5.39,1.57c.76.11,1.44.26,2,.31l1.5.12.93.08a1,1,0,0,1,.31.05H52.9l-.93,0-1.52-.07c-.59,0-1.27-.16-2.05-.26a22.74,22.74,0,0,1-5.46-1.51,14.41,14.41,0,0,1-8-8.43c-.27-.72-.5-1.47-.72-2.23s-.48-1.49-.67-2.32a10.67,10.67,0,0,1,.11-5.11,10.5,10.5,0,0,1,2.7-4.7c2.66-2.7,6.43-4.16,10.26-5.23a42.42,42.42,0,0,1,18.31-.86l.1,0,.07.09c5.26,7.69,10.17,14.88,14.39,21.07l.12.17-.16.12L66.64,285.8l0,0h-.07L56.73,285l-2.61-.24-.68-.07Z" style="fill:#e0e0e0"></path><path d="M76.23,272.06l.19-25.85c8.16,3.66,15.94,8.91,20.67,16.51s6.36,18,1.64,25.64Z" style="fill:#ebebeb"></path><path d="M87.68,298.24c-6.2,1.24-8.68,2.34-17.1,2.44-5.26.06-8.91.18-14.1-.72s-19.46-6.8-19.4-12.07c0-1.1,33.75-17.89,33.75-17.89l28.4,17.53S95.29,296.73,87.68,298.24Z" style="fill:#ebebeb"></path><path d="M44,283.09s-.13,0,0,0,.2.19.37.34l1.48,1.23c1.3,1.06,3.17,2.61,5.44,4.57L55,292.51A43.37,43.37,0,0,0,59.33,296a30.38,30.38,0,0,0,5.35,3,14.76,14.76,0,0,0,6.38,1.34,61.37,61.37,0,0,0,6.63-.43c2.13-.27,4.16-.71,6.1-1.14l2.83-.61a19.66,19.66,0,0,0,2.62-.66,13.11,13.11,0,0,0,4.14-2.44,23,23,0,0,0,4.55-5.36c.44-.71.76-1.27,1-1.66a4.64,4.64,0,0,1,.33-.58,2.25,2.25,0,0,1-.24.63c-.18.4-.47,1-.89,1.72a21.74,21.74,0,0,1-4.48,5.53A13.36,13.36,0,0,1,89.39,298a19.35,19.35,0,0,1-2.67.69l-2.83.64a61.79,61.79,0,0,1-6.13,1.17,57.94,57.94,0,0,1-6.69.45,15.31,15.31,0,0,1-6.59-1.39,30.32,30.32,0,0,1-5.43-3.12,43,43,0,0,1-4.37-3.59L51,289.55l-5.33-4.7c-.63-.56-1.11-1-1.42-1.31a2.45,2.45,0,0,1-.34-.38s0-.05,0-.09a.06.06,0,0,1,.07,0Z" style="fill:#e0e0e0"></path><path d="M43.6,267.42s.12-.15.39-.4a5.62,5.62,0,0,0,1-1.23,2.27,2.27,0,0,0,.3-1.07,1.63,1.63,0,0,0-.4-1.19,1.5,1.5,0,0,0-1.35-.37,2.94,2.94,0,0,0-1.46.83,12.85,12.85,0,0,0-2.36,3.29,8.39,8.39,0,0,0-1.1,4.41,2.73,2.73,0,0,0,1.11,2,3.46,3.46,0,0,0,2.37.55c1.73-.22,3.25-1.46,4.59-2.77A16.24,16.24,0,0,0,49.88,267a9,9,0,0,0,1-4.93,4.33,4.33,0,0,0-2.6-3.44,6.43,6.43,0,0,0-3.93-.34,11.16,11.16,0,0,0-5,3c-1,1-1.53,1.58-1.56,1.55a2.57,2.57,0,0,1,.33-.46c.24-.29.59-.72,1.08-1.23a14.69,14.69,0,0,1,1.94-1.72,8.94,8.94,0,0,1,3.11-1.52,6.84,6.84,0,0,1,4.18.3,4.72,4.72,0,0,1,2.9,3.77,9.3,9.3,0,0,1-1,5.22,16.84,16.84,0,0,1-3.26,4.67c-1.38,1.33-2.94,2.66-4.9,2.91a3.93,3.93,0,0,1-2.72-.66,3.24,3.24,0,0,1-1.3-2.35,8.91,8.91,0,0,1,1.19-4.67,13.14,13.14,0,0,1,2.5-3.36,3.23,3.23,0,0,1,1.66-.89,1.82,1.82,0,0,1,1.61.5,1.87,1.87,0,0,1,.44,1.4,2.45,2.45,0,0,1-.37,1.16,4.74,4.74,0,0,1-1.13,1.2C43.77,267.33,43.61,267.44,43.6,267.42Z" style="fill:#e0e0e0"></path><path d="M88.6,243.22c.15,0,0,2.38.2,5.29s.6,5.24.45,5.28a16.06,16.06,0,0,1-1-5.25A15.58,15.58,0,0,1,88.6,243.22Z" style="fill:#e0e0e0"></path><path d="M29.41,284.33c-1.41-4.45,1-9.13,5-11.53,1.81,6.51,7,8.17,11.89,6.21,3.24-1.29,6-4,8.64-6.59s5.57-5.18,8.88-6a8.6,8.6,0,0,1,9.84,5.08l-1.2.05c-4.3.52-8.15,2.94-11.46,5.74s-6.22,6.05-9.62,8.73-7.47,4.82-11.81,4.87S30.73,288.46,29.41,284.33Z" style="fill:#f5f5f5"></path><path d="M98.73,288.36s.34-.68.9-1.91a19.81,19.81,0,0,0,1.52-5.5,24.92,24.92,0,0,0-.39-8.43,30.53,30.53,0,0,0-3.85-9.6A36.31,36.31,0,0,0,90.17,255a48.26,48.26,0,0,0-6.86-5c-2.07-1.28-3.81-2.2-5-2.81l-1.4-.72a2.15,2.15,0,0,1-.47-.27,1.78,1.78,0,0,1,.51.18c.34.14.83.33,1.45.62a57.43,57.43,0,0,1,5.12,2.68,46.72,46.72,0,0,1,7,5,35.4,35.4,0,0,1,6.87,8,30.17,30.17,0,0,1,3.88,9.77,24.77,24.77,0,0,1,.28,8.58,18.59,18.59,0,0,1-1.7,5.54,13.47,13.47,0,0,1-.77,1.37A2.74,2.74,0,0,1,98.73,288.36Z" style="fill:#e0e0e0"></path><path d="M84.85,282.45c6.4,3.31.21-15-5.55-19.37a11,11,0,0,0-8.67-19.14c2-5.45-1.78-12.06-7.36-13.73s-12,1.24-15.07,6.15-3.57,13-1.38,18.36c0,0,10.75-2.67,15.15.83C68.43,260.68,75.55,277.63,84.85,282.45Z" style="fill:#f5f5f5"></path><path d="M84.19,281.92c.08-.05.64.69,1.73,1.71a17.41,17.41,0,0,0,10.37,4.68c1.49.13,2.42.07,2.42.16a7.11,7.11,0,0,1-2.44.21,15.53,15.53,0,0,1-5.77-1.37,15.28,15.28,0,0,1-4.84-3.42A7,7,0,0,1,84.19,281.92Z" style="fill:#e0e0e0"></path><path d="M38,295.74a5.7,5.7,0,0,1,1.17.46c.73.34,1.81.79,3.16,1.31A52.51,52.51,0,0,0,64.37,301c2.88-.17,4.65-.46,4.66-.37a5.2,5.2,0,0,1-1.23.29c-.79.15-2,.31-3.4.44a47.12,47.12,0,0,1-22.22-3.47,31.08,31.08,0,0,1-3.11-1.47A5.7,5.7,0,0,1,38,295.74Z" style="fill:#e0e0e0"></path><path d="M29.41,284.33s.14.34.43.94a8.36,8.36,0,0,0,1.73,2.37,10.91,10.91,0,0,0,4,2.43,12.17,12.17,0,0,0,6.11.49,19.08,19.08,0,0,0,7-2.79,43.38,43.38,0,0,0,6.8-5.55,85.43,85.43,0,0,1,7.33-6.58,20.82,20.82,0,0,1,9.72-4.32h0l1.2-.05-.23.36a8.69,8.69,0,0,0-2.91-3.6,8.09,8.09,0,0,0-6.09-1.43,13,13,0,0,0-5.6,2.72c-3.28,2.54-5.85,5.71-9,7.94a14.2,14.2,0,0,1-5,2.43,8.68,8.68,0,0,1-5.13-.17,7.87,7.87,0,0,1-3.72-2.86,12.38,12.38,0,0,1-1.78-3.81l.25.09a11.74,11.74,0,0,0-4,3.92,9.79,9.79,0,0,0-1.39,3.95,10.32,10.32,0,0,0,.26,3.52l-.08-.21c0-.15-.12-.37-.19-.66a8.81,8.81,0,0,1-.17-2.67,9.92,9.92,0,0,1,1.35-4.06,11.94,11.94,0,0,1,4-4.07l.19-.11.06.2a12.14,12.14,0,0,0,1.77,3.69,7.41,7.41,0,0,0,3.55,2.7,8.33,8.33,0,0,0,4.88.12,13.7,13.7,0,0,0,4.81-2.38c3-2.19,5.59-5.36,8.93-8a13.44,13.44,0,0,1,5.82-2.83,8.61,8.61,0,0,1,6.48,1.52,9.24,9.24,0,0,1,3.09,3.82l.15.35h-.38l-1.2,0h0A20.55,20.55,0,0,0,63.05,276a84,84,0,0,0-7.31,6.52,43.7,43.7,0,0,1-6.9,5.56,19.42,19.42,0,0,1-7.15,2.79,12.27,12.27,0,0,1-6.27-.59,11.12,11.12,0,0,1-4-2.54,8.38,8.38,0,0,1-1.68-2.47A5.29,5.29,0,0,1,29.41,284.33Z" style="fill:#e0e0e0"></path><path d="M84.85,282.45a.85.85,0,0,1-.22-.11L84,282c-.28-.16-.63-.34-1-.61l-1.31-1a42.26,42.26,0,0,1-7.09-7.84c-1.36-1.82-2.75-3.89-4.28-6.12s-3.12-4.67-5-7.09c-.49-.6-1-1.22-1.52-1.79-.27-.28-.53-.59-.82-.86l-.9-.8a8.55,8.55,0,0,0-4.52-1.75,32.29,32.29,0,0,0-10.62.82l-.21,0-.07-.19a19.94,19.94,0,0,1-1.34-6.36,24.5,24.5,0,0,1,.53-6.74,17,17,0,0,1,2.82-6.4,15,15,0,0,1,5.59-4.5,13.58,13.58,0,0,1,6.85-1.29,12.42,12.42,0,0,1,3.36.82,12,12,0,0,1,2.89,1.82,12.38,12.38,0,0,1,3.64,5.5,11.08,11.08,0,0,1,.49,3.22,9.8,9.8,0,0,1-.57,3.14l-.25-.33a11.13,11.13,0,0,1,12,14.24,11.27,11.27,0,0,1-3.22,5.28v-.29a16.06,16.06,0,0,1,3.45,4.1,35.25,35.25,0,0,1,2.23,4.21,31.59,31.59,0,0,1,2.35,7.23,9.37,9.37,0,0,1,.14,2.79,2.76,2.76,0,0,1-.35,1.07,1.18,1.18,0,0,1-.78.53,2.16,2.16,0,0,1-1.23-.21l-.38-.2a2.17,2.17,0,0,1,.4.15,2.23,2.23,0,0,0,1.19.16,1.08,1.08,0,0,0,.69-.5,2.6,2.6,0,0,0,.3-1,9.82,9.82,0,0,0-.18-2.73,32.73,32.73,0,0,0-2.42-7.15,34.92,34.92,0,0,0-2.25-4.15,15.82,15.82,0,0,0-3.39-4l-.18-.14.17-.15a10.81,10.81,0,0,0-8.52-18.75l-.4,0,.14-.37c1.44-3.81-.15-8.5-3.43-11.3a11.26,11.26,0,0,0-2.76-1.73,11.62,11.62,0,0,0-3.2-.78,13.05,13.05,0,0,0-6.59,1.24,14.59,14.59,0,0,0-5.4,4.34,16.77,16.77,0,0,0-2.73,6.21,24.14,24.14,0,0,0-.53,6.59,19.85,19.85,0,0,0,1.29,6.2l-.29-.14a32.47,32.47,0,0,1,10.8-.8,9,9,0,0,1,4.74,1.86l.92.83c.3.28.56.6.83.89.56.58,1,1.21,1.53,1.81,1.92,2.45,3.51,4.9,5,7.15s2.89,4.32,4.22,6.14a43.87,43.87,0,0,0,7,7.89l1.28,1c.38.28.72.47,1,.64l.61.4Z" style="fill:#e0e0e0"></path><path d="M89.85,228.89a21.82,21.82,0,0,0-1-2.07,7.27,7.27,0,0,0-9.43-2.95c-1.28.57-1.9,1.23-2,1.15a4.41,4.41,0,0,1,1.81-1.48,7.29,7.29,0,0,1,9.92,3.1A4.32,4.32,0,0,1,89.85,228.89Z" style="fill:#fff"></path><path d="M98.45,273.62c-.09,0-.25-1.12-.73-2.89a29.88,29.88,0,0,0-2.66-6.61,30.34,30.34,0,0,0-4.17-5.78c-1.25-1.34-2.12-2.09-2.06-2.15s.26.13.67.44a17.85,17.85,0,0,1,1.65,1.46,25.4,25.4,0,0,1,6.93,12.56,16.24,16.24,0,0,1,.35,2.17C98.48,273.33,98.49,273.62,98.45,273.62Z" style="fill:#fff"></path><path d="M79.35,252.84c-.08,0-.15-.7-.55-1.75a8.17,8.17,0,0,0-6.35-5.3c-1.1-.2-1.81-.15-1.82-.23a3.64,3.64,0,0,1,1.87-.14A7.72,7.72,0,0,1,79.15,251,3.62,3.62,0,0,1,79.35,252.84Z" style="fill:#fff"></path><path d="M68.81,241.65a22.81,22.81,0,0,0-.83-2.81,10,10,0,0,0-11.35-6.05,26.41,26.41,0,0,0-2.8.88,2.37,2.37,0,0,1,.67-.45,8.19,8.19,0,0,1,2-.79,9.88,9.88,0,0,1,11.78,6.28,8.55,8.55,0,0,1,.49,2.14A2.18,2.18,0,0,1,68.81,241.65Z" style="fill:#fff"></path><path d="M34.11,249.05a5.94,5.94,0,0,1,.57-2.22,13.44,13.44,0,0,1,7.81-7.52,6,6,0,0,1,2.24-.49c0,.09-.84.28-2.11.83A15.13,15.13,0,0,0,35,247C34.42,248.23,34.2,249.07,34.11,249.05Z" style="fill:#fff"></path><path d="M25.72,262.05c-.1-.1.53-.87,1.4-1.71s1.66-1.45,1.76-1.34-.53.87-1.4,1.71S25.82,262.16,25.72,262.05Z" style="fill:#fff"></path><path d="M61.11,258A26.64,26.64,0,0,0,53.19,256a26.47,26.47,0,0,0-8.09,1.09,7,7,0,0,1,2.26-.94,17.62,17.62,0,0,1,11.61.63A7.11,7.11,0,0,1,61.11,258Z" style="fill:#fff"></path><path d="M53.73,277.19a14.27,14.27,0,0,1,1.64-2.54,20.7,20.7,0,0,1,5.13-5.18,10.61,10.61,0,0,1,7-1.77,6.81,6.81,0,0,1,2.14.65c.47.24.7.42.68.45a12.29,12.29,0,0,0-2.86-.73,10.76,10.76,0,0,0-6.72,1.84,23.06,23.06,0,0,0-5.13,5A22.79,22.79,0,0,1,53.73,277.19Z" style="fill:#fff"></path><path d="M49,280.45c-.09-.1.32-.64.92-1.19s1.18-.92,1.27-.82-.31.64-.92,1.2S49.07,280.56,49,280.45Z" style="fill:#fff"></path><path d="M39.74,327.86a2.36,2.36,0,0,1-.51-.82,6,6,0,0,1-.45-2.6,8.38,8.38,0,0,1,1.09-3.75,14,14,0,0,1,3.1-3.64c1.27-1.1,2.58-2,3.74-2.89l3.1-2.27a25.71,25.71,0,0,1,2.95-2A23.35,23.35,0,0,1,50,312.18l-3,2.36c-1.14.89-2.43,1.82-3.68,2.91a14.2,14.2,0,0,0-3,3.47,8.29,8.29,0,0,0-1.14,3.55A7.49,7.49,0,0,0,39.74,327.86Z" style="fill:#fff"></path><path d="M88.55,240.83c-.13-.05-.09-.49.1-1s.45-.84.58-.79.09.49-.09,1S88.69,240.89,88.55,240.83Z" style="fill:#e0e0e0"></path><path d="M373.22,117.43c-3,3.11-18.18,34.15-25,43.46-8.48,11.55-21,22.06-30.61,32.73-12.33,13.76-24.72,27.58-34.84,43s-18,32.74-20.29,51.08L264.37,300s8.75-44.08,16.35-58.57,68.64-77.08,68.64-77.08l28.24-46.94Z" style="fill:#ebebeb"></path><path d="M373.22,117.43s.36,0,1.09,0l3.29,0h.09l0,.07-28.14,47h0l0,0c-6.93,7.15-14.58,15.17-22.82,23.92s-17,18.26-26.13,28.52c-4.51,5.16-9.18,10.44-13.62,16.12a67.67,67.67,0,0,0-6.17,8.95c-.39.83-.79,1.66-1.18,2.5l-1,2.58c-.71,1.71-1.27,3.5-1.91,5.27-2.35,7.13-4.34,14.54-6.23,22.1s-3.62,15.27-5.25,23.12c-.18.86-.35,1.71-.51,2.51l-.29,1.42-.23-1.44c-.66-4.25-1.3-8.38-1.91-12.28v-.08c1.84-14.35,7-27.69,13.4-39.56s14.24-22.4,22.06-31.95c3.91-4.78,7.86-9.33,11.73-13.7s7.61-8.62,11.38-12.6c7.58-7.9,15.1-14.77,21.24-21.71a80.76,80.76,0,0,0,8.08-10.39c2.24-3.51,4.18-6.93,6-10.12,3.59-6.4,6.57-12,9-16.49s4.4-8,5.79-10.34c.69-1.17,1.27-2,1.66-2.6s.66-.81.66-.81-.21.3-.62.84-.94,1.45-1.61,2.62c-1.36,2.34-3.27,5.84-5.71,10.38s-5.4,10.12-9,16.54c-1.79,3.2-3.73,6.62-6,10.15a80.68,80.68,0,0,1-8.09,10.46c-6.13,7-13.64,13.86-21.2,21.76-3.75,4-7.47,8.24-11.35,12.6s-7.79,8.93-11.7,13.7c-7.79,9.56-15.57,20-22,31.9s-11.5,25.12-13.32,39.39v-.07c.6,3.9,1.25,8,1.91,12.28h-.51c.16-.79.33-1.65.51-2.51q2.46-11.77,5.26-23.14c1.89-7.56,3.89-15,6.25-22.14.64-1.77,1.2-3.56,1.92-5.29.34-.86.69-1.73,1-2.59s.79-1.69,1.19-2.52a67.93,67.93,0,0,1,6.23-9c4.46-5.68,9.14-11,13.65-16.13,9.11-10.25,17.94-19.74,26.18-28.49s15.93-16.74,22.88-23.88l0,0,28.35-46.87,0,.08-3.27,0Z" style="fill:#e0e0e0"></path><path d="M400.58,77.23l-31.53,40.91a25.88,25.88,0,0,1-3.26-30.81c7.61-12.15,26.54-19,33.19-31.67C404.26,60.19,403.81,71.06,400.58,77.23Z" style="fill:#ebebeb"></path><path d="M400.58,77.23a2.09,2.09,0,0,1,.15-.38c.1-.25.29-.6.47-1.09a24.13,24.13,0,0,0,1.22-4.38,25.08,25.08,0,0,0,.28-7.17,18.06,18.06,0,0,0-1.06-4.34,10,10,0,0,0-2.79-4.07l.29-.06A32.68,32.68,0,0,1,392,64.58a125.3,125.3,0,0,1-10.18,8.09,101.76,101.76,0,0,0-11.08,9A34.79,34.79,0,0,0,366,87.49a23.74,23.74,0,0,0-2.91,7.11A25.7,25.7,0,0,0,369.23,118l-.37,0c9.21-11.9,17.11-22.1,22.73-29.34l6.58-8.43L399.94,78l.47-.57a1.37,1.37,0,0,1,.17-.19s0,.08-.13.21L400,78l-1.7,2.28-6.47,8.51-22.59,29.47-.18.22-.2-.2a26.17,26.17,0,0,1-6.29-23.82,23.82,23.82,0,0,1,3-7.27,35.14,35.14,0,0,1,4.85-5.88,100.81,100.81,0,0,1,11.14-9.06,128.22,128.22,0,0,0,10.18-8,32.4,32.4,0,0,0,7.08-8.69l.11-.21.18.16A10.45,10.45,0,0,1,402,59.75a17.4,17.4,0,0,1,1,4.43,24.85,24.85,0,0,1-.37,7.24,21.62,21.62,0,0,1-1.33,4.38c-.19.49-.4.84-.51,1.08A2,2,0,0,1,400.58,77.23Z" style="fill:#e0e0e0"></path><path d="M402.2,50.65a9.64,9.64,0,0,1,4.27,1.29,40.92,40.92,0,0,1,12.34,9.94,13.57,13.57,0,0,1,2.82,4.49,5.66,5.66,0,0,1-.58,5.1,5.84,5.84,0,0,1-4.21,2.08,17.27,17.27,0,0,1-4.79-.49l-8.16,1.26c-1.72-5.8-2.23-7.51-4-13.31-.4-1.37-2.06-4.9-.94-8A3.38,3.38,0,0,1,402.2,50.65Z" style="fill:#ebebeb"></path><path d="M402.2,50.65a4,4,0,0,0-1.81.63,3.57,3.57,0,0,0-1.3,1.82,7.35,7.35,0,0,0-.28,3,15.42,15.42,0,0,0,.91,3.68c.5,1.32.88,2.77,1.36,4.3.92,3.06,1.95,6.46,3.05,10.13l-.27-.18L412,72.8h.09a25.9,25.9,0,0,0,3,.48,8,8,0,0,0,3.68-.45,4.46,4.46,0,0,0,2.53-2.34,5.71,5.71,0,0,0,.26-3.39A9.05,9.05,0,0,0,420.19,64a42.14,42.14,0,0,0-8.31-8.47A34.64,34.64,0,0,0,405,51.39a8.15,8.15,0,0,0-2.08-.63c-.49-.08-.75-.09-.75-.11s.06,0,.19,0a4.24,4.24,0,0,1,.58,0,8.35,8.35,0,0,1,2.14.55,32.89,32.89,0,0,1,7,4.07,41.53,41.53,0,0,1,8.49,8.5A9.56,9.56,0,0,1,422.06,67a6.12,6.12,0,0,1-.27,3.7A5,5,0,0,1,419,73.31a8.51,8.51,0,0,1-3.91.49,27.76,27.76,0,0,1-3.07-.49h.09l-8.16,1.25-.21,0-.06-.21-3-10.15c-.46-1.53-.83-3-1.3-4.29a15.81,15.81,0,0,1-.87-3.79,7.41,7.41,0,0,1,.36-3.14,3.68,3.68,0,0,1,1.44-1.88,3.13,3.13,0,0,1,1.39-.49A1.67,1.67,0,0,1,402.2,50.65Z" style="fill:#e0e0e0"></path><path d="M411,63.72s.1.14.31.38a.66.66,0,0,0,.48.24c.21,0,.48-.15.38-.4s-.4-.45-.66-.71-.6-.52-.95-.79a18.76,18.76,0,0,0-5.78-3.11c-.61-.19-1.3-.44-1.74-.09a1.39,1.39,0,0,0-.24,1.69,9.33,9.33,0,0,0,1.31,1.76,19.76,19.76,0,0,0,1.65,1.65,21.31,21.31,0,0,0,4,2.82A21.58,21.58,0,0,0,414.31,69a19.86,19.86,0,0,0,2.27.46c.73.08,1.45-.16,1.52-.8a3.48,3.48,0,0,0-.52-1.9,14.58,14.58,0,0,0-1-1.73,18.45,18.45,0,0,0-2.35-2.73,39.45,39.45,0,0,0-4.07-3.34L409,58.07c-.26-.2-.39-.31-.38-.33a2.24,2.24,0,0,1,.44.24l1.21.78A33,33,0,0,1,414.47,62a18.15,18.15,0,0,1,2.44,2.76A14.49,14.49,0,0,1,418,66.52a3.9,3.9,0,0,1,.59,2.19,1.36,1.36,0,0,1-.79,1,2.45,2.45,0,0,1-1.24.17,17.67,17.67,0,0,1-2.37-.45,21.66,21.66,0,0,1-4.67-1.86,21.08,21.08,0,0,1-4.1-2.89,20.68,20.68,0,0,1-1.68-1.7,9.12,9.12,0,0,1-1.37-1.89,1.86,1.86,0,0,1,.39-2.26,1.53,1.53,0,0,1,1.16-.23,6.92,6.92,0,0,1,1,.28,19.18,19.18,0,0,1,5.83,3.29q.51.43.93.84a2.89,2.89,0,0,1,.69.83.48.48,0,0,1-.16.5.7.7,0,0,1-.42.12.82.82,0,0,1-.56-.33A1.07,1.07,0,0,1,411,63.72Z" style="fill:#e0e0e0"></path><path d="M410.12,65.82a27.6,27.6,0,0,1,7.79-.47,9.83,9.83,0,0,1,6.76,3.54,6,6,0,0,1,.14,7.26c-1.66,2-5.29,2.17-6.75,0L377.57,86.78c1.43-6.73,6.69-12.16,12.78-15.37S403.32,66.9,410.12,65.82Z" style="fill:#f5f5f5"></path><path d="M418.08,76.2s.16.21.52.52a3.89,3.89,0,0,0,1.84.87,4.84,4.84,0,0,0,3.15-.55,4.53,4.53,0,0,0,2.16-3.5,6.45,6.45,0,0,0-1.51-4.82,9.37,9.37,0,0,0-5.15-2.88,19.41,19.41,0,0,0-6.68,0c-2.33.32-4.74.73-7.19,1.19a55.61,55.61,0,0,0-13.41,4,29,29,0,0,0-9.19,6.66,21.65,21.65,0,0,0-4.12,6.47c-.67,1.7-.85,2.7-.91,2.69a5.13,5.13,0,0,1,.13-.73,15.69,15.69,0,0,1,.59-2,20.9,20.9,0,0,1,4-6.65,28.87,28.87,0,0,1,9.27-6.85,55.25,55.25,0,0,1,13.51-4.11c2.47-.45,4.87-.85,7.22-1.18a19.88,19.88,0,0,1,6.85.09,9.83,9.83,0,0,1,5.38,3.07,6.79,6.79,0,0,1,1.54,5.15,4.83,4.83,0,0,1-2.38,3.71,5,5,0,0,1-3.33.48,3.8,3.8,0,0,1-1.88-1A2.11,2.11,0,0,1,418.08,76.2Z" style="fill:#e0e0e0"></path><path d="M370.24,121.27a41.43,41.43,0,0,0,23,3.14c7.31-1.23,14.26-5.61,17.61-12.22,5.89-11.63.21-27.78,9-37.39a38.82,38.82,0,0,0-49.58,46.47" style="fill:#ebebeb"></path><path d="M370.24,121.27a1.65,1.65,0,0,1-.11-.41l-.29-1.21-.21-.9c-.05-.34-.11-.7-.17-1.1s-.12-.83-.19-1.28-.09-1-.13-1.48a36.08,36.08,0,0,1,.15-7.61,40,40,0,0,1,8.52-20.39,36.94,36.94,0,0,1,10.75-9c1.07-.64,2.23-1.14,3.37-1.7s2.36-1,3.61-1.37,2.52-.73,3.8-1.07,2.62-.54,4-.67a39,39,0,0,1,16.59,1.48l.36.11L420,75l-.66.83a19.42,19.42,0,0,0-3.62,7.55,47,47,0,0,0-1.16,8.18c-.39,5.41-.44,10.72-1.69,15.63a18.77,18.77,0,0,1-.53,1.81,12.91,12.91,0,0,1-.64,1.74c-.25.56-.48,1.13-.75,1.68s-.57,1.07-.91,1.56a21.36,21.36,0,0,1-4.63,5.17,26.05,26.05,0,0,1-11.18,5.27,36.3,36.3,0,0,1-10.22.49,42.86,42.86,0,0,1-7.61-1.32,29.5,29.5,0,0,1-6.17-2.3l.41.15c.27.11.65.28,1.17.48a42.6,42.6,0,0,0,4.64,1.47A43.6,43.6,0,0,0,384,124.6a36.52,36.52,0,0,0,10.12-.56,25.74,25.74,0,0,0,11-5.24,21.29,21.29,0,0,0,4.52-5.08c.33-.48.59-1,.88-1.53s.48-1.1.73-1.65a12,12,0,0,0,.62-1.71c.17-.59.4-1.16.52-1.77,1.21-4.84,1.26-10.12,1.64-15.56a47.35,47.35,0,0,1,1.17-8.26,19.93,19.93,0,0,1,3.71-7.75l.69-.87.11.43a38.42,38.42,0,0,0-16.37-1.47c-1.33.12-2.63.41-3.92.65s-2.54.62-3.75,1-2.4.89-3.57,1.34-2.28,1-3.34,1.68a36.78,36.78,0,0,0-10.65,8.86,39.87,39.87,0,0,0-6.09,10.47,40.32,40.32,0,0,0-2.48,9.69,37.68,37.68,0,0,0-.23,7.56c0,.52.05,1,.1,1.47s.12.88.17,1.28.1.76.15,1.1.13.63.18.9c.1.52.18.92.24,1.22A2.26,2.26,0,0,1,370.24,121.27Z" style="fill:#e0e0e0"></path><path d="M379.68,121.85c5.87,2.1,12.71,7.17,14.28,13.21s1.14,12.38.71,18.6q-7.86-11.85-15.73-23.68a10.88,10.88,0,0,0-3.35-3.68c-2-1.15-4.39-1-6.64-.66a76,76,0,0,0-13.42,3.11c-3.34,1.11-7.17,2.4-10.18.57a27.17,27.17,0,0,1,13.74-13.85c-2.45-.32-4.07-2.69-5.14-4.92a40.55,40.55,0,0,1-3.15-25.3,57.53,57.53,0,0,0,28.88,36.6" style="fill:#ebebeb"></path><path d="M410,109.7a3.91,3.91,0,0,1-.43,1,8.17,8.17,0,0,1-.61,1.13,15.5,15.5,0,0,1-.93,1.43,22.73,22.73,0,0,1-2.93,3.35,23.95,23.95,0,0,1-9.34,5.45,23.22,23.22,0,0,1-4.36.9c-.62.09-1.2.08-1.7.11a8.71,8.71,0,0,1-1.28,0,4.08,4.08,0,0,1-1.09-.13c0-.1,1.56,0,4-.33a24.7,24.7,0,0,0,4.25-1,28.15,28.15,0,0,0,4.87-2.18,27.85,27.85,0,0,0,4.3-3.17,24.54,24.54,0,0,0,2.95-3.21C409.26,111.07,409.93,109.65,410,109.7Z" style="fill:#fff"></path><path d="M410.56,103.08a3.4,3.4,0,0,1,.31,2.28,3.28,3.28,0,0,1-.8,2.14,11.29,11.29,0,0,1,.28-2.2A11.71,11.71,0,0,1,410.56,103.08Z" style="fill:#fff"></path><path d="M421.09,75.81c0-.08.41,0,1-.17a2.86,2.86,0,0,0,2.24-3.47c-.11-.6-.33-.93-.26-1s.39.23.62.88A3,3,0,0,1,422.15,76C421.46,76.06,421.07,75.86,421.09,75.81Z" style="fill:#fff"></path><path d="M199.45,451.18a69.36,69.36,0,0,1-8.59-8.47l14.46-2.06-1.53-1.2a19.74,19.74,0,0,1,16,.83l-1.27-1.66a20,20,0,0,1,11.06,7.83c2.79,3.9,5.36,9.79,5.22,14.48a18.15,18.15,0,0,1-14,7.07,22.36,22.36,0,0,1-15.57-6.51l2.55-1.39a37,37,0,0,1-11.35-8.44Z" style="fill:#ebebeb"></path><path d="M199,445.42a1.51,1.51,0,0,1,.5-.05,10.37,10.37,0,0,1,1.43,0,23.33,23.33,0,0,1,5.21.77,41.52,41.52,0,0,1,7.33,2.69c2.67,1.24,5.51,2.8,8.44,4.48,5.86,3.42,10.94,6.84,14.68,9.21l4.42,2.83a15.52,15.52,0,0,1,1.61,1.07,2.26,2.26,0,0,1-.46-.21c-.29-.14-.72-.37-1.25-.68-1.08-.61-2.63-1.53-4.51-2.69-3.8-2.3-8.92-5.68-14.75-9.08-2.93-1.68-5.74-3.24-8.38-4.49a45,45,0,0,0-7.22-2.78,27.51,27.51,0,0,0-5.13-.92C199.72,445.46,199,445.47,199,445.42Z" style="fill:#e0e0e0"></path><path d="M203,453.27A4.31,4.31,0,0,1,204,453l3-.44c2.51-.35,6-.8,9.82-1.27l1.33-.16-.2.4a78.32,78.32,0,0,0-5.17-7.33c-1.41-1.78-2.33-2.82-2.27-2.87a3.92,3.92,0,0,1,.72.66c.45.45,1.07,1.12,1.82,2a60.32,60.32,0,0,1,5.34,7.27l.22.35-.41.05-1.33.16c-3.83.46-7.31.86-9.83,1.12-1.26.12-2.28.22-3,.27A4.94,4.94,0,0,1,203,453.27Z" style="fill:#e0e0e0"></path><path d="M215.78,462.9a5.93,5.93,0,0,1,1.08-.44l3-1.08c2.54-.91,6-2.25,10.06-3.5l-.16.35c-.15-.33-.31-.69-.48-1a62.75,62.75,0,0,0-5.73-9.82c-.84-1.19-1.55-2.13-2-2.78a6,6,0,0,1-.73-1,5.65,5.65,0,0,1,.88.92c.54.61,1.3,1.53,2.19,2.7a54.22,54.22,0,0,1,5.91,9.81c.16.36.32.72.48,1.06l.12.26-.29.09c-4,1.23-7.52,2.52-10.1,3.34-1.28.41-2.33.73-3.05.92A5.47,5.47,0,0,1,215.78,462.9Z" style="fill:#e0e0e0"></path><path d="M315.73,441a53.42,53.42,0,0,0,3.86-8.49l-11,2.5.77-1.28a15.25,15.25,0,0,0-11.3,5c.16-.52.31-1,.47-1.55a15.44,15.44,0,0,0-5.83,8.7c-.94,3.59-1.17,8.55.22,11.89A14,14,0,0,0,305,459a17.27,17.27,0,0,0,9.44-9l-2.23-.29A28.41,28.41,0,0,0,318,440.5Z" style="fill:#ebebeb"></path><path d="M314.44,436.71a28.07,28.07,0,0,0-4.77,2.74c-2.77,2-6,5.49-9.24,9.55s-6,7.91-8.15,10.6c-1,1.36-1.91,2.44-2.53,3.18a7.58,7.58,0,0,1-1,1.1,8.54,8.54,0,0,1,.85-1.23l2.39-3.27c2-2.75,4.75-6.62,8-10.71s6.56-7.57,9.43-9.52a18.27,18.27,0,0,1,3.56-2,8.64,8.64,0,0,1,1.05-.37C314.31,436.72,314.44,436.69,314.44,436.71Z" style="fill:#e0e0e0"></path><path d="M313.78,443.46a20.39,20.39,0,0,1-3,.94c-1.89.52-4.5,1.2-7.4,1.92l-1,.25-.4.1.08-.4a44.45,44.45,0,0,1,1.87-6.72A12.06,12.06,0,0,1,305,437a22.58,22.58,0,0,1-.81,2.71,63.38,63.38,0,0,0-1.69,6.71l-.33-.3,1-.25c2.9-.72,5.53-1.35,7.44-1.78A19.45,19.45,0,0,1,313.78,443.46Z" style="fill:#e0e0e0"></path><path d="M307.18,454a3.29,3.29,0,0,1-.9.15c-.57.06-1.41.13-2.46.19-2.08.13-5,.18-8.21.39l-.29,0,0-.29c0-.28,0-.59.05-.9A41.56,41.56,0,0,1,297,444.8c.32-1.09.62-2,.85-2.55a3.79,3.79,0,0,1,.41-.9c.08,0-.35,1.36-.9,3.54a50.43,50.43,0,0,0-1.42,8.66c0,.3,0,.61-.05.89l-.28-.27c3.25-.21,6.15-.2,8.23-.24A29.1,29.1,0,0,1,307.18,454Z" style="fill:#e0e0e0"></path><path d="M385.59,467.82a71.93,71.93,0,0,0,14.2,1.27l-10.65-16.27,2.28.5A28.33,28.33,0,0,0,377.13,438l2.44-.16a22.81,22.81,0,0,0-15.79-4.32c-5.56.59-12.53,3.11-16.22,7.3A27.7,27.7,0,0,0,372.3,471l-1.05-3.76a41.59,41.59,0,0,0,16.53,4.07Z" style="fill:#ebebeb"></path><path d="M390.63,463.26s-.15-.12-.38-.37l-1-1.11a40.06,40.06,0,0,0-4.11-3.69,48,48,0,0,0-6.89-4.42,96.86,96.86,0,0,0-9.12-4.2c-3.31-1.33-6.48-2.58-9.41-3.58l-7.8-2.61c-2.22-.75-4-1.4-5.23-1.88-.61-.24-1.08-.43-1.39-.57a3.44,3.44,0,0,1-.48-.23,1.82,1.82,0,0,1,.51.13l1.43.48c1.24.42,3,1,5.28,1.72s4.9,1.52,7.84,2.5,6.13,2.22,9.45,3.56a89.14,89.14,0,0,1,9.15,4.26,45.2,45.2,0,0,1,6.89,4.55,33.78,33.78,0,0,1,4,3.84c.42.51.73.91.95,1.18A2.43,2.43,0,0,1,390.63,463.26Z" style="fill:#e0e0e0"></path><path d="M380.91,466.12a6.75,6.75,0,0,1-.86-1.09c-.58-.8-1.31-1.83-2.19-3.06-1.83-2.61-4.32-6.22-7.05-10.23-.54-.8-1.08-1.58-1.58-2.33l-.23-.33.39-.07a63.45,63.45,0,0,1,10.51-1c1.32,0,2.38,0,3.11.08a5,5,0,0,1,1.13.12,5.6,5.6,0,0,1-1.13.06c-.73,0-1.79,0-3.11.08a76,76,0,0,0-10.42,1.13l.17-.4,1.58,2.33c2.74,4,5.18,7.66,6.94,10.32l2.05,3.16A7.1,7.1,0,0,1,380.91,466.12Z" style="fill:#e0e0e0"></path><path d="M362.15,461.6a8.57,8.57,0,0,1-.73-1.33l-1.84-3.71c-1.53-3.15-3.62-7.52-5.91-12.39l-.12-.26.27-.09.41-.15a68,68,0,0,1,13.58-3.53,38.17,38.17,0,0,1,4.24-.35,8.21,8.21,0,0,1,1.56,0,9.91,9.91,0,0,1-1.55.16c-1,.08-2.44.23-4.2.51a77.3,77.3,0,0,0-13.46,3.66l-.41.15.15-.36c2.29,4.86,4.32,9.26,5.77,12.45.68,1.53,1.25,2.81,1.69,3.78A9.77,9.77,0,0,1,362.15,461.6Z" style="fill:#e0e0e0"></path><path d="M448.31,392.13a63.55,63.55,0,0,0,10.22-6.89l-16-5.11,1.8-.91a24.47,24.47,0,0,0-17.92-2.47l1.54-1.43A19.66,19.66,0,0,0,415,381c-3.41,3.42-6.71,8.91-6.9,13.73a23.93,23.93,0,0,0,33,6.72l-2.76-2a36,36,0,0,0,13.31-6.28Z" style="fill:#ebebeb"></path><path d="M449.2,386.32a11.59,11.59,0,0,1-1.75-.22,35.34,35.34,0,0,0-4.79-.23,43.42,43.42,0,0,0-7.06.82,83.21,83.21,0,0,0-8.45,2.18L412,393.69l-4.61,1.41a10.94,10.94,0,0,1-1.71.45,11.8,11.8,0,0,1,1.65-.64l4.56-1.57c3.86-1.29,9.18-3.11,15.12-5a75.29,75.29,0,0,1,8.51-2.15,39.23,39.23,0,0,1,7.14-.71,29.18,29.18,0,0,1,4.83.39c.56.11,1,.21,1.28.28S449.21,386.3,449.2,386.32Z" style="fill:#e0e0e0"></path><path d="M444.24,393.54a6.07,6.07,0,0,1-1.17-.25l-3.14-.85c-2.65-.75-6.3-1.81-10.31-3l-2.33-.7-.39-.12.26-.3A53.42,53.42,0,0,1,433.7,382c.88-.73,1.62-1.28,2.13-1.65a4.22,4.22,0,0,1,.84-.52,4,4,0,0,1-.72.67l-2,1.75a66.26,66.26,0,0,0-6.37,6.45l-.12-.42,2.33.7c4,1.2,7.65,2.32,10.28,3.15l3.09,1A4.49,4.49,0,0,1,444.24,393.54Z" style="fill:#e0e0e0"></path><path d="M429.2,400.73a7.33,7.33,0,0,1-1.28-.5c-.8-.36-2-.9-3.37-1.6-2.83-1.38-6.67-3.42-11-5.49h0l-.26-.13.15-.24a47.19,47.19,0,0,1,7.71-9.59c1.14-1.09,2.1-1.93,2.79-2.48a6.34,6.34,0,0,1,1.1-.81,8.12,8.12,0,0,1-1,1c-.64.6-1.56,1.47-2.66,2.59a52.34,52.34,0,0,0-7.52,9.6l-.11-.37h0c4.34,2.08,8.15,4.17,10.94,5.63,1.32.7,2.42,1.29,3.29,1.74A8.27,8.27,0,0,1,429.2,400.73Z" style="fill:#e0e0e0"></path><path d="M407.49,394.92l-.26.15-.79.39-3.06,1.47c-2.65,1.29-6.49,3.16-11.13,5.65s-10.08,5.62-15.87,9.48c-2.91,1.91-5.87,4.06-8.88,6.35s-6,4.82-9,7.54-5.73,5.49-8.23,8.33a105.16,105.16,0,0,0-6.8,8.52,101.58,101.58,0,0,0-9.38,15.9,90.17,90.17,0,0,0-4.55,11.59c-.47,1.4-.76,2.5-1,3.25-.11.35-.19.63-.25.84s-.1.29-.1.29a.87.87,0,0,1,.05-.3l.2-.86c.18-.75.44-1.87.87-3.28a84.7,84.7,0,0,1,4.42-11.69,98.44,98.44,0,0,1,9.32-16,103.8,103.8,0,0,1,6.81-8.58c2.51-2.86,5.31-5.63,8.26-8.38s6-5.23,9-7.56,6-4.44,8.93-6.34c5.83-3.85,11.3-7,16-9.41s8.53-4.27,11.21-5.51l3.1-1.38.82-.34A.92.92,0,0,1,407.49,394.92Z" style="fill:#e0e0e0"></path><path d="M379.13,412.68a27.62,27.62,0,0,1,26.74-6.88L403.35,407c4.06,0,7.86,2.43,10.21,5.73a23.14,23.14,0,0,1,3.76,11.43l-2.47-1.21c2.3,4.58,3.54,7.11,3.47,11.31-.84.81-8-.93-13.72.5.31.11.29.6,0,.8a1.37,1.37,0,0,1-.94.17c-5.27-.31-10.74-.68-15.34-3.26C381.71,428.7,377.88,420.19,379.13,412.68Z" style="fill:#ebebeb"></path><path d="M411.13,426.9A46.19,46.19,0,0,0,407,423a39.15,39.15,0,0,0-12.15-6.17c-5.12-1.64-9.87-2.75-13.3-3.55l-4.07-.91A9.18,9.18,0,0,1,376,412a8.5,8.5,0,0,1,1.53.17c1,.15,2.38.4,4.11.75A130.09,130.09,0,0,1,395,416.37a37.09,37.09,0,0,1,12.22,6.38,23.73,23.73,0,0,1,3,2.92c.33.37.55.68.71.89S411.14,426.88,411.13,426.9Z" style="fill:#e0e0e0"></path><path d="M403.33,428c-.08,0-.57-1.22-1.57-3.12a36.82,36.82,0,0,0-4.71-6.92l-.5-.56-.39-.45h.59c3.13,0,5.92.1,7.94.17a21.33,21.33,0,0,1,3.25.21,21,21,0,0,1-3.25.15c-2,0-4.82,0-7.95,0l.2-.43.5.57a32,32,0,0,1,4.65,7.09c.46,1,.78,1.8,1,2.38A3.62,3.62,0,0,1,403.33,428Z" style="fill:#e0e0e0"></path><path d="M392.26,426a4.13,4.13,0,0,1-.49-.86c-.28-.56-.68-1.38-1.16-2.41-1-2-2.26-4.89-3.66-8l-.12-.26.27-.09.07,0c3.26-1.2,6.22-2.25,8.38-3,1.07-.37,1.94-.67,2.55-.86a4.33,4.33,0,0,1,1-.24,3.49,3.49,0,0,1-.9.44c-.59.25-1.44.59-2.5,1-2.12.82-5.06,1.93-8.31,3.13l-.07,0,.14-.35c1.41,3.16,2.65,6,3.53,8.11.43,1.05.78,1.89,1,2.48A3.1,3.1,0,0,1,392.26,426Z" style="fill:#e0e0e0"></path><path d="M348.08,432a24.38,24.38,0,0,0,4.52-24l-.87,2.29a11.49,11.49,0,0,0-5.65-8.67A20.36,20.36,0,0,0,335.8,399c.41.7.81,1.4,1.21,2.11-4.17-1.76-6.47-2.71-10.17-2.41-.66.79,1.28,7,.35,12.11-.11-.26-.54-.21-.7,0a1.23,1.23,0,0,0-.1.83c.58,4.63,1.22,9.43,3.76,13.33C333.82,430.59,341.54,433.48,348.08,432Z" style="fill:#ebebeb"></path><path d="M334.27,404.85a6,6,0,0,1,1.15.76,19.75,19.75,0,0,1,2.79,2.52,31.07,31.07,0,0,1,6.33,10.61,94,94,0,0,1,2.75,12.06c.27,1.48.49,2.71.66,3.68a8.62,8.62,0,0,1,.21,1.36,5.48,5.48,0,0,1-.4-1.32c-.23-.86-.5-2.1-.83-3.65a121.37,121.37,0,0,0-2.88-12,33.17,33.17,0,0,0-6.11-10.53A46.84,46.84,0,0,0,334.27,404.85Z" style="fill:#e0e0e0"></path><path d="M333.74,411.79a2.57,2.57,0,0,1,.82.16,19.59,19.59,0,0,1,2.16.73,27.71,27.71,0,0,1,6.53,3.67l.53.41-.42.23c-.21-2.76-.37-5.22-.45-7a18.29,18.29,0,0,1-.05-2.88,15.9,15.9,0,0,1,.4,2.85c.18,1.77.4,4.23.62,7l0,.58-.46-.36-.53-.4a33.16,33.16,0,0,0-6.36-3.76C334.84,412.24,333.72,411.87,333.74,411.79Z" style="fill:#e0e0e0"></path><path d="M336.16,421.42a19.35,19.35,0,0,1,2.92,1c1.78.66,4.24,1.61,7,2.69l-.34.16.14-.42c1-2.86,1.91-5.44,2.6-7.3a21.3,21.3,0,0,1,1.23-3,19.58,19.58,0,0,1-.87,3.09c-.6,1.9-1.47,4.51-2.46,7.38l-.15.42-.09.26-.25-.1c-2.72-1.09-5.16-2.1-6.91-2.84A17.25,17.25,0,0,1,336.16,421.42Z" style="fill:#e0e0e0"></path><path d="M377.25,408.68a26,26,0,0,0,15.36-21l-1.89,1.8a12.25,12.25,0,0,0-1.45-10.93,21.7,21.7,0,0,0-8.69-7.28l.2,2.58c-3.21-3.61-5-5.57-8.69-7-1,.45-2,7.34-5.22,11.82,0-.31-.43-.46-.69-.3a1.27,1.27,0,0,0-.48.76c-1.57,4.72-3.16,9.64-2.5,14.56C364.14,400.83,370.25,407.15,377.25,408.68Z" style="fill:#ebebeb"></path><path d="M376,375.73s.09.09.22.3a9,9,0,0,1,.53.94,21,21,0,0,1,1.51,3.65,34.73,34.73,0,0,1,1.32,12.92,120.41,120.41,0,0,1-1.69,12.89c-.3,1.64-.57,3-.79,3.86a6.79,6.79,0,0,1-.39,1.4,9.15,9.15,0,0,1,.19-1.44c.17-1,.38-2.31.63-3.88.49-3.28,1.17-7.82,1.53-12.86a36.9,36.9,0,0,0-1.15-12.78A45.89,45.89,0,0,0,376,375.73Z" style="fill:#e0e0e0"></path><path d="M372.3,382.17s.28.16.72.53,1,.94,1.73,1.69a29.87,29.87,0,0,1,4.59,6.54l.33.64-.48,0c1.07-2.74,2-5.19,2.77-6.95a20,20,0,0,1,1.27-2.79,17.31,17.31,0,0,1-.93,2.92c-.65,1.79-1.57,4.26-2.63,7l-.21.55-.26-.53-.32-.63a34.93,34.93,0,0,0-4.4-6.53C373.16,383.09,372.25,382.23,372.3,382.17Z" style="fill:#e0e0e0"></path><path d="M370.2,392.55a21.91,21.91,0,0,1,2.54,2.34c1.52,1.49,3.6,3.58,5.87,5.91h-.38l0-.05c2.19-2.43,4.19-4.61,5.65-6.17a24.57,24.57,0,0,1,2.46-2.47,21.5,21.5,0,0,1-2.17,2.7c-1.4,1.63-3.36,3.85-5.55,6.29l-.05,0-.18.21-.2-.2c-2.27-2.33-4.3-4.46-5.75-6A23.25,23.25,0,0,1,370.2,392.55Z" style="fill:#e0e0e0"></path><path d="M322.06,280a73,73,0,0,0,6.65,12.61q3.93-8.9,7.87-17.78c.27.72.54,1.45.82,2.18a28.31,28.31,0,0,0,5.06-20.31l1.46,2a22.82,22.82,0,0,0-5-15.6c-3.51-4.34-9.42-8.82-14.94-9.63a27.69,27.69,0,0,0-11.81,37.13l2.58-2.93a41.58,41.58,0,0,0,5.58,16.09C320.92,282.45,321.49,281.21,322.06,280Z" style="fill:#ebebeb"></path><path d="M328.63,281.72a1.93,1.93,0,0,1,.1-.52c.1-.39.23-.87.38-1.46a40.77,40.77,0,0,0,.87-5.45,48.83,48.83,0,0,0-.05-8.18,95.1,95.1,0,0,0-1.44-9.95c-.68-3.5-1.35-6.84-2.1-9.84s-1.47-5.67-2.06-8-1-4.13-1.27-5.41c-.13-.64-.22-1.14-.28-1.48a2.37,2.37,0,0,1-.06-.53,2.1,2.1,0,0,1,.16.5c.11.39.23.88.38,1.46.32,1.27.81,3.1,1.43,5.36s1.39,4.94,2.16,8,1.47,6.34,2.16,9.86a89.66,89.66,0,0,1,1.4,10,45.58,45.58,0,0,1-.07,8.25,34,34,0,0,1-1,5.47c-.2.63-.37,1.11-.48,1.44A2.23,2.23,0,0,1,328.63,281.72Z" style="fill:#e0e0e0"></path><path d="M320.94,275.12a8,8,0,0,1,.44-1.31c.37-.92.83-2.1,1.39-3.51,1.19-2.95,2.86-7,4.75-11.48.37-.89.74-1.76,1.09-2.59l.16-.37.27.29a63.63,63.63,0,0,1,6.52,8.29c.73,1.11,1.27,2,1.63,2.65a4.69,4.69,0,0,1,.51,1,5.45,5.45,0,0,1-.66-.92c-.41-.6-1-1.48-1.76-2.56a77,77,0,0,0-6.62-8.13l.43-.08L328,259c-1.88,4.47-3.62,8.51-4.89,11.43-.62,1.38-1.14,2.53-1.54,3.44A6.45,6.45,0,0,1,320.94,275.12Z" style="fill:#e0e0e0"></path><path d="M314.53,256.92a9.1,9.1,0,0,1,.72-1.34l2.11-3.56c1.81-3,4.35-7.13,7.18-11.69l.15-.25.23.18.35.26A68.06,68.06,0,0,1,335.62,250a35.86,35.86,0,0,1,2.6,3.37,7.55,7.55,0,0,1,.81,1.33,11,11,0,0,1-1-1.22c-.61-.79-1.52-1.92-2.72-3.24a76.79,76.79,0,0,0-10.39-9.3l-.34-.27.38-.07c-2.84,4.56-5.43,8.66-7.32,11.61l-2.25,3.48A8.08,8.08,0,0,1,314.53,256.92Z" style="fill:#e0e0e0"></path><path d="M419.69,291.44A63.69,63.69,0,0,0,431,296.27q-2.2-8.11-4.42-16.22l1.74,1a24.43,24.43,0,0,0-7.68-16.38l2.05.51a19.65,19.65,0,0,0-11.83-7.75c-4.72-1-11.13-.79-15.28,1.68a23.93,23.93,0,0,0,12.32,31.35c0-1.13.09-2.25.14-3.37a35.92,35.92,0,0,0,12.51,7.75C420.28,293.72,420,292.58,419.69,291.44Z" style="fill:#ebebeb"></path><path d="M425.05,289a14,14,0,0,1-.77-1.59,35.33,35.33,0,0,0-2.41-4.15,42.46,42.46,0,0,0-4.53-5.48,84.32,84.32,0,0,0-6.42-5.9l-12.29-10.1-3.7-3.1a11.5,11.5,0,0,1-1.31-1.2,12.35,12.35,0,0,1,1.44,1l3.8,3c3.19,2.54,7.6,6,12.39,10a77.63,77.63,0,0,1,6.44,6,39.84,39.84,0,0,1,4.48,5.61,28.06,28.06,0,0,1,2.29,4.26c.22.53.36.95.47,1.24A1.54,1.54,0,0,1,425.05,289Z" style="fill:#e0e0e0"></path><path d="M416.3,288.79a5,5,0,0,1-.44-1.12c-.26-.83-.59-1.87-1-3.1-.81-2.63-1.91-6.26-3.08-10.29-.23-.8-.46-1.58-.68-2.33l-.11-.39.39.06a52.7,52.7,0,0,1,8.9,2c1.09.35,1.95.66,2.54.9a3.82,3.82,0,0,1,.89.41,4.07,4.07,0,0,1-1-.24l-2.58-.75a66.24,66.24,0,0,0-8.87-1.83l.28-.33c.22.75.45,1.53.69,2.33,1.17,4,2.21,7.69,2.94,10.34.33,1.25.61,2.3.83,3.15A5.48,5.48,0,0,1,416.3,288.79Z" style="fill:#e0e0e0"></path><path d="M402.08,280.08a6,6,0,0,1-.27-1.35c-.14-.87-.31-2.13-.5-3.69-.38-3.13-.76-7.46-1.37-12.22v0l0-.29h.29a47.47,47.47,0,0,1,12.24,1.26c1.53.36,2.75.72,3.59,1a6.5,6.5,0,0,1,1.28.48,7.28,7.28,0,0,1-1.33-.29c-.86-.21-2.09-.51-3.62-.82A52.87,52.87,0,0,0,400.2,263l.25-.29v0c.61,4.77.93,9.11,1.22,12.24.13,1.49.24,2.73.33,3.71A8.74,8.74,0,0,1,402.08,280.08Z" style="fill:#e0e0e0"></path><path d="M395.15,258.7a1,1,0,0,1-.27-.14l-.76-.45-2.9-1.77c-2.52-1.52-6.17-3.72-10.79-6.26s-10.2-5.4-16.59-8.16c-3.18-1.41-6.6-2.72-10.15-4s-7.32-2.42-11.21-3.42-7.72-1.81-11.47-2.37A106.76,106.76,0,0,0,320.16,231a101.78,101.78,0,0,0-18.44.78,91.79,91.79,0,0,0-12.2,2.48c-1.43.38-2.51.73-3.25,1l-.85.25a1.43,1.43,0,0,1-.3.07,1.54,1.54,0,0,1,.28-.12l.83-.3c.73-.26,1.81-.65,3.23-1a84.21,84.21,0,0,1,12.21-2.65,98.13,98.13,0,0,1,18.51-.9,107.58,107.58,0,0,1,10.91,1.05c3.76.56,7.61,1.4,11.52,2.38s7.66,2.2,11.25,3.44,7,2.62,10.17,4a182.35,182.35,0,0,1,16.58,8.28c4.6,2.58,8.23,4.84,10.72,6.41l2.85,1.85.73.5Z" style="fill:#e0e0e0"></path><path d="M364.81,244.56a27.65,27.65,0,0,1,20.33,18.7l-2.35-1.48c2.21,3.4,2.24,7.91.74,11.68a23.05,23.05,0,0,1-7.54,9.37l-.33-2.73c-2.6,4.42-4,6.83-7.61,9.07-1.13-.27-3.58-7.24-7.87-11.24.08.31-.35.56-.66.45a1.33,1.33,0,0,1-.65-.69c-2.61-4.59-5.28-9.39-5.61-14.65C352.78,255.44,357.84,247.6,364.81,244.56Z" style="fill:#ebebeb"></path><path d="M370.29,279.15a45.12,45.12,0,0,0,1-5.6A39,39,0,0,0,369.83,260c-1.41-5.18-3.06-9.77-4.25-13.08L364.12,243a8.75,8.75,0,0,1-.49-1.45,7.71,7.71,0,0,1,.68,1.37c.41.9,1,2.22,1.61,3.86a128.32,128.32,0,0,1,4.41,13.08,36.94,36.94,0,0,1,1.3,13.72,23.27,23.27,0,0,1-.82,4.12c-.12.48-.27.84-.35,1.08S370.31,279.15,370.29,279.15Z" style="fill:#e0e0e0"></path><path d="M365.12,273.2c-.06-.05.72-1.14,1.77-3a36.51,36.51,0,0,0,3.24-7.71l.21-.72.16-.57.31.5c1.67,2.64,3.14,5,4.18,6.75a21.93,21.93,0,0,1,1.58,2.84,20.44,20.44,0,0,1-1.89-2.65c-1.11-1.68-2.64-4-4.31-6.67l.47-.07-.21.73a31.38,31.38,0,0,1-3.43,7.76,24.24,24.24,0,0,1-1.45,2.12C365.38,273,365.15,273.22,365.12,273.2Z" style="fill:#e0e0e0"></path><path d="M360.8,262.82a3.59,3.59,0,0,1,.45-.88c.32-.55.8-1.33,1.39-2.29,1.2-1.92,2.88-4.55,4.76-7.45l.15-.23.23.17.06,0c2.78,2.09,5.28,4,7.07,5.4.89.71,1.61,1.28,2.1,1.69a3.53,3.53,0,0,1,.73.67,3.52,3.52,0,0,1-.86-.52c-.53-.35-1.28-.88-2.2-1.55-1.85-1.33-4.38-3.19-7.16-5.27l0,0,.37-.06c-1.89,2.89-3.62,5.49-4.89,7.36-.64.94-1.16,1.69-1.53,2.2A3.75,3.75,0,0,1,360.8,262.82Z" style="fill:#e0e0e0"></path><path d="M331.76,229a24.4,24.4,0,0,0,22.57-9.24l-2.4.51a11.48,11.48,0,0,0,4.2-9.45,20.23,20.23,0,0,0-3.37-10.06l-1.11,2.15c-.79-4.46-1.24-6.9-3.51-9.84-1-.13-5.18,4.89-10,6.88.16-.24-.12-.57-.4-.58a1.23,1.23,0,0,0-.76.38c-3.56,3-7.25,6.15-9.14,10.4C325.14,216.28,326.92,224.33,331.76,229Z" style="fill:#ebebeb"></path><path d="M347,202.66a5.43,5.43,0,0,1,0,1.38,20.09,20.09,0,0,1-.6,3.71,30.88,30.88,0,0,1-5.46,11.08,95.77,95.77,0,0,1-8.62,8.87l-2.73,2.56a9,9,0,0,1-1,.91,5.52,5.52,0,0,1,.88-1.06c.6-.65,1.5-1.56,2.62-2.67a122.1,122.1,0,0,0,8.47-8.93A32.82,32.82,0,0,0,346,207.65,45.13,45.13,0,0,0,347,202.66Z" style="fill:#e0e0e0"></path><path d="M340.88,206a2.57,2.57,0,0,1,.31.78,19.45,19.45,0,0,1,.56,2.2,27.6,27.6,0,0,1,.47,7.48l-.06.67-.41-.23c2.2-1.67,4.18-3.15,5.62-4.19a17.87,17.87,0,0,1,2.39-1.6,14.83,14.83,0,0,1-2.17,1.89c-1.39,1.11-3.33,2.63-5.53,4.31l-.46.36,0-.59.05-.66a32.76,32.76,0,0,0-.31-7.38C341.1,207.16,340.8,206,340.88,206Z" style="fill:#e0e0e0"></path><path d="M334.11,213.26a17.62,17.62,0,0,1,.77,3c.42,1.86,1,4.44,1.53,7.31l-.31-.2.43-.11c2.93-.72,5.6-1.35,7.54-1.79a21.74,21.74,0,0,1,3.18-.6,18.86,18.86,0,0,1-3.07.95c-1.92.53-4.58,1.22-7.53,2l-.43.11-.26.06-.06-.27c-.56-2.87-1-5.46-1.37-7.34A18.75,18.75,0,0,1,334.11,213.26Z" style="fill:#e0e0e0"></path><path d="M367.15,240.81a26,26,0,0,0,26,1.48l-2.54-.61a12.27,12.27,0,0,0,8.38-7.17,21.71,21.71,0,0,0,1.39-11.24l-2.06,1.56c1.28-4.65,2-7.21,1.14-11.09-.93-.58-7.24,2.33-12.77,2,.27-.15.16-.6-.12-.74a1.33,1.33,0,0,0-.9,0c-4.81,1.25-9.8,2.59-13.58,5.82C366.61,225.54,364.63,234.1,367.15,240.81Z" style="fill:#ebebeb"></path><path d="M394.12,221.83s0,.13-.14.35a9.85,9.85,0,0,1-.49,1,21.62,21.62,0,0,1-2.25,3.25,34.56,34.56,0,0,1-10.12,8.13,122.07,122.07,0,0,1-11.74,5.6c-1.54.63-2.79,1.12-3.67,1.43a7.48,7.48,0,0,1-1.38.44,7.81,7.81,0,0,1,1.31-.62l3.59-1.59c3-1.37,7.21-3.27,11.63-5.71a36.9,36.9,0,0,0,10.1-7.92A47.26,47.26,0,0,0,394.12,221.83Z" style="fill:#e0e0e0"></path><path d="M386.71,222.24a2.86,2.86,0,0,1-.06.89,23.52,23.52,0,0,1-.48,2.37,29.43,29.43,0,0,1-3,7.41c-.12.21-.24.43-.36.62l-.27-.39c2.88-.6,5.47-1.11,7.33-1.45a18.44,18.44,0,0,1,3-.45,17.93,17.93,0,0,1-3,.8c-1.85.44-4.43,1-7.31,1.61l-.57.12.3-.51.35-.6a35.27,35.27,0,0,0,3.09-7.26C386.4,223.46,386.63,222.22,386.71,222.24Z" style="fill:#e0e0e0"></path><path d="M376.86,226.12a22.33,22.33,0,0,1-.59,3.4c-.42,2.09-1,5-1.77,8.14l-.21-.31h.07c3.23.51,6.15,1,8.26,1.38a23.77,23.77,0,0,1,3.4.72,22.84,22.84,0,0,1-3.45-.36c-2.12-.28-5.06-.72-8.29-1.23h-.07l-.27,0,.06-.27c.72-3.18,1.4-6,1.91-8.11A23,23,0,0,1,376.86,226.12Z" style="fill:#e0e0e0"></path><path d="M178.07,149.14a81.44,81.44,0,0,0,2.51-15.74L161.6,144c.25-.83.49-1.67.73-2.5a31.6,31.6,0,0,0-18.15,14.76v-2.73a25.47,25.47,0,0,0-6,17.28c.23,6.24,2.5,14.22,6.9,18.65a31,31,0,0,0,35.49-25.27l-4.27.88A46.52,46.52,0,0,0,182.08,147Z" style="fill:#ebebeb"></path><path d="M173.36,143.17a2.62,2.62,0,0,1-.44.39l-1.32,1a43.19,43.19,0,0,0-4.45,4.29,53.57,53.57,0,0,0-5.46,7.35,107.4,107.4,0,0,0-5.4,9.86c-1.74,3.59-3.38,7-4.72,10.21l-3.5,8.51c-1,2.42-1.87,4.36-2.49,5.69-.31.67-.56,1.18-.74,1.52a3.44,3.44,0,0,1-.29.51,2,2,0,0,1,.2-.55l.64-1.56c.57-1.35,1.37-3.31,2.33-5.75s2.08-5.35,3.41-8.55,3-6.66,4.7-10.26a99.16,99.16,0,0,1,5.45-9.89,50.88,50.88,0,0,1,5.6-7.34,38.73,38.73,0,0,1,4.59-4.2c.59-.43,1.07-.75,1.39-1A2.28,2.28,0,0,1,173.36,143.17Z" style="fill:#e0e0e0"></path><path d="M175.81,154.23a10.31,10.31,0,0,1-1.29.87l-3.6,2.19c-3,1.84-7.27,4.34-11.95,7.07L156.25,166l-.35.2,0-.39a70.71,70.71,0,0,1-.28-11.79c.09-1.48.21-2.66.31-3.47a6.73,6.73,0,0,1,.22-1.25,8,8,0,0,1,0,1.26c-.05.82-.12,2-.16,3.47a83.28,83.28,0,0,0,.45,11.72l-.39-.19,2.72-1.59c4.69-2.74,9-5.19,12-6.95l3.68-2.05A9.46,9.46,0,0,1,175.81,154.23Z" style="fill:#e0e0e0"></path><path d="M169.32,174.81a11.53,11.53,0,0,1-1.55.7l-4.28,1.76c-3.64,1.46-8.68,3.45-14.28,5.63l-.27.1-.07-.28-.13-.46a76.39,76.39,0,0,1-2.91-15.42,41.89,41.89,0,0,1-.07-4.76c0-.56.06-1,.08-1.29a2.16,2.16,0,0,1,.07-.45,12.62,12.62,0,0,1,.05,1.74c0,1.12.06,2.74.24,4.73a85.12,85.12,0,0,0,3,15.31c0,.16.09.32.13.46l-.35-.17c5.6-2.17,10.66-4.11,14.33-5.48l4.35-1.6A9.43,9.43,0,0,1,169.32,174.81Z" style="fill:#e0e0e0"></path><path d="M98.45,73.33A70.43,70.43,0,0,0,91.56,61.4L84.62,78.87l-.87-2.08A27.33,27.33,0,0,0,79.61,96.6c-.49-.62-1-1.23-1.48-1.84a22,22,0,0,0,5.37,14.88c3.56,4.06,9.43,8.17,14.8,8.76a26.8,26.8,0,0,0,10-36.31L105.94,85a40.23,40.23,0,0,0-6-15.33C99.46,70.9,99,72.11,98.45,73.33Z" style="fill:#ebebeb"></path><path d="M92,71.89a1.79,1.79,0,0,1-.08.51c-.08.38-.18.85-.31,1.43A39.48,39.48,0,0,0,91,79.15a47,47,0,0,0,.36,7.95,90.61,90.61,0,0,0,1.78,9.59c1.63,6.72,3.12,12.79,4.21,17.29.51,2.16.92,3.93,1.23,5.25l.31,1.43a2.42,2.42,0,0,1,.08.51,1.63,1.63,0,0,1-.18-.48l-.4-1.41c-.35-1.31-.82-3.07-1.4-5.21-1.13-4.41-2.74-10.49-4.36-17.26a85.22,85.22,0,0,1-1.75-9.66,43.9,43.9,0,0,1-.25-8,34.11,34.11,0,0,1,.8-5.35c.17-.62.31-1.09.41-1.41A1.63,1.63,0,0,1,92,71.89Z" style="fill:#e0e0e0"></path><path d="M99.71,78a6.92,6.92,0,0,1-.37,1.28L98.13,82.7c-1,2.9-2.51,6.88-4.16,11.27l-1,2.54-.14.38-.28-.28A61.19,61.19,0,0,1,86,88.84c-.74-1-1.3-1.9-1.67-2.51a5.09,5.09,0,0,1-.53-1,4.58,4.58,0,0,1,.68.86c.42.57,1,1.4,1.79,2.41a74.46,74.46,0,0,0,6.7,7.6l-.42.1c.3-.82.63-1.68,1-2.55,1.66-4.39,3.18-8.36,4.31-11.22l1.36-3.38A6.69,6.69,0,0,1,99.71,78Z" style="fill:#e0e0e0"></path><path d="M106.58,95.32a8.72,8.72,0,0,1-.67,1.38c-.47.87-1.17,2.11-2,3.63-1.76,3-4.34,7.17-7,11.84l0,0-.14.25-.24-.16A53.78,53.78,0,0,1,86.38,103c-1.13-1.35-2-2.49-2.56-3.29A7.82,7.82,0,0,1,83,98.37a9.21,9.21,0,0,1,1,1.16c.62.77,1.52,1.87,2.68,3.18a58.41,58.41,0,0,0,10.12,9.14l-.37.09v0c2.66-4.68,5.28-8.77,7.12-11.77l2.19-3.55A8.15,8.15,0,0,1,106.58,95.32Z" style="fill:#e0e0e0"></path><path d="M98.42,119.09s.08.16.21.48L99.2,121c.48,1.26,1.21,3.11,2.17,5.48,1.95,4.73,4.78,11.58,8.92,19.74a176.78,176.78,0,0,0,16.87,27.28,153.11,153.11,0,0,0,12.45,14.28c4.57,4.73,9.37,9.58,14.31,14.51,19.8,19.71,38.25,37,52.21,48.86a185.74,185.74,0,0,0,17.13,13.24,44.29,44.29,0,0,0,5.09,3c.6.29,1.09.46,1.4.6l.48.21a5,5,0,0,1-.5-.16c-.32-.13-.81-.28-1.43-.55a43.71,43.71,0,0,1-5.15-2.89,176.35,176.35,0,0,1-17.26-13.12c-14-11.78-32.53-29.06-52.33-48.78-4.95-4.93-9.75-9.78-14.31-14.53a148.75,148.75,0,0,1-12.47-14.34A174.62,174.62,0,0,1,110,146.38c-4.1-8.2-6.89-15.08-8.78-19.84-.93-2.38-1.63-4.24-2.08-5.51-.22-.62-.4-1.1-.52-1.44A5,5,0,0,1,98.42,119.09Z" style="fill:#e0e0e0"></path><path d="M116.05,152.1a30.91,30.91,0,0,1-5.62-30.37c.37,1,.73,1.94,1.1,2.9.32-4.52,3.32-8.58,7.19-10.95a25.7,25.7,0,0,1,13-3.3L130.22,113c5.29-2.2,8.19-3.4,12.89-3,.83,1-1.66,8.88-.51,15.34.15-.33.69-.27.9,0a1.53,1.53,0,0,1,.11,1.06c-.75,5.85-1.58,11.93-4.82,16.86C134.12,150.45,124.33,154.06,116.05,152.1Z" style="fill:#ebebeb"></path><path d="M134.38,117.49a17,17,0,0,1-1.31,1.11,33.27,33.27,0,0,0-3.34,3.23,43.77,43.77,0,0,0-7.83,13.09c-2.22,5.58-3.82,10.79-5,14.56-.53,1.83-1,3.34-1.31,4.48a11,11,0,0,1-.52,1.63s0-.15.06-.44.14-.71.26-1.24c.24-1.08.64-2.63,1.16-4.53a148.61,148.61,0,0,1,4.85-14.66,41.37,41.37,0,0,1,8-13.13,28.15,28.15,0,0,1,3.48-3.15c.44-.34.8-.57,1.05-.73A1.33,1.33,0,0,1,134.38,117.49Z" style="fill:#e0e0e0"></path><path d="M135,126.28c0,.08-1.4.53-3.61,1.49a41.3,41.3,0,0,0-8.09,4.72l-.67.51-.46.35,0-.58c.28-3.48.56-6.6.78-8.85.12-1.12.22-2,.3-2.64a3.87,3.87,0,0,1,.17-1,3.31,3.31,0,0,1,0,1c0,.63-.06,1.54-.13,2.66-.13,2.25-.35,5.38-.63,8.86l-.42-.22.68-.52a35.87,35.87,0,0,1,8.26-4.64c1.13-.44,2.07-.74,2.72-.93A4.09,4.09,0,0,1,135,126.28Z" style="fill:#e0e0e0"></path><path d="M131.9,138.47a4.64,4.64,0,0,1-1,.47c-.65.27-1.6.65-2.78,1.1-2.36.91-5.63,2.13-9.26,3.46l-.26.09-.08-.26,0-.08c-1.09-3.74-2-7.12-2.71-9.58-.33-1.23-.59-2.22-.76-2.91a4.8,4.8,0,0,1-.21-1.09,4.24,4.24,0,0,1,.41,1l.92,2.87c.75,2.43,1.76,5.79,2.85,9.52l0,.08-.34-.17c3.63-1.32,6.92-2.49,9.31-3.31,1.2-.42,2.17-.74,2.84-.95A4.35,4.35,0,0,1,131.9,138.47Z" style="fill:#e0e0e0"></path><path d="M135.15,188.22a27.27,27.27,0,0,0-26.38-6.89l2.49,1.15a12.85,12.85,0,0,0-10.11,5.63,22.71,22.71,0,0,0-3.74,11.26l2.44-1.18c-2.29,4.52-3.52,7-3.47,11.16.83.8,7.92-.89,13.54.54-.3.1-.28.59,0,.79a1.35,1.35,0,0,0,.93.17c5.2-.29,10.61-.63,15.16-3.17C132.54,204,136.35,195.64,135.15,188.22Z" style="fill:#ebebeb"></path><path d="M103.86,201.54a1.31,1.31,0,0,1,.22-.33c.16-.21.39-.52.72-.89a23.51,23.51,0,0,1,3-2.91,34.9,34.9,0,0,1,12.32-6.23,69.92,69.92,0,0,1,7.5-1.4c2.32-.32,4.41-.55,6.16-.75l4.16-.46a9,9,0,0,1,1.53-.13,8.2,8.2,0,0,1-1.5.33c-1,.18-2.39.38-4.14.63l-6.14.86c-2.31.35-4.84.76-7.44,1.42a37,37,0,0,0-12.22,6A48.34,48.34,0,0,0,103.86,201.54Z" style="fill:#e0e0e0"></path><path d="M111.56,202.66a3.13,3.13,0,0,1,.25-.9,23.73,23.73,0,0,1,1-2.34,31.4,31.4,0,0,1,4.6-7c.18-.19.35-.38.5-.56l.2.43c-3.09,0-5.85,0-7.84,0a19.37,19.37,0,0,1-3.21-.16,21.51,21.51,0,0,1,3.2-.2c2-.06,4.76-.11,7.84-.14h.59l-.39.44-.49.55a37.17,37.17,0,0,0-4.68,6.82C112.13,201.46,111.64,202.69,111.56,202.66Z" style="fill:#e0e0e0"></path><path d="M122.49,200.71a23.57,23.57,0,0,1,1.33-3.17c.88-1.94,2.13-4.61,3.54-7.56l.14.35-.46-.19c-3.12-1.32-5.92-2.55-8-3.46-1-.45-1.83-.83-2.4-1.1a3.12,3.12,0,0,1-.85-.48,27.18,27.18,0,0,1,3.37,1.23c2.06.83,4.91,2,8,3.33l.46.19.25.11-.12.24c-1.42,3-2.72,5.6-3.69,7.49A22.91,22.91,0,0,1,122.49,200.71Z" style="fill:#e0e0e0"></path><path d="M175.44,223.44a27.29,27.29,0,0,0-26.38-6.9l2.48,1.16a12.83,12.83,0,0,0-10.1,5.63,22.72,22.72,0,0,0-3.75,11.26l2.44-1.18c-2.28,4.52-3.52,7-3.47,11.16.83.79,7.93-.89,13.54.54-.3.1-.28.59,0,.79a1.43,1.43,0,0,0,.92.17c5.21-.29,10.61-.63,15.16-3.17C172.83,239.24,176.64,230.86,175.44,223.44Z" style="fill:#ebebeb"></path><path d="M144.15,236.76s.06-.13.21-.33.39-.52.72-.89a23.72,23.72,0,0,1,3-2.91,34.73,34.73,0,0,1,12.32-6.23,65.55,65.55,0,0,1,7.49-1.4c2.32-.32,4.41-.55,6.17-.75l4.15-.47a9.08,9.08,0,0,1,1.53-.13,7.92,7.92,0,0,1-1.5.33c-1,.18-2.39.39-4.14.63l-6.14.87a73.36,73.36,0,0,0-7.43,1.42,36.84,36.84,0,0,0-12.23,6A43.65,43.65,0,0,0,144.15,236.76Z" style="fill:#e0e0e0"></path><path d="M151.84,237.88a3.4,3.4,0,0,1,.25-.9c.21-.57.53-1.37,1-2.34a31.26,31.26,0,0,1,4.61-7l.5-.56.19.43c-3.09,0-5.85,0-7.84,0a21,21,0,0,1-3.21-.16,20.3,20.3,0,0,1,3.21-.2c2-.06,4.75-.11,7.84-.14H159l-.39.44-.49.55a36.21,36.21,0,0,0-4.67,6.81C152.41,236.68,151.92,237.91,151.84,237.88Z" style="fill:#e0e0e0"></path><path d="M162.77,235.92a24.23,24.23,0,0,1,1.33-3.17c.88-1.93,2.13-4.6,3.55-7.56l.13.36-.45-.2c-3.12-1.32-5.93-2.54-8-3.45-1-.46-1.83-.83-2.39-1.11a3.52,3.52,0,0,1-.86-.47,24.67,24.67,0,0,1,3.37,1.23c2.07.82,4.91,2,8,3.32l.46.2.25.1-.12.25c-1.43,3-2.73,5.59-3.69,7.49A21.52,21.52,0,0,1,162.77,235.92Z" style="fill:#e0e0e0"></path><path d="M185.83,225.33A20.48,20.48,0,0,1,179.09,206c.34.59.67,1.19,1,1.79a9.67,9.67,0,0,1,3.62-7.91,17.09,17.09,0,0,1,8.21-3.48c-.24.64-.49,1.27-.74,1.9,3.25-2,5-3.05,8.16-3.26.64.57-.2,6,1.21,10.11.06-.23.43-.25.59-.07a1,1,0,0,1,.18.69c.1,3.91.16,8-1.46,11.55A14.65,14.65,0,0,1,185.83,225.33Z" style="fill:#ebebeb"></path><path d="M194,201.09a42.14,42.14,0,0,0-2.6,3.4A28,28,0,0,0,187.6,214c-.65,4-.73,7.65-.92,10.3-.09,1.32-.16,2.39-.25,3.13a5.39,5.39,0,0,1-.18,1.15,4.83,4.83,0,0,1,0-1.16c0-.85.05-1.9.08-3.14a77.06,77.06,0,0,1,.78-10.38,25.82,25.82,0,0,1,4-9.61,15.89,15.89,0,0,1,2-2.44A3.92,3.92,0,0,1,194,201.09Z" style="fill:#e0e0e0"></path><path d="M195.24,206.79a25.66,25.66,0,0,1-2.19,1.4,27.88,27.88,0,0,0-4.8,3.91l-.38.4-.41.43,0-.59c-.17-2.31-.29-4.39-.35-5.88a11.28,11.28,0,0,1,0-2.42,11.92,11.92,0,0,1,.35,2.39c.15,1.49.33,3.56.5,5.87l-.44-.15.39-.41a23.07,23.07,0,0,1,5-3.87A8.61,8.61,0,0,1,195.24,206.79Z" style="fill:#e0e0e0"></path><path d="M194.43,215.1a12.91,12.91,0,0,1-2.14,1.46c-1.36.84-3.25,2-5.38,3.23l-.24.13-.12-.24-.17-.33c-1.19-2.27-2.23-4.33-3-5.83a13.45,13.45,0,0,1-1.08-2.48,15.21,15.21,0,0,1,1.42,2.33c.81,1.46,1.9,3.49,3.08,5.74l.17.33-.36-.1c2.13-1.24,4.06-2.33,5.46-3.1A13,13,0,0,1,194.43,215.1Z" style="fill:#e0e0e0"></path><path d="M111.45,153.88a29.1,29.1,0,0,0-22.24-18.75l1.87,2.25c-3.85-1.85-8.57-1.28-12.32.78A24.26,24.26,0,0,0,70,147.28h2.89c-4.27,3.3-6.6,5.12-8.46,9.15.43,1.14,8,2.78,12.79,6.74-.34,0-.55.44-.39.74a1.41,1.41,0,0,0,.81.59c5.14,2.12,10.51,4.27,16,3.92C101.67,167.9,109.2,161.58,111.45,153.88Z" style="fill:#ebebeb"></path><path d="M74.58,152.75s.12-.09.36-.22.6-.32,1.09-.51a24.13,24.13,0,0,1,4.19-1.39,38.88,38.88,0,0,1,14.51-.47A137.69,137.69,0,0,1,109,153c1.8.46,3.25.86,4.25,1.17a8,8,0,0,1,1.52.53,12.52,12.52,0,0,1-1.58-.34l-4.28-1c-3.62-.81-8.63-1.93-14.23-2.71a41.28,41.28,0,0,0-14.36.3,30.46,30.46,0,0,0-4.2,1.22A12.73,12.73,0,0,1,74.58,152.75Z" style="fill:#e0e0e0"></path><path d="M81.48,157.36a4.13,4.13,0,0,1,.66-.75,27.06,27.06,0,0,1,2-1.79,33.41,33.41,0,0,1,7.65-4.61l.73-.31v.48c-3-1.4-5.64-2.68-7.54-3.62a25.77,25.77,0,0,1-3-1.62,23,23,0,0,1,3.18,1.29c1.94.86,4.63,2.08,7.61,3.48l.53.24-.54.23-.73.31a39,39,0,0,0-7.63,4.42C82.57,156.46,81.54,157.42,81.48,157.36Z" style="fill:#e0e0e0"></path><path d="M92.9,160.5a4.12,4.12,0,0,1,.73-.74c.48-.46,1.2-1.1,2.09-1.89,1.79-1.58,4.28-3.73,7-6.08l0,.38,0-.06c-2.54-2.62-4.83-5-6.46-6.77-.82-.88-1.47-1.59-1.92-2.1a3.73,3.73,0,0,1-.65-.82,4.43,4.43,0,0,1,.79.67c.49.46,1.18,1.14,2,2,1.71,1.69,4,4.05,6.58,6.68l.06.05.19.2-.21.18c-2.78,2.36-5.3,4.46-7.15,6-.92.75-1.68,1.35-2.2,1.76A3.53,3.53,0,0,1,92.9,160.5Z" style="fill:#e0e0e0"></path><path d="M128.3,386.08a2.68,2.68,0,0,1,.35-2.66,22,22,0,0,1,7.43,11.38,2.63,2.63,0,0,1,1.53-1.85,15.59,15.59,0,0,1,.41,12.1c.42-.94,2-.64,2.44.3a3.65,3.65,0,0,1-.34,3,21.34,21.34,0,0,1-7.86,9.17l-.69.34c-2.75-13.72-9.55-26.23-16.26-38.5A24.82,24.82,0,0,1,128.3,386.08Z" style="fill:#e0e0e0"></path><path d="M118.24,468a69.37,69.37,0,0,1-13.49,1.21l10.11-15.47-2.16.48a26.87,26.87,0,0,1,13.58-14.53l-2.32-.16a21.7,21.7,0,0,1,15-4.1c5.27.56,11.9,3,15.41,6.94a26.33,26.33,0,0,1-23.51,28.61l1-3.57a39.6,39.6,0,0,1-15.7,3.87C116.85,470.14,117.55,469.05,118.24,468Z" style="fill:#ebebeb"></path><path d="M113.45,463.62a1.93,1.93,0,0,1,.28-.41c.21-.26.5-.65.9-1.13a31.87,31.87,0,0,1,3.83-3.65A43.59,43.59,0,0,1,125,454.1a84.68,84.68,0,0,1,8.71-4.05c3.15-1.27,6.17-2.45,9-3.38s5.33-1.71,7.45-2.38,3.83-1.23,5-1.62a13.28,13.28,0,0,1,1.85-.58,2.23,2.23,0,0,1-.45.22l-1.33.55c-1.16.45-2.85,1.07-5,1.78l-7.41,2.49c-2.78.95-5.79,2.13-8.94,3.4a94.59,94.59,0,0,0-8.67,4,47.61,47.61,0,0,0-6.55,4.19,38.85,38.85,0,0,0-3.9,3.51l-1,1A2.17,2.17,0,0,1,113.45,463.62Z" style="fill:#e0e0e0"></path><path d="M122.69,466.34a6.28,6.28,0,0,1,.65-1.14l2-3c1.66-2.52,4-6,6.58-9.81.52-.75,1-1.5,1.51-2.21l.16.4a73.54,73.54,0,0,0-9.9-1.08c-1.25-.05-2.26-.06-3-.08a4.31,4.31,0,0,1-1.07-.06,4.36,4.36,0,0,1,1.07-.12c.69-.05,1.7-.08,3-.08a60.59,60.59,0,0,1,10,.92l.39.07-.22.33-1.5,2.21c-2.6,3.81-5,7.25-6.71,9.72l-2.08,2.91A6.54,6.54,0,0,1,122.69,466.34Z" style="fill:#e0e0e0"></path><path d="M140.51,462.05a8.26,8.26,0,0,1,.52-1.35l1.61-3.6c1.37-3,3.3-7.21,5.47-11.83l.15.35-.39-.13A72.84,72.84,0,0,0,135.08,442c-1.67-.28-3-.42-4-.5a8.6,8.6,0,0,1-1.47-.15,7.83,7.83,0,0,1,1.48-.05,38.64,38.64,0,0,1,4,.33A64.92,64.92,0,0,1,148.05,445l.39.13.27.1-.13.26c-2.17,4.62-4.16,8.78-5.62,11.77l-1.74,3.53A9.15,9.15,0,0,1,140.51,462.05Z" style="fill:#e0e0e0"></path><path d="M58.63,396a60.1,60.1,0,0,1-9.71-6.55l15.22-4.86-1.71-.86a23.25,23.25,0,0,1,17-2.35L78,380.05a18.71,18.71,0,0,1,12.3,5.43c3.24,3.25,6.38,8.47,6.56,13a22.76,22.76,0,0,1-31.37,6.38l2.61-1.85a34.22,34.22,0,0,1-12.64-6Z" style="fill:#ebebeb"></path><path d="M57.78,390.5a1.94,1.94,0,0,1,.42-.13l1.22-.27a28.69,28.69,0,0,1,4.59-.38,37.86,37.86,0,0,1,6.79.68,73.75,73.75,0,0,1,8.09,2c5.64,1.77,10.7,3.5,14.37,4.73l4.33,1.49a10.27,10.27,0,0,1,1.57.62,11.62,11.62,0,0,1-1.63-.42l-4.38-1.34-14.41-4.58a79.51,79.51,0,0,0-8-2.07,39.79,39.79,0,0,0-6.71-.78,34.12,34.12,0,0,0-4.55.21A9.92,9.92,0,0,1,57.78,390.5Z" style="fill:#e0e0e0"></path><path d="M62.5,397.36a5.05,5.05,0,0,1,1-.42l2.94-1c2.49-.8,6-1.86,9.77-3l2.21-.66-.12.42a64.32,64.32,0,0,0-6-6.13c-1.62-1.44-2.65-2.25-2.61-2.31a3.85,3.85,0,0,1,.79.49c.49.35,1.19.87,2,1.56a52.06,52.06,0,0,1,6.21,6.05l.26.3-.39.12-2.21.66c-3.82,1.15-7.28,2.15-9.8,2.86l-3,.81A4.13,4.13,0,0,1,62.5,397.36Z" style="fill:#e0e0e0"></path><path d="M76.8,404.2a6.43,6.43,0,0,1,1.12-.66l3.13-1.65c2.64-1.4,6.27-3.38,10.39-5.36h0l-.11.37a49.76,49.76,0,0,0-7.14-9.12c-1-1.07-1.92-1.89-2.53-2.47a6.33,6.33,0,0,1-.91-.92,7,7,0,0,1,1,.77c.65.53,1.57,1.32,2.65,2.35a45.64,45.64,0,0,1,7.33,9.12l.15.24-.26.13h0c-4.1,2-7.75,3.9-10.44,5.21-1.35.66-2.44,1.18-3.21,1.52A6.17,6.17,0,0,1,76.8,404.2Z" style="fill:#e0e0e0"></path><path d="M97.43,398.68l.27.09.77.33,3,1.31c2.54,1.17,6.22,2.9,10.66,5.23a175.23,175.23,0,0,1,15.17,8.94c2.78,1.8,5.6,3.85,8.49,6s5.74,4.6,8.55,7.19,5.47,5.25,7.86,8a98.18,98.18,0,0,1,6.47,8.16,93.08,93.08,0,0,1,8.85,15.23,80.47,80.47,0,0,1,4.2,11.1c.41,1.35.66,2.41.83,3.12.07.34.14.61.19.82a.9.9,0,0,1,0,.29,1.36,1.36,0,0,1-.1-.27c-.06-.21-.14-.48-.23-.81-.21-.71-.49-1.76-.93-3.09a86.56,86.56,0,0,0-4.33-11,95.81,95.81,0,0,0-8.91-15.1,101.73,101.73,0,0,0-6.46-8.1c-2.39-2.7-5-5.31-7.83-7.92s-5.68-4.95-8.51-7.16-5.68-4.22-8.44-6c-5.51-3.67-10.68-6.65-15.09-9s-8.05-4.14-10.57-5.37l-2.9-1.4-.76-.37Z" style="fill:#e0e0e0"></path><path d="M124.38,415.56A26.25,26.25,0,0,0,99,409l2.4,1.11a12.37,12.37,0,0,0-9.71,5.45,21.86,21.86,0,0,0-3.56,10.85l2.34-1.14c-2.18,4.35-3.36,6.75-3.3,10.75.8.76,7.62-.89,13,.47-.3.1-.27.57,0,.76a1.32,1.32,0,0,0,.9.16c5-.29,10.21-.64,14.58-3.1C121.92,430.78,125.56,422.69,124.38,415.56Z" style="fill:#ebebeb"></path><path d="M94,429.07s0-.13.2-.32a9.88,9.88,0,0,1,.68-.85,22,22,0,0,1,2.86-2.78,35.07,35.07,0,0,1,11.61-6.07A125.48,125.48,0,0,1,122,415.81c1.65-.33,3-.56,3.92-.7a7,7,0,0,1,1.45-.16,9,9,0,0,1-1.42.36l-3.87.86c-3.26.77-7.77,1.82-12.63,3.38a37.12,37.12,0,0,0-11.54,5.86A41.72,41.72,0,0,0,94,429.07Z" style="fill:#e0e0e0"></path><path d="M101.38,430.11a3,3,0,0,1,.24-.86,22.58,22.58,0,0,1,.93-2.26,30.27,30.27,0,0,1,4.41-6.75l.48-.54.2.43c-3,0-5.63,0-7.55,0A18.32,18.32,0,0,1,97,420a18,18,0,0,1,3.09-.21c1.91-.07,4.57-.13,7.54-.17h.59l-.39.44-.47.53a35.94,35.94,0,0,0-4.48,6.57C101.93,429,101.46,430.14,101.38,430.11Z" style="fill:#e0e0e0"></path><path d="M111.89,428.2a24.4,24.4,0,0,1,1.25-3.25c.83-2,2-4.71,3.34-7.71l.15.35-.07,0c-3.09-1.13-5.88-2.19-7.89-3a23.27,23.27,0,0,1-3.23-1.38,23.24,23.24,0,0,1,3.34,1c2,.7,4.86,1.71,8,2.85l.07,0,.26.1-.11.25c-1.34,3-2.57,5.7-3.48,7.64A22.19,22.19,0,0,1,111.89,428.2Z" style="fill:#e0e0e0"></path><path d="M153.89,433.87a23.19,23.19,0,0,1-4.31-22.77l.84,2.17a10.92,10.92,0,0,1,5.36-8.23,19.29,19.29,0,0,1,9.77-2.52l-1.14,2c4-1.67,6.14-2.57,9.66-2.29.63.75-1.22,6.67-.34,11.51.11-.25.52-.2.67,0a1.07,1.07,0,0,1,.09.79c-.54,4.4-1.15,9-3.57,12.67C167.44,432.58,160.1,435.32,153.89,433.87Z" style="fill:#ebebeb"></path><path d="M167,408.12a43.38,43.38,0,0,0-3.48,3.35,31.32,31.32,0,0,0-5.8,10A113.18,113.18,0,0,0,155,432.84c-.32,1.47-.58,2.66-.79,3.47a6.38,6.38,0,0,1-.39,1.26,6.41,6.41,0,0,1,.19-1.3c.17-.93.37-2.1.62-3.5a92.17,92.17,0,0,1,2.61-11.46,29.52,29.52,0,0,1,6-10.09,19.76,19.76,0,0,1,2.65-2.39A6,6,0,0,1,167,408.12Z" style="fill:#e0e0e0"></path><path d="M167.51,414.71c0,.08-1,.43-2.69,1.17a31.81,31.81,0,0,0-6,3.57l-.49.38-.47.36.05-.58c.2-2.62.41-4.95.58-6.64a14.7,14.7,0,0,1,.39-2.7,14.86,14.86,0,0,1,0,2.73c-.08,1.69-.23,4-.43,6.65l-.42-.22.51-.39a26.43,26.43,0,0,1,6.21-3.5A10.53,10.53,0,0,1,167.51,414.71Z" style="fill:#e0e0e0"></path><path d="M165.21,423.86a15.48,15.48,0,0,1-2.64,1.25c-1.66.71-4,1.67-6.56,2.7l-.25.11-.09-.26-.14-.4c-.94-2.73-1.77-5.21-2.34-7a17.67,17.67,0,0,1-.82-2.94,17.58,17.58,0,0,1,1.18,2.84c.66,1.77,1.53,4.22,2.47,6.94l.14.4-.34-.16c2.58-1,4.92-1.93,6.62-2.55A17.4,17.4,0,0,1,165.21,423.86Z" style="fill:#e0e0e0"></path></g></svg>
