<svg xmlns="http://www.w3.org/2000/svg" viewBox="0 0 500 500"><g id="freepik--Plants--inject-15"><g id="freepik--plants--inject-15"><g id="freepik--Plant--inject-15"><path d="M415.9,346.82a20.37,20.37,0,0,1,2.85,1.5,18.34,18.34,0,0,1,2.53,2.12,23.64,23.64,0,0,1,4,5.41,16.58,16.58,0,0,1,2,11.93,16.43,16.43,0,0,1-3.13,7.16c-.21.26-.4-.07-.3-.29,2.2-4.67,3.59-10.22,1.78-15.25a24.81,24.81,0,0,0-3.74-6.58,26.88,26.88,0,0,0-2.72-3c-.43-.42-.88-.83-1.34-1.22a24.56,24.56,0,0,0-1.93-1.61s-.06-.19,0-.15Z" style="fill:#37474f"></path><path d="M418,342.36a1.63,1.63,0,1,0,2.27.4A1.62,1.62,0,0,0,418,342.36Z" style="fill:#BA68C8"></path><path d="M412.28,348.06a1.63,1.63,0,1,0,2.27.4A1.63,1.63,0,0,0,412.28,348.06Z" style="fill:#BA68C8"></path><path d="M412.29,340a1.35,1.35,0,0,0,1.55,2.22,1.35,1.35,0,1,0-1.55-2.22Z" style="fill:#BA68C8"></path><path d="M406.5,340.71a1.35,1.35,0,1,0,1.88.34A1.35,1.35,0,0,0,406.5,340.71Z" style="fill:#BA68C8"></path><path d="M406.6,335.38a1.35,1.35,0,1,0,1.88.33A1.35,1.35,0,0,0,406.6,335.38Z" style="fill:#BA68C8"></path></g><g id="freepik--Flower--inject-15"><path d="M438.15,375.34l.09,0a.31.31,0,0,0,.09-.43c-6.78-10.4-6.23-24,1.45-35.5a.33.33,0,0,0-.09-.44.31.31,0,0,0-.44.09c-7.81,11.71-8.36,25.58-1.44,36.19A.32.32,0,0,0,438.15,375.34Z" style="fill:#455a64"></path><path d="M433.23,357.23a.32.32,0,0,1-.19-.31c.33-3.9,3.7-11.16,9.28-11.73,3.53-.36,4.53,1.52,4.79,2.35a4.15,4.15,0,0,1-1.93,4.7,15.18,15.18,0,0,1-4.16,1.37c-2.5.57-5.09,1.16-7.44,3.55a.31.31,0,0,1-.14.09A.3.3,0,0,1,433.23,357.23Zm7.65-4.23a15,15,0,0,0,4-1.3,3.52,3.52,0,0,0,1.64-4c-.46-1.44-2-2.13-4.12-1.91-5.13.53-8,6.88-8.6,10.28a12.88,12.88,0,0,1,5.5-2.72C439.83,353.24,440.36,353.12,440.88,353Z" style="fill:#455a64"></path><path d="M433.44,357.25a.32.32,0,0,0,.22-.23c.78-3.08,5.33-7.43,9.54-8.14a.33.33,0,0,0,.26-.36.32.32,0,0,0-.36-.26c-4.05.67-9.13,5-10.05,8.61a.31.31,0,0,0,.23.38Z" style="fill:#455a64"></path><path d="M433.75,353.41a.32.32,0,0,1-.29-.31c0-2.08-4-5.67-6.78-7.57a6.37,6.37,0,0,1-2.84-4.91,3.87,3.87,0,0,1,1.88-3.26,3.23,3.23,0,0,1,3.65.08c3,1.84,5.66,8,4.72,15.7a.31.31,0,0,1-.24.26Zm-7.68-15.53a3.23,3.23,0,0,0-1.6,2.74A5.7,5.7,0,0,0,427,345c.24.17,5,3.53,6.57,6.45.4-6.7-1.95-11.87-4.57-13.49a2.87,2.87,0,0,0-2.21-.44A2.58,2.58,0,0,0,426.07,337.88Z" style="fill:#455a64"></path><path d="M433.85,353.4a.32.32,0,0,0,.24-.31c-.18-5.77-4.47-11.86-6.07-13.21a.32.32,0,0,0-.44,0,.31.31,0,0,0,0,.44c1.54,1.3,5.67,7.17,5.84,12.75a.31.31,0,0,0,.32.3Z" style="fill:#455a64"></path><path d="M450,339.27a22.4,22.4,0,0,1-9.75-1.24c-3-4.44-3.95-6.48-4.46-10.57a6.53,6.53,0,0,1,.41-2.91,1.55,1.55,0,0,1,1.87-.81,2.37,2.37,0,0,1,1,1.32q1,2.34,2.11,4.7a11.16,11.16,0,0,1,.15-5.68c.2-.67.61-1.44,1.32-1.45s1.23,1,1.35,1.83a19.83,19.83,0,0,1-.15,6.43,22,22,0,0,1,4.95-4.82,1.53,1.53,0,0,1,1.31-.38c.76.27.63,1.38.29,2.11a14.07,14.07,0,0,1-3.25,4.43,16.6,16.6,0,0,1,7.06-2.18,1.54,1.54,0,0,1,1.1.23c.57.52.07,1.46-.49,2a13.61,13.61,0,0,1-5.34,2.95c1.34,0,4.42.19,4.64,1.28S452.13,339.05,450,339.27Z" style="fill:#BA68C8"></path></g><g id="freepik--plant--inject-15"><path d="M468.57,384.37a16.6,16.6,0,0,0-1.94-1.33,19.72,19.72,0,0,0-2.68-1.53,17.05,17.05,0,0,0-6.58-1.59,12.68,12.68,0,0,0-6.67,1.5,29.77,29.77,0,0,0-5.35,3.92c-.22.19-.31-.13-.2-.29a14.5,14.5,0,0,1,12.24-6,17.19,17.19,0,0,1,7,1.69,13.23,13.23,0,0,1,2.51,1.61,13.47,13.47,0,0,1,1.74,1.88s0,.17-.05.11Z" style="fill:#37474f"></path><path d="M473.23,382.56a1.39,1.39,0,1,1-.86-1.76A1.38,1.38,0,0,1,473.23,382.56Z" style="fill:#BA68C8"></path><path d="M469.9,388.51a1.38,1.38,0,1,1-2.61-.9,1.38,1.38,0,1,1,2.61.9Z" style="fill:#BA68C8"></path><path d="M476.5,386.61a1.15,1.15,0,1,1-2.18-.75,1.15,1.15,0,0,1,2.18.75Z" style="fill:#BA68C8"></path><path d="M477.24,391.51a1.15,1.15,0,1,1-.71-1.46A1.15,1.15,0,0,1,477.24,391.51Z" style="fill:#BA68C8"></path><path d="M481.56,390.19a1.15,1.15,0,1,1-.71-1.47A1.15,1.15,0,0,1,481.56,390.19Z" style="fill:#BA68C8"></path></g><g id="freepik--Leaf--inject-15"><path d="M431.65,394.79c-3.57-1-11-1.75-15.23-9.44s-.76-22.78,2.59-26.42c2.34-2.55,18.33,5.6,21.92,14.36S441,393.86,431.65,394.79Z" style="fill:#BA68C8"></path><path d="M431.65,394.79c-3.57-1-11-1.75-15.23-9.44s-.76-22.78,2.59-26.42c2.34-2.55,18.33,5.6,21.92,14.36S441,393.86,431.65,394.79Z" style="fill:#fff;opacity:0.4"></path><path d="M434.21,393.12a.3.3,0,0,0,.19-.23c2-12.76-6.91-27.69-12.45-32.46a.3.3,0,0,0-.43,0,.31.31,0,0,0,0,.43c5.44,4.7,14.19,19.37,12.24,31.9a.31.31,0,0,0,.26.35A.29.29,0,0,0,434.21,393.12Z" style="fill:#fff"></path><path d="M428.25,369.09a.35.35,0,0,0,.2-.28.3.3,0,0,0-.3-.31,17.71,17.71,0,0,1-8.67-2.82.3.3,0,0,0-.42.07.31.31,0,0,0,.07.43,18.39,18.39,0,0,0,9,2.93Z" style="fill:#fff"></path><path d="M430,372.19a.27.27,0,0,0,.12-.09,8.29,8.29,0,0,0,2.31-5.56.3.3,0,0,0-.3-.31.32.32,0,0,0-.31.31,7.73,7.73,0,0,1-2.17,5.17.3.3,0,0,0,0,.43A.3.3,0,0,0,430,372.19Z" style="fill:#fff"></path><path d="M431.48,375.54a.32.32,0,0,0,.19-.31.31.31,0,0,0-.34-.28c-4.15.43-9.79-.1-13.15-2.84a.31.31,0,0,0-.39.47c3,2.43,8.07,3.55,13.6,3Z" style="fill:#fff"></path><path d="M433.31,380.61a.21.21,0,0,0,.11-.08,21.69,21.69,0,0,0,4.75-7.87.3.3,0,0,0-.2-.38.31.31,0,0,0-.39.2,21.13,21.13,0,0,1-4.61,7.65.3.3,0,0,0,.34.48Z" style="fill:#fff"></path><path d="M434,383.9a.3.3,0,0,0,.19-.32.29.29,0,0,0-.33-.27,25,25,0,0,1-15.18-2.85.3.3,0,0,0-.42.12.31.31,0,0,0,.12.41,25.93,25.93,0,0,0,15.54,2.93Z" style="fill:#fff"></path></g><g id="freepik--flower--inject-15"><path d="M450.32,362.28a34.9,34.9,0,0,1-.49,7.64,31.14,31.14,0,0,1-2.35,7.12,30.23,30.23,0,0,1-7.65,10.29,19.47,19.47,0,0,1-3.2,2.19,8.52,8.52,0,0,1-3.8,1.29c-.25,0-.31-.29-.16-.46a8.57,8.57,0,0,1,2.59-1.37,18.13,18.13,0,0,0,2.68-1.61,22.45,22.45,0,0,0,4.24-4.08,34.79,34.79,0,0,0,6.6-12.49,31.29,31.29,0,0,0,1.37-8.53c0-.16.17-.15.17,0Z" style="fill:#37474f"></path><path d="M448.66,372.62a21.13,21.13,0,0,0,11.18-6.28c5.18-5.43,6.37-9.44,4.8-12.06a4,4,0,0,0-4.2-2s-.6-3.41-2.51-3.78-4.56,1.85-4.56,1.85-.49-1.89-1.19-2.37-6.92,1.48-8.3,5.64S443.26,368.34,448.66,372.62Z" style="fill:#BA68C8"></path><path d="M448.66,372.62a21.13,21.13,0,0,0,11.18-6.28c5.18-5.43,6.37-9.44,4.8-12.06a4,4,0,0,0-4.2-2s-.6-3.41-2.51-3.78-4.56,1.85-4.56,1.85-.49-1.89-1.19-2.37-6.92,1.48-8.3,5.64S443.26,368.34,448.66,372.62Z" style="opacity:0.25"></path><path d="M447.69,372.11a25.4,25.4,0,0,1-6.43-9.95c-2.37-6.49-1.92-9.52.75-11.63s4.6-.59,3.94,3.05c0,0,1.64-.77,2.58-.06a3.77,3.77,0,0,1,1.25,3.13C449.58,357.31,445.12,365.48,447.69,372.11Z" style="fill:#BA68C8"></path><path d="M447.69,372.11a25.4,25.4,0,0,1-6.43-9.95c-2.37-6.49-1.92-9.52.75-11.63s4.6-.59,3.94,3.05c0,0,1.64-.77,2.58-.06a3.77,3.77,0,0,1,1.25,3.13C449.58,357.31,445.12,365.48,447.69,372.11Z" style="opacity:0.15"></path><path d="M451.07,372.08a22.44,22.44,0,0,0,9.41-1.53c4.32-1.91,7.25-4.71,4.82-6.33,0,0,1.6-1.07,1.07-2.56s-5.51-2.35-8.8-.16S451.07,372.08,451.07,372.08Z" style="fill:#BA68C8"></path><path d="M451.07,372.08a22.44,22.44,0,0,0,9.41-1.53c4.32-1.91,7.25-4.71,4.82-6.33,0,0,1.6-1.07,1.07-2.56s-5.51-2.35-8.8-.16S451.07,372.08,451.07,372.08Z" style="opacity:0.15"></path><path d="M447.69,372.11c-2.26-3-2.74-8.43-2.12-11.55.74-3.78,3.64-7.37,6.67-7.81s5.44,2,5.44,2,2.55-.79,4.21,2.15c1.14,2-1.79,7.17-5,10.65S450.07,372.38,447.69,372.11Z" style="fill:#BA68C8"></path><path d="M447.23,376.35a9,9,0,0,0-2.17-4.82c-1.93-2.35-3.42-4.61-2-5.8s3.56,3.38,3.56,3.38,1.37-3.95,3.34-3.45c2.55.66.59,5.36.59,5.36s3.79-2.16,4.76-.68-.52,2.83-2.73,3.52S447.88,375.44,447.23,376.35Z" style="fill:#37474f"></path><path d="M431,395.42s1.1,4.06,9.06,3.73c8.6-.36,13.85-10.64,22.55-8,0,0-2.49-9-17.75-8.37C430.39,383.34,431,395.42,431,395.42Z" style="fill:#BA68C8"></path><path d="M440.1,399.15c-8,.33-9.06-3.73-9.06-3.73,6.77-12.64,28.91-9.44,31.61-4.31C454,388.51,448.7,398.79,440.1,399.15Z" style="opacity:0.15"></path></g><path id="freepik--Heart--inject-15" d="M465.12,324a3.08,3.08,0,0,1,1.7-1.43h0a3.13,3.13,0,0,1,2.56.24c1.39.78,1.69,2.95,1.1,4.39.93-1.25,2.94-2.13,4.33-1.34a3.12,3.12,0,0,1,1.54,2.06h0a3.17,3.17,0,0,1-.33,2.2c-1.22,2.16-3.89,2.23-6.37,2.71l-2.61.49-.94-2.48C465.24,328.44,463.9,326.11,465.12,324Z" style="fill:#BA68C8;opacity:0.30000000000000004"></path><path id="freepik--heart--inject-15" d="M415.05,324.18a2.12,2.12,0,0,1,0-1.49h0a2.1,2.1,0,0,1,1.24-1.2,2.45,2.45,0,0,1,2.71,1.35,2.48,2.48,0,0,1,1.2-2.79,2.14,2.14,0,0,1,1.72.12h0a2.07,2.07,0,0,1,1,1.12c.57,1.56-.56,2.95-1.39,4.42l-.89,1.54-1.67-.6C417.39,326.07,415.63,325.74,415.05,324.18Z" style="fill:#BA68C8;opacity:0.30000000000000004"></path><path id="freepik--heart--inject-15" d="M479.66,360a2.11,2.11,0,0,1,1.47.26h0a2,2,0,0,1,1,1.41,2.47,2.47,0,0,1-1.77,2.46,2.47,2.47,0,0,1,2.55,1.64,2.13,2.13,0,0,1-.4,1.67h0a2.08,2.08,0,0,1-1.27.78c-1.63.3-2.82-1-4.13-2.1L475.72,365l.87-1.55C477.42,361.94,478,360.26,479.66,360Z" style="fill:#BA68C8;opacity:0.30000000000000004"></path></g><g id="freepik--plants--inject-15"><g id="freepik--plant--inject-15"><path d="M84.1,346.82a20.37,20.37,0,0,0-2.85,1.5,18.34,18.34,0,0,0-2.53,2.12,23.64,23.64,0,0,0-4,5.41,16.58,16.58,0,0,0-2,11.93,16.43,16.43,0,0,0,3.13,7.16c.21.26.4-.07.3-.29C74,370,72.58,364.43,74.39,359.4a24.81,24.81,0,0,1,3.74-6.58,26.88,26.88,0,0,1,2.72-3c.43-.42.88-.83,1.34-1.22A24.56,24.56,0,0,1,84.12,347s.06-.19,0-.15Z" style="fill:#37474f"></path><path d="M82.05,342.36a1.63,1.63,0,1,1-2.27.4A1.62,1.62,0,0,1,82.05,342.36Z" style="fill:#BA68C8"></path><path d="M87.72,348.06a1.63,1.63,0,1,1-2.27.4A1.63,1.63,0,0,1,87.72,348.06Z" style="fill:#BA68C8"></path><path d="M87.71,340a1.35,1.35,0,0,1-1.55,2.22A1.35,1.35,0,1,1,87.71,340Z" style="fill:#BA68C8"></path><path d="M93.5,340.71a1.35,1.35,0,1,1-1.88.34A1.35,1.35,0,0,1,93.5,340.71Z" style="fill:#BA68C8"></path><path d="M93.4,335.38a1.35,1.35,0,1,1-1.88.33A1.35,1.35,0,0,1,93.4,335.38Z" style="fill:#BA68C8"></path></g><g id="freepik--flower--inject-15"><path d="M61.85,375.34l-.09,0a.31.31,0,0,1-.09-.43c6.78-10.4,6.23-24-1.45-35.5a.33.33,0,0,1,.09-.44.31.31,0,0,1,.44.09c7.81,11.71,8.36,25.58,1.44,36.19A.32.32,0,0,1,61.85,375.34Z" style="fill:#455a64"></path><path d="M66.56,357.25a.31.31,0,0,1-.14-.09c-2.35-2.39-4.94-3-7.44-3.55a15.18,15.18,0,0,1-4.16-1.37,4.15,4.15,0,0,1-1.93-4.7c.26-.83,1.26-2.71,4.79-2.35,5.58.57,8.95,7.83,9.28,11.73a.32.32,0,0,1-.19.31A.3.3,0,0,1,66.56,357.25Zm-5.85-3.87a12.88,12.88,0,0,1,5.5,2.72c-.64-3.4-3.47-9.75-8.6-10.28-2.16-.22-3.66.47-4.12,1.91a3.52,3.52,0,0,0,1.64,4,15,15,0,0,0,4,1.3C59.64,353.12,60.17,353.24,60.71,353.38Z" style="fill:#455a64"></path><path d="M66.56,357.25a.32.32,0,0,1-.22-.23c-.78-3.08-5.33-7.43-9.54-8.14a.33.33,0,0,1-.26-.36.32.32,0,0,1,.36-.26c4.05.67,9.13,5,10.05,8.61a.31.31,0,0,1-.23.38Z" style="fill:#455a64"></path><path d="M66.15,353.4a.31.31,0,0,1-.24-.26c-.94-7.73,1.73-13.86,4.72-15.7a3.23,3.23,0,0,1,3.65-.08,3.87,3.87,0,0,1,1.88,3.26,6.37,6.37,0,0,1-2.84,4.91c-2.74,1.9-6.8,5.49-6.78,7.57a.32.32,0,0,1-.29.31Zm7-15.87A2.87,2.87,0,0,0,71,338c-2.62,1.62-5,6.79-4.57,13.49,1.55-2.92,6.33-6.28,6.57-6.45a5.7,5.7,0,0,0,2.57-4.39,3.23,3.23,0,0,0-1.6-2.74A2.58,2.58,0,0,0,73.17,337.53Z" style="fill:#455a64"></path><path d="M66.15,353.4a.32.32,0,0,1-.24-.31c.18-5.77,4.47-11.86,6.07-13.21a.32.32,0,0,1,.44,0,.31.31,0,0,1,0,.44c-1.54,1.3-5.67,7.17-5.84,12.75a.31.31,0,0,1-.32.3Z" style="fill:#455a64"></path><path d="M50,339.27A22.4,22.4,0,0,0,59.75,338c3-4.44,4-6.48,4.46-10.57a6.53,6.53,0,0,0-.41-2.91,1.55,1.55,0,0,0-1.87-.81,2.37,2.37,0,0,0-1,1.32q-1,2.34-2.11,4.7a11.16,11.16,0,0,0-.15-5.68c-.2-.67-.61-1.44-1.32-1.45s-1.23,1-1.35,1.83a19.83,19.83,0,0,0,.15,6.43,22,22,0,0,0-4.95-4.82,1.53,1.53,0,0,0-1.31-.38c-.76.27-.63,1.38-.29,2.11a14.07,14.07,0,0,0,3.25,4.43,16.6,16.6,0,0,0-7.06-2.18,1.54,1.54,0,0,0-1.1.23c-.57.52-.07,1.46.49,2a13.61,13.61,0,0,0,5.34,2.95c-1.34,0-4.42.19-4.64,1.28S47.87,339.05,50,339.27Z" style="fill:#BA68C8"></path></g><g id="freepik--plant--inject-15"><path d="M31.43,384.37A16.6,16.6,0,0,1,33.37,383a19.72,19.72,0,0,1,2.68-1.53,17.05,17.05,0,0,1,6.58-1.59,12.68,12.68,0,0,1,6.67,1.5,29.77,29.77,0,0,1,5.35,3.92c.22.19.31-.13.2-.29a14.5,14.5,0,0,0-12.24-6,17.19,17.19,0,0,0-7,1.69,13.23,13.23,0,0,0-2.51,1.61,13.47,13.47,0,0,0-1.74,1.88s0,.17.05.11Z" style="fill:#37474f"></path><path d="M26.77,382.56a1.39,1.39,0,1,0,.86-1.76A1.38,1.38,0,0,0,26.77,382.56Z" style="fill:#BA68C8"></path><path d="M30.1,388.51a1.38,1.38,0,1,0,2.61-.9,1.38,1.38,0,1,0-2.61.9Z" style="fill:#BA68C8"></path><path d="M23.5,386.61a1.15,1.15,0,1,0,2.18-.75,1.15,1.15,0,0,0-2.18.75Z" style="fill:#BA68C8"></path><path d="M22.76,391.51a1.15,1.15,0,1,0,.71-1.46A1.15,1.15,0,0,0,22.76,391.51Z" style="fill:#BA68C8"></path><path d="M18.44,390.19a1.15,1.15,0,1,0,.71-1.47A1.15,1.15,0,0,0,18.44,390.19Z" style="fill:#BA68C8"></path></g><g id="freepik--leaf--inject-15"><path d="M68.35,394.79c3.57-1,11-1.75,15.23-9.44s.76-22.78-2.59-26.42c-2.34-2.55-18.33,5.6-21.92,14.36S59,393.86,68.35,394.79Z" style="fill:#BA68C8"></path><path d="M68.35,394.79c3.57-1,11-1.75,15.23-9.44s.76-22.78-2.59-26.42c-2.34-2.55-18.33,5.6-21.92,14.36S59,393.86,68.35,394.79Z" style="fill:#fff;opacity:0.4"></path><path d="M65.79,393.12a.3.3,0,0,1-.19-.23c-2-12.76,6.91-27.69,12.45-32.46a.3.3,0,0,1,.43,0,.31.31,0,0,1,0,.43c-5.44,4.7-14.19,19.37-12.24,31.9a.31.31,0,0,1-.26.35A.29.29,0,0,1,65.79,393.12Z" style="fill:#fff"></path><path d="M71.75,369.09a.35.35,0,0,1-.2-.28.3.3,0,0,1,.3-.31,17.71,17.71,0,0,0,8.67-2.82.3.3,0,0,1,.42.07.31.31,0,0,1-.07.43,18.39,18.39,0,0,1-9,2.93Z" style="fill:#fff"></path><path d="M70.05,372.19a.27.27,0,0,1-.12-.09,8.29,8.29,0,0,1-2.31-5.56.3.3,0,0,1,.3-.31.32.32,0,0,1,.31.31,7.73,7.73,0,0,0,2.17,5.17.3.3,0,0,1,0,.43A.3.3,0,0,1,70.05,372.19Z" style="fill:#fff"></path><path d="M68.52,375.54a.32.32,0,0,1-.19-.31.31.31,0,0,1,.34-.28c4.15.43,9.79-.1,13.15-2.84a.31.31,0,0,1,.39.47c-3,2.43-8.07,3.55-13.6,3Z" style="fill:#fff"></path><path d="M66.69,380.61a.21.21,0,0,1-.11-.08,21.69,21.69,0,0,1-4.75-7.87.3.3,0,0,1,.2-.38.31.31,0,0,1,.39.2A21.13,21.13,0,0,0,67,380.13a.3.3,0,0,1-.34.48Z" style="fill:#fff"></path><path d="M66,383.9a.3.3,0,0,1-.19-.32.29.29,0,0,1,.33-.27,25,25,0,0,0,15.18-2.85.3.3,0,0,1,.42.12.31.31,0,0,1-.12.41,25.93,25.93,0,0,1-15.54,2.93Z" style="fill:#fff"></path></g><g id="freepik--flower--inject-15"><path d="M49.68,362.28a34.9,34.9,0,0,0,.49,7.64A31.14,31.14,0,0,0,52.52,377a30.23,30.23,0,0,0,7.65,10.29,19.47,19.47,0,0,0,3.2,2.19,8.52,8.52,0,0,0,3.8,1.29c.25,0,.31-.29.16-.46A8.57,8.57,0,0,0,64.74,389a18.13,18.13,0,0,1-2.68-1.61,22.45,22.45,0,0,1-4.24-4.08,34.79,34.79,0,0,1-6.6-12.49,31.29,31.29,0,0,1-1.37-8.53c0-.16-.17-.15-.17,0Z" style="fill:#37474f"></path><path d="M51.34,372.62a21.13,21.13,0,0,1-11.18-6.28c-5.18-5.43-6.37-9.44-4.8-12.06a4,4,0,0,1,4.2-2s.6-3.41,2.51-3.78,4.56,1.85,4.56,1.85.49-1.89,1.19-2.37,6.92,1.48,8.3,5.64S56.74,368.34,51.34,372.62Z" style="fill:#BA68C8"></path><path d="M51.34,372.62a21.13,21.13,0,0,1-11.18-6.28c-5.18-5.43-6.37-9.44-4.8-12.06a4,4,0,0,1,4.2-2s.6-3.41,2.51-3.78,4.56,1.85,4.56,1.85.49-1.89,1.19-2.37,6.92,1.48,8.3,5.64S56.74,368.34,51.34,372.62Z" style="opacity:0.25"></path><path d="M52.31,372.11a25.4,25.4,0,0,0,6.43-9.95c2.37-6.49,1.92-9.52-.75-11.63s-4.6-.59-3.94,3.05c0,0-1.64-.77-2.58-.06a3.77,3.77,0,0,0-1.25,3.13C50.42,357.31,54.88,365.48,52.31,372.11Z" style="fill:#BA68C8"></path><path d="M52.31,372.11a25.4,25.4,0,0,0,6.43-9.95c2.37-6.49,1.92-9.52-.75-11.63s-4.6-.59-3.94,3.05c0,0-1.64-.77-2.58-.06a3.77,3.77,0,0,0-1.25,3.13C50.42,357.31,54.88,365.48,52.31,372.11Z" style="opacity:0.15"></path><path d="M48.93,372.08a22.44,22.44,0,0,1-9.41-1.53c-4.32-1.91-7.25-4.71-4.82-6.33,0,0-1.6-1.07-1.07-2.56s5.51-2.35,8.8-.16S48.93,372.08,48.93,372.08Z" style="fill:#BA68C8"></path><path d="M48.93,372.08a22.44,22.44,0,0,1-9.41-1.53c-4.32-1.91-7.25-4.71-4.82-6.33,0,0-1.6-1.07-1.07-2.56s5.51-2.35,8.8-.16S48.93,372.08,48.93,372.08Z" style="opacity:0.15"></path><path d="M52.31,372.11c2.26-3,2.74-8.43,2.12-11.55-.74-3.78-3.64-7.37-6.67-7.81s-5.44,2-5.44,2-2.55-.79-4.21,2.15c-1.14,2,1.79,7.17,5,10.65S49.93,372.38,52.31,372.11Z" style="fill:#BA68C8"></path><path d="M52.77,376.35a9,9,0,0,1,2.17-4.82c1.93-2.35,3.42-4.61,2-5.8s-3.56,3.38-3.56,3.38S52,365.16,50,365.66c-2.56.66-.6,5.36-.6,5.36s-3.79-2.16-4.76-.68.52,2.83,2.73,3.52S52.12,375.44,52.77,376.35Z" style="fill:#37474f"></path><path d="M69,395.42s-1.1,4.06-9.06,3.73c-8.6-.36-13.85-10.64-22.55-8,0,0,2.49-9,17.75-8.37C69.61,383.34,69,395.42,69,395.42Z" style="fill:#BA68C8"></path><path d="M59.9,399.15c8,.33,9.06-3.73,9.06-3.73-6.77-12.64-28.91-9.44-31.61-4.31C46.05,388.51,51.3,398.79,59.9,399.15Z" style="opacity:0.15"></path></g><path id="freepik--heart--inject-15" d="M34.88,324a3.08,3.08,0,0,0-1.7-1.43h0a3.13,3.13,0,0,0-2.56.24c-1.39.78-1.69,2.95-1.1,4.39-.93-1.25-2.94-2.13-4.33-1.34a3.12,3.12,0,0,0-1.54,2.06h0a3.17,3.17,0,0,0,.33,2.2c1.22,2.16,3.89,2.23,6.37,2.71l2.61.49.94-2.48C34.76,328.44,36.1,326.11,34.88,324Z" style="fill:#BA68C8;opacity:0.30000000000000004"></path><path id="freepik--heart--inject-15" d="M85,324.18a2.12,2.12,0,0,0,0-1.49h0a2.1,2.1,0,0,0-1.24-1.2A2.45,2.45,0,0,0,81,322.83a2.48,2.48,0,0,0-1.2-2.79,2.14,2.14,0,0,0-1.72.12h0a2.07,2.07,0,0,0-1,1.12c-.57,1.56.56,2.95,1.39,4.42l.89,1.54,1.67-.6C82.61,326.07,84.37,325.74,85,324.18Z" style="fill:#BA68C8;opacity:0.30000000000000004"></path><path id="freepik--heart--inject-15" d="M20.34,360a2.11,2.11,0,0,0-1.47.26h0a2,2,0,0,0-1,1.41,2.47,2.47,0,0,0,1.77,2.46,2.47,2.47,0,0,0-2.55,1.64,2.13,2.13,0,0,0,.4,1.67h0a2.08,2.08,0,0,0,1.27.78c1.63.3,2.82-1,4.13-2.1L24.28,365l-.87-1.55C22.58,361.94,22,360.26,20.34,360Z" style="fill:#BA68C8;opacity:0.30000000000000004"></path></g></g><g id="freepik--paper-planes--inject-15"><g id="freepik--paper-plane--inject-15"><path d="M453.7,233.72a9.36,9.36,0,0,1-.36,1h0a9.9,9.9,0,0,1-2.34,3.24,9.69,9.69,0,0,1-4.75-1.6c-1.35-1-1.55-2-1-3.12a2.9,2.9,0,0,1,.35-.49h0l.21-.19a2.35,2.35,0,0,1,3.05.13l.4.36.09-.53a2.26,2.26,0,0,1,3.16-1.83C453.63,231.15,454.16,232.12,453.7,233.72Z" style="fill:#BA68C8"></path><path d="M448.31,229.72a.3.3,0,0,1-.26-.13,4,4,0,0,1-.64-1.68.33.33,0,0,1,.27-.38.32.32,0,0,1,.38.27,3.26,3.26,0,0,0,.52,1.39.34.34,0,0,1-.07.47A.36.36,0,0,1,448.31,229.72Z" style="fill:#455a64"></path><path d="M467.84,229.79a8.28,8.28,0,0,1-2.47-.4.33.33,0,1,1,.2-.63,7.26,7.26,0,0,0,3.07.31.33.33,0,0,1,.07.66A8.1,8.1,0,0,1,467.84,229.79Zm3.86-1.15a.34.34,0,0,1-.28-.16.34.34,0,0,1,.1-.46,8.61,8.61,0,0,0,2.28-2.12.34.34,0,0,1,.47-.07.34.34,0,0,1,.06.47,9.45,9.45,0,0,1-2.45,2.29A.41.41,0,0,1,471.7,228.64Zm-9.13-.69a.35.35,0,0,1-.19-.06,8,8,0,0,1-2.3-2.45.32.32,0,0,1,.11-.45.33.33,0,0,1,.46.11,7.39,7.39,0,0,0,2.11,2.25.34.34,0,0,1,.09.46A.35.35,0,0,1,462.57,228Zm-14.7-3h-.07a.33.33,0,0,1-.25-.4,13.5,13.5,0,0,1,1.11-3.13.34.34,0,0,1,.45-.14.33.33,0,0,1,.15.44,12.5,12.5,0,0,0-1.07,3A.33.33,0,0,1,447.87,225Zm27.74-1.37a.23.23,0,0,1-.11,0,.33.33,0,0,1-.2-.42,9.52,9.52,0,0,0,.59-3.07.33.33,0,0,1,.33-.33h0a.34.34,0,0,1,.33.34,10,10,0,0,1-.63,3.29A.33.33,0,0,1,475.61,223.59Zm-16.33-1a.32.32,0,0,1-.32-.28,11.43,11.43,0,0,1-.16-2c0-.44,0-.89.06-1.34a.34.34,0,0,1,.36-.3.32.32,0,0,1,.3.36c0,.43,0,.86,0,1.28a11.3,11.3,0,0,0,.14,1.88.33.33,0,0,1-.27.38Zm-8.57-3.39a.31.31,0,0,1-.2-.07.32.32,0,0,1-.06-.46,19.71,19.71,0,0,1,2.28-2.4.34.34,0,0,1,.47,0,.33.33,0,0,1,0,.47,19,19,0,0,0-2.2,2.31A.32.32,0,0,1,450.71,219.17Zm24.75-1.88a.34.34,0,0,1-.29-.17,10.85,10.85,0,0,0-1.94-2.48.32.32,0,0,1,0-.46.32.32,0,0,1,.47,0,11.64,11.64,0,0,1,2.06,2.62.35.35,0,0,1-.29.5Zm-15.73-1.17h-.08a.34.34,0,0,1-.25-.4c.24-1,.55-2.05.93-3.15a.33.33,0,1,1,.62.21c-.37,1.08-.67,2.12-.9,3.09A.34.34,0,0,1,459.73,216.12Zm-4.19-1.26a.35.35,0,0,1-.28-.15.33.33,0,0,1,.09-.46c.59-.39,1.23-.77,1.89-1.13.32-.18.65-.35,1-.5a.32.32,0,0,1,.44.15.33.33,0,0,1-.15.44l-.95.49c-.64.35-1.26.72-1.83,1.1A.32.32,0,0,1,455.54,214.86Zm15.3-2a.42.42,0,0,1-.15,0,10.85,10.85,0,0,0-3-1.08.33.33,0,0,1-.25-.4.33.33,0,0,1,.39-.25A11.76,11.76,0,0,1,471,212.2a.34.34,0,0,1,.14.45A.35.35,0,0,1,470.84,212.83Zm-9.46-.77a.32.32,0,0,1-.32-.24.33.33,0,0,1,.22-.41,14.91,14.91,0,0,1,3.27-.58.32.32,0,0,1,.35.31.33.33,0,0,1-.31.35,14.16,14.16,0,0,0-3.12.56Zm.42-2.1a.28.28,0,0,1-.13,0,.33.33,0,0,1-.18-.43c.38-.91.8-1.86,1.32-3a.33.33,0,1,1,.6.28c-.52,1.12-.93,2.06-1.31,3A.33.33,0,0,1,461.8,210Zm2.64-5.94a.27.27,0,0,1-.12,0,.32.32,0,0,1-.19-.42,21.48,21.48,0,0,0,.91-3.06.33.33,0,0,1,.4-.26.32.32,0,0,1,.25.39,19.51,19.51,0,0,1-.94,3.16A.34.34,0,0,1,464.44,204Zm1.28-6.38a.3.3,0,0,1-.33-.29v-.08a14.3,14.3,0,0,0-.34-3.07.33.33,0,1,1,.65-.15,15.05,15.05,0,0,1,.35,3.22A.36.36,0,0,1,465.72,197.64Zm-1.41-6.25a.34.34,0,0,1-.3-.19,18.25,18.25,0,0,0-.94-1.72,10.54,10.54,0,0,0-.71-1,.34.34,0,0,1,.05-.47.34.34,0,0,1,.47.06,11.82,11.82,0,0,1,.75,1,16.59,16.59,0,0,1,1,1.79.32.32,0,0,1-.16.44A.32.32,0,0,1,464.31,191.39Zm-4.05-5a.33.33,0,0,1-.19-.06,14.65,14.65,0,0,0-2.76-1.58.33.33,0,1,1,.27-.6,15.34,15.34,0,0,1,2.88,1.64.34.34,0,0,1,.07.47A.32.32,0,0,1,460.26,186.4Zm-5.91-2.58h-.06a14.59,14.59,0,0,0-2.94-.3h-.22v-.67h.23a15.08,15.08,0,0,1,3.07.31.33.33,0,0,1-.07.65Z" style="fill:#455a64"></path><path d="M446.23,184.41a.33.33,0,0,1-.32-.22.33.33,0,0,1,.21-.42,15.77,15.77,0,0,1,1.62-.48.33.33,0,0,1,.4.24.33.33,0,0,1-.25.4c-.52.13-1,.28-1.55.46Z" style="fill:#455a64"></path><g id="freepik--paper-plane--inject-15"><polygon points="441.89 187.9 436.46 185.04 437.65 179.98 441.89 187.9" style="fill:#BA68C8"></polygon><path d="M437.65,180,436.46,185l1.81,1C439,184.88,437.46,181.14,437.65,180Z" style="opacity:0.2"></path><path d="M437.65,180,404,166.75s4.72,10.06,10.23,15.57,11.06,8,16.87,6.79C438.08,187.62,437.65,180,437.65,180Z" style="fill:#BA68C8"></path><path d="M437.65,180,404,166.75s4.72,10.06,10.23,15.57,11.06,8,16.87,6.79C438.08,187.62,437.65,180,437.65,180Z" style="fill:#fff;opacity:0.30000000000000004"></path><path d="M404,166.75l37.93,11.33s15.05-2.31,7.14-7.48C437.56,163.7,404,166.75,404,166.75Z" style="fill:#BA68C8"></path><path d="M404,166.75l37.93,11.33s15.05-2.31,7.14-7.48C437.56,163.7,404,166.75,404,166.75Z" style="fill:#fff;opacity:0.30000000000000004"></path><polygon points="441.89 178.09 441.89 187.9 437.65 179.98 403.96 166.75 441.89 178.09" style="fill:#BA68C8"></polygon><polygon points="441.89 178.09 441.89 187.9 437.65 179.98 403.96 166.75 441.89 178.09" style="opacity:0.2"></polygon></g></g><g id="freepik--paper-plane--inject-15"><path d="M91.82,52.13a7,7,0,0,1-.85.57h0A10,10,0,0,1,87.17,54a9.67,9.67,0,0,1-2.92-4.07c-.54-1.57-.06-2.57,1-3.11a2.39,2.39,0,0,1,.57-.19h0l.28,0a2.35,2.35,0,0,1,2.4,1.9l.12.52L89,48.6a2.35,2.35,0,0,1,3-.29,2.31,2.31,0,0,1,.59.65C93.26,50,93.13,51.1,91.82,52.13Z" style="fill:#BA68C8"></path><path d="M85.33,57.57a.34.34,0,0,1-.26-.12.34.34,0,0,1,.05-.47,3.35,3.35,0,0,0,1-1.14.33.33,0,0,1,.44-.16.33.33,0,0,1,.17.43,4.09,4.09,0,0,1-1.15,1.39A.33.33,0,0,1,85.33,57.57Z" style="fill:#455a64"></path><path d="M44.82,76.68a.33.33,0,0,1-.28-.16,16.09,16.09,0,0,1-1.37-3,.34.34,0,0,1,.21-.42.32.32,0,0,1,.42.21,14.74,14.74,0,0,0,1.31,2.89.33.33,0,0,1-.12.45A.26.26,0,0,1,44.82,76.68Zm-2-6.13a.32.32,0,0,1-.33-.29,14.66,14.66,0,0,1-.09-1.62,13.62,13.62,0,0,1,.1-1.7.34.34,0,0,1,.37-.29.34.34,0,0,1,.29.37,14.38,14.38,0,0,0-.1,1.62,13.56,13.56,0,0,0,.09,1.55.34.34,0,0,1-.3.36Zm.78-6.39-.12,0a.33.33,0,0,1-.19-.43,12.16,12.16,0,0,1,.53-1.15,20.11,20.11,0,0,1,1.08-1.76.33.33,0,1,1,.54.39,18.32,18.32,0,0,0-1,1.68A8.15,8.15,0,0,0,43.9,64,.34.34,0,0,1,43.59,64.16Zm35.67-4.55a.33.33,0,0,1-.33-.31.33.33,0,0,1,.32-.35,12.5,12.5,0,0,0,3.11-.55.34.34,0,0,1,.2.64,13.23,13.23,0,0,1-3.28.57ZM76,59.44h0a18.27,18.27,0,0,1-3.2-.8.33.33,0,0,1-.21-.42A.34.34,0,0,1,73,58a18,18,0,0,0,3.1.78.32.32,0,0,1,.27.38A.33.33,0,0,1,76,59.44Zm-28.71-.55a.33.33,0,0,1-.23-.58,15.38,15.38,0,0,1,2.7-1.93.33.33,0,1,1,.32.58,13.54,13.54,0,0,0-2.57,1.85A.37.37,0,0,1,47.31,58.89Zm22.58-1.51a.42.42,0,0,1-.15,0c-.63-.32-1.27-.68-1.91-1.08-.32-.2-.63-.4-.92-.6a.33.33,0,0,1,.37-.55c.29.2.59.4.9.59.62.38,1.25.73,1.86,1a.32.32,0,0,1,.14.44A.31.31,0,0,1,69.89,57.38Zm-17-1.66a.34.34,0,0,1-.32-.23.33.33,0,0,1,.22-.42A20.65,20.65,0,0,1,56,54.33a.33.33,0,1,1,.1.66A19.64,19.64,0,0,0,53,55.7Zm6.4-1a.34.34,0,0,1-.34-.3.33.33,0,0,1,.31-.36c1.19-.1,2.25-.21,3.22-.33a.33.33,0,0,1,.37.29.34.34,0,0,1-.29.37c-1,.12-2,.23-3.25.33Zm6.45-.83a.33.33,0,0,1-.33-.27.32.32,0,0,1,.26-.38c1.13-.22,2.19-.47,3.14-.74a.33.33,0,1,1,.18.63,32.62,32.62,0,0,1-3.19.76Zm-1.2-.17a.32.32,0,0,1-.23-.1A15.12,15.12,0,0,1,62.22,51a.33.33,0,0,1,.1-.46.32.32,0,0,1,.45.09,14.77,14.77,0,0,0,2,2.44.32.32,0,0,1,0,.47A.35.35,0,0,1,64.57,53.68ZM72,52a.34.34,0,0,1-.3-.19.33.33,0,0,1,.16-.44,12.74,12.74,0,0,0,2.7-1.64.33.33,0,0,1,.42.52A13.64,13.64,0,0,1,72.12,52,.35.35,0,0,1,72,52ZM61.1,48.27a.34.34,0,0,1-.32-.23,11.87,11.87,0,0,1-.55-3.29.33.33,0,0,1,.32-.34h0a.32.32,0,0,1,.33.32,11.18,11.18,0,0,0,.52,3.1.33.33,0,0,1-.21.42Zm15.76-.41a.35.35,0,0,1-.17,0,.33.33,0,0,1-.12-.45,7.53,7.53,0,0,0,.9-2.95.31.31,0,0,1,.36-.3.33.33,0,0,1,.3.36,8.13,8.13,0,0,1-1,3.21A.34.34,0,0,1,76.86,47.86Zm-15.93-6h-.08a.32.32,0,0,1-.24-.4,11.52,11.52,0,0,1,1.26-3.09.33.33,0,1,1,.57.35,10.43,10.43,0,0,0-1.19,2.9A.33.33,0,0,1,60.93,41.85Zm16.7-.3a.33.33,0,0,1-.32-.26,7.3,7.3,0,0,0-1.24-2.82.33.33,0,1,1,.53-.4A7.81,7.81,0,0,1,78,41.15a.32.32,0,0,1-.25.39ZM64.49,36.66a.35.35,0,0,1-.29-.18.33.33,0,0,1,.13-.45A10.23,10.23,0,0,1,67.5,35a.32.32,0,0,1,.38.27.34.34,0,0,1-.27.39,9.48,9.48,0,0,0-3,1A.3.3,0,0,1,64.49,36.66Zm9.39-.15a.26.26,0,0,1-.15,0,8.73,8.73,0,0,0-3-.92.35.35,0,0,1-.29-.38.33.33,0,0,1,.38-.28,9.36,9.36,0,0,1,3.2,1,.33.33,0,0,1,.13.45A.32.32,0,0,1,73.88,36.51Z" style="fill:#455a64"></path><path d="M48,80.51a.3.3,0,0,1-.22-.08c-.43-.37-.84-.77-1.22-1.17a.32.32,0,0,1,0-.47.33.33,0,0,1,.47,0,14,14,0,0,0,1.17,1.13.34.34,0,0,1,0,.47A.36.36,0,0,1,48,80.51Z" style="fill:#455a64"></path><g id="freepik--paper-plane--inject-15"><path d="M86.51,102.77,53.12,86.15a16.53,16.53,0,0,0-10.65-1.52c-3.23.67-6.53,2.39-7.6,6.5s3.24,8.72,14.79,10.36C65.67,103.76,86.51,102.77,86.51,102.77Z" style="fill:#BA68C8"></path><path d="M86.51,102.77,53.12,86.15a16.53,16.53,0,0,0-10.65-1.52c-3.23.67-6.53,2.39-7.6,6.5s3.24,8.72,14.79,10.36C65.67,103.76,86.51,102.77,86.51,102.77Z" style="fill:#fff;opacity:0.30000000000000004"></path><path d="M86.51,102.77,54.3,81.18s-3.15-7.41,5.92-8.52c4.1-.5,8.51,1.31,13.83,8.52C80.62,90.08,86.51,102.77,86.51,102.77Z" style="fill:#BA68C8"></path><path d="M86.51,102.77,54.3,81.18s-3.15-7.41,5.92-8.52c4.1-.5,8.51,1.31,13.83,8.52C80.62,90.08,86.51,102.77,86.51,102.77Z" style="fill:#fff;opacity:0.30000000000000004"></path><polygon points="54.3 81.18 54.92 87.06 86.51 102.77 54.3 81.18" style="fill:#BA68C8"></polygon><polygon points="54.3 81.18 54.92 87.06 86.51 102.77 54.3 81.18" style="opacity:0.2"></polygon></g></g></g></svg>