<svg xmlns="http://www.w3.org/2000/svg" viewBox="0 0 500 500"><g id="freepik--background-complete--inject-20"><path d="M381.06,157.62l-13.13.28-6.66.11c-2.22.05-4.46,0-6.69.06h-.45v-.45l-.05-11.19v-.5h.5l13.24.06c4.41,0,8.82.12,13.24.17h.27v.27c0,1.9-.08,3.79-.13,5.65Zm0,0-.14-5.65c-.05-1.87-.12-3.71-.13-5.54l.27.27c-4.42.05-8.83.16-13.24.17l-13.24.06.5-.5L355,157.62l-.44-.45c2.18,0,4.36,0,6.54.06l6.58.11Z" style="fill:#ebebeb"></path><path d="M366.29,171.73l-13.13.28-6.66.11c-2.22,0-4.46,0-6.69.06h-.45v-.45l-.05-11.19V160h.51l13.24.06c4.41,0,8.82.12,13.24.17h.27v.27c0,1.9-.09,3.79-.13,5.65Zm0,0-.15-5.65c0-1.87-.11-3.71-.13-5.54l.28.27c-4.42.05-8.83.16-13.24.17l-13.24.06.5-.5-.06,11.19-.44-.45c2.18,0,4.35,0,6.54.06l6.58.11Z" style="fill:#ebebeb"></path><path d="M395.83,171.73l-13.12.28-6.67.11c-2.22,0-4.46,0-6.69.06h-.44v-.45l0-11.19V160h.5l13.24.06c4.41,0,8.83.12,13.24.17h.28v.27c0,1.9-.08,3.79-.13,5.65Zm0,0-.14-5.65c-.05-1.87-.11-3.71-.13-5.54l.27.27c-4.41.05-8.83.16-13.24.17l-13.24.06.5-.5-.05,11.19-.45-.45c2.18,0,4.36,0,6.55.06l6.57.11Z" style="fill:#ebebeb"></path><path d="M446.27,56.29l-13.12.28-6.66.11c-2.23,0-4.47,0-6.7.06h-.44v-.45l-.06-11.19v-.5h.5l13.24.06c4.42,0,8.83.12,13.24.17h.28v.27c0,1.9-.09,3.79-.13,5.65Zm0,0-.14-5.65c0-1.87-.11-3.71-.13-5.54l.27.27c-4.41.05-8.82.16-13.24.17l-13.24.06.5-.5-.05,11.19-.45-.45c2.18,0,4.36,0,6.55.06l6.58.11Z" style="fill:#ebebeb"></path><path d="M461,70.4l-13.12.28-6.66.11c-2.23,0-4.46,0-6.7.06h-.44V70.4l-.06-11.19v-.5h.5l13.24.06c4.42,0,8.83.12,13.24.17h.28v.27c0,1.9-.09,3.79-.13,5.65Zm0,0-.14-5.65c0-1.87-.11-3.71-.13-5.54l.27.27c-4.41.05-8.82.16-13.24.17l-13.24.06.5-.5L435,70.4l-.45-.45c2.19,0,4.36,0,6.55.06l6.58.11Z" style="fill:#ebebeb"></path><path d="M65.44,56.3l-13.13.28-6.66.11c-2.23.05-4.46,0-6.69.06h-.45V56.3l0-11.19v-.5H39l13.24.07c4.41,0,8.82.11,13.24.16h.27v.27c0,1.9-.09,3.79-.13,5.66Zm0,0-.15-5.65c0-1.86-.11-3.71-.13-5.54l.28.28c-4.42,0-8.83.15-13.24.16L39,45.61l.49-.5L39.4,56.3,39,55.86c2.18,0,4.35,0,6.54,0l6.58.11Z" style="fill:#ebebeb"></path><path d="M227.22,316.51l13.13-.28,6.66-.11c2.22-.05,4.46,0,6.69-.06h.44v.45l0,11.19v.5h-.5l-13.24-.07c-4.41,0-8.83-.11-13.24-.16H227v-.27c0-1.9.08-3.79.13-5.66Zm0,0,.14,5.65c0,1.86.11,3.71.13,5.54l-.27-.28c4.41-.05,8.83-.15,13.24-.16l13.24-.06-.5.5.06-11.19.44.44c-2.18,0-4.36,0-6.54-.05l-6.58-.11Z" style="fill:#ebebeb"></path><path d="M242,302.4l13.13-.28,6.66-.11c2.22-.05,4.46,0,6.69-.06h.45v.45l.05,11.19v.5h-.5L255.23,314c-4.41,0-8.82-.11-13.24-.16h-.27v-.27c0-1.9.09-3.79.13-5.66Zm0,0,.14,5.65c.05,1.86.12,3.71.14,5.54l-.28-.28c4.42-.05,8.83-.15,13.24-.16l13.24-.06-.5.5L268,302.4l.44.44c-2.18,0-4.36,0-6.54,0l-6.58-.11Z" style="fill:#ebebeb"></path><path d="M252.54,125.05c-5.09,1.54-20-43.78-70.23-61S82,93.72,78.21,143.64s34.08,135,171.81,203.67c9.46,4.72,145.09-78.56,167-179.91,20.23-93.55-73.64-122.78-111-100.11C261.68,94.26,259.4,123,252.54,125.05Z" style="fill:#ebebeb"></path></g><g id="freepik--Shadow--inject-20"><ellipse cx="250" cy="424.93" rx="179.06" ry="31" style="fill:#ebebeb"></ellipse></g><g id="freepik--Floor--inject-20"><polygon points="32.78 351.76 87.08 351.52 141.39 351.43 250 351.26 358.61 351.43 412.92 351.52 467.22 351.76 412.92 352 358.61 352.09 250 352.26 141.39 352.09 87.08 352 32.78 351.76" style="fill:#263238"></polygon></g><g id="freepik--Plants--inject-20"><path d="M103.07,314.4c-5,.18-10.69.46-14.87-2.81-3.86-3-7.31-7.53-6.79-12.7.14-1.48.48-2.39,2.06-1.76,2.41,1,4.27,3.62,5.94,5.48a51.2,51.2,0,0,0,7,6.65c1.8,1.37,3.74,2.57,5.57,3.9q.34.24.69.51l.26.2h.14a.25.25,0,0,1,.21.11.19.19,0,0,1,0,.09A.27.27,0,0,1,103.07,314.4Z" style="fill:#455a64"></path><path d="M103.32,314.07c-4.44-.08-9.23.12-12.79-2.89a20.91,20.91,0,0,1-4.12-5c-.51-.84-2-3.33-1.41-4.32,1.15-1.79,6.44,5.52,7.17,6.22a21.73,21.73,0,0,0,9.81,5.09q.34.24.69.51a24.28,24.28,0,0,1-7.37-2.83c-3.15-1.88-4.9-4.66-7.37-7.25-.53-.56-2.14-2.45-2.74-1.28-.4.78,1.08,3.22,1.41,3.74a20.53,20.53,0,0,0,3.89,4.76c3.54,3.09,8.31,3,12.79,3.17A.19.19,0,0,1,103.32,314.07Z" style="fill:#fff"></path><path d="M105.85,317.48l-.12.58v0a.15.15,0,0,1-.09.11.21.21,0,0,1-.27-.11.13.13,0,0,1,0-.12s0,0,0-.08l.06-.17h0l0-.06c-.89-3.34-1.24-6.82-2.18-10.16s-2-6.32-2.67-9.58c-.41-2-1.84-12.36,2.7-11.08,2,.57,3.39,3.49,4.16,5.23a21.2,21.2,0,0,1,1.67,7.4C109.43,305.74,107.13,311.46,105.85,317.48Z" style="fill:#455a64"></path><path d="M107.31,304.65a24.89,24.89,0,0,0-.73-7c-.2-.8-1.19-4.59-2.47-4.49-.83.05-1,1.69-1,2.23-.29,2.29.45,4.64.9,6.87A95.19,95.19,0,0,1,105.63,316c0,.29-.08.59-.11.88s-.07.48-.1.73l0,.25c0,.06,0,.12,0,.19a.2.2,0,0,0,.26.1c0-.18.06-.37.08-.56,0,.16,0,.31,0,.46h0l.09-.48a.43.43,0,0,0,0-.11c0-.26,0-.52,0-.77A102.31,102.31,0,0,0,107.31,304.65Zm-1.54,10.4c-.12-2.7-.39-5.39-.77-8.07-.31-2.16-.71-4.3-1.17-6.43a22.38,22.38,0,0,1-.58-3.65c0-.94.1-4.41,1.89-2.26,1.29,1.57,1.61,4.89,1.76,6.81a35.1,35.1,0,0,1-.12,6.4C106.53,310.26,106.13,312.66,105.77,315.05Z" style="fill:#fff"></path><path d="M108.57,331.34h0a.82.82,0,0,1-.18,0c-4.62-.23-10.78.2-14.62-2.85-2.83-2.26-5.62-6.72-4.73-10.5,1-4.27,6.79.85,8.31,2.08a142,142,0,0,1,11.32,11l.06.09h0C108.78,331.28,108.68,331.32,108.57,331.34Z" style="fill:#455a64"></path><path d="M108.73,331.21c-.26-.17-.53-.33-.79-.51-3-1.91-6-3.95-8.84-6.13-.72-.55-5.92-5.18-6.71-3.53-.47,1,1.25,3,1.8,3.73a14.12,14.12,0,0,0,3.5,3.13c3.08,1.92,6.82,2.33,10.3,3.26l.49.12a.47.47,0,0,0,.09.06h0C108.68,331.31,108.77,331.28,108.73,331.21Zm-9.13-2.64a14.16,14.16,0,0,1-4-2.69c-.77-.73-3.51-3.5-2.78-4.63.39-.61.71-.29,1.44.07a8.64,8.64,0,0,1,1,.57c.78.51,1.49,1.1,2.21,1.67,1.27,1,2.55,2,3.87,3,2.14,1.56,4.35,3,6.61,4.43C105.16,330.1,102.24,329.76,99.6,328.57Z" style="fill:#fff"></path><path d="M117,321.83a27.36,27.36,0,0,1-7.91,13.82l-.09.05a.21.21,0,0,1-.24-.09.19.19,0,0,1,0-.26l.23-.24c.77-6.28,1.61-12.52,2.25-18.82.16-1.48,1.32-10.92,4.22-9.39,1.79,1,1.91,4.82,2.06,6.56A27.39,27.39,0,0,1,117,321.83Z" style="fill:#455a64"></path><path d="M115.33,313.41c-.15-.53-.43-1.07-1-.7-1.13.71-1.58,5.15-1.76,6.37-.78,5.07-2,9.94-3.2,14.9q-.15.61-.3,1.26l-.29.37a.21.21,0,0,0,.24.09.65.65,0,0,1,0-.13c.12-.16.26-.33.37-.5h0a32.45,32.45,0,0,0,4.58-8.91,30.71,30.71,0,0,0,1.34-6.21C115.56,318,115.92,315.31,115.33,313.41Zm-5.92,21.31-.17.25.15-.51a90.9,90.9,0,0,0,2.83-11.52c.34-2,.55-4,1-5.95.18-.83.58-3.2,1.27-3.58s.68.54.75,1.07c0,.38,0,1.08,0,1.44A31.82,31.82,0,0,1,109.41,334.72Z" style="fill:#fff"></path><path d="M109.86,349.19h-.92c0-.81,0-1.63-.06-2.44-.11-3.28-.24-6.56-.44-9.84-.11-1.87-.24-3.72-.43-5.56a1.37,1.37,0,0,1,0-.19c0-.15,0-.3,0-.46s0-.32-.07-.48a39.7,39.7,0,0,0-3.17-12.06c-.59-1.28-1.23-2.52-1.9-3.76l-.2-.35a.41.41,0,0,0,0-.09c-.06-.13-.13-.25-.2-.37s-.11-.18-.16-.28c-2.14-3.75-4.58-7.35-6.9-11q-1-1.56-2-3.12a1,1,0,0,1-.12-.19l-.15-.23c-2.91-4.59-5.77-9.23-8.8-13.74-.11-.16.16-.31.27-.15,2,3,4.16,5.94,6.25,8.9.29.39.56.79.84,1.18q.84,1.17,1.65,2.34c1.1,1.57,2.18,3.13,3.24,4.72a133.89,133.89,0,0,1,8.5,13.76c.18.36.35.72.53,1.09s.22.45.31.68l.36.79a42.67,42.67,0,0,1,3.11,14.55q0,.51.06,1.05c0,.15,0,.32,0,.48a2.28,2.28,0,0,0,0,.26c0,.11,0,.22,0,.34h0c0,.07,0,.16,0,.25,0,.29,0,.59,0,.9.13,3.28.22,6.56.29,9.83C109.78,347.09,109.82,348.14,109.86,349.19Z" style="fill:#455a64"></path><path d="M82.29,289.76c-2.52-3.4-5.77-10.42-2-14.06a4,4,0,0,1,5.28-.39c2,1.42,2.86,4.11,3.49,6.34,1.71,6,2.84,12,5,17.84,0,0,.18.5.23.63s-.15.17-.2.05l-.21-.57C89.79,296.68,85.29,293.79,82.29,289.76Z" style="fill:#455a64"></path><path d="M94,299.5l-.06-.1A41.43,41.43,0,0,1,91.6,295,84.86,84.86,0,0,1,88,285.26c-.41-1.28-2.22-7.52-4.46-5-.93,1-.8,2.9-.65,4.19a15.61,15.61,0,0,0,1.94,5.85c2,3.61,5.12,6.34,8.39,8.77l.45.34.09.15.07.11a.07.07,0,0,0,0,0,.14.14,0,0,0,.2-.08A.18.18,0,0,0,94,299.5Zm-1-.69a33.2,33.2,0,0,1-7.11-7.14,17.63,17.63,0,0,1-2.32-4.73,13.54,13.54,0,0,1-.5-2.29,9.3,9.3,0,0,1-.1-1.75c0-1.29.57-2.69,1.33-2.82.94-.17,1.25.37,1.87,1.45a9.81,9.81,0,0,1,.55,1.13,28.94,28.94,0,0,1,1,3c.53,1.65,1.06,3.3,1.66,4.93.39,1.1.83,2.2,1.29,3.27a44.28,44.28,0,0,0,2.78,5.39Z" style="fill:#fff"></path><path d="M399.44,299.26c-.42,3.37-1.06,6.71-1.74,10-.39,1.88-.8,3.76-1.18,5.66-.42,2.08-1,4.19-.47,6.29h0a1.46,1.46,0,0,1,0,.29s0,0,0,0a.25.25,0,0,1-.44-.07.57.57,0,0,0,0-.14l0-.05a8.82,8.82,0,0,1-.73-1.74,46,46,0,0,1-1.67-4.88,42,42,0,0,1-1.64-10.39,35.59,35.59,0,0,1,1-9.37c.6-2.44,1.46-6.09,3.28-8,1.66-1.69,3,1,3.51,2.39C400.35,292.48,399.83,296.07,399.44,299.26Z" style="fill:#455a64"></path><path d="M396.42,292.11c-1.23,0-2.12,4-2.56,5.69a34.38,34.38,0,0,0-1.05,8.26,44.29,44.29,0,0,0,2.55,14.69c.06.19.12.39.19.57l0,.05a.65.65,0,0,1,0,.13.25.25,0,0,0,.44.08c-.08-.41-.14-.82-.19-1.23s-.08-.75-.11-1.12a59.09,59.09,0,0,1,.76-12.16C397.11,302.38,398.05,292.12,396.42,292.11ZM395.54,320c.06.55.15,1.09.25,1.63-.13-.4-.25-.79-.37-1.18a49.24,49.24,0,0,1-2.32-13,35.33,35.33,0,0,1,.54-7.4,31.86,31.86,0,0,1,1-3.88c.17-.53,1.06-3.85,1.82-3.69.53.12.66,3.11.67,3.17,0,.6,0,1.2,0,1.8,0,1.24-.1,2.48-.2,3.71-.24,2.67-.62,5.33-.94,8A46.05,46.05,0,0,0,395.54,320Z" style="fill:#fff"></path><path d="M418.79,308.57c-2.25,4.4-6.05,7.77-10,10.66-2.1,1.55-4.28,3-6.42,4.49a34.74,34.74,0,0,0-5.54,4.27l-.21.23a9.24,9.24,0,0,0-1.15,1.58s-.06.07-.1.07-.05.13-.08.19-.09,0-.08,0,0-.14,0-.21v0a.15.15,0,0,1,0-.17l0-.07,0-.22c.64-5.14,4.24-10.34,7.28-14.3s6.8-7.47,11.5-9.28c1.18-.45,3.86-1.7,5.07-.74S419.27,307.64,418.79,308.57Z" style="fill:#455a64"></path><path d="M415.31,308.59c-1.08-1.07-4.23,1.58-5,2.2a51.57,51.57,0,0,0-6.53,6.35,46.88,46.88,0,0,0-8.34,12.06h0l-.11.14a1.92,1.92,0,0,0,0,.22.25.25,0,0,0,0,.07.14.14,0,0,0,0,.17l.15-.18c.39-.48.81-.95,1.23-1.42l.21-.22a101.68,101.68,0,0,1,9.77-8.62,49.09,49.09,0,0,0,6.49-6.32C413.61,312.45,416.21,309.49,415.31,308.59Zm-1,2.36c-2.66,4.42-7.27,7.64-11.19,10.86a53.92,53.92,0,0,0-7.43,7.05A50.27,50.27,0,0,1,403.41,318a71.89,71.89,0,0,1,5.3-5.46,28.56,28.56,0,0,1,3.22-2.57,10.64,10.64,0,0,1,2.18-1.18C415.6,308.37,414.77,310.19,414.32,311Z" style="fill:#fff"></path><path d="M394.78,340.28a.26.26,0,0,1-.23.13l.06.08a.08.08,0,0,1,0,.11.07.07,0,0,1-.11,0c-4.17-4.24-8.19-9.4-10.27-15a23.43,23.43,0,0,1-1.49-7.4c0-1.74-.13-5.22,1.35-6.48,3-2.54,5.7,8.22,6.1,9.84.74,3,1.23,6,1.91,8.94.74,3.25,1.73,6.44,2.7,9.63A.2.2,0,0,1,394.78,340.28Z" style="fill:#455a64"></path><path d="M394.78,340.28c-.17-.27-.32-.55-.47-.83A50.14,50.14,0,0,1,388.94,325a46.35,46.35,0,0,0-2-7.53c-.25-.59-1-2.89-2-1.73-.51.6-.08,4.95.12,6.07a32,32,0,0,0,2.42,7.39,52.21,52.21,0,0,0,6.83,11.1l.24.3a.08.08,0,0,0,0-.11l-.06-.08A.29.29,0,0,0,394.78,340.28Zm-6-9.25a36.15,36.15,0,0,1-2.87-7.17,26,26,0,0,1-.63-3,16.32,16.32,0,0,1-.2-2.41c0-2,.17-2.47.5-2.54s.49.17,1.07,1.34a13.53,13.53,0,0,1,.83,2.39c.31,1.16.57,2.33.83,3.5.5,2.34,1,4.7,1.66,7a38.94,38.94,0,0,0,4.14,9.41A60.05,60.05,0,0,1,388.73,331Z" style="fill:#fff"></path><path d="M408.15,330a14.68,14.68,0,0,1-2.73,5.68c-2.48,3.42-5.64,6.26-8.35,9.5q-.6.72-1.17,1.47c0,.06-.36.77-.35.72s.05-.29.14-.75h0c.43-2.27,1.85-9.1,3.63-12.6a30,30,0,0,1,3.95-6.18c.77-.87,2.57-2.74,3.92-2.34S408.36,328.88,408.15,330Z" style="fill:#455a64"></path><path d="M406,328.58c-1.45-.9-5.18,5.77-5.68,6.63A42.39,42.39,0,0,0,396,345.38c-.12.4-.22.8-.32,1.21s-.15.73-.15.74.32-.65.36-.71l.19-.26c.32-.41.65-.82,1-1.21,1.62-2.43,3.29-4.83,4.86-7.3a38.56,38.56,0,0,0,3-5.54C405.14,331.87,406.58,329,406,328.58Zm-.41,1.88c-2.06,5.8-6.27,10.38-9.48,15.53l-.15.25c0-.15.08-.31.13-.46a48.81,48.81,0,0,1,3.4-8.47,47.1,47.1,0,0,1,2.87-4.77,24.44,24.44,0,0,1,1.78-2.49c.3-.32,1.16-1.19,1.45-1.05S405.67,330.08,405.54,330.46Z" style="fill:#fff"></path><path d="M422.7,282.08c-4.31,9.89-15.6,14.49-20.5,24,0,0,0,0,0,0-.15.29-.29.59-.43.89a.19.19,0,0,1-.32,0,.13.13,0,0,1,0-.16,1.47,1.47,0,0,1,.1-.22,51.54,51.54,0,0,1,6-17.31c2.48-4.56,5.86-8.82,10.55-11.22,1.16-.59,3.41-1.85,4.71-.86S423.23,280.86,422.7,282.08Z" style="fill:#455a64"></path><path d="M418.82,282.5c-.55-.4-1.38.09-1.85.33a16.55,16.55,0,0,0-3.26,2.24,27.16,27.16,0,0,0-5.21,6.19,56.7,56.7,0,0,0-6.14,12.44c-.32,1-.61,2-.85,3,0,.13-.05.25-.09.38a.2.2,0,0,0,.33,0c.13-.29.27-.57.41-.86l0-.08a32.73,32.73,0,0,1,3.07-5.63,79.69,79.69,0,0,1,6.44-7.65C412.59,291.85,420.72,283.89,418.82,282.5Zm-.69,2.29c-1.3,2.33-3.33,4.22-5.1,6.19s-3.6,4-5.35,6a37.6,37.6,0,0,0-3.77,5.15,29.23,29.23,0,0,0-2.35,4.76,39,39,0,0,1,1.68-4.95l0-.05a72.67,72.67,0,0,1,4.18-8.32.47.47,0,0,1,.05-.1,34,34,0,0,1,4.76-6.65,19.8,19.8,0,0,1,3.39-2.88c1.42-.92,2.66-1.51,3-1.06S418.52,284.11,418.13,284.79Z" style="fill:#fff"></path><path d="M407.67,293.67c-1.3,2.79-2.53,5.61-3.76,8.45-.57,1.33-1.15,2.66-1.71,4l0,.08c-.2.48-.41,1-.62,1.44-1.86,4.34-3.91,8.78-5.05,13.38a40.54,40.54,0,0,0-1,7.43c0,.25,0,.51,0,.77h0c0,.14,0,.28,0,.42a1.93,1.93,0,0,0,0,.24c-.07,2.16,0,4.34,0,6.46.05,2.95.3,5.88.58,8.8a1.07,1.07,0,0,0,0,.25c0,.14,0,.27,0,.4s0,.14,0,.21l0,.37c.1.94.18,1.88.26,2.83h-.9a60.1,60.1,0,0,1-1.09-8.71,1,1,0,0,1,0-.18c0-.28,0-.57,0-.85s0-.7-.05-1.05c0-.84-.05-1.68-.07-2.51a61.92,61.92,0,0,1,1-14.58c0-.13.07-.26.1-.39a1,1,0,0,1,0-.17,2.8,2.8,0,0,1,.06-.28l.12-.45.22-.79.07-.23a94.14,94.14,0,0,1,5-12c.33-.72.65-1.42,1-2.13.19-.39.38-.78.56-1.17l.88-1.77,0-.05c1.38-2.78,2.81-5.53,4.18-8.32C407.51,293.43,407.73,293.54,407.67,293.67Z" style="fill:#455a64"></path></g><g id="freepik--Hearts--inject-20"><path d="M417.45,162.29c-1.44,8.14-8.59,14.8-8.59,14.8s-9.61-1.77-15.2-7.85c-4.66-5.06-4.68-12-.46-14.76,6.05-3.94,11.13,7.11,11.13,7.11s-1.67-12.05,5.56-12C414.93,149.65,418.66,155.51,417.45,162.29Z" style="fill:#C53F3F"></path><path d="M400.78,132.69c-5,3.42-12.21,3.08-12.21,3.08s-4-6-3.68-12c.28-5.06,3.93-8.64,7.55-7.83,5.19,1.16,2,9.52,2,9.52s5.49-7.07,9.17-3.23C406.14,124.87,405,129.84,400.78,132.69Z" style="fill:#C53F3F"></path><path d="M102.32,236.51c.43,6.07-3.48,12.1-3.48,12.1s-7.18.46-12.25-2.87c-4.24-2.78-5.5-7.73-3-10.46,3.61-3.9,9.22,3.09,9.22,3.09s-3.35-8.31,1.82-9.56C98.25,227.94,102,231.46,102.32,236.51Z" style="fill:#C53F3F"></path><path d="M389.17,199.52c-2,3.47-6.42,5.31-6.42,5.31s-4.09-2.42-5.62-6.14c-1.28-3.1-.12-6.28,2.27-6.82,3.43-.79,3.89,5.12,3.89,5.12s1.27-5.79,4.56-4.54C390.14,193.32,390.86,196.62,389.17,199.52Z" style="fill:#C53F3F"></path><path d="M121.73,211.47c-2,3.47-6.42,5.31-6.42,5.31s-4.09-2.42-5.62-6.14c-1.28-3.1-.12-6.27,2.27-6.82,3.43-.79,3.89,5.12,3.89,5.12s1.27-5.79,4.56-4.54C122.7,205.27,123.42,208.57,121.73,211.47Z" style="fill:#C53F3F"></path></g><g id="freepik--teddy-bear--inject-20"><path d="M183.05,265.16c-16.44,9.74-36.43,60.46-35.28,75.53s25.87,66.46,49.11,70.4,98.43,5.73,117.89-5.84,36.59-49,37.29-62.51-20.59-69.9-35.41-79.28C304.29,255.64,192.21,259.74,183.05,265.16Z" style="fill:#C53F3F"></path><path d="M208.06,112.26c1.71-6.18-2-53-28.78-55-30.78-2.32-56.93,29.82-55.1,57.7s29.2,34.85,49.28,34.47Z" style="fill:#C53F3F"></path><path d="M185.49,111.9c.79-2.93-.91-25.12-13.24-26.06C158.07,84.75,146,100,146.84,113.21s13.44,16.5,22.69,16.31Z" style="fill:#fff;opacity:0.6000000000000001"></path><path d="M292,108c-1.3-6.28,5.53-52.75,32.36-53,30.87-.28,54.83,33.53,51.16,61.22s-31.45,32.84-51.46,31.14Z" style="fill:#C53F3F"></path><path d="M314.57,109.16c-.6-3,2.57-25,14.93-25.13,14.22-.14,25.25,15.87,23.55,29s-14.51,15.58-23.73,14.78Z" style="fill:#fff;opacity:0.6000000000000001"></path><path d="M180.4,267.5c-5-2.16-38-25.46-41.6-45.2s27-101.74,44.53-116.93c8.23-7.16,81.14-21.3,126.73-5.11,8.52,3,52.74,89.79,50.54,113-1.46,15.37-33.6,51.17-42.46,55.66S200,275.93,180.4,267.5Z" style="fill:#C53F3F"></path><g style="opacity:0.2"><path d="M250.21,238.63c-.08-11.73-.07-23.47-.06-35.2,0-23.5.1-47,0-70.5,0-6.6-.1-13.2-.14-19.79s0-13.2-.45-19.79a.11.11,0,0,0-.22,0c-.38,5.87-.42,11.76-.49,17.65s-.13,11.76-.19,17.64c-.12,11.75-.14,23.51-.18,35.27-.09,23.47-.31,47,.38,70.43.19,6.59.39,13.16.68,19.74s.74,13.15,1.17,19.72c0,.19.31.19.3,0C250.49,262.1,250.28,250.35,250.21,238.63Z" style="fill:#030402"></path><path d="M258.09,175.44a26.2,26.2,0,0,0-4.32-.56,37.2,37.2,0,0,0-4.48,0c-1.46.06-2.9.23-4.35.38a16.44,16.44,0,0,0-4.36.85.08.08,0,0,0,0,.15,17.82,17.82,0,0,0,4.26.44c1.49,0,3,.1,4.48.09s2.91,0,4.35-.16a31.28,31.28,0,0,0,4.43-.62A.3.3,0,0,0,258.09,175.44Z" style="fill:#030402"></path><path d="M258.18,146.07a17.46,17.46,0,0,0-1.94-1.08c-.65-.35-1.29-.71-2-1s-1.43-.63-2.15-.91l.88-.41a37.37,37.37,0,0,0,3.42-1.68.31.31,0,0,0-.17-.57,16.68,16.68,0,0,0-3.6.91c-.88.29-1.73.63-2.57,1-1.34-.45-2.69-.86-4.06-1.25a9,9,0,0,0-3.84-.57c-.08,0-.06.13,0,.15A32.52,32.52,0,0,1,246,142.2c.73.37,1.47.71,2.22,1.05-.86.48-1.69,1-2.52,1.5-.54.34-1.07.72-1.58,1.11a7.88,7.88,0,0,0-1.41,1.23.08.08,0,0,0,.09.13,8.68,8.68,0,0,0,1.74-.7c.52-.22,1-.46,1.56-.7,1.17-.56,2.37-1,3.55-1.58l.38-.18c1.24.54,2.52,1,3.82,1.42.66.21,1.34.36,2,.53a16.46,16.46,0,0,0,2.16.5A.24.24,0,0,0,258.18,146.07Z" style="fill:#030402"></path><path d="M255.78,128.55a28.41,28.41,0,0,0-5.94.95c-1,.29-1.89.63-2.83,1-.43.17-.85.37-1.27.57a2.88,2.88,0,0,0-1.17.72c0,.05,0,.12,0,.13a2.43,2.43,0,0,0,1.13-.09l1.47-.3,2.92-.68c2-.44,3.83-1.07,5.76-1.59A.36.36,0,0,0,255.78,128.55Z" style="fill:#030402"></path><path d="M255.17,107.11a27.78,27.78,0,0,0-5.83-.49c-1,0-1.91,0-2.87.08l-1.55.08a2.1,2.1,0,0,0-1.14.2.09.09,0,0,0,0,.13,2,2,0,0,0,1.09.26l1.41.15q1.44.15,2.88.24a27.71,27.71,0,0,0,6-.17C255.37,107.55,255.47,107.17,255.17,107.11Z" style="fill:#030402"></path></g><path d="M228.53,188.7c-10.33,6.33-25.88,56.82-17.87,68.69s67.77,15.06,78,1.35-9.54-64-16.89-69.55S238.13,182.8,228.53,188.7Z" style="fill:#fff;opacity:0.6000000000000001"></path><path d="M204.05,188.18c-4.53-.15-8.53,4.38-8.71,9.86s3.49,10.26,8,10.41,8.53-4.38,8.71-9.86S208.59,188.33,204.05,188.18Z" style="fill:#263238"></path><path d="M210.74,193.43c-.1-.18-.41-.08-.34.13,2.44,7.75-.69,17.05-9.71,17.9a.11.11,0,0,0,0,.22C210.7,212.61,215.33,201.42,210.74,193.43Z" style="fill:#263238"></path><path d="M208.63,168.22c-.6-2.42-3.57-2.51-5.51-2.08a21,21,0,0,0-7.25,2.87c-2.19,1.57-1.88,5.37,1.29,5.47a21,21,0,0,0,7.23-1.46C206.4,172.34,209.28,170.86,208.63,168.22Z" style="fill:#263238"></path><path d="M296,188.18c4.53-.15,8.53,4.38,8.71,9.86s-3.49,10.26-8,10.41-8.53-4.38-8.71-9.86S291.41,188.33,296,188.18Z" style="fill:#263238"></path><path d="M289.26,193.43c.1-.18.41-.08.34.13-2.44,7.75.69,17.05,9.71,17.9a.11.11,0,0,1,0,.22C289.3,212.61,284.67,201.42,289.26,193.43Z" style="fill:#263238"></path><path d="M291.37,168.22c.6-2.42,3.57-2.51,5.51-2.08a21,21,0,0,1,7.25,2.87c2.19,1.57,1.88,5.37-1.29,5.47a21,21,0,0,1-7.23-1.46C293.6,172.34,290.72,170.86,291.37,168.22Z" style="fill:#263238"></path><path d="M249.8,198.31c-4.35-.14-15-9.05-13.62-13.57s24.34-3.72,27.41-.24S252.26,198.4,249.8,198.31Z" style="fill:#263238"></path><path d="M249.67,192.8a75,75,0,0,1,.39,10.16,63.88,63.88,0,0,1-1,10.18c-.18.85-.38,1.7-.65,2.55a8.75,8.75,0,0,1-1.17,2.57,3.36,3.36,0,0,1-.58.63,2.69,2.69,0,0,1-.84.47,2.92,2.92,0,0,1-1.78,0,6.18,6.18,0,0,1-2.42-1.6,20.5,20.5,0,0,1-3.06-4.22,32.36,32.36,0,0,1-2.15-4.63c1,1.39,1.93,2.77,3,4.09a24.92,24.92,0,0,0,3.3,3.62,5,5,0,0,0,1.83,1.06,1.11,1.11,0,0,0,.71,0,.53.53,0,0,0,.24-.16,1.68,1.68,0,0,0,.25-.31,8.68,8.68,0,0,0,.85-2.06c.22-.76.39-1.56.55-2.36.32-1.61.56-3.26.77-4.92s.4-3.32.6-5C248.87,199.52,249.22,196.16,249.67,192.8Z" style="fill:#263238"></path><path d="M250,192.8c.37,3.41.66,6.8,1,10.17a89.59,89.59,0,0,0,1.44,9.95,19,19,0,0,0,.66,2.33,5.44,5.44,0,0,0,1,1.86,1,1,0,0,0,.53.34.69.69,0,0,0,.21,0h.26c.18,0,.36,0,.53-.06a6.35,6.35,0,0,0,2.06-.82,13.27,13.27,0,0,0,3.46-3.36,32.35,32.35,0,0,0,2.7-4.29,20,20,0,0,1-1.87,4.83,13,13,0,0,1-3.4,4.12,7.1,7.1,0,0,1-2.58,1.24,5.69,5.69,0,0,1-1.54.16,2.75,2.75,0,0,1-1.69-.8,7,7,0,0,1-1.52-2.53,19.36,19.36,0,0,1-.76-2.58,53,53,0,0,1-1.05-10.3A70.34,70.34,0,0,1,250,192.8Z" style="fill:#263238"></path><path d="M177.62,111.69a81.43,81.43,0,0,0-9.3,13,126.63,126.63,0,0,0-6.81,14.49c-1.11,2.77-2.23,5.53-3.14,8.38-.05.16.2.25.29.11,1.3-2.31,2.44-4.68,3.62-7.05s2.4-4.71,3.6-7.07q3.59-7.07,7.57-13.92a82.3,82.3,0,0,1,4.74-7.5C178.42,111.78,177.88,111.39,177.62,111.69Z" style="fill:#263238"></path><path d="M180,108.42a14.7,14.7,0,0,0-8.61,2.17,19.57,19.57,0,0,0-3.45,2.7,32,32,0,0,0-2.95,3.43c-.06.08.05.19.11.11a21.75,21.75,0,0,1,7.11-4.73,60.23,60.23,0,0,1,7.94-2.78C180.69,109.16,180.5,108.47,180,108.42Z" style="fill:#263238"></path><path d="M185,106.21a18.86,18.86,0,0,0-4.6-.72,22,22,0,0,0-4.73.28,26.37,26.37,0,0,0-8.65,3.3.08.08,0,0,0,.07.14,36,36,0,0,1,8.83-2c1.46-.2,2.93-.28,4.4-.36s3.07,0,4.61,0C185.27,106.86,185.3,106.32,185,106.21Z" style="fill:#263238"></path><path d="M208.18,97.78c-2.23,0-4.45.23-6.67.43a36.94,36.94,0,0,0-6.43,1.18,48.62,48.62,0,0,0-6.07,2.26,29.6,29.6,0,0,0-2.78,1.48c-1,.58-1.88,1.33-2.86,1.93-.08,0,0,.18.09.13a20.22,20.22,0,0,1,3.09-1.35c1-.4,2-.7,3-1a61.79,61.79,0,0,1,6.15-1.62c2.08-.47,4.17-1,6.22-1.52s4.22-1,6.28-1.61A.13.13,0,0,0,208.18,97.78Z" style="fill:#263238"></path><path d="M312.65,101.45a17.59,17.59,0,0,0-5.35-3.3,30.64,30.64,0,0,0-7-1.83c-2.44-.37-4.89-.32-7.34-.54-.16,0-.19.26,0,.28a67,67,0,0,1,6.83,1.47,36.45,36.45,0,0,1,6.54,2.2,27.92,27.92,0,0,1,5.05,2.93,58.15,58.15,0,0,1,4.53,4c.21.26.65,0,.54-.33A13.84,13.84,0,0,0,312.65,101.45Z" style="fill:#263238"></path><path d="M333.55,108a13.36,13.36,0,0,0-8.15-3,17,17,0,0,0-4.32.33,12.59,12.59,0,0,0-2.16.68c-.42.18-1.18.42-1.3.91a.08.08,0,0,0,0,.09c.4.29,1.17,0,1.62,0,.68-.09,1.35-.16,2-.22a23.58,23.58,0,0,1,4,0,25.12,25.12,0,0,1,3.94.66c1.32.33,2.59.82,3.9,1.2A.4.4,0,0,0,333.55,108Z" style="fill:#263238"></path><path d="M333.51,115.3a24.29,24.29,0,0,0-7.08-5,23.49,23.49,0,0,0-4-1.45,12.35,12.35,0,0,0-4.35-.48c-.18,0-.31.31-.1.4,1.24.5,2.57.82,3.85,1.22a40,40,0,0,1,4,1.46,36.55,36.55,0,0,1,7.31,4.26A.29.29,0,0,0,333.51,115.3Z" style="fill:#263238"></path><path d="M331.92,132.42c-2.55-4.76-5.13-9.52-7.91-14.16a87.54,87.54,0,0,0-5-7.67c-.07-.09-.25,0-.19.09,2.07,4.88,4.75,9.51,7.26,14.17s5.07,9.56,7.72,14.28c1.49,2.65,3,5.27,4.69,7.82a.08.08,0,0,0,.14-.07A119.22,119.22,0,0,0,331.92,132.42Z" style="fill:#263238"></path><path d="M157.38,344.25c-3.38-.16-29.46,2.75-33.35,1.88s-26.45-4.52-40.36,1.25C64,355.54,61.6,373.71,65.49,386.75s25.32,54.16,58.92,57.92,82.87-28.34,88.76-31.22S199,346.13,157.38,344.25Z" style="fill:#C53F3F"></path><path d="M74.51,366.67c20-9.48,73.22,59.43,50.65,70.71S49.69,378.46,74.51,366.67Z" style="fill:#fff;opacity:0.6000000000000001"></path><g style="opacity:0.2"><path d="M213,405c-1.55.76-3.11,1.47-4.66,2.23s-2.92,1.51-4.38,2.26c-3,1.54-6,3.06-9,4.53q-9.06,4.44-18.31,8.49c-12.32,5.38-24.87,10.19-37.57,14.59a37.46,37.46,0,0,1-11,2.51,66.87,66.87,0,0,1-12.06-1c-.1,0-.15.13,0,.15a70.56,70.56,0,0,0,10.38,1.95,30.94,30.94,0,0,0,10.19-.9c3.28-.85,6.47-2,9.66-3.15s6.47-2.33,9.69-3.54Q175,425.88,193.4,417q5.19-2.5,10.3-5.12c1.66-.86,3.35-1.7,5-2.61s3.36-2,5-3A.72.72,0,0,0,213,405Z" style="fill:#030402"></path><path d="M159.17,435a11.91,11.91,0,0,0-2.31-2c-.4-.26-.81-.5-1.22-.74v0c.14-1.14.26-2.28.38-3.42a21.08,21.08,0,0,0,.32-3.54.18.18,0,0,0-.32-.09h0a20.26,20.26,0,0,0-1,3.35c-.27,1-.54,1.91-.8,2.86l0,0a29.64,29.64,0,0,0-2.66-1.44l-1.42-.68-.59-.26c-.25-.11-.54-.16-.79-.27-.08,0-.13.09-.06.14s.28.27.43.38l.63.45,1.25.89c.82.62,1.65,1.21,2.48,1.81l.41.32a28.66,28.66,0,0,0-1.13,6.2.82.82,0,0,0,1.6.24,24.33,24.33,0,0,0,1.13-5.2l.4.32a16.66,16.66,0,0,0,2.58,1.66A.61.61,0,0,0,159.17,435Z" style="fill:#030402"></path><path d="M174,426.77a34.41,34.41,0,0,0-1.23-3.25c-.23-.53-.48-1-.73-1.58a4.82,4.82,0,0,0-.72-1.34c-.33-.35-.81.06-.47.26,0,.07,0,.15.07.23s.12.44.2.66q.19.58.36,1.17c.24.83.44,1.68.66,2.53s.42,1.69.61,2.54a7.75,7.75,0,0,0,.85,2.45.53.53,0,0,0,1-.25A7.75,7.75,0,0,0,174,426.77Z" style="fill:#030402"></path><path d="M181.38,426a15.36,15.36,0,0,0-1.66-2.27c-.6-.65-1.23-1.27-1.86-1.9s-1.34-1.18-2-1.76a10.66,10.66,0,0,0-1-.76l-.59-.39c-.2-.12-.43-.21-.63-.33s-.16.06-.1.12.27.35.41.51.29.31.44.48.56.65.87,1c.62.64,1.16,1.35,1.73,2a25.14,25.14,0,0,1,1.51,2c.52.75,1.09,1.47,1.64,2.2a.78.78,0,0,0,1,.09A.81.81,0,0,0,181.38,426Z" style="fill:#030402"></path><path d="M202.4,415.41a17.82,17.82,0,0,0-.51-3.48,16.63,16.63,0,0,0-1.19-3.05c-.44-.94-.61-2-1.12-2.94a.08.08,0,0,0-.14,0,5.13,5.13,0,0,0,.15,2.9c.2,1.05.44,2.08.64,3.13a21.33,21.33,0,0,1,.27,3.39,11.23,11.23,0,0,0,.34,3.47.64.64,0,0,0,1.22,0A8.14,8.14,0,0,0,202.4,415.41Z" style="fill:#030402"></path><path d="M211.53,406.51a21.76,21.76,0,0,0-1.4-1.77,5.9,5.9,0,0,0-.8-.78,2,2,0,0,0-.89-.55.08.08,0,0,0-.1.09,2.61,2.61,0,0,0,.38.89c.17.31.34.62.53.93a13.32,13.32,0,0,1,.89,1.87c.25.65.53,1.28.74,1.95a13,13,0,0,0,.9,2.1.67.67,0,0,0,1.24-.31A7.49,7.49,0,0,0,211.53,406.51Z" style="fill:#030402"></path></g><path d="M342.62,344.25c3.38-.16,29.46,2.75,33.35,1.88s26.45-4.52,40.36,1.25c19.69,8.16,22.07,26.33,18.18,39.37s-25.32,54.16-58.92,57.92-82.87-28.34-88.76-31.22S301,346.13,342.62,344.25Z" style="fill:#C53F3F"></path><path d="M425.49,366.67c-20-9.48-73.22,59.43-50.65,70.71S450.31,378.46,425.49,366.67Z" style="fill:#fff;opacity:0.6000000000000001"></path><g style="opacity:0.2"><path d="M286.88,405c1.55.76,3.12,1.47,4.67,2.23s2.92,1.51,4.37,2.26c3,1.54,6,3.06,9,4.53q9.06,4.44,18.3,8.49c12.32,5.38,24.87,10.19,37.58,14.59a37.33,37.33,0,0,0,11,2.51,66.79,66.79,0,0,0,12.06-1c.1,0,.15.13.05.15a70.69,70.69,0,0,1-10.39,1.95,31,31,0,0,1-10.19-.9c-3.27-.85-6.47-2-9.66-3.15s-6.47-2.33-9.69-3.54q-19.1-7.23-37.51-16.12-5.17-2.5-10.29-5.12c-1.67-.86-3.36-1.7-5-2.61s-3.37-2-5-3A.72.72,0,0,1,286.88,405Z" style="fill:#030402"></path><path d="M310.9,410.92c.36-.28.15-.94-.35-.78a15.09,15.09,0,0,0-5.48,3.25c0-1.8.23-3.6.09-5.4a.08.08,0,0,0-.15,0,29.74,29.74,0,0,0-.69,3.65,24.86,24.86,0,0,0-.28,2.75,27.72,27.72,0,0,0-2,2.17,9.84,9.84,0,0,0-1.84,3c-.07.22.19.33.34.24h0l0,0h0a22.68,22.68,0,0,0,2.32-2.28q.61-.63,1.26-1.23a14.5,14.5,0,0,0,2.36,5.86c.23.37.89.11.72-.33a28.45,28.45,0,0,1-2-6.45l.25-.22C307.19,413.64,309.1,412.35,310.9,410.92Z" style="fill:#030402"></path><path d="M325.17,418.26a16.69,16.69,0,0,0-3.85,4.86,21.76,21.76,0,0,0-1.29,2.77,10.83,10.83,0,0,0-.44,1.44c0,.25-.1.5-.14.75a3.48,3.48,0,0,0,0,.72.08.08,0,0,0,.15,0,4.52,4.52,0,0,0,.37-.47l.33-.58.74-1.33c.47-.88.94-1.75,1.48-2.59,1.09-1.67,2.31-3.22,3.52-4.8A.59.59,0,0,0,325.17,418.26Z" style="fill:#030402"></path><path d="M328.48,419.59a8.74,8.74,0,0,0-1.41,2.91,19.8,19.8,0,0,0-.83,3.31c-.29,2-.3,4.49.75,6.28.28.49.95,0,.78-.38a21.1,21.1,0,0,1-.24-2.87,19.75,19.75,0,0,1,.36-3c.2-1,.45-2,.74-3a10.4,10.4,0,0,0,.61-3A.44.44,0,0,0,328.48,419.59Z" style="fill:#030402"></path><path d="M357.92,438.52a16.27,16.27,0,0,1-.48-2.86,13.31,13.31,0,0,1,.06-3c.06-.45.16-.9.25-1.34q.08-.39.18-.75a5,5,0,0,0,.16-.58h0a.09.09,0,0,0,.11,0,.24.24,0,0,0,0-.41c-.36-.18-.6.39-.71.61a12.71,12.71,0,0,0-1.25,3.76,13,13,0,0,0-.1,3.94c.16,1.28.47,2.94,1.47,3.85a.62.62,0,0,0,1-.46A13.58,13.58,0,0,0,357.92,438.52Z" style="fill:#030402"></path></g><path d="M338.14,328.59a14.89,14.89,0,0,1-1,5.25c-1.32,3.15-3.95,5.51-6.43,7.75a56.86,56.86,0,0,0-8.91,10.73c-1.23,1.8-4.4,5.64-4.92,5.77-1.81.5-1.05,5.32-2.3,6.85-1.46,1.82-3.33,1.9-4.46,4.34-.67,1.44-.74,2.87-2.26,3.73s-2.38-.06-3.79.29c-3.11.75-2,4-3.81,5.72-1.17,1.12-2.71,1-4.13,1.57-2.24.93-3.66,3.14-5.53,4.59a16.25,16.25,0,0,1-3.72,1.77c-1.85.83-2.61,2.51-4,4.1a26.27,26.27,0,0,1-4.41,4.08,29.75,29.75,0,0,1-10.2,4.55c-4.37,1.18-6.26,4.44-9.89,6.7-3.1,1.91-6.45,1.43-9.78.41-7.42-2.27-17.88-4.43-22.63-11.06-1.28-1.79-1.88-3.29-4.07-4.16-1.06-.41-2.21-.6-3.29-.92a29,29,0,0,1-4.95-2,27.4,27.4,0,0,1-9.61-8.32,30,30,0,0,0-2.09-3.14c-1.32-1.43-2.82-1.68-4.34-2.53a30,30,0,0,1-5.09-3.42c-3.16-2.71-4.92-5.85-7-9.39-3-5.05-8.38-3.81-12.52-7-2.67-2-3-5.15-4-8.15-1.34-4.17-6-4.93-7.46-8.87a13.91,13.91,0,0,1-.49-3.8c-.3-3.51-2.16-4.65-4.3-7-4.27-4.64-2.62-12.62-4.36-18.38a.5.5,0,0,1-.31-.15c-1.87-1.94-4.17-3.29-5-6-1.07-3.36,1.07-6.25,1.18-9.57.09-3-1.93-5.61-.52-8.49.95-2,1.81-2.57,1.94-4.85a16.63,16.63,0,0,1,.48-4.15A87,87,0,0,1,158.07,258c2.92-5.2,6.8-10.78,11.9-14.06,1.93-1.24,3.52-1.33,5.74-1.52a17.13,17.13,0,0,0,10.15-4.25c2-1.79,3.27-3,6.1-3.27a99.63,99.63,0,0,1,10.51.11c2.26,0,6.41-.83,8.35.76.53.44.63,1,1,1.58,1.79,3,2.77,3.33,6.3,3.9a31.73,31.73,0,0,1,16.81,8.62c2,1.93,2.61,4.39,4.73,6.31a11.76,11.76,0,0,1,3.26,4.29c1.16,2.51,2.49,3.16,4.51,4.77a14.71,14.71,0,0,1,2.3,2.3,15.68,15.68,0,0,1,2.43,4.35c2-.29,1.85-4.13,1.86-4.59a15,15,0,0,1,1.14-5.45,15.61,15.61,0,0,1,6.39-7.41,12.56,12.56,0,0,0,5-4.38,18.11,18.11,0,0,1,3.93-4.74,31.27,31.27,0,0,1,10.52-5.54c1.65-.46,4.68.2,9.7-3,3-2,8.27-1.58,11.79-1.6A33.58,33.58,0,0,1,316,237.64c3.73,1.62,6.82,4.25,10.31,6.29,4,2.33,9,2.75,12.59,5.7,2.87,2.35,2.69,4.83,3.47,8.16,1.43,6,8.21,9.2,9.2,15.4.61,3.88-2,6.46-3.08,9.95-1.34,4.31.5,9.09.44,13.5-.11,7.92-3.14,17.58-8.05,23.82-1.4,1.78-2.49,3-2.7,5.42C338.11,326.78,338.19,327.68,338.14,328.59Z" style="fill:#37474f"></path><path d="M346.75,309.07a37.4,37.4,0,0,1-5.86,11.39c-1.4,1.78-2.49,3-2.7,5.42-.08.9,0,1.81-.05,2.71a15.4,15.4,0,0,1-1,5.25c-1.32,3.16-4,5.51-6.43,7.75a57.62,57.62,0,0,0-8.92,10.73c-1.23,1.81-4.38,5.64-4.9,5.77-1.83.5-1.06,5.31-2.3,6.84-1.47,1.83-3.34,1.91-4.47,4.34-.67,1.45-.74,2.88-2.26,3.74s-2.39-.06-3.79.29c-2,.49-2.25,2-2.67,3.5a33.68,33.68,0,0,1-8.3-9.14c-11.29-18-2-46.2,10-52.79S346.75,309.07,346.75,309.07Z" style="fill:#37474f"></path><path d="M251.36,276.32c-2.85.9-11.48-24.54-39.86-34s-56.33,17.23-58.2,45.36,19.9,75.83,97.82,113.78c5.35,2.61,81.28-45,93.09-102.19,10.9-52.78-42.12-68.75-63-55.78C256.35,258.94,255.22,275.12,251.36,276.32Z" style="fill:#455a64"></path><path d="M244.61,279.91c-2.41-2.53-19.88-24.33-33.54-29.46s-31.62,1.51-33.39,3.29-2.77,7.15-1,9.51,24.95,4.94,27.91,7.9,27.5,14.45,33.29,16S250.12,285.68,244.61,279.91Z" style="fill:#fff;opacity:0.2"></path><path d="M259.44,279.1c-2.9-2.51,16.83-24.39,25.35-28.5s26.11-5.87,30.81-1.84S311.12,264.94,307,266s-20.68,1.63-25.37,5.67S264.48,283.46,259.44,279.1Z" style="fill:#fff;opacity:0.2"></path><path d="M184.46,254.73c-1.66,5,17.09,4.3,21.88,7.26s29.29,18.7,30.35,15.55c1-2.87-15.92-20.62-27.49-24.16S185.14,252.67,184.46,254.73Z" style="fill:#fffcfc;opacity:0.2"></path><path d="M304.74,248.18c-3.86-.36-17.53,2.58-18.55,5.66s16.43,3.57,19.66,3.46,7.76-3.8,7.48-5.44S309.21,248.6,304.74,248.18Z" style="fill:#fffcfc;opacity:0.2"></path><path d="M340.93,292.33c-1.1-2.1-30.08,16.2-37.14,32.93-2.78,6.58-24.28,9.35-33.54,19.27-11,11.8-7.21,31.57-2.62,37.56s38.89-26.48,51.46-42.63S343.07,296.42,340.93,292.33Z" style="fill:#fffcfc;opacity:0.1"></path><g style="opacity:0.30000000000000004"><path d="M168.33,274a11.58,11.58,0,0,0-4-1,21.29,21.29,0,0,0-4.58-.28c-.54,0-.49.84-.05,1a20.89,20.89,0,0,0,4.23.86,12.1,12.1,0,0,0,4.24.12C168.49,274.64,168.65,274.15,168.33,274Z" style="fill:#fffcfc"></path><path d="M164,278.45a5,5,0,0,0-2.55.39c-1,.28-2,.59-3,.92a.46.46,0,0,0,.19.9c1-.18,2-.37,3-.6a5.22,5.22,0,0,0,2.45-.86A.45.45,0,0,0,164,278.45Z" style="fill:#fffcfc"></path><path d="M163.47,282.06c-2.05,0-4.14,1.44-5.84,2.44-.29.17-.06.63.24.47a16.42,16.42,0,0,1,3-1.21,13.59,13.59,0,0,0,2.72-.91A.42.42,0,0,0,163.47,282.06Z" style="fill:#fffcfc"></path><path d="M238.35,378.47a.42.42,0,0,0-.8-.26,36.68,36.68,0,0,0-2.78,8.11c-.12.72,1,.84,1.2.23C237,384,237.49,381.13,238.35,378.47Z" style="fill:#fffcfc"></path><path d="M240,384.52c-.94,1.44-2.3,3.39-2.38,5.17a.53.53,0,0,0,1,.32,11.77,11.77,0,0,0,1-2.23c.38-.92.78-1.83,1.24-2.71C241.09,384.52,240.34,384,240,384.52Z" style="fill:#fffcfc"></path><path d="M244.24,384.53c0-.36-.56-.48-.64-.12-.58,2.78-1.39,5.94-1,8.79.07.57.85.41.93-.08C244,390.33,243.81,387.37,244.24,384.53Z" style="fill:#fffcfc"></path><path d="M248.63,390.61c0-.64-.9-.67-1-.05a17.88,17.88,0,0,0-.44,4.42c.07.54.86.53,1,.06A18.23,18.23,0,0,0,248.63,390.61Z" style="fill:#fffcfc"></path><path d="M254.89,387.8c0-.22-.38-.15-.35.08a30.59,30.59,0,0,1,.26,4.88,23.74,23.74,0,0,0-.1,3.86.31.31,0,0,0,.59,0C256.12,394,255.33,390.48,254.89,387.8Z" style="fill:#fffcfc"></path><path d="M164.08,292.28a30.25,30.25,0,0,0-3.31,1.05c-1.1.35-2.22.66-3.35.92a.41.41,0,0,0,.17.81c2.23-.25,4.89-.62,6.8-1.87C164.83,292.9,164.65,292.16,164.08,292.28Z" style="fill:#fffcfc"></path><path d="M162.37,301.75a13.36,13.36,0,0,0-2.08.85,19,19,0,0,0-2.11,1.07.31.31,0,0,0,.21.58,17.52,17.52,0,0,0,2.24-.68,13,13,0,0,0,2.1-.81C163.25,302.48,163,301.58,162.37,301.75Z" style="fill:#fffcfc"></path><path d="M165.89,309.62a6.85,6.85,0,0,0-2.76,1.07c-1,.46-2,.87-3.06,1.24-.5.17-.19.93.3.85a18.72,18.72,0,0,0,3.21-.84c.91-.32,2.17-.68,2.7-1.54A.51.51,0,0,0,165.89,309.62Z" style="fill:#fffcfc"></path><path d="M167,314.93a10.64,10.64,0,0,0-3.48,3.64c-.22.34.27.64.51.35a37.7,37.7,0,0,1,3.51-3.19C167.88,315.36,167.45,314.66,167,314.93Z" style="fill:#fffcfc"></path><path d="M228.48,372.86a18.74,18.74,0,0,0-3.9,3.44,47.44,47.44,0,0,0-3.48,3.88c-.28.35.25.76.57.5,1.39-1.15,2.71-2.39,4-3.62a21.29,21.29,0,0,0,3.4-3.51A.48.48,0,0,0,228.48,372.86Z" style="fill:#fffcfc"></path><path d="M230.5,375.88c.05-.27-.31-.39-.48-.24a8.18,8.18,0,0,0-1.7,2.47l-1.64,2.95a.28.28,0,0,0,.46.31C228.34,379.83,230.19,377.86,230.5,375.88Z" style="fill:#fffcfc"></path><path d="M182,334.31c-2.28.73-4.41,2.68-6.28,4.11a.41.41,0,0,0,.45.68c2.08-1.15,4.69-2.32,6.27-4.13A.43.43,0,0,0,182,334.31Z" style="fill:#fffcfc"></path><path d="M190.86,346.41A8.35,8.35,0,0,0,187.7,348a25.4,25.4,0,0,0-2.9,2.37c-.29.27,0,.84.41.61,1-.65,2.11-1.21,3.18-1.79a14,14,0,0,0,3-1.7A.65.65,0,0,0,190.86,346.41Z" style="fill:#fffcfc"></path><path d="M193.71,349.57a5.88,5.88,0,0,0-2.36,1.7,15.4,15.4,0,0,0-2,2.37.21.21,0,0,0,.31.27c.74-.67,1.52-1.3,2.31-1.91a10,10,0,0,0,2.18-1.73A.46.46,0,0,0,193.71,349.57Z" style="fill:#fffcfc"></path><path d="M212.32,364.69c-.63.94-1.36,1.8-2,2.74a8.87,8.87,0,0,0-1.51,2.65.55.55,0,0,0,.88.58c1.56-1.31,2.28-3.79,3.27-5.54C213.22,364.69,212.6,364.26,212.32,364.69Z" style="fill:#fffcfc"></path><path d="M217.83,369.25c-1,.8-2.09,1.58-3.14,2.36a11.74,11.74,0,0,0-2.72,2.28.48.48,0,0,0,.61.7,11.82,11.82,0,0,0,2.79-2.21c1-.86,1.95-1.73,2.94-2.58C218.68,369.49,218.2,369,217.83,369.25Z" style="fill:#fffcfc"></path><path d="M219,372.05a11.86,11.86,0,0,0-2.8,3.24c-.13.27.23.56.48.42a12,12,0,0,0,3-3.11C219.91,372.22,219.32,371.72,219,372.05Z" style="fill:#fffcfc"></path><path d="M171.27,267.9a5.93,5.93,0,0,0-2.11-2.17c-1-.76-2-1.45-3-2.15-.39-.26-.91.29-.56.63.88.87,1.75,1.72,2.67,2.54a6,6,0,0,0,2.54,1.68A.39.39,0,0,0,171.27,267.9Z" style="fill:#fffcfc"></path><path d="M241.79,260a.28.28,0,0,0-.54.11c.71,3.78-.34,7.41-1.08,11.07-.09.47.54.9.82.41C243,267.93,242.59,263.87,241.79,260Z" style="fill:#fffcfc"></path><path d="M247.28,267.53a.41.41,0,0,0-.77-.26,20.28,20.28,0,0,1-1.46,3c-.47.77-1.05,1.47-1.44,2.28a.37.37,0,0,0,.51.44C245.86,271.85,246.84,269.49,247.28,267.53Z" style="fill:#fffcfc"></path><path d="M307.86,238.66a24.13,24.13,0,0,0-2.21,4.92.39.39,0,0,0,.74.25c.61-1.67,1.16-3.34,1.9-5C308.4,238.62,308,238.42,307.86,238.66Z" style="fill:#fffcfc"></path><path d="M312.34,239a14.28,14.28,0,0,0-3.3,4.83c-.24.57.67.86.91.3a16.27,16.27,0,0,1,2.88-4.57C313.14,239.18,312.69,238.63,312.34,239Z" style="fill:#fffcfc"></path><path d="M341.73,260.44c0-.36-.59-.4-.58,0,.08,4-1.37,7.46-3.3,10.9a.48.48,0,0,0,.8.54C341.3,268.65,342,264.48,341.73,260.44Z" style="fill:#fffcfc"></path><path d="M344.16,267.18a10.76,10.76,0,0,1-1.33,2.36,23.22,23.22,0,0,0-1.49,1.94c-.16.28.14.74.47.52,1.52-1,2.27-3,2.81-4.67A.24.24,0,0,0,344.16,267.18Z" style="fill:#fffcfc"></path><path d="M346.66,281.74a9.6,9.6,0,0,1-5,3.41c-.51.19-.18.9.29.84a7.06,7.06,0,0,0,5.09-4C347.16,281.74,346.83,281.5,346.66,281.74Z" style="fill:#fffcfc"></path></g><path d="M220.8,289.12c-.18.53-2.43,7.81-2.74,9-2.52,8.92-5.91,20.57-15,20.57-4.37,0-7.46-3.44-7.46-8.12,0-5.08,5-9.23,9.75-9.14a.93.93,0,1,1,0,1.86c-4.11,0-7.86,3.53-7.86,7.32s2.43,6.23,5.65,6.23c7.59,0,10.68-11.08,13.11-19.25.62-2.07,2.3-7.46,2.43-7.9l-1.28.27c-4,.92-9.54,2-9.54,5.56a3.61,3.61,0,0,0,3.49,4,.9.9,0,0,1,.88,1,.92.92,0,0,1-.92.88,5.46,5.46,0,0,1-5.34-5.87c.17-5.47,5.47-6,11-7.32l2.38-.53c1-2.56,2.87-5.43,5.12-5.43a2.38,2.38,0,0,1,2.61,2.38C227.11,286.61,223.93,288.28,220.8,289.12Zm4.32-4.59a.6.6,0,0,0-.62-.61c-1,0-2.11,1.5-2.82,3C223.53,286.52,225.12,285.24,225.12,284.53Z" style="fill:#fff"></path><path d="M257.13,282.06a2.38,2.38,0,0,1,2.6,2.38c0,2.08-3.18,3.76-6.31,4.59-1.06,2.65-2.08,5.92-2.91,8.79-1.46,4.63-2.43,7.59-3.27,9.66a26.3,26.3,0,0,1-2.07,4.11c1.19,1.1,2.38,2.29,3.61,3.49,3.67,3.66,7.6,7.81,11.61,7.81,2.21,0,4.24-.89,4.95-2.43a.9.9,0,0,1,.83-.57,1,1,0,0,1,.93,1,1.13,1.13,0,0,1-.09.35c-1.1,2.47-4,3.58-6.66,3.58-4.68,0-9.05-4.55-12.89-8.39-1.15-1.1-2.25-2.25-3.35-3.22-.14.17-.27.35-.4.48a8.38,8.38,0,0,1-6.22,3c-3.05-.22-4.59-1.63-4.59-4.24a4.77,4.77,0,0,1,4.85-4.85c1.9,0,4,1.15,6,2.87a28.3,28.3,0,0,0,1.77-3.62c.84-2.17,1.5-4.11,3.18-9.54.75-2.47,1.63-5.29,2.56-7.81-.89.18-1.81.31-2.7.44-5.91.93-12.4,1.95-13.06,6.71a2.37,2.37,0,0,0,0,.53,4,4,0,0,0,.75,2.61A3.31,3.31,0,0,0,238.5,301l.44,0a.9.9,0,0,1,.89,1,1,1,0,0,1-1,.88,2.32,2.32,0,0,1-.61-.05,5.09,5.09,0,0,1-3.53-2.07,5.86,5.86,0,0,1-1.11-3.8,3.3,3.3,0,0,1,.05-.7c.83-6.14,8-7.24,14.61-8.26l3.75-.57C253,284.93,254.88,282.06,257.13,282.06Zm-14.39,29.88c-1.86-1.5-3.53-2.56-5-2.56a3,3,0,0,0-3,3c0,1.72,1.24,2.39,2.74,2.39a6.69,6.69,0,0,0,4.81-2.3A4.93,4.93,0,0,1,242.74,311.94Zm15-27.5a.59.59,0,0,0-.61-.61c-1,0-2.12,1.5-2.83,3C256.16,286.43,257.74,285.15,257.74,284.44Z" style="fill:#fff"></path><path d="M268.38,313.57a5.17,5.17,0,0,1-3.35-1.19c-1.63,2.21-3.88,4-6,4-2.87,0-3.84-1.9-3.84-4.46a23,23,0,0,1,3.75-11.78c1.85-3.09,4-4.64,6.22-4.64,2.92.09,4.42,2.08,4.42,4.73s-1.42,7.1-3.45,10.54a2.69,2.69,0,0,0,2.25.93c1.86,0,3.4-1.68,4.95-5.34a.9.9,0,0,1,.84-.57.93.93,0,0,1,.88,1.28C273.11,311.54,271,313.57,268.38,313.57ZM265.69,307a4.27,4.27,0,0,0-.17,1,19.64,19.64,0,0,0,2.2-7.81,2.52,2.52,0,0,0-2.6-2.82c-1.68,0-3.27,1.54-4.55,3.75-1.15,1.9-3.48,6.18-3.48,10.72,0,1.59.52,2.7,1.94,2.7,1.63,0,3.48-1.77,4.94-3.84a7.6,7.6,0,0,1-.09-4.2.94.94,0,1,1,1.81.49Z" style="fill:#fff"></path><path d="M290.37,306.73a1.19,1.19,0,0,1-.09.36c-1,3.31-3.75,6.48-6.84,6.48a4.27,4.27,0,0,1-3.09-1.19c-2.16,2.92-3.44,4-5.34,4-2.21,0-3.18-1.55-3.18-3.71,0-2.82,2.16-7.9,5.25-16.68a.94.94,0,0,1,.89-.58.92.92,0,0,1,.88,1.24c-3.84,10.59-5.17,14.34-5.17,16,0,1.28.36,1.86,1.33,1.86,1.54,0,3.18-2.08,4.19-3.84a7.16,7.16,0,0,1,0-4.2.92.92,0,0,1,.88-.7A1,1,0,0,1,281,307a9.57,9.57,0,0,0-.22,1.06c.48-.8,5.47-10.68,6.13-12.14a1.06,1.06,0,0,1,.88-.53,1.11,1.11,0,0,1,.4.09,1.06,1.06,0,0,1,.53.88,1.16,1.16,0,0,1-.09.4c-1.5,3.09-6.4,12.67-7.24,14a2.78,2.78,0,0,0,2.12.93c2.34,0,4.37-2.82,5.08-5.34a.8.8,0,0,1,.84-.57,1.1,1.1,0,0,1,.39.09A.89.89,0,0,1,290.37,306.73Z" style="fill:#fff"></path><path d="M304.36,306.78a.91.91,0,0,1-.09.35c-2.87,6.36-6.22,9.27-10.68,9.27-3.66,0-5.87-2.43-5.78-6,.26-5.65,4.85-14.83,10.06-14.83,2.21,0,3.75,1.15,3.75,3.27,0,4.68-6.57,7.5-11.47,8.69a13.27,13.27,0,0,0-.49,2.92c-.08,2.51,1.33,4.06,4,4.15,3.61.08,6.44-2.48,8.91-8.17a.95.95,0,0,1,1.81.4Zm-4.59-8c0-1.19-.93-1.41-1.9-1.41-3,0-5.6,4.59-7,8C294.52,304.22,299.77,302.06,299.77,298.79Z" style="fill:#fff"></path><path d="M237.92,326.93a2.39,2.39,0,0,1,2.61,2.39c0,2.07-3.18,3.75-6.31,4.59-2.56,6.27-5.74,17.43-5.74,20.26s1,4,3,4c2.65,0,4.77-1.77,6.54-4.24,2.38-3.26,2.78-4.54,6.17-13,1.33-3.57,2.83-7.77,4.37-11.87a.91.91,0,0,1,.89-.62.86.86,0,0,1,.88.88,1.11,1.11,0,0,1,0,.36L246,341.5c-.13.26-6,16.77-6.8,18.89l-.7,1.94c5.07-1.72,8.16-5.78,10.37-11a1,1,0,0,1,.84-.57,1.21,1.21,0,0,1,.4.09.94.94,0,0,1,.57.84,1.38,1.38,0,0,1-.09.39c-2.74,6.45-6.4,10.55-12.84,12.45-2.12,6-4.86,9.18-8,9.22a4,4,0,0,1-4.37-4.28c0-2.78,2.17-4.81,7.46-5.78,1.11-.18,2.3-.4,3.49-.71,1.1-3.09,1.81-5.16,2.43-6.93-1.94,2.39-4.28,3.93-7.2,3.93-3.22,0-4.94-2.34-4.94-5.82,0-2.83,2.65-12.05,5.47-19.82-.88.18-1.81.31-2.73.44-5.56.88-13.11,1.94-13.11,7.24,0,2.34,1.54,4,3.48,4a.91.91,0,0,1,.93.93.89.89,0,0,1-1,.93c-3.09,0-5.3-2.61-5.3-5.92,0-6.66,8.3-8,14.66-9l3.79-.62C233.77,329.8,235.67,326.93,237.92,326.93Zm-4.76,38.62c-4.06.71-5.79,1.86-6,3.89a2.31,2.31,0,0,0,2.51,2.47c2.39,0,4.42-2.38,5.87-6.84C234.75,365.25,234,365.42,233.16,365.55Zm5.38-36.23a.6.6,0,0,0-.62-.62c-1,0-2.11,1.5-2.82,3C237,331.3,238.54,330,238.54,329.32Z" style="fill:#fff"></path><path d="M261.19,358.49a5.19,5.19,0,0,1-3.36-1.19c-1.63,2.21-3.88,4-6,4-2.87,0-3.84-1.9-3.84-4.46a23.05,23.05,0,0,1,3.75-11.78c1.86-3.09,4-4.64,6.23-4.64,2.91.09,4.41,2.08,4.41,4.72s-1.41,7.11-3.44,10.55a2.67,2.67,0,0,0,2.25.93c1.85,0,3.4-1.68,4.94-5.34a.93.93,0,1,1,1.72.7C265.91,356.46,263.84,358.49,261.19,358.49Zm-2.69-6.57a3.85,3.85,0,0,0-.18,1,19.55,19.55,0,0,0,2.21-7.81,2.53,2.53,0,0,0-2.61-2.83c-1.67,0-3.26,1.55-4.54,3.76-1.15,1.89-3.49,6.17-3.49,10.72,0,1.59.53,2.69,1.94,2.69,1.64,0,3.49-1.76,4.95-3.84a7.48,7.48,0,0,1-.09-4.19.91.91,0,0,1,.92-.71A.93.93,0,0,1,258.5,351.92Z" style="fill:#fff"></path><path d="M285.64,351.65a1.16,1.16,0,0,1-.09.4c-2.86,6.57-5.07,9.27-8,9.27-1.94,0-2.91-1.19-3.18-3.14a6.94,6.94,0,0,1-5.29,3.14H269c-2.78,0-4.23-1.59-4.23-4.59,0-2.21,1.06-4.81,5.29-15.8a.91.91,0,0,1,.84-.58.89.89,0,0,1,.88,1.24c-4.67,12.44-5.16,13.37-5.16,15.14s.84,2.73,2.43,2.73c1.81,0,3.62-1.5,5.07-4.5s3.18-7.77,5.48-14a.89.89,0,0,1,.84-.58.94.94,0,0,1,.92,1.24c-1,2.56-1.81,4.94-2.47,6.71-1.68,4.54-2.69,8.12-2.69,9.31s.4,1.85,1.32,1.85c2.12,0,3.84-2.51,6.36-8.16a.91.91,0,0,1,.84-.58,1.38,1.38,0,0,1,.39.09A1,1,0,0,1,285.64,351.65Z" style="fill:#fff"></path><path d="M381.1,326.58c-.71,14.32-13.45,48.18-34.28,54.18-16.5,4.75-33.44,5.05-45.39-4a33.68,33.68,0,0,1-8.3-9.14c-11.29-18-2-46.2,10-52.79s43.59-5.8,43.59-5.8a42.64,42.64,0,0,0,2.2-12.43c.05-4.41-1.79-9.19-.46-13.5.85-2.72,2.63-4.89,3.07-7.57C359.75,286,381.66,314.94,381.1,326.58Z" style="fill:#C53F3F"></path><g style="opacity:0.2"><path d="M291.84,329.24c6.66-7.09,15.53-11.44,24.86-13.84,10.62-2.73,21.87-2.4,32.68-1.18,6.17.7,12.28,1.81,18.4,2.84a129.21,129.21,0,0,0-12.09-29.95q-2.31-4.16-4.93-8.13c-.07-.11.11-.25.2-.14a111.32,111.32,0,0,1,15.7,29.73c1.06,3,2,6.1,2.8,9.21.15.59-.39,1-.91.86-5.68-.92-11.41-1.73-17.14-2.38a136.86,136.86,0,0,0-17.17-1c-9.73.11-19.76,1.65-28.7,5.64a51.59,51.59,0,0,0-13.5,8.54A.15.15,0,0,1,291.84,329.24Z" style="fill:#030402"></path><path d="M319.2,320.64a12.77,12.77,0,0,0-3.42-2,25.32,25.32,0,0,0-3.3-1.28l-.12-.54a6.6,6.6,0,0,0-.89-2.18,2.7,2.7,0,0,0-1.6-1.26.08.08,0,0,0-.08.13,7.09,7.09,0,0,1,.78.77,3.61,3.61,0,0,1,.45,1,10.88,10.88,0,0,1,.39,1.8c-1-.23-2.06-.39-3.09-.56-.65-.12-1.31-.21-2-.33s-1.26-.4-1.9-.48h0c-.19,0-.37.19-.2.34a5.47,5.47,0,0,0,1.51.75,16,16,0,0,0,1.76.62c1.25.34,2.52.59,3.74,1l.35.15a15.58,15.58,0,0,0,1,4.9c.21.44.78.13.81-.24a11.38,11.38,0,0,0-.36-3.29c-.06-.28-.14-.56-.2-.84l2,.92a13.62,13.62,0,0,0,3.88,1.42C319.19,321.52,319.59,321,319.2,320.64Z" style="fill:#030402"></path><path d="M338.35,317.21a30.58,30.58,0,0,0-2.79-2.26,28.46,28.46,0,0,0-2.95-1.82c-.51-.28-1-.55-1.56-.78a4.52,4.52,0,0,0-1.5-.51c-.14,0-.17.14-.11.23h0a5.56,5.56,0,0,0,1.19.9l1.44,1c.93.66,1.8,1.39,2.66,2.13s1.69,1.51,2.48,2.32a7.39,7.39,0,0,0,2.6,2.19c.42.15.7-.31.63-.66C340.21,318.81,339.17,318,338.35,317.21Z" style="fill:#030402"></path><path d="M342.92,317.2a12.8,12.8,0,0,0-1.3-2.42,18.18,18.18,0,0,0-1.61-2,8.67,8.67,0,0,0-.93-.89,10.8,10.8,0,0,0-1-.65h0s0-.08,0-.11-.26-.16-.34,0,.4.63.56.78a9.15,9.15,0,0,1,1.85,2.43,23.92,23.92,0,0,1,1.19,2.76c.19.5.4,1,.62,1.47a3.74,3.74,0,0,0,.8,1.36c.23.2.69.14.74-.21A5.24,5.24,0,0,0,342.92,317.2Z" style="fill:#030402"></path><path d="M370.39,306.9c-1.07-1.91-3.89-2-5.8-2.11a24.58,24.58,0,0,0-3.74,0,16,16,0,0,0-3.65.45.12.12,0,0,0,0,.22c1,.21,2.13.17,3.18.28s2.37.31,3.56.48,2.17.34,3.26.51a7.61,7.61,0,0,1,2.65.71A.4.4,0,0,0,370.39,306.9Z" style="fill:#030402"></path></g><path d="M325,384.29c2.29-.29,4.6-.39,6.89-.67a51.24,51.24,0,0,0,6.94-1.35,50.26,50.26,0,0,0,12.76-5.43A48.43,48.43,0,0,0,362.46,368a67.5,67.5,0,0,0,8.2-11.38c1.34-2.27,2.61-4.6,3.76-7,.6-1.21,1.12-2.46,1.69-3.68s1.05-2.47,1.73-3.61c0-.06.16,0,.15,0a24.36,24.36,0,0,1-.88,3.46c-.32,1.13-.75,2.24-1.18,3.33-.88,2.31-1.8,4.59-2.9,6.8a58.76,58.76,0,0,1-8,12.12,51.41,51.41,0,0,1-24,15.62,50.89,50.89,0,0,1-7.81,1.73,26.91,26.91,0,0,1-8.21.12C324.39,385.45,324.42,384.37,325,384.29Z" style="fill:#263238"></path><path d="M312.68,386.6a34.26,34.26,0,0,0,6.71-1.57,18.57,18.57,0,0,0,3.12-1.48,14.85,14.85,0,0,0,1.48-1,4.92,4.92,0,0,1,1.23-.85c.06,0,.1,0,.09.09a3.16,3.16,0,0,1-.84,1.4,13.63,13.63,0,0,1-4.37,3.52,10.38,10.38,0,0,1-7.44.88A.51.51,0,0,1,312.68,386.6Z" style="fill:#263238"></path><path d="M311.06,383.82a14.35,14.35,0,0,1,2.54-.32c.8-.07,1.62-.11,2.42-.21a16.31,16.31,0,0,0,2.4-.43l1.17-.39.62-.23.35-.1h0a.21.21,0,0,1,.34-.09c.29.21,0,.57-.2.74a7.23,7.23,0,0,1-2.85,1.62,12.52,12.52,0,0,1-3.32.59,10.69,10.69,0,0,1-3.48-.24A.49.49,0,0,1,311.06,383.82Z" style="fill:#263238"></path><path d="M299.41,375.5a8.18,8.18,0,0,1,1.52.8c.58.34,1.18.64,1.76,1,1.13.65,2.3,1.24,3.47,1.8,2.5,1.2,5,2.36,7.54,3.46.07,0,.22.41-.25.41a19.27,19.27,0,0,1-8-2.27A20,20,0,0,1,302,378.6a15.31,15.31,0,0,1-1.56-1.34,5.88,5.88,0,0,1-1.27-1.46A.21.21,0,0,1,299.41,375.5Z" style="fill:#263238"></path><path d="M288.51,355.44a29.71,29.71,0,0,0,3.48,6,30.08,30.08,0,0,0,5,4.72,25.84,25.84,0,0,0,6,3.68,31,31,0,0,0,7.4,2,32.53,32.53,0,0,0,8.87,0c.08,0,.14.1,0,.14a22,22,0,0,1-15.89.15,26.43,26.43,0,0,1-6.77-3.67,22.29,22.29,0,0,1-4.95-5.52,23.16,23.16,0,0,1-3.49-7.42C288.2,355.39,288.44,355.29,288.51,355.44Z" style="fill:#263238"></path><path d="M288.46,344.27a18.55,18.55,0,0,0,9.37,4.18c4.11.59,8.14-.48,12.11-1.46,1.1-.27,2.17-.6,3.24-.95a12.67,12.67,0,0,0,3.26-1.43c.08-.05.16.07.09.13a15.05,15.05,0,0,1-2.47,1.78c-1,.54-2,1-3,1.47a26.11,26.11,0,0,1-6.42,2.16,22,22,0,0,1-6.58.32,14.61,14.61,0,0,1-5.53-1.58A12.85,12.85,0,0,1,290,347a14.37,14.37,0,0,1-1.93-2.41C287.91,344.32,288.27,344.07,288.46,344.27Z" style="fill:#263238"></path><path d="M206.87,367.66a34.29,34.29,0,0,1-7,8.08c-12,10.09-29.6,9.94-46.72,5-20.83-6-33.57-39.86-34.28-54.18-.69-14.14,31.8-53.86,32.57-54.79-.46,1.25-.88,2.49-1.24,3.74a16.71,16.71,0,0,0-.48,4.16c-.13,2.27-1,2.88-1.94,4.84-1.4,2.88.61,5.51.52,8.49-.1,3.32-2.25,6.21-1.18,9.57.84,2.6,3,4,4.84,5.8l0,.7h.59c4.52-.07,33.17-.27,44.24,5.79C208.87,321.46,218.16,349.65,206.87,367.66Z" style="fill:#C53F3F"></path><g style="opacity:0.2"><path d="M208.16,329.24c-6.66-7.09-15.53-11.44-24.86-13.84-10.62-2.73-21.87-2.4-32.68-1.18-6.17.7-12.28,1.81-18.4,2.84a129.21,129.21,0,0,1,12.09-29.95q2.31-4.16,4.93-8.13c.07-.11-.11-.25-.2-.14a111.32,111.32,0,0,0-15.7,29.73q-1.59,4.55-2.8,9.21c-.15.59.39,1,.91.86,5.68-.92,11.41-1.73,17.14-2.38a136.86,136.86,0,0,1,17.17-1c9.73.11,19.76,1.65,28.7,5.64a51.59,51.59,0,0,1,13.5,8.54A.15.15,0,0,0,208.16,329.24Z" style="fill:#030402"></path><path d="M140.36,308.23a19.79,19.79,0,0,0-8,2.33,27.33,27.33,0,0,0-3.58,2.11c-.23.16-2.4,1.74-2,2s.83-.17,1.16-.33c.57-.27,1.12-.56,1.67-.84,1.18-.61,2.39-1.18,3.61-1.7,2.39-1,4.86-1.84,7.23-2.9C140.78,308.74,140.76,308.22,140.36,308.23Z" style="fill:#030402"></path><path d="M165.57,310.84a13.91,13.91,0,0,0-4.67,3c0-.89,0-1.78.08-2.67h0c0-.16,0-.32,0-.48a.19.19,0,0,0-.36-.09,12,12,0,0,0-.79,4.23c-.64.62-1.25,1.28-1.83,1.94a10.68,10.68,0,0,0-2.15,3c-.12.33.3.52.55.4a10.17,10.17,0,0,0,2.61-2.29c.31-.32.6-.65.9-1a8.31,8.31,0,0,0,1.23,3.6c.17.25.66.16.62-.18-.21-1.56-.6-3.09-.78-4.65l.26-.3a24.31,24.31,0,0,1,4.39-4.27C165.75,311,165.69,310.8,165.57,310.84Z" style="fill:#030402"></path><path d="M188.73,313.47a5.56,5.56,0,0,0-2.42,1.6,22.08,22.08,0,0,0-2.21,2.33,13.25,13.25,0,0,0-1.74,2.74,4,4,0,0,0-.48,3.1.33.33,0,0,0,.59.06,39.36,39.36,0,0,1,2.83-5c.5-.82,1-1.63,1.61-2.4l.84-1.09a3.51,3.51,0,0,1,1.05-1.18C188.88,313.56,188.81,313.45,188.73,313.47Z" style="fill:#030402"></path><path d="M191.51,314.19c-.27.41-.66.76-.95,1.16s-.48.72-.7,1.09a13.48,13.48,0,0,0-1.09,2.42,12.2,12.2,0,0,0-.64,2.6,5.2,5.2,0,0,0,.25,2.71c.11.25.52.39.67.07a9.8,9.8,0,0,0,.59-2.4c.14-.86.23-1.72.42-2.57s.41-1.67.66-2.49c.12-.38.26-.76.39-1.13a6.65,6.65,0,0,1,.53-1.39C191.7,314.18,191.56,314.1,191.51,314.19Z" style="fill:#030402"></path></g><path d="M175,384.29c-2.29-.29-4.6-.39-6.89-.67a51.24,51.24,0,0,1-6.94-1.35,50.26,50.26,0,0,1-12.76-5.43A48.43,48.43,0,0,1,137.54,368a67.5,67.5,0,0,1-8.2-11.38c-1.34-2.27-2.61-4.6-3.76-7-.6-1.21-1.12-2.46-1.69-3.68s-1-2.47-1.73-3.61c0-.06-.16,0-.15,0a24.36,24.36,0,0,0,.88,3.46c.32,1.13.75,2.24,1.18,3.33.88,2.31,1.8,4.59,2.9,6.8a58.76,58.76,0,0,0,8,12.12,51.41,51.41,0,0,0,24,15.62,50.89,50.89,0,0,0,7.81,1.73,26.91,26.91,0,0,0,8.21.12C175.61,385.45,175.58,384.37,175,384.29Z" style="fill:#263238"></path><path d="M187.32,386.6a34.43,34.43,0,0,1-6.71-1.57,18.57,18.57,0,0,1-3.12-1.48,14.85,14.85,0,0,1-1.48-1,4.92,4.92,0,0,0-1.23-.85c-.06,0-.1,0-.09.09a3.16,3.16,0,0,0,.84,1.4,13.63,13.63,0,0,0,4.37,3.52,10.38,10.38,0,0,0,7.44.88A.51.51,0,0,0,187.32,386.6Z" style="fill:#263238"></path><path d="M188.94,383.82a14.35,14.35,0,0,0-2.54-.32c-.8-.07-1.62-.11-2.42-.21a16.31,16.31,0,0,1-2.4-.43l-1.17-.39-.62-.23-.35-.1h0a.21.21,0,0,0-.34-.09c-.29.21,0,.57.2.74a7.23,7.23,0,0,0,2.85,1.62,12.52,12.52,0,0,0,3.32.59,10.69,10.69,0,0,0,3.48-.24A.49.49,0,0,0,188.94,383.82Z" style="fill:#263238"></path><path d="M200.59,375.5a8.18,8.18,0,0,0-1.52.8c-.58.34-1.18.64-1.76,1-1.13.65-2.3,1.24-3.47,1.8-2.5,1.2-5,2.36-7.54,3.46-.07,0-.22.41.25.41a19.27,19.27,0,0,0,8-2.27A20,20,0,0,0,198,378.6a15.31,15.31,0,0,0,1.56-1.34,5.88,5.88,0,0,0,1.27-1.46A.21.21,0,0,0,200.59,375.5Z" style="fill:#263238"></path><path d="M211.49,355.44a29.71,29.71,0,0,1-3.48,6,30.08,30.08,0,0,1-5,4.72,25.84,25.84,0,0,1-6.05,3.68,31,31,0,0,1-7.4,2,32.53,32.53,0,0,1-8.87,0c-.08,0-.14.1-.05.14a22,22,0,0,0,15.89.15,26.43,26.43,0,0,0,6.77-3.67,22.29,22.29,0,0,0,5-5.52,23.16,23.16,0,0,0,3.49-7.42C211.8,355.39,211.56,355.29,211.49,355.44Z" style="fill:#263238"></path><path d="M211.54,344.27a18.55,18.55,0,0,1-9.37,4.18c-4.11.59-8.14-.48-12.11-1.46-1.1-.27-2.17-.6-3.24-.95a12.67,12.67,0,0,1-3.26-1.43c-.08-.05-.16.07-.09.13a15.05,15.05,0,0,0,2.47,1.78c1,.54,2,1,3,1.47a26.11,26.11,0,0,0,6.42,2.16,22,22,0,0,0,6.58.32,14.61,14.61,0,0,0,5.53-1.58A12.85,12.85,0,0,0,210,347a14.37,14.37,0,0,0,1.93-2.41C212.09,344.32,211.73,344.07,211.54,344.27Z" style="fill:#263238"></path></g></svg>