<svg xmlns="http://www.w3.org/2000/svg" viewBox="0 0 500 500"><g id="freepik--background-complete--inject-19"><path d="M113.82,265.32c-14.21-8.38-23.27,10.62-23.27,10.62S71.69,265.93,65,281c-5.87,13.24,8.77,22.34,17.58,25.72,5.59,2.15,17.6,4.8,19.16,5.14v0l0,0,.13,0,0-.13c1.07-1.19,9.3-10.32,12.6-15.31C119.67,288.6,126.3,272.68,113.82,265.32Z" style="fill:#e0e0e0"></path><path d="M216.52,125.3c-7.31-5.45-13.4,4.46-13.4,4.46s-9.78-6.61-14.34,1.29c-4,6.92,3.5,12.78,8.15,15.16a99.85,99.85,0,0,0,10.22,3.95v0h0l.07,0,0-.07a101.48,101.48,0,0,0,7.82-7.67C218.37,138.42,222.94,130.07,216.52,125.3Z" style="fill:#e0e0e0"></path><path d="M421.78,265.17c-6.71-15.08-25.11-4.87-25.11-4.87s-9.56-19.09-23.76-10.69c-12.46,7.38-5.82,23.28-.61,31.16,3.3,5,11.54,14.12,12.61,15.3v0h0l.09.1,0-.13c1.57-.34,13.57-3,19.15-5.16C413,287.52,427.66,278.4,421.78,265.17Z" style="fill:#f5f5f5"></path><path d="M107.89,190.1c-8.11-6-14.84,5-14.84,5s-10.85-7.29-15.89,1.46c-4.42,7.69,3.91,14.16,9.06,16.79a110.91,110.91,0,0,0,11.33,4.35v0l0,0,.08,0,0-.08a113,113,0,0,0,8.65-8.52C110,204.64,115,195.38,107.89,190.1Z" style="fill:#f5f5f5"></path><path d="M84.93,66.9c-9.85-2.22-11.56,10.55-11.56,10.55S60.5,75.17,59.43,85.21C58.5,94,68.73,96.58,74.51,96.9a113.21,113.21,0,0,0,12.12-.6l0,0v0h.08l0-.07a111.07,111.07,0,0,0,4.46-11.29C92.71,79.36,93.58,68.85,84.93,66.9Z" style="fill:#f5f5f5"></path><path d="M197.85,45.21c-3.25-9.56-15-4.35-15-4.35S178,28.69,168.92,33c-8,3.8-4.84,13.87-2.09,19a110,110,0,0,0,6.84,10v0h0l0,.07,0-.08a109.7,109.7,0,0,0,12-2.09C191.29,58.35,200.71,53.6,197.85,45.21Z" style="fill:#f5f5f5"></path><path d="M420,196.44c-9.86-2.22-11.57,10.55-11.57,10.55s-12.87-2.28-13.94,7.76c-.93,8.82,9.31,11.37,15.08,11.69a113.05,113.05,0,0,0,12.12-.6l0,0v0h.08l-.05-.07a110.62,110.62,0,0,0,4.47-11.29C427.8,208.9,428.67,198.39,420,196.44Z" style="fill:#f5f5f5"></path><path d="M37.05,317.8s-9.52,5.34,4.76,25.17,23.52,29.3,23.52,29.3,2.72,4.7-1.37,6.12-13.57,1.37-14.65,6.8c-1.12,5.64,3.53,10.07,12.06,13.28s27,10.92,28.65,11.63,3.49,2.78.86,4.2-23.11,6.78-20,16.35,28.38,14.6,31.13,15.2,3.54,1.61,3.54,3.07-7,2.61-12.81,4.38-12.14,4.83-9.87,10.2,18.23,14.93,53.15,13l16.11-1.94,6.65-14.89c12.28-32.74,7.94-50.84,3.5-54.61s-9.27,1.39-12.68,6.36-6.63,11.36-8,10.92-2.11-1.5-1.86-4.31,3-28.4-5.18-34.25S115.1,395.88,113,398s-3.58-.31-3.75-2.08-2-21.71-2.51-30.81-3.35-14.87-9.06-15.49c-5.51-.59-8.3,8.47-10.88,11.94s-6.24-.52-6.24-.52-6.28-11.66-20.92-31.22-22.75-11.86-22.75-11.86" style="fill:#ebebeb"></path><path d="M153.56,478.21c-10.69-14.41-29.27-40.34-45.33-62.52S77.61,373.46,67,359l-12.6-17.11c-1.47-2-2.62-3.58-3.42-4.66L50.09,336c-.19-.27-.28-.42-.28-.42l.32.39.92,1.19,3.5,4.6c3,4,7.38,9.81,12.73,17,10.69,14.41,25.3,34.44,41.36,56.61s34.59,48.15,45.21,62.61" style="fill:#e0e0e0"></path><path d="M62.58,385.8a5.81,5.81,0,0,1,1.16.14c.75.12,1.82.32,3.14.59,2.65.53,6.28,1.36,10.27,2.35l10.22,2.57,3.1.76a5.07,5.07,0,0,1,1.12.32,4.56,4.56,0,0,1-1.16-.13c-.75-.12-1.82-.32-3.14-.6-2.64-.56-6.26-1.44-10.26-2.43l-10.22-2.49-3.11-.75A4.69,4.69,0,0,1,62.58,385.8Z" style="fill:#e0e0e0"></path><path d="M92.53,391.34c-.13,0,1.25-7.6,3.09-16.9s3.44-16.83,3.58-16.8-1.24,7.59-3.09,16.9S92.67,391.36,92.53,391.34Z" style="fill:#e0e0e0"></path><path d="M115.66,426.51a5.31,5.31,0,0,1,.5-1.09c.41-.78.91-1.75,1.5-2.9,1.27-2.44,3-5.82,4.77-9.62s3.28-7.29,4.34-9.83l1.25-3a6.56,6.56,0,0,1,.52-1.09,5.79,5.79,0,0,1-.33,1.16c-.25.73-.62,1.78-1.11,3.06-1,2.58-2.43,6.1-4.21,9.91s-3.57,7.18-4.91,9.58c-.68,1.2-1.24,2.17-1.65,2.82A5.72,5.72,0,0,1,115.66,426.51Z" style="fill:#e0e0e0"></path><path d="M87.47,427.46a5.43,5.43,0,0,1,1.09-.15l3-.22c2.54-.16,6-.35,9.92-.54s7.39-.31,9.93-.39l3-.06a5.15,5.15,0,0,1,1.11,0,4.19,4.19,0,0,1-1.1.15l-3,.22c-2.54.16-6,.36-9.93.54s-7.38.32-9.92.39l-3,.06A4.32,4.32,0,0,1,87.47,427.46Z" style="fill:#e0e0e0"></path><path d="M103.94,461.1a8.74,8.74,0,0,1,1.41-.17l3.85-.3c3.25-.23,7.74-.51,12.71-.79s9.46-.51,12.72-.64l3.86-.14a7.19,7.19,0,0,1,1.42,0,9.32,9.32,0,0,1-1.41.18l-3.85.29c-3.25.23-7.75.51-12.71.79s-9.46.51-12.72.64l-3.86.14A7.13,7.13,0,0,1,103.94,461.1Z" style="fill:#e0e0e0"></path><path d="M139,458.88a9.93,9.93,0,0,1,.6-1.39l1.77-3.74c1.49-3.15,3.53-7.52,5.65-12.4s3.94-9.35,5.23-12.59l1.52-3.84a8.64,8.64,0,0,1,.62-1.39A8.74,8.74,0,0,1,154,425c-.31.93-.78,2.27-1.38,3.9-1.2,3.28-3,7.78-5.09,12.67s-4.22,9.24-5.8,12.36c-.79,1.56-1.44,2.81-1.92,3.67A8,8,0,0,1,139,458.88Z" style="fill:#e0e0e0"></path><path d="M351,473c-16.88-14.72-18.48-38.84-15.46-60.05.5-3.54.52-7.32,2.54-10.26s6.2-4.64,9.22-2.8c2.5,1.53,3.32,4.72,4.53,7.42a20.76,20.76,0,0,0,7.47,8.85c2.13,1.42,4.86,2.44,7.22,1.45,3.25-1.36,4.07-5.55,4.42-9.09l2-19.77c.36-3.53.74-7.14,2.2-10.38s4.22-6.08,7.68-6.66,7.41,1.8,7.75,5.34a32.93,32.93,0,0,1-.37,4.41c-.06,1.47.44,3.17,1.79,3.73s2.89-.28,4.06-1.2c4-3.18,7-7.51,9.8-11.83s5.56-8.75,9.29-12.29,8.63-6.12,13.72-5.86,10.15,4,10.89,9.06-2.7,9.86-6.3,13.55a79.34,79.34,0,0,1-18.11,13.89,6.57,6.57,0,0,0-3.06,2.65c-1,2.28,1,4.86,3.2,5.88,2.54,1.16,5.43,1.2,8.15,1.82s5.57,2.16,6.33,4.87c1.06,3.77-2.37,7.23-5.61,9.39a67.82,67.82,0,0,1-21.24,9.38c-2.7.67-5.52,1.21-7.82,2.81s-3.9,4.64-2.9,7.27,4.17,3.77,6.94,3.56,5.37-1.43,8.07-2.13c5.06-1.3,11.29-.29,13.95,4.24,1.75,3,1.51,6.84.12,10a26,26,0,0,1-6.29,8.16,68.43,68.43,0,0,1-31.21,17.26c-11.68,2.69-22.23,2.62-33-2.68" style="fill:#ebebeb"></path><path d="M357.88,460.25a317.59,317.59,0,0,1,16.24-32.73l4.69-8.36c1.55-2.74,3.09-5.46,4.75-8A159,159,0,0,1,394,396.94c3.53-4.35,7-8.35,10.35-12.07s6.48-7.12,9.49-10.1a125.6,125.6,0,0,1,15.24-13c1.91-1.39,3.43-2.42,4.47-3.1l1.18-.77a2.18,2.18,0,0,1,.42-.24,2.26,2.26,0,0,1-.38.3l-1.15.82c-1,.72-2.51,1.78-4.39,3.19a133.93,133.93,0,0,0-15.07,13.11c-3,3-6.11,6.41-9.41,10.13S398,393,394.44,397.33a160.21,160.21,0,0,0-10.34,14.16c-1.65,2.55-3.17,5.25-4.72,8l-4.69,8.35a326.44,326.44,0,0,0-16.26,32.65" style="fill:#e0e0e0"></path><path d="M383.75,411.13a8.24,8.24,0,0,1-.18-1.54c-.08-1-.15-2.44-.21-4.23-.12-3.57-.12-8.51-.09-13.95s0-10.37-.22-13.93c-.09-1.78-.17-3.22-.23-4.22a7.33,7.33,0,0,1,0-1.55,6.2,6.2,0,0,1,.29,1.52c.14,1,.3,2.43.44,4.22.29,3.56.43,8.5.41,14s-.07,10.23-.1,13.94v4.23A6.51,6.51,0,0,1,383.75,411.13Z" style="fill:#e0e0e0"></path><path d="M430.09,407.54a10.42,10.42,0,0,1-1.83,0c-1.18,0-2.88-.06-5-.05-4.21,0-10,.21-16.42.72s-12.19,1.23-16.35,1.87c-2.09.3-3.77.59-4.93.79a8.9,8.9,0,0,1-1.82.24,9.86,9.86,0,0,1,1.77-.49c1.15-.28,2.83-.64,4.91-1,4.15-.76,9.94-1.55,16.37-2.07a160.19,160.19,0,0,1,16.48-.52c2.11,0,3.81.15,5,.25A9.14,9.14,0,0,1,430.09,407.54Z" style="fill:#e0e0e0"></path><path d="M358.53,459.48a2.28,2.28,0,0,1-.26-.59l-.6-1.73c-.51-1.5-1.2-3.69-2-6.41-1.63-5.44-3.65-13-5.76-21.43s-4-16-5.57-21.46c-.74-2.66-1.36-4.85-1.81-6.47-.2-.71-.35-1.29-.49-1.76a2.52,2.52,0,0,1-.12-.63,2.1,2.1,0,0,1,.25.59l.6,1.72c.51,1.5,1.2,3.7,2,6.42,1.63,5.44,3.64,13,5.75,21.42s4.06,16,5.57,21.46c.75,2.66,1.36,4.85,1.82,6.47l.48,1.77A2.78,2.78,0,0,1,358.53,459.48Z" style="fill:#e0e0e0"></path><path d="M421,446.53a2.62,2.62,0,0,1-.62.18l-1.82.4-6.69,1.4c-5.65,1.18-13.43,2.9-22,4.81s-16.4,3.57-22.08,4.64c-2.83.53-5.13.94-6.73,1.19l-1.83.27a2.67,2.67,0,0,1-.65.06s.21-.09.62-.19l1.82-.4,6.69-1.39c5.64-1.18,13.43-2.91,22-4.82s16.4-3.57,22.07-4.63c2.84-.54,5.14-.95,6.74-1.19l1.83-.28A1.89,1.89,0,0,1,421,446.53Z" style="fill:#e0e0e0"></path></g><g id="freepik--Bear--inject-19"><path d="M254.26,371.45a4.93,4.93,0,0,1-1.39.49,1.84,1.84,0,0,1-.89,0q-.51-.23-2.36-3.81A89.54,89.54,0,0,1,245.39,358q-1.94-5.41.51-6.68a1,1,0,0,1,1.15.2,3.28,3.28,0,0,1,.87,1.06,24.07,24.07,0,0,1,2.27,10.58c.85,1.79,1.61,3.35,2.28,4.65s1.13,1.9,1.36,1.78.62-.91.8-2.12a23,23,0,0,0,.15-4.38c-.09-1.7-.06-2.59.08-2.66s.25,0,.34.15a8.83,8.83,0,0,1,.53,3.31C255.9,368.35,255.4,370.86,254.26,371.45Zm-7-18.15c-.35-.68-.61-1-.78-.89q-.94.49,2.69,8.66A23.33,23.33,0,0,0,247.27,353.3Z" style="fill:#fff"></path><path d="M263.84,357.55a10.49,10.49,0,0,0,1.4-1.63l.51-.85.27-.42a.63.63,0,0,1,.2-.22.26.26,0,0,1,.4.15c.1.19-.05.7-.47,1.52a12,12,0,0,1-1.79,2.55,8.11,8.11,0,0,1,.55,5.21,5.93,5.93,0,0,1-3.32,3.81,3.86,3.86,0,0,1-3.85,0,7.36,7.36,0,0,1-3-3.16,8,8,0,0,1-.81-4.65,4.25,4.25,0,0,1,2.27-3.55,4,4,0,0,1,1.79-1.73,3.32,3.32,0,0,1,2.95.13A6.09,6.09,0,0,1,263.84,357.55Zm-1.24,2.7-1.11.65a4.14,4.14,0,0,1-2.94.41,2.9,2.9,0,0,1-2-1.4,4.94,4.94,0,0,1-.58-2c-.54,1.19-.27,2.85.83,5a7.75,7.75,0,0,0,2.14,2.58,2.37,2.37,0,0,0,2.73.36,2.73,2.73,0,0,0,1.53-2.27A6.6,6.6,0,0,0,262.6,360.25ZM257.9,356a1,1,0,0,0-.56.88,2.09,2.09,0,0,0,.23,1.15,2.75,2.75,0,0,0,1.8,1.49,3.08,3.08,0,0,0,2.27-.24l.39-.2a11,11,0,0,0-2-2.57A1.79,1.79,0,0,0,257.9,356Z" style="fill:#fff"></path><path d="M272.29,360.18a2.79,2.79,0,0,0,1.4-2.24,9.42,9.42,0,0,0-.23-3.57,3.57,3.57,0,0,1-2.39-.33,4.14,4.14,0,0,1-2.09-4,2.14,2.14,0,0,1,1.26-1.74,1.26,1.26,0,0,1,1.45.32,5.37,5.37,0,0,1,1.33,1.71,16.93,16.93,0,0,1,.93,2.19,3.34,3.34,0,0,0,1.12-.33,3.84,3.84,0,0,0,1.8-2.38c.18-.58.34-.91.48-1s.26,0,.37.21a1.42,1.42,0,0,1,0,1,6.15,6.15,0,0,1-3.3,4.08,11.68,11.68,0,0,1,.14,4.9,4.33,4.33,0,0,1-2.3,3.2,2.44,2.44,0,0,1-2.26,0,7.9,7.9,0,0,1-3.45-3.79c-.34-.66-.73-1.54-1.16-2.64a7,7,0,0,1-.62-2.1,3.65,3.65,0,0,1,.58-1.39,3,3,0,0,1,.87-1.09c.32-.16.57-.06.77.33a10.1,10.1,0,0,1,1,4,20,20,0,0,0,2.36,3.69C271.13,360.1,271.78,360.44,272.29,360.18Zm-1.75-10.53c-.17.09-.07.49.29,1.19a3.17,3.17,0,0,0,2,1.51,5.48,5.48,0,0,0-.33-.79C271.7,350,271.05,349.39,270.54,349.65Z" style="fill:#fff"></path><path d="M284.16,356a3.81,3.81,0,0,1-3.53.11,5.5,5.5,0,0,1-2.64-2.53,9.16,9.16,0,0,1-1.25-6,5.26,5.26,0,0,1,2.88-3.74,2.91,2.91,0,0,1,2.08-.33,2.23,2.23,0,0,1,1.54,1.25,4.43,4.43,0,0,1,0,4,7.25,7.25,0,0,1-3.24,3.39A4.57,4.57,0,0,0,282,353.9a2.37,2.37,0,0,0,2.15.05,3.8,3.8,0,0,0,1.49-1.34,5.59,5.59,0,0,0,.74-2,20.83,20.83,0,0,0,.24-5.16c0-.48,0-.82,0-1a.44.44,0,0,1,.18-.42c.12-.06.22,0,.31.17q.82,1.59.52,5.78C287.37,352.94,286.23,355,284.16,356Zm-4.51-4.61a5.61,5.61,0,0,0,2.13-2.63,3.58,3.58,0,0,0-.32-2.78c-.5-1-1-1.28-1.67-1s-1.1,1.22-1.08,2.51A9.21,9.21,0,0,0,279.65,351.42Z" style="fill:#fff"></path><path d="M323.43,395.34l28,37.49s28.89-25.4,37.22-7c6.67,14.72-11.42,50.77-21.52,52.22s-60.38-.7-96.66,0l-112.17.31c-9.42-.05-16.74-7.45-18.76-16.65-2.87-13.07-4.88-32.59,1.61-52,13.71-40.89,24.87-73,24.87-73l129.06-.88Z" style="fill:#EB5187"></path><g style="opacity:0.30000000000000004"><path d="M301.83,386.28,223.15,390a128.17,128.17,0,0,0,13.48,52c5.33,10.65,13.81,21.66,26.05,22.9,6.82.7,13.68-1.94,18.92-6.14s9-9.82,12.09-15.68A87.41,87.41,0,0,0,301.83,386.28Z" style="fill:#fff"></path></g><g style="opacity:0.30000000000000004"><path d="M298.29,393.41c3.26,5.93,3.76,7.19,7.73,12.68,2.83,3.92,6.85,10.3,12.38,11.79,6.8,1.84,12.55-.81,17.55-5.77-2-3.41-1-1.38-3-4.79l-32.66-15.1Z"></path></g><path d="M265.72,477.7a3.52,3.52,0,0,1,.36-.55l1.11-1.53c.47-.67.92-1.57,1.52-2.57s1.08-2.24,1.7-3.57a85.26,85.26,0,0,0,5.3-22.22,117.74,117.74,0,0,0,.43-22.89c-.07-1.47-.29-2.78-.4-3.94s-.27-2.16-.4-3-.21-1.39-.28-1.87a3.26,3.26,0,0,1-.07-.66,2.81,2.81,0,0,1,.17.64c.1.48.22,1.09.38,1.86s.35,1.8.49,3,.39,2.47.48,3.94a110.52,110.52,0,0,1-.28,23,81.28,81.28,0,0,1-5.48,22.31c-.65,1.33-1.19,2.55-1.78,3.56s-1.12,1.88-1.61,2.54l-1.2,1.48A2.31,2.31,0,0,1,265.72,477.7Z" style="fill:#263238"></path><g style="opacity:0.30000000000000004"><path d="M161.75,368.53c.31,6.9.63,13.88,2.59,20.51S170.13,402,176,405.59c7.14,4.36,16.36,4.09,24.24,1.28s12-7,18.71-12c-6.58,3.57-13.61,7.36-20.86,9.25s-12.15.9-18.82-2.5c-5.85-3-10.23-8.38-12.94-14.36s-3.9-12.54-4.57-19.07"></path></g><path d="M126.18,410.14c-12.28,3.72-21.15,17-19.18,29.65s15.13,22.75,27.8,20.64c4.46-.75,14.77-7.5,17.53-11.09l2.9-23.18C148.13,415.46,138.47,406.41,126.18,410.14Z" style="fill:#EB5187"></path><path d="M114.58,443.67s-.22-.19-.55-.58a12.2,12.2,0,0,1-1.2-1.81,17,17,0,0,1-1.27-3,17.36,17.36,0,0,1-.58-7.84,16,16,0,0,1,.83-3.11,11.7,11.7,0,0,1,.92-2c.26-.44.42-.67.45-.65s-.47,1-1,2.74a17.39,17.39,0,0,0-.7,3.06,18.42,18.42,0,0,0,.56,7.63,17.77,17.77,0,0,0,1.14,2.93C114,442.72,114.66,443.61,114.58,443.67Z" style="fill:#263238"></path><path d="M120.38,446.83a7,7,0,0,1-1.52-1.84,17.07,17.07,0,0,1-2.61-11.05,6.77,6.77,0,0,1,.54-2.32,25.42,25.42,0,0,0,.32,7.95A25.75,25.75,0,0,0,120.38,446.83Z" style="fill:#263238"></path><path d="M130.41,450.59a5.91,5.91,0,0,1-2-.78,13.69,13.69,0,0,1-4-3.38,13.49,13.49,0,0,1-2.47-4.65,5.54,5.54,0,0,1-.35-2.15c.08,0,.24.8.7,2a15.55,15.55,0,0,0,6.35,7.83C129.68,450.19,130.44,450.51,130.41,450.59Z" style="fill:#263238"></path><path d="M274.91,471.5a16.56,16.56,0,0,0-3.76-1.73,16.17,16.17,0,0,0-4.13-.23c0-.06.42-.28,1.2-.41a7.56,7.56,0,0,1,3,.14,7.45,7.45,0,0,1,2.77,1.31C274.66,471.06,275,471.45,274.91,471.5Z" style="fill:#263238"></path><path d="M279.88,446.81c0,.15-2,.08-4.33.38s-4.25.83-4.29.68a10.45,10.45,0,0,1,4.22-1.2A10.67,10.67,0,0,1,279.88,446.81Z" style="fill:#263238"></path><path d="M282,426.07a15.62,15.62,0,0,0-8.82,1.57,7.57,7.57,0,0,1,4.2-1.94A7.48,7.48,0,0,1,282,426.07Z" style="fill:#263238"></path><path d="M163.84,142.21c-11.82-2-24.79,3.37-31,13.61-5.59,9.16-5.38,21.3-.32,30.76s10.73,16.26,21.12,18.93l39.33-35.08C191.7,152.36,175.67,144.2,163.84,142.21Z" style="fill:#EB5187"></path><g style="opacity:0.30000000000000004"><path d="M168.15,163a15.71,15.71,0,0,0-16.62,3.07,15,15,0,0,0-3.21,16.48,14.31,14.31,0,0,0,14.58,8.11L178,179.31C178.64,170.43,173.65,165.31,168.15,163Z"></path></g><path d="M136.08,177.77a6.79,6.79,0,0,1-.92-2,18.21,18.21,0,0,1-.92-5.28,18.54,18.54,0,0,1,.66-5.32,6.7,6.7,0,0,1,.83-2.06,31.9,31.9,0,0,0-1,7.37A32.07,32.07,0,0,0,136.08,177.77Z" style="fill:#263238"></path><path d="M139.4,179.31a5.31,5.31,0,0,1-1-1.85,13,13,0,0,1-.86-5,13.13,13.13,0,0,1,1.13-5,5.3,5.3,0,0,1,1.12-1.79c.07.05-.33.74-.78,1.94a14.93,14.93,0,0,0-.27,9.73A20.59,20.59,0,0,1,139.4,179.31Z" style="fill:#263238"></path><path d="M144.36,184.16a8.92,8.92,0,0,1-1-2.34,24.15,24.15,0,0,1-.52-12.17,9,9,0,0,1,.77-2.42,42.16,42.16,0,0,0-.77,8.52A42.61,42.61,0,0,0,144.36,184.16Z" style="fill:#263238"></path><path d="M170.76,184.58a14.78,14.78,0,0,1-2.42-.87c-1.48-.57-3.53-1.31-5.84-2s-4.44-1.18-6-1.51a14,14,0,0,1-2.5-.59,10.94,10.94,0,0,1,2.56.23,47,47,0,0,1,6.07,1.38,46.15,46.15,0,0,1,5.83,2.15A11.06,11.06,0,0,1,170.76,184.58Z" style="fill:#263238"></path><path d="M169.77,184.93a27.82,27.82,0,0,1-2.44-4.9,28,28,0,0,1-2-5.12,29.45,29.45,0,0,1,2.43,4.91A29.27,29.27,0,0,1,169.77,184.93Z" style="fill:#263238"></path><path d="M187.66,168.11c-.06,0-.17-.77-.52-2.14a21.56,21.56,0,0,0-2.31-5.48,25.35,25.35,0,0,0-5.72-6.68,29.35,29.35,0,0,0-9.41-5.22A36.7,36.7,0,0,0,159,146.88a48.28,48.28,0,0,0-8.84.66c-2.5.41-4.49.87-5.87,1.22l-1.58.4a2.15,2.15,0,0,1-.56.11,2.38,2.38,0,0,1,.53-.21c.35-.11.87-.3,1.56-.49a54.71,54.71,0,0,1,5.86-1.39,46.27,46.27,0,0,1,8.91-.78,36.14,36.14,0,0,1,10.82,1.7,28.9,28.9,0,0,1,9.56,5.34,25.34,25.34,0,0,1,5.73,6.86,20.32,20.32,0,0,1,2.19,5.63,13.59,13.59,0,0,1,.27,1.61A3.08,3.08,0,0,1,187.66,168.11Z" style="fill:#fff"></path><path d="M374.33,187.91c-6.66-8.41-18.12-12.42-28.75-11s-19,4.43-25.08,13.25l26.06,48.88c12-.42,23.8-6.94,29.77-17.34S381.77,197.32,374.33,187.91Z" style="fill:#EB5187"></path><g style="opacity:0.30000000000000004"><path d="M358.21,203a15,15,0,0,0-14.35-8.73c-5.94.43-13.94,4.13-13.94,13.58l9,16.23a16.55,16.55,0,0,0,16.41-4.43A15.73,15.73,0,0,0,358.21,203Z"></path></g><path d="M376.18,213.89c-.08,0-.19-1.24-.51-3.21A44.64,44.64,0,0,0,370.59,196c-1-1.75-1.65-2.78-1.58-2.83s.23.21.57.66.8,1.13,1.33,2A37.24,37.24,0,0,1,376,210.63c.11,1,.17,1.82.18,2.38A2.72,2.72,0,0,1,376.18,213.89Z" style="fill:#263238"></path><path d="M371.65,215.39c-.16,0-.14-3.49-1.09-7.66s-2.45-7.32-2.29-7.39a8.19,8.19,0,0,1,1.08,2,28.68,28.68,0,0,1,1.72,5.26,29,29,0,0,1,.7,5.48A7.54,7.54,0,0,1,371.65,215.39Z" style="fill:#263238"></path><path d="M363.5,223a23.22,23.22,0,0,0,3.13-16.61,8.1,8.1,0,0,1,.64,2.48,18.78,18.78,0,0,1-.13,6.21,19.19,19.19,0,0,1-2.13,5.84A8.17,8.17,0,0,1,363.5,223Z" style="fill:#263238"></path><path d="M291.3,350.34s58.24-5.65,60.94-57.18c2.85-54.31-16.9-121-88.14-132.49S156,195.55,150,208s-26.9,48.33-14.94,87.19S180.89,346,194.35,348.5Z" style="fill:#EB5187"></path><g style="opacity:0.30000000000000004"><path d="M278.33,279c-3.77-6.42-14.07-11-21.47-10.12l-6.66.32c-8.27-3.77-18.74-1.54-25.14,4.92s-8.59,16.59-5.94,25.29a29.58,29.58,0,0,0,18.44,18.74,34.62,34.62,0,0,0,26.49-2,31.83,31.83,0,0,0,15.29-15.65C282.24,293.63,282.11,285.39,278.33,279Z" style="fill:#fff"></path></g><path d="M278.33,279a15.33,15.33,0,0,1,.92,1.64,20.8,20.8,0,0,1,1.73,5.11,24.57,24.57,0,0,1,.24,8.53,26,26,0,0,1-4,10.56,32.29,32.29,0,0,1-9.72,9.61,36,36,0,0,1-14.73,5.4,35.3,35.3,0,0,1-8.54.08,31.75,31.75,0,0,1-8.62-2.26,30.54,30.54,0,0,1-14-12.09,26.24,26.24,0,0,1-3.69-16.65,27.73,27.73,0,0,1,2.16-8,24.51,24.51,0,0,1,4.42-6.61,23.23,23.23,0,0,1,12.92-6.83A21.91,21.91,0,0,1,250.28,269l-.09,0,6.92-.32a20.47,20.47,0,0,1,6.19.45,28,28,0,0,1,9.12,3.87,20,20,0,0,1,4.69,4.17,11.62,11.62,0,0,1,.94,1.34,4.68,4.68,0,0,1,.28.48s-.12-.15-.33-.45a12.1,12.1,0,0,0-1-1.3,20.73,20.73,0,0,0-4.72-4.06,27.77,27.77,0,0,0-9.07-3.74,20.25,20.25,0,0,0-6.1-.41l-6.92.36h0l0,0a21.62,21.62,0,0,0-12.61-1.42,22.79,22.79,0,0,0-12.65,6.73,23.79,23.79,0,0,0-4.31,6.48,27,27,0,0,0-2.11,7.82,25.68,25.68,0,0,0,3.62,16.32,30.19,30.19,0,0,0,13.77,11.89,31.79,31.79,0,0,0,8.47,2.24,35.18,35.18,0,0,0,23-5.36,32,32,0,0,0,9.66-9.44,26.07,26.07,0,0,0,4-10.4,24.86,24.86,0,0,0-.15-8.45,21.44,21.44,0,0,0-1.64-5.1c-.23-.57-.48-1-.61-1.26Z" style="fill:#263238"></path><path d="M251.5,287.36a10.39,10.39,0,0,0,3.21,2.77,13.53,13.53,0,0,0,4.36,1.44,13.32,13.32,0,0,0,2.71.19,9.41,9.41,0,0,0,2.85-.48,9.2,9.2,0,0,0,4.32-3.4,8.75,8.75,0,0,0,1.62-4.22,7.4,7.4,0,0,0-.32-3.06,7.85,7.85,0,0,1-.39-1.09,3.58,3.58,0,0,1,.58,1,7.18,7.18,0,0,1,.5,3.16,9,9,0,0,1-1.59,4.47,8.8,8.8,0,0,1-7.55,4.11,14.24,14.24,0,0,1-7.27-1.82,8,8,0,0,1-2.43-2.08,4.6,4.6,0,0,1-.48-.73A1,1,0,0,1,251.5,287.36Z" style="fill:#263238"></path><path d="M237.74,275.64a9.63,9.63,0,0,0-2,.63,7.88,7.88,0,0,0-4.08,7.93,9.05,9.05,0,0,0,1.73,4,12,12,0,0,0,8.74,4.64,9,9,0,0,0,5.06-1.1,10.27,10.27,0,0,0,3.47-3.4,15.12,15.12,0,0,0,2.18-8,54.25,54.25,0,0,0-.31-5.71c-.05-.63-.09-1.14-.12-1.56a1.8,1.8,0,0,1,0-.55,2.56,2.56,0,0,1,.11.54c.06.41.13.92.22,1.54a45.17,45.17,0,0,1,.48,5.74,15.16,15.16,0,0,1-2.15,8.24,10.46,10.46,0,0,1-3.62,3.59,9.36,9.36,0,0,1-5.34,1.18,12.32,12.32,0,0,1-9.09-4.87,9.35,9.35,0,0,1-1.77-4.26,7.87,7.87,0,0,1,.53-4,7.66,7.66,0,0,1,3.88-4.18A4.76,4.76,0,0,1,237.74,275.64Z" style="fill:#263238"></path><g style="opacity:0.30000000000000004"><path d="M324,272.09c-4.61-2.36-10.87-2.46-16.53-.57-6.56,1.21-12.66,6-14.81,11.49a12.73,12.73,0,0,0,4.85,15.43c5,3.35,12.72,3.78,19.44,1.32,6.39-2.33,11.93-7.32,13.61-12.92A12.42,12.42,0,0,0,324,272.09Z" style="fill:#fff"></path></g><g style="opacity:0.30000000000000004"><path d="M238.47,191.77c-4.8-3.53-8.74,3-8.74,3s-6.42-4.28-9.37.9c-2.59,4.55,2.34,8.35,5.39,9.88a67.76,67.76,0,0,0,6.69,2.54v0h.05V208a65.23,65.23,0,0,0,5.09-5C239.73,200.35,242.69,194.87,238.47,191.77Z"></path></g><path d="M324.71,268.65a14.51,14.51,0,0,1-1.65-.42,30.55,30.55,0,0,0-31.64,9.86,32.09,32.09,0,0,0-2.73,3.73,12.39,12.39,0,0,1-.92,1.43,2.1,2.1,0,0,1,.17-.41c.13-.26.3-.65.58-1.12a26.44,26.44,0,0,1,2.61-3.86A29.71,29.71,0,0,1,318.57,267a28.26,28.26,0,0,1,4.55,1c.53.16.92.33,1.19.43S324.72,268.63,324.71,268.65Z" style="fill:#263238"></path><path d="M158.53,237.81a2.76,2.76,0,0,1,.05-.85,19.83,19.83,0,0,1,.4-2.28,31.49,31.49,0,0,1,2.59-7.19,31.15,31.15,0,0,1,4.23-6.36,21.86,21.86,0,0,1,1.59-1.68c.4-.38.63-.57.66-.55s-.77.94-2,2.46a39.33,39.33,0,0,0-4.05,6.36,38.31,38.31,0,0,0-2.69,7.05C158.83,236.63,158.62,237.82,158.53,237.81Z" style="fill:#263238"></path><path d="M162.47,239.6a9.56,9.56,0,0,1,.5-2.41,39.71,39.71,0,0,1,2-5.57,40.51,40.51,0,0,1,2.83-5.21,10.47,10.47,0,0,1,1.47-2,13.53,13.53,0,0,1-1.16,2.16c-.74,1.31-1.72,3.14-2.66,5.24s-1.66,4-2.15,5.46A15.09,15.09,0,0,1,162.47,239.6Z" style="fill:#263238"></path><path d="M170.77,246.67a11.5,11.5,0,0,1-.37-2.62,47,47,0,0,1-.06-6.4,47.92,47.92,0,0,1,.82-6.35,11.43,11.43,0,0,1,.68-2.56,16.14,16.14,0,0,1-.32,2.63c-.23,1.61-.51,3.84-.66,6.31s-.14,4.72-.1,6.35A16.06,16.06,0,0,1,170.77,246.67Z" style="fill:#263238"></path><path d="M333,302.76c-.08,0,.44-1.2,1.08-3.15a34.88,34.88,0,0,0,1.4-15.8c-.28-2-.59-3.26-.51-3.29a2.89,2.89,0,0,1,.31.85,19.88,19.88,0,0,1,.57,2.39,30.45,30.45,0,0,1-1.42,16,22.75,22.75,0,0,1-1,2.26A3,3,0,0,1,333,302.76Z" style="fill:#263238"></path><path d="M338.75,300.2c-.08,0,.37-.92.86-2.41a20.37,20.37,0,0,0,.25-12.07c-.44-1.52-.85-2.41-.77-2.45a7.81,7.81,0,0,1,1.12,2.33,18,18,0,0,1-.25,12.32A7.74,7.74,0,0,1,338.75,300.2Z" style="fill:#263238"></path><g style="opacity:0.30000000000000004"><path d="M262.16,266a3.56,3.56,0,0,0-3.46-2.23,16.05,16.05,0,0,0-4.3.88,19.36,19.36,0,0,1-12.43-.88,3.67,3.67,0,0,0,.09,3.56,10.24,10.24,0,0,0,3.06,2.83c3,2.12,6.23,4.33,8,7.6.34-1.54,1.59-2.69,2.78-3.73l3.83-3.35a9.88,9.88,0,0,0,1.91-2A3.39,3.39,0,0,0,262.16,266Z"></path></g><path d="M260.07,261.74c-1.94-1.14-3.71-.92-7.65.84,0,0-9-6.21-10.6,1.11-1,4.56,10.6,8.87,10.6,8.87l7.08-3.67a4.27,4.27,0,0,0,2.11-5.36A3.78,3.78,0,0,0,260.07,261.74Z" style="fill:#263238"></path><path d="M248,268c0,.07-.47,0-1.19-.13a5.58,5.58,0,0,1-2.63-1.3,3.06,3.06,0,0,1-.88-2.82c.21-.78.7-1,.72-1s-.28.39-.36,1.06a3,3,0,0,0,.89,2.38,6.63,6.63,0,0,0,2.37,1.32C247.6,267.8,248,268,248,268Z" style="fill:#fff"></path><path d="M154,228.18a5.77,5.77,0,0,1,.06-1.94,23.63,23.63,0,0,1,2.94-8.82,6,6,0,0,1,1.11-1.58c.14.08-1.4,2.59-2.52,6S154.13,228.2,154,228.18Z" style="fill:#263238"></path><g style="opacity:0.30000000000000004"><path d="M226.76,259.21a28.14,28.14,0,0,0-3.39-6,10.92,10.92,0,0,0-5.9-4,8.6,8.6,0,0,0-5.59.76,20.24,20.24,0,0,0-4.27,3.09l-2.14,1.85a2.72,2.72,0,0,0,2.79,1.3,11.22,11.22,0,0,0,2.8-1.05c3.87-1.56,9.56.43,12.05,4.22a9.93,9.93,0,0,0,1.4,1.95,2.1,2.1,0,0,0,2.19.56C227.56,261.44,227.2,260.17,226.76,259.21Z"></path></g><path d="M228.38,262.62c-.34.18-1.45-1.53-3.23-4.16a27.62,27.62,0,0,0-3.42-4.18,9.54,9.54,0,0,0-5.31-2.79,10.64,10.64,0,0,0-6,1.1,18.69,18.69,0,0,0-4.31,3.07c-2.25,2.14-3.44,3.78-3.77,3.58s.33-2.16,2.42-4.83a16.28,16.28,0,0,1,4.54-3.94,12.08,12.08,0,0,1,7.44-1.56,11.18,11.18,0,0,1,6.68,3.69,21.41,21.41,0,0,1,3.29,4.93C228.17,260.51,228.68,262.47,228.38,262.62Z" style="fill:#263238"></path><g style="opacity:0.30000000000000004"><path d="M299.93,259.86a27.37,27.37,0,0,0-6-4.27,8.26,8.26,0,0,0-11.67,3.71,27.87,27.87,0,0,0-2.16,5.91l-.92,3.28a2.38,2.38,0,0,0,3.1-.34,13.65,13.65,0,0,0,1.91-2.85,9.67,9.67,0,0,1,12.67-3,9.27,9.27,0,0,0,2.21,1.19,1.88,1.88,0,0,0,2.2-.76C301.77,261.73,300.81,260.61,299.93,259.86Z"></path></g><path d="M302.57,264c-.38.18-1.29-1.5-3.57-3.29a17.2,17.2,0,0,0-4.34-2.49,14.81,14.81,0,0,0-2.8-.78,12.16,12.16,0,0,0-1.48-.15,6.76,6.76,0,0,0-1.42.12,8.56,8.56,0,0,0-4.69,3,17.3,17.3,0,0,0-2.55,4.32c-1.15,2.72-1.62,4.59-2,4.53s-.53-2,.25-5.13a15.76,15.76,0,0,1,2.4-5.2,10.24,10.24,0,0,1,6.07-4.11,8.22,8.22,0,0,1,2-.16,13.9,13.9,0,0,1,1.86.23A14.12,14.12,0,0,1,295.6,256a15.15,15.15,0,0,1,4.66,3.34,10.33,10.33,0,0,1,2.1,3.21C302.69,263.39,302.72,263.91,302.57,264Z" style="fill:#263238"></path><path d="M241.16,279.78a.69.69,0,0,1,1.06.32.65.65,0,1,1-1.16-.2" style="fill:#263238"></path><path d="M235.64,281a.65.65,0,1,1-.11.12" style="fill:#263238"></path><path d="M239.18,283.93a.65.65,0,1,1,.31,1.13.69.69,0,0,1-.42-1" style="fill:#263238"></path><path d="M290.32,187.56a8.2,8.2,0,0,0-1.73-3.23,10.08,10.08,0,0,0-3.2-2.33,28.3,28.3,0,0,0-4.65-1.66,82.76,82.76,0,0,0-8.8-2c-2.28-.4-3.7-.59-3.69-.66a3.14,3.14,0,0,1,1,0c.65,0,1.59.13,2.74.28a61.94,61.94,0,0,1,8.89,1.9,26.92,26.92,0,0,1,4.72,1.73,9.83,9.83,0,0,1,3.26,2.52,6.65,6.65,0,0,1,1.32,2.46A2.3,2.3,0,0,1,290.32,187.56Z" style="fill:#263238"></path><path d="M297.55,185.86c-.07.06-.91-.93-2.44-2.35a31,31,0,0,0-14.24-7.44c-2-.45-3.33-.57-3.32-.66a2.86,2.86,0,0,1,.92,0,21.84,21.84,0,0,1,2.47.31,27.69,27.69,0,0,1,7.78,2.68,27.36,27.36,0,0,1,6.64,4.86,19.82,19.82,0,0,1,1.67,1.86A3.08,3.08,0,0,1,297.55,185.86Z" style="fill:#263238"></path><path d="M349.72,250.57a4.05,4.05,0,0,1-.22-.74q-.21-.81-.54-2.16c-.23-.94-.52-2.09-.87-3.41s-.73-2.85-1.21-4.51a140.64,140.64,0,0,0-9.5-25.19,105.49,105.49,0,0,0-15-22.33c-2.32-2.56-4.23-4.6-5.63-5.92l-1.58-1.57a4.26,4.26,0,0,1-.53-.58,4.08,4.08,0,0,1,.6.5l1.65,1.5c1.45,1.28,3.41,3.29,5.76,5.83a100.48,100.48,0,0,1,15.16,22.34,131.4,131.4,0,0,1,9.39,25.33c.46,1.67.83,3.19,1.14,4.53s.59,2.49.78,3.43.34,1.64.45,2.19A3.66,3.66,0,0,1,349.72,250.57Z" style="fill:#263238"></path><path d="M349.45,207c0,.16-3.18.77-6.84,2.36s-6.33,3.47-6.42,3.34a6.77,6.77,0,0,1,1.67-1.35,27.25,27.25,0,0,1,4.54-2.47,27.81,27.81,0,0,1,4.92-1.6A7.66,7.66,0,0,1,349.45,207Z" style="fill:#263238"></path><path d="M352.39,213.76c0,.16-3.44-.69-7.73-.94s-7.77.14-7.79,0a7.82,7.82,0,0,1,2.27-.4,33.53,33.53,0,0,1,5.55-.1,34.1,34.1,0,0,1,5.5.78A8.79,8.79,0,0,1,352.39,213.76Z" style="fill:#263238"></path><path d="M207.19,164.5a.75.75,0,0,1-.24.08l-.69.15c-.62.11-1.51.36-2.65.67a59,59,0,0,0-9.31,3.77,117,117,0,0,0-27,19.09,115.25,115.25,0,0,0-12.36,13.42,91.11,91.11,0,0,0-8.19,12.45,73.6,73.6,0,0,0-4.18,9.14c-.43,1.1-.69,2-.91,2.58-.09.27-.17.49-.24.67s-.09.23-.1.22a.91.91,0,0,1,0-.24l.19-.68c.19-.6.42-1.5.82-2.62a68.42,68.42,0,0,1,4-9.25,89,89,0,0,1,8.14-12.56,118.22,118.22,0,0,1,39.59-32.55,54.48,54.48,0,0,1,9.42-3.63c1.16-.28,2.06-.5,2.69-.58l.7-.11Z" style="fill:#263238"></path><path d="M289.58,167.39a6.91,6.91,0,0,1-.82-.28l-2.31-.88-1.66-.64c-.61-.23-1.29-.44-2-.69-1.44-.48-3.07-1.09-4.92-1.58l-2.89-.84c-1-.29-2.07-.51-3.16-.79-2.18-.57-4.55-1-7-1.48a128.06,128.06,0,0,0-16.37-1.71,125.57,125.57,0,0,0-16.45.61c-2.52.32-4.91.57-7.12,1-1.11.2-2.19.35-3.21.57l-2.94.64c-1.88.38-3.54.88-5,1.25-.73.2-1.42.37-2,.55l-1.7.54-2.36.72a5.13,5.13,0,0,1-.84.22,4.41,4.41,0,0,1,.8-.32l2.34-.82,1.69-.57c.62-.2,1.31-.38,2-.6,1.47-.4,3.13-.93,5-1.32l2.94-.68c1-.23,2.1-.39,3.21-.6,2.22-.45,4.62-.73,7.14-1.06a113.41,113.41,0,0,1,33,1.11c2.49.5,4.87.94,7.05,1.53,1.09.29,2.16.52,3.17.82L278,163c1.85.52,3.47,1.16,4.91,1.66l2,.73,1.65.69,2.27,1A4.08,4.08,0,0,1,289.58,167.39Z" style="fill:#e0e0e0"></path><path d="M144.05,303.56a1.92,1.92,0,0,1-.29-.48c-.2-.37-.45-.84-.75-1.42s-.71-1.37-1.09-2.28-.89-1.92-1.31-3.09-1-2.44-1.38-3.84-.88-2.89-1.32-4.48a72.66,72.66,0,0,1-2.25-21.24c.1-1.65.17-3.21.35-4.67s.34-2.8.55-4,.43-2.33.63-3.3.4-1.79.59-2.46.32-1.14.43-1.55a2,2,0,0,1,.19-.52,2.09,2.09,0,0,1-.08.55l-.34,1.56c-.16.68-.34,1.51-.51,2.48s-.4,2.06-.55,3.3-.37,2.56-.48,4-.22,3-.3,4.63a76.5,76.5,0,0,0,2.23,21.11c.43,1.58.8,3.09,1.27,4.47s.88,2.67,1.31,3.83.86,2.2,1.23,3.11.72,1.69,1,2.32l.66,1.45A2.48,2.48,0,0,1,144.05,303.56Z" style="fill:#fff"></path><path d="M277.34,291.16a23.55,23.55,0,0,0-6.25-15.3,7.45,7.45,0,0,1,1.83,1.71,18.82,18.82,0,0,1,3.16,5.17,19.09,19.09,0,0,1,1.37,5.91A7.64,7.64,0,0,1,277.34,291.16Z" style="fill:#e0e0e0"></path><g style="opacity:0.30000000000000004"><path d="M171.72,268c8.49-.75,17.42,2.35,22.29,8a15.27,15.27,0,0,1,.73,19.55c-4.33,5.55-12.66,8.67-20.75,8.42-8.51-.26-16.8-4.2-20.89-10.25a15.65,15.65,0,0,1,1.46-19.54c5.09-5.53,14.66-8.15,22.74-6" style="fill:#fff"></path></g><path d="M186.2,274.76c0,.09-1.55-.53-4.09-1.21a42.25,42.25,0,0,0-20.32-.4c-2.56.59-4.11,1.14-4.14,1.05a5.11,5.11,0,0,1,1.06-.46,26.51,26.51,0,0,1,3-.95,38.22,38.22,0,0,1,10.28-1.2,37.78,37.78,0,0,1,10.23,1.61,25.18,25.18,0,0,1,2.95,1.06A5.32,5.32,0,0,1,186.2,274.76Z" style="fill:#fff"></path><path d="M316.48,274c0,.1-1.42-.07-3.68,0a26.5,26.5,0,0,0-3.94.5,26.66,26.66,0,0,0-9,3.56,26.35,26.35,0,0,0-3.21,2.34c-1.73,1.47-2.63,2.56-2.71,2.5a3.53,3.53,0,0,1,.59-.81,18.14,18.14,0,0,1,1.87-2,23.51,23.51,0,0,1,3.2-2.47,27.44,27.44,0,0,1,4.4-2.27,26.57,26.57,0,0,1,4.76-1.36,24.09,24.09,0,0,1,4-.4,17.62,17.62,0,0,1,2.72.15A4,4,0,0,1,316.48,274Z" style="fill:#fff"></path><g style="opacity:0.30000000000000004"><path d="M239.6,241c-9.24-13.29-25.09-.06-25.09-.06S201.79,224.3,189.65,235c-10.65,9.4-1.32,23.5,5.15,30.13,4.11,4.19,13.73,11.47,15,12.42v0l0,0,.1.08,0-.13c1.44-.62,12.52-5.4,17.5-8.5C235.29,264.13,247.71,252.66,239.6,241Z"></path></g><path d="M184.81,342.38a1.4,1.4,0,0,1-.47,0l-1.35-.21c-.58-.11-1.3-.2-2.12-.38l-2.78-.65a53.66,53.66,0,0,1-15.15-6.54,51.22,51.22,0,0,1-7.23-5.55,56.7,56.7,0,0,1-5.16-5.36c-1.37-1.61-2.4-3-3.09-3.94-.3-.45-.56-.82-.77-1.12s-.26-.4-.24-.41a2.12,2.12,0,0,1,.32.34l.86,1.06c.73.92,1.8,2.26,3.2,3.83a61.88,61.88,0,0,0,5.2,5.24,53.07,53.07,0,0,0,7.19,5.47,56.69,56.69,0,0,0,15,6.62l2.74.73c.82.2,1.53.33,2.1.46l1.33.3A2.19,2.19,0,0,1,184.81,342.38Z" style="fill:#263238"></path><path d="M180.68,452.6l-.09-.35c-.05-.26-.12-.6-.21-1-.17-.91-.42-2.25-.7-4-.57-3.47-1.3-8.51-1.83-14.78-.13-1.56-.25-3.21-.35-4.92a49.64,49.64,0,0,1-.13-5.37,16.09,16.09,0,0,1,1.17-5.65,10.66,10.66,0,0,1,3.92-4.7,13.91,13.91,0,0,1,6-2.22,18.09,18.09,0,0,1,6.69.51,36,36,0,0,1,12.43,6.45,44,44,0,0,1,15.11,22.09,48.75,48.75,0,0,1,1.85,11.68,43.36,43.36,0,0,1-.67,10.28,33,33,0,0,1-2.69,8.06,33.63,33.63,0,0,1-3.38,5.45,30,30,0,0,1-2.65,3.07l-.74.75a1.79,1.79,0,0,1-.26.24,2.16,2.16,0,0,1,.22-.28l.71-.78a36.64,36.64,0,0,0,2.56-3.12,33.8,33.8,0,0,0,3.27-5.46,33,33,0,0,0,2.6-8,42.81,42.81,0,0,0,.59-10.19,48.3,48.3,0,0,0-1.87-11.57,43.75,43.75,0,0,0-15-21.81,35.85,35.85,0,0,0-12.25-6.37,17.76,17.76,0,0,0-6.5-.51,13.44,13.44,0,0,0-5.83,2.13,10.19,10.19,0,0,0-3.77,4.48,15.88,15.88,0,0,0-1.16,5.49,52,52,0,0,0,.1,5.33c.09,1.71.2,3.35.32,4.91.48,6.26,1.15,11.31,1.66,14.78.26,1.71.46,3.06.61,4,.06.44.12.78.16,1A1.64,1.64,0,0,1,180.68,452.6Z" style="fill:#263238"></path><g style="opacity:0.30000000000000004"><path d="M215.32,454.4c-.59-5-1.39-10.15-4.31-14.22s-8.62-6.59-13.09-4.34c-3.15,1.27-4.39,5-5.06,8.32a26.44,26.44,0,0,0,.47,10.09c.87,4.6,2.12,9.36,5.26,12.85s8.69,5.2,12.64,2.69a10.3,10.3,0,0,0,4.24-7A28.46,28.46,0,0,0,215.32,454.4Z" style="fill:#fff"></path></g><g style="opacity:0.30000000000000004"><path d="M193.14,415.51l-.06.18a3.4,3.4,0,0,0-4-.14,5,5,0,0,0-2,3.62,9.29,9.29,0,0,0,.68,4.22,16.66,16.66,0,0,0,3.88,6c1.52,1.49,3.77,2.74,5.71,1.86,1.67-.75,2.36-2.78,2.44-4.61A12.07,12.07,0,0,0,193.14,415.51Z" style="fill:#fff"></path></g><g style="opacity:0.30000000000000004"><path d="M210.28,426.86a8.89,8.89,0,0,0-2.29-5.78,2.7,2.7,0,0,0-3.58,0,4.18,4.18,0,0,0-1.23,3.59,9.6,9.6,0,0,0,1.36,3.67c.68,1.22,1.67,2.52,3.06,2.52a2.63,2.63,0,0,0,2.19-1.39A4.64,4.64,0,0,0,210.28,426.86Z" style="fill:#fff"></path></g><g style="opacity:0.30000000000000004"><path d="M188.86,433.12c-.75-1.81-.45-2.21-2-3.37a3.2,3.2,0,0,0-3.73,1.24,4.81,4.81,0,0,0-.48,4.09c.59,1.94,2.62,3.66,4.54,3S189.6,434.94,188.86,433.12Z" style="fill:#fff"></path></g><g style="opacity:0.30000000000000004"><path d="M214.19,478.17c8.46-4.26,11.61-15.15,12.19-24.18a38.17,38.17,0,0,0-7.71-25.41,57.45,57.45,0,0,1,5.5,25.64,39.22,39.22,0,0,1-10,23.95"></path></g><path d="M176.24,419.88a27.28,27.28,0,0,0-5.58,1.4,28.11,28.11,0,0,0-11,8.17,61.44,61.44,0,0,0-7.4,11.78L150.34,445a9.88,9.88,0,0,1-.74,1.37,9.49,9.49,0,0,1,.56-1.46c.39-.92,1-2.24,1.74-3.87a55.69,55.69,0,0,1,7.33-11.94,27.27,27.27,0,0,1,11.3-8.19,18.55,18.55,0,0,1,4.15-1c.5-.07.89-.06,1.16-.08S176.24,419.86,176.24,419.88Z" style="fill:#263238"></path><path d="M140.55,463.89a1.71,1.71,0,0,1-.21-.5l-.5-1.48c-.22-.64-.47-1.43-.72-2.37s-.57-2-.82-3.17a77.77,77.77,0,0,1-1.48-8.39,79.68,79.68,0,0,1,.19-20.85,76.29,76.29,0,0,1,1.64-8.37c.27-1.18.61-2.23.87-3.15s.53-1.72.76-2.35.39-1.08.53-1.47a1.86,1.86,0,0,1,.22-.5,1.79,1.79,0,0,1-.12.53c-.11.4-.26.89-.43,1.5s-.44,1.44-.68,2.37-.55,2-.79,3.16c-.57,2.35-1.09,5.18-1.53,8.35a84.83,84.83,0,0,0-.19,20.72c.38,3.17.85,6,1.37,8.37.23,1.19.52,2.24.74,3.18s.44,1.73.63,2.38.3,1.11.41,1.51A1.93,1.93,0,0,1,140.55,463.89Z" style="fill:#263238"></path><path d="M214.32,461.76c-.1,0,.14-1.35.2-3.53A28.8,28.8,0,0,0,210,442.09c-1.17-1.84-2.06-2.86-2-2.92s.27.21.68.67a16.61,16.61,0,0,1,1.62,2.05,26.13,26.13,0,0,1,4.53,16.35,18.61,18.61,0,0,1-.32,2.6A3.47,3.47,0,0,1,214.32,461.76Z" style="fill:#fff"></path><path d="M300.14,406.91a1.77,1.77,0,0,1,.09.52c0,.4.09.89.16,1.5s.13,1.45.15,2.38.09,2,0,3.16,0,2.45-.17,3.82-.28,2.84-.47,4.38a65.13,65.13,0,0,1-5.93,19.2c-.71,1.38-1.36,2.7-2.07,3.88s-1.37,2.28-2,3.26-1.27,1.83-1.82,2.58-1,1.38-1.46,1.88-.72.85-1,1.15a2.1,2.1,0,0,1-.36.38s.08-.16.28-.44l.9-1.21c.39-.52.87-1.16,1.39-1.93s1.14-1.61,1.74-2.61,1.3-2.07,1.95-3.27,1.33-2.5,2-3.88a67.28,67.28,0,0,0,5.88-19.06c.21-1.53.43-3,.52-4.34s.19-2.64.23-3.8,0-2.22,0-3.15,0-1.72-.07-2.37,0-1.1-.05-1.5A2.67,2.67,0,0,1,300.14,406.91Z" style="fill:#fff"></path><g style="opacity:0.30000000000000004"><path d="M324.43,428.09c-4.81-3.53-8.75,3-8.75,3s-6.42-4.28-9.37.9c-2.59,4.55,2.34,8.35,5.39,9.88a62.12,62.12,0,0,0,6.7,2.54v0h.06v0a70,70,0,0,0,5.08-5.05C325.68,436.67,328.64,431.19,324.43,428.09Z"></path></g><path d="M329.15,464.73a10.89,10.89,0,0,1,.5-1.66c.18-.54.41-1.18.71-1.92s.61-1.59,1-2.5a69.43,69.43,0,0,1,3.15-6.29,77.87,77.87,0,0,1,4.7-7.23,79.47,79.47,0,0,1,5.55-6.6,69.39,69.39,0,0,1,5.11-4.84c.75-.67,1.47-1.22,2.09-1.72s1.17-.9,1.63-1.22a9.3,9.3,0,0,1,1.45-1,12,12,0,0,1-1.33,1.13c-.43.34-1,.77-1.56,1.29s-1.31,1.08-2,1.76c-1.49,1.33-3.19,3-5,4.9s-3.66,4.15-5.48,6.58a83.08,83.08,0,0,0-4.7,7.16c-1.31,2.28-2.4,4.39-3.24,6.2-.44.9-.77,1.74-1.09,2.46s-.58,1.36-.79,1.88A11.82,11.82,0,0,1,329.15,464.73Z" style="fill:#263238"></path><g style="opacity:0.30000000000000004"><path d="M376.26,442.88a5.6,5.6,0,0,0-3.62-1.24l.06,0a14,14,0,0,0-7,2.13,18,18,0,0,0-3.92,4.28,62.49,62.49,0,0,0-6.51,11.62c-1.1,2.57-2,5.32-1.76,8.1s2.08,5.59,4.8,6.22a8.18,8.18,0,0,0,5.18-.84c6.91-3.13,11.32-10.09,14-17.2a19.17,19.17,0,0,0,1.5-6.81A8.17,8.17,0,0,0,376.26,442.88Z" style="fill:#fff"></path></g><g style="opacity:0.30000000000000004"><path d="M383.36,425.17c-.24-1.63-2.26-2.52-3.85-2.08a6.77,6.77,0,0,0-3.65,3.19,18.46,18.46,0,0,0-2.73,7.91c-.19,1.78.08,3.91,1.65,4.75s3.52-.12,4.83-1.33C382.94,434.54,384.14,429.63,383.36,425.17Z" style="fill:#fff"></path></g><g style="opacity:0.30000000000000004"><path d="M386.84,438.19s-.06-.69-.92-.42a3.19,3.19,0,0,0-.86.27,8.58,8.58,0,0,0-3.05,3.33,3.62,3.62,0,0,0-.51,2.14,1.76,1.76,0,0,0,1.36,1.57,2.29,2.29,0,0,0,1.68-.62C386.58,442.81,387.78,440.63,386.84,438.19Z" style="fill:#fff"></path></g><g style="opacity:0.30000000000000004"><path d="M370,429a2.9,2.9,0,0,0-3.24-.47,4.78,4.78,0,0,0-2.28,2.54,14.39,14.39,0,0,0-.82,3.38,8.56,8.56,0,0,0-.15,2.31,2.88,2.88,0,0,0,1.06,2,2.6,2.6,0,0,0,2.32.27,4.61,4.61,0,0,0,2-1.4C371,435.08,371.91,431.63,370,429Z" style="fill:#fff"></path><path d="M358.42,435.86c-1.78-.88-4.1.67-5,3.4a6.14,6.14,0,0,0,.89,4.48,3.66,3.66,0,0,0,3.67,1.75,4.18,4.18,0,0,0,3-2.81A5.85,5.85,0,0,0,358.42,435.86Z" style="fill:#fff"></path></g><g style="opacity:0.30000000000000004"><path d="M319.47,463.4a8.42,8.42,0,0,0-.86,3.31,3.16,3.16,0,0,0,1.61,2.86c1.95.92,8.08-2.85,8.93-4.84,5-11.74,10.12-20.6,19.9-30.49l.58-.56A56.18,56.18,0,0,0,319.47,463.4Z"></path></g><path d="M369.23,442.85c.06.07-1.06,1-2.72,2.6a44.92,44.92,0,0,0-10.07,14.89c-.89,2.14-1.32,3.52-1.4,3.5a3.62,3.62,0,0,1,.2-1,26.46,26.46,0,0,1,.86-2.63,39,39,0,0,1,10.16-15c.87-.78,1.6-1.39,2.12-1.77A3.79,3.79,0,0,1,369.23,442.85Z" style="fill:#fff"></path><path d="M256.14,322.46s27.34-45.06,60.64-20.59c29.23,21.47,8.73,59.45-6.22,77.77C300.41,392.07,275,414.93,275,414.93Z" style="fill:#EB5187"></path><path d="M256.14,322.46s-44.48-29.66-64.94,6.25c-17.95,31.51,16.23,57.85,37.34,68.5,14.32,7.22,46.85,17.76,46.85,17.76Z" style="fill:#EB5187"></path><g style="opacity:0.30000000000000004"><path d="M316.78,301.87c-33.3-24.47-60.64,20.59-60.64,20.59s-44.48-29.66-64.94,6.25c-17.95,31.51,16.23,57.85,37.34,68.5,13.38,6.75,42.63,16.38,46.43,17.62l0,.1.08-.07.32.11-.07-.34c3-2.68,25.77-23.38,35.24-35C325.51,361.32,346,323.34,316.78,301.87Z"></path></g><path d="M248.93,366.77a6.23,6.23,0,0,1-1.78.4,2.21,2.21,0,0,1-1.1-.09c-.4-.23-1.19-1.91-2.35-5.05a111.29,111.29,0,0,1-3.7-13.17q-1.59-7,1.63-8.17a1.2,1.2,0,0,1,1.39.41,4.32,4.32,0,0,1,.92,1.45q2,5.43,1.21,13.4c.78,2.34,1.48,4.37,2.12,6.09s1.11,2.51,1.42,2.4c.46-.21.9-1,1.3-2.51a27.55,27.55,0,0,0,.84-5.38c.15-2.12.31-3.21.49-3.28s.32,0,.4.24a10.77,10.77,0,0,1,.17,4.17C251.43,363.18,250.44,366.22,248.93,366.77ZM243,343.31c-.33-.89-.61-1.3-.83-1.21q-1.26.47,2,11.1Q244.27,346.66,243,343.31Z" style="fill:#fff"></path><path d="M262.85,351a13.19,13.19,0,0,0,2-1.8l.76-1,.39-.48a.69.69,0,0,1,.29-.25c.22-.08.38,0,.47.25s-.17.85-.8,1.8a15.65,15.65,0,0,1-2.6,2.89,10.14,10.14,0,0,1-.1,6.51,7.39,7.39,0,0,1-4.67,4.21,4.8,4.8,0,0,1-4.75-.59,9.16,9.16,0,0,1-3.18-4.34,9.91,9.91,0,0,1-.3-5.87,5.27,5.27,0,0,1,3.33-4,5,5,0,0,1,2.48-1.87,4.12,4.12,0,0,1,3.62.6A7.59,7.59,0,0,1,262.85,351Zm-1.93,3.14-1.48.65a5.14,5.14,0,0,1-3.68.06,3.53,3.53,0,0,1-2.28-2,6.05,6.05,0,0,1-.43-2.55c-.85,1.39-.75,3.48.28,6.27a9.72,9.72,0,0,0,2.26,3.52,2.93,2.93,0,0,0,3.31.84,3.38,3.38,0,0,0,2.24-2.57A8.28,8.28,0,0,0,260.92,354.18Zm-5.17-6a1.25,1.25,0,0,0-.82,1,2.6,2.6,0,0,0,.11,1.46,3.43,3.43,0,0,0,2,2.11,3.85,3.85,0,0,0,2.85,0l.5-.19a13.81,13.81,0,0,0-2.07-3.47A2.24,2.24,0,0,0,255.75,348.2Z" style="fill:#fff"></path><path d="M272.9,355.55A3.49,3.49,0,0,0,275,353a11.57,11.57,0,0,0,.25-4.45,4.44,4.44,0,0,1-2.9-.76,4.9,4.9,0,0,1-1.78-2.36,4.83,4.83,0,0,1-.2-2.92,2.68,2.68,0,0,1,1.82-2,1.58,1.58,0,0,1,1.75.61,6.91,6.91,0,0,1,1.38,2.32,21,21,0,0,1,.82,2.84,3.79,3.79,0,0,0,1.43-.25,4.71,4.71,0,0,0,2.58-2.67c.31-.69.56-1.06.74-1.13s.33,0,.43.31a1.76,1.76,0,0,1-.17,1.21,7.71,7.71,0,0,1-4.69,4.55,14.41,14.41,0,0,1-.56,6.06,5.4,5.4,0,0,1-3.32,3.61,3,3,0,0,1-2.8-.34q-2.26-1.4-3.69-5.2c-.32-.86-.66-2-1-3.42a8.69,8.69,0,0,1-.45-2.69,4.49,4.49,0,0,1,.92-1.63,4,4,0,0,1,1.24-1.22c.41-.15.72,0,.9.52a12.61,12.61,0,0,1,.64,5.05,23.85,23.85,0,0,0,2.37,4.9C271.47,355.27,272.23,355.79,272.9,355.55Zm-.59-13.26c-.23.09-.17.59.17,1.51a4,4,0,0,0,2.24,2.17,7.27,7.27,0,0,0-.29-1C273.68,342.93,273,342.05,272.31,342.29Z" style="fill:#fff"></path><path d="M288.17,352.21a4.74,4.74,0,0,1-4.38-.4,6.84,6.84,0,0,1-2.88-3.52q-1.7-4.56-.64-7.62a6.54,6.54,0,0,1,4.11-4.19,3.81,3.81,0,0,1,2.63-.1,2.81,2.81,0,0,1,1.71,1.77,5.54,5.54,0,0,1-.56,5,8.91,8.91,0,0,1-4.5,3.7,5.62,5.62,0,0,0,2.15,2.41,3,3,0,0,0,2.64.38,4.64,4.64,0,0,0,2-1.43,6.63,6.63,0,0,0,1.22-2.35,25.63,25.63,0,0,0,1.07-6.35c0-.59.08-1,.12-1.28s.14-.43.3-.49.27,0,.35.25q.78,2.08-.22,7.22Q292.24,350.71,288.17,352.21Zm-4.89-6.38a6.76,6.76,0,0,0,3-2.93,4.42,4.42,0,0,0,0-3.48c-.47-1.25-1.1-1.73-1.91-1.43-1,.36-1.55,1.34-1.72,2.94A11.73,11.73,0,0,0,283.28,345.83Z" style="fill:#fff"></path><path d="M214.37,318.19a17.32,17.32,0,0,1-1.77.4,30.05,30.05,0,0,0-4.69,1.5,27.95,27.95,0,0,0-17.54,25.11,29.2,29.2,0,0,0,.22,4.91,14.28,14.28,0,0,1,.22,1.8,1.61,1.61,0,0,1-.14-.45,12.27,12.27,0,0,1-.28-1.32,25.73,25.73,0,0,1-.39-4.95,27.57,27.57,0,0,1,17.78-25.45,25,25,0,0,1,4.78-1.34c.58-.12,1-.15,1.34-.19A1.52,1.52,0,0,1,214.37,318.19Z" style="fill:#fff"></path><path d="M305.92,299.09a1.87,1.87,0,0,1-.54,0l-1.53-.11-1.1-.09c-.4,0-.84,0-1.32,0a29.33,29.33,0,0,0-3.2.05l-1.86.12c-.64.05-1.31.18-2,.26-1.39.15-2.83.51-4.37.83a46.3,46.3,0,0,0-18.14,8.95c-1.19,1-2.36,2-3.32,3-.49.5-1,.95-1.42,1.43l-1.23,1.4a30.33,30.33,0,0,0-2,2.51c-.28.38-.55.72-.78,1.05l-.6.93-.85,1.28a2.72,2.72,0,0,1-.32.43,1.72,1.72,0,0,1,.23-.48l.77-1.34.56-1c.22-.34.49-.69.76-1.08a27.33,27.33,0,0,1,1.95-2.57l1.21-1.44c.43-.49.93-.95,1.42-1.46a43.22,43.22,0,0,1,3.31-3,45.54,45.54,0,0,1,18.34-9.05,44.08,44.08,0,0,1,4.43-.78c.69-.08,1.37-.2,2-.24l1.88-.09a30.93,30.93,0,0,1,3.22,0c.48,0,.92,0,1.32.06l1.11.14,1.52.21A2.89,2.89,0,0,1,305.92,299.09Z" style="fill:#fff"></path><path d="M272.8,404.89a8,8,0,0,1-1.52,0c-1-.05-2.39-.18-4.14-.38a104.2,104.2,0,0,1-13.47-2.55,103.13,103.13,0,0,1-13-4.32c-1.62-.67-2.92-1.24-3.8-1.67a8.52,8.52,0,0,1-1.35-.71,10.06,10.06,0,0,1,1.43.52c.91.37,2.22.9,3.86,1.52a130.53,130.53,0,0,0,13,4.16,128.73,128.73,0,0,0,13.39,2.68c1.73.25,3.14.44,4.11.55A8.94,8.94,0,0,1,272.8,404.89Z" style="fill:#fff"></path><path d="M342,373.37c-3.18-6.56-7.73-12.34-12.37-18-5.64-6.84-12-13.84-20.53-16.19-3.56-1-6.47-1.38-9.85.08-2.86,1.23-3.19,3-3.19,3s-10.09-1.7-12.88,8.35c-1.06,3.78-.1,5.81.28,8.77-3.07.37-5.28,3.49-5.4,6.58s1.46,6,3.51,8.33a82.76,82.76,0,0,0,6.87,6.21c4.9,4.41,8.74,9.87,12.8,15.08s8.47,10.31,14.15,13.68,11.58,4.47,17.69,2c6.74-2.76,11.33-9.56,12.59-16.74S345.19,379.93,342,373.37Z" style="fill:#EB5187"></path><path d="M342,373.37s.38.67,1,2a41.17,41.17,0,0,1,2.11,6,32.94,32.94,0,0,1,1.1,10,24.65,24.65,0,0,1-4.1,12.6,21.21,21.21,0,0,1-5.41,5.59,18.56,18.56,0,0,1-7.83,3.12,18.35,18.35,0,0,1-9-1,29.75,29.75,0,0,1-8.31-4.76c-5.2-4.08-9.38-9.63-13.68-15.26A101.2,101.2,0,0,0,291,383.4a47.86,47.86,0,0,0-4-3.77c-1.42-1.2-2.88-2.38-4.25-3.71a19.05,19.05,0,0,1-3.3-4.08,11.28,11.28,0,0,1-1.59-5,7.82,7.82,0,0,1,1.38-4.95,6.18,6.18,0,0,1,4.24-2.73l-.22.29c-.3-2.2-1-4.44-.7-6.72a13.23,13.23,0,0,1,.81-3.25,7.25,7.25,0,0,1,.28-.78L284,348c.13-.25.25-.5.39-.74l.47-.67a10.16,10.16,0,0,1,5.1-3.85,13.66,13.66,0,0,1,6.16-.64l-.27.19a4.93,4.93,0,0,1,2.34-2.7,11.48,11.48,0,0,1,3.24-1.22,14.36,14.36,0,0,1,6.6.34,27.73,27.73,0,0,1,10.89,5.4,57.76,57.76,0,0,1,7.74,7.5c2.19,2.51,4.12,4.9,5.85,7.07a90.11,90.11,0,0,1,7.4,10.6,39.88,39.88,0,0,1,2.12,4.09s-.06-.08-.15-.25l-.41-.78c-.37-.69-.92-1.7-1.69-3a93.12,93.12,0,0,0-7.5-10.5c-1.74-2.16-3.68-4.53-5.88-7a57.72,57.72,0,0,0-7.72-7.41,27.41,27.41,0,0,0-10.76-5.29,14,14,0,0,0-6.4-.31,10.94,10.94,0,0,0-3.09,1.17,4.5,4.5,0,0,0-2.11,2.39l-.07.21-.2,0a13.08,13.08,0,0,0-5.93.63,9.75,9.75,0,0,0-4.86,3.67l-.45.65c-.13.23-.24.47-.36.71l-.36.71c-.11.24-.18.5-.27.75a12,12,0,0,0-.77,3.13c-.29,2.17.38,4.33.69,6.6l0,.26-.26,0a5.69,5.69,0,0,0-3.88,2.52,7.23,7.23,0,0,0-1.28,4.62,10.72,10.72,0,0,0,1.52,4.72,18.26,18.26,0,0,0,3.22,4c1.34,1.3,2.79,2.47,4.22,3.68a50.49,50.49,0,0,1,4.05,3.82,103.5,103.5,0,0,1,6.95,8.35c4.29,5.64,8.44,11.16,13.56,15.2a29.37,29.37,0,0,0,8.18,4.69,17.84,17.84,0,0,0,8.74,1,18.14,18.14,0,0,0,7.66-3,20.63,20.63,0,0,0,5.33-5.47,24.42,24.42,0,0,0,4.12-12.41,32.87,32.87,0,0,0-1-9.94,43.17,43.17,0,0,0-2-6c-.27-.67-.5-1.17-.65-1.51S342,373.37,342,373.37Z" style="fill:#263238"></path><path d="M311.44,352.23a21.66,21.66,0,0,1-2-1.76,44.34,44.34,0,0,0-5.09-3.89,43.84,43.84,0,0,0-5.62-3.07,18.92,18.92,0,0,1-2.42-1.13,10.38,10.38,0,0,1,2.56.79,32.5,32.5,0,0,1,5.76,3,32.91,32.91,0,0,1,5.06,4.06A10.15,10.15,0,0,1,311.44,352.23Z" style="fill:#263238"></path><path d="M292.92,365.41a20.06,20.06,0,0,0-4.15-3.81,20.62,20.62,0,0,0-5.26-2,4,4,0,0,1,1.7.09,11.31,11.31,0,0,1,3.83,1.51,11.19,11.19,0,0,1,3,2.76A3.8,3.8,0,0,1,292.92,365.41Z" style="fill:#263238"></path><path d="M319,391.77a6.26,6.26,0,0,1-1.56-1.28,27.4,27.4,0,0,1-3.17-3.68,28.6,28.6,0,0,1-2.5-4.16,6.67,6.67,0,0,1-.72-1.88c.15-.07,1.44,2.71,3.64,5.74S319.13,391.66,319,391.77Z" style="fill:#263238"></path><path d="M320.9,389a77.71,77.71,0,0,1-7.32-10.41,38.91,38.91,0,0,1,3.87,5.06A40.4,40.4,0,0,1,320.9,389Z" style="fill:#263238"></path><path d="M322.8,386.2a23,23,0,0,1-2.68-4,21.92,21.92,0,0,1-2.24-4.25,23,23,0,0,1,2.68,4A21.61,21.61,0,0,1,322.8,386.2Z" style="fill:#263238"></path><path d="M324.1,382.19a36.13,36.13,0,0,1-4.38-7.59,18.69,18.69,0,0,1,2.41,3.66A19,19,0,0,1,324.1,382.19Z" style="fill:#263238"></path><path d="M327.63,377.38a22.28,22.28,0,0,1-3.05-6.12,11.51,11.51,0,0,1,1.76,2.95A11.37,11.37,0,0,1,327.63,377.38Z" style="fill:#263238"></path><path d="M341.41,397.32c-.08,0,.44-1,1-2.69a20.11,20.11,0,0,0-.45-13.43c-.65-1.63-1.24-2.56-1.16-2.61s.2.2.48.61a13,13,0,0,1,1,1.86,18.1,18.1,0,0,1,.45,13.69,11.65,11.65,0,0,1-.88,1.92C341.6,397.11,341.44,397.34,341.41,397.32Z" style="fill:#263238"></path><path d="M184.5,360.82c5.67-4.58,12.25-7.87,18.85-11,8-3.77,16.75-7.4,25.48-5.88,3.63.64,6.43,1.52,8.87,4.28,2.06,2.33,1.59,4.11,1.59,4.11s9.85,2.77,8.08,13c-.66,3.87-2.39,5.3-4,7.81,2.61,1.64,3.29,5.41,2.07,8.25s-3.89,4.82-6.73,6a80.9,80.9,0,0,1-8.86,2.69c-6.32,1.9-12.11,5.19-18,8.17s-12.06,5.71-18.64,6.34c-25.37,2.41-35.68-32.29-29.94-52" style="fill:#EB5187"></path><path d="M163.27,352.73s0,.19-.12.57-.24.93-.39,1.66a44.8,44.8,0,0,0-.83,6.5,54.81,54.81,0,0,0,4,23.57,36.87,36.87,0,0,0,9.29,13.58,23,23,0,0,0,7.87,4.67,23.52,23.52,0,0,0,9.61,1.2,36.58,36.58,0,0,0,10-2.3,87,87,0,0,0,9.81-4.44c3.27-1.66,6.56-3.44,10-5a58.24,58.24,0,0,1,10.92-3.79A34.82,34.82,0,0,0,239.2,387a13.54,13.54,0,0,0,4.72-3.52,7.64,7.64,0,0,0,1.84-5.31,5.9,5.9,0,0,0-2.52-4.75l-.22-.14.14-.21c1.26-1.93,2.79-3.6,3.45-5.68a12.4,12.4,0,0,0,.64-3.17,7.06,7.06,0,0,0,.05-1.59c0-.27,0-.54,0-.8l-.12-.78a9.74,9.74,0,0,0-2.84-5.38,13,13,0,0,0-5.08-3.1l-.2-.06,0-.22a4.51,4.51,0,0,0-.89-3.08,11.1,11.1,0,0,0-2.31-2.38,14.05,14.05,0,0,0-5.94-2.44,27.52,27.52,0,0,0-12,.21A57.23,57.23,0,0,0,207.76,348c-3,1.31-5.81,2.63-8.3,3.84a92.29,92.29,0,0,0-11.23,6.29c-1.24.82-2.17,1.5-2.79,2l-.7.53-.24.17a36.3,36.3,0,0,1,3.64-2.79,90.19,90.19,0,0,1,11.19-6.41c2.49-1.23,5.25-2.56,8.3-3.9a58.46,58.46,0,0,1,10.19-3.5A28,28,0,0,1,230,344a14.4,14.4,0,0,1,6.13,2.5,11.68,11.68,0,0,1,2.42,2.49,4.91,4.91,0,0,1,1,3.45l-.17-.29a13.56,13.56,0,0,1,5.3,3.2,10.24,10.24,0,0,1,3,5.65l.13.81c0,.28,0,.55,0,.83a9.22,9.22,0,0,1-.05,1.66,12.91,12.91,0,0,1-.66,3.28c-.7,2.19-2.29,3.93-3.5,5.79l-.08-.35a6.41,6.41,0,0,1,2.77,5.16,8.2,8.2,0,0,1-2,5.66,14,14,0,0,1-4.9,3.66,34.4,34.4,0,0,1-5.85,2,57.75,57.75,0,0,0-10.83,3.76c-3.45,1.56-6.74,3.33-10,5a88.08,88.08,0,0,1-9.87,4.45A37.32,37.32,0,0,1,192.73,405a24.09,24.09,0,0,1-9.8-1.24,23.79,23.79,0,0,1-8-4.78,37.36,37.36,0,0,1-9.34-13.77,54.54,54.54,0,0,1-3.49-13.32,53.7,53.7,0,0,1-.36-10.4,40.66,40.66,0,0,1,.93-6.51c.16-.74.34-1.28.44-1.66S163.27,352.73,163.27,352.73Z" style="fill:#263238"></path><path d="M221.18,354.74a9.79,9.79,0,0,1,2.45-1.08,32,32,0,0,1,6.31-1.51,31.67,31.67,0,0,1,6.47-.24,9.87,9.87,0,0,1,2.66.39,21.42,21.42,0,0,1-2.67,0,45.2,45.2,0,0,0-6.39.38,42.49,42.49,0,0,0-6.26,1.35A21.78,21.78,0,0,1,221.18,354.74Z" style="fill:#263238"></path><path d="M232.3,374.56a3.83,3.83,0,0,1,1.38-1,11.41,11.41,0,0,1,3.94-1.2,11.55,11.55,0,0,1,4.11.27,4.24,4.24,0,0,1,1.58.65,15.25,15.25,0,0,0-11,1.27Z" style="fill:#263238"></path><path d="M174.14,382.58s-.26-.21-.66-.66-.94-1.12-1.57-2a37.1,37.1,0,0,1-6.42-15.25c-.17-1.06-.28-1.91-.32-2.51a3.55,3.55,0,0,1,0-.93c.09,0,.25,1.3.69,3.37a43.63,43.63,0,0,0,6.37,15.11C173.39,381.49,174.21,382.52,174.14,382.58Z" style="fill:#263238"></path><path d="M181.11,380.54a4.85,4.85,0,0,1-1.61-1,14.52,14.52,0,0,1-5-7.41,4.8,4.8,0,0,1-.29-1.85,19.84,19.84,0,0,0,6.91,10.22Z" style="fill:#263238"></path><path d="M188.85,376.31a10.71,10.71,0,0,1-6-1.15,11,11,0,0,1-4.77-3.82,26,26,0,0,0,5,3.35A25.44,25.44,0,0,0,188.85,376.31Z" style="fill:#263238"></path><path d="M199.66,356c.06.15-2.65,1.14-5.69,2.92s-5.24,3.64-5.35,3.52a24.05,24.05,0,0,1,11-6.44Z" style="fill:#fff"></path></g><g id="freepik--Hearts--inject-19"><path d="M327.17,78.92C322,67.37,307.93,75.2,307.93,75.2s-7.32-14.63-18.2-8.19c-9.55,5.65-4.46,17.83-.47,23.87,2.53,3.82,8.85,10.81,9.67,11.72v0h0l.07.08,0-.1a140.88,140.88,0,0,0,14.67-3.95C320.47,96.05,331.68,89.06,327.17,78.92Z" style="fill:#EB5187"></path><path d="M397.11,333.23c-5.14-11.55-19.24-3.73-19.24-3.73s-7.32-14.63-18.2-8.19c-9.55,5.65-4.47,17.84-.47,23.87,2.53,3.82,8.84,10.82,9.67,11.73v0h0l.07.08,0-.1c1.2-.27,10.39-2.31,14.67-4C390.41,350.35,401.62,343.37,397.11,333.23Z" style="fill:#EB5187"></path><path d="M398.15,60.07c-6.55-4.55-11.6,4.29-11.6,4.29s-8.74-5.5-12.5,1.54c-3.3,6.17,3.43,11.08,7.56,13a89.33,89.33,0,0,0,9.05,3.16v0l.06,0v-.06a89.83,89.83,0,0,0,6.62-6.94C400.14,71.5,403.9,64.06,398.15,60.07Z" style="fill:#EB5187"></path><g style="opacity:0.30000000000000004"><path d="M398.15,60.07c-6.55-4.55-11.6,4.29-11.6,4.29s-8.74-5.5-12.5,1.54c-3.3,6.17,3.43,11.08,7.56,13a89.33,89.33,0,0,0,9.05,3.16v0l.06,0v-.06a89.83,89.83,0,0,0,6.62-6.94C400.14,71.5,403.9,64.06,398.15,60.07Z" style="fill:#fff"></path></g><path d="M354,42.75c-3.54-7.15-12.23-1.85-12.23-1.85s-5-9-11.69-4.68c-5.87,3.81-2.35,11.36.33,15.06a89.6,89.6,0,0,0,6.4,7.13v0h0l0,0,0-.06A89.75,89.75,0,0,0,346,55.53C350.17,53.72,357.06,49,354,42.75Z" style="fill:#EB5187"></path><g style="opacity:0.6000000000000001"><path d="M354,42.75c-3.54-7.15-12.23-1.85-12.23-1.85s-5-9-11.69-4.68c-5.87,3.81-2.35,11.36.33,15.06a89.6,89.6,0,0,0,6.4,7.13v0h0l0,0,0-.06A89.75,89.75,0,0,0,346,55.53C350.17,53.72,357.06,49,354,42.75Z" style="fill:#fff"></path></g><path d="M74.77,231.27c-8.78-10-20.55,2.24-20.55,2.24S42.28,221,33.32,230.93c-7.87,8.67,1.06,19.37,7,24.2,3.75,3.06,12.29,8.15,13.4,8.81v0l0,0,.09.06v-.11c1.13-.64,9.76-5.56,13.56-8.56C73.36,250.62,82.48,240.09,74.77,231.27Z" style="fill:#EB5187"></path><g style="opacity:0.6000000000000001"><path d="M74.77,231.27c-8.78-10-20.55,2.24-20.55,2.24S42.28,221,33.32,230.93c-7.87,8.67,1.06,19.37,7,24.2,3.75,3.06,12.29,8.15,13.4,8.81v0l0,0,.09.06v-.11c1.13-.64,9.76-5.56,13.56-8.56C73.36,250.62,82.48,240.09,74.77,231.27Z" style="fill:#fff"></path></g><path d="M418.67,306c-6.6-4.49-11.55,4.4-11.55,4.4s-8.79-5.4-12.48,1.67c-3.24,6.21,3.54,11.05,7.69,12.95a86.39,86.39,0,0,0,9.09,3.07v0h0l.07,0,0-.07a89.42,89.42,0,0,0,6.55-7C420.78,317.41,424.47,309.93,418.67,306Z" style="fill:#EB5187"></path><g style="opacity:0.6000000000000001"><path d="M418.67,306c-6.6-4.49-11.55,4.4-11.55,4.4s-8.79-5.4-12.48,1.67c-3.24,6.21,3.54,11.05,7.69,12.95a86.39,86.39,0,0,0,9.09,3.07v0h0l.07,0,0-.07a89.42,89.42,0,0,0,6.55-7C420.78,317.41,424.47,309.93,418.67,306Z" style="fill:#fff"></path></g></g><g id="freepik--Ribbon--inject-19"><path d="M333.75,123.57A39.36,39.36,0,0,1,367.54,102c7.19-.15,14.25,1.71,21.39,2.56s14.84.56,20.84-3.39A43,43,0,0,1,386,120.28a34.56,34.56,0,0,0,28.77-1.11c-4.93,7.61-10.8,14.75-18.21,20s-16.48,7-25.53,7.64c-7.35.51-22.53,3.78-22.53,3.78Z" style="fill:#f5f5f5"></path><path d="M333.75,123.57l.28.47.77,1.38c.69,1.23,1.68,3,3,5.32,2.56,4.65,6.26,11.37,10.88,19.74l-.19-.08c4.73-1,9.94-2.05,15.6-3,2.83-.47,5.81-.81,8.86-1a69.48,69.48,0,0,0,9.33-1.44,43.28,43.28,0,0,0,9.4-3.24,40.09,40.09,0,0,0,8.64-5.82A77.3,77.3,0,0,0,414.54,119l.34.36a34.74,34.74,0,0,1-8.95,3.1,35.7,35.7,0,0,1-9.76.53,34.4,34.4,0,0,1-10.28-2.5l-.66-.27.68-.22a42.94,42.94,0,0,0,23.65-19l.35.32a23.26,23.26,0,0,1-8.58,3.29,37.49,37.49,0,0,1-8.81.44c-5.75-.34-11.11-1.57-16.21-2.27a62.65,62.65,0,0,0-7.44-.64c-1.21,0-2.39.07-3.55.13s-2.3.25-3.4.44a39.79,39.79,0,0,0-19.83,9.9,38.14,38.14,0,0,0-5,5.59,25.88,25.88,0,0,0-1.53,2.24,18.11,18.11,0,0,0-1,1.69l-.59,1c-.13.24-.21.36-.21.36s.05-.12.17-.36l.55-1.08a17.4,17.4,0,0,1,1-1.73,24.37,24.37,0,0,1,1.5-2.27,37.21,37.21,0,0,1,5-5.66,39.15,39.15,0,0,1,8.2-5.92,40.17,40.17,0,0,1,11.72-4.17c1.12-.19,2.27-.34,3.43-.46s2.37-.16,3.59-.14a61.3,61.3,0,0,1,7.5.62c5.12.68,10.48,1.9,16.18,2.22a37,37,0,0,0,8.69-.45,22.63,22.63,0,0,0,8.4-3.23l.86-.56-.52.89a43.41,43.41,0,0,1-23.91,19.26l0-.49a34,34,0,0,0,10.13,2.46,35,35,0,0,0,9.61-.52,34.64,34.64,0,0,0,8.81-3l.85-.44-.52.81a77.43,77.43,0,0,1-14.37,17,40.55,40.55,0,0,1-8.75,5.88,44.16,44.16,0,0,1-9.5,3.26,70.7,70.7,0,0,1-9.41,1.41c-3.07.21-6,.54-8.83,1-5.65.89-10.86,1.91-15.59,2.89l-.12,0-.06-.11-10.76-19.88-2.87-5.34L334,124C333.82,123.73,333.75,123.57,333.75,123.57Z" style="fill:#263238"></path><path d="M343,140.15l5.55,10.14s15.65-4.58,21.29-19.22Z" style="fill:#e0e0e0"></path><path d="M146.7,88.6a39.36,39.36,0,0,0-39.45,7.21c-5.37,4.79-9.27,11-13.92,16.44S82.85,122.78,75.76,124a43,43,0,0,0,30.45-2.2,34.52,34.52,0,0,1-21.82,18.79c8.79,2.21,18,3.44,26.94,2.22s16.85-6.08,23.89-11.79c5.73-4.64,19.07-12.59,19.07-12.59Z" style="fill:#f5f5f5"></path><path d="M146.7,88.6l.15.5c.09.36.23.86.4,1.51.36,1.35.88,3.32,1.54,5.87,1.34,5.14,3.26,12.59,5.67,21.88l0,.12-.11.07c-4.13,2.49-8.64,5.3-13.38,8.5-2.39,1.6-4.75,3.35-7.14,5.29a69.83,69.83,0,0,1-7.85,5.37,43.81,43.81,0,0,1-9.18,4.09,41,41,0,0,1-10.4,1.66,77.85,77.85,0,0,1-22.11-2.65l-.92-.24.92-.26a34.26,34.26,0,0,0,15.91-9.94,34,34,0,0,0,5.74-8.7l.35.34a43.4,43.4,0,0,1-30.63,2.2l-1-.31,1-.17a22.89,22.89,0,0,0,8.35-3.35,37.78,37.78,0,0,0,6.67-5.6c4-4.12,7-8.66,10.33-12.65a60.6,60.6,0,0,1,5.07-5.56c.88-.84,1.81-1.59,2.72-2.34s1.88-1.38,2.82-2a40.43,40.43,0,0,1,11.42-4.94,39.42,39.42,0,0,1,10-1.24,37.48,37.48,0,0,1,7.5.75c1,.17,1.88.44,2.64.64a16.14,16.14,0,0,1,1.9.6l1.14.41a3.53,3.53,0,0,1,.38.15l-.41-.12-1.15-.37a17,17,0,0,0-1.89-.55c-.76-.19-1.63-.44-2.64-.6a37.86,37.86,0,0,0-7.47-.68,39.81,39.81,0,0,0-21.26,6.26c-.94.61-1.87,1.28-2.79,2s-1.81,1.49-2.68,2.32a60.19,60.19,0,0,0-5,5.55c-3.26,4-6.34,8.53-10.32,12.7a38.1,38.1,0,0,1-6.75,5.68,23.15,23.15,0,0,1-8.51,3.43l0-.47a43,43,0,0,0,30.26-2.2l.64-.3-.3.64a34.4,34.4,0,0,1-5.83,8.84,35.77,35.77,0,0,1-7.5,6.26,34.76,34.76,0,0,1-8.65,3.82v-.49a77.65,77.65,0,0,0,22,2.66,39.87,39.87,0,0,0,10.28-1.63,42.83,42.83,0,0,0,9.09-4A68.72,68.72,0,0,0,133.6,132c2.37-1.92,4.79-3.7,7.17-5.28,4.77-3.2,9.29-6,13.43-8.46l-.07.18-5.49-21.86-1.46-5.91-.37-1.54C146.73,88.78,146.7,88.6,146.7,88.6Z" style="fill:#263238"></path><path d="M124.49,117.61l29.58.78-1.94-7.4S132.12,113,124.49,117.61Z" style="fill:#e0e0e0"></path><path d="M363.37,84.57c-23.27,8.32-51,15-71.47,7.21s-40.07-17.65-60.58-25.29A150,150,0,0,0,110,74.6l14.51,42.83s53.25-18.6,100.23-.11S293,147.42,327,143.08s42.91-12,42.91-12Z" style="fill:#fafafa"></path><path d="M363.37,84.57c.14,1,2.41,16.9,6.64,46.48v.08l-.06.05a25.3,25.3,0,0,1-4.39,2.55q-2.34,1.1-4.89,2a101.78,101.78,0,0,1-10.78,3.29,192.75,192.75,0,0,1-24.76,4.39,101.38,101.38,0,0,1-28.31-.64,165.73,165.73,0,0,1-30.05-8.57c-10.19-3.78-20.62-8.1-31.45-12.43-5.42-2.14-10.88-4.47-16.57-6.35A116.23,116.23,0,0,0,201,111.19a153.32,153.32,0,0,0-37.79-1.14,190.69,190.69,0,0,0-19.37,2.72,164.69,164.69,0,0,0-19.29,4.9l-.25.08-.08-.24c-.44-1.28-.91-2.67-1.38-4.07-4.5-13.27-8.93-26.34-13.13-38.76l-.07-.21.19-.1a150.19,150.19,0,0,1,51.55-16.12A160.1,160.1,0,0,1,187,57.31l6.23.39,6.11.7c2,.19,4,.62,6,.93l3,.5c1,.17,2,.42,2.93.63a147.21,147.21,0,0,1,22.2,6.61c7,2.66,13.7,5.5,20.13,8.29,12.85,5.59,24.7,11,35.73,15.24,1.38.53,2.74,1.09,4.11,1.51l2,.67c.67.24,1.37.35,2,.53l2,.49c.67.17,1.36.23,2,.35,1.35.22,2.67.46,4,.55a78.56,78.56,0,0,0,14.94,0,117.82,117.82,0,0,0,12.87-1.8c2-.36,3.82-.77,5.6-1.18s3.44-.84,5-1.23c6.33-1.66,11.15-3.23,14.41-4.29l4.95-1.67-1.26.46c-.83.3-2.05.75-3.66,1.3-3.25,1.09-8.07,2.69-14.4,4.38-1.58.4-3.25.87-5,1.25s-3.63.84-5.6,1.2A117.16,117.16,0,0,1,320.54,95a78.26,78.26,0,0,1-15,0c-1.33-.08-2.67-.32-4-.53-.68-.12-1.37-.19-2-.36l-2.05-.48c-.68-.18-1.38-.29-2.06-.53l-2.05-.67c-1.39-.42-2.74-1-4.12-1.51-11.05-4.27-22.92-9.62-35.77-15.19s-26.7-11.63-42.27-14.82c-1-.21-1.93-.46-2.91-.63l-3-.5c-2-.3-4-.73-6-.91l-6.1-.7-6.2-.38a160.29,160.29,0,0,0-25.51,1,150.2,150.2,0,0,0-51.37,16.08l.13-.31c4.2,12.42,8.63,25.49,13.13,38.77.48,1.39.95,2.78,1.38,4.06l-.33-.16a163,163,0,0,1,19.36-4.92,186,186,0,0,1,19.43-2.72,153.31,153.31,0,0,1,37.91,1.15,118.08,118.08,0,0,1,17.79,4.3c5.72,1.9,11.17,4.23,16.6,6.37,10.82,4.34,21.25,8.67,31.43,12.46a165.61,165.61,0,0,0,30,8.58,101.4,101.4,0,0,0,28.2.68,194.41,194.41,0,0,0,24.72-4.34,99.16,99.16,0,0,0,10.76-3.25c1.68-.62,3.31-1.3,4.87-2a24.69,24.69,0,0,0,4.33-2.49l0,.12C365.68,101.48,363.5,85.58,363.37,84.57Z" style="fill:#263238"></path><path d="M157.19,95.13a1.48,1.48,0,0,0,.28.68,1,1,0,0,0,.46.31,1.51,1.51,0,0,0,.61.06l.7-.08.09.61-5.4.83-.09-.61.59-.09a1.23,1.23,0,0,0,.46-.18,1.38,1.38,0,0,0,.37-.35,1.24,1.24,0,0,0,.23-.44,1,1,0,0,0,0-.49l-3.24-20.11a1.11,1.11,0,0,0-.25-.6.94.94,0,0,0-.47-.28,1.66,1.66,0,0,0-.6,0c-.21,0-.43,0-.64.07l-.11-.51,5.37-1.06.11.49-.65.1a1,1,0,0,0-.47.2,1.76,1.76,0,0,0-.38.39,1.45,1.45,0,0,0-.22.49,1.26,1.26,0,0,0,0,.51l1.89,11.63,4.55-.7-1.62-12a8.51,8.51,0,0,0-.2-1,1.17,1.17,0,0,0-.33-.57,1,1,0,0,0-.61-.23,3.51,3.51,0,0,0-1,.06l-.12-.51,5.31-.79.08.52c-.22,0-.44.07-.65.12a2,2,0,0,0-.55.22,1,1,0,0,0-.35.41,1.22,1.22,0,0,0-.06.68l2.86,21a1.35,1.35,0,0,0,.18.47,1.46,1.46,0,0,0,.33.37,1.6,1.6,0,0,0,.45.23,1.41,1.41,0,0,0,.5,0l.61-.1.09.58-5.42.84-.12-.57a6.11,6.11,0,0,0,.7-.15,1.72,1.72,0,0,0,.56-.27,1,1,0,0,0,.36-.45,1.56,1.56,0,0,0,.11-.72l-1-7.42-4.55.7Z" style="fill:#263238"></path><path d="M170.62,90.85a2.91,2.91,0,0,1-.48.7,5.54,5.54,0,0,1-.68.59,4.46,4.46,0,0,1-.77.43,2.55,2.55,0,0,1-.77.19,1.91,1.91,0,0,1-1-.16,2.23,2.23,0,0,1-.75-.58,3.12,3.12,0,0,1-.5-.85,3.72,3.72,0,0,1-.22-1,3.56,3.56,0,0,1,.28-1.74,6.55,6.55,0,0,1,.93-1.44,16.76,16.76,0,0,1,1.25-1.29,11.2,11.2,0,0,0,1.26-1.32,6.86,6.86,0,0,0,.92-1.51,4.06,4.06,0,0,0,.27-1.88,4.72,4.72,0,0,0-.19-1.08,3.27,3.27,0,0,0-.49-1,2.46,2.46,0,0,0-.8-.71,1.88,1.88,0,0,0-1.09-.22,1.84,1.84,0,0,0-1.07.4,2.33,2.33,0,0,0-.61.87,3.34,3.34,0,0,0-.25,1.12,8,8,0,0,0,0,1.2,5.62,5.62,0,0,0,.08.58,5.06,5.06,0,0,0,.17.67,2,2,0,0,0,.27.54.42.42,0,0,0,.37.2.49.49,0,0,0,.37-.18,1.18,1.18,0,0,0,.19-.37,1.71,1.71,0,0,0,0-.45,2.5,2.5,0,0,0,0-.42l.58-.08a3.8,3.8,0,0,1,0,.75,1.88,1.88,0,0,1-.16.65,1.18,1.18,0,0,1-.36.49,1.1,1.1,0,0,1-.59.21,1.17,1.17,0,0,1-.83-.21,1.92,1.92,0,0,1-.56-.64,4,4,0,0,1-.33-.86,5.34,5.34,0,0,1-.06-2.32,4.22,4.22,0,0,1,.5-1.34,3.1,3.1,0,0,1,.94-1,2.86,2.86,0,0,1,1.44-.47,3,3,0,0,1,1.81.37,4,4,0,0,1,1.22,1.22,5.94,5.94,0,0,1,.72,1.67A9.64,9.64,0,0,1,172,82.3c.11,1.41.17,2.82.18,4.22s.07,2.81.19,4.23a1.66,1.66,0,0,0,.17.7.68.68,0,0,0,.36.31,1.26,1.26,0,0,0,.53.08l.7,0,0,.58-1.74.08q-.85,0-1.71.06Zm-1.87.77a1.32,1.32,0,0,0,.5-.16,2.09,2.09,0,0,0,.51-.4,3.58,3.58,0,0,0,.47-.55,3.73,3.73,0,0,0,.38-.68l-.17-6a11.3,11.3,0,0,1-1,1.42q-.6.71-1.11,1.44a8.38,8.38,0,0,0-.87,1.49,3.12,3.12,0,0,0-.29,1.58,2.82,2.82,0,0,0,.14.65,2,2,0,0,0,.31.64,1.54,1.54,0,0,0,.49.46A1,1,0,0,0,168.75,91.62Z" style="fill:#263238"></path><path d="M177.18,78.58a4.37,4.37,0,0,1,1.12-2A2.48,2.48,0,0,1,180,76a1.87,1.87,0,0,1,1,.27,2.26,2.26,0,0,1,.7.74,3.73,3.73,0,0,1,.42,1.06,9.87,9.87,0,0,1,.23,1.25c.05.42.08.85.09,1.28s0,.83,0,1.2c0,1,0,2-.07,3a10.89,10.89,0,0,1-.41,2.59,4.3,4.3,0,0,1-1,1.83,2.64,2.64,0,0,1-1.92.71,1.88,1.88,0,0,1-1.13-.36,3.48,3.48,0,0,1-.85-.9L177,96a.8.8,0,0,0,.06.37,1.33,1.33,0,0,0,.2.35,1.22,1.22,0,0,0,.3.26.75.75,0,0,0,.38.1l.48,0,.47,0,0,.61-5.48.32v-.61h.48a3.91,3.91,0,0,0,.49,0,.71.71,0,0,0,.36-.15,1,1,0,0,0,.28-.3,1.76,1.76,0,0,0,.19-.39,2.07,2.07,0,0,0,.08-.37l.18-18a.92.92,0,0,0-.68-1,2.1,2.1,0,0,0-.63-.07h-.67v-.61h3.69Zm2.28-1.69a1.12,1.12,0,0,0-.69.23,2.16,2.16,0,0,0-.54.61,4,4,0,0,0-.43.85,8.57,8.57,0,0,0-.31,1c-.09.34-.16.66-.22,1s-.11.61-.14.87l-.06,6.13a4.9,4.9,0,0,0,.36.52,2.84,2.84,0,0,0,.48.5,2.59,2.59,0,0,0,.56.37,1.51,1.51,0,0,0,.62.14,1.21,1.21,0,0,0,1.07-.61,4.27,4.27,0,0,0,.54-1.61,16,16,0,0,0,.19-2.36q0-1.34,0-2.82,0-1,0-1.86a10.15,10.15,0,0,0-.16-1.51,2.4,2.4,0,0,0-.43-1,1,1,0,0,0-.81-.37Z" style="fill:#263238"></path><path d="M187.54,78.83A4.46,4.46,0,0,1,188.83,77a2.54,2.54,0,0,1,1.75-.49,1.94,1.94,0,0,1,1,.36,2.18,2.18,0,0,1,.63.8,3.94,3.94,0,0,1,.34,1.1,10,10,0,0,1,.11,1.26c0,.43,0,.86,0,1.28s-.06.83-.09,1.2c-.08,1-.19,2-.32,3a10.39,10.39,0,0,1-.64,2.53,4.35,4.35,0,0,1-1.19,1.75,2.6,2.6,0,0,1-2,.53,1.78,1.78,0,0,1-1.09-.45,3.34,3.34,0,0,1-.77-1l-.74,7.4a.83.83,0,0,0,0,.38,1.24,1.24,0,0,0,.17.37,1.07,1.07,0,0,0,.28.28.69.69,0,0,0,.36.13l.48,0h.48l0,.62-5.48-.15,0-.62.48,0a4,4,0,0,0,.49,0,.64.64,0,0,0,.37-.11,1.18,1.18,0,0,0,.31-.28,1.31,1.31,0,0,0,.21-.36,1.75,1.75,0,0,0,.12-.37l1.72-17.92a1,1,0,0,0-.14-.7.92.92,0,0,0-.45-.35,2.27,2.27,0,0,0-.62-.13L184,77l0-.62,3.68.33ZM190,77.35a1.07,1.07,0,0,0-.7.17,2.54,2.54,0,0,0-.6.55,4.36,4.36,0,0,0-.5.82,7.89,7.89,0,0,0-.39,1c-.12.32-.22.65-.31,1l-.21.86-.58,6.1a5.58,5.58,0,0,0,.32.56,3.06,3.06,0,0,0,.42.53,2.29,2.29,0,0,0,.53.41,1.32,1.32,0,0,0,.61.19,1.2,1.2,0,0,0,1.12-.5,4.52,4.52,0,0,0,.67-1.57,15.87,15.87,0,0,0,.39-2.33c.09-.89.17-1.82.25-2.81.05-.66.09-1.27.12-1.85a9.25,9.25,0,0,0,0-1.52,2.28,2.28,0,0,0-.34-1.05,1,1,0,0,0-.77-.44Z" style="fill:#263238"></path><path d="M196.65,88.93l-1.89-12.38a1.27,1.27,0,0,0-.53-.9,2.45,2.45,0,0,0-1-.4l.08-.44,4.53.77-.08.45-.41-.07a.88.88,0,0,0-.91.64s0,.2.06.53.11.75.18,1.27.16,1.11.26,1.77.19,1.32.29,2,.2,1.33.29,2,.19,1.18.26,1.66c.48-1.29.89-2.35,1.21-3.21s.6-1.54.8-2.07l.46-1.2c.1-.26.18-.45.22-.55l.07-.15h0a1.09,1.09,0,0,0,0-.36,2.22,2.22,0,0,0-.12-.39,1.24,1.24,0,0,0-.23-.32.65.65,0,0,0-.34-.17l-.83-.14.07-.43,4.51.78-.07.42-.68-.11a1,1,0,0,0-.44,0,1.36,1.36,0,0,0-.41.22,2.57,2.57,0,0,0-.33.33,1.29,1.29,0,0,0-.23.36l-7.57,19.91a13.18,13.18,0,0,1-.62,1.34,5.63,5.63,0,0,1-.9,1.24,3.52,3.52,0,0,1-1.18.85,2.57,2.57,0,0,1-1.5.16,2.41,2.41,0,0,1-1-.41,2.73,2.73,0,0,1-.69-.75,2.86,2.86,0,0,1-.37-1,3.09,3.09,0,0,1,0-1,3.55,3.55,0,0,1,.25-.85,3.37,3.37,0,0,1,.49-.81,3.07,3.07,0,0,1,.72-.67,2.49,2.49,0,0,1,1-.4l.36.26a2.12,2.12,0,0,0-1.13.91,4.05,4.05,0,0,0-.54,1.38,4.53,4.53,0,0,0,0,.83,2.66,2.66,0,0,0,.18.82,1.54,1.54,0,0,0,.44.65,1.42,1.42,0,0,0,.77.36,1.47,1.47,0,0,0,1.08-.19,2.93,2.93,0,0,0,.79-.78,5.92,5.92,0,0,0,.56-1.06l.41-1Z" style="fill:#263238"></path><path d="M224.1,79.13l-.16.56-1-.29a1.78,1.78,0,0,0-1.18.08,1.8,1.8,0,0,0-.49.32,1.65,1.65,0,0,0-.35.47l-8.79,18.59-.05.17a.85.85,0,0,0,0,.61,1,1,0,0,0,.33.36,1.89,1.89,0,0,0,.52.21l.58.16-.17.57-5.24-1.56.2-.55.66.2a1.32,1.32,0,0,0,.75,0,.84.84,0,0,0,.44-.61l.07-.24,3.2-21.14a1.69,1.69,0,0,0,0-.8.78.78,0,0,0-.32-.43,1.53,1.53,0,0,0-.55-.24c-.22,0-.46-.11-.71-.19l.16-.56,5.12,1.51-.14.57-.42-.12a1.82,1.82,0,0,0-.95-.08c-.25.06-.44.3-.56.73l-.05.18-3.1,20.2L220.29,80l.06-.12a.37.37,0,0,0,.05-.11,1.06,1.06,0,0,0,0-.75,1.09,1.09,0,0,0-.42-.46,2.24,2.24,0,0,0-.65-.28l-.71-.2.17-.6Z" style="fill:#263238"></path><path d="M222.36,99a2.75,2.75,0,0,1-.72.45,4.23,4.23,0,0,1-.85.28,3.69,3.69,0,0,1-.87.1,2.39,2.39,0,0,1-.79-.12,1.93,1.93,0,0,1-.86-.54,2.17,2.17,0,0,1-.47-.82,2.64,2.64,0,0,1-.12-1,3.45,3.45,0,0,1,.18-1,3.39,3.39,0,0,1,.93-1.49,6,6,0,0,1,1.41-1,14.49,14.49,0,0,1,1.66-.7,11.43,11.43,0,0,0,1.67-.74,6.13,6.13,0,0,0,1.43-1,3.89,3.89,0,0,0,1-1.63,4.41,4.41,0,0,0,.25-1.07,3,3,0,0,0-.06-1.12,2.48,2.48,0,0,0-.46-1,1.91,1.91,0,0,0-.92-.62,1.8,1.8,0,0,0-1.14,0,2.24,2.24,0,0,0-.9.56,3.82,3.82,0,0,0-.67.93,7.45,7.45,0,0,0-.46,1.11,5.64,5.64,0,0,0-.15.57,3.86,3.86,0,0,0-.11.68,2.3,2.3,0,0,0,0,.6.41.41,0,0,0,.27.33.5.5,0,0,0,.4,0,1.06,1.06,0,0,0,.32-.28,1.24,1.24,0,0,0,.22-.39,2,2,0,0,0,.12-.4l.57.15a3.91,3.91,0,0,1-.27.7,2.52,2.52,0,0,1-.4.54,1.18,1.18,0,0,1-.53.3,1,1,0,0,1-.62,0,1.2,1.2,0,0,1-.68-.51,1.94,1.94,0,0,1-.27-.81,3.56,3.56,0,0,1,0-.92,5.33,5.33,0,0,1,.2-.83,5,5,0,0,1,.65-1.33,4.06,4.06,0,0,1,1-1,2.88,2.88,0,0,1,1.26-.56,2.82,2.82,0,0,1,1.5.13,2.9,2.9,0,0,1,1.52,1,3.82,3.82,0,0,1,.65,1.6,5.84,5.84,0,0,1,0,1.82,9.16,9.16,0,0,1-.38,1.71q-.66,2-1.47,4c-.53,1.3-1,2.62-1.47,4a1.59,1.59,0,0,0-.11.72.68.68,0,0,0,.21.43,1.27,1.27,0,0,0,.46.27l.65.25-.19.56-1.64-.61c-.54-.19-1.07-.4-1.6-.61Zm-2,0a1.41,1.41,0,0,0,.52,0,2.28,2.28,0,0,0,.63-.17,3.25,3.25,0,0,0,.64-.33,3.42,3.42,0,0,0,.61-.47l2.2-5.63a14,14,0,0,1-1.49.91c-.55.28-1.07.58-1.58.89a9.15,9.15,0,0,0-1.39,1,3.18,3.18,0,0,0-.87,1.34,2.57,2.57,0,0,0-.13.66,2.41,2.41,0,0,0,0,.71,1.68,1.68,0,0,0,.27.61A1,1,0,0,0,220.34,99Z" style="fill:#263238"></path><path d="M229.32,104.28l-4.74-1.48.16-.56.56.16a.86.86,0,0,0,.45,0,1.38,1.38,0,0,0,.43-.19,1.78,1.78,0,0,0,.35-.32,1.49,1.49,0,0,0,.22-.38L233,84.13a4.74,4.74,0,0,0,.15-.57,2.26,2.26,0,0,0,0-.58,1.11,1.11,0,0,0-.2-.51,1,1,0,0,0-.5-.35l-.56-.16.2-.58,3.27,1.13-7,19.35a1.56,1.56,0,0,0-.06.46,2.25,2.25,0,0,0,.08.52,1.3,1.3,0,0,0,.22.46.77.77,0,0,0,.39.27l.46.16Z" style="fill:#263238"></path><path d="M236.56,95.78c.47.17.85.31,1.15.44a1.4,1.4,0,0,0,.72.14.7.7,0,0,0,.47-.36,5.91,5.91,0,0,0,.45-1.06l.53.19-1.53,4.24-.53-.19.44-1.23a1.14,1.14,0,0,0,.06-.29,1,1,0,0,0,0-.34.73.73,0,0,0-.11-.29.37.37,0,0,0-.23-.19l-1.6-.54-2.08,6.33.94.34c.3.11.61.21.92.3a1.38,1.38,0,0,0,.64,0,2.06,2.06,0,0,0,.63-.22,2,2,0,0,0,.52-.4,1.54,1.54,0,0,0,.34-.53l.83-2.21.55.2L238,104.53c-1.21-.42-2.43-.82-3.66-1.22l-3.67-1.21.18-.58.73.26a1.39,1.39,0,0,0,.58.08.89.89,0,0,0,.47-.24,2,2,0,0,0,.39-.7l0-.1,3.43-10.21a2.14,2.14,0,0,0,.14-.83.93.93,0,0,0-.2-.56,1.25,1.25,0,0,0-.5-.38,7.81,7.81,0,0,0-.77-.3l.16-.54,7.38,2.43-1.58,4.49-.55-.2.81-2.35a2.3,2.3,0,0,0,.13-1.17,1.08,1.08,0,0,0-.8-.8L239.66,90l-1-.36Z" style="fill:#263238"></path><path d="M241.9,106.94a1,1,0,0,0-.09.6.72.72,0,0,0,.24.43,1.48,1.48,0,0,0,.45.3,5,5,0,0,0,.53.23l-.2.54-4.72-1.74.21-.58.59.23a1.58,1.58,0,0,0,.55.11.88.88,0,0,0,.47-.16,1.07,1.07,0,0,0,.37-.56l4.23-11.12a3.19,3.19,0,0,0,.2-.8.94.94,0,0,0-.12-.54,1.07,1.07,0,0,0-.42-.39c-.2-.1-.44-.22-.73-.34l.2-.55.49.22a5,5,0,0,0,.5.21l.6.24,1.62.63-.66,1.68a4.17,4.17,0,0,1,.84-.59,3.17,3.17,0,0,1,.81-.29,2.31,2.31,0,0,1,.74,0,2.85,2.85,0,0,1,.67.16,2.28,2.28,0,0,1,.93.58,2.2,2.2,0,0,1,.51.83,2.62,2.62,0,0,1,.12,1,3.65,3.65,0,0,1-.25,1L247.2,107a1,1,0,0,0-.09.6.89.89,0,0,0,.24.42,1.44,1.44,0,0,0,.46.29,5,5,0,0,0,.54.21l-.19.59-4.73-1.79.2-.55.59.21a2,2,0,0,0,.56.1.77.77,0,0,0,.48-.14,1.23,1.23,0,0,0,.38-.55l3.41-9a3.37,3.37,0,0,0,.12-.48,1.73,1.73,0,0,0,0-.51A1,1,0,0,0,249,96a.92.92,0,0,0-.43-.31,1.77,1.77,0,0,0-1.26,0,4.33,4.33,0,0,0-1.46,1Z" style="fill:#263238"></path><path d="M256.72,97.36l3.36,1.26-.2.53L258,98.44a1.18,1.18,0,0,0-.67,0,2,2,0,0,0-.64.29,2.73,2.73,0,0,0-.52.5,3.55,3.55,0,0,0-.34.57l-4.4,11.55c-.1.27-.21.58-.32.94a4.61,4.61,0,0,0-.22,1.08,2.13,2.13,0,0,0,.13,1,1.1,1.1,0,0,0,.72.65,1,1,0,0,0,.68,0,1.28,1.28,0,0,0,.54-.33,2,2,0,0,0,.41-.54,4.56,4.56,0,0,0,.27-.61l.52.35a3.64,3.64,0,0,1-.66,1.17,2.21,2.21,0,0,1-.79.59,1.75,1.75,0,0,1-.84.13,2.86,2.86,0,0,1-.83-.18,2.19,2.19,0,0,1-1.13-.87,3,3,0,0,1-.43-1.28,4.45,4.45,0,0,1,.06-1.45,8.14,8.14,0,0,1,.36-1.36L255,97.3l-2-.74.19-.53,2,.74,1.48-3.84,2.06-.76Z" style="fill:#263238"></path><path d="M260.58,112.28l-.2.55-4.48-1.68.22-.58,1.47.55,3.63-9.59a4,4,0,0,0,.17-.59,1.75,1.75,0,0,0,0-.6,1.15,1.15,0,0,0-.18-.52,1,1,0,0,0-.48-.38l-.67-.25.2-.53,3.4,1.34-4.53,11.71ZM264.87,97a1.08,1.08,0,0,1-.56.61,1,1,0,0,1-.83,0,1.14,1.14,0,0,1-.64-1.42,1,1,0,0,1,.57-.58,1.1,1.1,0,0,1,1.43.53A1,1,0,0,1,264.87,97Z" style="fill:#263238"></path><path d="M263.58,115a1.07,1.07,0,0,0-.1.6.78.78,0,0,0,.25.43,1.48,1.48,0,0,0,.45.3,5,5,0,0,0,.53.23l-.2.55-4.72-1.75.22-.58.58.23a1.58,1.58,0,0,0,.55.11.81.81,0,0,0,.47-.16,1.07,1.07,0,0,0,.37-.56l4.23-11.11a3,3,0,0,0,.2-.8,1,1,0,0,0-.11-.54,1,1,0,0,0-.43-.39,6.34,6.34,0,0,0-.73-.35l.21-.54.49.21.5.22.6.23,1.62.63-.66,1.68a3.85,3.85,0,0,1,.84-.58,3.16,3.16,0,0,1,.8-.3,2.33,2.33,0,0,1,.74,0,2.94,2.94,0,0,1,.68.16,2.44,2.44,0,0,1,.93.59,2.19,2.19,0,0,1,.5.82,2.64,2.64,0,0,1,.12,1,3.35,3.35,0,0,1-.25,1.05l-3.38,8.74a1,1,0,0,0-.09.6.8.8,0,0,0,.24.42,1.66,1.66,0,0,0,.46.3,5,5,0,0,0,.54.2l-.19.59-4.73-1.79.2-.55.59.21a2,2,0,0,0,.56.11.78.78,0,0,0,.48-.15,1.23,1.23,0,0,0,.38-.55l3.41-9a2.25,2.25,0,0,0,.12-.48,1.73,1.73,0,0,0,0-.51,1.1,1.1,0,0,0-.19-.46,1,1,0,0,0-.44-.31,1.77,1.77,0,0,0-1.26,0,4.75,4.75,0,0,0-1.46,1Z" style="fill:#263238"></path><path d="M276.37,110.51c.48.17.86.32,1.15.44a1.43,1.43,0,0,0,.72.15.7.7,0,0,0,.48-.36,5.51,5.51,0,0,0,.44-1.07l.54.19-1.53,4.25-.53-.19.44-1.23a1.13,1.13,0,0,0,.06-.3,1.22,1.22,0,0,0,0-.33,1,1,0,0,0-.11-.3.43.43,0,0,0-.23-.19l-1.6-.54-2.09,6.34.95.34c.3.11.61.21.92.29a1.26,1.26,0,0,0,.64,0,2.06,2.06,0,0,0,.63-.22,2.25,2.25,0,0,0,.52-.4,1.54,1.54,0,0,0,.34-.53l.82-2.21.55.2-1.62,4.38-3.67-1.21-3.67-1.21.17-.58.74.26a1.39,1.39,0,0,0,.58.08.77.77,0,0,0,.47-.24,1.79,1.79,0,0,0,.38-.7l0-.09,3.42-10.23a2.07,2.07,0,0,0,.14-.82.9.9,0,0,0-.2-.56,1.25,1.25,0,0,0-.5-.38,7.81,7.81,0,0,0-.77-.3l.16-.54,7.38,2.42-1.58,4.49-.55-.19.81-2.36a2.26,2.26,0,0,0,.13-1.16,1.06,1.06,0,0,0-.8-.8l-1-.36-1.06-.36Z" style="fill:#263238"></path><path d="M287.05,102.13l-2.16,5-.4-.07,1.53-5.48Z" style="fill:#263238"></path><path d="M291.27,115.34l-.62-.2,1-3.36a5.39,5.39,0,0,0,.19-1,3.47,3.47,0,0,0,0-1.07,2.44,2.44,0,0,0-.39-.92,1.54,1.54,0,0,0-.82-.59,1.36,1.36,0,0,0-1.09,0,2.46,2.46,0,0,0-.85.74,4.85,4.85,0,0,0-.63,1.12c-.17.42-.32.81-.44,1.17a5.53,5.53,0,0,0-.3,1.81,6.39,6.39,0,0,0,.21,1.56A6.73,6.73,0,0,0,288,116c.21.39.4.74.58,1a8.52,8.52,0,0,1,.7,1.43,5.18,5.18,0,0,1,.34,1.34,5.3,5.3,0,0,1,0,1.32,7,7,0,0,1-.32,1.36,6.26,6.26,0,0,1-.81,1.66,4.38,4.38,0,0,1-1.16,1.12,3.45,3.45,0,0,1-1.43.5,3.86,3.86,0,0,1-1.65-.2,3.54,3.54,0,0,1-1.12-.6,3.2,3.2,0,0,1-.79-.9,3,3,0,0,1-.22-2.41,2.5,2.5,0,0,1,.54-1,2.31,2.31,0,0,1,.81-.62,2.68,2.68,0,0,1,1-.25,2.94,2.94,0,0,1,1.08.15,3.4,3.4,0,0,1,.72.34l-.34.51a1.32,1.32,0,0,0-.29-.19,1.45,1.45,0,0,0-.29-.13,2.1,2.1,0,0,0-1.64.08,2,2,0,0,0-1,1.25,2.21,2.21,0,0,0-.12,1,2.31,2.31,0,0,0,.24.9,2.5,2.5,0,0,0,.56.74,2.42,2.42,0,0,0,.83.47,1.7,1.7,0,0,0,1.2,0,2.52,2.52,0,0,0,1-.72,5,5,0,0,0,.75-1.09,7.42,7.42,0,0,0,.49-1.16,4.74,4.74,0,0,0,.26-2,4.07,4.07,0,0,0-.43-1.56l-.88-1.68a10.57,10.57,0,0,1-.73-1.78,7.3,7.3,0,0,1-.33-1.94,6.29,6.29,0,0,1,.34-2.15,5.61,5.61,0,0,1,1.95-3,2.92,2.92,0,0,1,2.69-.36,2.66,2.66,0,0,1,1.25.82,2.81,2.81,0,0,1,.61,1.37l.72-2.4.63.17Z" style="fill:#263238"></path><path d="M309.07,118.76c-.11,1-.23,2-.35,3a27.27,27.27,0,0,1-.49,2.85,16.31,16.31,0,0,1-.77,2.53,6.9,6.9,0,0,1-1.2,2,4.88,4.88,0,0,1-1.76,1.27,5.69,5.69,0,0,1-2.46.38l-3.31-.14.06-.61a6,6,0,0,0,.7,0,1.14,1.14,0,0,0,.52-.13.85.85,0,0,0,.34-.38,2,2,0,0,0,.18-.72l2.33-20.6a1.87,1.87,0,0,0-.05-.86.78.78,0,0,0-.35-.44,1.37,1.37,0,0,0-.59-.19l-.77-.08.06-.61,3.47.37a5.57,5.57,0,0,1,2.36.72,4.4,4.4,0,0,1,1.48,1.46,6.13,6.13,0,0,1,.76,2,14.6,14.6,0,0,1,.23,2.47,26.3,26.3,0,0,1-.11,2.76C309.26,116.84,309.17,117.8,309.07,118.76Zm-1.67-.44c.2-1.9.34-3.53.42-4.91a13.94,13.94,0,0,0-.14-3.42,3.86,3.86,0,0,0-1-2.08,3.35,3.35,0,0,0-2.07-.86L302,130.13a2.82,2.82,0,0,0,2.32-.68,6.06,6.06,0,0,0,1.48-2.42,20.17,20.17,0,0,0,.93-3.82Q307.12,121,307.4,118.32Z" style="fill:#263238"></path><path d="M316.84,126.62a2.65,2.65,0,0,1-.5.68,4.75,4.75,0,0,1-.69.57,4,4,0,0,1-.79.41,2.9,2.9,0,0,1-.77.17,2,2,0,0,1-1-.2,2.35,2.35,0,0,1-.73-.6,2.87,2.87,0,0,1-.47-.86,3.84,3.84,0,0,1-.19-1,3.51,3.51,0,0,1,.33-1.73,6.61,6.61,0,0,1,1-1.41,13.94,13.94,0,0,1,1.29-1.25,12,12,0,0,0,1.29-1.28,6.36,6.36,0,0,0,1-1.49,4,4,0,0,0,.33-1.87,4.79,4.79,0,0,0-.16-1.08,3.14,3.14,0,0,0-.46-1,2.39,2.39,0,0,0-.78-.74,1.83,1.83,0,0,0-1.08-.25,1.78,1.78,0,0,0-1.08.37,2.22,2.22,0,0,0-.63.84,3.62,3.62,0,0,0-.29,1.12,9.75,9.75,0,0,0,0,1.2,5.57,5.57,0,0,0,.07.58,4.67,4.67,0,0,0,.14.67,2,2,0,0,0,.26.55.4.4,0,0,0,.37.21.47.47,0,0,0,.36-.16,1.23,1.23,0,0,0,.21-.37,1.63,1.63,0,0,0,.06-.45c0-.16,0-.29,0-.42l.58-.06a3.74,3.74,0,0,1,0,.75,1.89,1.89,0,0,1-.17.65,1.26,1.26,0,0,1-.38.47,1.12,1.12,0,0,1-.59.2,1.28,1.28,0,0,1-.83-.24,2,2,0,0,1-.54-.66,3.65,3.65,0,0,1-.3-.86,6,6,0,0,1-.12-.85,5.63,5.63,0,0,1,.13-1.48,4.17,4.17,0,0,1,.54-1.32,2.91,2.91,0,0,1,2.43-1.4,2.93,2.93,0,0,1,1.79.43,3.76,3.76,0,0,1,1.18,1.26,6,6,0,0,1,.68,1.69,10.33,10.33,0,0,1,.26,1.74c.07,1.41.08,2.82.05,4.22s0,2.81.05,4.24a1.88,1.88,0,0,0,.15.7.72.72,0,0,0,.35.32,1.44,1.44,0,0,0,.54.1h.69l0,.58c-.59,0-1.17,0-1.75,0h-1.71Zm-1.89.71a1.06,1.06,0,0,0,.51-.15,2.17,2.17,0,0,0,.52-.37,5.17,5.17,0,0,0,.49-.54,4,4,0,0,0,.39-.67l0-6a11.7,11.7,0,0,1-1.07,1.38c-.4.46-.79.93-1.15,1.41a8.4,8.4,0,0,0-.91,1.46,3.1,3.1,0,0,0-.34,1.57,2.89,2.89,0,0,0,.12.66,2.12,2.12,0,0,0,.29.65,1.51,1.51,0,0,0,.47.47A1,1,0,0,0,315,127.33Z" style="fill:#263238"></path><path d="M324.44,122.83l-5.71-11.14A1.26,1.26,0,0,0,318,111a2.4,2.4,0,0,0-1.07-.06l-.07-.45,4.54-.69.07.44-.41.07a.75.75,0,0,0-.49.33.76.76,0,0,0-.17.56s.08.18.22.48l.58,1.16c.23.47.5,1,.8,1.59l.91,1.8.89,1.76.77,1.5c.05-1.37.1-2.51.14-3.43s.07-1.65.1-2.22,0-1,.06-1.28,0-.48,0-.59,0-.17,0-.17h0a1.32,1.32,0,0,0-.12-.35,1.55,1.55,0,0,0-.24-.33,1.39,1.39,0,0,0-.31-.23.67.67,0,0,0-.37,0L323,111l-.06-.43,4.52-.69.07.43-.68.1a.88.88,0,0,0-.4.17,1.15,1.15,0,0,0-.32.34,2.32,2.32,0,0,0-.22.41,1.42,1.42,0,0,0-.1.42L324.9,133a11.17,11.17,0,0,1-.16,1.47,5.41,5.41,0,0,1-.46,1.46,3.71,3.71,0,0,1-.85,1.18,2.45,2.45,0,0,1-1.37.62,2.29,2.29,0,0,1-1.08-.07,2.67,2.67,0,0,1-.89-.49,2.81,2.81,0,0,1-.66-.79,3,3,0,0,1-.33-1,3.19,3.19,0,0,1,0-.88,3.68,3.68,0,0,1,.2-.93,3.74,3.74,0,0,1,.48-.87,2.74,2.74,0,0,1,.81-.69l.42.14a2.13,2.13,0,0,0-.78,1.22,3.91,3.91,0,0,0-.07,1.48,3.41,3.41,0,0,0,.22.8,2.6,2.6,0,0,0,.43.72,1.7,1.7,0,0,0,.62.48,1.65,1.65,0,0,0,1.81-.43,2.76,2.76,0,0,0,.5-1,5.8,5.8,0,0,0,.2-1.19c0-.41,0-.77.07-1.1Z" style="fill:#263238"></path><path d="M154.4,118.36c0,.14-6.7.07-15-.16s-15-.54-15-.68,6.71-.07,15,.16S154.41,118.22,154.4,118.36Z" style="fill:#263238"></path><path d="M369.85,130.94a5.17,5.17,0,0,1-.43,1.07,25,25,0,0,1-1.47,2.77,34.67,34.67,0,0,1-2.66,3.82,40.23,40.23,0,0,1-3.91,4.16,38.25,38.25,0,0,1-4.52,3.49,32.71,32.71,0,0,1-4.06,2.29,28.33,28.33,0,0,1-2.89,1.2,5.21,5.21,0,0,1-1.11.32c0-.09,1.51-.65,3.84-1.85a39.29,39.29,0,0,0,4-2.36,44.24,44.24,0,0,0,4.43-3.47,45.53,45.53,0,0,0,3.89-4.08,42.71,42.71,0,0,0,2.72-3.72C369.06,132.37,369.76,130.9,369.85,130.94Z" style="fill:#263238"></path></g><g id="freepik--Floor--inject-19"><path d="M417.53,478.17c0,.15-75,.26-167.52.26s-167.54-.11-167.54-.26,75-.26,167.54-.26S417.53,478,417.53,478.17Z" style="fill:#263238"></path></g></svg>